<svg width="83" height="52" viewBox="0 0 83 52" fill="none" xmlns="http://www.w3.org/2000/svg">
<path d="M79.2964 6.23498H3.29639C2.87247 6.25901 2.44813 6.19634 2.04932 6.05065C1.6505 5.90497 1.28566 5.6793 0.977051 5.38769C0.668439 5.09607 0.422416 4.74454 0.254395 4.35461C0.0863732 3.96467 0 3.54458 0 3.11999C0 2.69539 0.0863732 2.2753 0.254395 1.88537C0.422416 1.49543 0.668439 1.1439 0.977051 0.852288C1.28566 0.560674 1.6505 0.335131 2.04932 0.189446C2.44813 0.043761 2.87247 -0.0190302 3.29639 0.00499802H79.2964C79.7203 -0.0190302 80.1446 0.043761 80.5435 0.189446C80.9423 0.335131 81.3071 0.560674 81.6157 0.852288C81.9243 1.1439 82.1704 1.49543 82.3384 1.88537C82.5064 2.2753 82.5928 2.69539 82.5928 3.11999C82.5928 3.54458 82.5064 3.96467 82.3384 4.35461C82.1704 4.74454 81.9243 5.09607 81.6157 5.38769C81.3071 5.6793 80.9423 5.90497 80.5435 6.05065C80.1446 6.19634 79.7203 6.25901 79.2964 6.23498V6.23498Z" fill="url(#paint0_linear_15_286)"/>
<path d="M79.2964 28.8649H3.29639C2.87247 28.8889 2.44813 28.8262 2.04932 28.6805C1.6505 28.5349 1.28566 28.3092 0.977051 28.0176C0.668439 27.726 0.422416 27.3744 0.254395 26.9845C0.0863732 26.5946 0 26.1745 0 25.7499C0 25.3253 0.0863732 24.9052 0.254395 24.5153C0.422416 24.1253 0.668439 23.7738 0.977051 23.4822C1.28566 23.1906 1.6505 22.965 2.04932 22.8193C2.44813 22.6736 2.87247 22.6109 3.29639 22.6349H79.2964C79.7203 22.6109 80.1446 22.6736 80.5435 22.8193C80.9423 22.965 81.3071 23.1906 81.6157 23.4822C81.9243 23.7738 82.1704 24.1253 82.3384 24.5153C82.5064 24.9052 82.5928 25.3253 82.5928 25.7499C82.5928 26.1745 82.5064 26.5946 82.3384 26.9845C82.1704 27.3744 81.9243 27.726 81.6157 28.0176C81.3071 28.3092 80.9423 28.5349 80.5435 28.6805C80.1446 28.8262 79.7203 28.8889 79.2964 28.8649V28.8649Z" fill="url(#paint1_linear_15_286)"/>
<path d="M79.2964 51.4949H3.29639C2.47156 51.4949 1.68041 51.1672 1.09717 50.584C0.51393 50.0007 0.186523 49.2097 0.186523 48.3849C0.186523 47.5601 0.51393 46.769 1.09717 46.1858C1.68041 45.6026 2.47156 45.2749 3.29639 45.2749H79.2964C80.1212 45.2749 80.9124 45.6026 81.4956 46.1858C82.0788 46.769 82.4062 47.5601 82.4062 48.3849C82.4062 49.2097 82.0788 50.0007 81.4956 50.584C80.9124 51.1672 80.1212 51.4949 79.2964 51.4949Z" fill="url(#paint2_linear_15_286)"/>
<defs>
<linearGradient id="paint0_linear_15_286" x1="20.0965" y1="-18.0849" x2="62.4964" y2="24.3149" gradientUnits="userSpaceOnUse">
<stop stop-color="#B3B3B3"/>
<stop offset="1" stop-color="#CCCCCC"/>
</linearGradient>
<linearGradient id="paint1_linear_15_286" x1="20.0965" y1="4.54493" x2="62.4964" y2="46.9547" gradientUnits="userSpaceOnUse">
<stop stop-color="#B3B3B3"/>
<stop offset="1" stop-color="#CCCCCC"/>
</linearGradient>
<linearGradient id="paint2_linear_15_286" x1="20.0965" y1="27.185" x2="62.4963" y2="69.5848" gradientUnits="userSpaceOnUse">
<stop stop-color="#B3B3B3"/>
<stop offset="1" stop-color="#CCCCCC"/>
</linearGradient>
</defs>
</svg>
