<svg width="477" height="217" viewBox="0 0 477 217" fill="none" xmlns="http://www.w3.org/2000/svg">
<path d="M34.1732 43.63H9.51306C9.20712 44.3311 8.70181 44.9267 8.05994 45.3428C7.41806 45.7588 6.6681 45.9769 5.9032 45.97H4.4032V17.0299C4.47753 16.0499 4.34451 15.0653 4.01306 14.14C3.67302 13.6314 3.15021 13.2733 2.5531 13.14C1.94817 12.985 1.35896 12.7741 0.793092 12.51C0.543389 12.4013 0.333452 12.218 0.192018 11.9852C0.0505833 11.7525 -0.0154627 11.4817 0.00305272 11.21C0.00305272 9.97996 0.823258 9.35999 2.46326 9.35999H7.66321C9.83321 9.35999 10.9232 10.57 10.9232 12.97V19.97H29.243V14.34C29.3416 13.4062 29.1753 12.4636 28.7631 11.62C28.3612 11.1402 27.8248 10.7919 27.223 10.62C26.5671 10.4146 25.9313 10.1501 25.3231 9.82996C25.11 9.70876 24.9352 9.53013 24.8185 9.31445C24.7018 9.09877 24.648 8.85473 24.6632 8.60999C24.6632 7.43999 25.513 6.84998 27.223 6.84998H32.223C34.563 6.84998 35.743 8.04996 35.743 10.46V32.6C35.743 35.2266 35.2132 37.1833 34.1532 38.47C35.9732 38.47 36.8832 39.31 36.8832 40.99C36.923 41.3525 36.8797 41.7193 36.7565 42.0626C36.6333 42.4059 36.4335 42.7166 36.1722 42.9711C35.911 43.2256 35.595 43.4172 35.2487 43.5314C34.9023 43.6455 34.5346 43.6793 34.1732 43.63V43.63ZM10.743 38.4199H29.243V25.1699H10.9232V35.8199C10.9254 36.6898 10.8651 37.5587 10.743 38.4199V38.4199ZM15.9432 57.72C14.3032 57.72 13.473 56.8299 13.473 55.0299C13.473 53.2299 14.2732 52.4299 15.8532 52.4299H52.1432C54.3132 52.4299 55.4032 53.6399 55.4032 56.0399V73.0399C55.4032 78.3733 53.8765 81.0399 50.8231 81.0399H48.973V57.7999L15.9432 57.72ZM49.5031 8.64001C49.5031 7.02001 49.1631 5.91996 48.5031 5.32996C47.6949 4.67859 46.741 4.23251 45.723 4.02991C44.8011 3.85082 43.9023 3.5691 43.0431 3.18994C42.7843 3.07728 42.5658 2.88903 42.4159 2.6499C42.266 2.41078 42.1919 2.13197 42.2032 1.84998C42.2032 0.619976 43.1132 0 44.9332 0H52.6832C54.9699 0 56.1165 1.17657 56.1232 3.52991V22.99H67.483C69.363 22.99 70.3031 23.8799 70.3031 25.6699C70.3031 27.4599 69.363 28.36 67.483 28.36H56.1232V40.4399C56.1232 45.5799 54.4197 48.1532 51.0131 48.1599H49.5131L49.5031 8.64001Z" fill="#595857"/>
<path d="M105.613 8.63989C107.9 8.63989 109.043 9.97323 109.043 12.6399V33.6399C109.114 35.3625 108.771 37.0771 108.043 38.6399C109.853 38.6999 110.773 39.5398 110.773 41.1598C110.773 42.9498 109.773 43.8398 107.863 43.8398H82.8434C82.5359 44.566 82.0205 45.185 81.3622 45.6191C80.7039 46.0533 79.932 46.2831 79.1435 46.2798H77.6435V18.3298C77.7353 16.9578 77.5691 15.5806 77.1535 14.2698C76.6319 13.4136 75.7952 12.7961 74.8234 12.5498C74.2977 12.3961 73.8151 12.1223 73.4135 11.7499C73.1037 11.39 72.9458 10.9238 72.9733 10.4498C72.9733 9.21983 73.6235 8.59985 74.9135 8.59985L105.613 8.63989ZM84.1234 38.6399H102.533V13.9298H84.2135V36.0798C84.2135 36.9698 84.1734 37.8098 84.1234 38.5898V38.6399ZM131.593 78.5698H102.353C96.9534 78.5698 94.2533 76.1098 94.2533 71.1898V62.1299C94.2533 60.5099 93.9735 59.4298 93.4135 58.8998C92.6053 58.2484 91.6515 57.8025 90.6334 57.5999C89.8219 57.4087 89.0386 57.1129 88.3034 56.7198C88.0984 56.5577 87.9383 56.3457 87.8385 56.1041C87.7387 55.8625 87.7025 55.5994 87.7333 55.3398C87.7333 54.1098 88.6134 53.4899 90.3734 53.4899H97.3734C99.6634 53.4899 100.803 54.8098 100.803 57.4298V71.4298C100.803 72.6098 101.333 73.1898 102.393 73.1898H131.543C133.483 73.1898 134.454 74.0899 134.454 75.8799C134.454 77.6699 133.533 78.5198 131.593 78.5198V78.5698ZM124.283 8.68982C124.283 7.06982 123.963 5.96988 123.283 5.37988C122.475 4.71132 121.506 4.26342 120.473 4.07983C119.565 3.88749 118.677 3.60617 117.823 3.23987C117.556 3.13471 117.328 2.9494 117.171 2.70947C117.013 2.46954 116.934 2.18666 116.944 1.89978C116.944 0.66978 117.853 0.0498047 119.673 0.0498047H127.343C129.683 0.0498047 130.863 1.22983 130.863 3.57983V52.4799C130.863 57.7399 129.197 60.3699 125.863 60.3699H124.273L124.283 8.68982Z" fill="#595857"/>
<path d="M167.623 47.5702V71.3302C167.623 76.7502 166.037 79.4636 162.863 79.4702H161.283V47.5902H144.373C144.01 47.6393 143.641 47.6032 143.294 47.4847C142.947 47.3663 142.633 47.1687 142.376 46.9077C142.119 46.6467 141.926 46.3294 141.812 45.981C141.699 45.6325 141.669 45.2625 141.723 44.9002C141.723 43.2302 142.603 42.3903 144.373 42.3903H206.843C208.843 42.3903 209.843 43.2302 209.843 44.9002C209.843 46.5702 208.843 47.5902 206.843 47.5902H191.073V71.3302C191.073 76.7502 189.517 79.4636 186.403 79.4702H184.733V47.5902L167.623 47.5702ZM155.463 11.2402C153.643 11.2402 152.733 10.3502 152.733 8.56019C152.678 8.19825 152.709 7.82848 152.822 7.48035C152.935 7.13222 153.128 6.81537 153.385 6.55506C153.643 6.29474 153.958 6.09813 154.304 5.98096C154.651 5.86379 155.021 5.82937 155.383 5.88025H192.553C195.013 5.88025 196.253 7.2702 196.253 10.0702C196.253 11.5202 196.173 13.3702 196.033 15.6102C195.893 17.8502 195.693 20.2502 195.453 22.8202C195.227 25.3553 194.86 27.8759 194.353 30.3702C193.967 32.418 193.394 34.4263 192.643 36.3702C192.378 37.0062 191.911 37.537 191.313 37.8803C191.01 38.0458 190.675 38.1464 190.331 38.1757C189.987 38.2049 189.64 38.1622 189.313 38.0502C189.072 37.9882 188.852 37.8628 188.676 37.6869C188.501 37.511 188.375 37.2911 188.313 37.0502C188.216 36.4249 188.199 35.7897 188.263 35.1602C188.55 33.3202 188.77 31.2935 188.923 29.0802C189.073 26.8702 189.203 24.7102 189.323 22.5802C189.443 20.4502 189.323 18.4002 189.323 16.5802C189.323 14.7602 189.373 12.9902 189.373 11.2502L155.463 11.2402Z" fill="#595857"/>
<path d="M232.103 33.3299C229.437 28.2899 228.087 23.9832 228.053 20.4099C227.967 18.6904 228.252 16.9727 228.889 15.3732C229.526 13.7737 230.499 12.33 231.743 11.14C234.27 8.7133 237.707 7.57994 242.053 7.73994C245.188 7.74616 248.207 8.92712 250.513 11.0499C251.614 12.0851 252.481 13.3431 253.057 14.7398C253.633 16.1365 253.904 17.6399 253.853 19.1499C253.893 20.7747 253.592 22.3897 252.97 23.8914C252.348 25.3931 251.419 26.7483 250.243 27.8699C248.017 30.0633 244.437 32.3966 239.503 34.8699C241.843 38.8699 243.693 41.9166 245.053 44.01C247.053 47.03 249.49 50.5266 252.363 54.5C253.682 52.7849 254.802 50.9264 255.703 48.9599C256.843 46.8315 257.525 44.4878 257.703 42.0799C257.76 41.0439 257.483 40.0169 256.913 39.1499C256.383 38.4199 255.293 38.0599 253.653 38.0599C252.773 38.0599 252.333 37.58 252.333 36.63C252.333 35.68 252.743 35.1999 253.563 35.1999H268.713C269.883 35.1999 270.473 35.68 270.473 36.63C270.473 37.58 269.883 38.0599 268.713 38.0599C267.58 38.0009 266.448 38.2135 265.413 38.6799C264.613 39.0999 263.953 40.3999 263.413 42.5899C261.829 48.3534 259.109 53.7421 255.413 58.4399C258.233 61.6332 261.08 63.5066 263.953 64.0599C265.055 64.228 266.178 64.1838 267.263 63.9299C268.479 63.6761 269.65 63.2377 270.733 62.63C272.143 61.91 273.193 61.99 273.863 62.89C274.533 63.79 274.353 64.5899 273.293 65.3199C272.171 66.1342 270.939 66.7841 269.633 67.25C267.714 67.9594 265.679 68.2987 263.633 68.25C259.527 68.25 255.623 66.25 251.923 62.25C246.923 67.11 241.373 69.5432 235.273 69.5499C230.047 69.5499 225.877 67.9699 222.763 64.8099C221.246 63.3015 220.05 61.5013 219.247 59.5179C218.444 57.5345 218.052 55.4091 218.093 53.2699C218.055 48.6859 219.683 44.2441 222.673 40.7699C225.363 37.7635 228.554 35.2463 232.103 33.3299ZM240.733 47.9199C239.147 45.5799 237.033 42.0866 234.393 37.4399C231.691 38.9647 229.313 41.0029 227.393 43.4399C225.239 46.1113 224.168 49.4953 224.393 52.9199C224.693 56.5599 225.853 59.3566 227.873 61.3099C229.788 63.2167 232.353 64.3278 235.053 64.4199C237.611 64.4762 240.147 63.9281 242.453 62.8199C244.758 61.7881 246.85 60.3367 248.623 58.5399C245.53 54.6932 242.9 51.1465 240.733 47.8999V47.9199ZM237.293 30.64C241.647 28.52 244.613 26.6465 246.193 25.0198C247.953 23.1798 248.833 21.3632 248.833 19.5699C248.873 18.6175 248.722 17.6667 248.389 16.7736C248.056 15.8805 247.547 15.0633 246.893 14.3699C246.2 13.6882 245.373 13.1583 244.464 12.8139C243.555 12.4696 242.584 12.3184 241.613 12.3699C240.615 12.3179 239.617 12.4683 238.679 12.812C237.741 13.1557 236.882 13.6856 236.153 14.3699C235.443 15.1638 234.899 16.0927 234.556 17.1013C234.212 18.1098 234.075 19.1773 234.153 20.2399C234.133 23.1399 235.18 26.5999 237.293 30.6199V30.64Z" fill="#595857"/>
<path d="M286.843 14.1802C284.963 14.1802 284.033 13.2902 284.033 11.5002C284.033 9.71024 284.933 8.90015 286.763 8.90015H314.503C314.975 8.86193 315.45 8.95026 315.877 9.15588C316.304 9.3615 316.668 9.67704 316.933 10.0702C317.426 10.8412 317.598 11.7741 317.413 12.6702C316.293 18.7102 312.506 25.1969 306.053 32.1302C300.109 38.6624 293.146 44.1874 285.433 48.4902C283.793 49.4402 282.673 49.3302 282.093 48.1602C281.513 46.9902 281.853 45.9502 283.143 45.0502C289.806 40.6982 295.776 35.3686 300.853 29.2402C305.433 23.5602 308.34 18.5402 309.573 14.1802H286.843ZM334.593 50.8402C336.88 50.8402 338.023 52.1535 338.023 54.7802V67.3302C338.023 70.3502 337.436 72.5336 336.263 73.8802H336.353C338.233 73.8802 339.173 74.7402 339.173 76.4802C339.173 78.2202 338.233 79.1602 336.353 79.1602H307.983C307.668 79.8798 307.15 80.4925 306.494 80.9238C305.837 81.3552 305.069 81.5866 304.283 81.5902H302.703V60.5902C302.767 59.224 302.649 57.8554 302.353 56.5201C302.146 56.0965 301.849 55.7231 301.483 55.426C301.117 55.1289 300.69 54.9153 300.233 54.8002C299.647 54.6352 299.096 54.3678 298.603 54.0103C298.413 53.853 298.263 53.6536 298.164 53.4279C298.065 53.2021 298.02 52.9563 298.033 52.7102C298.033 51.4802 298.853 50.8602 300.503 50.8602L334.593 50.8402ZM309.133 73.8402H331.503V56.0502H309.223V71.4001C309.263 72.3301 309.233 73.1002 309.173 73.8302L309.133 73.8402ZM332.133 46.5702V8.65015C332.133 7.03015 331.813 5.93021 331.133 5.34021C330.319 4.67355 329.349 4.226 328.313 4.04016C327.408 3.84651 326.524 3.56522 325.673 3.2002C325.406 3.09504 325.178 2.90973 325.02 2.6698C324.863 2.42987 324.783 2.14711 324.793 1.86023C324.793 0.630229 325.703 0.0102539 327.523 0.0102539H335.183C337.537 0.0102539 338.71 1.18683 338.703 3.54016V38.7701C338.703 43.9701 337.037 46.5702 333.703 46.5702H332.133Z" fill="#595857"/>
<path d="M354.363 17.7C352.483 17.7 351.543 16.8099 351.543 15.0199C351.543 13.2299 352.453 12.4199 354.273 12.4199H380.083C381.783 12.4199 382.973 12.85 383.643 13.72C383.987 14.2256 384.196 14.8107 384.25 15.4197C384.304 16.0287 384.202 16.6415 383.953 17.2C381.814 23.0986 378.752 28.6205 374.883 33.5599L389.063 48.49C389.799 49.2567 390.263 50.2439 390.383 51.2999C390.408 51.7605 390.307 52.2192 390.09 52.6263C389.873 53.0335 389.549 53.3737 389.153 53.61C388.806 53.91 388.395 54.1263 387.951 54.2424C387.507 54.3586 387.043 54.3714 386.593 54.2799C385.571 54.0965 384.658 53.5273 384.043 52.6899L372.153 37.08C371.973 37.31 371.833 37.4999 371.713 37.6699C366.294 44.1971 360.01 49.9536 353.033 54.7799C351.333 55.8999 350.103 55.9566 349.343 54.95C348.583 53.9433 348.916 52.8533 350.343 51.6799C356.044 46.9076 361.199 41.5181 365.713 35.61C370.045 30.179 373.562 24.1455 376.153 17.7H354.363ZM400.513 8.64001C400.513 7.02001 400.193 5.91996 399.513 5.32996C398.702 4.65945 397.73 4.21141 396.693 4.02991C395.788 3.83626 394.904 3.55496 394.053 3.18994C393.786 3.08478 393.558 2.89948 393.4 2.65955C393.243 2.41961 393.163 2.13686 393.173 1.84998C393.173 0.619976 394.083 0 395.903 0H403.563C405.91 0 407.086 1.17657 407.093 3.52991V71.64C407.093 76.8533 405.426 79.4566 402.093 79.45H400.503L400.513 8.64001Z" fill="#595857"/>
<path d="M445.083 62H419.893C419.525 62.0543 419.15 62.0226 418.797 61.9072C418.444 61.7919 418.122 61.5961 417.858 61.3353C417.593 61.0745 417.392 60.7559 417.272 60.4044C417.151 60.053 417.114 59.6783 417.163 59.3099C417.163 57.5799 418.073 56.71 419.893 56.71H445.523C449.103 56.71 452.173 56.64 454.733 56.5C457.378 56.3354 460.01 56.0014 462.613 55.5C464.433 55.16 465.473 55.5 465.743 56.5C465.879 56.964 465.843 57.4618 465.641 57.9012C465.439 58.3407 465.084 58.692 464.643 58.89C463.293 59.79 460.923 60.53 457.553 61.12C453.428 61.7586 449.257 62.053 445.083 62V62ZM443.503 29.36C442.944 29.2427 442.453 28.9128 442.133 28.4399C441.922 28.0257 441.875 27.547 442.003 27.1C442.098 26.848 442.265 26.6299 442.484 26.4733C442.703 26.3166 442.964 26.2284 443.233 26.22C443.847 26.1456 444.468 26.1456 445.083 26.22C448.081 26.5135 450.896 27.7978 453.083 29.87C454.088 30.7812 454.879 31.9041 455.398 33.1578C455.916 34.4116 456.15 35.7649 456.083 37.12C456.021 38.8927 455.543 40.6259 454.686 42.1791C453.83 43.7323 452.619 45.0618 451.153 46.0599C447.749 48.5057 443.632 49.7574 439.443 49.62C435.225 49.7207 431.111 48.301 427.853 45.62C426.345 44.464 425.114 42.9864 424.249 41.2946C423.384 39.6027 422.907 37.7393 422.853 35.84C422.812 33.4232 423.483 31.0478 424.783 29.01C426.122 26.8057 427.966 24.9514 430.163 23.6H421.263C419.383 23.6 418.443 22.73 418.443 21C418.443 19.27 419.353 18.39 421.173 18.39H455.443C457.263 18.39 458.173 19.26 458.173 21C458.173 22.73 457.263 23.6 455.443 23.6H444.163C439.703 23.6 436.136 24.8 433.463 27.2C432.206 28.2563 431.202 29.5805 430.524 31.0756C429.845 32.5706 429.51 34.1986 429.543 35.84C429.572 36.9726 429.847 38.0854 430.35 39.1008C430.852 40.1163 431.57 41.01 432.453 41.72C434.448 43.3823 436.988 44.2477 439.583 44.1499C442.126 44.2545 444.628 43.4852 446.673 41.97C447.498 41.4085 448.185 40.6664 448.68 39.8C449.176 38.9337 449.467 37.9659 449.533 36.97C449.64 35.2206 449.075 33.4962 447.953 32.1499C446.795 30.7741 445.241 29.7893 443.503 29.33V29.36ZM430.723 9.81995L428.433 7.81995C427.96 7.42457 427.612 6.89981 427.433 6.30994C427.38 6.02734 427.392 5.73637 427.468 5.45911C427.544 5.18184 427.683 4.92561 427.873 4.70996C428.048 4.47587 428.272 4.28299 428.529 4.14478C428.787 4.00656 429.071 3.92633 429.363 3.90991C429.986 3.8948 430.6 4.05795 431.133 4.38C433.341 5.57239 435.693 6.47318 438.133 7.05994C440.441 7.48567 442.786 7.68326 445.133 7.6499C447.013 7.6499 447.953 8.51 447.953 10.25C447.971 10.6257 447.887 10.9993 447.712 11.3318C447.536 11.6643 447.274 11.9434 446.953 12.14C446.379 12.5286 445.706 12.7438 445.013 12.76L438.853 12.6799C435.882 12.7662 432.985 11.7471 430.723 9.81995V9.81995ZM468.873 8.64001C468.937 8.04943 468.881 7.45193 468.709 6.8833C468.537 6.31467 468.253 5.78645 467.873 5.32996C467.059 4.6633 466.088 4.21575 465.053 4.02991C464.144 3.83757 463.257 3.55624 462.403 3.18994C462.137 3.08357 461.909 2.89797 461.752 2.65833C461.595 2.41868 461.515 2.13656 461.523 1.84998C461.523 0.619976 462.433 0 464.253 0H471.923C474.276 0 475.45 1.17657 475.443 3.52991V71.64C475.443 76.8533 473.776 79.4566 470.443 79.45H468.843L468.873 8.64001Z" fill="#595857"/>
<path d="M8.32305 148.87C6.44305 148.87 5.50298 147.98 5.50298 146.19C5.50298 144.4 6.41296 143.59 8.23296 143.59H35.983C36.4606 143.556 36.9391 143.646 37.3719 143.851C37.8046 144.056 38.1771 144.369 38.4532 144.76C38.7094 145.137 38.8814 145.563 38.9573 146.012C39.0333 146.461 39.0113 146.921 38.8931 147.36C38.6468 148.475 38.3125 149.569 37.8931 150.63H53.5731V144C53.6368 143.41 53.581 142.812 53.4092 142.244C53.2374 141.675 52.9531 141.147 52.5731 140.69C51.7592 140.024 50.7884 139.576 49.753 139.39C48.847 139.2 47.9626 138.918 47.1131 138.55C46.845 138.446 46.6156 138.261 46.4564 138.021C46.2971 137.781 46.2155 137.498 46.223 137.21C46.223 135.98 47.1332 135.36 48.9532 135.36H56.6231C58.9698 135.36 60.1431 136.537 60.1431 138.89V169.42C60.1431 174.68 58.4765 177.31 55.1431 177.31H53.563V170.6H36.243C35.8754 170.655 35.5005 170.623 35.1473 170.508C34.7941 170.392 34.4725 170.196 34.2078 169.936C33.9432 169.675 33.7427 169.356 33.6221 169.005C33.5016 168.653 33.4641 168.279 33.513 167.91C33.513 166.24 34.423 165.4 36.243 165.4H53.6031V155.83H36.243C36.0069 155.841 35.7707 155.814 35.543 155.75C33.4094 159.379 30.8033 162.708 27.793 165.65C21.7595 171.789 14.6915 176.816 6.91314 180.5C5.21314 181.34 4.06296 181.18 3.48296 180.04C2.90296 178.9 3.2731 177.9 4.6231 177.04C11.0778 173.498 16.8974 168.905 21.8431 163.45C26.3964 158.297 29.4664 153.43 31.053 148.85L8.32305 148.87ZM59.3231 215.06H28.9332C25.7598 215.06 24.1765 213.244 24.1832 209.61V203.23C24.2735 202.3 24.0052 201.37 23.4332 200.63C22.8836 200.096 22.2391 199.669 21.533 199.37C21.0693 199.234 20.6375 199.006 20.263 198.7C20.0874 198.527 19.9525 198.317 19.8677 198.085C19.783 197.854 19.7506 197.606 19.773 197.36C19.773 196.24 20.5631 195.68 22.1531 195.68H52.8931V186.79H24.4432C24.0756 186.845 23.7004 186.813 23.3472 186.698C22.994 186.582 22.6724 186.386 22.4078 186.126C22.1431 185.865 21.9426 185.546 21.8221 185.195C21.7015 184.843 21.6643 184.469 21.7132 184.1C21.7132 182.43 22.5931 181.59 24.3531 181.59H56.4131C58.4731 181.59 59.503 182.79 59.503 185.19V196.52C59.503 199.37 58.2931 200.8 55.8931 200.8H30.783V207.51C30.783 209.07 31.4931 209.86 32.9031 209.86H59.3231C61.1431 209.86 62.053 210.7 62.053 212.37C62.1019 212.739 62.0647 213.113 61.9441 213.465C61.8236 213.816 61.6231 214.135 61.3585 214.396C61.0938 214.656 60.7722 214.852 60.419 214.968C60.0658 215.083 59.6906 215.115 59.3231 215.06V215.06Z" fill="#595857"/>
<path d="M108.383 158.43C107.033 158.15 106.493 157.51 106.753 156.5C107.013 155.49 108.063 155.08 109.883 155.25C112.884 155.496 115.709 156.767 117.883 158.85C118.845 159.77 119.607 160.877 120.123 162.104C120.639 163.33 120.898 164.65 120.883 165.98C120.883 169.314 119.297 172.25 116.123 174.79C113.9 176.58 111.269 177.792 108.464 178.32V184.77H136.123C138.123 184.77 139.123 185.61 139.123 187.29C139.123 188.97 138.123 189.98 136.123 189.98H73.6735C73.3112 190.028 72.9428 189.99 72.5974 189.871C72.2519 189.752 71.939 189.554 71.683 189.293C71.4271 189.032 71.2352 188.716 71.1225 188.368C71.0098 188.021 70.9792 187.652 71.0334 187.29C71.0334 185.61 71.9135 184.77 73.6735 184.77H101.843V178.48C98.6294 178.122 95.5787 176.875 93.0334 174.88C91.4332 173.734 90.1165 172.237 89.184 170.504C88.2515 168.771 87.728 166.847 87.6535 164.88C87.5729 162.559 88.1556 160.262 89.3334 158.26C90.606 155.974 92.4582 154.063 94.7036 152.72H81.4933C81.1254 152.777 80.7494 152.746 80.3952 152.632C80.041 152.517 79.7185 152.322 79.4533 152.06C79.1882 151.799 78.9879 151.479 78.8681 151.127C78.7483 150.774 78.7123 150.399 78.7634 150.03C78.7161 149.674 78.7522 149.312 78.8688 148.972C78.9854 148.632 79.1795 148.324 79.4355 148.072C79.6914 147.82 80.0024 147.631 80.3439 147.52C80.6855 147.408 81.0482 147.377 81.4035 147.43H125.883C127.763 147.43 128.704 148.3 128.704 150.03C128.704 151.76 127.763 152.72 125.883 152.72H108.973C104.453 152.72 100.843 153.924 98.1435 156.33C96.8788 157.352 95.8755 158.661 95.2165 160.148C94.5575 161.634 94.2616 163.257 94.3535 164.88C94.3901 166.046 94.6855 167.189 95.2182 168.227C95.7509 169.264 96.5076 170.171 97.4335 170.88C99.4336 172.469 101.93 173.301 104.483 173.23C106.966 173.298 109.399 172.53 111.393 171.05C112.265 170.478 112.991 169.71 113.512 168.807C114.033 167.904 114.335 166.891 114.393 165.85C114.474 164.944 114.364 164.03 114.07 163.169C113.775 162.307 113.303 161.517 112.684 160.85C111.511 159.65 110.018 158.81 108.383 158.43V158.43ZM123.893 214.3H94.4733C89.06 214.3 86.3568 211.84 86.3635 206.92V203.57C86.3635 201.94 86.0435 200.87 85.3635 200.34C84.5795 199.734 83.6816 199.292 82.7233 199.04C81.8503 198.807 81.008 198.471 80.2136 198.04C80.0136 197.892 79.8558 197.694 79.7558 197.466C79.6558 197.238 79.6171 196.988 79.6435 196.74C79.6435 195.45 80.5535 194.81 82.3735 194.81H89.4235C91.7102 194.81 92.8535 196.144 92.8535 198.81V207.11C92.8535 208.29 93.4134 208.87 94.5234 208.87H123.863C125.733 208.87 126.674 209.77 126.674 211.56C126.674 213.35 125.763 214.33 123.893 214.33V214.3ZM94.5534 140.3L92.2634 138.37C91.8 137.95 91.4552 137.416 91.2634 136.82C91.2128 136.545 91.2264 136.263 91.3027 135.994C91.379 135.725 91.5162 135.477 91.7036 135.27C91.9141 135.043 92.1745 134.868 92.4643 134.759C92.7541 134.649 93.0653 134.609 93.3735 134.64C93.9134 134.64 94.4489 134.738 94.9536 134.93C97.4183 136.212 100.061 137.119 102.793 137.62C105.387 138.026 108.009 138.223 110.633 138.21C112.513 138.21 113.454 139.05 113.454 140.72C113.485 141.113 113.409 141.507 113.232 141.86C113.056 142.212 112.787 142.51 112.454 142.72C111.886 143.116 111.215 143.335 110.523 143.35L102.684 143.27C99.6992 143.354 96.7939 142.303 94.5534 140.33V140.3Z" fill="#595857"/>
<path d="M170.133 148.45C169.805 151.994 168.725 155.428 166.963 158.52L181.963 172.28C182.807 172.946 183.373 173.901 183.553 174.96C183.624 175.374 183.605 175.797 183.499 176.203C183.392 176.608 183.199 176.986 182.933 177.31C182.613 177.661 182.217 177.934 181.775 178.107C181.332 178.281 180.857 178.35 180.383 178.31C179.852 178.309 179.329 178.183 178.855 177.944C178.381 177.704 177.969 177.357 177.653 176.93L164.653 162.5C164.2 163.258 163.699 163.986 163.153 164.68C158.714 170.471 153.396 175.532 147.393 179.68C145.573 180.96 144.213 181.1 143.333 180.1C142.453 179.1 142.723 178 144.133 176.83C149.187 172.768 153.574 167.94 157.133 162.52C160.56 157.24 162.453 152.78 162.813 149.14C162.871 148.759 162.792 148.369 162.591 148.04C162.39 147.711 162.079 147.463 161.713 147.34C160.873 147.015 160.002 146.778 159.113 146.63C158.859 146.621 158.609 146.559 158.38 146.448C158.15 146.338 157.946 146.18 157.781 145.987C157.616 145.793 157.492 145.567 157.418 145.323C157.345 145.08 157.323 144.823 157.353 144.57C157.413 143.42 158.143 142.85 159.553 142.85H165.633C167.74 142.85 169.073 143.41 169.633 144.53C170.14 145.771 170.312 147.122 170.133 148.45V148.45ZM160.703 192.66C159.123 192.66 158.333 191.77 158.333 189.98C158.333 188.19 159.093 187.38 160.623 187.38H196.993C199.173 187.38 200.253 188.58 200.253 190.98V208.33C200.253 213.664 198.727 216.33 195.673 216.33H193.743V192.67L160.703 192.66ZM194.353 183.1V144C194.353 142.38 194.033 141.28 193.353 140.69C192.542 140.02 191.57 139.572 190.533 139.39C189.628 139.197 188.744 138.915 187.893 138.55C187.626 138.445 187.398 138.26 187.241 138.02C187.083 137.78 187.004 137.497 187.013 137.21C187.013 135.98 187.923 135.36 189.743 135.36H197.403C199.75 135.36 200.927 136.537 200.933 138.89V175.33C200.933 180.53 199.267 183.13 195.933 183.13L194.353 183.1Z" fill="#595857"/>
<path d="M239.013 174.04C239.013 164.14 240.6 156.577 243.773 151.35C246.947 146.123 251.233 143.507 256.633 143.5C262.093 143.5 266.41 146.117 269.583 151.35C272.757 156.583 274.34 164.147 274.333 174.04C274.333 183.88 272.75 191.413 269.583 196.64C266.417 201.867 262.1 204.483 256.633 204.49C251.227 204.49 246.94 201.873 243.773 196.64C240.607 191.407 239.02 183.873 239.013 174.04ZM246.013 174.04C246.013 182.927 247.04 189.453 249.093 193.62C251.147 197.787 253.673 199.87 256.673 199.87C259.727 199.87 262.28 197.787 264.333 193.62C266.387 189.453 267.413 182.927 267.413 174.04C267.413 165.087 266.387 158.53 264.333 154.37C262.28 150.21 259.727 148.127 256.673 148.12C253.673 148.12 251.147 150.203 249.093 154.37C247.04 158.537 246 165.093 245.973 174.04H246.013Z" fill="#595857"/>
<path d="M279.624 174.04C279.624 164.14 281.207 156.577 284.374 151.35C287.54 146.123 291.827 143.507 297.233 143.5C302.707 143.5 307.04 146.117 310.233 151.35C313.427 156.583 315.013 164.147 314.993 174.04C314.993 183.88 313.407 191.413 310.233 196.64C307.06 201.867 302.727 204.483 297.233 204.49C291.833 204.49 287.547 201.873 284.374 196.64C281.2 191.407 279.617 183.873 279.624 174.04ZM286.624 174.04C286.624 182.927 287.65 189.453 289.704 193.62C291.757 197.787 294.28 199.87 297.273 199.87C300.333 199.87 302.89 197.787 304.944 193.62C306.997 189.453 308.023 182.927 308.023 174.04C308.023 165.087 306.997 158.53 304.944 154.37C302.89 150.21 300.333 148.127 297.273 148.12C294.287 148.12 291.764 150.203 289.704 154.37C287.644 158.537 286.604 165.093 286.584 174.04H286.624Z" fill="#595857"/>
<path d="M320.663 158.6C320.619 156.352 321.093 154.123 322.048 152.087C323.004 150.052 324.416 148.263 326.173 146.86C329.878 143.872 334.494 142.241 339.253 142.241C344.013 142.241 348.629 143.872 352.333 146.86C354.057 148.276 355.444 150.056 356.397 152.072C357.35 154.088 357.845 156.29 357.845 158.52C357.845 160.75 357.35 162.953 356.397 164.969C355.444 166.985 354.057 168.765 352.333 170.18C348.627 173.164 344.012 174.791 339.253 174.791C334.495 174.791 329.88 173.164 326.173 170.18C324.429 168.802 323.024 167.041 322.069 165.033C321.113 163.025 320.632 160.824 320.663 158.6V158.6ZM327.363 158.6C327.314 160.069 327.602 161.53 328.205 162.87C328.808 164.21 329.711 165.394 330.843 166.33C333.226 168.234 336.184 169.271 339.233 169.271C342.283 169.271 345.241 168.234 347.623 166.33C348.765 165.401 349.676 164.221 350.287 162.882C350.897 161.543 351.191 160.081 351.143 158.61C351.19 157.109 350.898 155.616 350.288 154.244C349.679 152.871 348.768 151.653 347.623 150.68C345.277 148.698 342.305 147.61 339.233 147.61C336.162 147.61 333.19 148.698 330.843 150.68C329.712 151.66 328.813 152.879 328.212 154.248C327.61 155.618 327.32 157.105 327.363 158.6V158.6ZM376.684 215.06H346.303C343.13 215.06 341.543 213.244 341.543 209.61V203.23C341.639 202.299 341.37 201.367 340.793 200.63C340.246 200.098 339.605 199.671 338.903 199.37C338.436 199.236 338 199.008 337.623 198.7C337.451 198.525 337.319 198.314 337.236 198.083C337.154 197.852 337.122 197.605 337.143 197.36C337.143 196.24 337.933 195.68 339.513 195.68H370.263V186.79H341.843C341.476 186.845 341.101 186.813 340.747 186.698C340.394 186.582 340.073 186.386 339.808 186.126C339.543 185.865 339.343 185.546 339.222 185.195C339.102 184.843 339.065 184.469 339.113 184.1C339.113 182.43 339.993 181.59 341.763 181.59H373.823C375.87 181.59 376.897 182.79 376.903 185.19V196.52C376.903 199.367 375.7 200.794 373.293 200.8H348.194V207.51C348.194 209.07 348.893 209.86 350.303 209.86H376.723C378.543 209.86 379.464 210.7 379.464 212.37C379.514 212.744 379.477 213.123 379.353 213.479C379.23 213.835 379.025 214.157 378.754 214.419C378.484 214.681 378.155 214.875 377.795 214.987C377.436 215.098 377.055 215.123 376.684 215.06V215.06ZM370.964 177.31V144C370.964 142.38 370.644 141.28 369.964 140.69C369.151 140.022 368.18 139.574 367.143 139.39C366.238 139.197 365.354 138.915 364.503 138.55C364.236 138.445 364.008 138.26 363.851 138.02C363.693 137.78 363.614 137.497 363.623 137.21C363.623 135.98 364.533 135.36 366.353 135.36H374.013C376.367 135.36 377.543 136.537 377.543 138.89V169.42C377.543 174.68 375.877 177.31 372.543 177.31H370.964Z" fill="#595857"/>
<path d="M421.083 149.33C419.203 149.33 418.263 148.44 418.263 146.65C418.263 144.86 419.173 144.05 420.993 144.05H445.743C446.39 143.992 447.043 144.07 447.658 144.28C448.273 144.49 448.837 144.828 449.313 145.27C450.043 146.08 450.173 147.27 449.713 148.75C448.307 153.217 445.603 158.137 441.603 163.51L455.173 176.77C455.608 177.08 455.97 177.48 456.236 177.942C456.501 178.405 456.664 178.919 456.713 179.45C456.745 179.88 456.671 180.311 456.496 180.706C456.322 181.1 456.053 181.445 455.713 181.71C455.028 182.264 454.163 182.548 453.283 182.51C452.825 182.494 452.374 182.385 451.958 182.191C451.543 181.997 451.17 181.721 450.863 181.38L438.713 167.03C438.667 167.126 438.607 167.214 438.533 167.29C433.071 173.827 426.438 179.287 418.973 183.39C417.513 184.23 416.483 184.13 415.893 183.1C415.303 182.07 415.603 181.1 416.773 180.2C422.534 176.005 427.693 171.039 432.103 165.44C436.056 160.556 439.289 155.131 441.703 149.33H421.083ZM473.663 213.84H444.423C439.023 213.84 436.323 211.38 436.323 206.46V197.4C436.323 195.78 436.043 194.7 435.483 194.17C434.678 193.521 433.728 193.075 432.713 192.87C431.898 192.681 431.111 192.385 430.373 191.99C430.168 191.828 430.008 191.616 429.908 191.375C429.809 191.133 429.772 190.87 429.803 190.61C429.803 189.38 430.683 188.76 432.443 188.76H439.493C441.783 188.76 442.923 190.08 442.923 192.7V206.7C442.923 207.88 443.453 208.47 444.513 208.47H473.663C475.603 208.47 476.573 209.36 476.573 211.15C476.573 212.94 475.603 213.88 473.663 213.88V213.84ZM466.353 143.96C466.353 142.34 466.033 141.24 465.353 140.65C464.544 139.982 463.576 139.534 462.543 139.35C461.634 139.158 460.747 138.877 459.893 138.51C459.627 138.404 459.4 138.218 459.242 137.979C459.085 137.739 459.005 137.457 459.013 137.17C459.013 135.94 459.923 135.32 461.743 135.32H469.413C471.753 135.32 472.933 136.5 472.933 138.85V187.75C472.933 193.01 471.267 195.64 467.933 195.64H466.343V164.43H453.483C451.543 164.43 450.583 163.57 450.583 161.83C450.583 160.09 451.583 159.15 453.483 159.15H466.343L466.353 143.96Z" fill="#595857"/>
</svg>
