<svg width="39" height="43" viewBox="0 0 39 43" fill="none" xmlns="http://www.w3.org/2000/svg">
<path d="M9.53376 0.00836135C11.9007 -0.00461995 14.1819 0.894228 15.9038 2.51837C17.7867 4.26211 19.015 6.59877 19.3837 9.13849C19.7525 6.59877 20.9808 4.26211 22.8637 2.51837C24.5666 0.902383 26.8261 0.00360909 29.1738 0.00836135C30.4599 -0.0456468 31.7435 0.162429 32.9468 0.619689C34.1502 1.07695 35.2481 1.77377 36.1738 2.66827C37.0622 3.538 37.7607 4.58251 38.2254 5.73566C38.6901 6.8888 38.9109 8.12577 38.8737 9.36847C38.919 12.1556 38.2548 14.9086 36.9437 17.3685C35.5157 19.9198 33.8086 22.3043 31.8537 24.4783C29.2337 27.485 26.8404 30.4418 24.6738 33.3484C22.4912 36.2813 20.7244 39.5016 19.4238 42.9183C18.1231 39.5016 16.3564 36.2813 14.1738 33.3484C12.0004 30.4418 9.587 27.485 6.93367 24.4783C5.01978 22.2922 3.34369 19.9089 1.93367 17.3685C0.622506 14.9086 -0.0415672 12.1556 0.00373533 9.36847C-0.0321013 8.12504 0.190251 6.88762 0.656689 5.73444C1.12313 4.58125 1.82348 3.53714 2.7137 2.66827C3.61445 1.79082 4.6823 1.10323 5.85383 0.646301C7.02537 0.189368 8.27679 -0.0275091 9.53376 0.00836135V0.00836135Z" fill="#C96678"/>
</svg>
