<svg width="160" height="62" viewBox="0 0 160 62" fill="none" xmlns="http://www.w3.org/2000/svg">
<path d="M3.94685 10.71C2.46685 10.71 1.71687 10.04 1.71687 8.70996C1.71687 7.37996 2.43679 6.70996 3.88679 6.70996H25.8868C26.2566 6.67814 26.6281 6.74355 26.9649 6.89966C27.3017 7.05577 27.592 7.29706 27.8067 7.59985C28.0068 7.88797 28.1448 8.21453 28.212 8.55884C28.2791 8.90314 28.274 9.25766 28.1969 9.59985C27.3102 14.1665 24.3102 19.0732 19.1969 24.3198C14.4465 29.2887 8.93385 33.468 2.86677 36.7C1.55677 37.42 0.676872 37.3299 0.216872 36.4399C-0.243128 35.5499 0.0264614 34.7699 1.04646 34.0999C6.28296 30.817 11.0014 26.7727 15.0465 22.0999C18.6798 17.8132 20.9869 14.0166 21.9669 10.71H3.94685ZM41.7867 38.4399C43.5967 38.4399 44.5069 39.4399 44.5069 41.4399V50.8899C44.5069 53.1766 44.0434 54.8265 43.1168 55.8398H43.1866C44.6766 55.8398 45.4166 56.4998 45.4166 57.8398C45.4166 59.1798 44.6766 59.8398 43.1866 59.8398H20.7066C20.442 60.3921 20.0265 60.8582 19.5079 61.1838C18.9893 61.5095 18.3888 61.6815 17.7764 61.6799H16.5167V45.8198C16.5714 44.785 16.4774 43.7479 16.2369 42.74C16.0694 42.4152 15.8334 42.1305 15.545 41.906C15.2566 41.6815 14.9225 41.5226 14.5665 41.4399C14.0999 41.3167 13.6597 41.1099 13.2667 40.8298C13.1157 40.7126 12.9955 40.5603 12.9171 40.386C12.8386 40.2117 12.8041 40.0206 12.8165 39.8298C12.8165 38.8998 13.4667 38.4299 14.7667 38.4299L41.7867 38.4399ZM21.6168 55.8298H39.3468V42.3799H21.6866V53.99C21.6866 54.67 21.6568 55.2798 21.6168 55.8298ZM39.8365 35.21V6.52002C39.8896 6.07265 39.8485 5.61902 39.7159 5.18848C39.5833 4.75793 39.3621 4.35999 39.0665 4.02002C38.4144 3.50585 37.6449 3.16218 36.8267 3.02002C36.1116 2.877 35.4119 2.66592 34.7369 2.38989C34.5306 2.31695 34.3521 2.18149 34.2266 2.0022C34.1011 1.8229 34.0346 1.60874 34.0367 1.38989C34.0367 0.459893 34.7566 0 36.2066 0H42.2667C44.1267 0 45.0567 0.889912 45.0567 2.65991V29.3198C45.0567 33.2532 43.7234 35.22 41.0567 35.22L39.8365 35.21Z" fill="#595857"/>
<path d="M60.2665 13.3799C58.7765 13.3799 58.0263 12.6999 58.0263 11.3799C58.0263 10.0599 58.7467 9.37988 60.1967 9.37988H80.6464C81.1627 9.32697 81.6844 9.38934 82.1737 9.56226C82.6631 9.73517 83.108 10.0143 83.4765 10.3799C83.7438 10.7605 83.9065 11.2047 83.9486 11.668C83.9907 12.1312 83.911 12.5974 83.7167 13.02C82.0064 17.5059 79.5777 21.6836 76.5263 25.3899L87.7665 36.6899C88.327 37.2653 88.679 38.0114 88.7665 38.8098C88.7796 39.1657 88.6927 39.5184 88.516 39.8276C88.3393 40.1369 88.0798 40.3904 87.7665 40.5598C87.4903 40.7852 87.1681 40.9478 86.8226 41.0359C86.4772 41.124 86.1169 41.1354 85.7665 41.0698C84.9725 40.9294 84.2594 40.498 83.7665 39.8599L74.3466 28.0598C74.2066 28.2298 74.0865 28.37 73.9965 28.5C69.6715 33.4805 64.6933 37.8534 59.1967 41.5C57.8467 42.34 56.8665 42.3899 56.2665 41.6199C55.6665 40.8499 55.9163 40.0399 57.0263 39.1499C61.5243 35.5608 65.6128 31.4862 69.2167 27C72.6249 22.9147 75.4116 18.3488 77.4867 13.45L60.2665 13.3799ZM96.8363 6.52002C96.8908 6.07336 96.8515 5.62021 96.7206 5.1897C96.5897 4.75918 96.3704 4.36081 96.0766 4.02002C95.423 3.50835 94.6536 3.16497 93.8363 3.02002C93.1212 2.877 92.4215 2.66592 91.7465 2.38989C91.5401 2.31695 91.3617 2.18149 91.2362 2.0022C91.1107 1.8229 91.0442 1.60874 91.0463 1.38989C91.0463 0.459893 91.7664 0 93.2064 0H99.2665C101.126 0 102.057 0.889912 102.057 2.65991V54.1699C102.057 58.1099 100.727 60.0698 98.0565 60.0698H96.7963L96.8363 6.52002Z" fill="#595857"/>
<path d="M135.046 46.8799H115.046C113.606 46.8799 112.887 46.2099 112.887 44.8799C112.887 43.5499 113.606 42.8799 115.046 42.8799H135.367C138.197 42.8799 140.637 42.82 142.657 42.72C144.753 42.6032 146.84 42.3594 148.907 41.99C150.347 41.73 151.177 41.99 151.387 42.72C151.488 43.0771 151.454 43.4591 151.292 43.793C151.13 44.1269 150.85 44.3893 150.507 44.53C148.748 45.4194 146.845 45.9882 144.887 46.21C141.63 46.6939 138.339 46.9178 135.046 46.8799ZM133.787 22.2C133.349 22.1162 132.962 21.8651 132.707 21.5C132.543 21.193 132.504 20.8351 132.597 20.5C132.678 20.3028 132.817 20.1345 132.996 20.0168C133.174 19.8992 133.383 19.8375 133.597 19.8398C134.085 19.7803 134.578 19.7803 135.066 19.8398C137.427 20.046 139.656 21.0148 141.417 22.5999C142.204 23.2738 142.827 24.1188 143.237 25.0703C143.648 26.0218 143.836 27.0546 143.787 28.0898C143.728 29.4484 143.342 30.7728 142.662 31.95C141.981 33.1271 141.025 34.122 139.876 34.8499C137.146 36.7066 133.897 37.6487 130.597 37.54C127.282 37.6332 124.037 36.5729 121.417 34.54C120.239 33.688 119.271 32.5787 118.586 31.2964C117.902 30.0141 117.519 28.5925 117.467 27.1399C117.445 25.3003 117.982 23.4975 119.007 21.97C120.087 20.2918 121.546 18.8907 123.267 17.8799H116.267C114.777 17.8799 114.026 17.2199 114.026 15.8799C114.026 14.5399 114.757 13.8799 116.197 13.8799H143.267C144.717 13.8799 145.437 14.5399 145.437 15.8799C145.437 17.2199 144.717 17.8799 143.267 17.8799H134.336C131.271 17.7213 128.254 18.6926 125.856 20.6099C124.869 21.384 124.074 22.3765 123.534 23.5095C122.995 24.6425 122.725 25.8851 122.747 27.1399C122.774 28.0062 122.995 28.8555 123.393 29.6255C123.791 30.3955 124.355 31.0666 125.046 31.5898C126.656 32.8534 128.662 33.5054 130.707 33.4299C132.71 33.5128 134.686 32.933 136.327 31.78C136.973 31.3624 137.514 30.8012 137.907 30.1404C138.301 29.4796 138.537 28.7369 138.597 27.97C138.673 26.6349 138.22 25.3232 137.336 24.3198C136.401 23.2563 135.162 22.5059 133.787 22.1699V22.2ZM123.667 7.40991L121.847 5.88989C121.484 5.59549 121.219 5.19811 121.086 4.75C121.045 4.53577 121.054 4.31482 121.113 4.10474C121.172 3.89465 121.28 3.70127 121.427 3.54004C121.571 3.36087 121.751 3.21458 121.957 3.11108C122.162 3.00759 122.387 2.9492 122.617 2.93994C123.107 2.92217 123.592 3.04361 124.017 3.29004C125.787 4.18331 127.662 4.85504 129.597 5.29004C131.419 5.60528 133.267 5.7525 135.117 5.72998C136.597 5.72998 137.347 6.38998 137.347 7.72998C137.359 8.01554 137.294 8.29889 137.158 8.55054C137.023 8.80219 136.822 9.01277 136.577 9.15991C136.12 9.45554 135.59 9.61825 135.046 9.62988L130.157 9.56982C127.804 9.65627 125.498 8.88921 123.667 7.40991V7.40991ZM153.887 6.52002C153.941 6.07336 153.901 5.62021 153.771 5.1897C153.64 4.75918 153.42 4.36081 153.126 4.02002C152.473 3.50835 151.704 3.16497 150.887 3.02002C150.172 2.877 149.471 2.66592 148.796 2.38989C148.59 2.31695 148.412 2.18149 148.286 2.0022C148.161 1.8229 148.095 1.60874 148.097 1.38989C148.097 0.459893 148.817 0 150.257 0H156.336C158.196 0 159.126 0.889912 159.126 2.65991V54.1699C159.126 58.1099 157.796 60.0698 155.126 60.0698H153.867L153.887 6.52002Z" fill="#595857"/>
</svg>
