<svg width="684" height="143" viewBox="0 0 684 143" fill="none" xmlns="http://www.w3.org/2000/svg">
<path opacity="0.61" d="M661.34 0H22.6602C10.1454 0 0 10.1453 0 22.66V120.34C0 132.855 10.1454 143 22.6602 143H661.34C673.855 143 684 132.855 684 120.34V22.66C684 10.1453 673.855 0 661.34 0Z" fill="#F1F1F1"/>
<path d="M97.92 58.2698C96.85 58.0598 96.4199 57.5698 96.6299 56.8098C96.8399 56.0498 97.6299 55.7298 99.1099 55.8098C101.462 55.9883 103.688 56.9494 105.43 58.5398C106.19 59.2173 106.797 60.0478 107.212 60.9768C107.627 61.9058 107.841 62.9122 107.84 63.9298C107.84 66.4698 106.583 68.6897 104.07 70.5897C102.287 71.9544 100.202 72.8702 97.9903 73.2598V78.1398H119.91C121.49 78.1398 122.29 78.7798 122.29 80.0498C122.29 81.3198 121.49 82.0498 119.91 82.0498H70.42C70.1435 82.0931 69.8608 82.0718 69.5938 81.988C69.3268 81.9042 69.0826 81.76 68.8804 81.5665C68.6782 81.373 68.5232 81.1355 68.4278 80.8724C68.3323 80.6094 68.2991 80.3279 68.3301 80.0498C68.3301 78.7798 69.02 78.1398 70.42 78.1398H92.7598V73.3898C90.2234 73.1258 87.8052 72.1827 85.7598 70.6598C84.5088 69.8198 83.4722 68.6984 82.7325 67.3856C81.9927 66.0728 81.5705 64.605 81.5 63.0997C81.4397 61.3383 81.9025 59.5984 82.8301 58.0997C83.8552 56.3549 85.3208 54.91 87.0801 53.9098H76.6099C75.1699 53.9098 74.4502 53.2398 74.4502 51.9098C74.4502 50.5798 75.1501 49.9098 76.5401 49.9098H111.8C113.28 49.9098 114.03 50.5598 114.03 51.9098C114.03 53.2598 113.28 53.9098 111.8 53.9098H98.3902C95.2939 53.7507 92.2451 54.7207 89.8101 56.6398C88.8241 57.3952 88.0362 58.3785 87.5137 59.5054C86.9912 60.6323 86.7497 61.8691 86.8101 63.1097C86.851 63.9978 87.0928 64.8651 87.5171 65.6462C87.9415 66.4274 88.5371 67.1021 89.2598 67.6198C90.8624 68.8321 92.8313 69.4602 94.8399 69.3998C96.7968 69.4563 98.7195 68.8774 100.32 67.7498C100.996 67.3271 101.561 66.749 101.968 66.0636C102.375 65.3782 102.612 64.6055 102.66 63.8098C102.715 63.1253 102.622 62.4369 102.388 61.7915C102.153 61.1461 101.782 60.5588 101.3 60.0697C100.366 59.1624 99.1941 58.5383 97.92 58.2698V58.2698ZM110.21 100.53H86.8902C82.6102 100.53 80.4703 98.6697 80.4703 94.9497V92.4098C80.531 91.9722 80.4942 91.5265 80.3628 91.1047C80.2315 90.6829 80.0085 90.2954 79.71 89.9697C79.0767 89.5113 78.365 89.1724 77.6099 88.9697C76.9171 88.8051 76.2459 88.5602 75.6099 88.2397C75.4509 88.1299 75.325 87.9787 75.2456 87.8025C75.1663 87.6262 75.1369 87.4316 75.1602 87.2397C75.1602 86.2397 75.8799 85.7798 77.3199 85.7798H82.9102C84.7202 85.7798 85.6299 86.7798 85.6299 88.7798V95.0598C85.6033 95.2398 85.6191 95.4234 85.6758 95.5962C85.7326 95.769 85.8289 95.9262 85.9571 96.0553C86.0852 96.1844 86.2417 96.2819 86.4141 96.34C86.5865 96.398 86.7701 96.4151 86.9502 96.3898H110.2C111.69 96.3898 112.43 97.0698 112.43 98.3898C112.43 99.7098 111.7 100.53 110.21 100.53ZM86.96 44.5298L85.1499 43.0697C84.7948 42.7542 84.5292 42.3507 84.3799 41.8998C84.343 41.6894 84.3553 41.4733 84.4161 41.2686C84.4768 41.0638 84.5843 40.8759 84.73 40.7197C84.9052 40.5508 85.1143 40.4214 85.3438 40.3403C85.5732 40.2592 85.8177 40.2283 86.0601 40.2498C86.487 40.2423 86.9114 40.3169 87.3101 40.4697C89.2777 41.429 91.3719 42.1024 93.5298 42.4697C95.5853 42.7773 97.662 42.9244 99.7403 42.9098C101.23 42.9098 101.97 43.5497 101.97 44.8197C101.991 45.1137 101.931 45.4079 101.797 45.6704C101.663 45.933 101.46 46.1541 101.21 46.3098C100.752 46.6112 100.218 46.7776 99.67 46.7898L93.46 46.7197C91.1156 46.8098 88.8188 46.0419 87 44.5598L86.96 44.5298Z" fill="#595857"/>
<path d="M163.88 78.4498V94.7599C163.88 98.8599 162.647 100.91 160.18 100.91H158.72V78.4498H136.38C136.103 78.4931 135.821 78.472 135.554 78.3882C135.287 78.3044 135.042 78.1602 134.84 77.9667C134.638 77.7732 134.484 77.5356 134.388 77.2726C134.293 77.0095 134.259 76.728 134.29 76.4498C134.29 75.1398 134.98 74.4498 136.38 74.4498H185.94C187.48 74.4498 188.25 75.1098 188.25 76.4498C188.25 77.7898 187.48 78.4498 185.94 78.4498H163.88ZM146.22 49.3198C144.73 49.3198 143.99 48.6398 143.99 47.3198C143.99 45.9998 144.71 45.3198 146.15 45.3198H170.52C172.42 45.3198 173.61 45.8299 174.07 46.8499C174.3 47.3904 174.395 47.979 174.346 48.5646C174.297 49.1501 174.107 49.7149 173.79 50.2098C172.35 52.8765 169.683 55.5432 165.79 58.2098L179.54 63.7299C180.295 63.9439 180.972 64.3709 181.49 64.9598C181.694 65.1983 181.822 65.4917 181.86 65.8031C181.897 66.1145 181.842 66.4299 181.7 66.7098C181.564 67.0442 181.351 67.3418 181.078 67.5781C180.805 67.8145 180.48 67.9829 180.13 68.0698C179.321 68.2525 178.475 68.1538 177.73 67.7899L162.02 60.6199C156.096 63.968 149.758 66.5263 143.17 68.2299C141.87 68.5699 141.01 68.3399 140.59 67.5299C140.17 66.7199 140.49 66.1399 141.59 65.7599C147.203 63.7673 152.607 61.225 157.72 58.1699C162.327 55.3566 165.63 52.4065 167.63 49.3198H146.22Z" fill="#595857"/>
<path d="M200.38 65.2502C200.307 63.369 200.614 61.4923 201.28 59.7316C201.947 57.9708 202.96 56.362 204.26 55.0002C205.472 53.7125 206.94 52.6917 208.568 52.0029C210.197 51.3142 211.952 50.9727 213.72 51.0002C215.488 50.9718 217.242 51.3069 218.874 51.9846C220.507 52.6624 221.983 53.6683 223.21 54.9402C225.182 56.9988 226.473 59.6135 226.91 62.4303H233.68V50.0002C233.735 49.5611 233.701 49.1155 233.581 48.6896C233.46 48.2637 233.256 47.8661 232.98 47.5203C232.328 47.0132 231.563 46.6702 230.75 46.5203C230.035 46.3959 229.341 46.1703 228.69 45.8502C228.51 45.7534 228.359 45.6089 228.255 45.4326C228.151 45.2563 228.098 45.0549 228.1 44.8502C228.1 44.0102 228.82 43.5902 230.26 43.5902H236.05C236.429 43.5352 236.817 43.5693 237.181 43.6899C237.545 43.8105 237.876 44.0143 238.148 44.285C238.42 44.5558 238.624 44.8861 238.746 45.2498C238.868 45.6134 238.904 46.0005 238.85 46.3802V91.1202C238.85 95.1202 237.5 97.1202 234.8 97.1202H233.68V66.4702H227.12C226.997 69.8966 225.603 73.1546 223.21 75.6102C221.982 76.8808 220.506 77.8853 218.874 78.5614C217.241 79.2375 215.487 79.5707 213.72 79.5403C211.952 79.5678 210.197 79.2262 208.568 78.5375C206.94 77.8487 205.472 76.828 204.26 75.5403C202.955 74.1735 201.94 72.5579 201.273 70.79C200.606 69.0221 200.303 67.1381 200.38 65.2502V65.2502ZM205.55 65.2502C205.413 67.9385 206.299 70.5788 208.03 72.6403C208.708 73.4997 209.573 74.1942 210.559 74.6718C211.544 75.1493 212.625 75.3973 213.72 75.3973C214.815 75.3973 215.896 75.1493 216.881 74.6718C217.867 74.1942 218.732 73.4997 219.41 72.6403C221.013 70.51 221.88 67.9163 221.88 65.2502C221.88 62.5842 221.013 59.9905 219.41 57.8602C218.732 57.0008 217.867 56.3062 216.881 55.8287C215.896 55.3512 214.815 55.1031 213.72 55.1031C212.625 55.1031 211.544 55.3512 210.559 55.8287C209.573 56.3062 208.708 57.0008 208.03 57.8602C206.299 59.9217 205.413 62.562 205.55 65.2502ZM244.85 47.2502C244.903 46.8043 244.866 46.3522 244.741 45.9209C244.615 45.4896 244.404 45.088 244.12 44.7402C243.441 44.2075 242.634 43.8626 241.78 43.7402C241.061 43.6459 240.358 43.4542 239.69 43.1703C239.498 43.085 239.335 42.9443 239.223 42.7662C239.111 42.5881 239.054 42.3807 239.06 42.1703C239.06 41.2403 239.8 40.7803 241.29 40.7803H247.15C249.06 40.7803 250.02 41.6702 250.02 43.4402V95.0002C250.02 98.9402 248.67 100.9 245.97 100.9H244.85V47.2502Z" fill="#595857"/>
<path d="M270 54.5199C268.51 54.5199 267.77 53.8499 267.77 52.5199C267.77 51.1899 268.49 50.5199 269.93 50.5199H288.08C288.487 50.487 288.895 50.5621 289.264 50.7377C289.633 50.9133 289.949 51.1831 290.18 51.5199C290.587 52.1022 290.761 52.8155 290.67 53.5199C290.046 57.1277 288.815 60.6036 287.03 63.7999H297.58V49.9999C297.682 49.1179 297.442 48.2304 296.91 47.5199C296.249 47.0012 295.469 46.6573 294.64 46.5199C293.945 46.3905 293.272 46.1649 292.64 45.8499C292.461 45.7513 292.312 45.6066 292.208 45.4307C292.104 45.2547 292.049 45.0541 292.05 44.8499C292.05 44.0099 292.75 43.5898 294.15 43.5898H300C300.379 43.5366 300.764 43.572 301.127 43.6934C301.49 43.8147 301.82 44.0187 302.091 44.2892C302.361 44.5597 302.565 44.8894 302.686 45.2522C302.808 45.615 302.843 46.001 302.79 46.3799V91.1199C302.79 95.1199 301.47 97.1199 298.79 97.1199H297.61V67.7999H287.55C286.39 67.7999 285.67 67.4199 285.39 66.6599C284.6 67.9299 283.71 69.1998 282.74 70.4698C278.969 75.6362 274.366 80.1408 269.12 83.7999C267.82 84.6399 266.89 84.6599 266.33 83.8599C265.77 83.0599 265.98 82.2498 266.96 81.4498C271.474 77.7539 275.393 73.3863 278.58 68.4999C281.424 64.2784 283.459 59.565 284.58 54.5999L270 54.5199ZM306.58 40.8198H312.44C314.35 40.8198 315.31 41.7099 315.31 43.4799V94.9999C315.31 98.9399 313.96 100.9 311.26 100.9H310.14V47.2799C310.193 46.8339 310.156 46.3817 310.031 45.9504C309.905 45.5192 309.694 45.1177 309.41 44.7699C308.731 44.2371 307.924 43.8923 307.07 43.7699C306.35 43.6755 305.647 43.4837 304.98 43.1998C304.787 43.1145 304.625 42.9739 304.513 42.7958C304.4 42.6177 304.344 42.4102 304.35 42.1998C304.39 41.2798 305.13 40.8198 306.62 40.8198H306.58Z" fill="#595857"/>
<path d="M361.4 60.9302C361.385 59.1438 361.743 57.3739 362.453 55.7344C363.163 54.0949 364.207 52.622 365.52 51.4102C368.381 48.7982 372.116 47.3501 375.99 47.3501C379.864 47.3501 383.598 48.7982 386.46 51.4102L386.88 51.8002C387.118 51.5675 387.405 51.3896 387.719 51.2791C388.033 51.1685 388.368 51.128 388.7 51.1602H401.26V47.3501C401.315 46.9026 401.276 46.4485 401.143 46.0176C401.01 45.5867 400.788 45.1887 400.49 44.8501C399.841 44.3374 399.074 43.9938 398.26 43.8501C397.544 43.7071 396.845 43.4961 396.17 43.2201C395.963 43.1472 395.785 43.0116 395.66 42.8323C395.534 42.653 395.468 42.4389 395.47 42.2201C395.47 41.2901 396.19 40.8301 397.63 40.8301H403.71C405.56 40.8301 406.5 41.7201 406.5 43.4901V80.4901C406.5 84.4901 405.17 86.4901 402.5 86.4901H401.24V70.4901H388.7C388.066 70.5285 387.44 70.3249 386.95 69.9202C386.8 70.1024 386.636 70.2729 386.46 70.4302C383.6 73.0833 379.82 74.518 375.92 74.4302C374.007 74.4911 372.101 74.1685 370.315 73.4816C368.529 72.7946 366.899 71.7571 365.52 70.4302C364.203 69.2257 363.156 67.7569 362.446 66.1199C361.736 64.4828 361.379 62.7144 361.4 60.9302V60.9302ZM366.71 60.9302C366.669 62.1513 366.874 63.3681 367.312 64.5087C367.75 65.6492 368.412 66.6902 369.26 67.5701C370.126 68.4477 371.166 69.135 372.312 69.5879C373.459 70.0408 374.688 70.2492 375.92 70.2001C377.177 70.2408 378.429 70.0251 379.599 69.566C380.77 69.107 381.836 68.4143 382.73 67.5302C383.608 66.6744 384.301 65.6464 384.764 64.5107C385.226 63.3751 385.45 62.1562 385.42 60.9302C385.446 59.6778 385.218 58.433 384.749 57.2714C384.28 56.1097 383.58 55.0553 382.692 54.1719C381.804 53.2884 380.746 52.5944 379.582 52.1317C378.418 51.669 377.172 51.4474 375.92 51.4801C374.69 51.4378 373.466 51.6526 372.324 52.1106C371.182 52.5686 370.149 53.2599 369.29 54.1401C368.43 55.0432 367.758 56.1089 367.315 57.2749C366.872 58.4409 366.666 59.6836 366.71 60.9302ZM407.05 100.22H383.88C379.6 100.22 377.46 98.3501 377.46 94.6301V87.7802C377.515 87.3478 377.484 86.9087 377.369 86.4883C377.254 86.0678 377.057 85.6742 376.79 85.3301C376.15 84.8268 375.399 84.4839 374.6 84.3301C373.957 84.1882 373.335 83.963 372.75 83.6602C372.593 83.5479 372.468 83.3966 372.387 83.2212C372.306 83.0458 372.273 82.8524 372.29 82.6602C372.29 81.7302 372.99 81.2601 374.39 81.2601H380C381.82 81.2601 382.72 82.2601 382.72 84.2601V94.8601C382.72 95.7501 383.14 96.1901 383.98 96.1901H407.08C408.62 96.1901 409.39 96.8567 409.39 98.1901C409.36 99.5401 408.59 100.22 407.05 100.22ZM389.25 55.0302C390.227 56.8422 390.733 58.8713 390.72 60.9302C390.738 62.8517 390.281 64.7478 389.39 66.4501H401.26V55.0001L389.25 55.0302Z" fill="#595857"/>
<path d="M452.77 74.2001H430.71C428.237 74.2001 427.003 72.8234 427.01 70.0701V64.0701C427.042 63.7224 427.003 63.3719 426.895 63.04C426.786 62.7081 426.611 62.4019 426.38 62.1401C425.933 61.7187 425.415 61.3801 424.85 61.1401C424.512 61.0389 424.194 60.8799 423.91 60.6702C423.769 60.5478 423.659 60.3926 423.591 60.2184C423.523 60.0441 423.499 59.856 423.52 59.6702C423.52 58.7902 424.13 58.3401 425.34 58.3401H445.16V50.5402H427.16C425.67 50.5402 424.93 49.8802 424.93 48.5402C424.93 47.2002 425.65 46.5402 427.09 46.5402H448C449.63 46.5402 450.45 47.4501 450.45 49.2701V59.0001C450.45 61.1501 449.45 62.2301 447.59 62.2301H432.3V68.5201C432.3 69.7001 432.83 70.2902 433.9 70.2902H452.82C454.31 70.2902 455.05 70.9301 455.05 72.2001C455.05 73.4701 454.26 74.2001 452.77 74.2001ZM436.16 84.7902C434.85 84.7902 434.16 84.1202 434.16 82.7902C434.124 82.533 434.148 82.2709 434.23 82.0245C434.312 81.7781 434.449 81.5541 434.632 81.37C434.816 81.1859 435.039 81.0468 435.285 80.9635C435.531 80.8802 435.793 80.8551 436.05 80.8901H464.81C466.53 80.8901 467.39 81.8001 467.39 83.6201V96.0001C467.39 100 466.18 102 463.76 102H462.29V84.7301L436.16 84.7902ZM462.75 47.3501C462.804 46.9004 462.761 46.4443 462.623 46.0128C462.485 45.5814 462.256 45.1848 461.95 44.8501C461.304 44.3512 460.551 44.0089 459.75 43.8501C459.02 43.7164 458.306 43.5052 457.62 43.2201C457.422 43.1394 457.253 43.0007 457.135 42.8223C457.018 42.6438 456.956 42.4339 456.96 42.2201C456.96 41.2901 457.68 40.8301 459.12 40.8301H465.27C467.08 40.8301 467.99 41.7201 467.99 43.4901V58.8501H476.99C478.48 58.8501 479.23 59.5301 479.23 60.8501C479.23 62.1701 478.48 62.8501 476.99 62.8501H467.99V71.6702C467.99 75.5568 466.64 77.5035 463.94 77.5101H462.75V47.3501Z" fill="#595857"/>
<path d="M491.85 60.0001C490.36 60.0001 489.62 59.3301 489.62 58.0001C489.62 56.6701 490.34 56.0001 491.78 56.0001H520.2C521.64 56.0001 522.36 56.6601 522.36 58.0001C522.36 59.3401 521.64 60.0001 520.2 60.0001H512.1C508.444 59.8633 504.864 61.0731 502.04 63.4001C500.793 64.3766 499.784 65.6243 499.091 67.0486C498.398 68.4728 498.039 70.0362 498.04 71.6201C497.979 72.7484 498.178 73.8757 498.62 74.9156C499.062 75.9556 499.735 76.8806 500.59 77.6201C502.2 79.0289 504.271 79.7975 506.41 79.7802C508.629 79.8535 510.787 79.0445 512.41 77.5302C513.192 76.8213 513.811 75.9524 514.227 74.9827C514.643 74.0129 514.845 72.965 514.82 71.9102C514.91 70.3274 514.411 68.7672 513.42 67.5302C512.421 66.4296 511.143 65.6208 509.72 65.1901C509.12 64.9701 508.77 64.7001 508.72 64.3601C508.621 64.0461 508.646 63.7063 508.79 63.4102C508.866 63.2337 508.986 63.0795 509.138 62.9623C509.29 62.845 509.47 62.7686 509.66 62.7401C510.112 62.6886 510.568 62.6886 511.02 62.7401C513.426 62.9903 515.69 64.0029 517.48 65.6301C518.382 66.4745 519.089 67.5047 519.554 68.6494C520.018 69.7941 520.228 71.0261 520.17 72.2601C520.165 73.8338 519.812 75.3869 519.136 76.808C518.46 78.2291 517.477 79.4831 516.26 80.4801C513.55 82.8204 510.059 84.0555 506.48 83.9401C502.939 84.0239 499.498 82.7626 496.85 80.4102C494.677 78.5244 493.285 75.8952 492.949 73.0375C492.612 70.1798 493.354 67.2993 495.03 64.9601C496.493 62.8937 498.404 61.1845 500.62 59.9601L491.85 60.0001ZM498.76 48.9001L496.95 47.3701C496.591 47.0831 496.323 46.6973 496.18 46.2601C496.146 46.042 496.16 45.8191 496.22 45.6068C496.281 45.3945 496.386 45.1978 496.53 45.0302C496.697 44.8609 496.899 44.7303 497.122 44.6473C497.345 44.5644 497.583 44.5312 497.82 44.5502C498.259 44.5503 498.695 44.6247 499.11 44.7701C501.063 45.778 503.162 46.4731 505.33 46.8301C507.387 47.1209 509.463 47.2613 511.54 47.2501C513.03 47.2501 513.77 47.9001 513.77 49.2501C513.783 49.5389 513.72 49.826 513.586 50.0824C513.453 50.3388 513.254 50.5553 513.01 50.7101C512.558 51.0283 512.023 51.2058 511.47 51.2201L505.26 51.1602C502.884 51.244 500.563 50.43 498.76 48.8801V48.9001ZM529.34 47.3701C529.394 46.9204 529.351 46.4643 529.213 46.0328C529.075 45.6014 528.845 45.2048 528.54 44.8701C527.894 44.3712 527.141 44.0289 526.34 43.8701C525.609 43.7365 524.896 43.5253 524.21 43.2401C524.011 43.1599 523.841 43.0216 523.721 42.8433C523.602 42.6649 523.539 42.4548 523.54 42.2401C523.54 41.3101 524.27 40.8501 525.71 40.8501H531.85C533.67 40.8501 534.58 41.7401 534.58 43.5101V64.7701H543.58C545.07 64.7701 545.81 65.4301 545.81 66.7701C545.81 68.1101 545.07 68.7701 543.58 68.7701H534.58V95.0001C534.58 98.8901 533.22 100.84 530.58 100.84H529.39L529.34 47.3701Z" fill="#595857"/>
<path d="M561.3 54.5201C559.81 54.5201 559.07 53.8501 559.07 52.5201C559.07 51.1901 559.79 50.5201 561.23 50.5201H583.43C583.835 50.498 584.241 50.5779 584.607 50.7526C584.974 50.9273 585.292 51.1912 585.53 51.5201C585.754 51.796 585.908 52.1218 585.979 52.47C586.051 52.8181 586.038 53.1784 585.94 53.5201C584.92 58.8535 581.92 64.3734 576.94 70.0801C572.24 75.5823 566.632 80.2395 560.36 83.8501C558.97 84.6101 557.99 84.5801 557.43 83.7501C556.87 82.9201 557.13 82.1401 558.2 81.3701C563.528 77.72 568.272 73.2828 572.27 68.2101C576.15 63.2367 578.557 58.6968 579.49 54.5901L561.3 54.5201ZM597.18 47.3501C597.234 46.9034 597.195 46.4504 597.064 46.0199C596.934 45.5894 596.714 45.1909 596.42 44.8501C595.766 44.3384 594.997 43.995 594.18 43.8501C593.465 43.7071 592.765 43.4961 592.09 43.2201C591.883 43.1472 591.706 43.0116 591.58 42.8323C591.455 42.653 591.388 42.4389 591.39 42.2201C591.39 41.2901 592.11 40.8301 593.55 40.8301H599.63C601.49 40.8301 602.42 41.7201 602.42 43.4901V95.0001C602.42 98.9401 601.09 100.9 598.42 100.9H597.16L597.18 47.3501Z" fill="#595857"/>
</svg>
