<svg width="85" height="66" viewBox="0 0 85 66" fill="none" xmlns="http://www.w3.org/2000/svg">
<path d="M84.1196 6.03027C84.0211 6.19154 83.9107 6.34525 83.7896 6.49023L54.79 39.4199C53.2492 41.1638 51.3553 42.5601 49.2339 43.5166C47.1125 44.4731 44.8119 44.9678 42.4849 44.9678C40.1578 44.9678 37.8572 44.4731 35.7358 43.5166C33.6144 42.5601 31.721 41.1638 30.1802 39.4199L0.810061 6.08984C0.275984 7.33476 0.0003518 8.67563 2.83495e-06 10.0303V47.77C-0.00131086 50.0861 0.453956 52.3799 1.33936 54.52C2.22476 56.6601 3.52293 58.6045 5.16016 60.2427C6.79739 61.8808 8.74124 63.1803 10.8809 64.0669C13.0205 64.9535 15.3138 65.4102 17.6299 65.4102H67.3403C69.6564 65.4102 71.9497 64.9535 74.0894 64.0669C76.229 63.1803 78.1728 61.8808 79.8101 60.2427C81.4473 58.6045 82.745 56.6601 83.6304 54.52C84.5158 52.3799 84.9715 50.0861 84.9702 47.77V10.0303C84.9632 8.65287 84.6733 7.29153 84.1196 6.03027V6.03027Z" fill="#979696"/>
<path d="M36.75 33.5801C37.4614 34.3883 38.3368 35.0355 39.3179 35.479C40.299 35.9225 41.3633 36.1519 42.4399 36.1519C43.5166 36.1519 44.5809 35.9225 45.562 35.479C46.5431 35.0355 47.4185 34.3883 48.1299 33.5801L77.1304 0.660156C77.2304 0.550156 77.3504 0.460098 77.4604 0.350098C76.6194 0.121495 75.7519 0.00373356 74.8804 0H9.95996C9.10557 0.00478525 8.25552 0.118893 7.43018 0.339844L36.75 33.5801Z" fill="#979696"/>
</svg>
