<svg width="184" height="62" viewBox="0 0 184 62" fill="none" xmlns="http://www.w3.org/2000/svg">
<path d="M21.6734 10.9519C21.2413 14.2073 20.1999 17.3521 18.6036 20.2219L31.1036 31.512C31.7416 32.0557 32.1838 32.7931 32.3634 33.6118C32.4192 33.9153 32.404 34.2278 32.319 34.5244C32.2339 34.8211 32.0817 35.0941 31.8736 35.322C31.6164 35.5877 31.3038 35.7935 30.9581 35.9248C30.6125 36.0561 30.2423 36.1096 29.8736 36.0818C29.4456 36.0756 29.024 35.9759 28.6388 35.7893C28.2535 35.6027 27.9139 35.3339 27.6437 35.002L16.7535 23.262C16.4269 23.8086 16.0766 24.3585 15.7032 24.9119C12.3846 29.6438 8.27436 33.7676 3.55333 37.1018C2.16333 38.1018 1.11368 38.1919 0.413679 37.4519C-0.286321 36.7119 -0.0967505 35.8719 0.97325 34.9419C5.02076 31.451 8.48468 27.3359 11.2335 22.752C13.7935 18.3986 15.3069 14.6118 15.7735 11.3918C15.8399 11.1003 15.7891 10.7944 15.6319 10.54C15.4748 10.2856 15.2236 10.1032 14.9332 10.032C14.2527 9.79435 13.5538 9.61369 12.8434 9.49194C11.8434 9.32194 11.4035 8.80189 11.4435 7.94189C11.4835 7.08189 12.0735 6.64185 13.1935 6.64185H17.5934C19.3134 6.64185 20.4533 7.01195 21.0133 7.75195C21.6311 8.69634 21.8672 9.84014 21.6734 10.9519V10.9519ZM46.7433 60.2019H23.5636C19.2836 60.2019 17.1437 58.3385 17.1437 54.6118V47.762C17.1988 47.3296 17.1678 46.8904 17.0528 46.47C16.9379 46.0495 16.7407 45.6562 16.4732 45.312C15.8335 44.8087 15.0827 44.4658 14.2833 44.312C13.6401 44.1701 13.0181 43.9447 12.4332 43.6418C12.2762 43.5295 12.1516 43.3782 12.0709 43.2029C11.9902 43.0275 11.9564 42.8341 11.9732 42.6418C11.9732 41.7118 12.6733 41.2419 14.0733 41.2419H19.6534C21.4734 41.2419 22.3736 42.2419 22.3736 44.2419V54.8418C22.3736 55.7318 22.7934 56.1719 23.6334 56.1719H46.7433C48.2733 56.1719 49.0436 56.8519 49.0436 58.1719C49.0436 59.4919 48.2733 60.1719 46.7433 60.1719V60.2019ZM40.9435 7.33179C40.9991 6.88433 40.959 6.4302 40.8263 5.99927C40.6936 5.56834 40.4712 5.17041 40.1734 4.83179C39.5243 4.31912 38.7581 3.97552 37.9435 3.83179C37.2283 3.68877 36.5287 3.47793 35.8536 3.2019C35.6473 3.12896 35.4689 2.99326 35.3434 2.81396C35.2179 2.63467 35.1513 2.42075 35.1534 2.2019C35.1534 1.2719 35.8736 0.812012 37.3136 0.812012H43.4234C45.2934 0.812012 46.2233 1.70192 46.2233 3.47192V40.4719C46.2233 44.4719 44.8933 46.4719 42.2233 46.4719H40.9635L40.9435 7.33179Z" fill="#595857"/>
<path d="M92.9434 39.8616V54.7117C92.9434 58.8117 91.7098 60.8616 89.2432 60.8616H87.7734V39.8616H65.4233C64.0233 39.8616 63.3232 39.2016 63.3232 37.8616C63.3232 36.5216 64.0233 35.8616 65.4233 35.8616H114.983C116.513 35.8616 117.283 36.5216 117.283 37.8616C117.283 39.2016 116.513 39.8616 114.983 39.8616H92.9434ZM79.7534 12.5117H100.833V9.27173C100.911 8.56155 100.775 7.84423 100.443 7.21167C100.121 6.84922 99.6949 6.59444 99.2231 6.48169C98.6971 6.33797 98.1852 6.14713 97.6934 5.91162C97.5302 5.81585 97.3973 5.67573 97.3105 5.50757C97.2238 5.33941 97.1866 5.15016 97.2031 4.96167C97.2031 4.07167 97.8731 3.62158 99.2031 3.62158H103.253C105.113 3.62158 106.043 4.53156 106.043 6.35156V20.6917C106.163 22.2759 105.721 23.8516 104.793 25.1416C106.233 25.1416 106.953 25.7916 106.953 27.1416C106.953 28.4916 106.233 29.1416 104.793 29.1416H78.6831C78.42 29.6756 78.0128 30.1254 77.5073 30.4399C77.0019 30.7545 76.4186 30.9214 75.8232 30.9216H74.4932V11.4316C74.5531 10.691 74.4471 9.94631 74.1831 9.25171C74.0628 9.06034 73.9036 8.89628 73.7158 8.77051C73.528 8.64473 73.316 8.56008 73.0933 8.52173C72.6016 8.3971 72.1231 8.22633 71.6636 8.01172C71.4655 7.93106 71.2965 7.79224 71.1787 7.61377C71.0609 7.4353 70.9997 7.22552 71.0034 7.01172C71.0034 6.12172 71.6734 5.68164 73.0034 5.68164H77.1235C78.8435 5.68164 79.7134 6.59162 79.7134 8.41162L79.7534 12.5117ZM100.833 16.5117H79.7534V23.1716C79.7534 23.8516 79.7531 24.5016 79.6831 25.1716H100.833V16.5117Z" fill="#595857"/>
<path d="M180.963 37.3218H131.423C131.147 37.365 130.864 37.3438 130.597 37.26C130.33 37.1762 130.086 37.0319 129.884 36.8384C129.682 36.6449 129.527 36.4074 129.431 36.1443C129.336 35.8812 129.302 35.5999 129.334 35.3218C129.334 34.0118 130.033 33.3218 131.423 33.3218H180.993C182.523 33.3218 183.293 33.9818 183.293 35.3218C183.293 36.6618 182.493 37.3218 180.963 37.3218ZM141.243 14.0916C139.753 14.0916 139.003 13.4216 139.003 12.0916C139.003 10.7616 139.723 10.0916 141.173 10.0916H165.883C166.481 10.0189 167.087 10.1281 167.622 10.4045C168.157 10.681 168.597 11.112 168.883 11.6416C169.393 12.6416 169.143 13.8316 168.113 15.1016C166.727 16.7549 164.26 18.5316 160.713 20.4316L174.403 24.4316C175.234 24.5926 175.998 25.0003 176.593 25.6016C176.787 25.8305 176.914 26.1092 176.958 26.406C177.002 26.7029 176.962 27.0062 176.843 27.2817C176.705 27.577 176.506 27.8399 176.26 28.0535C176.013 28.2671 175.725 28.4266 175.414 28.5217C174.569 28.7486 173.673 28.6922 172.863 28.3616L156.523 22.5916C150.692 25.1925 144.615 27.2026 138.383 28.5916C136.793 28.9316 135.853 28.6617 135.553 27.7917C135.253 26.9217 135.793 26.2816 137.193 25.8616C142.332 24.3158 147.346 22.3836 152.193 20.0815C155.651 18.4458 158.917 16.4337 161.933 14.0815L141.243 14.0916ZM139.914 47.4116C138.654 47.4116 138.033 46.7316 138.033 45.4116C138.033 44.0916 138.633 43.5117 139.843 43.5117H169.584C171.304 43.5117 172.164 44.4217 172.164 46.2317V55.9517C172.164 59.9517 170.953 61.9517 168.533 61.9517H167.003V47.3516L139.914 47.4116ZM147.733 4.41162L145.914 2.95166C145.564 2.6298 145.302 2.22359 145.153 1.77173C145.113 1.56294 145.124 1.34751 145.185 1.1438C145.246 0.940091 145.355 0.753974 145.503 0.601562C145.646 0.422656 145.824 0.276633 146.028 0.173095C146.231 0.0695573 146.455 0.011083 146.683 0.00170835C147.173 -0.0160644 147.659 0.10513 148.084 0.351562C149.99 1.27197 152.006 1.94412 154.084 2.35156C156.067 2.67641 158.074 2.83384 160.084 2.82178C161.564 2.82178 162.314 3.46168 162.314 4.72168C162.332 5.01784 162.27 5.31341 162.134 5.57739C161.999 5.84137 161.795 6.06399 161.543 6.22168C161.087 6.51731 160.557 6.68002 160.013 6.69165L154.213 6.63159C151.859 6.7257 149.552 5.94975 147.733 4.45166V4.41162Z" fill="#595857"/>
</svg>
