<svg width="173" height="62" viewBox="0 0 173 62" fill="none" xmlns="http://www.w3.org/2000/svg">
<path d="M27.0825 32.99H7.5425C7.28394 33.529 6.876 33.9824 6.3672 34.2961C5.85841 34.6099 5.27006 34.7709 4.67238 34.76H3.4922V12.8699C3.55047 12.1251 3.4413 11.3769 3.17238 10.6799C2.90457 10.2788 2.49295 9.99597 2.02248 9.88989C1.54597 9.77093 1.08071 9.61033 0.632339 9.40991C0.434695 9.3318 0.267104 9.19275 0.153824 9.01294C0.0405429 8.83313 -0.0124189 8.62191 0.00245639 8.40991C0.00245639 7.47991 0.652164 7.01001 1.95216 7.01001H6.07228C7.79228 7.01001 8.65236 7.91999 8.65236 9.73999V15.01H23.1724V10.75C23.2509 10.0409 23.1188 9.32435 22.7925 8.68994C22.4654 8.33321 22.0413 8.07956 21.5723 7.95996C21.0557 7.80424 20.5538 7.60337 20.0723 7.35986C19.9065 7.27174 19.769 7.13878 19.6753 6.97607C19.5816 6.81337 19.5356 6.62758 19.5425 6.43994C19.5425 5.54994 20.2225 5.10986 21.5425 5.10986H25.5425C27.4025 5.10986 28.3325 6.01984 28.3325 7.83984V24.5898C28.4561 26.1728 28.0089 27.7479 27.0723 29.03C28.5123 29.03 29.2422 29.6699 29.2422 30.9399C29.2422 32.2099 28.5225 32.99 27.0825 32.99ZM8.51222 29.0498H23.1724V19.0498H8.65236V27.1099C8.65575 27.7592 8.60881 28.4077 8.51222 29.0498V29.0498ZM12.6323 43.6499C11.3323 43.6499 10.6821 42.9699 10.6821 41.6499C10.6821 40.3299 11.3125 39.6499 12.5625 39.6499H41.3223C43.0423 39.6499 43.9126 40.5599 43.9126 42.3799V55.1699C43.9126 59.1699 42.7022 61.1699 40.2822 61.1699H38.8125V43.5898L12.6323 43.6499ZM39.2324 6.52002C39.2867 6.07029 39.2431 5.61405 39.105 5.18262C38.9669 4.75118 38.7374 4.3547 38.4321 4.02002C37.786 3.52109 37.0332 3.17879 36.2324 3.02002C35.5021 2.88636 34.7881 2.67504 34.1026 2.38989C33.9035 2.30965 33.7328 2.1715 33.6133 1.99316C33.4938 1.81483 33.4306 1.60455 33.4321 1.38989C33.4321 0.459893 34.1626 0 35.6026 0H41.7422C43.5622 0 44.4624 0.889912 44.4624 2.65991V17.3899H53.4624C54.9524 17.3899 55.6924 18.0599 55.6924 19.3899C55.6924 20.7199 54.9524 21.3899 53.4624 21.3899H44.4624V30.52C44.4624 34.42 43.1124 36.3599 40.4624 36.3599H39.2725L39.2324 6.52002Z" fill="#595857"/>
<path d="M86.5522 6.52002C88.3722 6.52002 89.2822 7.52002 89.2822 9.52002V25.4399C89.3406 26.7345 89.0759 28.0232 88.5121 29.1899C89.9521 29.1899 90.6723 29.8698 90.6723 31.0898C90.6723 32.3098 89.9125 33.0898 88.3725 33.0898H68.4721C68.2176 33.6498 67.8045 34.1228 67.2836 34.45C66.7627 34.7771 66.1573 34.9439 65.5424 34.9299H64.3622V13.8599C64.4333 12.8209 64.3007 11.7782 63.9721 10.79C63.5486 10.132 62.8851 9.66546 62.1225 9.48999C61.7077 9.3742 61.3246 9.1655 61.0024 8.87988C60.8804 8.74525 60.7874 8.58703 60.7289 8.41504C60.6705 8.24305 60.6479 8.06095 60.6625 7.87988C60.6625 6.94988 61.1723 6.47998 62.1923 6.47998L86.5522 6.52002ZM69.5522 29.1799H84.1425V10.52H69.6225V27.27C69.5925 27.95 69.5724 28.5899 69.5224 29.1699L69.5522 29.1799ZM107.182 59.3899H84.0024C79.7224 59.3899 77.5824 57.5265 77.5824 53.7998V46.95C77.6911 46.0784 77.454 45.199 76.9223 44.5C76.2775 43.9988 75.5237 43.6563 74.7221 43.5C74.0795 43.3562 73.4582 43.1309 72.8725 42.8298C72.7155 42.7175 72.5904 42.5662 72.5097 42.3909C72.429 42.2155 72.3956 42.0221 72.4125 41.8298C72.4125 40.8998 73.1121 40.4299 74.5121 40.4299H80.0922C81.9122 40.4299 82.8222 41.4299 82.8222 43.4299V54.03C82.8222 54.92 83.2322 55.3599 84.0722 55.3599H107.182C108.712 55.3599 109.482 56.0399 109.482 57.3599C109.482 58.6799 108.682 59.3899 107.152 59.3899H107.182ZM101.382 6.52002C101.437 6.07336 101.397 5.62021 101.267 5.1897C101.136 4.75918 100.916 4.36081 100.622 4.02002C99.9689 3.50835 99.1995 3.16497 98.3823 3.02002C97.6671 2.877 96.9674 2.66592 96.2924 2.38989C96.0861 2.31695 95.9077 2.18149 95.7822 2.0022C95.6566 1.8229 95.5901 1.60874 95.5922 1.38989C95.5922 0.459893 96.3124 0 97.7524 0H103.832C105.692 0 106.622 0.889912 106.622 2.65991V39.6599C106.622 43.6599 105.292 45.6599 102.622 45.6599H101.362L101.382 6.52002Z" fill="#595857"/>
<path d="M138.562 35.9697V53.9697C138.562 58.0697 137.306 60.1196 134.792 60.1196H133.532V35.9697H120.132C119.855 36.0125 119.572 35.9912 119.305 35.9074C119.038 35.8236 118.793 35.6795 118.59 35.4863C118.387 35.293 118.231 35.0559 118.135 34.7929C118.038 34.5299 118.003 34.2483 118.032 33.9697C118.032 32.6997 118.732 32.0595 120.132 32.0595H169.622C171.202 32.0595 172.002 32.6997 172.002 33.9697C172.002 35.2397 171.202 35.9697 169.622 35.9697H157.132V53.9697C157.132 58.0697 155.892 60.1196 153.432 60.1196H152.102V35.9697H138.562ZM128.922 8.48967C127.482 8.48967 126.762 7.80967 126.762 6.48967C126.731 6.21154 126.765 5.92998 126.86 5.66692C126.956 5.40385 127.111 5.16631 127.313 4.97282C127.515 4.77934 127.759 4.635 128.026 4.55119C128.293 4.46739 128.576 4.44643 128.852 4.48967H158.312C160.272 4.48967 161.252 5.54626 161.252 7.65959C161.252 8.75959 161.192 10.1595 161.072 11.8495C160.952 13.5395 160.802 15.3595 160.622 17.3095C160.438 19.228 160.144 21.1347 159.742 23.0197C159.438 24.5835 158.982 26.1138 158.382 27.5895C158.183 28.0692 157.832 28.47 157.382 28.7297C157.136 28.8565 156.866 28.9332 156.59 28.9555C156.314 28.9778 156.036 28.9452 155.772 28.8595C155.578 28.8122 155.401 28.7125 155.26 28.5715C155.119 28.4304 155.019 28.2533 154.972 28.0595C154.913 27.588 154.913 27.1111 154.972 26.6396C155.212 25.2396 155.382 23.7097 155.502 22.0397C155.622 20.3697 155.722 18.7296 155.812 17.1196C155.902 15.5096 155.812 13.9595 155.812 12.5795C155.812 11.1995 155.812 9.85951 155.812 8.57951L128.922 8.48967Z" fill="#595857"/>
</svg>
