<svg width="227" height="74" viewBox="0 0 227 74" fill="none" xmlns="http://www.w3.org/2000/svg">
<path d="M26.0554 12.21C25.5354 16.1265 24.2798 19.9095 22.3552 23.3599L37.405 36.9697C38.1754 37.6177 38.7072 38.5048 38.9152 39.4897C38.9837 39.8546 38.967 40.2306 38.8664 40.5879C38.7658 40.9452 38.5839 41.2743 38.3351 41.5498C38.0327 41.866 37.6647 42.1121 37.257 42.271C36.8493 42.4299 36.4119 42.4978 35.9753 42.4697C35.4592 42.4622 34.9507 42.3422 34.486 42.1177C34.0213 41.8931 33.6118 41.5696 33.2853 41.1699L20.175 27.0298C19.775 27.6998 19.3552 28.3598 18.9152 29.0298C14.9159 34.7226 9.96718 39.6849 4.28533 43.6997C2.60533 44.8797 1.33529 45.0196 0.495293 44.1196C-0.344707 43.2196 -0.11502 42.2296 1.17498 41.1196C6.04705 36.9151 10.2163 31.9597 13.5251 26.4399C16.6184 21.1933 18.442 16.6331 18.9953 12.7598C19.0743 12.4101 19.014 12.0434 18.8273 11.7373C18.6407 11.4312 18.3424 11.2095 17.9953 11.1196C17.1757 10.8304 16.3325 10.613 15.4753 10.4697C14.2953 10.2697 13.7351 9.6401 13.7951 8.6001C13.8551 7.5601 14.5452 7.02979 15.8952 7.02979H21.195C23.265 7.02979 24.6354 7.47963 25.3054 8.36963C26.0312 9.50902 26.2991 10.8812 26.0554 12.21V12.21ZM56.235 71.5098H28.3249C23.1649 71.5098 20.5882 69.27 20.5949 64.79V56.5298C20.7265 55.4826 20.4392 54.4259 19.7951 53.5898C19.0163 52.9944 18.1087 52.5901 17.1452 52.4097C16.3741 52.2277 15.6261 51.9596 14.9152 51.6099C14.7224 51.4635 14.571 51.2691 14.4762 51.0464C14.3815 50.8236 14.3468 50.5802 14.3752 50.3398C14.3752 49.2198 15.2152 48.6597 16.8952 48.6597H23.6149C25.8016 48.6597 26.8952 49.8567 26.8952 52.25V65.02C26.8952 66.09 27.4052 66.6196 28.4152 66.6196H56.235C58.085 66.6196 59.0153 67.4398 59.0153 69.0698C59.0153 70.6998 58.085 71.5098 56.235 71.5098V71.5098ZM49.235 7.8501C49.2971 7.31287 49.2462 6.7685 49.0861 6.25195C48.926 5.73541 48.6604 5.25803 48.3054 4.8501C47.5203 4.23996 46.5955 3.8343 45.6149 3.66992C44.7524 3.49393 43.9085 3.23607 43.0949 2.8999C42.8449 2.80999 42.6294 2.64366 42.4787 2.4248C42.328 2.20594 42.2498 1.94536 42.2551 1.67969C42.2551 0.559687 43.1152 0 44.8552 0H52.175C54.415 0 55.5353 1.06996 55.5353 3.20996V47.77C55.5353 52.55 53.9353 54.9497 50.7453 54.9497H49.235V7.8501Z" fill="#616160"/>
<path d="M133.065 30.5493H118.815V38.4194H145.215C147.115 38.4194 148.065 39.1895 148.065 40.7095C148.065 42.2295 147.115 43.1592 145.215 43.1592H85.6049C85.2678 43.2136 84.9228 43.1887 84.5971 43.0859C84.2714 42.9832 83.9743 42.8054 83.7294 42.5674C83.4846 42.3293 83.2988 42.0375 83.187 41.7148C83.0751 41.3922 83.04 41.048 83.0849 40.7095C83.0849 39.1895 83.9249 38.4194 85.6049 38.4194H112.505V30.5493H101.505C101.186 31.192 100.694 31.7327 100.085 32.1108C99.4753 32.489 98.7724 32.6896 98.0551 32.6895H96.5449V11.8193C96.6104 10.9386 96.4807 10.0543 96.165 9.22949C96.0267 8.99206 95.839 8.78713 95.6147 8.62842C95.3904 8.4697 95.1346 8.36098 94.8647 8.30957C94.2745 8.16331 93.6962 7.97245 93.1347 7.73926C92.8938 7.65039 92.6874 7.48737 92.5453 7.27344C92.4033 7.05951 92.333 6.80583 92.3447 6.54932C92.3447 5.42932 93.1548 4.86914 94.7748 4.86914H99.6547C101.721 4.86914 102.758 5.96585 102.765 8.15918V12.3594H128.325V9.35938C128.412 8.5025 128.252 7.63836 127.865 6.86914C127.47 6.43642 126.955 6.13349 126.385 5.99951C125.745 5.82054 125.125 5.57593 124.535 5.26953C124.345 5.15671 124.189 4.99295 124.087 4.79688C123.984 4.6008 123.939 4.37982 123.955 4.15918C123.955 3.08918 124.765 2.55957 126.385 2.55957H131.185C133.425 2.55957 134.545 3.65269 134.545 5.83936V20.4395C134.69 22.3453 134.155 24.2409 133.035 25.7896C134.765 25.7896 135.635 26.5496 135.635 28.0796C135.635 29.6096 134.815 30.5493 133.065 30.5493ZM97.915 60.7393C97.915 57.1726 99.6115 54.1026 103.005 51.5293C106.714 49.0143 111.093 47.6699 115.575 47.6699C120.056 47.6699 124.435 49.0143 128.145 51.5293C131.538 54.096 133.232 57.1659 133.225 60.7393C133.218 64.3126 131.525 67.3959 128.145 69.9893C124.426 72.4799 120.051 73.8096 115.575 73.8096C111.099 73.8096 106.724 72.4799 103.005 69.9893C99.6182 67.4426 97.9216 64.3593 97.915 60.7393V60.7393ZM102.715 25.8096H128.355V17.1094H102.815V23.4492C102.815 24.2592 102.815 25.0496 102.715 25.8096V25.8096ZM104.305 60.7393C104.289 61.8895 104.554 63.0261 105.077 64.0508C105.599 65.0754 106.364 65.957 107.305 66.6191C109.305 68.1491 112.065 68.9194 115.545 68.9194C118.456 69.0663 121.335 68.2585 123.745 66.6191C124.69 65.9648 125.462 65.0917 125.995 64.0737C126.528 63.0558 126.807 61.9236 126.807 60.7744C126.807 59.6252 126.528 58.4931 125.995 57.4751C125.462 56.4571 124.69 55.5835 123.745 54.9292C121.334 53.2934 118.455 52.4893 115.545 52.6392C112.065 52.6392 109.325 53.3992 107.305 54.9292C106.37 55.5803 105.608 56.4499 105.085 57.4624C104.562 58.4749 104.294 59.5998 104.305 60.7393V60.7393Z" fill="#616160"/>
<path d="M194.815 9.60938C194.479 13.0631 193.327 16.3878 191.455 19.3096L205.835 30.6294C206.274 30.9113 206.644 31.2872 206.919 31.73C207.194 32.1728 207.367 32.6715 207.425 33.1895C207.437 33.9944 207.136 34.7726 206.585 35.3594C206.288 35.6689 205.928 35.9111 205.53 36.0698C205.131 36.2285 204.703 36.3 204.275 36.2793C203.755 36.264 203.243 36.1403 202.773 35.9165C202.303 35.6927 201.885 35.3738 201.545 34.9795L189.185 22.7495C188.565 23.5195 187.925 24.3292 187.255 25.1992C183.131 30.1511 178.214 34.3854 172.705 37.7295C171.245 38.5995 170.115 38.6095 169.305 37.7295C168.495 36.8495 168.675 36.0394 169.845 35.1694C174.25 31.8289 178.144 27.8639 181.405 23.3994C184.738 18.8661 186.855 14.8162 187.755 11.2495C187.802 11.0804 187.813 10.9032 187.788 10.7295C187.762 10.5558 187.7 10.3893 187.606 10.2412C187.511 10.0931 187.387 9.96642 187.24 9.86963C187.094 9.77284 186.928 9.70783 186.755 9.6792C185.92 9.39693 185.064 9.17972 184.195 9.0293C183.015 8.8293 182.455 8.20918 182.515 7.15918C182.575 6.10918 183.265 5.58936 184.615 5.58936H189.915C191.254 5.48721 192.59 5.80902 193.735 6.50928C194.174 6.88364 194.506 7.36828 194.695 7.91309C194.885 8.45789 194.926 9.0433 194.815 9.60938V9.60938ZM223.485 72.6094H194.485C191.458 72.6094 189.945 70.9427 189.945 67.6094V61.7993C189.988 61.3763 189.947 60.9489 189.824 60.542C189.7 60.1351 189.497 59.7566 189.225 59.4292C188.697 58.9389 188.083 58.5492 187.415 58.2793C186.971 58.1605 186.556 57.9531 186.195 57.6694C186.032 57.5134 185.906 57.3229 185.827 57.1118C185.747 56.9007 185.716 56.674 185.735 56.4492C185.735 55.4492 186.495 54.9194 188.005 54.9194H217.345V46.8193H190.215C188.475 46.8193 187.605 45.9991 187.605 44.3691C187.605 42.7391 188.445 42.0796 190.125 42.0796H220.735C222.695 42.0796 223.675 43.1758 223.675 45.3691V55.6792C223.675 58.2792 222.525 59.5796 220.225 59.5796H196.225V65.6992C196.225 67.1192 196.895 67.8394 198.225 67.8394H223.445C225.185 67.8394 226.055 68.5994 226.055 70.1294C226.055 71.6594 225.245 72.5796 223.505 72.5796L223.485 72.6094ZM218.025 38.2192V7.87939C218.087 7.34217 218.036 6.7978 217.876 6.28125C217.716 5.7647 217.45 5.28733 217.095 4.87939C216.31 4.26926 215.386 3.86359 214.405 3.69922C213.542 3.52322 212.699 3.26537 211.885 2.9292C211.635 2.83928 211.419 2.67345 211.269 2.45459C211.118 2.23573 211.04 1.97514 211.045 1.70947C211.045 0.589473 211.915 0.0292969 213.645 0.0292969H220.965C223.205 0.0292969 224.325 1.09926 224.325 3.23926V31.0596C224.325 35.8462 222.729 38.2393 219.535 38.2393L218.025 38.2192Z" fill="#616160"/>
</svg>
