<svg width="236" height="75" viewBox="0 0 236 75" fill="none" xmlns="http://www.w3.org/2000/svg">
<path d="M4.80198 12.8901C3.01198 12.8901 2.11204 12.0802 2.11204 10.4502C2.11204 8.8202 2.9819 8.08008 4.7219 8.08008H31.2019C31.6468 8.04144 32.094 8.11991 32.4992 8.30762C32.9045 8.49532 33.2537 8.78556 33.5119 9.1499C33.746 9.49287 33.9082 9.87983 33.989 10.2871C34.0698 10.6944 34.0676 11.1137 33.9822 11.52C32.9155 17.02 29.2987 22.93 23.1321 29.25C17.4098 35.2315 10.7697 40.2613 3.46213 44.1499C1.89213 45.0199 0.821939 44.9103 0.261939 43.8403C-0.298061 42.7703 0.0419387 41.84 1.26194 41.02C7.57858 37.0812 13.2741 32.225 18.1618 26.6104C22.5352 21.437 25.3088 16.8635 26.4822 12.8901H4.80198ZM50.3718 46.29C52.5518 46.29 53.6521 47.4904 53.6521 49.8804V61.27C53.6521 64.0234 53.0919 66.0234 51.9719 67.27H52.052C53.842 67.27 54.7419 68.0601 54.7419 69.6401C54.7419 71.2201 53.842 72.0903 52.052 72.0903H24.9822C24.6618 72.7539 24.1604 73.3131 23.5359 73.7041C22.9113 74.0951 22.1887 74.302 21.4519 74.3003H19.9421V55.2002C20.0026 53.9537 19.8878 52.705 19.6018 51.4902C19.4004 51.1005 19.1178 50.7587 18.7727 50.4878C18.4276 50.2169 18.0282 50.023 17.6018 49.9199C17.0461 49.775 16.5212 49.5314 16.052 49.2002C15.8701 49.0618 15.725 48.8808 15.6291 48.6733C15.5333 48.4659 15.4898 48.2384 15.5022 48.0103C15.5022 46.8903 16.2818 46.3301 17.8518 46.3301L50.3718 46.29ZM26.072 67.23H47.4319V51.0303H26.1618V65.0303C26.1618 65.8103 26.132 66.55 26.072 67.21V67.23ZM48.0222 42.3901V7.8501C48.0848 7.31284 48.0344 6.76859 47.8742 6.25195C47.7141 5.73531 47.4476 5.2577 47.092 4.8501C46.308 4.23638 45.3836 3.82748 44.4021 3.66016C43.5401 3.48652 42.6963 3.23181 41.8821 2.8999C41.6329 2.80871 41.4183 2.6424 41.2678 2.42383C41.1173 2.20526 41.0385 1.94552 41.0422 1.68018C41.0422 0.560176 41.9018 0 43.6418 0H50.9621C53.2021 0 54.322 1.05996 54.322 3.20996V35.3101C54.322 40.0367 52.7253 42.4035 49.532 42.4102L48.0222 42.3901Z" fill="#616160"/>
<path d="M93.2317 3.70117H130.132C131.932 3.70117 132.822 4.49129 132.822 6.07129C132.822 7.65129 131.932 8.44092 130.132 8.44092H101.632V21.0513C101.589 21.3396 101.613 21.6335 101.704 21.9106C101.794 22.1878 101.947 22.4404 102.152 22.6479C102.357 22.8555 102.607 23.0126 102.883 23.1069C103.159 23.2012 103.453 23.2298 103.741 23.1909H131.822C133.552 23.1909 134.422 23.981 134.422 25.561C134.422 27.141 133.552 27.9312 131.822 27.9312H117.572V36.561H144.052C145.902 36.561 146.822 37.3512 146.822 38.9312C146.822 40.5112 145.902 41.3813 144.052 41.3813H84.3616C84.0248 41.4336 83.6804 41.4068 83.3557 41.3032C83.031 41.1997 82.7348 41.0222 82.4905 40.7847C82.2461 40.5471 82.0606 40.2557 81.948 39.9341C81.8354 39.6124 81.7988 39.2692 81.8416 38.9312C81.8416 37.3512 82.6816 36.561 84.3616 36.561H111.261V27.8911H100.371C97.038 27.8911 95.3714 26.208 95.3714 22.8413V12.5312C95.4367 11.2847 95.3224 10.0352 95.0315 8.82129C94.8334 8.42911 94.5519 8.08526 94.2063 7.81396C93.8607 7.54267 93.4595 7.35025 93.0315 7.25098C92.472 7.10801 91.9432 6.86428 91.4715 6.53125C91.286 6.38028 91.1394 6.18696 91.0437 5.96777C90.948 5.74859 90.9062 5.50965 90.9216 5.271C90.8716 4.231 91.6617 3.70117 93.2317 3.70117ZM96.6716 60.1011C96.6716 56.4944 98.3815 53.3113 101.802 50.5513C105.428 47.8686 109.82 46.4204 114.331 46.4204C118.842 46.4204 123.235 47.8686 126.862 50.5513C130.268 53.3046 131.975 56.4877 131.982 60.1011C131.988 63.7144 130.282 66.9145 126.862 69.7012C123.222 72.3527 118.834 73.7812 114.331 73.7812C109.828 73.7812 105.441 72.3527 101.802 69.7012C98.3815 66.9745 96.6716 63.7744 96.6716 60.1011V60.1011ZM103.062 60.1011C103.071 61.3023 103.356 62.4852 103.895 63.5586C104.434 64.632 105.213 65.5669 106.172 66.291C108.546 67.986 111.389 68.897 114.306 68.897C117.223 68.897 120.068 67.986 122.442 66.291C123.41 65.5732 124.198 64.6405 124.744 63.5664C125.291 62.4923 125.581 61.3062 125.592 60.1011C125.582 58.9014 125.292 57.7206 124.745 56.6528C124.198 55.5851 123.41 54.66 122.442 53.9512C120.056 52.2854 117.216 51.3921 114.306 51.3921C111.397 51.3921 108.557 52.2854 106.172 53.9512C105.214 54.6669 104.435 55.5947 103.895 56.6616C103.356 57.7285 103.071 58.9055 103.062 60.1011V60.1011Z" fill="#616160"/>
<path d="M203.852 17.3809H193.932C189.722 17.3809 186.452 18.3204 184.092 20.2104C183.031 20.9531 182.158 21.9346 181.545 23.0757C180.932 24.2167 180.595 25.4859 180.562 26.7808C180.555 27.7756 180.783 28.7577 181.228 29.6475C181.672 30.5373 182.321 31.3092 183.122 31.9004C184.738 33.2466 186.778 33.9799 188.882 33.9707C191.075 34.0477 193.233 33.4013 195.022 32.1309C195.759 31.6477 196.367 30.991 196.792 30.2188C197.218 29.4465 197.448 28.5822 197.462 27.7007C197.503 26.4222 197.051 25.1768 196.202 24.2207C195.224 23.2047 193.962 22.5076 192.582 22.2207C192.4 22.1962 192.227 22.1296 192.075 22.0264C191.924 21.9231 191.798 21.7861 191.709 21.626C191.62 21.4658 191.569 21.2872 191.561 21.104C191.552 20.9208 191.587 20.7383 191.662 20.5708C191.882 19.6808 192.782 19.3104 194.352 19.4604C196.844 19.6405 199.214 20.6072 201.122 22.2207C201.964 22.886 202.647 23.7319 203.119 24.6958C203.592 25.6597 203.842 26.7171 203.852 27.7905C203.852 30.6972 202.452 33.2707 199.652 35.5107C197.566 37.2038 195.067 38.3116 192.412 38.7207V44.0708H193.002C196.422 44.0708 199.352 44.0075 201.792 43.8809C204.285 43.7535 206.769 43.4861 209.232 43.0806C211.022 42.7806 212.052 43.0804 212.302 43.9204C212.426 44.3377 212.392 44.7859 212.208 45.1802C212.024 45.5745 211.701 45.8878 211.302 46.0605C209.137 47.0825 206.826 47.7574 204.452 48.0605C200.516 48.6734 196.535 48.9542 192.552 48.9004H170.102C168.362 48.9004 167.502 48.0907 167.502 46.4507C167.502 44.8107 168.362 44.0806 170.102 44.0806H186.242V38.7305C183.398 38.4068 180.725 37.2087 178.592 35.3008C175.685 32.9008 174.228 30.1472 174.222 27.0405C174.243 25.0983 174.845 23.2073 175.952 21.6108C177.133 19.8462 178.734 18.4028 180.612 17.4106H172.122C170.272 17.4106 169.352 16.6205 169.352 15.0405C169.352 13.4605 170.242 12.8306 172.042 12.8306H203.902C205.632 12.8306 206.502 13.5605 206.502 15.0405C206.502 16.5205 205.572 17.3809 203.852 17.3809ZM180.982 6.53076L178.542 4.62061C178.081 4.28485 177.733 3.81795 177.542 3.28076C177.5 3.01681 177.516 2.74696 177.588 2.48975C177.661 2.23253 177.788 1.99381 177.962 1.79053C178.146 1.57788 178.373 1.4065 178.628 1.2876C178.883 1.1687 179.161 1.10501 179.442 1.10059C180.009 1.11128 180.567 1.24061 181.082 1.48047C183.174 2.61641 185.426 3.42912 187.762 3.89062C189.94 4.27759 192.149 4.46817 194.362 4.46045C196.152 4.46045 197.052 5.26057 197.052 6.83057C197.064 7.17959 196.984 7.52569 196.821 7.83447C196.658 8.14325 196.417 8.40419 196.122 8.59082C195.581 8.97624 194.936 9.18876 194.272 9.20068L188.392 9.13086C185.701 9.11439 183.093 8.19917 180.982 6.53076V6.53076ZM221.332 71.8706H193.092C187.872 71.8706 185.265 69.6304 185.272 65.1504V61.7905C185.406 60.7401 185.118 59.6795 184.472 58.8408C183.694 58.2435 182.786 57.8389 181.822 57.6606C181.063 57.4549 180.331 57.1596 179.642 56.7808C179.463 56.6438 179.323 56.4634 179.233 56.2568C179.144 56.0503 179.109 55.8244 179.132 55.6006C179.132 54.4206 179.942 53.8408 181.572 53.8408H188.302C190.482 53.8408 191.572 55.0307 191.572 57.4307V65.3809C191.542 65.598 191.563 65.8187 191.633 66.0264C191.703 66.2341 191.82 66.4232 191.975 66.5781C192.13 66.7331 192.318 66.8501 192.526 66.9199C192.734 66.9898 192.955 67.0103 193.172 66.9805H221.332C223.182 66.9805 224.112 67.8007 224.112 69.4307C224.112 71.0607 223.182 71.8906 221.332 71.8906V71.8706ZM215.282 7.87061C215.34 7.32808 215.281 6.77939 215.109 6.26172C214.936 5.74405 214.654 5.26954 214.282 4.87061C213.503 4.27356 212.596 3.86619 211.632 3.68066C210.751 3.51919 209.889 3.26417 209.062 2.92041C208.82 2.82273 208.614 2.65357 208.471 2.43555C208.328 2.21752 208.255 1.96131 208.262 1.70068C208.262 0.580684 209.132 0.0205078 210.872 0.0205078H218.272C220.452 0.0205078 221.552 1.08047 221.552 3.23047V27.2305H232.392C234.192 27.2305 235.082 28.0507 235.082 29.6807C235.082 31.3107 234.192 32.1309 232.392 32.1309H221.572V52.3809C221.572 57.0475 219.945 59.3809 216.692 59.3809H215.262L215.282 7.87061Z" fill="#616160"/>
</svg>
