<svg width="195" height="63" viewBox="0 0 195 63" fill="none" xmlns="http://www.w3.org/2000/svg">
<path d="M21.6835 10.9204C21.2475 14.1763 20.2026 17.321 18.6035 20.1904L31.1035 31.4907C31.7407 32.0309 32.1835 32.7649 32.3637 33.5806C32.4195 33.8841 32.4043 34.1965 32.3193 34.4932C32.2343 34.7898 32.0815 35.0626 31.8735 35.2905C31.6168 35.5574 31.305 35.7649 30.9594 35.8979C30.6138 36.031 30.2429 36.0864 29.8735 36.0605C29.4463 36.0497 29.0266 35.948 28.642 35.7617C28.2574 35.5755 27.9168 35.3089 27.6435 34.9805L16.7538 23.2407C16.4272 23.7941 16.0769 24.344 15.7036 24.8906C12.3877 29.6221 8.27695 33.7433 3.55365 37.0708C2.16365 38.0708 1.11351 38.1604 0.413511 37.4204C-0.286489 36.6804 -0.09643 35.8406 0.97357 34.9106C5.02307 31.4256 8.48736 27.3131 11.2338 22.7305C13.7938 18.3705 15.3072 14.5839 15.7739 11.3706C15.8404 11.0778 15.7897 10.7707 15.6327 10.5146C15.4758 10.2586 15.2247 10.074 14.9335 10.0005C14.2541 9.76177 13.5548 9.58461 12.8437 9.4707C11.8437 9.3007 11.4038 8.78064 11.4438 7.91064C11.4838 7.04064 12.0738 6.61084 13.1938 6.61084H17.5937C19.3137 6.61084 20.4536 6.9807 21.0136 7.7207C21.6339 8.66411 21.8733 9.80739 21.6835 10.9204ZM46.7436 60.1704H23.5536C19.2736 60.1704 17.1337 58.3108 17.1337 54.5908V47.7305C17.243 46.862 17.0057 45.9855 16.4736 45.2905C15.8287 44.7894 15.0754 44.4468 14.2739 44.2905C13.632 44.1442 13.0105 43.9192 12.4238 43.6206C12.2682 43.507 12.1439 43.3557 12.0634 43.1807C11.9829 43.0056 11.9489 42.8127 11.9638 42.6206C11.9638 41.6906 12.6634 41.2305 14.0634 41.2305H19.6435C21.4635 41.2305 22.3637 42.2305 22.3637 44.2305V54.8306C22.3637 55.7106 22.7835 56.1606 23.6235 56.1606H46.7338C48.2638 56.1606 49.0336 56.8406 49.0336 58.1606C49.0336 59.4806 48.2736 60.1606 46.7436 60.1606V60.1704ZM40.9438 7.31055C40.999 6.86231 40.9599 6.40735 40.829 5.9751C40.6982 5.54285 40.4782 5.14308 40.1835 4.80078C39.53 4.28912 38.7611 3.94573 37.9438 3.80078C37.2269 3.66004 36.5262 3.44543 35.8535 3.16064C35.6471 3.0877 35.4687 2.95224 35.3432 2.77295C35.2177 2.59366 35.1517 2.37949 35.1537 2.16064C35.1537 1.23064 35.8734 0.760742 37.3134 0.760742H43.3935C45.2535 0.760742 46.1835 1.65066 46.1835 3.43066V40.4307C46.1835 44.4307 44.8502 46.4307 42.1835 46.4307H40.9238L40.9438 7.31055Z" fill="#616160"/>
<path d="M98.6636 39.8618V54.7114C98.6636 58.8181 97.4305 60.8716 94.9639 60.8716H93.4937V39.8716H71.1538C69.7638 39.8716 69.0635 39.2216 69.0635 37.8716C69.0635 36.5216 69.7638 35.8716 71.1538 35.8716H120.724C122.254 35.8716 123.024 36.5216 123.024 37.8716C123.024 39.2216 122.254 39.8716 120.724 39.8716L98.6636 39.8618ZM85.4639 12.5117H106.554V9.28174C106.631 8.56836 106.495 7.84771 106.164 7.21143C105.838 6.85238 105.414 6.59828 104.944 6.48145C104.418 6.33773 103.905 6.14713 103.414 5.91162C103.25 5.81585 103.118 5.67597 103.031 5.50781C102.945 5.33965 102.907 5.14991 102.924 4.96143C102.924 4.07143 103.594 3.63184 104.924 3.63184H108.924C110.784 3.63184 111.714 4.54182 111.714 6.36182V20.7017C111.871 22.2791 111.46 23.8607 110.554 25.1616C112.004 25.1616 112.724 25.8216 112.724 27.1616C112.724 28.5016 112.004 29.1616 110.554 29.1616H84.4536C84.1872 29.6923 83.7788 30.1387 83.2739 30.4512C82.769 30.7637 82.1875 30.93 81.5938 30.9316H80.2637V11.4517C80.3198 10.7078 80.214 9.96073 79.9536 9.26172C79.8298 9.07353 79.6696 8.91199 79.4824 8.78662C79.2952 8.66126 79.0849 8.57462 78.8638 8.53174C78.3716 8.4087 77.8925 8.23764 77.4336 8.02148C77.2356 7.94082 77.0665 7.80249 76.9487 7.62402C76.8309 7.44555 76.7702 7.23529 76.7739 7.02148C76.7739 6.13148 77.4439 5.68164 78.7739 5.68164H82.8936C84.6136 5.68164 85.4736 6.59162 85.4736 8.41162L85.4639 12.5117ZM106.554 16.5117H85.4639V23.1616C85.4639 23.8416 85.4636 24.5016 85.3936 25.1616H106.554V16.5117Z" fill="#616160"/>
<path d="M192.394 37.3212H142.833C142.557 37.3645 142.274 37.343 142.007 37.2592C141.74 37.1754 141.496 37.0313 141.294 36.8378C141.092 36.6443 140.937 36.407 140.842 36.144C140.746 35.8809 140.713 35.5993 140.744 35.3212C140.744 34.0112 141.433 33.3212 142.833 33.3212H192.394C193.934 33.3212 194.704 33.9712 194.704 35.3212C194.704 36.6712 193.934 37.3212 192.394 37.3212ZM152.684 14.101C151.184 14.101 150.444 13.421 150.444 12.101C150.444 10.781 151.163 10.101 152.603 10.101H177.324C177.923 10.0293 178.529 10.1396 179.064 10.4179C179.6 10.6962 180.038 11.1296 180.324 11.6611C180.834 12.6611 180.574 13.8413 179.554 15.1113C177.42 17.31 174.915 19.114 172.154 20.4408L185.833 24.4408C186.668 24.6051 187.435 25.0163 188.034 25.621C188.228 25.8499 188.354 26.1284 188.398 26.4252C188.443 26.7221 188.403 27.0257 188.284 27.3012C188.142 27.5957 187.941 27.8579 187.693 28.0712C187.445 28.2846 187.156 28.4443 186.844 28.5409C186.002 28.7656 185.11 28.7097 184.304 28.3813L167.964 22.601C162.129 25.2004 156.048 27.2104 149.813 28.601C148.233 28.941 147.294 28.671 146.994 27.811C146.694 26.951 147.234 26.301 148.634 25.871C153.772 24.3281 158.786 22.3993 163.634 20.101C167.087 18.4583 170.353 16.4466 173.374 14.101H152.684ZM151.353 47.4111C150.093 47.4111 149.464 46.7411 149.464 45.4111C149.464 44.0811 150.074 43.5112 151.284 43.5112H181.024C182.744 43.5112 183.603 44.4211 183.603 46.2411V56.0112C183.603 60.0112 182.394 62.0112 179.974 62.0112H178.434V47.4111H151.353ZM159.174 4.41106L157.353 2.9511C157.002 2.63263 156.737 2.23012 156.583 1.78118C156.549 1.57083 156.562 1.3552 156.623 1.15081C156.684 0.946425 156.79 0.758437 156.934 0.601006C157.078 0.421838 157.259 0.275788 157.464 0.172295C157.669 0.0688012 157.894 0.0101666 158.124 0.000907927C158.61 -0.0118127 159.091 0.109347 159.514 0.351006C161.418 1.27578 163.435 1.94812 165.514 2.35101C167.496 2.6836 169.504 2.84418 171.514 2.83099C173.004 2.83099 173.754 3.46089 173.754 4.73089C173.773 5.02571 173.711 5.3205 173.575 5.58294C173.44 5.84538 173.235 6.06585 172.984 6.22112C172.526 6.52404 171.992 6.69051 171.444 6.7011L165.654 6.63128C163.299 6.72539 160.993 5.94919 159.174 4.4511V4.41106Z" fill="#616160"/>
</svg>
