<svg width="985" height="1117" viewBox="0 0 985 1117" fill="none" xmlns="http://www.w3.org/2000/svg">
<path d="M965.788 842.343C975.967 815.742 962.654 785.927 936.054 775.748C909.454 765.569 879.638 778.881 869.459 805.481C859.28 832.082 872.593 861.897 899.193 872.076C925.793 882.255 955.609 868.943 965.788 842.343Z" fill="#609BA7"/>
<path d="M438.99 0V120.25H460.93V125.1H399.1V120.25H420.94V8.73999H399.1V3.8999H402.42C416.293 3.8999 428.483 2.6 438.99 0Z" fill="#595857"/>
<path d="M517.23 127.85C506.33 127.85 497.02 121.39 489.3 108.47C481.539 95.4385 477.528 80.5163 477.71 65.3499C477.71 48.4365 481.637 33.32 489.49 20C497.343 6.68 506.78 0.0133333 517.8 0C528.467 0 537.68 6.66667 545.44 20C553.238 33.4036 557.273 48.6637 557.12 64.1699C557.22 79.5026 553.148 94.5739 545.34 107.77C537.52 121.157 528.15 127.85 517.23 127.85ZM536.89 77.98V45.3101C536.89 18.2101 530.527 4.65991 517.8 4.65991C511.4 4.65991 506.49 7.82324 503.07 14.1499C499.65 20.4766 497.94 31.5267 497.94 47.3V84.3C497.94 110.3 504.497 123.283 517.61 123.25C523.937 123.25 528.733 119.877 532 113.13C535.267 106.383 536.91 94.6666 536.93 77.98H536.89Z" fill="#595857"/>
<path d="M15.0198 273.96C14.9815 272.635 15.2411 271.318 15.7793 270.107C16.3176 268.895 17.1206 267.82 18.1297 266.96C20.1864 265.193 22.8083 264.222 25.5198 264.222C28.2313 264.222 30.853 265.193 32.9097 266.96C33.9165 267.822 34.7183 268.897 35.2564 270.108C35.7944 271.319 36.0553 272.635 36.0198 273.96C36.0436 275.264 35.777 276.557 35.2391 277.746C34.7011 278.934 33.9053 279.987 32.9097 280.83C30.853 282.597 28.2313 283.569 25.5198 283.569C22.8083 283.569 20.1864 282.597 18.1297 280.83C17.1324 279.989 16.3357 278.936 15.7976 277.747C15.2596 276.558 14.9939 275.265 15.0198 273.96ZM18.7998 273.96C18.7721 274.824 18.9373 275.684 19.2832 276.476C19.6292 277.268 20.1473 277.973 20.7998 278.54C22.1257 279.664 23.807 280.28 25.5447 280.28C27.2825 280.28 28.964 279.664 30.2898 278.54C30.943 277.974 31.4614 277.269 31.8074 276.476C32.1534 275.684 32.3182 274.824 32.2898 273.96C32.3161 273.077 32.1509 272.199 31.8057 271.386C31.4605 270.573 30.9433 269.844 30.2898 269.25C28.9847 268.084 27.2953 267.439 25.5447 267.439C23.7941 267.439 22.105 268.084 20.7998 269.25C20.1469 269.845 19.6299 270.574 19.2847 271.386C18.9395 272.199 18.7742 273.077 18.7998 273.96ZM46.6697 307.46H29.4998C27.7098 307.46 26.8099 306.38 26.8099 304.22V300.45C26.8656 299.903 26.7158 299.354 26.3897 298.91C26.0847 298.594 25.7215 298.339 25.3199 298.16C25.0536 298.081 24.8079 297.944 24.5999 297.76C24.4975 297.656 24.4193 297.53 24.3709 297.391C24.3225 297.253 24.3051 297.106 24.3199 296.96C24.3199 296.294 24.7697 295.96 25.6697 295.96H43.0398V290.68H26.9598C26.7465 290.708 26.5297 290.685 26.3267 290.615C26.1237 290.544 25.9402 290.426 25.7906 290.272C25.641 290.117 25.5295 289.93 25.4651 289.725C25.4007 289.52 25.3852 289.302 25.4197 289.09C25.3914 288.888 25.4105 288.682 25.4754 288.488C25.5403 288.295 25.6493 288.119 25.7937 287.974C25.9382 287.83 26.114 287.721 26.3077 287.656C26.5013 287.591 26.7074 287.572 26.9097 287.6H45.0298C46.1898 287.6 46.7698 288.31 46.7698 289.74V296.45C46.7698 298.14 46.0898 298.99 44.7698 298.99H30.5799V302.99C30.5799 303.92 30.9798 304.38 31.7798 304.38H46.7098C47.7098 304.38 48.2598 304.88 48.2598 305.87C48.2923 306.086 48.2735 306.306 48.2049 306.514C48.1363 306.721 48.0199 306.909 47.865 307.063C47.7102 307.217 47.5214 307.332 47.3138 307.399C47.1061 307.467 46.8854 307.484 46.6697 307.45V307.46ZM43.4397 285.06V265.3C43.5256 264.587 43.328 263.869 42.8897 263.3C42.4347 262.911 41.8873 262.646 41.2998 262.53C40.7838 262.416 40.2811 262.249 39.7998 262.03C39.6478 261.964 39.5194 261.852 39.4319 261.711C39.3444 261.57 39.302 261.406 39.3099 261.24C39.3099 260.51 39.8199 260.14 40.8499 260.14H45.2298C46.5598 260.14 47.2298 260.84 47.2298 262.23V280.35C47.2298 283.47 46.283 285.03 44.3897 285.03L43.4397 285.06Z" fill="#D17F86"/>
<path d="M174.34 281.93V285.81C174.34 288.07 173.48 289.19 171.75 289.19H170.56V281.93H161.5C160.5 281.93 159.96 281.4 159.96 280.33C159.934 280.124 159.957 279.915 160.026 279.719C160.095 279.522 160.209 279.345 160.358 279.2C160.507 279.056 160.688 278.948 160.887 278.886C161.085 278.823 161.295 278.807 161.5 278.84H175.98C177.98 278.84 179.74 278.84 181.19 278.69C182.682 278.585 184.167 278.402 185.64 278.14C186.64 277.94 187.26 278.14 187.41 278.69C187.487 278.959 187.465 279.246 187.35 279.501C187.235 279.755 187.033 279.961 186.78 280.08C185.55 280.786 184.189 281.235 182.78 281.4C180.45 281.785 178.091 281.962 175.73 281.93H174.34ZM162.69 269.03C162.685 267.962 162.928 266.908 163.4 265.95C163.872 264.992 164.56 264.157 165.41 263.51C167.383 261.962 169.844 261.167 172.35 261.27C174.875 261.165 177.355 261.959 179.35 263.51C180.202 264.158 180.892 264.993 181.368 265.952C181.843 266.91 182.09 267.965 182.09 269.035C182.09 270.105 181.843 271.16 181.368 272.119C180.892 273.077 180.202 273.913 179.35 274.56C177.355 276.112 174.875 276.905 172.35 276.8C169.844 276.903 167.383 276.109 165.41 274.56C164.56 273.912 163.872 273.075 163.4 272.115C162.928 271.156 162.685 270.1 162.69 269.03ZM166.48 269.03C166.474 269.666 166.619 270.295 166.904 270.864C167.19 271.432 167.606 271.925 168.12 272.3C169.348 273.184 170.839 273.628 172.35 273.56C173.878 273.631 175.385 273.188 176.63 272.3C177.139 271.922 177.552 271.429 177.837 270.862C178.122 270.295 178.27 269.67 178.27 269.035C178.27 268.401 178.122 267.775 177.837 267.208C177.552 266.641 177.139 266.149 176.63 265.77C175.385 264.883 173.878 264.439 172.35 264.51C170.839 264.443 169.348 264.887 168.12 265.77C167.604 266.141 167.186 266.631 166.9 267.199C166.614 267.767 166.47 268.395 166.48 269.03V269.03ZM192.41 307.46H174.69C172.93 307.46 172.05 306.38 172.05 304.23V301.84C172.101 301.305 171.951 300.771 171.63 300.34C171.306 300.013 170.927 299.746 170.51 299.55C170.267 299.463 170.04 299.334 169.84 299.17C169.737 299.072 169.658 298.952 169.61 298.818C169.561 298.685 169.544 298.541 169.56 298.4C169.56 297.7 170.01 297.4 170.91 297.4H188.78V293.56H172.23C172.018 293.595 171.801 293.579 171.595 293.515C171.39 293.45 171.203 293.339 171.048 293.189C170.894 293.04 170.777 292.856 170.706 292.653C170.635 292.45 170.612 292.233 170.64 292.02C170.61 291.811 170.629 291.598 170.696 291.397C170.762 291.196 170.875 291.014 171.025 290.865C171.174 290.715 171.356 290.603 171.557 290.536C171.758 290.469 171.971 290.45 172.18 290.48H190.8C191.96 290.48 192.54 291.19 192.54 292.62V297.89C192.54 299.59 191.86 300.43 190.54 300.43H175.85V303.02C175.85 303.95 176.24 304.41 177 304.41H192.48C192.686 304.377 192.897 304.393 193.097 304.456C193.296 304.519 193.477 304.628 193.627 304.773C193.776 304.919 193.89 305.098 193.958 305.295C194.026 305.493 194.048 305.703 194.02 305.91C194.049 306.125 194.026 306.344 193.954 306.549C193.882 306.754 193.763 306.939 193.606 307.089C193.449 307.239 193.259 307.35 193.051 307.413C192.843 307.475 192.624 307.488 192.41 307.45V307.46ZM189.17 265.3C189.216 264.948 189.192 264.59 189.1 264.246C189.007 263.903 188.847 263.582 188.63 263.3C188.173 262.906 187.622 262.637 187.03 262.52C186.518 262.407 186.019 262.243 185.54 262.03C185.386 261.962 185.256 261.85 185.167 261.707C185.078 261.564 185.034 261.398 185.04 261.23C185.04 260.5 185.56 260.14 186.59 260.14H190.92C192.24 260.14 192.92 260.83 192.92 262.23V284.23C192.92 287.31 191.974 288.85 190.08 288.85H189.18V286.85H180.87C180.462 286.85 180.07 286.688 179.781 286.399C179.492 286.11 179.33 285.719 179.33 285.31C179.33 284.902 179.492 284.51 179.781 284.221C180.07 283.932 180.462 283.77 180.87 283.77H189.18L189.17 265.3Z" fill="#595857"/>
<path d="M320.47 277.6C320.152 277.524 319.876 277.327 319.7 277.05C319.582 276.801 319.553 276.518 319.62 276.25C319.671 276.103 319.765 275.974 319.889 275.882C320.014 275.789 320.165 275.736 320.32 275.73C320.653 275.694 320.988 275.694 321.32 275.73C323.017 275.908 324.6 276.668 325.8 277.88C326.36 278.438 326.796 279.107 327.078 279.845C327.361 280.582 327.484 281.371 327.44 282.16C327.408 283.186 327.14 284.191 326.656 285.097C326.172 286.002 325.486 286.783 324.65 287.38C323.379 288.401 321.874 289.088 320.27 289.38V293.91H320.77C322.77 293.91 324.53 293.91 325.97 293.79C327.448 293.701 328.918 293.51 330.37 293.22C331.44 293.02 332.04 293.22 332.19 293.76C332.266 294.029 332.246 294.316 332.133 294.572C332.019 294.828 331.821 295.036 331.57 295.16C330.311 295.849 328.934 296.296 327.51 296.48C325.196 296.854 322.854 297.028 320.51 297H307.23C307.017 297.028 306.8 297.005 306.597 296.935C306.394 296.864 306.211 296.746 306.061 296.592C305.912 296.437 305.8 296.25 305.736 296.045C305.671 295.84 305.656 295.622 305.69 295.41C305.663 295.203 305.684 294.993 305.752 294.795C305.821 294.598 305.934 294.419 306.084 294.273C306.233 294.128 306.415 294.019 306.614 293.956C306.813 293.893 307.024 293.877 307.23 293.91H316.64V289.43C314.822 289.151 313.116 288.376 311.71 287.19C310.862 286.482 310.175 285.601 309.693 284.606C309.212 283.611 308.949 282.525 308.92 281.42C308.902 280.01 309.284 278.623 310.02 277.42C310.749 276.118 311.778 275.007 313.02 274.18H308.02C306.95 274.18 306.42 273.67 306.42 272.64C306.392 272.43 306.413 272.217 306.481 272.016C306.549 271.816 306.662 271.634 306.812 271.485C306.963 271.336 307.145 271.223 307.346 271.156C307.547 271.09 307.761 271.07 307.97 271.1H327.13C327.539 271.1 327.931 271.262 328.219 271.551C328.508 271.84 328.67 272.232 328.67 272.64C328.67 273.049 328.508 273.44 328.219 273.729C327.931 274.018 327.539 274.18 327.13 274.18H320.86C318.676 274.082 316.54 274.843 314.91 276.3C314.19 276.937 313.618 277.723 313.235 278.604C312.851 279.485 312.665 280.44 312.69 281.4C312.702 282.061 312.856 282.712 313.14 283.309C313.425 283.906 313.834 284.435 314.34 284.86C315.424 285.812 316.828 286.32 318.27 286.28C319.687 286.33 321.075 285.869 322.18 284.98C322.649 284.641 323.036 284.203 323.314 283.696C323.593 283.189 323.755 282.627 323.79 282.05C323.86 281.049 323.562 280.056 322.95 279.26C322.312 278.467 321.447 277.888 320.47 277.6ZM313.35 266L312.06 264.8C311.795 264.563 311.604 264.254 311.51 263.91C311.481 263.743 311.489 263.572 311.532 263.408C311.575 263.244 311.653 263.091 311.76 262.96C311.857 262.823 311.984 262.709 312.131 262.627C312.278 262.546 312.442 262.499 312.61 262.49C312.964 262.473 313.313 262.568 313.61 262.76C314.867 263.468 316.212 264.006 317.61 264.36C318.909 264.607 320.229 264.721 321.55 264.7C321.763 264.667 321.981 264.685 322.186 264.75C322.391 264.816 322.578 264.929 322.732 265.079C322.886 265.229 323.003 265.413 323.074 265.616C323.145 265.82 323.167 266.037 323.14 266.25C323.153 266.468 323.109 266.686 323.012 266.882C322.916 267.079 322.771 267.247 322.59 267.37C322.273 267.601 321.893 267.731 321.5 267.74L318.01 267.69C316.296 267.757 314.623 267.15 313.35 266V266ZM334.01 265.3C334.057 264.946 334.031 264.585 333.933 264.241C333.835 263.897 333.667 263.577 333.44 263.3C332.987 262.918 332.449 262.65 331.87 262.52C331.346 262.416 330.836 262.252 330.35 262.03C330.201 261.959 330.077 261.844 329.993 261.702C329.909 261.559 329.87 261.395 329.88 261.23C329.88 260.5 330.39 260.14 331.42 260.14H335.8C337.09 260.14 337.74 260.83 337.74 262.23V280.64H344.16C344.38 280.623 344.602 280.651 344.81 280.723C345.019 280.796 345.21 280.91 345.372 281.06C345.535 281.21 345.664 281.391 345.753 281.594C345.841 281.796 345.887 282.014 345.887 282.235C345.887 282.456 345.841 282.674 345.753 282.877C345.664 283.079 345.535 283.261 345.372 283.41C345.21 283.56 345.019 283.675 344.81 283.747C344.602 283.819 344.38 283.848 344.16 283.83H337.74V302.64C337.74 305.7 336.74 307.22 334.86 307.22H334.01V265.3Z" fill="#595857"/>
<path d="M475.71 289.69V302.45C475.71 305.67 474.833 307.28 473.08 307.28H472.08V289.66H456.15C455.15 289.66 454.66 289.13 454.66 288.07C454.627 287.865 454.643 287.655 454.705 287.457C454.768 287.258 454.875 287.077 455.02 286.928C455.165 286.779 455.342 286.665 455.538 286.596C455.734 286.527 455.943 286.504 456.15 286.53H491.49C492.59 286.53 493.14 287.04 493.14 288.07C493.14 289.1 492.59 289.66 491.49 289.66L475.71 289.69ZM476.81 265.25C476.694 267.076 476.074 268.835 475.02 270.33L486.71 277.89C487.242 278.243 487.618 278.788 487.76 279.41C487.838 279.888 487.731 280.379 487.46 280.78C487.309 280.973 487.122 281.134 486.91 281.254C486.697 281.375 486.462 281.451 486.22 281.48C485.883 281.511 485.543 281.469 485.224 281.356C484.905 281.244 484.613 281.065 484.37 280.83L473.47 272.42C472.91 273.02 472.31 273.63 471.68 274.26C468.539 277.374 464.907 279.948 460.93 281.88C460.03 282.27 459.39 282.22 458.99 281.7C458.59 281.18 458.77 280.7 459.54 280.23C462.526 278.447 465.24 276.245 467.6 273.69C469.689 271.633 471.244 269.096 472.13 266.3C472.213 266.1 472.222 265.877 472.154 265.671C472.086 265.465 471.946 265.291 471.76 265.18C471.281 264.931 470.769 264.752 470.24 264.65C469.44 264.49 469.08 264.06 469.14 263.36C469.2 262.66 469.71 262.36 470.64 262.36H473.87C474.302 262.301 474.742 262.341 475.156 262.478C475.57 262.615 475.948 262.845 476.26 263.15C476.675 263.768 476.869 264.508 476.81 265.25V265.25Z" fill="#595857"/>
<path d="M631.16 262.61C632.46 262.61 633.1 263.39 633.1 264.95V271.821C633.184 273.027 632.891 274.229 632.26 275.26C632.466 275.235 632.676 275.257 632.872 275.326C633.068 275.395 633.245 275.509 633.39 275.658C633.534 275.808 633.642 275.989 633.705 276.187C633.767 276.385 633.783 276.595 633.75 276.801C633.78 277.01 633.761 277.223 633.695 277.424C633.628 277.624 633.515 277.807 633.366 277.956C633.216 278.106 633.034 278.218 632.833 278.285C632.633 278.351 632.419 278.37 632.21 278.34H623.79V284.271H639.47C640.57 284.271 641.12 284.781 641.12 285.811C641.12 286.841 640.57 287.4 639.47 287.4H604.13C603.13 287.4 602.64 286.871 602.64 285.811C602.607 285.605 602.623 285.395 602.686 285.197C602.748 284.999 602.856 284.818 603 284.668C603.145 284.519 603.322 284.405 603.519 284.336C603.715 284.267 603.924 284.245 604.13 284.271H620.06V278.34H613.59C613.424 278.762 613.137 279.124 612.765 279.382C612.393 279.64 611.953 279.783 611.5 279.791H610.6V268.39C610.644 267.57 610.563 266.747 610.36 265.95C610.226 265.701 610.041 265.483 609.817 265.311C609.593 265.139 609.335 265.016 609.06 264.95C608.742 264.893 608.449 264.74 608.22 264.51C608.039 264.266 607.951 263.964 607.97 263.66C607.97 262.994 608.35 262.644 609.11 262.61H631.16ZM610.23 295.45C609.33 295.45 608.88 294.93 608.88 293.9C608.88 292.87 609.31 292.36 610.18 292.36H631.38C632.61 292.36 633.22 293.07 633.22 294.5V303.5C633.22 306.647 632.357 308.224 630.63 308.23H629.54V295.45H610.23ZM614.31 275.24H629.39V265.68H614.39V273.74C614.34 274.33 614.32 274.83 614.29 275.26L614.31 275.24Z" fill="#595857"/>
<path d="M758.43 266.051C758.217 266.078 758 266.056 757.797 265.985C757.594 265.914 757.41 265.797 757.261 265.642C757.111 265.488 757 265.3 756.935 265.095C756.871 264.89 756.855 264.673 756.89 264.46C756.89 263.39 757.38 262.86 758.38 262.86H779.48C780.84 262.86 781.48 263.681 781.48 265.301C781.436 267.975 781.256 270.645 780.94 273.301C780.695 275.723 780.209 278.114 779.49 280.44C779.46 280.503 779.443 280.571 779.44 280.64H787.44C788.56 280.64 789.13 281.16 789.13 282.19C789.157 282.417 789.132 282.646 789.056 282.861C788.979 283.076 788.855 283.27 788.691 283.429C788.527 283.588 788.329 283.707 788.112 283.776C787.895 283.846 787.665 283.864 787.44 283.83H752.15C751.15 283.83 750.65 283.28 750.65 282.19C750.617 281.984 750.633 281.772 750.696 281.573C750.759 281.374 750.868 281.192 751.013 281.041C751.159 280.891 751.337 280.777 751.534 280.707C751.732 280.637 751.942 280.615 752.15 280.64H776.84C776.8 280.395 776.8 280.145 776.84 279.9C777.173 277.765 777.37 275.611 777.43 273.45C777.53 270.85 777.6 268.381 777.63 266.061L758.43 266.051ZM779.43 290.291C780.73 290.291 781.37 291.07 781.37 292.63V300.09C781.486 301.455 781.156 302.82 780.43 303.98H780.48C780.689 303.95 780.903 303.969 781.103 304.036C781.304 304.103 781.486 304.216 781.635 304.365C781.785 304.514 781.897 304.697 781.964 304.897C782.031 305.098 782.05 305.311 782.02 305.521C782.054 305.733 782.039 305.95 781.974 306.155C781.91 306.36 781.799 306.548 781.649 306.702C781.499 306.857 781.316 306.974 781.113 307.045C780.91 307.116 780.693 307.138 780.48 307.11H762.11C761.95 307.535 761.664 307.902 761.291 308.161C760.917 308.42 760.474 308.559 760.02 308.561H759.23V296.061C759.271 295.25 759.194 294.438 759 293.65C758.88 293.406 758.709 293.19 758.499 293.018C758.288 292.845 758.043 292.72 757.78 292.65C757.46 292.541 757.16 292.383 756.89 292.18C756.773 292.088 756.68 291.969 756.619 291.833C756.558 291.698 756.531 291.549 756.54 291.4C756.54 290.67 757 290.311 757.93 290.311L779.43 290.291ZM762.76 303.98H777.69V293.37H762.81V302.531C762.81 303.061 762.79 303.55 762.76 303.98V303.98Z" fill="#595857"/>
<path d="M926.77 275.011C926.986 274.981 927.205 275.001 927.412 275.071C927.618 275.14 927.806 275.256 927.96 275.41C928.114 275.564 928.23 275.752 928.3 275.958C928.369 276.165 928.39 276.385 928.36 276.6C928.36 277.6 927.83 278.09 926.77 278.09H910.23V283.771C910.23 284.701 910.65 285.16 911.48 285.16H928.48C929.48 285.16 930.02 285.64 930.02 286.61C930.054 286.823 930.039 287.04 929.974 287.245C929.91 287.45 929.799 287.638 929.649 287.792C929.499 287.947 929.316 288.064 929.113 288.135C928.91 288.206 928.693 288.228 928.48 288.201H919.82V296.451H935.5C936.63 296.451 937.19 296.971 937.19 297.991C937.19 299.011 936.63 299.541 935.5 299.541H900.23C899.23 299.541 898.74 299.021 898.74 297.991C898.707 297.785 898.723 297.575 898.785 297.377C898.848 297.179 898.956 296.998 899.1 296.848C899.245 296.699 899.422 296.585 899.618 296.516C899.814 296.447 900.024 296.425 900.23 296.451H916.11V288.241H909.49C907.53 288.241 906.55 287.127 906.55 284.9V270.67C906.578 269.893 906.521 269.115 906.38 268.35C906.26 267.94 905.85 267.6 905.16 267.35C904.836 267.243 904.532 267.085 904.26 266.88C904.145 266.789 904.053 266.672 903.992 266.538C903.931 266.404 903.903 266.257 903.91 266.11C903.91 265.38 904.34 265.011 905.21 265.011H927.23C927.447 264.98 927.667 265.001 927.875 265.071C928.082 265.141 928.27 265.258 928.425 265.413C928.579 265.568 928.695 265.757 928.763 265.965C928.832 266.173 928.851 266.394 928.82 266.61C928.848 266.824 928.825 267.041 928.754 267.243C928.683 267.446 928.566 267.63 928.411 267.78C928.257 267.929 928.07 268.041 927.865 268.105C927.659 268.169 927.442 268.185 927.23 268.15H910.23V275.071L926.77 275.011Z" fill="#639AB4"/>
<path d="M911.41 388.15L910.02 388.69C909.855 388.807 909.666 388.885 909.467 388.917C909.267 388.95 909.063 388.936 908.87 388.877C908.676 388.818 908.499 388.716 908.352 388.578C908.205 388.439 908.091 388.269 908.02 388.08C907.908 387.922 907.833 387.74 907.802 387.548C907.771 387.356 907.784 387.16 907.84 386.974C907.896 386.788 907.993 386.618 908.125 386.475C908.256 386.332 908.419 386.221 908.6 386.15L919.52 379.311H922.23V434.45H916.39V391.6C916.39 389.86 915.99 388.671 915.2 388.031C914.41 387.391 913.15 387.45 911.41 388.15Z" fill="#639AB4"/>
<path d="M903.64 546.26C903.64 541.854 904.92 538.417 907.48 535.95C910.04 533.484 913.453 532.254 917.72 532.26C919.602 532.174 921.481 532.471 923.245 533.132C925.009 533.794 926.62 534.807 927.98 536.11C930.573 538.67 931.87 542.157 931.87 546.57C931.87 550.67 930.587 553.9 928.02 556.26C927.013 557.229 925.841 558.012 924.56 558.57C926.182 559.309 927.646 560.355 928.87 561.65C930.246 563.108 931.321 564.823 932.033 566.697C932.745 568.571 933.08 570.567 933.02 572.57C933.02 577.65 931.597 581.534 928.75 584.22C925.678 586.827 921.779 588.259 917.75 588.259C913.721 588.259 909.822 586.827 906.75 584.22C903.923 581.554 902.51 577.67 902.51 572.57C902.451 570.566 902.789 568.57 903.502 566.696C904.216 564.822 905.293 563.107 906.67 561.65C907.894 560.355 909.358 559.309 910.98 558.57C909.71 557.923 908.541 557.094 907.51 556.11C906.21 554.831 905.194 553.294 904.527 551.597C903.861 549.9 903.558 548.082 903.64 546.26V546.26ZM908.33 572.57C908.33 576.31 909.227 579.17 911.02 581.15C911.875 582.083 912.915 582.828 914.074 583.338C915.232 583.848 916.484 584.111 917.75 584.111C919.016 584.111 920.268 583.848 921.426 583.338C922.585 582.828 923.625 582.083 924.48 581.15C926.28 579.15 927.18 576.29 927.18 572.57C927.18 568.88 926.28 565.99 924.48 563.92C923.652 562.943 922.621 562.157 921.459 561.619C920.296 561.08 919.031 560.801 917.75 560.801C916.469 560.801 915.203 561.08 914.041 561.619C912.879 562.157 911.848 562.943 911.02 563.92C909.23 565.99 908.33 568.88 908.33 572.57ZM909.41 546.26C909.41 549.54 910.2 552.1 911.79 553.92C912.512 554.789 913.419 555.486 914.445 555.958C915.471 556.431 916.59 556.667 917.72 556.65C918.846 556.675 919.965 556.457 921 556.012C922.035 555.567 922.963 554.905 923.72 554.07C925.327 552.35 926.133 549.85 926.14 546.57C926.146 543.29 925.34 540.79 923.72 539.07C922.973 538.218 922.05 537.539 921.013 537.081C919.977 536.623 918.853 536.398 917.72 536.42C916.611 536.395 915.509 536.605 914.487 537.035C913.465 537.466 912.546 538.109 911.79 538.92C910.203 540.607 909.41 543.054 909.41 546.26Z" fill="#639AB4"/>
<path d="M893.68 673.31L892.29 673.85C892.124 673.965 891.935 674.04 891.735 674.071C891.536 674.102 891.332 674.087 891.139 674.027C890.947 673.967 890.77 673.864 890.623 673.726C890.476 673.588 890.362 673.419 890.29 673.23C890.178 673.072 890.104 672.891 890.073 672.7C890.042 672.509 890.054 672.313 890.11 672.128C890.166 671.943 890.264 671.773 890.396 671.631C890.527 671.489 890.69 671.38 890.87 671.31L901.79 664.46H904.48V719.62H898.64V676.77C898.64 675.03 898.24 673.84 897.44 673.19C896.64 672.54 895.42 672.59 893.68 673.31Z" fill="#639AB4"/>
<path d="M927.99 688.93C929.465 687.692 931.242 686.868 933.14 686.54C934.69 686.292 936.263 686.215 937.83 686.31C941.198 686.535 944.346 688.067 946.6 690.58C949.113 693.247 950.37 696.977 950.37 701.77C950.37 707.05 948.793 711.333 945.64 714.62C942.487 717.907 938.293 719.65 933.06 719.85C930.817 719.949 928.572 719.689 926.41 719.08C924.501 718.606 922.69 717.801 921.06 716.7V712.54C923.366 713.853 925.878 714.763 928.49 715.23C930.467 715.636 932.503 715.664 934.49 715.31C937.453 714.695 940.1 713.047 941.96 710.66C943.907 707.943 944.882 704.65 944.73 701.31C944.73 697.977 943.92 695.387 942.3 693.54C941.52 692.633 940.56 691.898 939.48 691.381C938.401 690.865 937.226 690.578 936.03 690.54C934.441 690.42 932.846 690.684 931.38 691.31C929.846 692.03 928.531 693.145 927.57 694.54H922.23L923.61 665.08H947.07V669.54H928.69L927.99 688.93Z" fill="#639AB4"/>
<path d="M885.37 847.89C886.09 847.02 887.04 845.991 888.22 844.811C892.552 839.893 896.498 834.647 900.02 829.12C904.774 821.987 907.147 815.987 907.14 811.12C907.14 807.73 906.37 805.121 904.83 803.231C903.29 801.341 901.04 800.43 898.06 800.43C895.999 800.414 894.013 801.199 892.52 802.62C890.86 804.235 889.871 806.418 889.75 808.731H885.14C885.5 804.631 886.96 801.491 889.52 799.311C891.971 797.175 895.119 796.012 898.37 796.041C902.983 796.041 906.587 797.437 909.18 800.231C911.774 803.024 913.067 806.781 913.06 811.501C913.06 815.761 911.204 821.004 907.49 827.231C903.286 834.116 898.485 840.618 893.14 846.66H903.68C905.473 846.737 907.263 846.461 908.95 845.85C910.204 845.31 911.114 843.707 911.68 841.041C911.78 840.271 912.25 839.951 913.1 840.041C913.95 840.131 914.37 840.491 914.37 841.041L913.6 851.12H885.37V847.89Z" fill="white"/>
<path d="M920.83 847.89C921.55 847.02 922.5 845.991 923.68 844.811C928.016 839.894 931.965 834.648 935.49 829.12C940.23 821.987 942.6 815.987 942.6 811.12C942.6 807.73 941.83 805.121 940.29 803.231C938.75 801.341 936.5 800.43 933.52 800.43C931.462 800.412 929.478 801.198 927.99 802.62C926.326 804.232 925.335 806.416 925.22 808.731H920.6C920.96 804.631 922.42 801.491 924.98 799.311C927.431 797.175 930.579 796.012 933.83 796.041C938.45 796.041 942.053 797.437 944.64 800.231C947.227 803.024 948.52 806.781 948.52 811.501C948.52 815.761 946.663 821.004 942.95 827.231C938.75 834.118 933.948 840.62 928.6 846.66H939.14C940.933 846.737 942.723 846.462 944.41 845.85C945.663 845.31 946.573 843.707 947.14 841.041C947.24 840.271 947.72 839.951 948.56 840.041C949.4 840.131 949.83 840.491 949.83 841.041L949.06 851.12H920.83V847.89Z" fill="white"/>
<path d="M885.37 979.87C886.09 979 887.04 977.97 888.22 976.79C892.552 971.872 896.498 966.627 900.02 961.1C904.774 953.967 907.147 947.967 907.14 943.1C907.14 939.713 906.37 937.083 904.83 935.21C903.994 934.252 902.948 933.5 901.774 933.013C900.6 932.526 899.329 932.316 898.06 932.4C895.999 932.392 894.015 933.18 892.52 934.6C890.86 936.215 889.871 938.397 889.75 940.71H885.14C885.5 936.61 886.96 933.47 889.52 931.29C891.971 929.154 895.119 927.991 898.37 928.02C902.983 928.02 906.587 929.417 909.18 932.21C911.774 935.003 913.067 938.76 913.06 943.48C913.06 947.74 911.204 952.983 907.49 959.21C903.286 966.095 898.485 972.597 893.14 978.64H903.68C905.473 978.716 907.263 978.441 908.95 977.83C910.204 977.29 911.114 975.687 911.68 973.02C911.78 972.25 912.25 971.93 913.1 972.02C913.95 972.11 914.37 972.47 914.37 973.02L913.6 983.1H885.37V979.87Z" fill="#639AB4"/>
<path d="M944.29 955.87C943.546 957.355 942.434 958.626 941.06 959.561C938.944 960.964 936.449 961.69 933.91 961.64C931.994 961.705 930.09 961.317 928.352 960.508C926.615 959.698 925.093 958.489 923.91 956.98C921.423 953.88 920.18 949.88 920.18 944.98C920.18 939.914 921.514 935.837 924.18 932.75C926.847 929.664 930.577 928.101 935.37 928.061C939.677 928.007 943.217 930.124 945.99 934.41C948.764 938.697 950.147 945.607 950.14 955.14C950.228 960.288 949.554 965.42 948.14 970.37C946.807 974.83 944.847 978.137 942.26 980.291C939.547 982.618 936.105 983.923 932.53 983.98C928.99 984.228 925.469 983.281 922.53 981.291V977.14C924.141 978.143 925.931 978.822 927.8 979.14C929.06 979.32 930.329 979.424 931.6 979.45C935.24 979.45 938.294 977.627 940.76 973.98C943.074 970.474 944.25 964.437 944.29 955.87ZM944.14 948.87C943.78 943.737 942.96 939.94 941.68 937.48C939.88 934.047 937.674 932.254 935.06 932.1C933.751 932.003 932.44 932.276 931.279 932.887C930.117 933.499 929.151 934.426 928.49 935.561C926.792 938.303 925.947 941.487 926.06 944.71C926.06 949.17 926.934 952.404 928.68 954.41C929.359 955.307 930.229 956.042 931.227 956.561C932.225 957.08 933.326 957.37 934.45 957.41C936.753 957.325 938.943 956.392 940.6 954.791C942.434 953.29 943.686 951.196 944.14 948.87V948.87Z" fill="#639AB4"/>
<path d="M329.38 571.96H309.15V567.66L328.92 532.271H334.92V567.66H341.61V571.96H334.92V587.271H329.38V571.96ZM314.46 567.66H329.38V540.66L314.46 567.66Z" fill="#595857"/>
<path d="M302.88 673.32L301.49 673.86C301.324 673.975 301.134 674.051 300.935 674.081C300.735 674.112 300.532 674.097 300.339 674.037C300.146 673.977 299.97 673.875 299.823 673.737C299.676 673.599 299.562 673.429 299.49 673.24C299.378 673.082 299.304 672.901 299.272 672.71C299.241 672.519 299.254 672.323 299.31 672.138C299.366 671.953 299.464 671.783 299.595 671.641C299.727 671.5 299.889 671.39 300.07 671.32L310.99 664.47H313.69V719.63H307.84V676.78C307.84 675.04 307.44 673.84 306.65 673.2C305.86 672.56 304.62 672.6 302.88 673.32Z" fill="#595857"/>
<path d="M335.23 673.32L333.84 673.86C333.675 673.977 333.485 674.054 333.285 674.086C333.085 674.118 332.881 674.103 332.687 674.043C332.494 673.983 332.317 673.88 332.17 673.74C332.023 673.601 331.91 673.43 331.84 673.24C331.728 673.082 331.654 672.901 331.623 672.71C331.591 672.519 331.604 672.323 331.66 672.138C331.716 671.953 331.814 671.783 331.945 671.641C332.077 671.5 332.239 671.39 332.42 671.32L343.34 664.47H346.03V719.63H340.23V676.78C340.23 675.04 339.83 673.84 339.03 673.2C338.23 672.56 337.01 672.6 335.23 673.32Z" fill="#595857"/>
<path d="M301.35 805.28L299.97 805.82C299.804 805.935 299.614 806.011 299.415 806.041C299.215 806.072 299.012 806.057 298.819 805.997C298.626 805.937 298.45 805.835 298.303 805.697C298.156 805.558 298.042 805.389 297.97 805.2C297.858 805.042 297.784 804.861 297.752 804.67C297.721 804.479 297.734 804.284 297.79 804.098C297.846 803.913 297.944 803.743 298.075 803.601C298.207 803.46 298.369 803.35 298.55 803.28L309.47 796.43H312.17V851.59H306.32V808.74C306.32 807 305.92 805.81 305.13 805.16C304.34 804.51 303.09 804.56 301.35 805.28Z" fill="#595857"/>
<path d="M329.04 810.2C329.04 805.793 330.324 802.36 332.89 799.9C335.457 797.44 338.867 796.207 343.12 796.2C345.003 796.117 346.883 796.416 348.648 797.077C350.413 797.739 352.026 798.75 353.39 800.05C355.984 802.61 357.277 806.097 357.27 810.51C357.27 814.61 355.99 817.85 353.43 820.2C352.421 821.167 351.25 821.949 349.97 822.51C351.587 823.252 353.047 824.298 354.27 825.59C355.648 827.047 356.724 828.762 357.438 830.636C358.152 832.51 358.489 834.506 358.43 836.51C358.43 841.59 357.007 845.477 354.16 848.17C351.081 850.762 347.185 852.184 343.16 852.184C339.135 852.184 335.239 850.762 332.16 848.17C329.34 845.503 327.93 841.617 327.93 836.51C327.87 834.506 328.205 832.51 328.918 830.636C329.63 828.763 330.704 827.048 332.08 825.59C332.503 825.83 332.978 825.965 333.464 825.981C333.95 825.997 334.433 825.895 334.87 825.683C335.308 825.471 335.688 825.156 335.977 824.765C336.266 824.373 336.455 823.918 336.529 823.437C336.603 822.957 336.559 822.465 336.4 822.005C336.242 821.546 335.974 821.131 335.62 820.798C335.266 820.465 334.836 820.222 334.367 820.092C333.899 819.962 333.406 819.947 332.93 820.05C331.627 818.773 330.607 817.236 329.937 815.539C329.267 813.842 328.961 812.023 329.04 810.2V810.2ZM333.73 836.51C333.73 840.263 334.63 843.123 336.43 845.09C337.259 846.048 338.287 846.814 339.442 847.332C340.598 847.85 341.854 848.109 343.12 848.09C344.399 848.113 345.668 847.857 346.837 847.339C348.006 846.82 349.048 846.053 349.89 845.09C351.677 843.09 352.574 840.23 352.58 836.51C352.58 832.82 351.68 829.93 349.89 827.86C349.07 826.864 348.035 826.066 346.862 825.525C345.69 824.985 344.411 824.717 343.12 824.74C341.842 824.721 340.576 824.992 339.418 825.533C338.259 826.073 337.238 826.869 336.43 827.86C334.63 829.93 333.73 832.82 333.73 836.51ZM334.81 810.2C334.81 813.487 335.607 816.04 337.2 817.86C337.92 818.729 338.825 819.425 339.85 819.898C340.875 820.37 341.992 820.607 343.12 820.59C344.247 820.616 345.366 820.4 346.402 819.955C347.437 819.509 348.364 818.846 349.12 818.01C350.74 816.29 351.54 813.79 351.54 810.51C351.54 807.23 350.74 804.78 349.12 803.01C348.375 802.156 347.452 801.476 346.415 801.018C345.378 800.56 344.253 800.335 343.12 800.36C342.013 800.334 340.912 800.544 339.892 800.975C338.871 801.406 337.954 802.048 337.2 802.86C335.614 804.52 334.817 806.967 334.81 810.2Z" fill="#595857"/>
<path d="M293.04 979.87C293.76 979 294.71 977.97 295.89 976.79C300.226 971.873 304.175 966.627 307.7 961.1C312.44 953.967 314.81 947.967 314.81 943.1C314.81 939.713 314.04 937.083 312.5 935.21C310.96 933.337 308.703 932.4 305.73 932.4C303.671 932.388 301.688 933.177 300.2 934.6C298.536 936.212 297.545 938.396 297.43 940.71H292.81C293.17 936.61 294.633 933.47 297.2 931.29C299.646 929.153 302.792 927.989 306.04 928.02C310.66 928.02 314.263 929.417 316.85 932.21C319.437 935.003 320.73 938.76 320.73 943.48C320.73 947.74 318.873 952.983 315.16 959.21C310.959 966.098 306.158 972.6 300.81 978.64H311.35C313.143 978.717 314.933 978.442 316.62 977.83C317.88 977.29 318.79 975.687 319.35 973.02C319.45 972.25 319.93 971.93 320.77 972.02C321.61 972.11 322.04 972.47 322.04 973.02L321.27 983.1H293.04V979.87Z" fill="#595857"/>
<path d="M335.66 952.87C337.135 951.632 338.912 950.808 340.81 950.48C342.361 950.238 343.933 950.161 345.5 950.25C348.869 950.473 352.017 952.006 354.27 954.52C356.79 957.187 358.047 960.917 358.04 965.71C358.04 970.997 356.463 975.28 353.31 978.56C350.157 981.84 345.963 983.584 340.73 983.79C338.486 983.889 336.242 983.629 334.08 983.02C332.17 982.551 330.358 981.745 328.73 980.64V976.45C331.036 977.761 333.549 978.671 336.16 979.14C338.136 979.55 340.173 979.577 342.16 979.22C345.119 978.602 347.762 976.954 349.62 974.57C351.567 971.853 352.542 968.559 352.39 965.22C352.39 961.887 351.58 959.297 349.96 957.45C349.177 956.547 348.216 955.814 347.137 955.298C346.058 954.781 344.885 954.493 343.69 954.45C342.101 954.335 340.507 954.599 339.04 955.22C337.506 955.94 336.191 957.055 335.23 958.45H329.85L331.23 928.99H354.7V933.45H336.31L335.66 952.87Z" fill="#595857"/>
<path d="M466.16 556.96C467.642 555.729 469.421 554.908 471.32 554.58C472.87 554.332 474.443 554.255 476.01 554.35C479.379 554.571 482.528 556.104 484.78 558.62C487.286 561.287 488.543 565.017 488.55 569.81C488.55 575.09 486.973 579.373 483.82 582.66C480.666 585.947 476.473 587.69 471.24 587.89C468.996 587.984 466.752 587.724 464.59 587.12C462.678 586.65 460.866 585.84 459.24 584.73V580.58C461.545 581.887 464.053 582.796 466.66 583.27C468.637 583.675 470.673 583.702 472.66 583.35C475.623 582.737 478.269 581.085 480.12 578.69C482.071 575.979 483.047 572.687 482.89 569.35C482.89 566.01 482.09 563.43 480.47 561.58C479.69 560.673 478.73 559.938 477.65 559.421C476.571 558.905 475.396 558.618 474.2 558.58C472.61 558.46 471.016 558.724 469.55 559.35C468.014 560.067 466.698 561.182 465.74 562.58H460.36L461.74 533.12H485.23V537.58H466.85L466.16 556.96Z" fill="#595857"/>
<path d="M449.59 673.32L448.21 673.86C448.045 673.977 447.855 674.054 447.655 674.086C447.455 674.118 447.251 674.103 447.057 674.043C446.864 673.983 446.687 673.88 446.54 673.74C446.393 673.601 446.28 673.43 446.21 673.24C446.098 673.083 446.023 672.902 445.991 672.712C445.96 672.521 445.972 672.326 446.027 672.141C446.082 671.956 446.178 671.786 446.309 671.644C446.439 671.501 446.601 671.391 446.78 671.32L457.71 664.47H460.4V719.63H454.55V676.78C454.55 675.04 454.15 673.84 453.36 673.2C452.57 672.56 451.33 672.6 449.59 673.32Z" fill="#595857"/>
<path d="M476.75 715.93C477.46 715.06 478.41 714.04 479.59 712.86C483.927 707.94 487.875 702.691 491.4 697.16C496.14 690.04 498.513 684.04 498.52 679.16C498.52 675.78 497.75 673.154 496.21 671.28C495.373 670.323 494.327 669.572 493.153 669.084C491.979 668.597 490.708 668.387 489.44 668.47C487.379 668.452 485.392 669.238 483.9 670.66C482.239 672.279 481.25 674.464 481.13 676.78H476.52C476.867 672.68 478.327 669.54 480.9 667.36C483.349 665.221 486.499 664.057 489.75 664.09C494.363 664.09 497.963 665.487 500.55 668.28C503.137 671.074 504.433 674.83 504.44 679.55C504.44 683.81 502.58 689.054 498.86 695.28C494.662 702.164 489.863 708.662 484.52 714.7H495.05C496.842 714.775 498.631 714.504 500.32 713.9C501.58 713.36 502.49 711.757 503.05 709.09C503.16 708.32 503.63 708 504.48 708.09C505.33 708.18 505.75 708.54 505.75 709.09L504.98 719.17H476.75V715.93Z" fill="#595857"/>
<path d="M449.59 805.28L448.21 805.82C448.045 805.937 447.855 806.014 447.655 806.046C447.455 806.078 447.251 806.063 447.057 806.003C446.864 805.943 446.687 805.84 446.54 805.7C446.393 805.561 446.28 805.39 446.21 805.2C446.098 805.043 446.023 804.862 445.991 804.672C445.96 804.481 445.972 804.286 446.027 804.101C446.082 803.916 446.178 803.746 446.309 803.604C446.439 803.461 446.601 803.351 446.78 803.28L457.71 796.43H460.4V851.59H454.55V808.74C454.55 807 454.15 805.81 453.36 805.16C452.57 804.51 451.33 804.56 449.59 805.28Z" fill="#595857"/>
<path d="M500.23 823.9C499.482 825.383 498.371 826.652 497 827.59C494.88 828.994 492.383 829.719 489.84 829.67C487.925 829.732 486.021 829.342 484.284 828.533C482.547 827.723 481.025 826.517 479.84 825.01C477.36 821.91 476.117 817.91 476.11 813.01C476.11 807.937 477.443 803.86 480.11 800.78C482.777 797.7 486.507 796.137 491.3 796.09C495.607 796.043 499.143 798.16 501.91 802.44C504.677 806.72 506.063 813.63 506.07 823.17C506.158 828.318 505.484 833.45 504.07 838.4C502.737 842.86 500.773 846.167 498.18 848.32C495.467 850.649 492.025 851.955 488.45 852.01C484.91 852.258 481.388 851.311 478.45 849.32V845.17C480.06 846.172 481.85 846.852 483.72 847.17C484.983 847.348 486.255 847.448 487.53 847.47C491.17 847.47 494.22 845.66 496.68 842.01C498.98 838.504 500.163 832.467 500.23 823.9ZM500.07 816.9C499.71 811.774 498.89 807.977 497.61 805.51C495.82 802.08 493.61 800.28 491 800.13C489.689 800.031 488.376 800.303 487.213 800.915C486.049 801.526 485.081 802.454 484.42 803.59C482.725 806.333 481.883 809.518 482 812.74C482 817.2 482.87 820.43 484.61 822.43C485.29 823.326 486.16 824.06 487.158 824.579C488.156 825.097 489.256 825.388 490.38 825.43C492.685 825.349 494.878 824.42 496.54 822.82C498.363 821.315 499.604 819.222 500.05 816.9H500.07Z" fill="#595857"/>
<path d="M441.28 979.87C442 979 442.95 977.97 444.13 976.79C448.466 971.873 452.415 966.627 455.94 961.1C460.68 953.967 463.05 947.967 463.05 943.1C463.05 939.713 462.284 937.083 460.75 935.21C459.914 934.253 458.868 933.501 457.694 933.014C456.519 932.527 455.249 932.317 453.98 932.4C451.918 932.386 449.931 933.175 448.44 934.6C446.776 936.212 445.786 938.396 445.67 940.71H441.05C441.41 936.61 442.874 933.47 445.44 931.29C447.886 929.153 451.032 927.989 454.28 928.02C458.9 928.02 462.504 929.417 465.09 932.21C467.677 935.003 468.974 938.76 468.98 943.48C468.98 947.74 467.12 952.983 463.4 959.21C459.2 966.098 454.398 972.6 449.05 978.64H459.59C461.383 978.717 463.173 978.442 464.86 977.83C466.12 977.29 467.03 975.687 467.59 973.02C467.69 972.25 468.17 971.93 469.02 972.02C469.87 972.11 470.28 972.47 470.28 973.02L469.52 983.1H441.28V979.87Z" fill="#595857"/>
<path d="M482.44 956.64C483.179 955.282 484.202 954.098 485.44 953.17C487.645 951.36 490.428 950.405 493.28 950.481C495.213 950.414 497.136 950.801 498.893 951.61C500.65 952.419 502.193 953.628 503.4 955.14C505.94 958.24 507.21 962.24 507.21 967.14C507.21 972.22 505.823 976.3 503.05 979.38C500.277 982.46 496.353 984.024 491.28 984.071C489.151 984.165 487.034 983.713 485.129 982.757C483.225 981.801 481.596 980.374 480.4 978.61C477.733 974.91 476.4 968.6 476.4 959.68C476.4 952.347 477.067 946.554 478.4 942.301C479.416 938.64 481.272 935.267 483.82 932.451C485.122 931.114 486.676 930.048 488.393 929.315C490.109 928.582 491.954 928.197 493.82 928.18C497.446 927.881 501.066 928.819 504.09 930.84V934.91C502.462 933.96 500.698 933.262 498.86 932.84C497.621 932.564 496.359 932.407 495.09 932.37C491.597 932.37 488.597 934.347 486.09 938.301C483.857 941.907 482.64 948.02 482.44 956.64ZM482.44 964.33C482.753 969.87 483.6 973.741 484.98 975.941C486.77 978.761 488.98 980.18 491.67 980.18C493.015 980.222 494.352 979.943 495.568 979.368C496.785 978.792 497.848 977.936 498.67 976.87C500.443 974.657 501.327 971.527 501.32 967.481C501.32 963.021 500.487 959.777 498.82 957.751C498.17 956.852 497.323 956.114 496.344 955.594C495.364 955.073 494.278 954.785 493.17 954.751C491.808 954.772 490.468 955.093 489.244 955.691C488.02 956.289 486.944 957.149 486.09 958.211C484.498 960.002 483.26 962.078 482.44 964.33V964.33Z" fill="#595857"/>
<path d="M612.73 560.73C613.472 559.376 614.495 558.196 615.73 557.27C617.939 555.46 620.725 554.505 623.58 554.58C625.512 554.515 627.433 554.902 629.189 555.709C630.946 556.516 632.49 557.722 633.7 559.23C636.233 562.337 637.5 566.337 637.5 571.23C637.5 576.31 636.117 580.387 633.35 583.46C630.583 586.533 626.66 588.097 621.58 588.15C619.449 588.249 617.329 587.799 615.422 586.843C613.515 585.887 611.885 584.457 610.69 582.69C608.023 578.997 606.69 572.69 606.69 563.77C606.69 556.437 607.357 550.64 608.69 546.38C609.715 542.724 611.574 539.356 614.12 536.54C615.421 535.201 616.975 534.134 618.691 533.401C620.408 532.668 622.253 532.284 624.12 532.27C627.744 531.97 631.363 532.903 634.39 534.92V539C632.761 538.048 630.998 537.347 629.16 536.92C627.92 536.652 626.658 536.498 625.39 536.46C621.903 536.46 618.903 538.433 616.39 542.38C614.157 546 612.937 552.117 612.73 560.73ZM612.73 568.43C613.04 573.96 613.89 577.84 615.27 580.04C617.07 582.86 619.3 584.27 621.96 584.27C623.306 584.313 624.642 584.035 625.859 583.459C627.076 582.884 628.139 582.027 628.96 580.96C630.727 578.76 631.61 575.633 631.61 571.58C631.61 567.12 630.777 563.876 629.11 561.85C628.461 560.95 627.615 560.211 626.635 559.691C625.655 559.171 624.569 558.883 623.46 558.85C622.098 558.869 620.757 559.189 619.533 559.787C618.309 560.385 617.232 561.247 616.38 562.31C614.786 564.108 613.548 566.191 612.73 568.45V568.43Z" fill="#595857"/>
<path d="M597.62 673.32L596.24 673.86C596.075 673.977 595.885 674.054 595.685 674.086C595.485 674.118 595.281 674.103 595.087 674.043C594.894 673.983 594.717 673.88 594.57 673.74C594.423 673.601 594.31 673.43 594.24 673.24C594.128 673.083 594.053 672.902 594.021 672.712C593.99 672.521 594.001 672.326 594.056 672.141C594.111 671.956 594.208 671.786 594.338 671.644C594.469 671.501 594.63 671.391 594.81 671.32L605.74 664.47H608.43V719.63H602.58V676.78C602.58 675.04 602.19 673.84 601.39 673.2C600.59 672.56 599.37 672.6 597.62 673.32Z" fill="#595857"/>
<path d="M644.85 690.78C647.661 691.926 650.025 693.95 651.59 696.55C653.077 699.111 653.773 702.055 653.59 705.01C653.468 709.074 651.755 712.927 648.82 715.74C645.84 718.64 641.507 720.117 635.82 720.17C633.817 720.157 631.824 719.884 629.89 719.36C627.987 718.889 626.189 718.065 624.59 716.93V712.24C626.283 713.501 628.222 714.394 630.28 714.86C632.02 715.281 633.801 715.513 635.59 715.55C638.715 715.691 641.772 714.616 644.12 712.55C646.333 710.55 647.437 707.614 647.43 703.74C647.43 700.97 647.03 698.99 646.24 697.74C645.477 696.591 644.527 695.577 643.43 694.74C642.345 694.008 641.113 693.524 639.82 693.32C638.775 693.156 637.719 693.066 636.66 693.05C635.38 693.05 634.77 692.36 634.82 690.97C634.797 690.679 634.84 690.385 634.947 690.113C635.053 689.84 635.22 689.595 635.434 689.396C635.649 689.197 635.906 689.049 636.186 688.963C636.465 688.877 636.761 688.856 637.05 688.9C637.51 688.9 638.05 688.9 638.7 688.9C639.383 688.855 640.057 688.714 640.7 688.48C642.496 687.928 644.053 686.786 645.12 685.24C646.455 683.241 647.152 680.884 647.12 678.48C647.233 675.194 646.364 672.73 644.51 671.09C642.617 669.439 640.171 668.561 637.66 668.63C635.738 668.587 633.862 669.212 632.35 670.4C630.85 671.618 629.841 673.337 629.51 675.24H625.05C625.408 672.144 626.949 669.307 629.35 667.32C631.872 665.284 635.04 664.219 638.28 664.32C640.222 664.244 642.159 664.558 643.977 665.245C645.794 665.932 647.455 666.978 648.86 668.32C650.191 669.594 651.244 671.129 651.951 672.829C652.658 674.53 653.005 676.359 652.97 678.2C653.063 681.129 652.23 684.012 650.59 686.44C649.226 688.498 647.202 690.029 644.85 690.78V690.78Z" fill="#595857"/>
<path d="M589.31 847.9C590.03 847.03 590.98 846 592.16 844.82C596.499 839.906 600.448 834.66 603.97 829.13C608.71 822.004 611.08 816.004 611.08 811.13C611.08 807.744 610.313 805.114 608.78 803.24C607.943 802.283 606.898 801.532 605.723 801.044C604.549 800.557 603.279 800.347 602.01 800.43C599.947 800.411 597.958 801.201 596.47 802.63C594.81 804.245 593.82 806.427 593.7 808.74H589.08C589.44 804.64 590.903 801.5 593.47 799.32C595.916 797.183 599.062 796.019 602.31 796.05C606.93 796.05 610.533 797.447 613.12 800.24C615.707 803.034 617.003 806.79 617.01 811.51C617.01 815.77 615.15 821.014 611.43 827.24C607.23 834.128 602.428 840.63 597.08 846.67H607.62C609.413 846.748 611.203 846.473 612.89 845.86C614.15 845.32 615.06 843.717 615.62 841.05C615.73 840.28 616.2 839.96 617.05 840.05C617.9 840.14 618.32 840.5 618.32 841.05L617.55 851.13H589.31V847.9Z" fill="#595857"/>
<path d="M624.01 824.2C624.01 815.127 625.393 808.193 628.16 803.4C630.927 798.607 634.67 796.207 639.39 796.2C644.157 796.2 647.927 798.6 650.7 803.4C653.474 808.2 654.857 815.134 654.85 824.2C654.85 833.234 653.467 840.144 650.7 844.93C647.934 849.717 644.163 852.117 639.39 852.13C634.67 852.13 630.927 849.73 628.16 844.93C625.393 840.13 624.01 833.22 624.01 824.2ZM630.08 824.2C630.08 832.36 630.98 838.36 632.78 842.2C634.58 846.04 636.783 847.95 639.39 847.93C642.057 847.93 644.287 846.02 646.08 842.2C647.874 838.38 648.774 832.38 648.78 824.2C648.78 816 647.88 810 646.08 806.2C644.29 802.39 642.08 800.47 639.39 800.47C636.7 800.47 634.57 802.39 632.78 806.2C630.99 810.01 630.08 816 630.08 824.2V824.2Z" fill="#595857"/>
<path d="M589.31 979.87C590.03 979 590.98 977.97 592.16 976.79C596.499 971.876 600.448 966.63 603.97 961.1C608.71 953.967 611.08 947.967 611.08 943.1C611.08 939.713 610.313 937.083 608.78 935.21C607.943 934.253 606.898 933.501 605.723 933.014C604.549 932.527 603.279 932.317 602.01 932.4C599.948 932.386 597.961 933.175 596.47 934.6C594.81 936.215 593.82 938.397 593.7 940.71H589.08C589.44 936.61 590.903 933.47 593.47 931.29C595.916 929.153 599.062 927.989 602.31 928.02C606.93 928.02 610.533 929.417 613.12 932.21C615.707 935.003 617.003 938.76 617.01 943.48C617.01 947.74 615.15 952.983 611.43 959.21C607.23 966.098 602.428 972.6 597.08 978.64H607.62C609.413 978.718 611.203 978.443 612.89 977.83C614.15 977.29 615.06 975.687 615.62 973.02C615.73 972.25 616.2 971.93 617.05 972.02C617.9 972.11 618.32 972.47 618.32 973.02L617.55 983.1H589.31V979.87Z" fill="#595857"/>
<path d="M647.93 933.64H632.55C631.385 933.63 630.258 934.054 629.39 934.83C628.47 935.617 627.83 937.167 627.47 939.48C627.31 940.48 626.8 940.96 625.93 940.98C625.06 941 624.62 940.51 624.62 939.48L624.85 929.4H654.39V932.45L637.39 983.61H631.62L647.93 933.64Z" fill="#595857"/>
<path d="M778.23 537.73H762.85C761.687 537.726 760.562 538.15 759.69 538.92C758.77 539.72 758.13 541.273 757.77 543.58C757.762 543.982 757.596 544.365 757.308 544.646C757.02 544.927 756.632 545.083 756.23 545.08C755.36 545.08 754.92 544.6 754.92 543.58L755.16 533.5H784.7V536.58L767.7 587.73H761.93L778.23 537.73Z" fill="#595857"/>
<path d="M745.65 673.32L744.26 673.86C744.095 673.977 743.905 674.054 743.705 674.086C743.505 674.118 743.3 674.103 743.107 674.043C742.914 673.983 742.737 673.88 742.59 673.74C742.443 673.601 742.33 673.43 742.26 673.24C742.148 673.082 742.074 672.901 742.042 672.71C742.011 672.519 742.024 672.323 742.08 672.138C742.136 671.953 742.234 671.783 742.365 671.641C742.497 671.5 742.659 671.39 742.84 671.32L753.76 664.47H756.45V719.63H750.61V676.78C750.61 675.04 750.21 673.84 749.41 673.2C748.61 672.56 747.39 672.6 745.65 673.32Z" fill="#595857"/>
<path d="M791.42 703.93H771.23V699.63L790.99 664.24H796.99V699.63H803.69V703.93H796.99V719.24H791.46L791.42 703.93ZM776.49 699.63H791.42V672.63L776.49 699.63Z" fill="#595857"/>
<path d="M737.34 847.9C738.06 847.03 739.01 846 740.19 844.82C744.526 839.903 748.475 834.658 752 829.13C756.74 822.004 759.11 816.004 759.11 811.13C759.11 807.744 758.34 805.114 756.8 803.24C755.26 801.367 753.003 800.43 750.03 800.43C747.97 800.414 745.985 801.203 744.5 802.63C742.836 804.242 741.845 806.426 741.73 808.74H737.11C737.47 804.64 738.933 801.5 741.5 799.32C743.946 797.183 747.092 796.019 750.34 796.05C754.96 796.05 758.563 797.447 761.15 800.24C763.737 803.034 765.03 806.79 765.03 811.51C765.03 815.77 763.173 821.014 759.46 827.24C755.26 834.128 750.457 840.63 745.11 846.67H755.65C757.443 846.747 759.233 846.472 760.92 845.86C762.18 845.32 763.09 843.717 763.65 841.05C763.75 840.28 764.23 839.96 765.07 840.05C765.91 840.14 766.34 840.5 766.34 841.05L765.57 851.13H737.34V847.9Z" fill="#595857"/>
<path d="M781.11 805.28L779.73 805.82C779.565 805.937 779.374 806.014 779.175 806.046C778.975 806.078 778.77 806.063 778.577 806.003C778.384 805.943 778.207 805.84 778.06 805.7C777.913 805.561 777.8 805.39 777.73 805.2C777.618 805.043 777.543 804.862 777.511 804.672C777.479 804.481 777.491 804.286 777.546 804.101C777.601 803.916 777.698 803.746 777.828 803.604C777.959 803.461 778.12 803.351 778.3 803.28L789.23 796.45H791.92V851.61H786.07V808.76C786.07 807.02 785.67 805.83 784.88 805.18C784.09 804.53 782.86 804.56 781.11 805.28Z" fill="#595857"/>
<path d="M737.34 979.87C738.06 979 739.01 977.97 740.19 976.79C744.526 971.873 748.475 966.627 752 961.1C756.74 953.967 759.11 947.967 759.11 943.1C759.11 939.713 758.34 937.083 756.8 935.21C755.26 933.337 753.003 932.4 750.03 932.4C747.971 932.388 745.988 933.177 744.5 934.6C742.836 936.212 741.845 938.396 741.73 940.71H737.11C737.47 936.61 738.933 933.47 741.5 931.29C743.946 929.153 747.092 927.989 750.34 928.02C754.96 928.02 758.563 929.417 761.15 932.21C763.737 935.003 765.03 938.76 765.03 943.48C765.03 947.74 763.173 952.983 759.46 959.21C755.26 966.098 750.457 972.6 745.11 978.64H755.65C757.443 978.717 759.233 978.442 760.92 977.83C762.18 977.29 763.09 975.687 763.65 973.02C763.75 972.25 764.23 971.93 765.07 972.02C765.91 972.11 766.34 972.47 766.34 973.02L765.57 983.1H737.34V979.87Z" fill="#595857"/>
<path d="M773.34 942.17C773.34 937.764 774.623 934.33 777.19 931.87C779.757 929.41 783.167 928.177 787.42 928.17C789.303 928.088 791.183 928.386 792.948 929.048C794.713 929.709 796.325 930.72 797.69 932.02C800.283 934.58 801.577 938.067 801.57 942.48C801.57 946.587 800.29 949.817 797.73 952.17C796.707 953.13 795.522 953.902 794.23 954.45C795.847 955.192 797.307 956.238 798.53 957.53C799.907 958.988 800.984 960.702 801.698 962.576C802.411 964.45 802.749 966.446 802.69 968.45C802.69 973.53 801.267 977.417 798.42 980.11C795.348 982.717 791.449 984.149 787.42 984.149C783.391 984.149 779.492 982.717 776.42 980.11C773.6 977.41 772.19 973.524 772.19 968.45C772.13 966.447 772.465 964.451 773.177 962.577C773.889 960.703 774.964 958.988 776.34 957.53C776.763 957.771 777.238 957.905 777.724 957.921C778.21 957.937 778.692 957.835 779.13 957.623C779.568 957.411 779.947 957.096 780.236 956.705C780.525 956.314 780.715 955.858 780.789 955.377C780.862 954.897 780.818 954.405 780.66 953.946C780.502 953.486 780.234 953.071 779.88 952.738C779.526 952.405 779.096 952.163 778.627 952.032C778.159 951.902 777.665 951.888 777.19 951.99C775.898 950.713 774.888 949.18 774.224 947.488C773.561 945.797 773.26 943.985 773.34 942.17V942.17ZM778.03 968.48C778.03 972.234 778.93 975.094 780.73 977.06C781.558 978.019 782.586 978.784 783.742 979.302C784.898 979.821 786.153 980.079 787.42 980.06C788.699 980.084 789.967 979.827 791.137 979.309C792.306 978.791 793.348 978.023 794.19 977.06C795.977 975.06 796.873 972.2 796.88 968.48C796.887 964.76 795.99 961.877 794.19 959.83C793.369 958.834 792.334 958.036 791.162 957.496C789.99 956.955 788.711 956.687 787.42 956.71C786.142 956.692 784.876 956.963 783.717 957.503C782.559 958.044 781.537 958.839 780.73 959.83C778.93 961.91 778.03 964.784 778.03 968.45V968.48ZM779.11 942.17C779.11 945.464 779.907 948.017 781.5 949.83C782.22 950.699 783.125 951.396 784.15 951.868C785.174 952.341 786.292 952.577 787.42 952.56C788.547 952.587 789.666 952.37 790.702 951.925C791.737 951.48 792.664 950.816 793.42 949.98C795.04 948.26 795.84 945.76 795.84 942.48C795.84 939.2 795.04 936.75 793.42 934.98C792.675 934.126 791.751 933.446 790.715 932.988C789.678 932.53 788.553 932.306 787.42 932.33C786.313 932.304 785.212 932.514 784.192 932.945C783.171 933.376 782.254 934.018 781.5 934.83C779.913 936.49 779.117 938.937 779.11 942.17Z" fill="#595857"/>
<path d="M17.9297 583.96C18.6497 583.09 19.5998 582.07 20.7798 580.89C25.1098 575.965 29.058 570.716 32.5898 565.19C37.3298 558.07 39.6997 552.07 39.6997 547.19C39.6997 543.81 38.9296 541.184 37.3896 539.31C36.5536 538.353 35.5078 537.6 34.3335 537.113C33.1592 536.626 31.8882 536.416 30.6196 536.5C28.5614 536.482 26.5775 537.268 25.0898 538.69C23.4215 540.303 22.4308 542.492 22.3198 544.81H17.6997C18.0597 540.71 19.5198 537.57 22.0798 535.39C24.5306 533.254 27.679 532.091 30.9297 532.12C35.5497 532.12 39.1531 533.517 41.7397 536.31C44.3264 539.104 45.6196 542.86 45.6196 547.58C45.6196 551.84 43.7631 557.084 40.0498 563.31C35.8517 570.196 31.0494 576.695 25.6997 582.73H36.2297C38.0214 582.804 39.8105 582.532 41.4998 581.93C42.7498 581.39 43.6597 579.78 44.2297 577.12C44.3297 576.35 44.8097 576.03 45.6497 576.12C46.4897 576.21 46.9197 576.57 46.9197 577.12L46.1497 587.19H17.9297V583.96Z" fill="#D17F86"/>
<path d="M41.3896 691.93C40.6482 693.42 39.5359 694.694 38.1597 695.63C36.0421 697.031 33.5481 697.753 31.0098 697.7C29.0949 697.765 27.1917 697.377 25.4543 696.57C23.717 695.762 22.1944 694.556 21.0098 693.05C18.5231 689.95 17.2798 685.95 17.2798 681.05C17.2798 675.97 18.6131 671.894 21.2798 668.82C23.9465 665.747 27.6764 664.183 32.4697 664.13C36.7831 664.083 40.3232 666.197 43.0898 670.47C45.8565 674.744 47.2397 681.654 47.2397 691.2C47.3273 696.351 46.6533 701.486 45.2397 706.44C43.9064 710.9 41.9463 714.207 39.3596 716.36C36.6462 718.688 33.2042 719.993 29.6296 720.05C26.0892 720.298 22.5681 719.35 19.6296 717.36V713.21C21.2413 714.21 23.0307 714.889 24.8997 715.21C26.159 715.387 27.4281 715.488 28.6997 715.51C32.3397 715.51 35.393 713.69 37.8596 710.05C40.1663 706.537 41.343 700.497 41.3896 691.93ZM41.2397 684.93C40.8797 679.81 40.0598 676.017 38.7798 673.55C36.9798 670.11 34.773 668.314 32.1597 668.16C30.8493 668.064 29.5383 668.338 28.3765 668.952C27.2146 669.565 26.2489 670.493 25.5898 671.63C23.8919 674.372 23.046 677.557 23.1597 680.78C23.1597 685.24 24.0331 688.47 25.7798 690.47C26.4587 691.367 27.3287 692.101 28.3267 692.62C29.3247 693.139 30.4257 693.43 31.5498 693.47C33.8515 693.388 36.0416 692.459 37.6997 690.86C39.5316 689.355 40.7802 687.258 41.2297 684.93H41.2397Z" fill="#D17F86"/>
<path d="M8.51029 805.28L7.13016 805.82C6.96489 805.937 6.77513 806.014 6.57523 806.046C6.37534 806.078 6.17065 806.063 5.97733 806.003C5.78401 805.943 5.60714 805.84 5.46024 805.7C5.31334 805.561 5.20037 805.39 5.13016 805.2C5.01799 805.043 4.94325 804.862 4.91141 804.672C4.87958 804.481 4.89161 804.286 4.94657 804.101C5.00153 803.916 5.09795 803.746 5.22855 803.604C5.35916 803.461 5.52046 803.351 5.70023 803.28L16.6302 796.43H19.3203V851.59H13.4703V808.74C13.4703 807 13.0703 805.81 12.2803 805.16C11.4903 804.51 10.2303 804.56 8.51029 805.28Z" fill="#D17F86"/>
<path d="M41.3596 824.67C42.0986 823.311 43.1218 822.128 44.3596 821.2C46.5674 819.388 49.3546 818.433 52.2097 818.51C54.1415 818.445 56.0618 818.833 57.8171 819.642C59.5725 820.451 61.1144 821.659 62.3198 823.17C64.8598 826.27 66.1296 830.27 66.1296 835.17C66.1296 840.25 64.7464 844.327 61.9797 847.4C59.2131 850.474 55.2897 852.04 50.2097 852.1C48.0794 852.195 45.9602 851.744 44.054 850.788C42.1477 849.832 40.5179 848.404 39.3198 846.64C36.6532 842.94 35.3198 836.63 35.3198 827.71C35.3198 820.377 35.9865 814.583 37.3198 810.33C38.3396 806.671 40.1949 803.3 42.7397 800.48C44.0427 799.144 45.597 798.079 47.3132 797.346C49.0295 796.613 50.8737 796.227 52.7397 796.21C56.3653 795.911 59.9853 796.849 63.0098 798.87V802.94C61.3813 801.989 59.6179 801.291 57.7798 800.87C56.5409 800.594 55.2785 800.437 54.0098 800.4C50.5164 800.4 47.5164 802.377 45.0098 806.33C42.7764 809.943 41.5596 816.057 41.3596 824.67ZM41.3596 832.36C41.673 837.9 42.5197 841.77 43.8997 843.97C45.6863 846.79 47.9165 848.2 50.5898 848.2C51.9345 848.243 53.2701 847.967 54.4871 847.393C55.704 846.819 56.7675 845.965 57.5898 844.9C59.3632 842.687 60.2498 839.557 60.2498 835.51C60.2498 831.05 59.4164 827.807 57.7498 825.78C57.0976 824.882 56.2483 824.144 55.2673 823.624C54.2863 823.104 53.1996 822.816 52.0898 822.78C50.728 822.802 49.3875 823.123 48.1638 823.721C46.9401 824.319 45.8632 825.179 45.0098 826.24C43.4213 828.034 42.1831 830.11 41.3596 832.36V832.36Z" fill="#D17F86"/>
<path d="M0.22998 979.87C0.94998 979 1.90008 977.97 3.08008 976.79C7.41618 971.873 11.3645 966.627 14.8899 961.1C19.6299 953.967 22 947.967 22 943.1C22 939.713 21.2333 937.083 19.7 935.21C18.8634 934.253 17.8174 933.501 16.6433 933.014C15.4692 932.527 14.1984 932.317 12.9299 932.4C10.8676 932.386 8.88076 933.175 7.38989 934.6C5.72962 936.215 4.74029 938.397 4.61987 940.71H0C0.36 936.61 1.82323 933.47 4.38989 931.29C6.83568 929.153 9.98196 927.989 13.23 928.02C17.85 928.02 21.4534 929.417 24.04 932.21C26.6267 935.003 27.9233 938.76 27.9299 943.48C27.9299 947.74 26.0701 952.983 22.3501 959.21C18.1497 966.098 13.3475 972.6 8 978.64H18.54C20.3328 978.717 22.1232 978.442 23.8101 977.83C25.0701 977.29 25.98 975.687 26.54 973.02C26.64 972.25 27.12 971.93 27.97 972.02C28.82 972.11 29.24 972.47 29.24 973.02L28.47 983.1H0.22998V979.87Z" fill="#D17F86"/>
<path d="M55.74 954.711C58.5479 955.86 60.9111 957.883 62.48 960.481C63.9632 963.043 64.6588 965.985 64.48 968.94C64.3577 973.004 62.6448 976.857 59.71 979.67C56.73 982.57 52.3966 984.047 46.71 984.1C44.7067 984.087 42.7136 983.815 40.78 983.291C38.879 982.818 37.0819 981.998 35.48 980.87V976.17C37.1711 977.435 39.11 978.327 41.1699 978.791C42.9098 979.212 44.6903 979.443 46.48 979.481C49.6043 979.621 52.6617 978.546 55.01 976.481C57.2233 974.481 58.3267 971.547 58.3201 967.68C58.3201 964.907 57.9232 962.907 57.1299 961.68C56.3672 960.531 55.4176 959.517 54.3201 958.68C53.2351 957.947 52.003 957.459 50.71 957.251C49.6643 957.086 48.6084 956.996 47.55 956.981C46.27 956.981 45.65 956.29 45.71 954.91C45.6964 954.621 45.7461 954.332 45.8555 954.063C45.9649 953.794 46.1313 953.552 46.3435 953.354C46.5557 953.156 46.8086 953.007 47.0842 952.917C47.3599 952.826 47.6518 952.797 47.9399 952.83C48.3999 952.83 48.9401 952.83 49.5901 952.83C50.2745 952.795 50.9491 952.653 51.5901 952.41C53.3849 951.862 54.9421 950.724 56.01 949.18C57.3449 947.178 58.0422 944.817 58.01 942.41C58.12 939.13 57.2499 936.661 55.3999 935.021C53.5066 933.369 51.0613 932.491 48.55 932.561C46.6284 932.517 44.7513 933.143 43.24 934.33C41.7379 935.55 40.7288 937.274 40.3999 939.18H35.9399C36.2975 936.082 37.8381 933.241 40.24 931.251C42.7607 929.212 45.9299 928.148 49.1699 928.251C51.1115 928.174 53.0489 928.488 54.8665 929.176C56.684 929.863 58.3448 930.908 59.75 932.251C61.0817 933.525 62.1346 935.062 62.842 936.764C63.5495 938.467 63.8959 940.297 63.8599 942.14C63.946 945.065 63.1138 947.943 61.48 950.37C60.122 952.434 58.0951 953.966 55.74 954.711V954.711Z" fill="#D17F86"/>
<path d="M20.2803 1086.67C23.0875 1087.82 25.4484 1089.84 27.0103 1092.44C28.4993 1095 29.1953 1097.95 29.0103 1100.91C28.8933 1104.97 27.1795 1108.83 24.2402 1111.64C21.2736 1114.53 16.9402 1116 11.2402 1116.06C9.24028 1116.05 7.25062 1115.77 5.32031 1115.25C3.41541 1114.78 1.61464 1113.96 0.0102539 1112.83V1108.14C1.70735 1109.4 3.64892 1110.29 5.71021 1110.75C7.44681 1111.17 9.22387 1111.4 11.0103 1111.44C14.1372 1111.58 17.1968 1110.5 19.5503 1108.44C21.757 1106.44 22.8601 1103.5 22.8601 1099.63C22.8601 1096.86 22.4635 1094.86 21.6702 1093.63C20.9095 1092.48 19.9593 1091.46 18.8601 1090.63C17.7722 1089.9 16.5368 1089.41 15.2402 1089.2C14.1972 1089.04 13.145 1088.96 12.0903 1088.94C10.8103 1088.94 10.1902 1088.24 10.2402 1086.86C10.2264 1086.57 10.2762 1086.28 10.3862 1086.01C10.4962 1085.74 10.6639 1085.5 10.8772 1085.3C11.0905 1085.1 11.3444 1084.95 11.6213 1084.86C11.8982 1084.77 12.1913 1084.74 12.4802 1084.78C12.9402 1084.78 13.4801 1084.78 14.1301 1084.78C14.8145 1084.74 15.4892 1084.6 16.1301 1084.36C17.9249 1083.81 19.4824 1082.67 20.5503 1081.13C21.8852 1079.13 22.5825 1076.77 22.5503 1074.36C22.6503 1071.08 21.7802 1068.62 19.9402 1066.98C18.053 1065.32 15.6044 1064.43 13.0903 1064.51C11.1687 1064.47 9.29155 1065.09 7.78027 1066.28C6.27819 1067.5 5.26912 1069.22 4.94019 1071.13H0.480225C0.838273 1068.03 2.37898 1065.2 4.78027 1063.21C7.30102 1061.17 10.4701 1060.11 13.7102 1060.21C15.6504 1060.13 17.5861 1060.45 19.4021 1061.13C21.2181 1061.82 22.8772 1062.87 24.2803 1064.21C25.6143 1065.48 26.6692 1067.02 27.3784 1068.72C28.0876 1070.43 28.4355 1072.26 28.4001 1074.1C28.4881 1077.03 27.652 1079.91 26.0103 1082.33C24.6566 1084.39 22.6328 1085.93 20.2803 1086.67V1086.67Z" fill="#D17F86"/>
<path d="M34.8999 1088.14C34.8999 1079.06 36.2834 1072.12 39.05 1067.33C41.8167 1062.54 45.56 1060.14 50.28 1060.14C55.0467 1060.14 58.8168 1062.54 61.5901 1067.33C64.3634 1072.12 65.7467 1079.06 65.74 1088.14C65.74 1097.16 64.3568 1104.07 61.5901 1108.87C58.8234 1113.67 55.0534 1116.07 50.28 1116.06C45.56 1116.06 41.8167 1113.66 39.05 1108.87C36.2834 1104.08 34.8999 1097.17 34.8999 1088.14ZM40.97 1088.14C40.97 1096.29 41.8699 1102.29 43.6699 1106.14C45.4699 1109.99 47.6734 1111.9 50.28 1111.87C52.9467 1111.87 55.1766 1109.96 56.97 1106.14C58.7633 1102.32 59.6633 1096.32 59.6699 1088.14C59.6699 1079.93 58.77 1073.93 56.97 1070.14C55.17 1066.35 52.94 1064.44 50.28 1064.41C47.6734 1064.41 45.4699 1066.32 43.6699 1070.14C41.8699 1073.96 40.97 1079.96 40.97 1088.14V1088.14Z" fill="#D17F86"/>
<path d="M183.74 558.81C186.549 559.954 188.911 561.979 190.47 564.58C191.957 567.141 192.653 570.085 192.47 573.04C192.355 577.106 190.641 580.961 187.7 583.77C184.734 586.67 180.4 588.144 174.7 588.19C172.701 588.179 170.711 587.91 168.78 587.39C166.875 586.917 165.074 586.093 163.47 584.96V580.27C165.167 581.531 167.108 582.424 169.17 582.89C170.907 583.311 172.684 583.543 174.47 583.58C177.598 583.723 180.659 582.647 183.01 580.58C185.224 578.58 186.327 575.644 186.32 571.77C186.32 569 185.92 567.02 185.13 565.77C184.367 564.621 183.417 563.607 182.32 562.77C181.233 562.036 179.997 561.551 178.7 561.35C177.658 561.186 176.605 561.095 175.55 561.08C174.27 561.08 173.65 560.39 173.7 559C173.688 558.711 173.739 558.423 173.849 558.156C173.959 557.888 174.126 557.648 174.338 557.451C174.55 557.254 174.802 557.106 175.077 557.016C175.352 556.926 175.643 556.897 175.93 556.93C176.4 556.93 176.93 556.93 177.59 556.93C178.274 556.886 178.948 556.741 179.59 556.5C181.386 555.953 182.943 554.815 184.01 553.27C185.341 551.265 186.037 548.906 186.01 546.5C186.11 543.22 185.24 540.76 183.4 539.12C181.507 537.469 179.062 536.591 176.55 536.66C174.629 536.617 172.752 537.242 171.24 538.43C169.733 539.642 168.723 541.364 168.4 543.27H163.93C164.296 540.175 165.839 537.338 168.24 535.35C170.761 533.312 173.93 532.247 177.17 532.35C179.11 532.274 181.046 532.588 182.862 533.276C184.678 533.963 186.337 535.008 187.74 536.35C189.072 537.623 190.126 539.158 190.835 540.858C191.545 542.559 191.893 544.388 191.86 546.23C191.949 549.157 191.113 552.037 189.47 554.46C188.112 556.521 186.09 558.056 183.74 558.81V558.81Z" fill="#595857"/>
<path d="M154.23 673.32L152.84 673.86C152.675 673.977 152.485 674.054 152.285 674.086C152.085 674.118 151.881 674.103 151.687 674.043C151.494 673.983 151.317 673.88 151.17 673.74C151.023 673.601 150.91 673.43 150.84 673.24C150.728 673.082 150.654 672.901 150.623 672.71C150.591 672.519 150.604 672.323 150.66 672.138C150.716 671.953 150.814 671.783 150.945 671.641C151.077 671.5 151.239 671.39 151.42 671.32L162.34 664.47H165.03V719.63H159.23V676.78C159.23 675.04 158.83 673.84 158.03 673.2C157.23 672.56 155.99 672.6 154.23 673.32Z" fill="#595857"/>
<path d="M180.63 692.24C180.63 683.16 182.013 676.224 184.78 671.43C187.547 666.637 191.293 664.24 196.02 664.24C200.78 664.24 204.547 666.637 207.32 671.43C210.093 676.224 211.48 683.16 211.48 692.24C211.48 701.274 210.093 708.184 207.32 712.97C204.547 717.757 200.78 720.157 196.02 720.17C191.3 720.17 187.553 717.77 184.78 712.97C182.007 708.17 180.623 701.26 180.63 692.24ZM186.71 692.24C186.71 700.4 187.607 706.4 189.4 710.24C191.193 714.08 193.4 715.99 196.02 715.97C198.687 715.97 200.917 714.06 202.71 710.24C204.503 706.42 205.4 700.42 205.4 692.24C205.4 684.04 204.503 678.04 202.71 674.24C200.917 670.44 198.687 668.53 196.02 668.51C193.4 668.51 191.193 670.42 189.4 674.24C187.607 678.06 186.71 684.06 186.71 692.24Z" fill="#595857"/>
<path d="M154.23 805.28L152.84 805.82C152.675 805.937 152.485 806.014 152.285 806.046C152.085 806.078 151.881 806.063 151.687 806.003C151.494 805.943 151.317 805.84 151.17 805.7C151.023 805.561 150.91 805.39 150.84 805.2C150.728 805.042 150.654 804.861 150.623 804.67C150.591 804.479 150.604 804.284 150.66 804.098C150.716 803.913 150.814 803.743 150.945 803.601C151.077 803.46 151.239 803.35 151.42 803.28L162.34 796.43H165.03V851.59H159.23V808.74C159.23 807 158.83 805.81 158.03 805.16C157.23 804.51 155.99 804.56 154.23 805.28Z" fill="#595857"/>
<path d="M204.55 801.66H189.17C188.007 801.654 186.884 802.082 186.02 802.86C185.093 803.647 184.45 805.197 184.09 807.51C183.94 808.51 183.43 808.99 182.55 809.01C181.67 809.03 181.25 808.54 181.25 807.51L181.48 797.43H211.02V800.51L194.02 851.67H188.23L204.55 801.66Z" fill="#595857"/>
<path d="M145.94 979.87C146.66 979 147.6 977.97 148.78 976.79C153.119 971.876 157.068 966.63 160.59 961.1C165.33 953.967 167.703 947.967 167.71 943.1C167.71 939.713 166.94 937.083 165.4 935.21C164.563 934.253 163.517 933.501 162.343 933.014C161.169 932.527 159.898 932.317 158.63 932.4C156.569 932.392 154.584 933.18 153.09 934.6C151.43 936.215 150.44 938.397 150.32 940.71H145.71C146.06 936.61 147.53 933.47 150.09 931.29C152.54 929.153 155.689 927.989 158.94 928.02C163.547 928.02 167.15 929.417 169.75 932.21C172.35 935.003 173.643 938.76 173.63 943.48C173.63 947.74 171.77 952.983 168.05 959.21C163.85 966.095 159.051 972.597 153.71 978.64H164.23C166.023 978.716 167.813 978.441 169.5 977.83C170.753 977.29 171.663 975.687 172.23 973.02C172.33 972.25 172.8 971.93 173.65 972.02C174.5 972.11 174.92 972.47 174.92 973.02L174.15 983.1H145.92L145.94 979.87Z" fill="#595857"/>
<path d="M200.02 967.87H179.78V963.56L199.55 928.17H205.55V963.56H212.25V967.87H205.55V983.18H200.02V967.87ZM185.09 963.56H200.02V936.56L185.09 963.56Z" fill="#595857"/>
<path d="M166.02 1086.67C168.823 1087.82 171.183 1089.85 172.75 1092.44C174.235 1095.01 174.93 1097.95 174.75 1100.91C174.625 1104.97 172.912 1108.82 169.98 1111.64C167 1114.53 162.667 1116 156.98 1116.06C154.98 1116.05 152.99 1115.77 151.06 1115.25C149.154 1114.78 147.352 1113.96 145.75 1112.83V1108.14C147.444 1109.4 149.382 1110.29 151.44 1110.75C153.18 1111.17 154.96 1111.4 156.75 1111.44C159.877 1111.58 162.935 1110.5 165.29 1108.44C167.49 1106.44 168.59 1103.5 168.59 1099.63C168.59 1096.86 168.2 1094.87 167.4 1093.63C166.643 1092.48 165.692 1091.46 164.59 1090.63C163.505 1089.9 162.273 1089.41 160.98 1089.2C159.934 1089.04 158.878 1088.96 157.82 1088.94C156.54 1088.94 155.93 1088.24 155.98 1086.86C155.966 1086.57 156.016 1086.28 156.125 1086.01C156.235 1085.74 156.401 1085.5 156.614 1085.3C156.826 1085.11 157.078 1084.96 157.354 1084.87C157.63 1084.78 157.922 1084.75 158.21 1084.78C158.67 1084.78 159.21 1084.78 159.86 1084.78C160.544 1084.74 161.219 1084.6 161.86 1084.36C163.655 1083.81 165.212 1082.67 166.28 1081.13C167.61 1079.13 168.307 1076.77 168.28 1074.36C168.38 1071.08 167.507 1068.62 165.66 1066.98C163.773 1065.32 161.324 1064.43 158.81 1064.51C156.891 1064.47 155.017 1065.09 153.51 1066.28C152 1067.49 150.986 1069.22 150.66 1071.13H146.2C146.552 1068.03 148.098 1065.19 150.51 1063.21C153.027 1061.17 156.193 1060.11 159.43 1060.21C161.372 1060.13 163.309 1060.45 165.127 1061.13C166.944 1061.82 168.605 1062.87 170.01 1064.21C171.341 1065.49 172.393 1067.02 173.1 1068.73C173.808 1070.43 174.155 1072.26 174.12 1074.1C174.211 1077.03 173.378 1079.9 171.74 1082.33C170.386 1084.39 168.367 1085.92 166.02 1086.67Z" fill="#595857"/>
<path d="M189.71 1069.21L188.32 1069.75C188.155 1069.87 187.966 1069.94 187.767 1069.98C187.567 1070.01 187.363 1070 187.17 1069.94C186.977 1069.88 186.8 1069.78 186.652 1069.64C186.505 1069.5 186.391 1069.33 186.32 1069.14C186.208 1068.98 186.134 1068.8 186.103 1068.61C186.071 1068.42 186.084 1068.22 186.14 1068.03C186.196 1067.85 186.293 1067.68 186.425 1067.53C186.557 1067.39 186.719 1067.28 186.9 1067.21L197.82 1060.37H200.51V1115.52H194.67V1072.67C194.67 1070.93 194.27 1069.74 193.48 1069.1C192.69 1068.46 191.45 1068.5 189.71 1069.21Z" fill="#595857"/>
</svg>
