<svg id="erLQzVnxoCE1" xmlns="http://www.w3.org/2000/svg" xmlns:xlink="http://www.w3.org/1999/xlink"
  viewBox="0 0 985 1117" shape-rendering="geometricPrecision" text-rendering="geometricPrecision">
  <g>
    <g>
      <g>
        <path id="erLQzVnxoCE5"
          d="M968.3,806.2c0,12.9-6.8,27.6-20.4,44.1-6.9,8.3-13.9,15.8-21,22.3-3.7,3.4-7.4,6.8-11.1,10.1-3.8-3.4-7.6-6.8-11.4-10.1-7.2-6.7-14.2-14.2-21.1-22.7-13.4-16.5-20.1-31.2-20.1-44.1c0-6.7,2.2-12.9,6.7-18.4s10.3-8.6,17.5-9.4c1.1-.1,2.2-.1,3.3-.1c7.2,0,13.4,2.4,18.7,7.1c3.4,3,5.6,6,6.6,8.7c1.5-3.1,3.6-6,6.4-8.5c5-4.7,11.1-7.1,18.3-7.1c1,0,2,.1,3.1.3c7.1.6,13,3.8,17.7,9.6c4.6,5.4,6.8,11.4,6.8,18.2Z"
          fill="#f08f9f" />
      </g>
    </g>
    <g>
      <g>
        <path d="M439,0v120.3h22v4.8h-61.8v-4.8h21.8v-111.6h-21.8v-4.8h3.3c13.8,0,26-1.3,36.5-3.9Z" fill="#595857" />
        <path
          d="M517.3,127.9c-10.9,0-20.2-6.5-27.9-19.4s-11.6-27.3-11.6-43.1c0-16.9,3.9-32,11.8-45.4c7.9-13.3,17.3-20,28.3-20c10.6,0,19.9,6.7,27.6,20c7.8,13.4,11.7,28.1,11.7,44.2c0,15.7-3.9,30.2-11.8,43.6-7.8,13.4-17.2,20.1-28.1,20.1ZM537,78v-32.7c0-27.1-6.4-40.7-19.1-40.7-6.4,0-11.3,3.2-14.7,9.5s-5.1,17.4-5.1,33.1v36.9c0,26,6.6,38.9,19.7,38.9c6.3,0,11.1-3.4,14.4-10.1c3.1-6.6,4.8-18.3,4.8-34.9Z"
          fill="#595857" />
      </g>
    </g>
    <g>
      <g>
        <g>
          <path
            d="M15,274c0-2.8,1-5.1,3.1-7c2.1-1.8,4.5-2.7,7.4-2.7s5.3.9,7.4,2.7s3.1,4.1,3.1,7c0,2.8-1,5-3.1,6.9-2.1,1.8-4.5,2.7-7.4,2.7s-5.3-.9-7.4-2.7c-2-1.9-3.1-4.2-3.1-6.9Zm3.8,0c0,1.9.7,3.4,2,4.6s2.9,1.7,4.8,1.7c1.8,0,3.4-.6,4.7-1.7c1.3-1.2,2-2.7,2-4.6s-.7-3.5-2-4.7-2.9-1.8-4.7-1.8c-1.9,0-3.4.6-4.8,1.8-1.3,1.2-2,2.7-2,4.7Zm27.9,33.5h-17.2c-1.8,0-2.7-1.1-2.7-3.2v-3.8c0-.7-.1-1.2-.4-1.5s-.6-.5-1.1-.7c-.3-.1-.5-.2-.7-.4s-.3-.4-.3-.8c0-.7.4-1,1.3-1h17.4v-5.3h-16c-1,0-1.5-.5-1.5-1.6c0-1,.5-1.5,1.5-1.5h18.1c1.2,0,1.7.7,1.7,2.1v6.7c0,1.7-.7,2.5-2,2.5h-14.2v4c0,.9.4,1.4,1.2,1.4h14.9c1,0,1.5.5,1.5,1.5s-.5,1.6-1.5,1.6Zm-3.2-22.4v-19.8c0-1-.2-1.6-.5-2-.4-.3-.9-.6-1.6-.8s-1.2-.3-1.5-.5-.5-.4-.5-.8c0-.7.5-1.1,1.5-1.1h4.3c1.3,0,2,.7,2,2.1v18.1c0,3.1-.9,4.7-2.8,4.7h-.9Z"
            fill="#d17f86" />
        </g>
      </g>
      <g>
        <g>
          <path
            d="M174.4,281.9v3.9c0,2.3-.9,3.4-2.6,3.4h-1.2v-7.3h-9.1c-1,0-1.5-.5-1.5-1.6c0-1,.5-1.5,1.5-1.5h14.5c2,0,3.8,0,5.2-.1s2.9-.3,4.5-.5c1-.2,1.6,0,1.8.5.1.6-.1,1-.6,1.4-.8.5-2.1,1-4,1.3s-4.3.5-7,.5h-1.5ZM162.7,269c0-2.2.9-4,2.7-5.5s4.1-2.2,6.9-2.2s5.1.7,7,2.2c1.8,1.5,2.7,3.3,2.7,5.5s-.9,4-2.7,5.5-4.1,2.2-7,2.2c-2.8,0-5.1-.7-6.9-2.2-1.8-1.4-2.7-3.3-2.7-5.5Zm3.8,0c0,1.3.5,2.4,1.6,3.3c1.1.8,2.5,1.3,4.2,1.3c1.8,0,3.2-.4,4.3-1.3c1.1-.8,1.6-1.9,1.6-3.3c0-1.3-.5-2.4-1.6-3.3-1.1-.8-2.5-1.3-4.3-1.3-1.7,0-3.1.4-4.2,1.3s-1.6,2-1.6,3.3Zm25.9,38.5h-17.7c-1.8,0-2.6-1.1-2.6-3.2v-2.4c0-.7-.1-1.2-.4-1.5s-.7-.6-1.1-.8c-.3-.1-.5-.2-.7-.4-.2-.1-.3-.4-.3-.8c0-.7.4-1,1.3-1h17.9v-3.8h-16.6c-1.1,0-1.6-.5-1.6-1.5s.5-1.5,1.5-1.5h18.6c1.2,0,1.7.7,1.7,2.1v5.3c0,1.7-.7,2.5-2,2.5h-14.7v2.6c0,.9.4,1.4,1.1,1.4h15.5c1,0,1.5.5,1.5,1.5.2.9-.3,1.5-1.4,1.5Zm-3.2-42.2c0-1-.2-1.6-.5-2-.4-.3-.9-.6-1.6-.8s-1.2-.3-1.5-.5-.5-.4-.5-.8c0-.7.5-1.1,1.5-1.1h4.3c1.3,0,2,.7,2,2.1v22c0,3.1-.9,4.6-2.8,4.6h-.9v-2h-8.3c-1.1,0-1.6-.5-1.6-1.5s.5-1.5,1.6-1.5h8.3v-18.5Z"
            fill="#595857" />
        </g>
      </g>
      <g>
        <g>
          <path
            d="M320.5,277.6c-.4-.1-.7-.3-.8-.5s-.1-.5-.1-.8c.1-.3.3-.5.7-.5s.7-.1,1,0c1.8.2,3.3.9,4.5,2.1s1.7,2.6,1.6,4.3c-.1,2.1-1,3.8-2.8,5.2-1.2,1-2.7,1.7-4.4,2v4.5h.5c2,0,3.8,0,5.2-.1s2.9-.3,4.4-.6c1.1-.2,1.7,0,1.8.5.1.6-.1,1-.6,1.4-.8.5-2.1,1-4.1,1.3-1.9.3-4.3.5-7,.5h-13.3c-1,0-1.5-.5-1.5-1.6c0-1,.5-1.5,1.5-1.5h9.4v-4.5c-1.9-.3-3.5-1-4.9-2.2-1.8-1.6-2.7-3.5-2.8-5.8c0-1.3.3-2.7,1.1-4s1.8-2.4,3-3.2h-5c-1.1,0-1.6-.5-1.6-1.5s.5-1.5,1.5-1.5h19.2c1,0,1.5.5,1.5,1.5s-.5,1.5-1.5,1.5h-6.3c-2.5,0-4.4.7-5.9,2.1s-2.2,3.1-2.2,5.1c0,1.4.6,2.5,1.6,3.5c1.1.9,2.4,1.4,3.9,1.4c1.6,0,2.9-.4,3.9-1.3s1.6-1.8,1.6-2.9-.2-2-.8-2.8c-.4-.7-1.2-1.3-2.3-1.6ZM313.4,266l-1.3-1.2c-.3-.3-.5-.6-.5-.9-.1-.3,0-.6.2-.9s.5-.5.8-.5.7.1,1,.3c1.6.8,2.9,1.4,4,1.6s2.4.3,3.9.3c1.1,0,1.6.5,1.6,1.5c0,.5-.2.9-.5,1.1-.4.2-.7.4-1.1.4h-3.5c-1.9,0-3.4-.6-4.6-1.7Zm20.6-.7c0-1-.2-1.6-.6-2-.4-.3-.9-.6-1.6-.8s-1.2-.3-1.5-.5-.5-.4-.5-.8c0-.7.5-1.1,1.5-1.1h4.4c1.3,0,1.9.7,1.9,2.1v18.4h6.4c1.1,0,1.6.5,1.6,1.6s-.5,1.6-1.6,1.6h-6.4v18.8c0,3.1-1,4.6-2.9,4.6h-.7v-41.9Z"
            fill="#595857" />
        </g>
      </g>
      <g>
        <g>
          <path
            d="M475.7,289.7v12.8c0,3.2-.9,4.8-2.6,4.8h-1v-17.6h-15.9c-1,0-1.5-.5-1.5-1.6c0-1,.5-1.5,1.5-1.5h35.3c1.1,0,1.6.5,1.6,1.5c0,1.1-.5,1.6-1.6,1.6h-15.8Zm1.1-24.4c0,1.6-.6,3.3-1.8,5.1l11.7,7.6c.6.5,1,1,1,1.5.1.5,0,1-.3,1.4s-.7.6-1.2.7c-.6.1-1.2-.1-1.8-.6l-10.9-8.4c-.6.6-1.2,1.2-1.8,1.8-3.4,3.3-7,5.8-10.8,7.6-.9.4-1.5.3-1.9-.2s-.2-1,.5-1.5c3-1.8,5.6-3.9,8.1-6.5c2.4-2.6,3.9-5.1,4.5-7.4.1-.5,0-.9-.4-1.1s-.9-.4-1.5-.5c-.8-.2-1.2-.6-1.1-1.3s.6-1,1.5-1h3.2c1.2,0,2,.3,2.4.8.5.3.7,1.1.6,2Z"
            fill="#595857" />
        </g>
      </g>
      <g>
        <g>
          <path
            d="M631.2,262.6c1.3,0,1.9.8,1.9,2.3v6.9c0,1.5-.3,2.7-.8,3.4c1,0,1.5.5,1.5,1.5s-.5,1.5-1.5,1.5h-8.4v5.9h15.7c1.1,0,1.6.5,1.6,1.5c0,1.1-.5,1.6-1.6,1.6h-35.3c-1,0-1.5-.5-1.5-1.6c0-1,.5-1.5,1.5-1.5h15.9v-5.9h-6.5c-.5,1-1.2,1.4-2.1,1.4h-.9v-11.4c0-1.2-.1-2-.2-2.4-.2-.4-.6-.8-1.3-1-.4-.1-.7-.2-.8-.4-.2-.2-.2-.5-.2-.8c0-.7.4-1,1.1-1h21.9Zm-21,32.9c-.9,0-1.3-.5-1.3-1.5s.4-1.5,1.3-1.5h21.2c1.2,0,1.8.7,1.8,2.1v9c0,3.2-.9,4.7-2.6,4.7h-1.1v-12.7h-19.3Zm4.1-20.2h15.1v-9.6h-15v8.1c0,.5-.1,1-.1,1.5Z"
            fill="#595857" />
        </g>
      </g>
      <g>
        <g>
          <path
            d="M758.5,266c-1,0-1.5-.5-1.5-1.6s.5-1.6,1.5-1.6h21.1c1.4,0,2,.8,2,2.4c0,2.5-.2,5.1-.5,8s-.8,5.3-1.4,7.1c0,.1,0,.1,0,.2h8c1.1,0,1.7.5,1.7,1.5c0,1.1-.6,1.6-1.7,1.6h-35.3c-1,0-1.5-.5-1.5-1.6c0-1,.5-1.5,1.5-1.5h24.7c0-.2,0-.4,0-.7.3-1.7.5-3.8.6-6.4s.2-5.1.2-7.4h-19.4Zm21,24.3c1.3,0,1.9.8,1.9,2.3v7.5c0,1.8-.3,3.1-.9,3.9v0c1,0,1.5.5,1.5,1.5c0,1.1-.5,1.6-1.5,1.6h-18.4c-.5,1-1.2,1.4-2.1,1.4h-.8v-12.5c0-1.2-.1-2-.2-2.4s-.6-.8-1.2-1c-.4-.1-.7-.3-.9-.5s-.3-.4-.3-.8c0-.7.5-1.1,1.4-1.1h21.5ZM762.8,304h14.9v-10.6h-14.9v9.2c0,.5,0,.9,0,1.4Z"
            fill="#595857" />
        </g>
      </g>
      <g>
        <g>
          <path
            d="M926.8,275c1.1,0,1.6.5,1.6,1.6c0,1-.5,1.5-1.6,1.5h-16.5v5.7c0,.9.4,1.4,1.2,1.4h17c1,0,1.5.5,1.5,1.4c0,1.1-.5,1.6-1.5,1.6h-8.7v8.2h15.7c1.1,0,1.7.5,1.7,1.5s-.6,1.5-1.7,1.5h-35.3c-1,0-1.5-.5-1.5-1.5s.5-1.5,1.5-1.5h15.9v-8.2h-6.6c-2,0-2.9-1.1-2.9-3.3v-14.2c0-1.1-.1-1.9-.2-2.3s-.5-.8-1.2-1c-.4-.1-.7-.3-.9-.5s-.3-.4-.3-.8c0-.7.4-1.1,1.3-1.1h22.1c1.1,0,1.6.5,1.6,1.6c0,1-.5,1.5-1.6,1.5h-17v6.9h16.4Z"
            fill="#639ab4" />
        </g>
      </g>
      <g>
        <g>
          <g>
            <path
              d="M911.4,388.2l-1.4.5c-.9.4-1.5.2-2-.6-.4-.8-.2-1.5.6-1.9l10.9-6.8h2.7v55.2h-5.8v-42.8c0-1.7-.4-2.9-1.2-3.6-.8-.8-2-.8-3.8,0Z"
              fill="#639ab4" />
          </g>
        </g>
        <g>
          <g>
            <path
              d="M903.7,546.3c0-4.4,1.3-7.8,3.8-10.3c2.6-2.5,6-3.7,10.2-3.7s7.7,1.3,10.3,3.8c2.6,2.6,3.9,6.1,3.9,10.5c0,4.1-1.3,7.3-3.8,9.7-1,1-2.2,1.7-3.5,2.3c1.6.7,3,1.7,4.3,3.1c2.8,2.9,4.2,6.6,4.2,10.9c0,5.1-1.4,9-4.3,11.7-2.8,2.7-6.5,4-11,4s-8.2-1.3-11-4-4.2-6.6-4.2-11.7c0-4.4,1.4-8,4.2-10.9c1.3-1.3,2.7-2.4,4.3-3.1-1.2-.6-2.4-1.4-3.5-2.5-2.7-2.5-3.9-5.7-3.9-9.8Zm4.7,26.3c0,3.7.9,6.6,2.7,8.6s4,3,6.7,3s5-1,6.8-3s2.7-4.8,2.7-8.6c0-3.7-.9-6.6-2.7-8.7s-4.1-3.1-6.8-3.1-4.9,1-6.7,3.1-2.7,5-2.7,8.7Zm1-26.3c0,3.3.8,5.8,2.4,7.7c1.6,1.8,3.6,2.7,5.9,2.7c2.4,0,4.3-.9,6-2.6c1.6-1.7,2.4-4.2,2.4-7.5c0-3.2-.8-5.7-2.4-7.5s-3.6-2.7-6-2.7-4.3.8-5.9,2.5-2.4,4.1-2.4,7.4Z"
              fill="#639ab4" />
          </g>
        </g>
        <g>
          <g>
            <path
              d="M893.7,673.3l-1.4.5c-.9.4-1.5.2-2-.6-.4-.8-.2-1.5.6-1.9l10.9-6.8h2.7v55.2h-5.8v-42.8c0-1.7-.4-2.9-1.2-3.6s-2.1-.7-3.8,0Z"
              fill="#639ab4" />
            <path
              d="M928,688.9c1.7-1.3,3.4-2.1,5.2-2.4c1.7-.3,3.3-.3,4.7-.2c3.3.2,6.3,1.6,8.8,4.3c2.5,2.6,3.8,6.4,3.8,11.2c0,5.3-1.6,9.6-4.7,12.8-3.2,3.3-7.3,5-12.6,5.2-2.2.1-4.4-.2-6.7-.8-2.2-.6-4-1.4-5.3-2.4v-4.2c2.5,1.4,5,2.3,7.4,2.7s4.4.4,6,.1c3.1-.7,5.6-2.3,7.5-4.7c1.8-2.4,2.8-5.5,2.8-9.3c0-3.3-.8-5.9-2.4-7.8-1.6-1.8-3.7-2.8-6.3-3-1.7-.1-3.2.2-4.7.8-1.4.6-2.7,1.7-3.8,3.2h-5.4l1.4-29.5h23.5v4.5h-18.4l-.8,19.5Z"
              fill="#639ab4" />
          </g>
        </g>
        <g>
          <g>
            <path
              d="M888.9,844.8c.7-.8,1.5-1.7,2.5-2.7c2.7-2.9,6-7.4,10.1-13.5c4-6.1,6-11.2,6-15.1c0-2.8-.6-5-1.8-6.4-1.2-1.5-2.8-2.2-4.9-2.2-1.6,0-2.9.6-4.1,1.7s-1.8,2.9-2.1,5.4h-6.2c.4-4.1,1.8-7.1,4.1-9.1c2.4-2,5.1-3,8.4-3c4.5,0,7.9,1.3,10.2,3.8c2.4,2.5,3.6,5.9,3.6,10.1c0,3.7-1.6,8.3-4.9,13.7s-7.2,10.7-11.7,15.9h7.5c1.5,0,2.8-.2,3.7-.6s1.7-1.6,2.1-3.7c.2-1.1,1-1.6,2.3-1.5c1.3.2,1.9.7,1.9,1.7l-.7,9.1h-26.4v-3.6Z"
              fill="#fff" />
            <path
              d="M919.4,844.8c.7-.8,1.5-1.7,2.5-2.7c2.7-2.9,6-7.4,10.1-13.5c4-6.1,6-11.2,6-15.1c0-2.8-.6-5-1.8-6.4-1.2-1.5-2.8-2.2-4.9-2.2-1.6,0-2.9.6-4.1,1.7-1.1,1.1-1.8,2.9-2.1,5.4h-6.1c.4-4.1,1.8-7.1,4.1-9.1c2.4-2,5.1-3,8.4-3c4.5,0,7.9,1.3,10.2,3.8c2.4,2.5,3.6,5.9,3.6,10.1c0,3.7-1.6,8.3-4.9,13.7s-7.2,10.7-11.7,15.9h7.5c1.5,0,2.8-.2,3.7-.6s1.7-1.6,2.1-3.7c.2-1.1,1-1.6,2.3-1.5c1.3.2,2,.7,2,1.7l-.7,9.1h-26.4v-3.6Z"
              fill="#fff" />
          </g>
        </g>
        <g>
          <g>
            <path
              d="M885.4,979.9c.7-.9,1.7-1.9,2.8-3.1c3.1-3.3,7.1-8.6,11.8-15.7s7.1-13.1,7.1-18c0-3.4-.8-6-2.3-7.9s-3.8-2.8-6.8-2.8c-2.1,0-3.9.7-5.5,2.2s-2.5,3.5-2.8,6.1h-4.6c.4-4.1,1.8-7.2,4.4-9.4s5.5-3.3,8.8-3.3c4.6,0,8.2,1.4,10.8,4.2s3.9,6.6,3.9,11.3c0,4.3-1.9,9.5-5.6,15.7s-8.5,12.7-14.3,19.4h10.5c2.3,0,4-.3,5.3-.8s2.2-2.1,2.7-4.8c.1-.8.6-1.1,1.4-1s1.3.4,1.3,1l-.8,10.1h-28.2v-3.2Z"
              fill="#639ab4" />
            <path
              d="M944.3,955.9c-.6,1.3-1.7,2.6-3.2,3.7-2.1,1.4-4.4,2.1-7.2,2.1-4.2,0-7.6-1.6-10-4.7s-3.7-7.1-3.7-12c0-5.1,1.3-9.2,4-12.2c2.6-3.1,6.4-4.6,11.2-4.7c4.3,0,7.8,2.1,10.6,6.3c2.8,4.3,4.2,11.2,4.2,20.7c0,5.7-.7,10.8-2,15.2-1.4,4.5-3.3,7.8-5.9,9.9-2.7,2.3-5.9,3.5-9.7,3.7s-7.1-.7-10-2.7v-4.2c1.9,1.1,3.7,1.8,5.3,2s2.8.3,3.8.3c3.6,0,6.7-1.8,9.2-5.5c2.2-3.3,3.4-9.4,3.4-17.9Zm-.1-7c-.4-5.1-1.2-8.9-2.5-11.4-1.8-3.4-4-5.2-6.6-5.4-2.8-.2-5,1-6.6,3.5s-2.4,5.5-2.4,9.2c0,4.5.9,7.7,2.6,9.7s3.7,3,5.8,3s4.2-.9,6.2-2.6c1.7-1.5,2.9-3.5,3.5-6Z"
              fill="#639ab4" />
          </g>
        </g>
      </g>
      <g>
        <g>
          <g>
            <path d="M329.4,572h-20.2v-4.3L329,532.3h6v35.4h6.7v4.3h-6.7v15.3h-5.5v-15.3Zm-14.9-4.3h14.9v-27l-14.9,27Z"
              fill="#595857" />
          </g>
        </g>
        <g>
          <g>
            <path
              d="M302.9,673.3l-1.4.5c-.9.4-1.5.2-2-.6-.4-.8-.2-1.5.6-1.9l10.9-6.8h2.7v55.2h-5.8v-42.8c0-1.7-.4-2.9-1.2-3.6s-2.1-.7-3.8,0Z"
              fill="#595857" />
            <path
              d="M335.3,673.3l-1.4.5c-.9.4-1.5.2-2-.6-.4-.8-.2-1.5.6-1.9l10.9-6.8h2.7v55.2h-5.8v-42.8c0-1.7-.4-2.9-1.2-3.6s-2.1-.7-3.8,0Z"
              fill="#595857" />
          </g>
        </g>
        <g>
          <g>
            <path
              d="M301.4,805.3l-1.4.5c-.9.4-1.5.2-2-.6-.4-.8-.2-1.5.6-1.9l10.9-6.8h2.7v55.2h-5.8v-42.8c0-1.7-.4-2.9-1.2-3.6-.8-.8-2.1-.7-3.8,0Z"
              fill="#595857" />
            <path
              d="M329.1,810.2c0-4.4,1.3-7.8,3.8-10.3c2.6-2.5,6-3.7,10.2-3.7s7.7,1.3,10.3,3.8c2.6,2.6,3.9,6.1,3.9,10.5c0,4.1-1.3,7.3-3.8,9.7-1,1-2.2,1.7-3.5,2.3c1.6.7,3,1.7,4.3,3.1c2.8,2.9,4.2,6.6,4.2,10.9c0,5.1-1.4,9-4.3,11.7-2.8,2.7-6.5,4-11,4s-8.2-1.3-11-4-4.2-6.6-4.2-11.7c0-4.4,1.4-8,4.2-10.9c1.3-1.3,2.7-2.4,4.3-3.1-1.2-.6-2.4-1.4-3.5-2.5-2.7-2.4-3.9-5.7-3.9-9.8Zm4.7,26.3c0,3.7.9,6.6,2.7,8.6s4,3,6.7,3s5-1,6.8-3s2.7-4.8,2.7-8.6c0-3.7-.9-6.6-2.7-8.7s-4.1-3.1-6.8-3.1-4.9,1-6.7,3.1-2.7,5-2.7,8.7Zm1-26.3c0,3.3.8,5.8,2.4,7.7c1.6,1.8,3.6,2.7,5.9,2.7c2.4,0,4.3-.9,6-2.6c1.6-1.7,2.4-4.2,2.4-7.5c0-3.2-.8-5.7-2.4-7.5s-3.6-2.7-6-2.7-4.3.8-5.9,2.5-2.4,4.2-2.4,7.4Z"
              fill="#595857" />
          </g>
        </g>
        <g>
          <g>
            <path
              d="M293.1,979.9c.7-.9,1.7-1.9,2.8-3.1c3.1-3.3,7.1-8.6,11.8-15.7s7.1-13.1,7.1-18c0-3.4-.8-6-2.3-7.9s-3.8-2.8-6.8-2.8c-2.1,0-3.9.7-5.5,2.2s-2.5,3.5-2.8,6.1h-4.6c.4-4.1,1.8-7.2,4.4-9.4s5.5-3.3,8.8-3.3c4.6,0,8.2,1.4,10.8,4.2s3.9,6.6,3.9,11.3c0,4.3-1.9,9.5-5.6,15.7s-8.5,12.7-14.3,19.4h10.5c2.3,0,4-.3,5.3-.8s2.2-2.1,2.7-4.8c.1-.8.6-1.1,1.4-1s1.3.4,1.3,1l-.8,10.1h-28.2v-3.2Z"
              fill="#595857" />
            <path
              d="M335.7,952.9c1.7-1.3,3.4-2.1,5.2-2.4c1.7-.3,3.3-.3,4.7-.2c3.3.2,6.3,1.6,8.8,4.3c2.5,2.6,3.8,6.4,3.8,11.2c0,5.3-1.6,9.6-4.7,12.8-3.2,3.3-7.3,5-12.6,5.2-2.2.1-4.4-.2-6.7-.8-2.2-.6-4-1.4-5.3-2.4v-4.2c2.5,1.4,5,2.3,7.4,2.7s4.4.4,6,.1c3.1-.7,5.6-2.3,7.5-4.7c1.8-2.4,2.8-5.5,2.8-9.3c0-3.3-.8-5.9-2.4-7.8-1.6-1.8-3.7-2.8-6.3-3-1.7-.1-3.2.2-4.7.8-1.4.6-2.7,1.7-3.8,3.2h-5.4l1.4-29.5h23.5v4.5h-18.4l-.8,19.5Z"
              fill="#595857" />
          </g>
        </g>
      </g>
      <g>
        <g>
          <g>
            <path
              d="M466.2,557c1.7-1.3,3.4-2.1,5.2-2.4c1.7-.3,3.3-.3,4.7-.2c3.3.2,6.3,1.6,8.8,4.3c2.5,2.6,3.8,6.4,3.8,11.2c0,5.3-1.6,9.6-4.7,12.8-3.2,3.3-7.3,5-12.6,5.2-2.2.1-4.4-.2-6.7-.8-2.2-.6-4-1.4-5.3-2.4v-4.2c2.5,1.4,5,2.3,7.4,2.7s4.4.4,6,.1c3.1-.7,5.6-2.3,7.5-4.7c1.8-2.4,2.8-5.5,2.8-9.3c0-3.3-.8-5.9-2.4-7.8-1.6-1.8-3.7-2.8-6.3-3-1.7-.1-3.2.2-4.7.8-1.4.6-2.7,1.7-3.8,3.2h-5.4l1.4-29.5h23.5v4.5h-18.4l-.8,19.5Z"
              fill="#595857" />
          </g>
        </g>
        <g>
          <g>
            <path
              d="M449.6,673.3l-1.4.5c-.9.4-1.5.2-2-.6-.4-.8-.2-1.5.6-1.9l10.9-6.8h2.7v55.2h-5.8v-42.8c0-1.7-.4-2.9-1.2-3.6s-2-.7-3.8,0Z"
              fill="#595857" />
            <path
              d="M476.8,715.9c.7-.9,1.7-1.9,2.8-3.1c3.1-3.3,7.1-8.6,11.8-15.7s7.1-13.1,7.1-18c0-3.4-.8-6-2.3-7.9s-3.8-2.8-6.8-2.8c-2.1,0-3.9.7-5.5,2.2s-2.5,3.5-2.8,6.1h-4.6c.4-4.1,1.8-7.2,4.4-9.4s5.5-3.3,8.8-3.3c4.6,0,8.2,1.4,10.8,4.2s3.9,6.6,3.9,11.3c0,4.3-1.9,9.5-5.6,15.7s-8.5,12.7-14.3,19.4h10.5c2.3,0,4-.3,5.3-.8s2.2-2.1,2.7-4.8c.1-.8.6-1.1,1.4-1s1.3.4,1.3,1l-.8,10.1h-28.2v-3.2Z"
              fill="#595857" />
          </g>
        </g>
        <g>
          <g>
            <path
              d="M449.6,805.3l-1.4.5c-.9.4-1.5.2-2-.6-.4-.8-.2-1.5.6-1.9l10.9-6.8h2.7v55.2h-5.8v-42.8c0-1.7-.4-2.9-1.2-3.6-.8-.8-2-.7-3.8,0Z"
              fill="#595857" />
            <path
              d="M500.2,823.9c-.6,1.3-1.7,2.6-3.2,3.7-2.1,1.4-4.4,2.1-7.2,2.1-4.2,0-7.6-1.6-10-4.7s-3.7-7.1-3.7-12c0-5.1,1.3-9.2,4-12.2c2.6-3.1,6.4-4.6,11.2-4.7c4.3,0,7.8,2.1,10.6,6.3c2.8,4.3,4.2,11.2,4.2,20.7c0,5.7-.7,10.8-2,15.2-1.4,4.5-3.3,7.8-5.9,9.9-2.7,2.3-5.9,3.5-9.7,3.7s-7.1-.7-10-2.7v-4.2c1.9,1.1,3.7,1.8,5.3,2s2.8.3,3.8.3c3.6,0,6.7-1.8,9.2-5.5c2.2-3.3,3.4-9.3,3.4-17.9Zm-.1-7c-.4-5.1-1.2-8.9-2.5-11.4-1.8-3.4-4-5.2-6.6-5.4-2.8-.2-5,1-6.6,3.5s-2.4,5.5-2.4,9.2c0,4.5.9,7.7,2.6,9.7s3.7,3,5.8,3s4.2-.9,6.2-2.6c1.7-1.5,2.9-3.5,3.5-6Z"
              fill="#595857" />
          </g>
        </g>
        <g>
          <g>
            <path
              d="M441.3,979.9c.7-.9,1.7-1.9,2.8-3.1c3.1-3.3,7.1-8.6,11.8-15.7s7.1-13.1,7.1-18c0-3.4-.8-6-2.3-7.9s-3.8-2.8-6.8-2.8c-2.1,0-3.9.7-5.5,2.2s-2.5,3.5-2.8,6.1h-4.6c.4-4.1,1.8-7.2,4.4-9.4s5.5-3.3,8.8-3.3c4.6,0,8.2,1.4,10.8,4.2s3.9,6.6,3.9,11.3c0,4.3-1.9,9.5-5.6,15.7s-8.5,12.7-14.3,19.4h10.5c2.3,0,4-.3,5.3-.8s2.2-2.1,2.7-4.8c.1-.8.6-1.1,1.4-1s1.3.4,1.3,1l-.8,10.1h-28.2v-3.2Z"
              fill="#595857" />
            <path
              d="M482.5,956.6c.7-1.3,1.7-2.5,3-3.5c2.2-1.8,4.8-2.7,7.8-2.7c4.2,0,7.6,1.6,10.1,4.7s3.8,7.1,3.8,12c0,5.1-1.4,9.2-4.2,12.2-2.8,3.1-6.7,4.6-11.8,4.7-4.6.1-8.2-1.8-10.9-5.5s-4-10-4-18.9c0-7.3.7-13.1,2-17.4c1.4-4.3,3.2-7.5,5.4-9.8c2.6-2.7,5.9-4.1,10-4.3s7.5.7,10.3,2.7v4.1c-1.9-1.1-3.7-1.8-5.2-2.1s-2.8-.5-3.8-.5c-3.5,0-6.5,2-9,5.9-2.1,3.7-3.3,9.8-3.5,18.4Zm0,7.7c.3,5.5,1.2,9.4,2.5,11.6c1.8,2.8,4,4.2,6.7,4.2c2.9,0,5.2-1.1,7-3.3s2.7-5.3,2.7-9.4c0-4.5-.8-7.7-2.5-9.7s-3.6-3-5.7-3c-2.7,0-5,1.2-7.1,3.5-1.5,1.6-2.7,3.7-3.6,6.1Z"
              fill="#595857" />
          </g>
        </g>
      </g>
      <g>
        <g>
          <g>
            <path
              d="M612.8,560.7c.7-1.3,1.7-2.5,3-3.5c2.2-1.8,4.8-2.7,7.8-2.7c4.2,0,7.6,1.6,10.1,4.7s3.8,7.1,3.8,12c0,5.1-1.4,9.2-4.2,12.2-2.8,3.1-6.7,4.6-11.8,4.7-4.6.1-8.2-1.8-10.9-5.5s-4-10-4-18.9c0-7.3.7-13.1,2-17.4c1.4-4.3,3.2-7.5,5.4-9.8c2.6-2.7,5.9-4.1,10-4.3s7.5.7,10.3,2.7v4.1c-1.9-1.1-3.7-1.8-5.2-2.1s-2.8-.5-3.8-.5c-3.5,0-6.5,2-9,5.9-2.1,3.7-3.3,9.8-3.5,18.4Zm0,7.7c.3,5.5,1.2,9.4,2.5,11.6c1.8,2.8,4,4.2,6.7,4.2c2.9,0,5.2-1.1,7-3.3s2.7-5.3,2.7-9.4c0-4.5-.8-7.7-2.5-9.7s-3.6-3-5.7-3c-2.7,0-5,1.2-7.1,3.5-1.5,1.6-2.7,3.7-3.6,6.1Z"
              fill="#595857" />
          </g>
        </g>
        <g>
          <g>
            <path
              d="M597.6,673.3l-1.4.5c-.9.4-1.5.2-2-.6-.4-.8-.2-1.5.6-1.9l10.9-6.8h2.7v55.2h-5.8v-42.8c0-1.7-.4-2.9-1.2-3.6-.7-.7-2-.7-3.8,0Z"
              fill="#595857" />
            <path
              d="M644.9,690.8c3,1.3,5.3,3.3,6.7,5.8c1.5,2.5,2.1,5.3,2,8.5-.2,4.3-1.8,7.8-4.8,10.7s-7.3,4.4-13,4.4c-1.9,0-3.9-.3-5.9-.8-2.1-.5-3.8-1.3-5.3-2.4v-4.7c1.7,1.3,3.6,2.2,5.7,2.6c2,.5,3.8.7,5.3.7c3.5,0,6.3-1,8.5-3s3.3-5,3.3-8.8c0-2.8-.4-4.8-1.2-6s-1.7-2.2-2.8-3c-1.2-.8-2.4-1.2-3.6-1.4s-2.3-.3-3.2-.3c-1.3,0-1.9-.7-1.8-2.1s.8-2.1,2.2-2.1c.5,0,1,0,1.7,0c.6,0,1.3-.2,2-.4c1.7-.5,3.2-1.6,4.4-3.2s1.9-3.9,2-6.8c.1-3.3-.8-5.7-2.6-7.4-1.8-1.6-4.1-2.5-6.8-2.5-2.1,0-3.8.6-5.3,1.8s-2.4,2.8-2.8,4.8h-4.6c.5-3.3,1.9-5.9,4.3-7.9s5.4-3,8.9-3c4.3,0,7.8,1.3,10.6,4c2.7,2.7,4.1,6,4.1,9.9c0,3.2-.8,6-2.4,8.2-1.5,2.3-3.4,3.7-5.6,4.4Z"
              fill="#595857" />
          </g>
        </g>
        <g>
          <g>
            <path
              d="M589.3,847.9c.7-.9,1.7-1.9,2.8-3.1c3.1-3.3,7.1-8.6,11.8-15.7s7.1-13.1,7.1-18c0-3.4-.8-6-2.3-7.9s-3.8-2.8-6.8-2.8c-2.1,0-3.9.7-5.5,2.2s-2.5,3.5-2.8,6.1h-4.6c.4-4.1,1.8-7.2,4.4-9.4s5.5-3.3,8.8-3.3c4.6,0,8.2,1.4,10.8,4.2s3.9,6.6,3.9,11.3c0,4.3-1.9,9.5-5.6,15.7s-8.5,12.7-14.3,19.4h10.5c2.3,0,4-.3,5.3-.8s2.2-2.1,2.7-4.8c.1-.8.6-1.1,1.4-1s1.3.4,1.3,1l-.8,10.1h-28.2v-3.2Z"
              fill="#595857" />
            <path
              d="M624,824.2c0-9.1,1.4-16,4.2-20.8s6.5-7.2,11.2-7.2c4.8,0,8.5,2.4,11.3,7.2s4.2,11.7,4.2,20.8c0,9-1.4,15.9-4.2,20.7s-6.5,7.2-11.3,7.2c-4.7,0-8.5-2.4-11.2-7.2-2.8-4.8-4.2-11.7-4.2-20.7Zm6.1,0c0,8.2.9,14.1,2.7,18c1.8,3.8,4,5.7,6.6,5.7c2.7,0,4.9-1.9,6.7-5.7s2.7-9.8,2.7-18-.9-14.2-2.7-18-4-5.7-6.7-5.7c-2.6,0-4.8,1.9-6.6,5.7s-2.7,9.8-2.7,18Z"
              fill="#595857" />
          </g>
        </g>
        <g>
          <g>
            <path
              d="M589.3,979.9c.7-.9,1.7-1.9,2.8-3.1c3.1-3.3,7.1-8.6,11.8-15.7s7.1-13.1,7.1-18c0-3.4-.8-6-2.3-7.9s-3.8-2.8-6.8-2.8c-2.1,0-3.9.7-5.5,2.2s-2.5,3.5-2.8,6.1h-4.6c.4-4.1,1.8-7.2,4.4-9.4s5.5-3.3,8.8-3.3c4.6,0,8.2,1.4,10.8,4.2s3.9,6.6,3.9,11.3c0,4.3-1.9,9.5-5.6,15.7s-8.5,12.7-14.3,19.4h10.5c2.3,0,4-.3,5.3-.8s2.2-2.1,2.7-4.8c.1-.8.6-1.1,1.4-1s1.3.4,1.3,1l-.8,10.1h-28.2v-3.2Z"
              fill="#595857" />
            <path
              d="M648,933.6h-15.4c-1.2,0-2.2.4-3.2,1.2s-1.6,2.3-1.9,4.7c-.2,1-.7,1.5-1.5,1.5-.9,0-1.3-.5-1.3-1.5l.2-10.1h29.5v3.1l-17,51.2h-5.8L648,933.6Z"
              fill="#595857" />
          </g>
        </g>
      </g>
      <g>
        <g>
          <g>
            <path
              d="M778.2,537.7h-15.4c-1.2,0-2.2.4-3.2,1.2s-1.6,2.3-1.9,4.7c-.2,1-.7,1.5-1.5,1.5-.9,0-1.3-.5-1.3-1.5l.2-10.1h29.5v3.1l-17,51.2h-5.8l16.4-50.1Z"
              fill="#595857" />
          </g>
        </g>
        <g>
          <g>
            <path
              d="M745.7,673.3l-1.4.5c-.9.4-1.5.2-2-.6-.4-.8-.2-1.5.6-1.9l10.9-6.8h2.7v55.2h-5.8v-42.8c0-1.7-.4-2.9-1.2-3.6s-2.1-.7-3.8,0Z"
              fill="#595857" />
            <path
              d="M791.4,703.9h-20.2v-4.3L791,664.2h6v35.4h6.7v4.3h-6.7v15.3h-5.5v-15.3Zm-14.9-4.3h14.9v-27l-14.9,27Z"
              fill="#595857" />
          </g>
        </g>
        <g>
          <g>
            <path
              d="M737.4,847.9c.7-.9,1.7-1.9,2.8-3.1c3.1-3.3,7.1-8.6,11.8-15.7s7.1-13.1,7.1-18c0-3.4-.8-6-2.3-7.9s-3.8-2.8-6.8-2.8c-2.1,0-3.9.7-5.5,2.2s-2.5,3.5-2.8,6.1h-4.6c.4-4.1,1.8-7.2,4.4-9.4s5.5-3.3,8.8-3.3c4.6,0,8.2,1.4,10.8,4.2s3.9,6.6,3.9,11.3c0,4.3-1.9,9.5-5.6,15.7s-8.5,12.7-14.3,19.4h10.5c2.3,0,4-.3,5.3-.8s2.2-2.1,2.7-4.8c.1-.8.6-1.1,1.4-1s1.3.4,1.3,1l-.8,10.1h-28.2v-3.2Z"
              fill="#595857" />
            <path
              d="M781.1,805.3l-1.4.5c-.9.4-1.5.2-2-.6-.4-.8-.2-1.5.6-1.9l10.9-6.8h2.7v55.2h-5.8v-42.8c0-1.7-.4-2.9-1.2-3.6-.8-.8-2-.7-3.8,0Z"
              fill="#595857" />
          </g>
        </g>
        <g>
          <g>
            <path
              d="M737.4,979.9c.7-.9,1.7-1.9,2.8-3.1c3.1-3.3,7.1-8.6,11.8-15.7s7.1-13.1,7.1-18c0-3.4-.8-6-2.3-7.9s-3.8-2.8-6.8-2.8c-2.1,0-3.9.7-5.5,2.2s-2.5,3.5-2.8,6.1h-4.6c.4-4.1,1.8-7.2,4.4-9.4s5.5-3.3,8.8-3.3c4.6,0,8.2,1.4,10.8,4.2s3.9,6.6,3.9,11.3c0,4.3-1.9,9.5-5.6,15.7s-8.5,12.7-14.3,19.4h10.5c2.3,0,4-.3,5.3-.8s2.2-2.1,2.7-4.8c.1-.8.6-1.1,1.4-1s1.3.4,1.3,1l-.8,10.1h-28.2v-3.2Z"
              fill="#595857" />
            <path
              d="M773.4,942.2c0-4.4,1.3-7.8,3.8-10.3c2.6-2.5,6-3.7,10.2-3.7s7.7,1.3,10.3,3.8c2.6,2.6,3.9,6.1,3.9,10.5c0,4.1-1.3,7.3-3.8,9.7-1,1-2.2,1.7-3.5,2.3c1.6.7,3,1.7,4.3,3.1c2.8,2.9,4.2,6.6,4.2,10.9c0,5.1-1.4,9-4.3,11.7-2.8,2.7-6.5,4-11,4s-8.2-1.3-11-4-4.2-6.6-4.2-11.7c0-4.4,1.4-8,4.2-10.9c1.3-1.3,2.7-2.4,4.3-3.1-1.2-.6-2.4-1.4-3.5-2.5-2.7-2.4-3.9-5.7-3.9-9.8Zm4.7,26.3c0,3.7.9,6.6,2.7,8.6s4,3,6.7,3s5-1,6.8-3s2.7-4.8,2.7-8.6c0-3.7-.9-6.6-2.7-8.7s-4.1-3.1-6.8-3.1-4.9,1-6.7,3.1-2.7,5-2.7,8.7Zm1-26.3c0,3.3.8,5.8,2.4,7.7c1.6,1.8,3.6,2.7,5.9,2.7c2.4,0,4.3-.9,6-2.6c1.6-1.7,2.4-4.2,2.4-7.5c0-3.2-.8-5.7-2.4-7.5s-3.6-2.7-6-2.7-4.3.8-5.9,2.5-2.4,4.1-2.4,7.4Z"
              fill="#595857" />
          </g>
        </g>
      </g>
      <g>
        <g>
          <g>
            <path
              d="M18,584c.7-.9,1.7-1.9,2.8-3.1c3.1-3.3,7.1-8.6,11.8-15.7s7.1-13.1,7.1-18c0-3.4-.8-6-2.3-7.9s-3.8-2.8-6.8-2.8c-2.1,0-3.9.7-5.5,2.2s-2.5,3.5-2.8,6.1h-4.6c.4-4.1,1.8-7.2,4.4-9.4s5.5-3.3,8.8-3.3c4.6,0,8.2,1.4,10.8,4.2s3.9,6.6,3.9,11.3c0,4.3-1.9,9.5-5.6,15.7s-8.5,12.7-14.3,19.4h10.5c2.3,0,4-.3,5.3-.8s2.2-2.1,2.7-4.8c.1-.8.6-1.1,1.4-1s1.3.4,1.3,1l-.8,10.1h-28.1v-3.2Z"
              fill="#d17f86" />
          </g>
        </g>
        <g>
          <g>
            <path
              d="M41.4,691.9c-.6,1.3-1.7,2.6-3.2,3.7-2.1,1.4-4.4,2.1-7.2,2.1-4.2,0-7.6-1.6-10-4.7s-3.7-7.1-3.7-12c0-5.1,1.3-9.2,4-12.2c2.6-3.1,6.4-4.6,11.2-4.7c4.3,0,7.8,2.1,10.6,6.3c2.8,4.3,4.2,11.2,4.2,20.7c0,5.7-.7,10.8-2,15.2-1.4,4.5-3.3,7.8-5.9,9.9-2.7,2.3-5.9,3.5-9.7,3.7s-7.1-.7-10-2.7v-4.2c1.9,1.1,3.7,1.8,5.3,2s2.8.3,3.8.3c3.6,0,6.7-1.8,9.2-5.5c2.2-3.3,3.4-9.3,3.4-17.9Zm-.1-7c-.4-5.1-1.2-8.9-2.5-11.4-1.8-3.4-4-5.2-6.6-5.4-2.8-.2-5,1-6.6,3.5s-2.4,5.5-2.4,9.2c0,4.5.9,7.7,2.6,9.7s3.7,3,5.8,3s4.2-.9,6.2-2.6c1.7-1.5,2.9-3.5,3.5-6Z"
              fill="#d17f86" />
          </g>
        </g>
        <g>
          <g>
            <path
              d="M8.5,805.3l-1.4.5c-.9.4-1.5.2-2-.6-.4-.8-.2-1.5.6-1.9l10.9-6.8h2.7v55.2h-5.8v-42.8c0-1.7-.4-2.9-1.2-3.6-.8-.8-2-.7-3.8,0Z"
              fill="#d17f86" />
            <path
              d="M41.4,824.7c.7-1.3,1.7-2.5,3-3.5c2.2-1.8,4.8-2.7,7.8-2.7c4.2,0,7.6,1.6,10.1,4.7s3.8,7.1,3.8,12c0,5.1-1.4,9.2-4.2,12.2-2.8,3.1-6.7,4.6-11.8,4.7-4.6.1-8.2-1.8-10.9-5.5s-4-10-4-18.9c0-7.3.7-13.1,2-17.4c1.4-4.3,3.2-7.5,5.4-9.8c2.6-2.7,5.9-4.1,10-4.3s7.5.7,10.3,2.7v4.1c-1.9-1.1-3.7-1.8-5.2-2.1s-2.8-.5-3.8-.5c-3.5,0-6.5,2-9,5.9-2.1,3.6-3.3,9.7-3.5,18.4Zm0,7.7c.3,5.5,1.2,9.4,2.5,11.6c1.8,2.8,4,4.2,6.7,4.2c2.9,0,5.2-1.1,7-3.3s2.7-5.3,2.7-9.4c0-4.5-.8-7.7-2.5-9.7s-3.6-3-5.7-3c-2.7,0-5,1.2-7.1,3.5-1.5,1.5-2.7,3.6-3.6,6.1Z"
              fill="#d17f86" />
          </g>
        </g>
        <g>
          <g>
            <path
              d="M0.2,979.9c.7-.9,1.7-1.9,2.8-3.1c3.1-3.3,7.1-8.6,11.8-15.7s7.1-13.1,7.1-18c0-3.4-.8-6-2.3-7.9s-3.8-2.8-6.8-2.8c-2.1,0-3.9.7-5.5,2.2s-2.5,3.5-2.8,6.1h-4.5c.4-4.1,1.8-7.2,4.4-9.4s5.5-3.3,8.8-3.3c4.6,0,8.2,1.4,10.8,4.2s3.9,6.6,3.9,11.3c0,4.3-1.9,9.5-5.6,15.7s-8.5,12.7-14.3,19.4h10.5c2.3,0,4-.3,5.3-.8s2.2-2.1,2.7-4.8c.1-.8.6-1.1,1.4-1s1.3.4,1.3,1l-.8,10.1h-28.2v-3.2Z"
              fill="#d17f86" />
            <path
              d="M55.8,954.7c3,1.3,5.3,3.3,6.7,5.8c1.5,2.5,2.1,5.3,2,8.5-.2,4.3-1.8,7.8-4.8,10.7s-7.3,4.4-13,4.4c-1.9,0-3.9-.3-5.9-.8-2.1-.5-3.8-1.3-5.3-2.4v-4.7c1.7,1.3,3.6,2.2,5.7,2.6c2,.5,3.8.7,5.3.7c3.5,0,6.3-1,8.5-3s3.3-5,3.3-8.8c0-2.8-.4-4.8-1.2-6s-1.7-2.2-2.8-3c-1.2-.8-2.4-1.2-3.6-1.4s-2.3-.3-3.2-.3c-1.3,0-1.9-.7-1.8-2.1s.8-2.1,2.2-2.1c.5,0,1,0,1.7,0c.6,0,1.3-.2,2-.4c1.7-.5,3.2-1.6,4.4-3.2s1.9-3.9,2-6.8c.1-3.3-.8-5.7-2.6-7.4-1.8-1.6-4.1-2.5-6.8-2.5-2.1,0-3.8.6-5.3,1.8s-2.4,2.8-2.8,4.8h-4.5c.5-3.3,1.9-5.9,4.3-7.9s5.4-3,8.9-3c4.3,0,7.8,1.3,10.6,4c2.7,2.7,4.1,6,4.1,9.9c0,3.2-.8,6-2.4,8.2-1.6,2.3-3.5,3.7-5.7,4.4Z"
              fill="#d17f86" />
          </g>
        </g>
        <g>
          <g>
            <path
              d="M20.3,1086.7c3,1.3,5.3,3.3,6.7,5.8c1.5,2.5,2.1,5.3,2,8.5-.2,4.3-1.8,7.8-4.8,10.7s-7.3,4.4-13,4.4c-1.9,0-3.9-.3-5.9-.8-2.1-.5-3.8-1.3-5.3-2.4v-4.7c1.7,1.3,3.6,2.2,5.7,2.6c2,.5,3.8.7,5.3.7c3.5,0,6.3-1,8.5-3s3.3-5,3.3-8.8c0-2.8-.4-4.8-1.2-6s-1.7-2.2-2.8-3c-1.2-.8-2.4-1.2-3.6-1.4s-2.3-.3-3.2-.3c-1.3,0-1.9-.7-1.8-2.1s.8-2.1,2.2-2.1c.5,0,1,0,1.7,0c.6,0,1.3-.2,2-.4c1.7-.5,3.2-1.6,4.4-3.2s1.9-3.9,2-6.8c.1-3.3-.8-5.7-2.6-7.4-1.8-1.6-4.1-2.5-6.8-2.5-2.1,0-3.8.6-5.3,1.8s-2.4,2.8-2.8,4.8h-4.5c.5-3.3,1.9-5.9,4.3-7.9s5.4-3,8.9-3c4.3,0,7.8,1.3,10.6,4c2.7,2.7,4.1,6,4.1,9.9c0,3.2-.8,6-2.4,8.2s-3.5,3.7-5.7,4.4Z"
              fill="#d17f86" />
            <path
              d="M34.9,1088.1c0-9.1,1.4-16,4.2-20.8s6.5-7.2,11.2-7.2c4.8,0,8.5,2.4,11.3,7.2s4.2,11.7,4.2,20.8c0,9-1.4,15.9-4.2,20.7s-6.5,7.2-11.3,7.2c-4.7,0-8.5-2.4-11.2-7.2-2.8-4.7-4.2-11.6-4.2-20.7Zm6.1,0c0,8.2.9,14.1,2.7,18c1.8,3.8,4,5.7,6.6,5.7c2.7,0,4.9-1.9,6.7-5.7s2.7-9.8,2.7-18-.9-14.2-2.7-18-4-5.7-6.7-5.7c-2.6,0-4.8,1.9-6.6,5.7s-2.7,9.8-2.7,18Z"
              fill="#d17f86" />
          </g>
        </g>
      </g>
      <g>
        <g>
          <g>
            <path
              d="M183.8,558.8c3,1.3,5.3,3.3,6.7,5.8c1.5,2.5,2.1,5.3,2,8.5-.2,4.3-1.8,7.8-4.8,10.7s-7.3,4.4-13,4.4c-1.9,0-3.9-.3-5.9-.8-2.1-.5-3.8-1.3-5.3-2.4v-4.7c1.7,1.3,3.6,2.2,5.7,2.6c2,.5,3.8.7,5.3.7c3.5,0,6.3-1,8.5-3s3.3-5,3.3-8.8c0-2.8-.4-4.8-1.2-6s-1.7-2.2-2.8-3c-1.2-.8-2.4-1.2-3.6-1.4s-2.3-.3-3.2-.3c-1.3,0-1.9-.7-1.8-2.1s.8-2.1,2.2-2.1c.5,0,1,0,1.7,0c.6,0,1.3-.2,2-.4c1.7-.5,3.2-1.6,4.4-3.2s1.9-3.9,2-6.8c.1-3.3-.8-5.7-2.6-7.4-1.8-1.6-4.1-2.5-6.8-2.5-2.1,0-3.8.6-5.3,1.8s-2.4,2.8-2.8,4.8h-4.5c.5-3.3,1.9-5.9,4.3-7.9s5.4-3,8.9-3c4.3,0,7.8,1.3,10.6,4c2.7,2.7,4.1,6,4.1,9.9c0,3.2-.8,6-2.4,8.2-1.6,2.3-3.5,3.7-5.7,4.4Z"
              fill="#595857" />
          </g>
        </g>
        <g>
          <g>
            <path
              d="M154.3,673.3l-1.4.5c-.9.4-1.5.2-2-.6-.4-.8-.2-1.5.6-1.9l10.9-6.8h2.7v55.2h-5.8v-42.8c0-1.7-.4-2.9-1.2-3.6s-2.1-.7-3.8,0Z"
              fill="#595857" />
            <path
              d="M180.7,692.2c0-9.1,1.4-16,4.2-20.8s6.5-7.2,11.2-7.2c4.8,0,8.5,2.4,11.3,7.2s4.2,11.7,4.2,20.8c0,9-1.4,15.9-4.2,20.7s-6.5,7.2-11.3,7.2c-4.7,0-8.5-2.4-11.2-7.2-2.9-4.7-4.2-11.6-4.2-20.7Zm6,0c0,8.2.9,14.1,2.7,18c1.8,3.8,4,5.7,6.6,5.7c2.7,0,4.9-1.9,6.7-5.7s2.7-9.8,2.7-18-.9-14.2-2.7-18-4-5.7-6.7-5.7c-2.6,0-4.8,1.9-6.6,5.7s-2.7,9.8-2.7,18Z"
              fill="#595857" />
          </g>
        </g>
        <g>
          <g>
            <path
              d="M154.3,805.3l-1.4.5c-.9.4-1.5.2-2-.6-.4-.8-.2-1.5.6-1.9l10.9-6.8h2.7v55.2h-5.8v-42.8c0-1.7-.4-2.9-1.2-3.6-.8-.8-2.1-.7-3.8,0Z"
              fill="#595857" />
            <path
              d="M204.6,801.7h-15.4c-1.2,0-2.2.4-3.2,1.2s-1.6,2.3-1.9,4.7c-.2,1-.7,1.5-1.5,1.5-.9,0-1.3-.5-1.3-1.5l.2-10.1h29.5v3.1l-17,51.2h-5.8l16.4-50.1Z"
              fill="#595857" />
          </g>
        </g>
        <g>
          <g>
            <path
              d="M146,979.9c.7-.9,1.7-1.9,2.8-3.1c3.1-3.3,7.1-8.6,11.8-15.7s7.1-13.1,7.1-18c0-3.4-.8-6-2.3-7.9s-3.8-2.8-6.8-2.8c-2.1,0-3.9.7-5.5,2.2s-2.5,3.5-2.8,6.1h-4.6c.4-4.1,1.8-7.2,4.4-9.4s5.5-3.3,8.8-3.3c4.6,0,8.2,1.4,10.8,4.2s3.9,6.6,3.9,11.3c0,4.3-1.9,9.5-5.6,15.7s-8.5,12.7-14.3,19.4h10.5c2.3,0,4-.3,5.3-.8s2.2-2.1,2.7-4.8c.1-.8.6-1.1,1.4-1s1.3.4,1.3,1l-.8,10.1h-28.1v-3.2Z"
              fill="#595857" />
            <path d="M200,967.9h-20.2v-4.3l19.8-35.4h6v35.4h6.7v4.3h-6.7v15.3h-5.6v-15.3Zm-14.9-4.3h14.9v-27l-14.9,27Z"
              fill="#595857" />
          </g>
        </g>
        <g>
          <g>
            <path
              d="M166,1086.7c3,1.3,5.3,3.3,6.7,5.8c1.5,2.5,2.1,5.3,2,8.5-.2,4.3-1.8,7.8-4.8,10.7s-7.3,4.4-13,4.4c-1.9,0-3.9-.3-5.9-.8-2.1-.5-3.8-1.3-5.3-2.4v-4.7c1.7,1.3,3.6,2.2,5.7,2.6c2,.5,3.8.7,5.3.7c3.5,0,6.3-1,8.5-3s3.3-5,3.3-8.8c0-2.8-.4-4.8-1.2-6s-1.7-2.2-2.8-3c-1.2-.8-2.4-1.2-3.6-1.4s-2.3-.3-3.2-.3c-1.3,0-1.9-.7-1.8-2.1s.8-2.1,2.2-2.1c.5,0,1,0,1.7,0c.6,0,1.3-.2,2-.4c1.7-.5,3.2-1.6,4.4-3.2s1.9-3.9,2-6.8c.1-3.3-.8-5.7-2.6-7.4-1.8-1.6-4.1-2.5-6.8-2.5-2.1,0-3.8.6-5.3,1.8s-2.4,2.8-2.8,4.8h-4.5c.5-3.3,1.9-5.9,4.3-7.9s5.4-3,8.9-3c4.3,0,7.8,1.3,10.6,4c2.7,2.7,4.1,6,4.1,9.9c0,3.2-.8,6-2.4,8.2s-3.5,3.7-5.7,4.4Z"
              fill="#595857" />
            <path
              d="M189.7,1069.2l-1.4.5c-.9.4-1.5.2-2-.6-.4-.8-.2-1.5.6-1.9l10.9-6.8h2.7v55.2h-5.8v-42.8c0-1.7-.4-2.9-1.2-3.6s-2-.7-3.8,0Z"
              fill="#595857" />
          </g>
        </g>
      </g>
    </g>
  </g>
</svg>