<svg id="eVAhDzp7YjU1" xmlns="http://www.w3.org/2000/svg" xmlns:xlink="http://www.w3.org/1999/xlink" viewBox="0 0 1085 1611" shape-rendering="geometricPrecision" text-rendering="geometricPrecision" style="background-color:transparent" width="100%">
<style>
#eVAhDzp7YjU5_tr {overflow: visible; animation: eVAhDzp7YjU5_tr__tr 2400ms linear 1 normal forwards}@keyframes eVAhDzp7YjU5_tr__tr { 0% {transform: translate(590.539585px,661.842508px) rotate(66.697484deg);animation-timing-function: cubic-bezier(0,0,0.365,1)} 62.5% {transform: translate(590.539585px,661.842508px) rotate(0deg)} 100% {transform: translate(590.539585px,661.842508px) rotate(0deg)}}
</style>
<pattern id="main" patternUnits="userSpaceOnUse" width="200%" height="200%"><image href="/main.png" x="-10%" y="-23%" width="150%" height="150%"></image></pattern>
<path d="M573.49,97c135.396,0,265.246,49.622,360.985,137.948C1030.21,323.275,1084,443.072,1084,567.985v1042.015h-1021v-1042.024c.0027-124.908,53.787-244.7,149.521-333.024C308.256,146.627,438.1,97.0049,573.49,97v0Z" fill="none"/><path d="M573.49,97c135.396,0,265.246,49.622,360.985,137.948C1030.21,323.275,1084,443.072,1084,567.985v1042.015h-1021v-1042.024c.0027-124.908,53.787-244.7,149.521-333.024C308.256,146.627,438.1,97.0049,573.49,97v0Z" fill="url(#main)" stroke="#fff" stroke-miterlimit="10"/><g mask="url(#eVAhDzp7YjU20)"><g id="eVAhDzp7YjU5_tr" transform="translate(590.539585,661.842508) rotate(66.697484)"><g transform="translate(-590.53958,-661.842508)"><path d="M6.10985,393.308c3.04234,1.52,5.80225,3.549,8.16005,6l12.6-4.61c.7204-.265,1.5149-.243,2.22.06.2973.128.5556.333.7488.592.1931.26.3142.566.3512.888.0472.311.0308.628-.0483.932-.079.305-.2192.59-.4118.838-.4799.565-1.1406.947-1.87,1.08l-11,3c3.0091,3.507,5.2718,7.59,6.6501,12c.43,1.35.2999,2.26-.4101,2.73s-1.3299.16-1.8599-.94c-3.6005-7.182-9.2161-13.159-16.16002-17.2-.17766-.082-.37726-.104-.56854-.062-.19128.041-.36382.144-.49146.292-.39238.374-.72914.801-1,1.27-.52.83-1.14999,1.08-1.86999.74s-.870015-1-.450015-2.06l1.419985-3.46c.29319-.905.86775-1.694,1.64001-2.25.37449-.169.78508-.243,1.19513-.215s.80677.157,1.15485.375v0Zm2.42004-25.81l38.56991,15.82c2.94,1.21,3.94,3,3,5.33l-.4199,1-25.37-10.41-2.12,5.17l18.18,7.46c2.88,1.18,3.8599,2.91,2.9199,5.19l-.4199,1-35.00004-14.34c-.58102-.314-1.24209-.45-1.90003-.39-.51958.257-.95879.651-1.26996,1.14-.37077.524-.79655,1.007-1.27001,1.44-.14974.148-.33996.247-.54651.287-.20656.039-.42009.016-.61347-.067-.79-.32-.93-1.08-.44-2.29l1.84998-4.5c.59-1.44,1.56003-1.89,2.91003-1.34l12.21001,5l2.1199-5.16-11.17995-4.59c-.57148-.31-1.22271-.443-1.86999-.38-.53964.252-.98214.673-1.26001,1.2-.34865.551-.75417,1.064-1.20996,1.53-.14498.155-.33553.26-.54407.3-.20854.039-.42429.011-.61597-.08-.84-.35-1-1.14-.5-2.38l1.88001-4.6c.63-1.41,1.59003-1.88,2.91003-1.34Z" fill="#c96678"/><path d="M18.3401,353.248l10.88-21.5c.59-1.16,1.57-1.4,2.93-.71l8.15,4.13c1.6.806,2.0633,1.876,1.39,3.21l-8.63,17l5.07,2.57c.15.104.3222.171.5029.197s.365.009.5379-.05c.173-.058.3299-.156.4583-.286s.2245-.288.2809-.461l8.92-17.59c.1103-.21.2608-.395.4429-.547.182-.151.3921-.265.6182-.335s.4639-.095.6996-.073c.2357.021.4648.089.6743.2.2095.11.3952.261.5465.443s.2652.392.3353.618.095.464.0732.699c-.0217.236-.0897.465-.2.675l-4.67,9.31l6.56,3.33l7.93-15.65c.1045-.222.2524-.42.435-.584.1825-.163.3961-.288.6279-.367.2318-.08.4772-.112.7216-.094.2444.017.4828.083.7011.194.2183.112.4122.265.5699.453.1577.187.2762.405.3484.639.0723.234.0967.48.072.724s-.0982.48-.2159.695l-18.17,35.87c-.2445.386-.624.667-1.0647.789s-.9108.075-1.3189-.131c-.4082-.205-.725-.556-.8889-.983s-.163-.899.0025-1.325l8.06-15.89-6.57-3.33-3.46,6.82c-.9133,1.8-2.3633,2.193-4.35,1.18l-5.26-2.66c-.4486-.285-.9835-.402-1.51-.33-.4235.131-.8082.365-1.12.68-.2458.246-.5294.452-.84.61-.1726.061-.3569.082-.5389.062-.182-.021-.3569-.083-.5111-.182-.76-.39-.9-1-.43-2l10.18-20.08-6.12-3.1-9.54,18.83c-.0891.231-.2308.439-.414.606-.1831.168-.4027.29-.6413.358s-.4896.079-.7334.033c-.2438-.045-.4737-.147-.6713-.297-.2339-.072-.448-.197-.625-.365-.1771-.169-.3122-.377-.3948-.607s-.1102-.476-.0807-.719c.0294-.243.1153-.475.2505-.679v0Z" fill="#c96678"/><path d="M47.3102,313.808c-1.1899-.732-2.1881-1.737-2.9116-2.932-.7235-1.194-1.1515-2.545-1.2484-3.938-.3302-3.319.4964-6.65,2.34-9.43c1.6432-2.904,4.2295-5.158,7.33-6.39c1.2796-.554,2.6728-.795,4.0641-.703s2.7406.515,3.9359,1.233c1.1493.729,2.1046,1.725,2.7838,2.905.6793,1.179,1.0623,2.505,1.1161,3.865.1536,3.302-.6866,6.575-2.4122,9.395s-4.2572,5.058-7.2678,6.425c-1.2286.553-2.5722.802-3.9174.727s-2.6527-.472-3.8125-1.157v0Zm2.56-4.19c.7109.434,1.5174.688,2.3489.738.8315.051,1.6628-.103,2.4211-.448c1.892-.837,3.4583-2.27,4.4599-4.08c1.1434-1.722,1.7042-3.766,1.6001-5.83-.0252-.839-.2587-1.658-.6794-2.385-.4207-.726-1.0155-1.336-1.7307-1.775-.7423-.458-1.5826-.733-2.4518-.802-.8692-.07-1.7425.068-2.5482.402-1.9198.785-3.519,2.194-4.5399,4-1.1727,1.725-1.71,3.803-1.5201,5.88.0706.874.3465,1.719.8052,2.466.4588.747,1.0874,1.376,1.8349,1.834Zm20.33-.93l4.16,2.54c2.9466,1.8,3.8166,3.687,2.6099,5.66l-.6999,1.14-8.57-5.28-9.76,16c-.59,1-1.41,1.11-2.48.45-.2248-.085-.4266-.222-.5896-.398-.163-.177-.2827-.389-.3496-.62s-.0793-.474-.036-.71c.0432-.237.1409-.46.2852-.652l21-34.36c.1267-.208.2931-.388.4895-.531.1965-.143.4192-.247.6556-.304.2363-.057.4816-.067.7218-.029s.4706.122.6781.249.388.293.5312.489c.1432.197.2463.42.3034.656s.0671.482.0294.722-.1223.47-.249.678l-8.73,14.3Zm21.19,2.15l-10.2901,16.82c-1.84,3.02-4.0466,3.743-6.62,2.17l-3.2899-2c-.2647-.216-.5706-.375-.8991-.468s-.6725-.117-1.0109-.072c-.5085.201-.9687.508-1.35.9-.4338.447-.9286.831-1.47,1.14-.1736.068-.3614.092-.5465.069-.1851-.022-.3616-.091-.5135-.199-.8-.49-.9-1.25-.28-2.26l2.5399-4.15c.1317-.309.3336-.583.5896-.8s.5591-.372.8852-.451c.3262-.08.6663-.082.9936-.007.3272.074.6326.224.8917.438l5.76,3.52c.1072.094.2348.162.3727.198.138.037.2825.041.4222.011.1396-.029.2706-.09.3826-.178.1119-.089.2018-.202.2624-.331l10-16.35c.103-.233.2589-.44.4555-.602.1965-.163.4283-.277.6768-.334.2485-.058.507-.056.7548.004s.4783.177.673.342c.2355.104.4437.262.6081.46.1645.199.2808.433.3399.683.0591.251.0593.512.0007.763-.0587.251-.1746.485-.3387.684v0Z" fill="#c96678"/><path d="M87.5903,250.158c2.3025,2.301,4.1513,5.015,5.4499,8l14.5998-2.58c.763-.184,1.567-.062,2.24.34.298.146.547.376.714.663.167.286.246.616.226.947.003.389-.086.773-.259,1.12-.174.348-.428.65-.741.88-.625.476-1.376.758-2.16.81l-13.3298,1.09c.0651.098.1125.206.14.32c1.8408,4.836,2.8255,9.956,2.91,15.13.0524.424-.0408.852-.2644,1.216-.2235.363-.564.64-.9656.784-.81.28-1.28-.16-1.43-1.31-.6248-4.713-1.9953-9.297-4.06-13.58-1.4465-3.285-3.4003-6.322-5.79-9-.1314-.124-.2983-.205-.4776-.23s-.3618.007-.5224.09c-.498.253-.959.572-1.37.95-.75.7-1.42.79-2,.29s-.55-1.2.13-2.09l2.32-3c.2614-.446.6136-.833,1.034-1.134.4203-.302.8994-.511,1.406-.616.4094-.006.8158.071,1.1941.228.3784.156.7208.388,1.006.682v0Zm5.4099-14.22c-.4874-.479-1.1287-.769-1.81-.82-.5681.126-1.0906.407-1.51.81-.4837.408-1.0023.773-1.55,1.09-.1823.129-.4024.193-.6253.182s-.4357-.096-.6047-.242c-.73-.56-.69-1.35.1-2.39l3.07-4c.9667-1.266,2.0167-1.47,3.15-.61l32.9998,25.42c2.52,1.94,3,3.89,1.54,5.83l-.72.93-34.0398-26.2Z" fill="#c96678"/><path d="M106.48,224.448c-.145.205-.336.373-.558.492-.222.118-.468.183-.719.19s-.501-.045-.729-.151c-.227-.106-.427-.264-.584-.461-.207-.135-.38-.317-.505-.531s-.199-.454-.215-.702c-.017-.247.024-.494.12-.723.095-.229.243-.432.43-.594l10.62-11.79c.26-.348.592-.635.973-.843.382-.207.804-.329,1.237-.357.416.017.82.143,1.171.366s.637.535.829.904c1.513,2.621,2.486,5.518,2.86,8.52l10.48-1c.341-.087.697-.098,1.043-.032.345.065.672.206.957.412.234.185.414.429.523.707.109.277.142.578.097.873-.036.647-.306,1.258-.76,1.72-.229.245-.504.441-.81.579-.305.137-.635.212-.97.221h-10.33c.002.203.029.404.08.6.115,4.972-.56,9.93-2,14.69-.37,1.28-1,1.85-1.76,1.73s-1.13-.72-1-1.79c.73-4.078.902-8.236.51-12.36-.221-3.483-1.057-6.899-2.47-10.09l-8.52,9.42Zm16.12-22.76c-.446-.52-1.07-.855-1.75-.94-.57.081-1.108.313-1.56.67-.512.387-1.061.722-1.64,1-.193.108-.416.149-.635.117-.219-.033-.421-.137-.575-.297-.68-.61-.58-1.4.29-2.37l3.4-3.78c1-1.16,2.1-1.27,3.16-.31l8.34,7.5l4.67-5.18c.153-.205.351-.371.58-.486.228-.114.48-.174.735-.174.256,0,.508.06.736.174.228.115.427.281.579.486.212.135.389.318.518.533s.206.457.225.707c.02.25-.019.502-.113.734-.095.233-.242.44-.43.606l-4.67,5.19l5.51,5c2.307,2.087,2.64,4.057,1,5.91l-.75.83-17.62-15.92Zm7.73,35.66c-.7.78-1.52.75-2.45-.09s-1-1.61-.31-2.39l15.81-17.56c.92-1,1.94-1,3,0l8,7.24c2.494,2.24,2.98,4.207,1.46,5.9l-.94,1-10.68-9.62-13.89,15.52Z" fill="#c96678"/><path d="M160.66,211.808c-.331-.334-.585-.736-.746-1.178-.16-.442-.223-.913-.184-1.382.049-1.02.485-1.982,1.22-2.69.719-.739,1.691-1.178,2.72-1.23.936-.092,1.874.149,2.65.68c1.44,1.082,2.472,2.618,2.93,4.36.525,1.883.487,3.878-.11,5.74-.22.84-.64,1.29-1.27,1.34s-.87-.32-.73-1.13c.116-.779.116-1.571,0-2.35-.142-.826-.455-1.613-.92-2.31-.16-.27-.4-.24-.72.07-.635.627-1.487.985-2.38,1-.452.033-.906-.032-1.331-.19-.424-.159-.81-.408-1.129-.73v0Z" fill="#c96678"/><path d="M166.77,159.328l18.9-16c1.22-1,2.41-.87,3.57.5c1.66,2,3.756,4.783,6.29,8.35c2.253,3.068,4.093,6.421,5.47,9.97.094.223.143.463.143.705s-.049.482-.143.705c-.232.446-.61.799-1.07,1-.151.085-.318.136-.491.152-.172.015-.346-.006-.509-.062-.453-.237-.808-.627-1-1.1-1.378-2.436-2.949-4.757-4.7-6.94-2.134-2.76-4.5-5.68-7.1-8.76l-16.9,14.28c-.172.184-.384.326-.621.414-.236.088-.489.12-.74.092-.25-.027-.491-.112-.702-.249-.212-.136-.389-.32-.517-.537-.185-.159-.331-.357-.427-.58-.096-.224-.14-.466-.128-.709.011-.243.078-.48.195-.694.117-.213.281-.397.48-.537v0Zm48,4.49l-30.76,26c-.168.173-.373.304-.6.384s-.469.106-.708.076-.467-.115-.667-.249-.366-.312-.485-.521c-.81-1-.78-1.8.07-2.52l30.76-26c.172-.194.387-.345.628-.442.24-.097.5-.137.759-.116.258.02.509.1.731.233.223.134.412.317.552.535.186.174.329.387.419.625.091.238.125.493.101.747-.024.253-.106.497-.24.714-.133.216-.315.399-.53.534h-.03Z" fill="#c96678"/><path d="M227.34,112.918c1.087,2.008,1.696,4.239,1.78,6.52l11.92.88c.378-.013.754.06,1.1.212s.654.381.9.668c.342.484.479,1.085.38,1.67-.06.331-.188.645-.378.923-.19.277-.436.512-.722.687-.34.22-.721.368-1.12.437-.398.069-.807.056-1.2-.037l-10.92-2.13c0,.5-.06,1-.12,1.61-.455,4.281-1.586,8.463-3.35,12.39-.58,1.21-1.31,1.75-2.2,1.64s-1.14-.73-.77-1.84c1.146-3.462,1.78-7.074,1.88-10.72.229-3.052-.111-6.121-1-9.05-.14-.35-.46-.48-.94-.4-.522.092-1.029.25-1.51.47-.9.4-1.55.25-2-.46s-.21-1.32.59-1.87l3.05-2.06c.762-.619,1.708-.971,2.69-1c.423.05.826.211,1.167.468.341.256.607.599.773.992v0Zm11.58-9.17c-.53-.78-1-1.22-1.42-1.3-.58-.064-1.166.036-1.69.29-.59.236-1.199.42-1.82.55-.215.055-.441.041-.648-.04-.206-.081-.382-.224-.502-.41-.51-.76-.23-1.5.85-2.23l4.17-2.82c1.32-.9,2.39-.74,3.21.46l10.47,15.5c1.82,2.69,1.72,4.73-.32,6.1l-1,.66-5.86-8.66-7.4,5c-.407.231-.886.3-1.342.193-.455-.106-.854-.38-1.116-.767-.262-.388-.369-.86-.299-1.322.07-.463.311-.882.677-1.174l7.4-5-3.36-5.03Zm27.74,33.41l-16.43,11.12c-1.69,1.15-3.17.79-4.42-1.06l-2.22-3.28c-.255-.477-.686-.835-1.2-1-.431-.074-.87-.074-1.3,0-.321.115-.661.162-1,.14-.176-.032-.342-.103-.487-.207-.145-.103-.266-.238-.353-.393-.47-.7-.29-1.33.54-1.9l16.14-10.92-2.73-4-14.96,10.09c-.191.159-.415.272-.656.329-.241.058-.493.058-.734.002-.242-.056-.467-.168-.658-.326s-.342-.358-.442-.585c-.164-.177-.285-.39-.352-.621-.068-.232-.081-.476-.038-.713.042-.238.14-.462.284-.656.144-.193.33-.351.546-.46l17.3-11.7c1.11-.75,2.09-.5,3,.76l4,5.93c1.006,1.493.876,2.663-.39,3.51l-13.18,8.93l2.07,3.07c.083.159.202.297.348.402.146.106.314.176.492.205.177.029.359.016.531-.037s.329-.146.459-.27l13.88-9.39c.179-.167.395-.289.63-.357.235-.067.483-.079.724-.033.24.046.466.147.66.297.194.149.35.342.456.563.163.189.281.413.345.655.063.242.071.495.021.74-.049.245-.153.476-.305.674s-.348.36-.571.471v.02Z" fill="#c96678"/><path d="M279.63,104.678l-13.2,7.53c-1.78,1-3.23.55-4.33-1.39l-2.29-4c-.37-.65-.75-1-1.14-1.1-.437-.09-.886-.114-1.33-.07-.33.065-.67.065-1,0-.179-.036-.346-.113-.488-.226-.143-.113-.257-.258-.332-.424-.427-.76-.207-1.39.66-1.89l11.16-6.3599-2.76-4.85-9.9,5.64c-.204.1486-.439.2481-.687.2905-.249.0424-.503.0267-.745-.0459-.241-.0727-.462-.2003-.646-.3729s-.325-.3854-.412-.6217c-.155-.1938-.263-.4212-.315-.6641-.051-.2428-.045-.4944.018-.7345s.182-.462.346-.6481c.165-.1861.37-.331.601-.4233l12.38-7.06c1.13-.64,2.07-.3,2.83,1l3.92,6.88c.89,1.56.68,2.71-.61,3.45l-8.06,4.5899l2.17,3.79c.062.168.163.319.294.442.131.122.288.212.46.263.172.05.354.06.53.028s.343-.105.486-.213l10.62-6.06c.197-.15.427-.252.671-.297.244-.046.495-.035.734.033.238.068.458.19.641.358.183.167.325.375.414.606.164.2.278.436.333.689.055.252.048.515-.02.764-.067.25-.194.48-.368.671-.175.19-.393.337-.635.426v0Zm-5.15-19.8599c-.45-.79-.86-1.25-1.23-1.37-.56-.1154-1.14-.0774-1.68.11-.62.1956-1.262.3164-1.91.36-.203.0099-.404-.0374-.581-.1364-.176-.099-.322-.2458-.419-.4236-.42-.73-.06-1.42,1.07-2.07l4.22-2.41c.245-.2081.537-.354.85-.4255.314-.0714.64-.0661.951.0153.311.0815.598.2367.836.4526s.421.4861.533.7876l9.79,17.16c1.593,2.8,1.303,4.7999-.87,5.9999l-.92.53-5.91-10.3699-4.12,2.35c-.198.1499-.428.2518-.671.2976-.244.0459-.495.0344-.734-.0335s-.458-.1903-.641-.3576c-.183-.1674-.325-.375-.414-.6065-.16-.1947-.272-.424-.328-.6697s-.054-.5009.007-.7456c.06-.2446.176-.4719.34-.6637.163-.1917.369-.3428.601-.441l4.13-2.35-2.9-4.99ZM296.2,100.258c1.39-.7899,2.53-.4199,3.4,1.11l3.19,5.6c.735,1.123,1.121,2.438,1.11,3.78.2-.127.425-.209.66-.239.234-.03.473-.008.698.064.226.073.432.194.605.356.174.162.309.359.397.579.158.201.268.435.32.686.053.25.046.509-.019.756-.065.248-.187.476-.355.669-.169.192-.38.342-.616.439l-17.33,9.87c.005.531-.138,1.053-.411,1.509-.274.455-.668.826-1.139,1.071l-1,.55-5.83-10.23c-.382-.73-.831-1.423-1.34-2.07-.197-.146-.425-.244-.667-.286-.241-.042-.489-.026-.723.046-.431.064-.869.064-1.3,0-.186-.02-.364-.085-.52-.19-.155-.104-.282-.245-.37-.41-.45-.8-.16-1.49.88-2.08l20.36-11.58ZM276.68,74.7981l4.22-2.4c1.46-.83,2.54-.62,3.27.65l11.16,19.59c1.59,2.79,1.29,4.82-.91,6.07l-1,.55-11.9-20.87c-.265-.6123-.708-1.1313-1.27-1.49-.58-.1348-1.188-.0751-1.73.17-.614.2144-1.247.3685-1.89.46-.202.0222-.406-.0176-.584-.1141-.179-.0964-.324-.245-.416-.4259-.47-.8-.12-1.52,1.05-2.19v0ZM287.3,120.178l13.2-7.52-4.55-8-13.15,7.5l3.87,6.79c.24.43.44.8.63,1.23v0Z" fill="#c96678"/><path d="M339.39,72.868l-36.47,17.1c-1.007.4733-1.777.14-2.31-1-.53-1.13-.29-1.94.72-2.41l36.46-17.0999c.224-.1155.47-.1847.721-.2032.252-.0186.505.0137.744.0951s.459.2099.648.3781c.188.1683.34.3727.448.6012.107.2284.167.4762.177.7285s-.031.5039-.121.7399-.226.4515-.401.6337-.384.3272-.616.4266v.01Zm-36.33-.24c-.552-1.2115-.801-2.5389-.726-3.868s.471-2.62,1.156-3.762c1.66-2.7693,4.107-4.981,7.03-6.3525s6.189-1.8407,9.38-1.3475c1.322.1815,2.578.6911,3.654,1.4824c1.075.7913,1.935,1.8391,2.502,3.0479.566,1.2088.821,2.5402.742,3.8729-.08,1.3326-.492,2.6242-1.198,3.7569-1.673,2.7571-4.123,4.9587-7.042,6.3286-2.92,1.3698-6.179,1.8469-9.368,1.3713-1.314-.1991-2.559-.7158-3.627-1.5052-1.068-.7895-1.928-1.8278-2.503-3.0248v0Zm4.45-2.09c.346.7115.86,1.3282,1.497,1.7968.638.4686,1.38.7752,2.163.8932c1.982.3519,4.026.0354,5.81-.9c1.829-.7735,3.352-2.1307,4.33-3.86.419-.6733.667-1.4396.721-2.2313s-.087-1.5845-.411-2.3087c-.353-.7153-.874-1.3345-1.519-1.8047-.644-.4702-1.393-.7774-2.181-.8953-1.971-.2877-3.983.0101-5.786.8564-1.802.8463-3.317,2.2037-4.354,3.9036-.408.6807-.646,1.4498-.693,2.242-.047.7921.098,1.5839.423,2.308v0Zm5.72,22.73c-.205.1332-.437.2172-.679.2456-.243.0284-.488.0003-.718-.082-.229-.0824-.436-.2167-.605-.3926-.169-.1758-.295-.3883-.368-.621-.144-.2068-.237-.4442-.273-.6933-.035-.2491-.012-.5031.067-.7418.08-.2387.214-.4557.392-.6336s.395-.3118.634-.3913l21.44-10.0599c1.21-.57,2.15-.1601,2.79,1.2199l2.68,5.7c.77,1.65.49,2.8-.86,3.43l-17,8l1.23,2.62c.052.168.143.321.265.448.123.127.273.223.439.281s.343.077.518.055c.175-.023.342-.086.488-.184l17.8-8.35c.209-.1323.446-.2142.692-.2394s.495.0071.727.0943c.231.0873.44.227.608.4084.169.1813.293.3993.363.6367.138.211.225.4513.254.7019s-.001.5044-.087.7414c-.087.237-.227.4505-.411.6235-.183.1731-.405.3009-.646.3732l-20.13,9.44c-2.16,1.007-3.784.34-4.87-2l-1.13-2.39c-.188-.512-.54-.948-1-1.24-.41-.161-.858-.203-1.29-.12-.32,0-.68,0-1.06,0-.19-.014-.371-.082-.523-.195-.153-.1133-.27-.2677-.337-.445-.38-.83-.11-1.46.84-1.91l20.28-9.5099-1.71-3.63-18.81,8.8099Z" fill="#c96678"/><path d="M359.46,49.348c-.466.1578-.975.1243-1.415-.0933-.441-.2175-.777-.6012-.935-1.0667s-.124-.9745.093-1.4152c.218-.4407.601-.7769,1.067-.9347l17-5.7901c.327-.1312.682-.1771,1.032-.1334s.683.1757.968.3834c.278.1704.512.4025.686.6782.173.2758.281.5878.314.9118.667,4.3867-.147,9.36-2.44,14.92-2.161,5.3459-5.203,10.2912-9,14.63-1,1.13-1.88,1.44-2.66.94s-.79-1.26,0-2.27c2.919-4.0508,5.221-8.5128,6.83-13.24c1.454-3.87,2.133-7.988,2-12.12l-13.54,4.6Zm24.33-14.5c-.31-.93-.67-1.49-1.07-1.67-.535-.207-1.114-.2691-1.68-.18-.64.0861-1.286.1062-1.93.06-.226.0078-.448-.0612-.629-.1955-.182-.1344-.313-.3263-.371-.5445-.29-.87.17-1.51,1.41-1.93l4.81-1.64c1.48-.5,2.45-.0799,2.91,1.2701l5,14.7999l6.61-2.25c.232-.1047.484-.1544.738-.1453.255.009.503.0767.727.1977.223.121.416.2921.563.4998.146.2078.243.4466.282.6978.118.2216.184.4675.192.7187.008.2511-.042.5007-.147.7292-.104.2284-.26.4297-.456.5879-.195.1582-.424.2692-.669.3242l-6.61,2.25l7.18,21.1001c1,2.9533.333,4.8299-2,5.6299l-1.06.3601-13.8-40.6701Z" fill="#c96678"/><path d="M447.17,40.3479l-39,9.87c-1.08.27-1.77-.1999-2.08-1.4199s.09-1.9,1.18-2.18l39-9.86c.236-.0598.481-.0725.722-.0375.24.035.472.117.681.2415.208.1244.391.2887.536.4837.146.1949.251.4165.311.6522s.072.481.037.7216-.117.472-.241.681c-.124.2089-.289.3913-.484.5367s-.416.251-.652.3107h-.01Zm-39.26-16.06L432,18.198c.476-.1326.985-.0707,1.416.1722.43.2428.746.6467.879,1.1228s.071.9853-.172,1.4157-.647.7466-1.123.8792L414.64,26.418l1.91,7.58c.019.19.083.3729.186.5339s.242.2955.406.3928c.165.0973.35.1546.54.1673.191.0127.382-.0194.558-.094l18.09-4.57c.229-.0859.474-.1175.718-.0924.243.0251.477.1062.683.237.207.1309.38.3078.506.517.127.2091.203.4448.223.6884.102.2309.148.4823.135.7342-.012.2519-.084.4974-.208.7168-.124.2195-.298.407-.508.5474-.209.1404-.449.23-.699.2615l-20.79,5.25c-2.213.56-3.597-.2766-4.15-2.5099l-1.71-6.75c-.15-.7856-.409-1.5463-.77-2.26-.14-.1827-.316-.3348-.517-.4466-.202-.1118-.424-.181-.653-.2034-.444-.0621-.883-.1624-1.31-.3-.179-.0616-.339-.1702-.462-.3144s-.205-.3188-.238-.5056c-.24-.86.21-1.4301,1.33-1.7101v0Zm9,32.87c-1.007.26-1.673-.22-2-1.44-.3-1.18.06-1.8999,1.07-2.1499l23.61-6c.279-.1064.579-.1464.877-.117.297.0294.584.1274.837.2864s.465.3746.621.6298c.155.2552.25.543.275.8408l2.31,9.16c.82,3.2533.13,5.1567-2.07,5.71l-1.36.34-3.18-12.6-20.99,5.3399Z" fill="#c96678"/><path d="M493.28,30.268l-17.77,2.48c-2.213.3067-3.474-.6633-3.78-2.9099L470.26,19.228c-.064-.7566-.222-1.5023-.47-2.22-.131-.2058-.303-.3817-.507-.5161-.203-.1344-.433-.2244-.673-.2639-.408-.1114-.806-.2551-1.19-.43-.174-.0708-.324-.189-.434-.341-.109-.1521-.174-.3319-.186-.519-.13-.91.33-1.43,1.36-1.57l20.25-2.8c.247-.0682.506-.0782.757-.0291.251.0492.487.156.69.3122s.366.3574.478.5877c.111.2303.168.4833.165.7392.069.2387.083.4901.039.7348s-.144.4757-.292.6753c-.149.1995-.341.362-.563.4747-.221.1128-.466.1728-.714.1752l-14.22,2l1.57,11.37c-.002.186.039.37.12.5374s.2.3136.348.427c.147.1135.319.1912.502.2268.182.0357.371.0285.55-.0211l15-2.07c1.15-.15,1.8.3699,2,1.5799.06.2362.064.4829.014.7211-.051.2383-.156.4617-.307.6531-.15.1913-.343.3454-.563.4505s-.461.1582-.704.1553Zm9.7,4.15c1.63-.22,2.56.5201,2.79,2.2301l1,7.44c.271,1.3152.124,2.6823-.42,3.9099.232-.0441.472-.0364.701.0226s.443.1678.625.3187c.182.1508.329.3401.43.5542s.154.4478.154.6845c.073.2448.088.5032.044.7548-.045.2516-.147.4893-.3.6942-.152.205-.35.3715-.579.4862-.228.1148-.48.1746-.735.1748l-18,2.49c-.196.4935-.523.9239-.946,1.2447s-.926.5198-1.454.5753l-1.11.1501-1.75-12.6801c-.08-.8263-.237-1.6432-.47-2.4399-.15-.36-.55-.6101-1.21-.7601-.418-.094-.824-.235-1.21-.42-.166-.0815-.309-.2042-.414-.3566-.105-.1523-.169-.3291-.186-.5134-.13-.9.4-1.44,1.58-1.6l21.46-2.96Zm-13.81,16l13.34-1.84-1.4-10.11-13.28,1.83l1.21,8.75c.06.42.11.88.13,1.32v.05ZM497.6,9.74803c-.001-.68671-.262-1.34757-.73-1.84998-.489-.3024-1.046-.47455-1.62-.5-.642-.03434-1.279-.13492-1.9-.30005-.215-.04323-.409-.15562-.554-.32-.144-.16438-.231-.37164-.246-.58997-.13-.91.45-1.45,1.75-1.63l5-.69001c1.55-.22,2.42.37998,2.62,1.78998l1.55,11.27l6.92-1c1.18-.16,1.86.4,2,1.67.074.24.091.4939.051.7418s-.137.4833-.283.6875-.338.372-.559.4901c-.222.1181-.468.1833-.719.1907l-6.92,1l.9,6.4899c.42,3.0934-.603,4.8067-3.07,5.1401l-1.11.1499L497.6,9.74803Z" fill="#c96678"/><path d="M516.48,21.668c-.126-1.5643.088-3.1372.627-4.6112.538-1.474,1.389-2.8142,2.493-3.9288c2.255-2.347,5.338-3.71822,8.59-3.82002c3.27-.26971,6.517.73742,9.06,2.81002c1.209.9962,2.199,2.2307,2.909,3.6264s1.124,2.9228,1.218,4.4859-.135,3.1288-.673,4.5994-1.373,2.8147-2.454,3.9483c-2.298,2.3338-5.406,3.6944-8.68,3.8-3.249.2693-6.476-.7346-9-2.8-1.23-.9728-2.234-2.2024-2.94-3.6032-.707-1.4007-1.099-2.9388-1.15-4.5068v0Zm4.9-.28c.024,1.0397.257,2.0639.687,3.0109.429.947,1.046,1.7971,1.813,2.4991.728.6656,1.585,1.1756,2.517,1.4989s1.92.4529,2.904.3811c.994-.042,1.97-.2842,2.868-.712.899-.4279,1.702-1.0326,2.362-1.778c1.345-1.6157,2.028-3.6818,1.909-5.7812-.119-2.0993-1.03-4.0754-2.55-5.5288-.741-.6627-1.609-1.1696-2.55-1.4908s-1.937-.4502-2.929-.3792c-.986.0383-1.953.2782-2.842.7047-.889.4266-1.682,1.0308-2.329,1.7753-.687.7898-1.207,1.7113-1.527,2.7085-.319.9972-.433,2.0491-.333,3.0915v0ZM546.791,5.74799c.041-.6841-.169-1.35984-.591-1.90003-.462-.33535-1.002-.54859-1.57-.61999-.637-.08147-1.264-.23231-1.87-.44995-.216-.06049-.405-.19207-.538-.37348-.132-.18141-.2-.40208-.191-.62652c0-.910005.57-1.400046,1.87-1.480046l5.079-.289978c1.56-.09,2.38.58,2.46,2.000004l.89,15.61l7-.39c1.19-.07,1.82.54,1.9,1.82s-.489,1.91-1.679,2l-7,.4l1.269,22.25c.18,3.1133-.976,4.74-3.47,4.88l-1.12.06-2.439-42.89001Z" fill="#c96678"/></g></g><mask id="eVAhDzp7YjU20" mask-type="luminance"><rect width="573.5" height="497.82935" rx="0" ry="0" fill="#d2dbed" stroke-width="0"/></mask></g></svg>
