<svg width="467" height="379" viewBox="0 0 467 379" fill="none" xmlns="http://www.w3.org/2000/svg">
<path d="M3.12012 109.09C6.22012 106.54 9.31002 104.17 12.77 101.62C20.77 95.2401 36.46 79.7601 42.47 72.1101C49.57 63.0001 53.9399 49.8901 53.9399 37.1101C53.9399 18.3401 46.29 8.11011 32.45 8.11011C22.06 8.11011 13.6899 14.1101 13.6899 21.2301C13.6899 24.1401 14.9601 24.8701 20.6101 24.8701C27.7101 24.6901 32.8101 29.9701 32.8101 37.2601C32.8101 45.0901 27.7101 50.1901 19.8801 50.1901C9.68013 50.1901 2.76001 42.7201 2.76001 31.9701C2.76001 13.2101 18.97 0.100098 42.47 0.100098C53.58 0.100098 63.0501 2.83011 70.3401 7.93011C79.8101 14.6701 85.6401 25.6001 85.6401 36.7101C85.6401 49.2801 79.08 60.5701 65.05 72.2301C54.49 80.9801 47.93 85.3501 25.53 98.4601C30.99 98.6501 33.7201 98.6501 36.8201 98.6501C56.6701 98.6501 69.82 97.9201 75.25 96.6501C82.18 95.0101 83.6301 93.0101 87.1001 81.3501C87.6401 79.7101 88.19 79.1601 89.46 79.1601C91.65 79.1601 92.9202 79.8901 92.9202 81.1601C92.9376 81.5908 92.8764 82.0212 92.74 82.4301C91.4325 89.7716 90.7037 97.2045 90.5601 104.66C90.1901 114.66 90.01 117.41 89.46 121.6C84.91 121.6 84.91 121.6 75.98 121.42C67.05 121.24 64.8701 121.23 60.3201 121.23C52.6701 121.23 46.66 121.42 32.99 122.14C20.06 122.69 13.1401 122.87 7.13013 122.87H4.56006C2.37006 122.87 1.4601 122.14 1.1001 119.78C0.603667 117.371 0.236378 114.938 0 112.49C0 111.58 0.190137 111.21 1.64014 110.12L3.12012 109.09Z" fill="#C96678"/>
<path d="M200.21 9.45004C214.06 21.29 222.44 41.8701 222.44 64.09C222.44 98.71 202.04 124.57 174.53 124.57C146.53 124.57 123.53 96.1501 123.53 61.5701C123.53 40.9901 131.18 22.4101 144.47 10.7501C153.22 3.28009 161.78 8.62302e-05 173.07 8.62302e-05C183.27 -0.0199138 193.11 3.44004 200.21 9.45004ZM155.56 51.1601C155.56 78.1601 158.65 105.08 162.84 112.55C165.57 117.65 168.84 119.65 173.95 119.65C180.88 119.65 184.52 116.37 186.71 108.36C188.53 101.62 189.98 83.22 189.98 66.46C189.98 47.7 187.25 21.46 184.52 13.64C182.52 7.81004 178.33 4.71005 172.31 4.71005C160.5 4.71005 155.56 18.1901 155.56 51.1601Z" fill="#C96678"/>
<path d="M254.5 109.09C257.59 106.54 260.69 104.17 264.15 101.62C272.15 95.2401 287.83 79.7601 293.84 72.1101C300.95 63.0001 305.32 49.8901 305.32 37.1101C305.32 18.3401 297.67 8.11011 283.82 8.11011C273.44 8.11011 265.06 14.1101 265.06 21.2301C265.06 24.1401 266.34 24.8701 271.98 24.8701C279.09 24.6901 284.19 29.9701 284.19 37.2601C284.19 45.0901 279.09 50.1901 271.26 50.1901C261.05 50.1901 254.13 42.7201 254.13 31.9701C254.13 13.2101 270.34 0.100098 293.84 0.100098C304.96 0.100098 314.43 2.83011 321.71 7.93011C331.19 14.6701 337.02 25.6001 337.02 36.7101C337.02 49.2801 330.46 60.5701 316.43 72.2301C305.87 80.9801 299.31 85.3501 276.9 98.4601C282.37 98.6501 285.1 98.6501 288.2 98.6501C308.05 98.6501 321.2 97.9201 326.63 96.6501C333.55 95.0101 335.01 93.0101 338.47 81.3501C339.02 79.7101 339.57 79.1601 340.84 79.1601C343.03 79.1601 344.3 79.8901 344.3 81.1601C344.317 81.5908 344.256 82.0212 344.12 82.4301C342.814 89.7721 342.082 97.2045 341.93 104.66C341.57 114.66 341.39 117.41 340.84 121.6C336.29 121.6 336.29 121.6 327.36 121.42C318.43 121.24 316.25 121.23 311.7 121.23C304.04 121.23 298.03 121.42 284.37 122.14C271.44 122.69 264.52 122.87 258.5 122.87H255.95C253.77 122.87 252.86 122.14 252.49 119.78C251.994 117.372 251.63 114.938 251.4 112.49C251.4 111.58 251.58 111.21 253.04 110.12L254.5 109.09Z" fill="#C96678"/>
<path d="M376.56 109.09C379.66 106.54 382.76 104.17 386.22 101.62C394.22 95.2401 409.9 79.7601 415.91 72.1101C423.01 63.0001 427.39 49.8901 427.39 37.1101C427.39 18.3401 419.73 8.11011 405.89 8.11011C395.51 8.11011 387.13 14.1101 387.13 21.2301C387.13 24.1401 388.4 24.8701 394.05 24.8701C401.15 24.6901 406.26 29.9701 406.26 37.2601C406.26 45.0901 401.15 50.1901 393.32 50.1901C383.12 50.1901 376.2 42.7201 376.2 31.9701C376.2 13.2101 392.41 0.100098 415.91 0.100098C427.02 0.100098 436.49 2.83011 443.78 7.93011C453.25 14.6701 459.08 25.6001 459.08 36.7101C459.08 49.2801 452.52 60.5701 438.5 72.2301C427.93 80.9801 421.37 85.3501 398.97 98.4601C404.43 98.6501 407.17 98.6501 410.26 98.6501C430.12 98.6501 443.26 97.9201 448.7 96.6501C455.62 95.0101 457.08 93.0101 460.54 81.3501C461.08 79.7101 461.63 79.1601 462.91 79.1601C465.09 79.1601 466.37 79.8901 466.37 81.1601C466.389 81.5917 466.324 82.0228 466.18 82.4301C464.878 89.7723 464.149 97.2047 464 104.66C463.64 114.66 463.45 117.41 462.91 121.6C458.35 121.6 458.35 121.6 449.43 121.42C440.51 121.24 438.31 121.23 433.76 121.23C426.11 121.23 420.1 121.42 406.44 122.14C393.5 122.69 386.58 122.87 380.57 122.87H378.02C375.83 122.87 374.92 122.14 374.56 119.78C374.065 117.372 373.701 114.938 373.47 112.49C373.47 111.58 373.65 111.21 375.11 110.12L376.56 109.09Z" fill="#C96678"/>
<path d="M76.9902 283.21C34.3602 283.21 30.3503 283.39 17.7903 284.48H17.0603C15.6003 284.48 15.0603 283.57 15.0603 281.57C15.0603 279.02 15.7902 277.38 16.7002 277.38H17.4304C19.8528 277.623 22.2857 277.743 24.7202 277.74C33.2802 277.74 36.0102 277.01 36.7202 274.83C37.0802 273.37 37.4502 252.06 37.4502 223.46V190.46C37.6302 187.36 37.6304 184.99 37.6304 184.46C37.6304 180.09 37.0804 179.54 32.8904 179.54C28.3167 179.704 23.7558 180.128 19.2302 180.81C17.5902 181 16.1404 181.18 15.4104 181.18C14.3104 181.18 13.5903 180.09 13.5903 177.9C13.5903 175.17 13.7703 174.99 18.3203 174.8C33.2603 173.53 47.3204 169.16 57.6704 162.42C59.8504 161.14 60.7703 160.78 62.7703 160.78C66.9603 160.78 66.9602 160.78 66.9602 170.07V250.22C66.9602 270.8 67.1402 273.72 68.2302 275.54C69.1402 277.18 70.0602 277.36 74.2302 277.36C76.9702 277.36 83.1602 277.36 84.9802 277.18H86.9802C88.4302 277.18 89.1604 278.09 89.1604 280.09C89.1604 282.46 88.8002 283.37 87.7002 283.37H86.7903C85.4017 283.186 83.9996 283.126 82.6003 283.19L76.9902 283.21Z" fill="#C96678"/>
<path d="M185.19 170.82C199.03 182.66 207.41 203.24 207.41 225.46C207.41 260.07 187.01 285.94 159.5 285.94C131.45 285.94 108.5 257.52 108.5 222.94C108.5 202.36 116.15 183.78 129.45 172.12C138.19 164.65 146.75 161.37 158.05 161.37C167.922 161.259 177.522 164.602 185.19 170.82V170.82ZM140.56 212.53C140.56 239.53 143.66 266.45 147.85 273.92C150.58 279.02 153.85 281.02 158.96 281.02C165.88 281.02 169.52 277.74 171.71 269.73C173.53 262.99 174.99 244.59 174.99 227.83C174.99 209.07 172.25 182.83 169.52 175.01C167.52 169.18 163.33 166.08 157.32 166.08C145.48 166.08 140.56 179.56 140.56 212.53Z" fill="#C96678"/>
<path d="M249.85 269.55C249.83 273.666 248.198 277.61 245.304 280.537C242.411 283.465 238.486 285.142 234.37 285.21C225.26 285.21 218.52 278.65 218.52 269.91C218.578 265.648 220.311 261.58 223.344 258.586C226.378 255.592 230.468 253.912 234.73 253.91C242.93 253.88 249.85 260.98 249.85 269.55Z" fill="#C96678"/>
<path d="M269.56 270.46C272.66 267.91 275.76 265.54 279.22 262.99C287.22 256.61 302.9 241.13 308.91 233.48C316.01 224.37 320.39 211.25 320.39 198.48C320.39 179.72 312.74 169.48 298.89 169.48C288.51 169.48 280.13 175.48 280.13 182.6C280.13 185.51 281.4 186.24 287.05 186.24C294.16 186.06 299.26 191.34 299.26 198.63C299.26 206.46 294.16 211.56 286.32 211.56C276.12 211.56 269.2 204.09 269.2 193.34C269.2 174.58 285.41 161.47 308.91 161.47C320.02 161.47 329.5 164.2 336.78 169.3C346.25 176.04 352.08 186.97 352.08 198.08C352.08 210.65 345.52 221.94 331.5 233.6C320.93 242.34 314.38 246.72 291.97 259.83C297.43 260.01 300.17 260.01 303.26 260.01C323.12 260.01 336.26 259.29 341.7 258.01C348.62 256.37 350.08 254.37 353.54 242.71C354.09 241.07 354.63 240.52 355.91 240.52C358.09 240.52 359.37 241.25 359.37 242.52C359.387 242.951 359.326 243.381 359.19 243.79C357.885 251.129 357.153 258.558 357 266.01C356.64 276.01 356.45 278.77 355.91 282.96C351.35 282.96 351.35 282.96 342.43 282.77C333.51 282.58 331.32 282.59 326.76 282.59C319.11 282.59 313.1 282.77 299.44 283.5C286.5 284.05 279.58 284.23 273.57 284.23H271.02C268.84 284.23 267.92 283.5 267.56 281.13C267.064 278.725 266.7 276.295 266.47 273.85C266.47 272.94 266.65 272.57 268.11 271.48L269.56 270.46Z" fill="#C96678"/>
<path d="M373.35 270.46C376.45 267.91 379.55 265.54 383.01 262.99C391.01 256.61 406.69 241.13 412.7 233.48C419.8 224.37 424.18 211.25 424.18 198.48C424.18 179.72 416.53 169.48 402.68 169.48C392.3 169.48 383.92 175.48 383.92 182.6C383.92 185.51 385.19 186.24 390.84 186.24C397.95 186.06 403.05 191.34 403.05 198.63C403.05 206.46 397.95 211.56 390.11 211.56C379.91 211.56 372.99 204.09 372.99 193.34C372.99 174.58 389.2 161.47 412.7 161.47C423.81 161.47 433.28 164.2 440.57 169.3C450.04 176.04 455.87 186.97 455.87 198.08C455.87 210.65 449.31 221.94 435.29 233.6C424.72 242.34 418.16 246.72 395.76 259.83C401.22 260.01 403.96 260.01 407.05 260.01C426.91 260.01 440.05 259.29 445.49 258.01C452.41 256.37 453.87 254.37 457.33 242.71C457.87 241.07 458.42 240.52 459.7 240.52C461.88 240.52 463.16 241.25 463.16 242.52C463.177 242.951 463.116 243.381 462.98 243.79C461.67 251.128 460.938 258.558 460.79 266.01C460.43 276.01 460.24 278.77 459.7 282.96C455.14 282.96 455.14 282.96 446.22 282.77C437.3 282.58 435.11 282.59 430.55 282.59C422.9 282.59 416.89 282.77 403.23 283.5C390.29 284.05 383.37 284.23 377.36 284.23H374.81C372.62 284.23 371.71 283.5 371.35 281.13C370.854 278.725 370.49 276.295 370.26 273.85C370.26 272.94 370.44 272.57 371.9 271.48L373.35 270.46Z" fill="#C96678"/>
<path d="M33.9102 341.88V351.11C33.9005 351.331 33.945 351.55 34.04 351.75C34.1277 351.936 34.2707 352.091 34.4497 352.193C34.6287 352.295 34.8349 352.339 35.04 352.32H56.5601L61.9001 349.84L67.25 352.32V353.53H42.74L43.0601 353.66C43.6939 353.877 44.3093 354.144 44.9001 354.46C45.4761 354.764 46.0131 355.137 46.5 355.57C46.9533 355.991 47.3291 356.489 47.6101 357.04C47.8865 357.614 48.0267 358.243 48.02 358.88V367.73H60.5L66.74 363.53L72.98 367.73V368.98H24.21L20.45 370.63L16.6899 368.98V367.7H38.0901V353.5H26.0901C25.5659 353.532 25.0448 353.399 24.6001 353.12C24.2626 352.896 23.9873 352.589 23.8 352.23C23.6268 351.826 23.5188 351.397 23.48 350.96V330.33H20.3C20.1303 330.33 19.9674 330.262 19.8474 330.142C19.7274 330.022 19.6602 329.86 19.6602 329.69C19.6602 329.52 19.7274 329.357 19.8474 329.237C19.9674 329.117 20.1303 329.05 20.3 329.05H57.55L62.9001 326.57L68.25 329.05V330.33H33.99V340.58L53.0901 340.51L58.4399 338.03L63.79 340.51V341.79L34.05 341.85L33.9102 341.88Z" fill="#C96678"/>
<path d="M85.2998 368.98L81.5398 370.63L77.7798 368.98V367.7H90.8999V352.49L92.3699 352.74C91.4403 352.323 90.5441 351.835 89.6897 351.28C87.8718 350.168 86.2834 348.719 85.0098 347.01C83.8767 345.505 83.2626 343.674 83.2598 341.79C83.2751 339.869 83.8866 337.999 85.0098 336.44C86.2757 334.645 87.8747 333.111 89.7197 331.92C91.8492 330.531 94.18 329.479 96.6299 328.8C102.118 327.267 107.922 327.267 113.41 328.8C115.871 329.473 118.213 330.526 120.35 331.92C122.197 333.108 123.797 334.643 125.06 336.44C126.183 337.999 126.794 339.869 126.81 341.79C126.807 343.674 126.193 345.505 125.06 347.01C123.774 348.729 122.163 350.18 120.32 351.28C118.687 352.3 116.933 353.113 115.1 353.7C115.691 353.91 116.266 354.164 116.82 354.46C117.394 354.749 117.929 355.113 118.41 355.54C118.866 355.958 119.242 356.457 119.52 357.01C119.805 357.581 119.948 358.212 119.94 358.85V367.7H121.56L127.8 363.5L134.04 367.7V368.98H85.2998ZM105.04 352.61C106.662 352.619 108.271 352.316 109.78 351.72C111.235 351.165 112.586 350.37 113.78 349.37C114.909 348.413 115.839 347.244 116.52 345.93C117.183 344.651 117.526 343.231 117.52 341.79C117.517 340.309 117.175 338.848 116.52 337.52C115.847 336.128 114.918 334.876 113.78 333.83C112.601 332.751 111.249 331.879 109.78 331.25C108.283 330.597 106.668 330.26 105.035 330.26C103.402 330.26 101.787 330.597 100.29 331.25C98.8221 331.881 97.4702 332.753 96.2898 333.83C95.1549 334.876 94.2286 336.129 93.5598 337.52C92.9049 338.848 92.5628 340.309 92.5598 341.79C92.554 343.231 92.8971 344.651 93.5598 345.93C94.2365 347.244 95.164 348.413 96.2898 349.37C97.4852 350.367 98.8366 351.161 100.29 351.72C101.8 352.327 103.412 352.64 105.04 352.64V352.61ZM105.04 355.22C102.599 355.233 100.165 354.978 97.7798 354.46C98.312 354.787 98.8231 355.148 99.3098 355.54C99.7631 355.961 100.139 356.459 100.42 357.01C100.701 357.582 100.842 358.213 100.83 358.85V367.7H110V354.98C108.354 355.177 106.697 355.267 105.04 355.25V355.22Z" fill="#C96678"/>
<path d="M160.28 327.81C162.164 328.088 164.001 328.623 165.74 329.4C167.346 330.124 168.83 331.092 170.14 332.27C171.366 333.378 172.361 334.717 173.07 336.21C173.754 337.709 174.096 339.342 174.07 340.99C174.09 342.743 173.642 344.469 172.77 345.99C171.864 347.533 170.644 348.868 169.19 349.91C167.584 351.059 165.796 351.928 163.9 352.48C161.798 353.111 159.614 353.425 157.42 353.41C155.239 353.426 153.067 353.113 150.98 352.48C149.102 351.928 147.334 351.059 145.75 349.91C144.312 348.862 143.107 347.527 142.21 345.99C141.334 344.47 140.882 342.744 140.9 340.99C140.874 339.045 141.405 337.133 142.43 335.48C143.453 333.848 144.784 332.432 146.35 331.31C147.974 330.151 149.774 329.26 151.68 328.67C153.534 328.07 155.471 327.76 157.42 327.75C157.933 327.75 158.413 327.75 158.86 327.75C159.36 327.8 159.81 327.81 160.28 327.81ZM157.44 351.31C158.611 351.345 159.77 351.058 160.79 350.48C161.695 349.932 162.448 349.165 162.98 348.25C163.562 347.234 163.962 346.124 164.16 344.97C164.398 343.65 164.515 342.311 164.51 340.97C164.512 339.573 164.395 338.178 164.16 336.8C163.958 335.555 163.56 334.35 162.98 333.23C162.466 332.235 161.714 331.383 160.79 330.75C159.79 330.115 158.623 329.794 157.44 329.83C156.268 329.792 155.113 330.113 154.13 330.75C153.22 331.39 152.478 332.241 151.97 333.23C151.385 334.348 150.987 335.554 150.79 336.8C150.55 338.177 150.433 339.572 150.44 340.97C150.429 342.311 150.546 343.651 150.79 344.97C150.982 346.125 151.382 347.237 151.97 348.25C152.496 349.159 153.238 349.925 154.13 350.48C155.134 351.061 156.28 351.348 157.44 351.31ZM193.04 376.71V377.92H157.56C156.742 377.975 155.928 377.765 155.24 377.32C154.749 376.973 154.362 376.5 154.12 375.95C153.849 375.316 153.697 374.639 153.67 373.95V366.81H151.76C151.605 366.791 151.463 366.715 151.36 366.598C151.256 366.482 151.2 366.331 151.2 366.175C151.2 366.019 151.256 365.869 151.36 365.752C151.463 365.635 151.605 365.56 151.76 365.54H182.46V358.54H162.46L157.11 361.03L151.76 358.54V357.34H181.69L187.04 354.85L192.39 357.34V366.76H164.18V375.48C164.17 375.701 164.215 375.921 164.31 376.12C164.397 376.307 164.54 376.461 164.719 376.563C164.898 376.665 165.105 376.71 165.31 376.69H178.68L185.81 373.32L193.04 376.71ZM192.04 347.71C192.056 348.345 191.924 348.975 191.653 349.55C191.382 350.125 190.98 350.628 190.48 351.02C189.466 351.855 188.311 352.502 187.07 352.93C185.446 353.481 183.771 353.866 182.07 354.08V325.42L178.57 325.04C178.491 325.044 178.413 325.028 178.341 324.995C178.27 324.962 178.208 324.912 178.16 324.85C178.061 324.748 178.004 324.612 178 324.47C177.986 324.383 177.993 324.294 178.02 324.21C178.048 324.126 178.095 324.05 178.157 323.987C178.219 323.925 178.296 323.878 178.38 323.851C178.463 323.823 178.553 323.816 178.64 323.83H178.7L192.01 325.1L192.04 347.71Z" fill="#C96678"/>
<path d="M211.88 369.65V369.84C211.908 371.444 211.605 373.038 210.99 374.52C210.542 375.54 209.893 376.458 209.08 377.22C208.313 377.969 207.371 378.515 206.34 378.81V375.18C205.634 375.191 204.934 375.055 204.283 374.781C203.632 374.508 203.046 374.102 202.56 373.59C201.938 372.957 201.481 372.182 201.228 371.331C200.975 370.481 200.933 369.582 201.107 368.712C201.281 367.842 201.665 367.028 202.225 366.341C202.786 365.653 203.506 365.113 204.323 364.768C205.14 364.422 206.029 364.282 206.913 364.359C207.797 364.436 208.648 364.728 209.393 365.209C210.138 365.69 210.755 366.347 211.188 367.121C211.621 367.895 211.859 368.763 211.88 369.65V369.65Z" fill="#C96678"/>
<path d="M244.04 368.98L240.28 370.63L236.56 368.98V367.7H258.56V354.84C257.46 354.67 256.39 354.46 255.37 354.2C252.94 353.567 250.616 352.583 248.47 351.28C246.634 350.177 245.031 348.726 243.75 347.01C242.621 345.503 242.007 343.673 242 341.79C242.02 339.869 242.631 338.001 243.75 336.44C245.016 334.642 246.619 333.107 248.47 331.92C250.595 330.529 252.923 329.477 255.37 328.8C260.858 327.267 266.662 327.267 272.15 328.8C274.612 329.471 276.954 330.524 279.09 331.92C280.941 333.107 282.544 334.642 283.81 336.44C284.929 338.001 285.54 339.869 285.56 341.79C285.553 343.673 284.939 345.503 283.81 347.01C282.529 348.726 280.926 350.177 279.09 351.28C276.914 352.595 274.555 353.579 272.09 354.2C270.234 354.689 268.341 355.024 266.43 355.2L266.93 355.58C267.389 355.998 267.769 356.496 268.05 357.05C268.326 357.624 268.467 358.253 268.46 358.89V367.74H280.31L286.55 363.54L292.79 367.74V368.98H244.04ZM263.78 352.61C265.403 352.62 267.012 352.318 268.52 351.72C269.976 351.166 271.328 350.372 272.52 349.37C273.649 348.413 274.58 347.244 275.26 345.93C275.923 344.651 276.266 343.231 276.26 341.79C276.257 340.309 275.915 338.848 275.26 337.52C274.588 336.128 273.658 334.876 272.52 333.83C271.343 332.749 269.99 331.876 268.52 331.25C267.025 330.597 265.411 330.26 263.78 330.26C262.149 330.26 260.535 330.597 259.04 331.25C257.57 331.876 256.217 332.749 255.04 333.83C253.902 334.876 252.972 336.128 252.3 337.52C251.645 338.848 251.303 340.309 251.3 341.79C251.294 343.231 251.637 344.651 252.3 345.93C252.98 347.244 253.911 348.413 255.04 349.37C256.232 350.372 257.585 351.166 259.04 351.72C260.546 352.328 262.156 352.641 263.78 352.64V352.61Z" fill="#C96678"/>
<path d="M334.72 331.63H325.23C325.02 332.35 324.76 333.29 324.46 334.43C324.16 335.57 323.86 336.69 323.54 337.77C323.22 338.85 322.95 339.77 322.71 340.64C322.604 341.086 322.467 341.523 322.3 341.95C322.86 342.423 323.466 342.839 324.11 343.19C324.9 343.63 325.74 344.12 326.63 344.65C327.52 345.18 328.43 345.77 329.37 346.4C330.261 346.995 331.101 347.664 331.88 348.4C332.591 349.085 333.204 349.866 333.7 350.72C334.159 351.525 334.378 352.445 334.33 353.37C334.386 354.582 334.014 355.775 333.28 356.74C333.017 357.041 332.694 357.285 332.333 357.457C331.972 357.629 331.58 357.725 331.18 357.74C330.38 357.756 329.589 357.559 328.89 357.17C328.271 356.867 327.735 356.417 327.33 355.86C326.908 355.269 326.45 354.705 325.96 354.17C325.3 353.43 324.59 352.6 323.83 351.69C323.07 350.78 322.3 349.8 321.54 348.76C320.832 347.819 320.212 346.815 319.69 345.76L317.27 349.39C316.364 350.545 315.288 351.556 314.08 352.39C312.904 353.205 311.635 353.876 310.3 354.39C308.843 354.949 307.353 355.42 305.84 355.8C304.247 356.2 302.536 356.613 300.71 357.04L299.95 355.76C303.067 353.991 305.883 351.736 308.29 349.08C310.005 347.141 311.394 344.935 312.4 342.55C313.181 340.638 313.644 338.611 313.77 336.55C313.85 334.68 313.94 333.02 314.02 331.55H308.23L305.11 333.21L301.99 331.55V330.28H314.85H315.85C316.57 330.28 317.44 330.28 318.46 330.28H321.61C322.69 330.28 323.61 330.28 324.25 330.28L329.86 327.79L334.7 330.28L334.72 331.63ZM314.98 377.1C314.231 377.152 313.487 376.948 312.87 376.52C312.445 376.177 312.103 375.743 311.87 375.25C311.598 374.648 311.445 374 311.42 373.34V361.56H308.24C308.07 361.56 307.907 361.493 307.787 361.373C307.667 361.253 307.6 361.09 307.6 360.92C307.6 360.75 307.667 360.587 307.787 360.467C307.907 360.347 308.07 360.28 308.24 360.28H316.01C316.802 360.238 317.591 360.403 318.3 360.76C319.004 361.112 319.641 361.586 320.18 362.16C320.696 362.719 321.124 363.353 321.45 364.04C321.757 364.662 321.922 365.346 321.93 366.04V374.7C321.923 374.916 321.964 375.131 322.05 375.33C322.136 375.518 322.278 375.675 322.458 375.779C322.637 375.883 322.844 375.929 323.05 375.91H340.69L346.04 373.42L351.39 375.91V377.12L314.98 377.1ZM341.66 325.52L338.15 325.13C337.992 325.12 337.843 325.048 337.737 324.931C337.631 324.813 337.574 324.659 337.58 324.5C337.58 324.12 337.79 323.92 338.22 323.92H338.28L351.59 325.2V358.2C351.607 358.835 351.475 359.466 351.204 360.041C350.933 360.616 350.531 361.119 350.03 361.51C349.016 362.345 347.861 362.992 346.62 363.42C344.997 363.975 343.322 364.36 341.62 364.57V341.33H337.16C336.787 342.041 336.227 342.635 335.54 343.05C334.835 343.469 334.029 343.687 333.21 343.68C332.029 343.68 330.896 343.211 330.06 342.377C329.223 341.543 328.752 340.411 328.75 339.23H341.62L341.66 325.52Z" fill="#C96678"/>
<path d="M361.78 331.98L377.78 328.16V376.49H365.78V333.19H361.78V331.98Z" fill="#C96678"/>
<path d="M389.22 331.98L405.22 328.16V376.49H393.22V333.19H389.22V331.98Z" fill="#C96678"/>
<path d="M431.76 330.29C432.831 330.211 433.894 330.516 434.76 331.15C435.368 331.651 435.839 332.298 436.13 333.03C436.444 333.886 436.553 334.804 436.45 335.71C436.28 337.23 436.06 338.77 435.78 340.32C435.521 341.789 435.187 343.244 434.78 344.68C435.398 345.226 436.045 345.737 436.72 346.21C437.59 346.85 438.54 347.57 439.58 348.38C440.62 349.19 441.68 350.08 442.77 351.05C443.807 351.989 444.786 352.991 445.7 354.05C446.509 354.976 447.223 355.981 447.83 357.05C448.348 357.927 448.611 358.931 448.59 359.95C448.612 361.267 448.174 362.551 447.35 363.58C446.674 364.341 445.786 364.884 444.8 365.14C443.854 365.372 442.861 365.327 441.94 365.01C441.057 364.743 440.284 364.196 439.74 363.45C438.723 362.059 437.82 360.587 437.04 359.05C436.379 357.751 435.791 356.415 435.28 355.05C434.82 353.8 434.43 352.67 434.14 351.65C433.865 350.736 433.531 349.841 433.14 348.97L432.06 351.07C431.029 352.795 429.74 354.353 428.24 355.69C426.645 357.131 424.929 358.432 423.11 359.58C421.275 360.737 419.375 361.788 417.42 362.73C415.46 363.657 413.59 364.483 411.81 365.21L411.05 363.94C413.34 362.556 415.409 360.837 417.19 358.84C420.322 355.329 422.589 351.134 423.81 346.59C424.354 344.6 424.781 342.58 425.09 340.54C425.364 338.653 425.534 336.923 425.6 335.35C425.66 333.78 425.71 332.5 425.76 331.53H422.38C422.211 331.53 422.048 331.463 421.928 331.343C421.808 331.223 421.74 331.06 421.74 330.89C421.74 330.72 421.808 330.557 421.928 330.437C422.048 330.317 422.211 330.25 422.38 330.25L431.76 330.29ZM454.68 325.52L451.18 325.13C451.022 325.12 450.874 325.048 450.768 324.931C450.661 324.813 450.605 324.659 450.61 324.5C450.61 324.12 450.82 323.92 451.24 323.92H451.31L464.62 325.2V371.56C464.636 372.195 464.503 372.825 464.232 373.4C463.961 373.974 463.56 374.478 463.06 374.87C462.042 375.698 460.889 376.345 459.65 376.78C458.028 377.332 456.352 377.714 454.65 377.92L454.68 325.52Z" fill="#C96678"/>
</svg>
