<svg width="224" height="74" viewBox="0 0 224 74" fill="none" xmlns="http://www.w3.org/2000/svg">
<path d="M25.48 55.6187V37.959C25.5442 37.4577 25.5066 36.9487 25.3691 36.4624C25.2317 35.9761 24.9969 35.5224 24.6797 35.1289C23.837 34.5424 22.8734 34.1526 21.8599 33.9888C21.214 33.8914 20.5966 33.6561 20.0498 33.2988C19.8851 33.1441 19.758 32.9537 19.6782 32.7422C19.5985 32.5307 19.5683 32.3041 19.5898 32.0791C19.5898 30.9591 20.4597 30.3989 22.1997 30.3989H28.5C30.69 30.3989 31.7798 31.5389 31.7798 33.8389V55.6187H62.21C64.06 55.6187 64.9897 56.4088 64.9897 57.9888C64.9897 59.5688 64.06 60.3589 62.21 60.3589H2.52002C0.84002 60.3589 0 59.5688 0 57.9888C0 56.4088 0.84002 55.6187 2.52002 55.6187H25.48ZM12.1499 9.29883H48.5601C50.9101 9.29883 52.0898 10.5787 52.0898 13.1187C52.0898 15.6587 52.0001 18.2189 51.8301 20.9189C51.6601 23.6189 51.4397 26.399 51.1597 29.249C50.8936 32.0445 50.4867 34.8248 49.9399 37.5791C49.4944 39.905 48.8246 42.1821 47.9399 44.3789C47.6646 45.0225 47.1728 45.5494 46.5498 45.8687C45.9583 46.1488 45.2818 46.1918 44.6597 45.9888C44.0397 45.8288 43.6599 45.5188 43.6099 44.9888C43.5105 44.4197 43.5105 43.8381 43.6099 43.269C44.0889 41.1543 44.423 39.0094 44.6099 36.8491C44.7999 34.5591 44.9498 32.109 45.0698 29.519C45.1898 26.929 45.2799 24.3988 45.3599 21.7988C45.4399 19.1988 45.4897 16.6291 45.4897 14.0791H12.1997C10.3997 14.0791 9.50977 13.2589 9.50977 11.6289C9.50977 9.99891 10.4499 9.29883 12.1499 9.29883Z" fill="#616160"/>
<path d="M111.72 12.21C111.19 16.1243 109.936 19.9055 108.02 23.3599L123.07 36.9697C123.837 37.6206 124.368 38.5064 124.58 39.4897C124.644 39.8554 124.624 40.231 124.522 40.5879C124.42 40.9448 124.238 41.2736 123.99 41.5498C123.688 41.8646 123.322 42.1102 122.916 42.269C122.511 42.4279 122.075 42.4963 121.64 42.4697C121.124 42.4629 120.615 42.3433 120.15 42.1187C119.686 41.894 119.276 41.5701 118.95 41.1699L105.83 27.0298C105.44 27.6998 105.02 28.3598 104.57 29.0298C100.573 34.7249 95.6241 39.6876 89.9399 43.6997C88.2599 44.8797 86.9996 45.0196 86.1596 44.1196C85.3196 43.2196 85.5434 42.2196 86.8301 41.1196C91.7079 36.9181 95.8807 31.9622 99.1899 26.4399C102.27 21.1933 104.09 16.6331 104.65 12.7598C104.732 12.4099 104.672 12.0421 104.485 11.7354C104.298 11.4286 103.998 11.2073 103.65 11.1196C102.827 10.8291 101.981 10.6117 101.12 10.4697C99.9501 10.2697 99.3799 9.6401 99.4399 8.6001C99.4999 7.5601 100.2 7.02979 101.54 7.02979H106.84C108.91 7.02979 110.29 7.47963 110.96 8.36963C111.68 9.51134 111.951 10.88 111.72 12.21ZM141.9 71.5098H113.99C108.83 71.5098 106.25 69.27 106.25 64.79V56.5298C106.382 55.4826 106.094 54.4259 105.45 53.5898C104.673 52.9905 103.765 52.5857 102.8 52.4097C102.031 52.2301 101.286 51.9619 100.58 51.6099C100.384 51.4661 100.229 51.2725 100.133 51.0493C100.036 50.8261 100 50.5813 100.03 50.3398C100.03 49.2198 100.87 48.6597 102.55 48.6597H109.28C111.46 48.6597 112.56 49.86 112.56 52.25V65.02C112.56 66.09 113.06 66.6196 114.07 66.6196H141.9C143.75 66.6196 144.67 67.4398 144.67 69.0698C144.67 70.6998 143.75 71.5098 141.9 71.5098V71.5098ZM134.9 7.8501C134.962 7.31287 134.911 6.7685 134.751 6.25195C134.591 5.73541 134.325 5.25803 133.97 4.8501C133.185 4.23996 132.26 3.8343 131.28 3.66992C130.417 3.49393 129.573 3.23607 128.76 2.8999C128.51 2.80999 128.294 2.64366 128.144 2.4248C127.993 2.20594 127.915 1.94536 127.92 1.67969C127.92 0.559687 128.79 0 130.53 0H137.84C140.08 0 141.2 1.06996 141.2 3.20996V47.77C141.2 52.55 139.61 54.9497 136.41 54.9497H134.9V25.8101H120.9C119.1 25.8101 118.21 25.0199 118.21 23.4399C118.21 21.8599 119.1 21 120.9 21H134.9V7.8501Z" fill="#616160"/>
<path d="M204.68 37.73H178.15C174.903 37.73 173.28 36.0633 173.28 32.73V16.4097C173.334 15.2183 173.233 14.0253 172.98 12.8599C172.79 12.2199 172.07 11.7 170.84 11.29C170.332 11.1142 169.85 10.8685 169.41 10.5601C169.22 10.4289 169.067 10.2517 168.963 10.0454C168.86 9.83914 168.811 9.61033 168.82 9.37988C168.82 8.25988 169.52 7.69971 170.92 7.69971H201.53C203.32 7.69971 204.22 8.50965 204.22 10.1396C204.22 11.7696 203.32 12.5098 201.53 12.5098H179.58V30.8599C179.58 32.2799 180.26 32.9897 181.58 32.9897H204.7C206.44 32.9897 207.31 33.7899 207.31 35.3599C207.31 36.9299 206.42 37.73 204.68 37.73ZM185.26 52.1797C183.75 52.1797 182.99 51.36 182.99 49.73C182.99 48.1 183.72 47.3599 185.18 47.3599H219.9C221.967 47.3599 223.003 48.4566 223.01 50.6499V66.4697C223.01 71.3097 221.554 73.73 218.64 73.73H216.79V52.1797H185.26ZM217.38 7.8501C217.442 7.31287 217.391 6.7685 217.231 6.25195C217.071 5.73541 216.805 5.25803 216.45 4.8501C215.665 4.23996 214.74 3.8343 213.76 3.66992C212.897 3.49393 212.053 3.23607 211.24 2.8999C210.99 2.80999 210.774 2.64366 210.624 2.4248C210.473 2.20594 210.395 1.94536 210.4 1.67969C210.4 0.559687 211.27 0 213 0H220.32C222.56 0 223.68 1.06996 223.68 3.20996V36.3799C223.68 41.1199 222.084 43.4897 218.89 43.4897H217.38V25.3696H201.15C199.3 25.3696 198.38 24.5597 198.38 22.9297C198.38 21.2997 199.3 20.5601 201.15 20.5601H217.38V7.8501Z" fill="#616160"/>
</svg>
