<svg width="232" height="74" viewBox="0 0 232 74" fill="none" xmlns="http://www.w3.org/2000/svg">
<path d="M32.6211 39.7202H9.08105C8.77478 40.3704 8.28752 40.9182 7.67724 41.2979C7.06696 41.6775 6.35972 41.873 5.64111 41.8604H4.21142V15.4902C4.28138 14.593 4.15123 13.6912 3.83105 12.8501C3.50662 12.367 3.00938 12.0272 2.4414 11.9004C1.86743 11.7544 1.30555 11.5635 0.761223 11.3301C0.526803 11.235 0.327559 11.0696 0.191399 10.8564C0.0552382 10.6432 -0.0108708 10.3928 0.00145732 10.1401C0.00145732 9.02014 0.79132 8.45996 2.36132 8.45996H7.36132C9.42799 8.45996 10.4645 9.55357 10.4712 11.7402V18.0903H27.9614V12.9702C28.0517 12.1121 27.8881 11.2461 27.4912 10.48C27.0993 10.0495 26.5875 9.74677 26.0215 9.61035C25.3989 9.41785 24.7934 9.17369 24.2114 8.88037C24.0102 8.77622 23.8433 8.6155 23.7314 8.41846C23.6196 8.22141 23.5673 7.99617 23.581 7.77002C23.581 6.70002 24.4015 6.16992 26.0215 6.16992H30.8115C33.0515 6.16992 34.1811 7.2602 34.1811 9.4502V29.6304C34.3306 31.5381 33.7913 33.4358 32.6611 34.98C34.4011 34.98 35.2715 35.74 35.2715 37.27C35.2715 38.8 34.3211 39.7202 32.6211 39.7202ZM10.2612 34.98H27.9214V22.9102H10.4311V32.6201C10.4306 33.4098 10.3739 34.1983 10.2612 34.98V34.98ZM15.2612 52.5601C13.6912 52.5601 12.9111 51.7404 12.9111 50.1104C12.9111 48.4804 13.6611 47.7402 15.1811 47.7402H49.8115C51.8915 47.7402 52.9214 48.8403 52.9214 51.0303V66.4702C52.9214 71.3102 51.4713 73.73 48.5513 73.73H46.7915V52.5601H15.2612ZM47.2612 7.8501C47.3217 7.30746 47.2635 6.75821 47.0908 6.24023C46.9182 5.72226 46.6352 5.24791 46.2612 4.8501C45.4871 4.25125 44.5825 3.8436 43.6211 3.66016C42.7399 3.49869 41.8786 3.24415 41.0513 2.90039C40.8095 2.80271 40.6034 2.63355 40.4604 2.41553C40.3175 2.19751 40.2447 1.9408 40.2515 1.68018C40.2515 0.560176 41.1213 0 42.8613 0H50.2612C52.4412 0 53.5415 1.05996 53.5415 3.20996V20.9102H64.3813C66.1813 20.9102 67.0713 21.7201 67.0713 23.3501C67.0713 24.9801 66.1813 25.8003 64.3813 25.8003H53.5415V36.8003C53.5415 41.467 51.9145 43.8003 48.6611 43.8003H47.2314L47.2612 7.8501Z" fill="#616160"/>
<path d="M137.861 38.27H122.861V55.6201H149.341C151.241 55.6201 152.201 56.41 152.201 57.98C152.201 59.55 151.201 60.3501 149.341 60.3501H89.7314C88.0514 60.3501 87.2114 59.56 87.2114 57.98C87.2114 56.41 88.0514 55.6201 89.7314 55.6201H116.551V38.27H108.321C103.115 38.27 100.508 36 100.501 31.46V16.0303C100.593 15.0202 100.421 14.0036 100.001 13.0801C99.4422 12.4608 98.711 12.0224 97.9014 11.8203C97.0891 11.6422 96.3071 11.3453 95.5811 10.9399C95.3748 10.8036 95.2082 10.6157 95.0977 10.3945C94.9871 10.1734 94.9365 9.927 94.9512 9.68018C94.9512 8.61018 95.8215 8.08008 97.5615 8.08008H102.181C105.261 8.08008 106.812 9.43037 106.812 12.1304V31.77C106.78 31.9866 106.799 32.2077 106.868 32.4155C106.936 32.6234 107.052 32.8125 107.207 32.9678C107.361 33.123 107.549 33.2402 107.756 33.3101C107.964 33.3799 108.185 33.4003 108.401 33.3701H137.911C139.761 33.3701 140.691 34.1903 140.691 35.8203C140.691 37.4503 139.711 38.27 137.861 38.27Z" fill="#616160"/>
<path d="M198.971 12.2002C198.444 16.1181 197.189 19.9031 195.272 23.3604L210.321 36.9702C211.092 37.6181 211.623 38.5052 211.831 39.4902C211.895 39.8559 211.875 40.2311 211.773 40.5879C211.67 40.9446 211.489 41.2737 211.241 41.5503C210.94 41.8651 210.574 42.1102 210.168 42.269C209.762 42.4279 209.326 42.4968 208.891 42.4702C208.375 42.4634 207.867 42.3433 207.402 42.1187C206.937 41.894 206.527 41.5701 206.201 41.1699L193.081 27.0303C192.691 27.6903 192.271 28.3603 191.821 29.0303C187.825 34.7254 182.876 39.6881 177.192 43.7002C175.512 44.8802 174.251 45.0101 173.411 44.1201C172.571 43.2301 172.791 42.2201 174.081 41.1201C178.961 36.9246 183.135 31.9714 186.442 26.4502C189.522 21.2035 191.341 16.6434 191.901 12.77C191.983 12.4201 191.924 12.0524 191.737 11.7456C191.55 11.4388 191.25 11.218 190.901 11.1304C190.079 10.8399 189.232 10.622 188.371 10.48C187.201 10.27 186.632 9.6501 186.692 8.6001C186.752 7.5501 187.452 7.04004 188.792 7.04004H194.091C196.161 7.04004 197.542 7.48012 198.212 8.37012C198.928 9.50946 199.199 10.8735 198.971 12.2002V12.2002ZM229.151 71.5103H201.241C196.081 71.5103 193.502 69.27 193.502 64.79V56.5303C193.502 55.0503 193.231 54.0703 192.701 53.5903C191.925 52.991 191.016 52.5862 190.051 52.4102C189.281 52.2333 188.535 51.9612 187.831 51.6001C187.636 51.4579 187.482 51.2664 187.385 51.0449C187.289 50.8235 187.253 50.5803 187.281 50.3403C187.281 49.2203 188.121 48.6602 189.801 48.6602H196.531C198.711 48.6602 199.812 49.86 199.812 52.25V65.02C199.812 66.09 200.311 66.6201 201.321 66.6201H229.151C231.001 66.6201 231.922 67.4303 231.922 69.0703C231.922 70.7103 231.001 71.5103 229.151 71.5103ZM222.151 7.8501C222.214 7.31284 222.164 6.76859 222.004 6.25195C221.843 5.73531 221.577 5.2577 221.221 4.8501C220.437 4.23638 219.513 3.82748 218.531 3.66016C217.669 3.48652 216.826 3.2323 216.011 2.90039C215.762 2.8092 215.548 2.6424 215.397 2.42383C215.247 2.20526 215.168 1.94552 215.172 1.68018C215.172 0.560176 216.041 0 217.781 0H225.091C227.331 0 228.451 1.05996 228.451 3.20996V47.7603C228.451 52.5503 226.861 54.9502 223.661 54.9502H222.151V7.8501Z" fill="#616160"/>
</svg>
