<svg width="196" height="63" viewBox="0 0 196 63" fill="none" xmlns="http://www.w3.org/2000/svg">
<path d="M21.5937 10.9209C21.1615 14.1763 20.1202 17.3211 18.5239 20.1909L31.0239 31.4912C31.662 32.0289 32.102 32.7644 32.2739 33.5811C32.3297 33.8846 32.3144 34.197 32.2294 34.4937C32.1444 34.7903 31.9917 35.0631 31.7836 35.291C31.5341 35.5534 31.2303 35.7586 30.8935 35.8916C30.5567 36.0246 30.1949 36.0822 29.8334 36.061C29.4046 36.0516 28.983 35.9505 28.5966 35.7642C28.2102 35.5779 27.8681 35.3107 27.5937 34.981L16.7036 23.2412C16.3836 23.7912 16.0336 24.3411 15.7036 24.8911C12.3848 29.6201 8.27448 33.7408 3.55365 37.0713C2.16365 38.0713 1.11351 38.1609 0.413511 37.4209C-0.286489 36.6809 -0.09643 35.8411 0.97357 34.9111C5.02307 31.4261 8.48736 27.3136 11.2338 22.731C13.7938 18.371 15.3072 14.5844 15.7739 11.3711C15.8378 11.0785 15.7859 10.7725 15.6293 10.5171C15.4728 10.2617 15.2233 10.0767 14.9335 10.001C14.2541 9.76226 13.5548 9.5851 12.8437 9.47119C11.8437 9.30119 11.3938 8.78113 11.4438 7.91113C11.4938 7.04113 12.0738 6.61133 13.1938 6.61133H17.5834C19.3034 6.61133 20.4538 6.98119 21.0038 7.72119C21.5965 8.67549 21.807 9.81799 21.5937 10.9209V10.9209ZM46.6537 60.1709H23.4838C19.1905 60.1709 17.047 58.3113 17.0536 54.5913V47.731C17.1629 46.8625 16.9256 45.986 16.3935 45.291C15.7511 44.7859 14.9968 44.4429 14.1938 44.291C13.5525 44.1425 12.9313 43.9176 12.3437 43.6211C12.1914 43.5051 12.0702 43.3529 11.9916 43.1782C11.9131 43.0036 11.8793 42.8121 11.8935 42.6211C11.8935 41.6911 12.5938 41.231 13.9838 41.231H19.5737C21.3837 41.231 22.2934 42.231 22.2934 44.231V54.8311C22.2934 55.7111 22.7136 56.1611 23.5536 56.1611H46.6537C48.1937 56.1611 48.9638 56.8411 48.9638 58.1611C48.9638 59.4811 48.1937 60.1611 46.6537 60.1611V60.1709ZM40.8637 7.31104C40.9176 6.86209 40.8767 6.4069 40.7441 5.97461C40.6115 5.54232 40.3901 5.14275 40.0937 4.80127C39.4445 4.2886 38.6783 3.94501 37.8637 3.80127C37.1437 3.6603 36.4399 3.4457 35.7636 3.16113C35.5581 3.08692 35.3806 2.95098 35.2553 2.77197C35.13 2.59296 35.0628 2.37964 35.0634 2.16113C35.0634 1.23113 35.7838 0.76123 37.2338 0.76123H43.3036C45.1636 0.76123 46.0937 1.65115 46.0937 3.43115V40.4312C46.0937 44.4312 44.7737 46.4312 42.0937 46.4312H40.8437L40.8637 7.31104Z" fill="#616160"/>
<path d="M98.0241 33.9609H76.0241C73.5575 33.9609 72.3239 32.588 72.3239 29.8413V23.9312C72.3549 23.5836 72.315 23.2331 72.2067 22.9014C72.0985 22.5696 71.9241 22.2633 71.694 22.001C71.2483 21.5736 70.7258 21.2343 70.154 21.001C69.8188 20.888 69.5021 20.7263 69.2141 20.521C69.0731 20.3987 68.9645 20.2433 68.8981 20.0688C68.8318 19.8943 68.8095 19.7061 68.8337 19.521C68.8337 18.631 69.4338 18.1812 70.6438 18.1812H90.4738V10.4409H72.4738C70.9838 10.4409 70.2341 9.79092 70.2341 8.44092C70.2341 7.09092 70.954 6.44092 72.404 6.44092H93.2038C94.8738 6.44092 95.7141 7.3509 95.7141 9.1709V18.6812C95.7141 20.8812 94.7604 21.981 92.8537 21.981H77.5637V28.1411C77.5637 29.3211 78.104 29.9209 79.174 29.9209H98.0837C99.5737 29.9209 100.324 30.5513 100.324 31.8213C100.324 33.0913 99.5541 33.9609 98.0241 33.9609ZM85.1037 50.1611C85.1065 48.5521 85.4671 46.964 86.1589 45.5112C86.8507 44.0585 87.8563 42.7776 89.1037 41.7612C91.9227 39.4774 95.441 38.231 99.069 38.231C102.697 38.231 106.215 39.4774 109.034 41.7612C110.268 42.7869 111.261 44.0718 111.942 45.5244C112.624 46.977 112.977 48.5615 112.977 50.166C112.977 51.7705 112.624 53.3555 111.942 54.8081C111.261 56.2607 110.268 57.5456 109.034 58.5713C106.212 60.8482 102.695 62.0898 99.069 62.0898C95.4429 62.0898 91.9259 60.8482 89.1037 58.5713C87.8561 57.5529 86.8501 56.2703 86.1584 54.8159C85.4667 53.3616 85.1065 51.7716 85.1037 50.1611V50.1611ZM90.4138 50.1611C90.3864 51.2331 90.6006 52.2974 91.0402 53.2754C91.4799 54.2534 92.1339 55.12 92.9538 55.811C94.667 57.2448 96.8297 58.0308 99.0637 58.0308C101.298 58.0308 103.461 57.2448 105.174 55.811C105.976 55.1053 106.618 54.237 107.058 53.2637C107.498 52.2903 107.726 51.2342 107.726 50.166C107.726 49.0978 107.498 48.0422 107.058 47.0688C106.618 46.0955 105.976 45.2267 105.174 44.521C103.463 43.0816 101.299 42.2925 99.0637 42.2925C96.8281 42.2925 94.6644 43.0816 92.9538 44.521C92.1346 45.2105 91.4809 46.0755 91.0412 47.0518C90.6015 48.028 90.3872 49.0907 90.4138 50.1611ZM108.074 7.33105C108.13 6.87894 108.086 6.42034 107.946 5.98682C107.806 5.55329 107.573 5.15552 107.264 4.82129C106.623 4.32026 105.872 3.97764 105.074 3.82129C104.342 3.69007 103.627 3.4752 102.944 3.18115C102.739 3.10982 102.562 2.97387 102.442 2.79346C102.321 2.61304 102.262 2.39798 102.274 2.18115C102.274 1.25115 102.994 0.78125 104.444 0.78125H110.584C112.404 0.78125 113.304 1.67117 113.304 3.45117V18.6812H122.304C123.794 18.6812 124.534 19.3512 124.534 20.6812C124.534 22.0112 123.794 22.6812 122.304 22.6812H113.304V31.751C113.304 35.651 111.954 37.5913 109.254 37.5913H108.074V7.33105Z" fill="#616160"/>
<path d="M192.944 37.3212H143.384C141.984 37.3212 141.284 36.6512 141.284 35.3212C141.284 33.9912 141.984 33.3212 143.384 33.3212H192.944C194.474 33.3212 195.244 33.9712 195.244 35.3212C195.244 36.6712 194.474 37.3212 192.944 37.3212ZM153.224 14.101C151.734 14.101 150.984 13.421 150.984 12.101C150.984 10.781 151.714 10.101 153.154 10.101H177.864C178.463 10.0293 179.069 10.1396 179.604 10.4179C180.14 10.6962 180.579 11.1295 180.864 11.661C181.374 12.661 181.124 13.8412 180.094 15.1112C178.7 16.7646 176.234 18.5408 172.694 20.4408L186.384 24.4408C187.218 24.6074 187.983 25.0183 188.583 25.621C188.774 25.852 188.897 26.1308 188.939 26.4272C188.982 26.7235 188.942 27.0261 188.824 27.3012C188.682 27.5943 188.483 27.8555 188.237 28.0688C187.991 28.282 187.704 28.4425 187.394 28.5409C186.549 28.7678 185.653 28.7119 184.844 28.3813L168.514 22.601C162.679 25.2003 156.598 27.2103 150.364 28.601C148.774 28.941 147.834 28.6709 147.534 27.8109C147.234 26.9509 147.774 26.301 149.174 25.871C154.312 24.3281 159.326 22.3993 164.174 20.101C167.627 18.4582 170.893 16.4465 173.914 14.101H153.224ZM151.894 47.411C150.644 47.411 150.014 46.741 150.014 45.411C150.014 44.081 150.614 43.5111 151.824 43.5111H181.563C183.283 43.5111 184.144 44.4211 184.144 46.2411V56.0111C184.144 60.0111 182.934 62.0111 180.514 62.0111H178.984V47.411H151.894ZM159.714 4.41104L157.904 2.95108C157.549 2.6356 157.283 2.2321 157.134 1.78115C157.094 1.57081 157.106 1.354 157.167 1.14883C157.227 0.943664 157.336 0.755846 157.484 0.600978C157.626 0.422073 157.805 0.275805 158.008 0.172267C158.212 0.0687296 158.435 0.0102553 158.664 0.000880642C159.153 -0.0116346 159.637 0.109451 160.063 0.350978C161.968 1.27576 163.985 1.9481 166.063 2.35098C168.046 2.68357 170.053 2.84415 172.063 2.83096C173.553 2.83096 174.293 3.46086 174.293 4.73086C174.312 5.02568 174.251 5.32047 174.115 5.58291C173.98 5.84536 173.775 6.06583 173.524 6.2211C173.07 6.52372 172.539 6.69025 171.994 6.70108L166.194 6.63125C163.84 6.72348 161.534 5.9475 159.714 4.45108V4.41104Z" fill="#616160"/>
</svg>
