<svg width="1440" height="3088" viewBox="0 0 1440 3088" fill="none" xmlns="http://www.w3.org/2000/svg">
  <g clip-path="url(#clip0_116_97)">
    <path
      d="M257 1507.29C257 1501.66 259.134 1496.94 263.251 1493.14C267.368 1489.33 272.246 1487.5 277.888 1487.5C283.681 1487.5 288.713 1489.33 292.829 1492.98C293.134 1493.29 293.439 1493.59 293.591 1493.9C294.201 1493.29 295.116 1492.98 296.183 1492.98H314.327V1488.87C314.327 1487.05 314.022 1485.83 313.259 1485.07C312.497 1484.46 311.43 1483.85 310.058 1483.55C308.685 1483.24 307.771 1482.94 307.008 1482.63C306.398 1482.33 305.941 1481.87 305.941 1481.11C305.941 1479.74 307.008 1478.98 308.99 1478.98H317.986C320.73 1478.98 321.95 1480.35 321.95 1482.94V1523.12C321.95 1529.06 319.968 1532.1 316.156 1532.1H314.327V1521.14H296.336C295.269 1521.14 294.354 1520.84 293.744 1520.23C293.439 1520.53 293.134 1520.84 292.829 1521.14C288.56 1524.95 283.529 1526.77 277.888 1526.77C272.246 1526.77 267.368 1524.95 263.251 1521.29C259.134 1517.49 257 1512.92 257 1507.29ZM264.623 1507.29C264.623 1511.1 265.843 1514.29 268.435 1516.73C271.027 1519.32 274.228 1520.53 277.888 1520.53C281.699 1520.53 284.901 1519.32 287.493 1516.73C290.237 1514.14 291.457 1510.94 291.457 1507.29C291.457 1503.33 290.085 1500.14 287.493 1497.55C284.748 1494.96 281.547 1493.74 277.888 1493.74C274.228 1493.74 271.027 1494.96 268.435 1497.55C265.995 1500.14 264.623 1503.33 264.623 1507.29ZM321.645 1542.91H314.784V1563.3H321.645C323.932 1563.3 324.999 1564.22 324.999 1566.35C324.999 1568.33 323.932 1569.39 321.645 1569.39H275.296C273.161 1569.39 272.246 1568.33 272.246 1566.35C272.246 1564.37 273.314 1563.3 275.296 1563.3H283.681V1542.75H275.296C273.161 1542.75 272.246 1541.84 272.246 1539.86C272.246 1537.88 273.314 1536.82 275.296 1536.82H321.645C323.932 1536.82 324.999 1537.88 324.999 1539.86C324.999 1541.99 323.932 1542.91 321.645 1542.91ZM307.466 1542.91H291.152V1563.3H307.466V1542.91V1542.91ZM297.403 1498.92C298.623 1501.35 299.385 1504.25 299.385 1507.29C299.385 1510.18 298.775 1512.92 297.555 1515.36H314.631V1498.92H297.403Z"
      fill="white" />
    <path
      d="M415.106 1554.63H343.6C341.618 1554.63 340.551 1553.71 340.551 1551.58C340.551 1549.6 341.618 1548.54 343.6 1548.54H415.106C417.393 1548.54 418.46 1549.6 418.46 1551.58C418.46 1553.71 417.393 1554.63 415.106 1554.63ZM355.492 1510.18C355.492 1504.25 357.779 1499.07 362.506 1494.66C367.232 1490.4 372.873 1488.27 379.582 1488.27C386.29 1488.27 391.931 1490.4 396.658 1494.66C401.384 1498.92 403.671 1504.09 403.671 1510.18C403.671 1516.27 401.384 1521.29 396.658 1525.56C391.931 1529.82 386.29 1531.95 379.582 1531.95C372.873 1531.95 367.232 1529.82 362.506 1525.56C357.779 1521.29 355.492 1516.12 355.492 1510.18ZM363.115 1510.18C363.115 1514.6 364.793 1518.4 367.994 1521.29C371.349 1524.34 375.16 1525.71 379.582 1525.71C384.003 1525.71 387.815 1524.19 391.169 1521.29C394.523 1518.25 396.2 1514.6 396.2 1510.18C396.2 1505.77 394.523 1501.96 391.169 1498.92C387.815 1495.88 384.003 1494.35 379.582 1494.35C375.16 1494.35 371.349 1495.88 367.994 1498.92C364.793 1501.96 363.115 1505.62 363.115 1510.18Z"
      fill="white" />
    <path
      d="M445.751 1488.27H488.136C490.423 1488.27 491.49 1489.63 491.49 1492.37V1508.97C491.49 1512.16 490.118 1513.84 487.526 1513.84H453.069V1525.25C453.069 1527.08 453.832 1527.99 455.509 1527.99H491.033C493.167 1527.99 494.235 1529.06 494.235 1531.04C494.235 1533.01 493.167 1533.93 491.033 1533.93H472.28V1548.84H503.992C506.279 1548.84 507.347 1549.91 507.347 1551.89C507.347 1553.87 506.279 1554.93 503.992 1554.93H432.639C430.657 1554.93 429.59 1554.02 429.59 1551.89C429.59 1549.91 430.657 1548.84 432.639 1548.84H464.809V1533.93H450.935C447.276 1533.93 445.446 1531.8 445.446 1527.69V1516.73C445.446 1515.36 445.141 1514.44 444.684 1513.84C444.074 1513.23 443.464 1512.77 442.397 1512.31C441.787 1512.16 441.33 1511.86 440.872 1511.55C440.567 1511.25 440.262 1510.79 440.262 1510.03C440.262 1508.81 441.177 1508.05 443.007 1508.05H483.562V1494.2H445.446C443.312 1494.2 442.397 1493.14 442.397 1491.16C442.702 1489.18 443.769 1488.27 445.751 1488.27Z"
      fill="white" />
    <path
      d="M592.574 1487.96C595.165 1487.96 596.538 1489.48 596.538 1492.53V1510.64C596.538 1513.53 595.928 1515.81 594.861 1517.18C596.843 1517.18 597.91 1518.25 597.91 1520.23C597.91 1522.21 596.843 1523.27 594.861 1523.27H566.502C565.587 1525.1 564.215 1526.01 562.233 1526.01H560.556V1499.22C560.556 1496.94 560.404 1495.42 560.099 1494.51C559.794 1493.74 559.031 1492.98 557.507 1492.53C556.744 1492.22 556.135 1491.92 555.677 1491.61C555.22 1491.31 555.067 1490.7 555.067 1490.09C555.067 1488.72 555.982 1487.96 557.812 1487.96H592.574V1487.96ZM567.874 1517.03H589.067V1493.9H568.027V1514.14C568.027 1515.21 567.874 1516.27 567.874 1517.03ZM620.474 1570H585.713C582.054 1570 580.224 1567.87 580.224 1563.76V1556.45C580.224 1555.08 579.919 1554.02 579.309 1553.41C578.699 1552.8 578.089 1552.34 577.175 1552.04C576.565 1551.89 576.107 1551.58 575.65 1551.28C575.345 1550.97 575.04 1550.52 575.04 1549.76C575.04 1548.54 575.955 1547.78 577.785 1547.78H613.004V1537.58H580.529C578.394 1537.58 577.48 1536.51 577.48 1534.54C577.48 1532.56 578.547 1531.64 580.529 1531.64H617.12C619.407 1531.64 620.627 1533.01 620.627 1535.75V1548.69C620.627 1551.89 619.255 1553.56 616.51 1553.56H587.847V1561.17C587.847 1563 588.61 1563.91 590.287 1563.91H620.474C622.609 1563.91 623.524 1564.82 623.524 1566.8C623.676 1568.93 622.609 1570 620.474 1570ZM613.919 1526.93V1488.87C613.919 1487.05 613.614 1485.83 612.851 1485.07C612.089 1484.46 611.022 1483.85 609.65 1483.55C608.277 1483.24 607.363 1482.94 606.6 1482.63C605.99 1482.33 605.533 1481.87 605.533 1481.11C605.533 1479.74 606.6 1478.98 608.582 1478.98H617.273C620.017 1478.98 621.237 1480.35 621.237 1482.94V1517.79C621.237 1523.73 619.255 1526.77 615.443 1526.77H613.919V1526.93Z"
      fill="white" />
    <path
      d="M640.295 1515.81C640.295 1509.57 642.429 1504.55 646.698 1500.44C650.967 1496.33 656.151 1494.35 662.25 1494.35C668.501 1494.35 673.685 1496.33 677.801 1500.44C681.155 1503.64 683.137 1507.44 683.9 1511.86H698.231V1488.72C698.231 1486.9 697.926 1485.68 697.164 1484.92C696.402 1484.31 695.334 1483.7 693.962 1483.39C692.59 1483.09 691.675 1482.79 690.913 1482.48C690.303 1482.18 689.846 1481.72 689.846 1480.96C689.846 1479.59 690.913 1478.83 692.895 1478.83H701.586C704.33 1478.83 705.55 1480.2 705.55 1482.79V1560.56C705.55 1566.5 703.568 1569.54 699.756 1569.54H697.926V1517.79H683.747C683.29 1523.12 681.155 1527.53 677.344 1531.19C673.075 1535.14 667.891 1537.28 661.792 1537.28C655.694 1537.28 650.51 1535.3 646.241 1531.19C642.429 1527.23 640.295 1522.05 640.295 1515.81ZM647.766 1515.81C647.766 1520.23 649.138 1523.88 651.882 1526.77C654.627 1529.67 657.981 1531.03 662.097 1531.03C666.061 1531.03 669.568 1529.67 672.312 1526.77C675.057 1523.88 676.429 1520.23 676.429 1515.81C676.429 1511.25 675.057 1507.6 672.312 1504.7C669.568 1501.81 666.061 1500.44 662.097 1500.44C658.133 1500.44 654.627 1501.81 651.882 1504.7C649.138 1507.6 647.766 1511.4 647.766 1515.81Z"
      fill="white" />
    <path
      d="M755.101 1497.25C754.643 1502.42 752.814 1508.2 749.612 1514.75L769.585 1533.77C770.652 1534.84 771.262 1535.91 771.414 1537.28C771.567 1538.65 771.262 1539.56 770.347 1540.17C769.28 1540.93 768.212 1541.23 766.993 1540.93C765.773 1540.62 764.706 1539.86 763.791 1538.8L747.02 1519.62C746.715 1520.08 746.41 1520.53 746.258 1520.99C740.921 1529.82 734.67 1537.12 727.809 1542.6C726.59 1543.67 725.523 1543.67 724.455 1542.91C723.388 1542.15 723.54 1540.93 724.913 1539.71C731.164 1533.01 736.195 1525.71 740.007 1517.95C743.818 1510.18 745.953 1503.79 746.563 1498.92C746.563 1498.01 746.258 1497.25 745.343 1496.94C744.428 1496.64 743.513 1496.33 742.294 1496.03C740.769 1495.72 740.007 1494.96 740.007 1493.74C740.007 1492.53 740.921 1491.77 742.446 1491.77H749.307C751.746 1491.77 753.271 1492.22 754.186 1493.14C754.948 1494.2 755.253 1495.57 755.101 1497.25ZM782.697 1488.87C782.697 1487.05 782.392 1485.83 781.629 1485.07C780.867 1484.46 779.8 1483.85 778.428 1483.55C777.055 1483.24 776.141 1482.94 775.378 1482.63C774.768 1482.33 774.311 1481.87 774.311 1481.11C774.311 1479.74 775.378 1478.98 777.36 1478.98H786.051C788.795 1478.98 790.015 1480.35 790.015 1482.94V1560.72C790.015 1566.65 788.033 1569.7 784.221 1569.7H782.392V1516.58H765.468C763.334 1516.58 762.419 1515.51 762.419 1513.53C762.419 1511.55 763.486 1510.64 765.468 1510.64H782.392V1488.87H782.697Z"
      fill="white" />
    <path
      d="M869.754 1504.55H899.789V1495.88C899.789 1494.35 899.637 1493.29 899.179 1492.83C898.874 1492.37 898.264 1491.92 897.35 1491.77C896.282 1491.46 895.672 1491.16 895.063 1490.85C894.605 1490.55 894.3 1490.09 894.3 1489.48C894.3 1488.11 895.215 1487.5 897.197 1487.5H902.991C905.735 1487.5 906.955 1488.87 906.955 1491.61V1519.32C906.955 1522.36 906.345 1524.49 905.125 1525.86C907.26 1525.86 908.174 1526.93 908.174 1528.9C908.174 1530.88 907.107 1531.95 905.125 1531.95H888.202V1549H919.914C922.201 1549 923.268 1550.06 923.268 1552.04C923.268 1554.02 922.201 1555.08 919.914 1555.08H848.561C846.579 1555.08 845.512 1554.17 845.512 1552.04C845.512 1550.06 846.579 1549 848.561 1549H880.731V1531.95H867.924C867.009 1533.62 865.637 1534.54 863.807 1534.54H861.825V1499.22C861.825 1497.55 861.673 1496.48 861.368 1495.88C861.063 1495.27 860.606 1494.96 859.843 1494.81C859.081 1494.66 858.471 1494.35 857.709 1494.05C857.099 1493.74 856.794 1493.29 856.794 1492.53C856.794 1491.16 857.709 1490.55 859.691 1490.55H865.637C868.076 1490.55 869.296 1491.92 869.296 1494.66V1504.55H869.754ZM899.789 1510.49H869.754V1522.82C869.754 1523.88 869.753 1524.79 869.601 1525.71H899.789V1510.49Z"
      fill="white" />
    <path
      d="M961.994 1496.79C961.69 1502.72 960.165 1508.97 957.725 1515.51L974.192 1534.23C975.106 1535.45 975.564 1536.51 975.564 1537.73C975.564 1538.95 974.954 1539.86 974.039 1540.47C973.124 1540.93 972.21 1541.08 971.295 1540.93C970.38 1540.62 969.465 1539.86 968.55 1538.8L955.286 1520.68V1520.84C951.322 1529.21 945.986 1536.21 939.43 1541.84C937.753 1543.36 936.38 1543.67 935.466 1542.75C934.551 1541.84 934.551 1540.78 935.923 1539.25C941.412 1532.86 945.528 1525.86 948.578 1518.4C951.474 1510.79 953.304 1504.25 953.761 1498.77C953.761 1497.85 953.456 1497.25 952.389 1496.79C951.474 1496.33 950.407 1496.18 949.34 1495.88C947.968 1495.57 947.358 1494.81 947.358 1493.59C947.358 1492.22 948.12 1491.61 949.797 1491.61H956.658C958.793 1491.61 960.165 1491.92 961.08 1492.68C961.994 1493.44 962.147 1494.96 961.994 1496.79ZM976.174 1483.09H984.559C987.304 1483.09 988.523 1484.46 988.523 1487.35V1554.93C988.523 1560.87 986.541 1563.91 982.73 1563.91H981.052V1517.18H969.008C966.873 1517.18 965.806 1516.12 965.806 1514.14C965.806 1512.16 966.873 1511.1 969.008 1511.1H981.052V1492.83C981.052 1491 980.748 1489.79 980.138 1489.03C979.528 1488.42 978.461 1487.81 976.936 1487.5C975.564 1487.2 974.649 1486.9 974.039 1486.44C973.429 1486.13 973.124 1485.53 973.124 1484.92C973.124 1483.7 974.192 1483.09 976.174 1483.09ZM999.196 1488.72C999.196 1486.9 998.891 1485.68 998.128 1484.92C997.366 1484.16 996.299 1483.7 994.774 1483.39C993.402 1483.09 992.335 1482.79 991.725 1482.48C991.115 1482.18 990.81 1481.72 990.81 1480.96C990.81 1479.59 991.877 1478.83 994.012 1478.83H1002.4C1005.14 1478.83 1006.51 1480.2 1006.51 1482.79V1560.56C1006.51 1566.5 1004.53 1569.54 1000.72 1569.54H999.043V1488.72H999.196Z"
      fill="white" />
    <path
      d="M1097.38 1554.63H1026.03C1024.05 1554.63 1022.98 1553.71 1022.98 1551.58C1022.98 1549.6 1024.05 1548.54 1026.03 1548.54H1045.54V1538.95C1045.54 1537.12 1045.39 1535.91 1044.93 1535.3C1044.63 1534.69 1043.71 1534.08 1042.49 1533.77C1041.58 1533.47 1040.97 1533.32 1040.36 1533.01C1039.75 1532.71 1039.45 1532.25 1039.45 1531.64C1039.45 1530.43 1040.51 1529.97 1042.8 1529.97H1049.97C1051.95 1529.97 1052.86 1531.04 1052.86 1533.32V1548.69H1073.9V1538.95C1073.9 1537.12 1073.9 1535.75 1073.75 1534.84C1073.6 1533.93 1072.99 1533.32 1071.77 1532.86C1070.85 1532.56 1070.24 1532.25 1069.79 1532.1C1069.48 1531.95 1069.33 1531.49 1069.33 1531.04C1069.33 1529.97 1070.4 1529.36 1072.68 1529.36H1078.17C1080.15 1529.36 1081.07 1530.43 1081.07 1532.71V1548.54H1097.23C1099.52 1548.54 1100.58 1549.6 1100.58 1551.58C1100.74 1553.71 1099.67 1554.63 1097.38 1554.63ZM1037.77 1509.12C1037.77 1503.64 1040.06 1498.77 1044.78 1494.51C1049.51 1490.24 1055.15 1488.11 1061.86 1488.11C1068.57 1488.11 1074.21 1490.24 1078.93 1494.51C1083.66 1498.77 1085.95 1503.64 1085.95 1509.12C1085.95 1514.44 1083.66 1519.32 1078.93 1523.58C1074.21 1527.84 1068.57 1529.97 1061.86 1529.97C1055.15 1529.97 1049.51 1527.84 1044.78 1523.58C1040.06 1519.32 1037.77 1514.6 1037.77 1509.12ZM1045.39 1509.12C1045.39 1513.07 1047.07 1516.42 1050.27 1519.32C1053.62 1522.21 1057.44 1523.73 1061.86 1523.73C1066.28 1523.73 1070.09 1522.21 1073.45 1519.32C1076.8 1516.42 1078.48 1512.92 1078.48 1509.12C1078.48 1505.16 1076.8 1501.81 1073.45 1498.77C1070.09 1495.72 1066.28 1494.35 1061.86 1494.35C1057.44 1494.35 1053.62 1495.88 1050.27 1498.77C1047.07 1501.81 1045.39 1505.31 1045.39 1509.12Z"
      fill="white" />
    <path
      d="M1136.11 1491.92C1139.92 1491.92 1143.12 1493.29 1146.02 1496.03C1148.92 1498.77 1150.75 1502.42 1151.51 1506.83C1152.27 1502.42 1154.1 1498.77 1157 1496.03C1159.89 1493.29 1163.25 1491.92 1166.91 1491.92C1171.33 1491.92 1174.99 1493.44 1177.73 1496.33C1180.48 1499.22 1182 1502.88 1182 1507.29C1182 1512.16 1180.93 1516.58 1178.95 1520.38C1176.97 1524.19 1174.22 1528.14 1171.02 1531.95C1166.91 1536.82 1163.25 1541.69 1159.74 1546.41C1156.39 1551.13 1153.64 1556.45 1151.51 1562.09C1149.37 1556.45 1146.63 1551.13 1143.27 1546.41C1139.92 1541.69 1136.11 1536.82 1131.99 1531.95C1128.79 1527.99 1126.2 1524.19 1124.06 1520.38C1122.08 1516.58 1121.01 1512.16 1121.01 1507.29C1121.01 1502.88 1122.39 1499.22 1125.28 1496.33C1128.18 1493.44 1131.84 1491.92 1136.11 1491.92Z"
      fill="white" />
    <path
      d="M724.608 1163C658.896 1163 605.686 1216.12 605.686 1281.72C605.686 1347.32 658.896 1400.44 724.608 1400.44C790.32 1400.44 843.53 1347.32 843.53 1281.72C843.53 1216.12 790.32 1163 724.608 1163ZM790.472 1287.66L743.818 1325.86C742.446 1327.08 740.616 1327.54 738.939 1327.54C736.805 1327.54 734.518 1326.62 732.993 1324.8C730.249 1321.6 730.859 1316.73 734.06 1314.14L764.248 1289.33H663.622C659.353 1289.33 655.999 1285.98 655.999 1281.72C655.999 1277.46 659.353 1274.11 663.622 1274.11H764.248L734.06 1249.3C730.859 1246.56 730.401 1241.84 732.993 1238.65C735.737 1235.45 740.464 1234.99 743.666 1237.58L790.32 1275.78C792.149 1277.15 793.064 1279.44 793.064 1281.72C793.064 1284 792.149 1286.14 790.472 1287.66Z"
      fill="white" />
  </g>
  <g clip-path="url(#clip1_116_97)">
    <path
      d="M451.618 2339.28C450.929 2339.01 450.378 2338.73 450.24 2338.32C449.965 2337.91 449.965 2337.49 450.103 2336.94C450.24 2336.39 450.654 2336.12 451.342 2335.98C452.031 2335.84 452.582 2335.84 453.271 2335.98C456.576 2336.39 459.331 2337.63 461.397 2339.69C463.463 2341.76 464.565 2344.24 464.427 2347.13C464.29 2350.71 462.637 2353.73 459.331 2356.21C457.127 2358 454.372 2359.1 451.342 2359.65V2367.5H452.306C456.025 2367.5 459.193 2367.36 461.81 2367.22C464.427 2367.09 467.182 2366.81 469.799 2366.26C471.727 2365.85 472.829 2366.26 473.105 2367.22C473.38 2368.19 472.967 2369.01 472.003 2369.7C470.488 2370.66 468.008 2371.35 464.565 2372.04C461.122 2372.59 456.852 2373 451.755 2373H427.514C425.585 2373 424.759 2372.04 424.759 2370.25C424.759 2368.46 425.723 2367.64 427.514 2367.64H444.731V2359.79C441.287 2359.24 438.395 2358 435.778 2355.94C432.472 2353.18 430.819 2349.88 430.682 2345.89C430.682 2343.55 431.232 2341.21 432.748 2339.01C434.125 2336.67 436.053 2334.88 438.257 2333.36H429.029C427.1 2333.36 426.136 2332.4 426.136 2330.61C426.136 2328.82 427.1 2327.86 428.891 2327.86H463.739C465.667 2327.86 466.493 2328.82 466.493 2330.61C466.493 2332.4 465.529 2333.36 463.739 2333.36H452.306C447.761 2333.36 444.18 2334.6 441.425 2337.08C438.67 2339.56 437.293 2342.45 437.431 2345.89C437.431 2348.23 438.533 2350.29 440.461 2351.95C442.389 2353.6 444.731 2354.42 447.623 2354.42C450.516 2354.42 452.857 2353.73 454.786 2352.22C456.714 2350.71 457.678 2349.05 457.678 2347.13C457.678 2345.2 457.265 2343.55 456.163 2342.31C455.061 2340.8 453.546 2339.83 451.618 2339.28ZM438.533 2319.19L436.191 2317.12C435.64 2316.57 435.365 2316.02 435.227 2315.61C435.089 2315.06 435.227 2314.51 435.64 2313.96C436.053 2313.4 436.604 2313.13 437.155 2313.13C437.706 2313.13 438.395 2313.27 438.946 2313.54C441.838 2314.92 444.18 2315.88 446.246 2316.3C448.312 2316.71 450.654 2316.85 453.408 2316.85C455.337 2316.85 456.301 2317.81 456.301 2319.6C456.301 2320.42 456.025 2321.11 455.337 2321.53C454.648 2321.94 453.959 2322.21 453.271 2322.21L446.935 2322.08C443.629 2322.08 440.736 2321.11 438.533 2319.19ZM476.273 2317.95C476.273 2316.3 475.86 2315.19 475.171 2314.51C474.482 2313.96 473.518 2313.4 472.278 2313.13C471.039 2312.85 470.075 2312.58 469.524 2312.3C468.973 2312.03 468.697 2311.62 468.697 2310.93C468.697 2309.69 469.661 2309 471.452 2309H479.441C481.782 2309 483.022 2310.24 483.022 2312.58V2344.65H494.73C496.658 2344.65 497.622 2345.61 497.622 2347.4C497.622 2349.19 496.658 2350.16 494.73 2350.16H483.022V2382.92C483.022 2388.28 481.231 2390.9 477.788 2390.9H476.273V2317.95Z"
      fill="white" />
    <path
      d="M532.47 2317.95C534.811 2317.95 536.051 2319.32 536.051 2322.08V2323.59H551.753V2318.08C551.753 2316.43 551.477 2315.33 550.789 2314.64C550.1 2314.09 549.136 2313.54 547.896 2313.27C546.657 2312.99 545.83 2312.72 545.141 2312.44C544.59 2312.17 544.177 2311.75 544.177 2311.06C544.177 2309.83 545.141 2309.14 546.932 2309.14H554.783C557.262 2309.14 558.364 2310.38 558.364 2312.72V2363.23C558.364 2368.6 556.574 2371.35 553.13 2371.35H551.477V2345.75H535.638C535.5 2346.85 535.087 2347.95 534.673 2348.78C536.602 2348.78 537.428 2349.74 537.428 2351.39C537.428 2353.18 536.464 2354.15 534.398 2354.15H508.503C507.677 2355.8 506.437 2356.63 504.647 2356.63H503.131V2328C503.131 2325.93 502.994 2324.55 502.58 2323.73C502.305 2323.04 501.479 2322.35 500.101 2321.94C499.412 2321.66 498.999 2321.39 498.586 2321.11C498.311 2320.84 498.173 2320.29 498.173 2319.74C498.173 2318.5 498.862 2317.81 500.239 2317.81H532.47V2317.95ZM510.156 2348.78H529.164V2323.32H510.294V2346.16C510.294 2347.13 510.294 2348.09 510.156 2348.78ZM559.191 2390.07H529.026C523.379 2390.07 520.624 2387.6 520.624 2382.5V2373.14C520.624 2371.49 520.349 2370.39 519.798 2369.84C519.247 2369.29 518.283 2368.88 516.905 2368.46C515.666 2368.05 514.839 2367.77 514.426 2367.5C514.013 2367.22 513.875 2366.81 513.875 2366.12C513.875 2364.88 514.839 2364.2 516.63 2364.2H523.93C526.271 2364.2 527.511 2365.57 527.511 2368.32V2382.78C527.511 2384.02 528.062 2384.57 529.164 2384.57H559.328C561.394 2384.57 562.359 2385.53 562.359 2387.32C562.221 2389.11 561.257 2390.07 559.191 2390.07ZM535.913 2328.68V2340.38H551.615V2328.68H535.913Z"
      fill="white" />
    <path
      d="M635.222 2352.36H570.623C568.832 2352.36 567.868 2351.39 567.868 2349.61C567.868 2347.82 568.832 2346.85 570.623 2346.85H635.222C637.288 2346.85 638.252 2347.82 638.252 2349.61C638.252 2351.39 637.15 2352.36 635.222 2352.36ZM583.57 2364.88C581.642 2364.88 580.678 2364.06 580.678 2362.27C580.678 2360.48 581.642 2359.52 583.433 2359.52H621.035C623.101 2359.52 624.203 2360.75 624.203 2363.37V2373.56C624.203 2376.45 622.963 2377.96 620.622 2377.96H589.906V2383.6C589.906 2385.26 590.595 2386.08 592.11 2386.08H624.203C626.131 2386.08 627.095 2386.91 627.095 2388.83C627.095 2390.62 626.131 2391.59 624.203 2391.59H588.942C585.223 2391.59 583.295 2389.38 583.295 2385.12V2380.71C583.295 2379.47 583.019 2378.65 582.606 2378.1C582.193 2377.55 581.504 2377.13 580.54 2376.72C579.989 2376.58 579.576 2376.31 579.163 2376.03C578.749 2375.76 578.474 2375.34 578.474 2374.66C578.474 2373.42 579.3 2372.73 580.953 2372.73H617.454V2365.02H583.57V2364.88ZM582.882 2326.07C582.882 2321.66 584.81 2317.95 588.667 2314.92C592.523 2311.89 597.344 2310.38 602.991 2310.38C608.639 2310.38 613.459 2311.89 617.316 2314.92C621.173 2317.95 623.101 2321.66 623.101 2326.07C623.101 2330.47 621.173 2334.19 617.316 2337.22C613.459 2340.25 608.639 2341.76 602.991 2341.76C597.206 2341.76 592.385 2340.25 588.667 2337.22C584.948 2334.19 582.882 2330.47 582.882 2326.07ZM589.631 2326.07C589.631 2328.82 590.87 2331.16 593.35 2333.23C595.829 2335.15 598.997 2336.12 602.854 2336.12C606.71 2336.12 609.878 2335.15 612.357 2333.23C614.837 2331.3 616.076 2328.96 616.076 2326.07C616.076 2323.18 614.837 2320.98 612.357 2318.91C609.878 2316.98 606.71 2315.88 602.854 2315.88C598.997 2315.88 595.829 2316.85 593.35 2318.91C591.008 2320.98 589.631 2323.32 589.631 2326.07Z"
      fill="white" />
    <path
      d="M697.618 2339.42C699.546 2339.42 700.373 2340.38 700.373 2342.17C700.373 2343.96 699.408 2344.93 697.618 2344.93H678.472V2357.04C678.472 2358.55 679.161 2359.38 680.676 2359.38H705.744C707.673 2359.38 708.499 2360.34 708.499 2362.13C708.499 2363.92 707.535 2364.88 705.744 2364.88H676.957C673.376 2364.88 671.723 2362.96 671.723 2359.1V2330.2C671.723 2328.27 671.585 2326.89 671.448 2326.21C671.172 2325.52 670.484 2324.83 669.106 2324.42C668.555 2324.14 668.004 2323.87 667.591 2323.59C667.178 2323.32 666.902 2322.76 666.902 2322.21C666.902 2320.98 667.729 2320.42 669.244 2320.42H702.301C704.229 2320.42 705.193 2321.39 705.193 2323.18C705.193 2324.97 704.229 2325.79 702.301 2325.79H678.61V2339.56H697.618V2339.42ZM719.518 2317.95C719.518 2316.3 719.243 2315.19 718.554 2314.51C717.865 2313.96 716.901 2313.4 715.662 2313.13C714.422 2312.85 713.595 2312.58 712.907 2312.3C712.356 2312.03 711.943 2311.62 711.943 2310.93C711.943 2309.69 712.907 2309 714.697 2309H722.548C725.028 2309 726.13 2310.24 726.13 2312.58V2382.92C726.13 2388.28 724.339 2391.04 720.896 2391.04H719.243V2344.79H707.397C705.469 2344.79 704.505 2343.82 704.505 2342.03C704.505 2340.25 705.469 2339.28 707.397 2339.28H719.243V2317.95H719.518Z"
      fill="white" />
    <path
      d="M742.107 2332.95C740.179 2332.95 739.352 2332.12 739.352 2330.2C739.352 2328.41 740.317 2327.44 742.107 2327.44H768.277C769.655 2327.44 770.757 2327.86 771.308 2328.68C771.996 2329.51 771.996 2330.61 771.583 2331.85C769.655 2336.8 766.9 2341.62 763.319 2346.44L777.506 2360.34C778.332 2361.03 778.745 2361.99 778.883 2362.96C778.883 2363.92 778.47 2364.75 777.781 2365.43C777.093 2365.98 776.266 2366.12 775.302 2366.12C774.476 2365.98 773.649 2365.57 772.823 2364.75L760.289 2350.02L759.187 2351.26C753.402 2357.59 747.204 2362.54 740.73 2366.4C738.939 2367.5 737.562 2367.5 736.735 2366.4C735.909 2365.3 736.322 2364.2 737.975 2363.09C743.622 2359.1 748.581 2354.56 753.126 2349.05C757.672 2343.69 760.977 2338.18 763.181 2332.81H742.107V2332.95ZM748.168 2317.81L745.826 2315.88C745.275 2315.33 745 2314.78 744.862 2314.23C744.724 2313.68 744.862 2313.27 745.275 2312.58C745.688 2312.03 746.239 2311.75 746.79 2311.75C747.341 2311.75 748.03 2311.89 748.581 2312.17C751.473 2313.54 754.09 2314.51 756.432 2314.92C758.774 2315.33 761.391 2315.61 764.145 2315.61C766.074 2315.61 767.038 2316.43 767.038 2318.22C767.038 2319.19 766.762 2319.87 766.074 2320.29C765.385 2320.7 764.696 2320.98 764.008 2320.98L756.432 2320.84C753.264 2320.84 750.372 2319.74 748.168 2317.81ZM788.249 2317.95C788.249 2316.3 787.974 2315.19 787.285 2314.51C786.597 2313.96 785.632 2313.4 784.393 2313.13C783.153 2312.85 782.327 2312.58 781.638 2312.3C781.087 2312.03 780.674 2311.62 780.674 2310.93C780.674 2309.69 781.638 2309 783.429 2309H791.28C793.759 2309 794.861 2310.24 794.861 2312.58V2382.92C794.861 2388.28 793.07 2391.04 789.627 2391.04H787.974V2317.95H788.249Z"
      fill="white" />
    <path
      d="M806.431 2335.15C804.502 2335.15 803.538 2334.19 803.538 2332.4C803.538 2330.61 804.502 2329.65 806.293 2329.65H843.344C845.273 2329.65 846.099 2330.61 846.099 2332.4C846.099 2334.19 845.135 2335.15 843.344 2335.15H832.876C827.642 2335.15 823.235 2336.67 819.791 2339.83C816.348 2343 814.557 2346.71 814.557 2350.98C814.557 2354.56 815.659 2357.31 817.863 2359.24C820.067 2361.17 822.546 2362.13 825.438 2362.13C828.469 2362.13 831.086 2361.17 833.152 2359.1C835.218 2357.04 836.32 2354.56 836.32 2351.39C836.32 2348.92 835.769 2346.85 834.529 2345.48C833.289 2344.1 831.774 2343 829.708 2342.31C828.882 2342.03 828.469 2341.62 828.331 2341.21C828.193 2340.8 828.193 2340.38 828.469 2339.97C828.744 2339.42 829.157 2339.14 829.571 2339.01C830.121 2338.87 830.672 2338.87 831.361 2339.01C834.667 2339.42 837.422 2340.66 839.763 2343C842.105 2345.2 843.207 2348.23 843.207 2352.08C843.207 2356.35 841.554 2360.2 838.11 2363.23C834.667 2366.4 830.535 2367.91 825.438 2367.91C820.48 2367.91 816.348 2366.26 812.904 2363.09C809.461 2359.93 807.67 2355.94 807.67 2351.12C807.67 2347.82 808.634 2344.79 810.425 2342.03C812.353 2339.28 814.695 2337.08 817.725 2335.29H806.431V2335.15ZM815.521 2320.01L813.18 2317.95C812.629 2317.4 812.353 2316.98 812.216 2316.43C812.078 2315.88 812.216 2315.33 812.629 2314.78C813.042 2314.37 813.593 2314.09 814.282 2314.09C814.97 2314.09 815.521 2314.23 815.934 2314.37C818.827 2315.88 821.582 2316.85 824.061 2317.12C826.54 2317.53 829.295 2317.67 832.188 2317.67C834.116 2317.67 835.08 2318.64 835.08 2320.42C835.08 2321.25 834.805 2321.94 834.116 2322.35C833.427 2322.76 832.738 2323.04 832.05 2323.04L823.923 2322.9C820.48 2323.04 817.587 2322.08 815.521 2320.01ZM855.327 2317.95C855.327 2316.3 854.914 2315.19 854.226 2314.51C853.537 2313.96 852.573 2313.4 851.333 2313.13C850.093 2312.85 849.129 2312.58 848.578 2312.3C848.027 2312.03 847.752 2311.62 847.752 2310.93C847.752 2309.69 848.716 2309 850.507 2309H858.495C860.837 2309 862.077 2310.24 862.077 2312.58V2341.62H873.784C875.713 2341.62 876.677 2342.59 876.677 2344.37C876.677 2346.16 875.713 2347.13 873.784 2347.13H862.077V2382.92C862.077 2388.28 860.286 2390.9 856.843 2390.9H855.327V2317.95V2317.95Z"
      fill="white" />
    <path
      d="M905.878 2325.52C905.464 2330.2 903.811 2335.43 900.919 2341.35L918.963 2358.55C919.927 2359.52 920.478 2360.48 920.616 2361.72C920.753 2362.96 920.478 2363.78 919.651 2364.33C918.687 2365.02 917.585 2365.3 916.621 2365.02C915.519 2364.75 914.555 2364.06 913.866 2363.09L898.715 2345.75C898.44 2346.16 898.164 2346.58 898.026 2346.99C893.206 2354.97 887.558 2361.58 881.36 2366.54C880.258 2367.5 879.294 2367.5 878.33 2366.81C877.366 2366.12 877.504 2365.02 878.743 2363.92C884.39 2357.86 888.936 2351.26 892.379 2344.24C895.823 2337.22 897.751 2331.44 898.302 2327.03C898.302 2326.21 898.027 2325.52 897.2 2325.24C896.374 2324.97 895.547 2324.69 894.445 2324.42C893.068 2324.14 892.379 2323.45 892.379 2322.35C892.379 2321.25 893.206 2320.56 894.583 2320.56H900.781C902.985 2320.56 904.362 2320.98 905.189 2321.8C905.74 2322.63 906.015 2323.87 905.878 2325.52ZM930.67 2317.95C930.67 2316.3 930.395 2315.19 929.706 2314.51C929.018 2313.96 928.053 2313.4 926.814 2313.13C925.574 2312.85 924.748 2312.58 924.059 2312.3C923.508 2312.03 923.095 2311.62 923.095 2310.93C923.095 2309.69 924.059 2309 925.85 2309H933.701C936.18 2309 937.282 2310.24 937.282 2312.58V2382.92C937.282 2388.28 935.491 2391.04 932.048 2391.04H930.67V2317.95Z"
      fill="white" />
    <path
      d="M980.118 2317.95C982.46 2317.95 983.699 2319.32 983.699 2322.08V2323.59H999.401V2318.08C999.401 2316.43 999.126 2315.33 998.437 2314.64C997.748 2314.09 996.784 2313.54 995.545 2313.27C994.305 2312.99 993.479 2312.72 992.79 2312.44C992.239 2312.17 991.826 2311.75 991.826 2311.06C991.826 2309.83 992.79 2309.14 994.581 2309.14H1002.43C1004.91 2309.14 1006.01 2310.38 1006.01 2312.72V2363.23C1006.01 2368.6 1004.22 2371.35 1000.78 2371.35H999.126V2345.75H983.286C983.148 2346.85 982.735 2347.95 982.322 2348.78C984.25 2348.78 985.077 2349.74 985.077 2351.39C985.077 2353.18 984.112 2354.15 982.046 2354.15H956.152C955.325 2355.8 954.086 2356.63 952.295 2356.63H950.78V2328C950.78 2325.93 950.642 2324.55 950.229 2323.73C949.953 2323.04 949.127 2322.35 947.75 2321.94C947.061 2321.66 946.648 2321.39 946.234 2321.11C945.959 2320.84 945.821 2320.29 945.821 2319.74C945.821 2318.5 946.51 2317.81 947.887 2317.81H980.118V2317.95ZM957.942 2348.78H976.95V2323.32H958.08V2346.16C958.08 2347.13 958.08 2348.09 957.942 2348.78ZM1006.98 2390.07H976.812C971.165 2390.07 968.41 2387.6 968.41 2382.5V2373.14C968.41 2371.49 968.135 2370.39 967.584 2369.84C967.033 2369.29 966.069 2368.88 964.691 2368.46C963.452 2368.05 962.625 2367.77 962.212 2367.5C961.799 2367.22 961.661 2366.81 961.661 2366.12C961.661 2364.88 962.625 2364.2 964.416 2364.2H971.716C974.058 2364.2 975.297 2365.57 975.297 2368.32V2382.78C975.297 2384.02 975.848 2384.57 976.95 2384.57H1007.11C1009.18 2384.57 1010.14 2385.53 1010.14 2387.32C1010.01 2389.11 1009.04 2390.07 1006.98 2390.07ZM983.699 2328.68V2340.38H999.401V2328.68H983.699Z"
      fill="white" />
    <path
      d="M259.06 2469.22C257.132 2469.22 256.306 2468.39 256.306 2466.47C256.306 2464.68 257.27 2463.71 259.06 2463.71H285.231C286.608 2463.71 287.71 2464.13 288.261 2465.09C288.949 2466.05 288.949 2467.02 288.536 2468.26C286.883 2472.25 284.266 2476.24 280.823 2480.09L294.184 2490.28C295.148 2490.97 295.699 2491.65 295.836 2492.62C295.974 2493.58 295.699 2494.41 295.148 2494.96C294.459 2495.65 293.633 2496.06 292.668 2496.06C291.704 2496.06 290.878 2495.65 290.189 2494.82L277.655 2483.12C277.517 2483.26 277.38 2483.4 277.38 2483.53C271.87 2488.49 265.396 2493.03 257.821 2496.89C255.892 2497.85 254.515 2497.71 253.689 2496.61C252.862 2495.51 253.275 2494.41 254.928 2493.44C259.887 2490.55 264.845 2486.97 269.528 2482.71C274.349 2478.44 277.93 2473.76 280.134 2468.94H259.06V2469.22ZM265.121 2455.18L262.779 2453.11C262.228 2452.56 261.953 2452.01 261.815 2451.6C261.677 2451.05 261.815 2450.5 262.228 2449.95C262.642 2449.4 263.193 2449.12 263.743 2449.12C264.294 2449.12 264.983 2449.26 265.534 2449.54C268.427 2450.91 271.044 2451.88 273.385 2452.29C275.727 2452.7 278.344 2452.84 281.098 2452.84C283.027 2452.84 283.991 2453.8 283.991 2455.59C283.991 2456.42 283.715 2457.11 283.027 2457.52C282.338 2457.93 281.649 2458.21 280.961 2458.21L273.385 2458.07C270.217 2458.21 267.462 2457.24 265.121 2455.18ZM275.176 2516.16C275.176 2511.75 276.966 2507.9 280.41 2504.73C283.853 2501.57 288.261 2499.91 293.357 2499.91C298.591 2499.91 302.861 2501.57 306.304 2504.73C309.748 2507.9 311.538 2511.75 311.538 2516.16C311.538 2520.56 309.748 2524.41 306.304 2527.58C302.861 2530.75 298.453 2532.4 293.357 2532.4C288.123 2532.4 283.853 2530.75 280.41 2527.58C276.966 2524.41 275.176 2520.56 275.176 2516.16ZM282.063 2516.16C282.063 2519.32 283.164 2521.8 285.368 2523.86C287.572 2525.93 290.189 2526.89 293.357 2526.89C296.387 2526.89 299.142 2525.93 301.346 2523.86C303.55 2521.8 304.652 2519.32 304.652 2516.16C304.652 2512.99 303.55 2510.51 301.346 2508.45C299.142 2506.38 296.525 2505.42 293.357 2505.42C290.327 2505.42 287.572 2506.38 285.368 2508.45C283.164 2510.37 282.063 2512.99 282.063 2516.16ZM305.203 2457.66C305.203 2456 304.927 2454.9 304.238 2454.22C303.55 2453.66 302.586 2453.11 301.346 2452.84C300.106 2452.56 299.28 2452.29 298.591 2452.01C298.04 2451.74 297.627 2451.32 297.627 2450.64C297.627 2449.4 298.591 2448.71 300.382 2448.71H308.233C310.712 2448.71 311.814 2449.95 311.814 2452.29V2490.97C311.814 2496.33 310.023 2499.09 306.58 2499.09H304.927V2480.78H292.944C291.016 2480.78 290.051 2479.95 290.051 2478.17C290.051 2476.38 291.016 2475.41 292.944 2475.41H305.203V2457.66Z"
      fill="white" />
    <path
      d="M327.792 2468.39C325.864 2468.39 325.037 2467.43 325.037 2465.64C325.037 2463.85 326.001 2463.02 327.792 2463.02H353.962C355.339 2463.02 356.441 2463.44 356.992 2464.26C357.681 2465.09 357.681 2466.19 357.13 2467.43C355.477 2471.01 352.998 2474.72 349.554 2478.58L362.64 2488.76C363.604 2489.45 364.155 2490.14 364.292 2491.1C364.43 2492.07 364.155 2492.89 363.604 2493.44C362.915 2494.13 362.089 2494.55 361.124 2494.55C360.16 2494.55 359.334 2494.13 358.645 2493.44L346.387 2482.02L345.973 2482.43C340.602 2487.66 333.99 2492.34 326.277 2496.33C324.348 2497.3 322.971 2497.3 322.145 2496.2C321.318 2495.1 321.731 2493.99 323.384 2493.03C328.205 2490.14 333.026 2486.42 337.709 2482.16C342.392 2477.89 346.111 2473.21 348.728 2468.53H327.792V2468.39ZM333.852 2454.22L331.511 2452.29C330.96 2451.74 330.684 2451.19 330.547 2450.77C330.409 2450.22 330.547 2449.67 330.96 2449.12C331.373 2448.57 331.924 2448.3 332.475 2448.3C333.026 2448.3 333.715 2448.43 334.266 2448.71C337.158 2450.09 339.775 2451.05 342.117 2451.46C344.458 2451.88 347.075 2452.15 349.83 2452.15C351.758 2452.15 352.722 2452.98 352.722 2454.77C352.722 2455.73 352.447 2456.42 351.758 2456.83C351.07 2457.24 350.381 2457.52 349.692 2457.52L342.117 2457.38C338.949 2457.24 336.194 2456.28 333.852 2454.22ZM350.243 2509.14H373.245V2504.59C373.245 2503.22 373.108 2502.25 372.694 2501.84C372.419 2501.43 371.73 2501.01 371.042 2500.88C370.215 2500.6 369.526 2500.33 369.113 2500.05C368.7 2499.78 368.425 2499.36 368.425 2498.81C368.425 2497.57 369.251 2497.02 370.904 2497.02H376.138C378.617 2497.02 379.719 2498.26 379.719 2500.74V2518.22C379.719 2521.39 379.03 2523.73 377.791 2525.1H378.342C380.27 2525.1 381.234 2526.07 381.234 2527.86C381.234 2529.64 380.27 2530.61 378.342 2530.61H348.866C347.902 2532.26 346.662 2533.09 345.147 2533.09H343.494V2507.76C343.494 2506.24 343.356 2505.28 343.081 2504.73C342.805 2504.18 342.392 2503.9 341.703 2503.77C341.015 2503.63 340.464 2503.35 339.775 2503.08C339.224 2502.8 338.949 2502.39 338.949 2501.7C338.949 2500.46 339.775 2499.91 341.566 2499.91H346.8C349.004 2499.91 350.105 2501.15 350.105 2503.63V2509.14H350.243ZM373.245 2514.64H350.243V2522.35C350.243 2523.31 350.243 2524.14 350.105 2524.96H373.245V2514.64ZM380.821 2452.43V2485.74C380.821 2491.1 379.03 2493.86 375.587 2493.86H373.934V2479.68H361.813C359.747 2479.68 358.783 2478.72 358.783 2476.93C358.783 2475.14 359.747 2474.17 361.813 2474.17H373.934V2457.66C373.934 2456 373.659 2454.9 372.97 2454.22C372.281 2453.66 371.317 2453.11 370.077 2452.84C368.838 2452.56 368.011 2452.29 367.323 2452.01C366.772 2451.74 366.358 2451.32 366.358 2450.64C366.358 2449.4 367.323 2448.71 369.113 2448.71H376.964C379.581 2448.71 380.821 2449.95 380.821 2452.43Z"
      fill="white" />
    <path
      d="M395.971 2462.89C394.043 2462.89 393.079 2461.92 393.079 2460.13C393.079 2458.34 394.043 2457.38 395.834 2457.38H421.04C422.693 2457.38 423.932 2457.79 424.621 2458.62C425.31 2459.45 425.447 2460.68 425.034 2462.06C423.795 2466.74 421.315 2471.28 417.596 2475.83L430.681 2487.94C431.646 2488.76 432.197 2489.73 432.334 2490.69C432.334 2491.65 432.059 2492.48 431.232 2493.03C430.544 2493.58 429.717 2493.86 428.753 2493.86C427.789 2493.86 426.962 2493.44 426.274 2492.76L414.428 2479.4C414.153 2479.82 413.877 2480.09 413.464 2480.37C407.404 2486.42 400.792 2491.24 393.63 2494.82C392.115 2495.65 391.013 2495.51 390.462 2494.41C389.911 2493.31 390.187 2492.34 391.426 2491.52C397.349 2487.66 402.583 2483.26 407.128 2478.17C411.674 2473.21 414.842 2467.98 416.77 2462.75H395.971V2462.89ZM410.985 2515.74C410.985 2511.06 412.776 2507.07 416.357 2503.77C419.938 2500.6 424.208 2498.95 429.304 2498.95C434.4 2498.95 438.67 2500.6 442.251 2503.77C445.833 2506.93 447.485 2510.92 447.485 2515.74C447.485 2520.56 445.695 2524.41 442.251 2527.72C438.67 2530.88 434.4 2532.54 429.304 2532.54C424.208 2532.54 419.938 2530.88 416.357 2527.72C412.776 2524.41 410.985 2520.42 410.985 2515.74ZM417.872 2515.74C417.872 2519.05 418.974 2521.8 421.178 2523.86C423.381 2525.93 426.136 2526.89 429.166 2526.89C432.197 2526.89 434.951 2525.93 437.155 2523.86C439.359 2521.8 440.461 2519.05 440.461 2515.74C440.461 2512.44 439.359 2509.69 437.155 2507.62C434.951 2505.56 432.197 2504.59 429.166 2504.59C426.136 2504.59 423.381 2505.56 421.178 2507.62C418.974 2509.69 417.872 2512.3 417.872 2515.74ZM441.012 2457.66C441.012 2456 440.599 2454.9 439.91 2454.22C439.221 2453.66 438.257 2453.11 437.017 2452.84C435.778 2452.56 434.814 2452.29 434.263 2452.01C433.712 2451.74 433.436 2451.32 433.436 2450.64C433.436 2449.4 434.4 2448.71 436.191 2448.71H444.18C446.521 2448.71 447.761 2449.95 447.761 2452.29V2471.83H459.469C461.397 2471.83 462.361 2472.8 462.361 2474.59C462.361 2476.38 461.397 2477.34 459.469 2477.34H447.761V2490C447.761 2495.37 445.97 2497.99 442.527 2497.99H441.012V2457.66Z"
      fill="white" />
    <path
      d="M531.231 2492.07H466.632C464.841 2492.07 463.877 2491.1 463.877 2489.31C463.877 2487.53 464.841 2486.56 466.632 2486.56H531.231C533.297 2486.56 534.261 2487.53 534.261 2489.31C534.261 2491.1 533.159 2492.07 531.231 2492.07ZM479.441 2504.59C477.513 2504.59 476.549 2503.77 476.549 2501.98C476.549 2500.19 477.513 2499.23 479.304 2499.23H516.906C518.972 2499.23 520.074 2500.46 520.074 2503.08V2513.26C520.074 2516.16 518.834 2517.67 516.493 2517.67H485.777V2523.31C485.777 2524.96 486.466 2525.79 487.981 2525.79H520.212C522.14 2525.79 523.104 2526.62 523.104 2528.54C523.104 2530.33 522.14 2531.3 520.212 2531.3H484.951C481.232 2531.3 479.304 2529.09 479.304 2524.83V2520.42C479.304 2519.18 479.028 2518.36 478.615 2517.81C478.202 2517.26 477.513 2516.84 476.549 2516.43C475.998 2516.29 475.585 2516.02 475.171 2515.74C474.758 2515.47 474.483 2515.05 474.483 2514.37C474.483 2513.13 475.309 2512.44 476.962 2512.44H513.463V2504.73H479.441V2504.59ZM478.89 2465.78C478.89 2461.37 480.819 2457.66 484.675 2454.63C488.532 2451.6 493.353 2450.09 499 2450.09C504.647 2450.09 509.468 2451.6 513.325 2454.63C517.181 2457.66 519.11 2461.37 519.11 2465.78C519.11 2470.18 517.181 2473.9 513.325 2476.93C509.468 2479.95 504.647 2481.47 499 2481.47C493.215 2481.47 488.394 2479.95 484.675 2476.93C480.956 2473.9 478.89 2470.18 478.89 2465.78ZM485.64 2465.78C485.64 2468.53 486.879 2470.87 489.358 2472.93C491.838 2474.86 495.006 2475.83 498.862 2475.83C502.719 2475.83 505.887 2474.86 508.366 2472.93C510.846 2471.01 512.085 2468.67 512.085 2465.78C512.085 2462.89 510.846 2460.68 508.366 2458.62C505.887 2456.69 502.719 2455.59 498.862 2455.59C495.006 2455.59 491.838 2456.56 489.358 2458.62C486.879 2460.68 485.64 2463.02 485.64 2465.78Z"
      fill="white" />
    <path
      d="M601.477 2467.15H590.733C586.05 2467.15 582.469 2468.26 579.99 2470.46C577.511 2472.66 576.271 2475.14 576.271 2477.89C576.271 2480.37 577.235 2482.29 579.026 2483.81C580.816 2485.32 583.02 2486.01 585.224 2486.01C587.979 2486.01 590.183 2485.32 591.973 2483.95C593.764 2482.57 594.59 2480.78 594.59 2478.58C594.59 2477.2 594.039 2475.96 593.075 2474.86C592.111 2473.76 590.871 2473.07 589.218 2472.66C588.667 2472.52 588.392 2472.25 588.254 2471.7C588.116 2471.15 588.116 2470.73 588.392 2470.32C588.667 2469.91 589.081 2469.63 589.632 2469.49C590.182 2469.49 590.596 2469.49 591.147 2469.49C593.901 2469.77 596.243 2470.73 598.309 2472.52C600.375 2474.31 601.339 2476.51 601.339 2479.13C601.339 2482.57 599.824 2485.46 596.656 2487.94C594.59 2489.73 591.973 2490.83 588.943 2491.38V2497.16H589.632C593.35 2497.16 596.518 2497.02 599.135 2496.89C601.752 2496.75 604.507 2496.47 607.124 2495.92C609.053 2495.51 610.154 2495.78 610.43 2496.75C610.705 2497.71 610.292 2498.54 609.328 2499.23C607.813 2500.19 605.334 2500.88 601.89 2501.57C598.447 2502.12 594.177 2502.53 589.081 2502.53H564.839C562.91 2502.53 562.084 2501.7 562.084 2499.78C562.084 2497.99 563.048 2497.02 564.839 2497.02H582.331V2491.24C579.301 2490.83 576.546 2489.59 574.205 2487.53C571.037 2484.91 569.384 2481.74 569.384 2478.03C569.384 2475.96 569.935 2473.9 571.175 2471.97C572.414 2470.04 573.929 2468.39 575.996 2467.15H567.043C564.976 2467.15 564.012 2466.19 564.012 2464.4C564.012 2462.61 564.976 2461.79 566.905 2461.79H601.339C603.268 2461.79 604.094 2462.61 604.094 2464.4C604.232 2466.33 603.268 2467.15 601.477 2467.15ZM576.684 2454.77L574.067 2452.7C573.516 2452.15 573.103 2451.6 572.965 2451.19C572.828 2450.64 572.965 2450.09 573.379 2449.54C573.929 2448.98 574.343 2448.71 575.031 2448.71C575.582 2448.71 576.133 2448.85 576.822 2449.12C579.439 2450.5 581.918 2451.32 584.122 2451.88C586.326 2452.29 588.667 2452.56 591.284 2452.56C593.213 2452.56 594.177 2453.53 594.177 2455.32C594.177 2456.14 593.901 2456.83 593.213 2457.24C592.524 2457.66 591.835 2457.93 591.147 2457.93L584.811 2457.79C581.78 2457.79 579.163 2456.83 576.684 2454.77ZM579.99 2513.82C578.337 2513.82 577.511 2512.85 577.511 2511.06C577.511 2509.27 578.337 2508.31 579.99 2508.31H616.628C618.832 2508.31 619.934 2509.55 619.934 2512.03V2524.28C619.934 2529.78 618.419 2532.54 615.251 2532.54H613.322V2513.54H579.99V2513.82ZM613.873 2457.66C613.873 2456 613.46 2454.9 612.772 2454.22C612.083 2453.66 611.119 2453.11 609.879 2452.84C608.639 2452.56 607.675 2452.29 607.124 2452.01C606.573 2451.74 606.298 2451.32 606.298 2450.64C606.298 2449.4 607.262 2448.71 609.053 2448.71H617.041C619.383 2448.71 620.623 2449.95 620.623 2452.29V2477.75H632.33C634.259 2477.75 635.223 2478.72 635.223 2480.51C635.223 2482.29 634.259 2483.26 632.33 2483.26H620.623V2496.89C620.623 2502.25 618.832 2504.87 615.389 2504.87H613.873V2457.66Z"
      fill="white" />
    <path
      d="M637.288 2476.24C637.288 2471.28 639.079 2466.88 642.66 2463.3C646.241 2459.72 650.786 2457.79 656.296 2457.79C661.943 2457.79 666.626 2459.58 670.345 2463.3C674.064 2467.02 675.855 2471.28 675.855 2476.38C675.855 2481.33 674.064 2485.6 670.345 2489.18C666.626 2492.76 661.943 2494.68 656.296 2494.68C650.786 2494.68 646.241 2492.89 642.66 2489.18C639.079 2485.32 637.288 2481.06 637.288 2476.24ZM644.175 2476.24C644.175 2479.82 645.277 2482.85 647.481 2485.32C649.684 2487.66 652.577 2488.9 656.296 2488.9C660.015 2488.9 663.045 2487.66 665.387 2485.32C667.728 2482.85 668.968 2479.95 668.968 2476.38C668.968 2472.8 667.728 2469.63 665.387 2467.15C663.045 2464.68 660.015 2463.44 656.296 2463.44C652.715 2463.44 649.822 2464.68 647.618 2467.02C645.277 2469.36 644.175 2472.38 644.175 2476.24ZM696.791 2529.78H666.626C660.979 2529.78 658.224 2527.3 658.224 2522.21V2512.85C658.224 2511.2 657.949 2510.1 657.398 2509.55C656.847 2509 655.883 2508.58 654.505 2508.17C653.266 2507.76 652.439 2507.48 652.026 2507.21C651.613 2506.93 651.475 2506.52 651.475 2505.83C651.475 2504.59 652.439 2503.91 654.23 2503.91H661.53C663.871 2503.91 665.111 2505.28 665.111 2508.03V2522.49C665.111 2523.73 665.662 2524.28 666.764 2524.28H696.929C698.995 2524.28 699.959 2525.24 699.959 2527.03C699.821 2528.82 698.719 2529.78 696.791 2529.78ZM689.215 2457.66C689.215 2456 688.94 2454.9 688.251 2454.22C687.562 2453.66 686.598 2453.11 685.359 2452.84C684.119 2452.56 683.293 2452.29 682.604 2452.01C682.053 2451.74 681.64 2451.32 681.64 2450.64C681.64 2449.4 682.604 2448.71 684.394 2448.71H692.245C694.725 2448.71 695.827 2449.95 695.827 2452.29V2502.8C695.827 2508.17 694.036 2510.92 690.593 2510.92H688.94V2457.66H689.215Z"
      fill="white" />
    <path
      d="M730.261 2474.31C729.572 2474.17 729.159 2473.76 728.884 2473.35C728.608 2472.93 728.608 2472.38 728.746 2471.97C729.021 2471.42 729.434 2471.15 729.985 2471.01C730.536 2470.87 731.225 2470.87 731.776 2471.01C735.357 2471.28 738.112 2472.52 740.178 2474.72C742.244 2476.93 743.346 2479.27 743.208 2481.88C743.208 2485.19 741.555 2488.21 738.25 2490.83C734.944 2493.44 730.95 2494.82 725.853 2494.68C721.032 2494.68 716.9 2493.17 713.595 2490.42C710.289 2487.66 708.636 2484.36 708.636 2480.64C708.636 2478.17 709.325 2475.83 710.84 2473.62C712.355 2471.42 714.146 2469.63 716.625 2468.26H707.396C705.468 2468.26 704.504 2467.29 704.504 2465.5C704.504 2463.71 705.468 2462.89 707.259 2462.89H743.346C745.274 2462.89 746.238 2463.71 746.238 2465.5C746.238 2467.29 745.274 2468.26 743.346 2468.26H730.812C726.129 2468.26 722.272 2469.49 719.38 2472.11C716.487 2474.72 715.247 2477.48 715.523 2480.64C715.661 2482.98 716.763 2484.91 718.829 2486.56C720.895 2488.21 723.236 2489.04 726.129 2489.04C729.021 2489.04 731.363 2488.21 733.429 2486.7C735.495 2485.19 736.459 2483.4 736.597 2481.61C736.597 2479.68 736.046 2478.17 734.944 2476.79C733.842 2475.69 732.189 2474.72 730.261 2474.31ZM715.936 2454.9L713.595 2452.98C713.044 2452.43 712.63 2451.88 712.493 2451.46C712.355 2450.91 712.493 2450.36 713.044 2449.81C713.457 2449.4 714.008 2449.12 714.697 2449.12C715.385 2449.12 715.936 2449.26 716.349 2449.4C719.242 2450.91 721.997 2451.88 724.476 2452.15C726.955 2452.56 729.71 2452.7 732.602 2452.7C734.531 2452.7 735.357 2453.66 735.357 2455.45C735.357 2456.28 735.082 2456.97 734.393 2457.38C733.704 2457.79 733.153 2458.07 732.465 2458.07L724.338 2457.93C721.032 2457.93 718.14 2456.97 715.936 2454.9ZM762.216 2531.43H730.812C727.644 2531.43 725.991 2529.51 725.991 2525.79V2520.56C725.991 2519.32 725.716 2518.5 725.165 2517.94C724.614 2517.39 723.925 2516.98 723.099 2516.57C722.548 2516.43 722.134 2516.16 721.859 2515.88C721.583 2515.6 721.308 2515.19 721.308 2514.5C721.308 2513.26 722.134 2512.71 723.649 2512.71H755.467V2504.87H726.129C724.2 2504.87 723.236 2504.04 723.236 2502.25C723.236 2500.46 724.2 2499.64 725.991 2499.64H759.048C761.114 2499.64 762.078 2500.88 762.078 2503.35V2513.54C762.078 2516.57 760.839 2518.08 758.359 2518.08H732.465V2523.59C732.465 2525.24 733.153 2526.07 734.531 2526.07H761.803C763.731 2526.07 764.695 2526.89 764.695 2528.68C765.109 2530.47 764.144 2531.43 762.216 2531.43ZM756.293 2457.66C756.293 2456 755.88 2454.9 755.191 2454.22C754.503 2453.66 753.539 2453.11 752.299 2452.84C751.059 2452.56 750.095 2452.29 749.544 2452.01C748.993 2451.74 748.718 2451.32 748.718 2450.64C748.718 2449.4 749.682 2448.71 751.473 2448.71H759.461C761.803 2448.71 763.042 2449.95 763.042 2452.29V2472.38H774.75C776.679 2472.38 777.643 2473.35 777.643 2475.14C777.643 2476.93 776.679 2477.89 774.75 2477.89H763.042V2486.7C763.042 2492.07 761.252 2494.68 757.808 2494.68H756.293V2457.66V2457.66Z"
      fill="white" />
    <path
      d="M843.757 2500.05V2522.35C843.757 2527.99 842.104 2530.75 838.936 2530.75H837.008V2500.05H807.945C806.155 2500.05 805.19 2499.09 805.19 2497.3C805.19 2495.51 806.155 2494.55 807.945 2494.55H872.544C874.61 2494.55 875.574 2495.51 875.574 2497.3C875.574 2499.09 874.61 2500.05 872.544 2500.05H843.757V2500.05ZM845.823 2457.52C845.823 2460.27 844.721 2463.3 842.517 2466.33L863.867 2479.54C864.969 2480.37 865.657 2481.33 865.795 2482.16C865.933 2483.12 865.795 2483.81 865.244 2484.5C864.693 2485.19 864.004 2485.6 862.903 2485.74C861.938 2485.87 860.699 2485.6 859.597 2484.63L839.625 2470.04C838.661 2471.15 837.559 2472.11 836.319 2473.21C830.121 2478.99 823.647 2483.4 816.623 2486.42C814.97 2487.11 813.868 2486.97 813.042 2486.15C812.353 2485.32 812.628 2484.36 814.006 2483.53C819.377 2480.51 824.336 2476.65 828.744 2472.11C833.151 2467.57 835.906 2463.3 837.008 2459.31C837.283 2458.34 837.008 2457.79 836.319 2457.38C835.63 2456.97 834.666 2456.69 833.564 2456.42C832.049 2456.14 831.498 2455.32 831.498 2454.22C831.636 2452.98 832.463 2452.43 834.253 2452.43H840.176C842.38 2452.43 843.757 2452.84 844.583 2453.8C845.548 2454.77 845.823 2456 845.823 2457.52Z"
      fill="white" />
    <path
      d="M904.775 2474.31C904.775 2469.22 906.704 2464.95 910.56 2461.51C914.417 2458.07 918.825 2456.42 923.921 2456.42C929.155 2456.42 933.7 2458.07 937.557 2461.51C941.414 2464.95 943.342 2469.08 943.342 2474.31C943.342 2479.4 941.414 2483.67 937.557 2486.97C933.7 2490.28 929.155 2491.93 923.921 2491.93C918.825 2491.93 914.417 2490.28 910.56 2486.97C906.704 2483.53 904.775 2479.4 904.775 2474.31ZM911.8 2474.31C911.8 2477.75 913.04 2480.64 915.381 2482.85C917.723 2485.19 920.615 2486.29 923.921 2486.29C927.364 2486.29 930.257 2485.19 932.736 2482.85C935.215 2480.51 936.455 2477.61 936.455 2474.31C936.455 2470.73 935.215 2467.84 932.736 2465.5C930.257 2463.16 927.364 2462.06 923.921 2462.06C920.615 2462.06 917.723 2463.16 915.381 2465.5C912.902 2467.84 911.8 2470.73 911.8 2474.31ZM936.868 2505.01C936.455 2507.76 935.629 2510.37 934.114 2513.13L944.444 2521.66C945.27 2520.56 946.097 2519.32 946.923 2518.08C949.953 2513.54 951.744 2509.14 952.708 2505.01C952.846 2504.46 952.708 2504.04 952.295 2503.63C951.882 2503.22 951.193 2502.94 949.953 2502.53C949.265 2502.39 948.714 2502.12 948.301 2501.98C947.887 2501.7 947.75 2501.43 947.75 2500.88C947.75 2499.64 948.576 2498.95 950.229 2498.95H956.014C957.804 2498.95 959.044 2499.36 959.457 2500.33C960.008 2501.29 960.146 2502.53 960.008 2504.04C959.595 2507.07 958.631 2510.1 956.978 2513.13L969.788 2523.73C970.89 2524.69 971.578 2525.65 971.854 2526.62C971.991 2527.58 971.854 2528.41 971.165 2529.09C970.614 2529.78 969.788 2530.06 968.686 2530.06C967.584 2530.06 966.62 2529.51 965.656 2528.41L954.499 2517.26C953.81 2518.22 953.121 2519.05 952.433 2520.01C948.301 2525.38 944.168 2529.23 940.036 2531.57C938.383 2532.67 937.144 2532.67 936.317 2531.85C935.491 2530.88 935.766 2530.06 937.006 2529.09C938.108 2528.13 939.348 2527.17 940.312 2526.07L931.359 2517.12L929.844 2519.05C925.987 2523.73 921.579 2527.58 916.621 2530.33C914.83 2531.3 913.591 2531.43 912.764 2530.47C911.938 2529.64 912.213 2528.68 913.591 2527.58C917.723 2524.69 921.166 2521.11 923.921 2517.12C926.676 2513.13 928.466 2509.41 929.155 2506.11C929.293 2505.56 929.155 2505.14 928.742 2504.73C928.329 2504.32 927.64 2503.9 926.4 2503.63C925.436 2503.35 924.885 2503.22 924.61 2502.94C924.334 2502.67 924.196 2502.25 924.196 2501.7C924.196 2500.6 925.023 2499.91 926.813 2499.91H932.736C934.527 2499.91 935.629 2500.33 936.042 2501.29C936.868 2502.39 937.006 2503.63 936.868 2505.01ZM956.84 2496.75V2457.66C956.84 2456 956.565 2454.9 955.876 2454.22C955.187 2453.66 954.223 2453.11 952.984 2452.84C951.744 2452.56 950.918 2452.29 950.229 2452.01C949.678 2451.74 949.265 2451.32 949.265 2450.64C949.265 2449.4 950.229 2448.71 952.019 2448.71H959.871C962.35 2448.71 963.452 2449.95 963.452 2452.29V2488.63C963.452 2493.99 961.661 2496.75 958.218 2496.75H956.84Z"
      fill="white" />
    <path
      d="M1040.31 2493.03H975.71C973.919 2493.03 972.955 2492.07 972.955 2490.28C972.955 2488.49 973.919 2487.53 975.71 2487.53H1040.31C1042.37 2487.53 1043.34 2488.49 1043.34 2490.28C1043.2 2492.2 1042.24 2493.03 1040.31 2493.03ZM1033.01 2479.95C1032.46 2480.64 1031.77 2481.06 1030.8 2481.33C1029.84 2481.61 1028.74 2481.19 1027.5 2480.37L1006.98 2467.7C1006.29 2468.39 1005.46 2469.22 1004.63 2469.91C998.574 2475.14 991.825 2479.13 984.525 2481.88C982.872 2482.57 981.633 2482.43 980.944 2481.47C980.255 2480.51 980.531 2479.68 982.046 2478.99C987.968 2475.96 992.927 2472.52 996.921 2468.67C1001.05 2464.81 1003.67 2461.1 1005.05 2457.79C1005.46 2456.97 1005.19 2456.28 1004.5 2455.87C1003.67 2455.45 1002.84 2455.18 1001.6 2454.9C1000.09 2454.49 999.538 2453.8 999.538 2452.56C999.676 2451.32 1000.5 2450.77 1002.29 2450.77H1008.63C1010.56 2450.77 1011.8 2451.05 1012.49 2451.74C1013.17 2452.43 1013.45 2453.53 1013.59 2455.18C1013.59 2458.07 1012.49 2460.96 1010.28 2463.99L1031.63 2474.86C1032.73 2475.41 1033.42 2476.24 1033.56 2477.2C1033.7 2478.58 1033.42 2479.4 1033.01 2479.95ZM1027.5 2530.47H993.891C993.065 2532.12 991.825 2532.95 990.172 2532.95H988.519V2508.17C988.519 2506.66 988.382 2505.69 988.106 2505.14C987.831 2504.59 987.28 2504.32 986.591 2504.18C985.902 2504.04 985.351 2503.77 984.663 2503.49C984.112 2503.22 983.836 2502.8 983.836 2502.12C983.836 2500.88 984.663 2500.33 986.453 2500.33H991.825C994.029 2500.33 995.131 2501.56 995.131 2504.04V2510.1H1022.4V2506.66C1022.4 2505.28 1022.27 2504.32 1021.85 2503.9C1021.58 2503.49 1021.03 2503.08 1020.2 2502.8C1019.37 2502.53 1018.68 2502.25 1018.27 2501.98C1017.86 2501.7 1017.58 2501.29 1017.58 2500.74C1017.58 2499.5 1018.41 2498.81 1020.2 2498.81H1025.43C1027.91 2498.81 1029.01 2500.05 1029.01 2502.53V2518.08C1029.01 2521.25 1028.46 2523.59 1027.22 2524.96H1027.36C1029.29 2524.96 1030.12 2525.93 1030.12 2527.72C1030.25 2529.51 1029.29 2530.47 1027.5 2530.47ZM994.993 2524.96H1022.27V2515.47H994.993V2522.35C995.131 2523.31 995.131 2524.14 994.993 2524.96Z"
      fill="white" />
    <path
      d="M1059.73 2497.3H1086.18C1088.1 2497.3 1089.07 2498.26 1089.07 2500.05C1089.07 2501.84 1088.1 2502.8 1086.18 2502.8H1056.01C1052.43 2502.8 1050.78 2500.88 1050.78 2497.02V2469.36C1050.78 2467.98 1050.64 2467.02 1050.36 2466.33C1050.09 2465.64 1049.4 2465.23 1048.16 2464.81C1047.33 2464.54 1046.64 2464.26 1046.23 2463.99C1045.82 2463.71 1045.54 2463.16 1045.54 2462.61C1045.54 2461.37 1046.37 2460.82 1048.16 2460.82H1053.81C1056.29 2460.82 1057.66 2462.2 1057.66 2464.95V2494.82C1057.53 2496.47 1058.21 2497.3 1059.73 2497.3ZM1098.43 2457.66C1098.43 2456 1098.16 2454.9 1097.47 2454.22C1096.78 2453.66 1095.82 2453.11 1094.58 2452.84C1093.34 2452.56 1092.51 2452.29 1091.82 2452.01C1091.27 2451.74 1090.86 2451.32 1090.86 2450.64C1090.86 2449.4 1091.82 2448.71 1093.61 2448.71H1101.46C1103.94 2448.71 1105.05 2449.95 1105.05 2452.29V2522.62C1105.05 2527.99 1103.26 2530.75 1099.81 2530.75H1098.16V2457.66H1098.43Z"
      fill="white" />
    <path
      d="M1153.12 2502.67H1124.74C1121.16 2502.67 1119.51 2500.74 1119.51 2496.89V2471.42C1119.51 2469.49 1119.37 2468.12 1119.23 2467.43C1118.96 2466.74 1118.27 2466.19 1116.89 2465.64C1116.34 2465.36 1115.79 2465.09 1115.38 2464.81C1114.96 2464.54 1114.69 2463.99 1114.69 2463.44C1114.69 2462.2 1115.51 2461.51 1117.03 2461.51H1149.67C1151.6 2461.51 1152.43 2462.47 1152.43 2464.26C1152.43 2466.05 1151.46 2467.02 1149.67 2467.02H1126.26V2494.82C1126.26 2496.47 1126.95 2497.3 1128.46 2497.3H1153.12C1155.04 2497.3 1155.87 2498.26 1155.87 2500.05C1155.87 2501.7 1155.04 2502.67 1153.12 2502.67ZM1165.51 2457.66C1165.51 2456 1165.1 2454.9 1164.41 2454.22C1163.72 2453.66 1162.76 2453.11 1161.52 2452.84C1160.28 2452.56 1159.31 2452.29 1158.76 2452.01C1158.21 2451.74 1157.94 2451.32 1157.94 2450.64C1157.94 2449.4 1158.9 2448.71 1160.69 2448.71H1168.68C1171.02 2448.71 1172.26 2449.95 1172.26 2452.29V2478.99H1183.97C1185.9 2478.99 1186.86 2479.95 1186.86 2481.74C1186.86 2483.53 1185.9 2484.5 1183.97 2484.5H1172.26V2522.49C1172.26 2527.86 1170.47 2530.47 1167.03 2530.47H1165.51V2457.66Z"
      fill="white" />
    <path
      d="M664.561 2856C664.01 2856 663.459 2855.72 663.046 2855.31C662.219 2854.49 662.219 2853.11 663.046 2852.28L777.23 2738.18C778.057 2737.35 779.434 2737.35 780.26 2738.18C781.087 2739 781.087 2740.38 780.26 2741.2L666.076 2855.31C665.663 2855.72 665.112 2856 664.561 2856Z"
      fill="white" />
    <path
      d="M778.745 2856C778.194 2856 777.643 2855.72 777.23 2855.31L663.046 2741.2C662.219 2740.38 662.219 2739 663.046 2738.18C663.872 2737.35 665.249 2737.35 666.076 2738.18L780.26 2852.28C781.087 2853.11 781.087 2854.49 780.26 2855.31C779.847 2855.72 779.296 2856 778.745 2856Z"
      fill="white" />
  </g>
  <defs>
    <clipPath id="clip0_116_97">
      <rect width="925" height="407" fill="white" transform="translate(257 1163)" />
    </clipPath>
    <clipPath id="clip1_116_97">
      <rect width="934" height="547" fill="white" transform="translate(253 2309)" />
    </clipPath>
  </defs>
</svg>