<?xml version="1.0" encoding="UTF-8" standalone="no" ?>
<!DOCTYPE svg PUBLIC "-//W3C//DTD SVG 1.1//EN" "http://www.w3.org/Graphics/SVG/1.1/DTD/svg11.dtd">
<svg xmlns="http://www.w3.org/2000/svg" xmlns:xlink="http://www.w3.org/1999/xlink" version="1.1" width="95.7363"
  height="78.6124" viewBox="0 0 95.7363 78.6124" xml:space="preserve">
  <desc>Created with Fabric.js 4.6.0</desc>
  <defs>
  </defs>
  <g transform="matrix(1 0 0 1 47.87 39.31)" id="I9hZZhKqiw0RBsZcp-SK9">
    <path
      style="stroke: none; stroke-width: 1; stroke-dasharray: none; stroke-linecap: butt; stroke-dashoffset: 0; stroke-linejoin: miter; stroke-miterlimit: 4; fill: #C96678; fill-rule: nonzero; opacity: 1;"
      vector-effect="non-scaling-stroke" transform=" translate(0, 0)"
      d="M -0.03086 39.30619 C -1.7320600000000002 39.30859 -3.41696 38.97499 -4.98886 38.32459 C -6.56086 37.67419 -7.988659999999999 36.71979 -9.190760000000001 35.51619 L -40.48084 4.25609 C -45.23237 -0.5510099999999998 -47.88816 -7.04331 -47.86805 -13.802309999999999 C -47.847939999999994 -20.56141 -45.153479999999995 -27.037709999999997 -40.373419999999996 -31.816489999999998 C -35.59336 -36.59523 -29.116359999999997 -39.28787 -22.357259999999997 -39.30612 C -15.598259999999996 -39.32437 -9.106659999999996 -36.66677 -4.300859999999997 -31.913899999999998 L -0.050859999999996575 -27.663909999999998 L 3.8192400000000033 -31.5339 C 13.949240000000003 -41.6639 30.299140000000005 -41.87388 40.26914 -32.01388 C 42.66704 -29.64477 44.57294 -26.82491 45.87704 -23.71651 C 47.18114 -20.60811 47.85784 -17.27251 47.86804 -13.90171 C 47.87824 -10.530809999999999 47.22184 -7.19131 45.93664 -4.075009999999999 C 44.651439999999994 -0.9588099999999988 42.762739999999994 1.8724900000000009 40.379239999999996 4.25609 L 9.119239999999994 35.51619 C 6.688839999999994 37.937290000000004 3.399739999999994 39.29969 -0.030860000000005883 39.30619 z M 9.45914 -25.91391 C 9.45914 -25.91391 16.50914 -32.953900000000004 9.45914 -25.91391 z"
      stroke-linecap="round" />
  </g>
</svg>