<svg width="96" height="79" viewBox="0 0 96 79" fill="none" xmlns="http://www.w3.org/2000/svg">
<path d="M47.8373 78.6124C46.1361 78.6148 44.4512 78.2812 42.8793 77.6308C41.3073 76.9804 39.8795 76.026 38.6774 74.8224L7.38732 43.5623C2.63579 38.7552 -0.0200006 32.2629 0.000113424 25.5039C0.0202274 18.7448 2.71468 12.2685 7.49474 7.48972C12.2748 2.71098 18.7518 0.0183389 25.5109 9.333e-05C32.2699 -0.0181522 38.7615 2.63944 43.5673 7.39231L47.8173 11.6423L51.6874 7.77231C61.8174 -2.35769 78.1673 -2.56767 88.1373 7.29233C90.5352 9.66144 92.4411 12.4813 93.7452 15.5897C95.0493 18.6981 95.726 22.0337 95.7362 25.4045C95.7464 28.7754 95.09 32.1149 93.8048 35.2312C92.5196 38.3474 90.6309 41.1787 88.2474 43.5623L56.9874 74.8224C54.557 77.2435 51.2679 78.6059 47.8373 78.6124V78.6124ZM25.4974 7.85239C23.1822 7.84339 20.888 8.2949 18.7489 9.18076C16.6098 10.0666 14.6682 11.369 13.0372 13.0123C9.73664 16.3211 7.88317 20.8039 7.88317 25.4774C7.88317 30.1509 9.73664 34.6336 13.0372 37.9424L44.2972 69.2024C44.7617 69.668 45.3136 70.0375 45.921 70.2895C46.5285 70.5416 47.1796 70.6712 47.8373 70.6712C48.4949 70.6712 49.1463 70.5416 49.7538 70.2895C50.3612 70.0375 50.9129 69.668 51.3773 69.2024L82.6373 37.9424C84.2824 36.3008 85.5863 34.3497 86.4737 32.2019C87.3612 30.054 87.8147 27.7518 87.8082 25.4278C87.8017 23.1038 87.3354 20.8041 86.4359 18.6612C85.5364 16.5184 84.2215 14.5747 82.5673 12.9424C75.6973 6.14235 64.3773 6.35231 57.3273 13.3923L47.8473 22.8823L37.9574 13.0123C36.3257 11.3699 34.3839 10.0681 32.245 9.18234C30.106 8.29655 27.8125 7.8445 25.4974 7.85239V7.85239Z" fill="url(#paint0_linear_15_281)"/>
<defs>
<linearGradient id="paint0_linear_15_281" x1="18.5774" y1="-3.77767" x2="77.0874" y2="54.7324" gradientUnits="userSpaceOnUse">
<stop stop-color="#B3B3B3"/>
<stop offset="1" stop-color="#CCCCCC"/>
</linearGradient>
</defs>
</svg>
