<svg id="eyOF2gQxMib1" xmlns="http://www.w3.org/2000/svg" xmlns:xlink="http://www.w3.org/1999/xlink" viewBox="0 0 96 79"
  shape-rendering="geometricPrecision" text-rendering="geometricPrecision" style="background-color:transparent">
  <defs>
    <linearGradient id="eyOF2gQxMib2-fill" x1="18.5675" y1="-3.7678" x2="77.0775" y2="54.7423" spreadMethod="pad"
      gradientUnits="userSpaceOnUse" gradientTransform="translate(0 0)">
      <stop id="eyOF2gQxMib2-fill-0" offset="0%" stop-color="#b3b3b3" />
      <stop id="eyOF2gQxMib2-fill-1" offset="100%" stop-color="#ccc" />
    </linearGradient>
  </defs>
  <path id="eyOF2gQxMib2"
    d="M47.8,78.6c-1.7,0-3.4-.3-5-1s-3-1.6-4.2-2.8L7.4,43.6C2.6,38.8,0,32.3,0,25.5s2.7-13.2,7.5-18s11.3-7.5,18-7.5c6.8,0,13.3,2.6,18.1,7.4l4.3,4.2l3.9-3.9c10-10.1,26.4-10.3,36.3-.4c2.4,2.4,4.3,5.2,5.6,8.3s2,6.4,2,9.8-.6,6.7-1.9,9.8-3.2,5.9-5.6,8.3L57,74.8c-2.4,2.4-5.7,3.8-9.2,3.8v0ZM25.5,7.9c-2.3,0-4.6.4-6.7,1.3s-4.1,2.2-5.7,3.8c-3.3,3.3-5.2,7.8-5.2,12.5s1.9,9.2,5.2,12.5L44.4,69.3c.5.5,1,.8,1.6,1.1s1.3.4,1.9.4c.7,0,1.3-.1,1.9-.4s1.2-.6,1.6-1.1L82.7,38c1.6-1.6,2.9-3.6,3.8-5.7s1.3-4.5,1.3-6.8-.5-4.6-1.4-6.8c-.9-2.1-2.2-4.1-3.9-5.7-6.9-6.8-18.2-6.6-25.2.4l-9.5,9.5L38,13c-1.6-1.6-3.6-2.9-5.7-3.8-2.2-.9-4.5-1.4-6.8-1.3v0Z"
    fill="url(#eyOF2gQxMib2-fill)" />
  <path id="eyOF2gQxMib3" d="M48,15.6v9.8" transform="translate(0 12.484828)" opacity="0" fill="none" stroke="#f48b9e"
    stroke-width="3" stroke-linecap="round" stroke-dasharray="9.8" />
  <path id="eyOF2gQxMib4" d="M48,15.6v9.8" transform="matrix(.707107 0.707107-.707107 0.707107 32.677957-13.210208)"
    opacity="0" fill="none" stroke="#f48b9e" stroke-width="3" stroke-linecap="round" stroke-dasharray="9.8" />
  <path id="eyOF2gQxMib5" d="M48,15.6v9.8" transform="matrix(0 1-1 0 74.653041-8.349999)" opacity="0" fill="none"
    stroke="#f48b9e" stroke-width="3" stroke-linecap="round" stroke-dasharray="9.8" />
  <path id="eyOF2gQxMib6" d="M48,15.6v9.8" transform="matrix(-.707107 0.707107-.707107-.707107 100.560209 24.327959)"
    opacity="0" fill="none" stroke="#f48b9e" stroke-width="3" stroke-linecap="round" stroke-dasharray="9.8" />
  <path id="eyOF2gQxMib7" d="M48,15.6v9.8" transform="matrix(-1 0 0-1 95.699999 65.050002)" opacity="0" fill="none"
    stroke="#f48b9e" stroke-width="3" stroke-linecap="round" stroke-dasharray="9.8" />
  <path id="eyOF2gQxMib8" d="M48,15.6v9.8" transform="matrix(-.707107-.707107 0.707107-.707107 63.680611 91.200895)"
    opacity="0" fill="none" stroke="#f48b9e" stroke-width="3" stroke-linecap="round" stroke-dasharray="9.8" />
  <path id="eyOF2gQxMib9" d="M48,15.6v9.8" transform="matrix(0-1 1 0 21.04696 87.35)" opacity="0" fill="none"
    stroke="#f48b9e" stroke-width="3" stroke-linecap="round" stroke-dasharray="9.8" />
  <path id="eyOF2gQxMib10" d="M48,15.6v9.8" transform="matrix(.707107-.707107 0.707107 0.707107-4.201638 54.672043)"
    opacity="0" fill="none" stroke="#f48b9e" stroke-width="3" stroke-linecap="round" stroke-dasharray="9.8" />
  <path id="eyOF2gQxMib11"
    d="M47.8,78.6c-1.7,0-3.4-.3-5-1s-3-1.6-4.2-2.8L7.4,43.6C2.6,38.8,0,32.3,0,25.5s2.7-13.2,7.5-18s11.3-7.5,18-7.5c6.8,0,13.3,2.6,18.1,7.4l4.3,4.2l3.9-3.9c10-10.1,26.4-10.3,36.3-.4c2.4,2.4,4.3,5.2,5.6,8.3s2,6.4,2,9.8-.6,6.7-1.9,9.8-3.2,5.9-5.6,8.3L57,74.8c-2.4,2.4-5.7,3.8-9.2,3.8v0Z"
    transform="matrix(0 0 0 0 47.849998 39.299155)" fill="#c96678" />

</svg>