<svg width="1124" height="43" viewBox="0 0 1124 43" fill="none" xmlns="http://www.w3.org/2000/svg">
<path d="M563.92 0.00837593C566.287 -0.00460537 568.568 0.893998 570.29 2.51814C569.862 3.15306 569.615 3.89231 569.576 4.65681C569.536 5.42132 569.705 6.18217 570.064 6.85799C570.424 7.5338 570.961 8.09906 571.617 8.49324C572.273 8.88742 573.024 9.09578 573.79 9.09578C574.555 9.09578 575.306 8.88742 575.963 8.49324C576.619 8.09906 577.156 7.5338 577.515 6.85799C577.875 6.18217 578.044 5.42132 578.004 4.65681C577.965 3.89231 577.718 3.15306 577.29 2.51814C578.993 0.902153 581.252 0.00362367 583.6 0.00837593C584.886 -0.0456323 586.17 0.161955 587.373 0.619216C588.576 1.07648 589.674 1.77354 590.6 2.66804C591.488 3.53777 592.187 4.58228 592.652 5.73543C593.116 6.88857 593.337 8.12554 593.3 9.36824C593.345 12.1554 592.681 14.9083 591.37 17.3682C589.942 19.9195 588.235 22.304 586.28 24.4781C583.66 27.4914 581.267 30.4482 579.1 33.3482C579.701 34.2898 580.039 35.3756 580.076 36.4923C580.114 37.609 579.851 38.7154 579.314 39.6954C578.777 40.6753 577.987 41.4931 577.025 42.0626C576.064 42.6321 574.967 42.9322 573.85 42.9322C572.733 42.9322 571.636 42.6321 570.675 42.0626C569.713 41.4931 568.923 40.6753 568.386 39.6954C567.849 38.7154 567.586 37.609 567.623 36.4923C567.661 35.3756 567.998 34.2898 568.6 33.3482C566.427 30.4349 564.013 27.4781 561.36 24.4781C559.446 22.292 557.77 19.9087 556.36 17.3682C555.049 14.9083 554.385 12.1554 554.43 9.36824C554.394 8.12481 554.616 6.88715 555.083 5.73396C555.549 4.58078 556.25 3.53691 557.14 2.66804C558.036 1.79548 559.097 1.11067 560.262 0.653884C561.426 0.1971 562.669 -0.0221136 563.92 0.00837593Z" fill="#E5E5E5"/>
<path d="M627 18.5381H1124" stroke="#B2B2B2" stroke-miterlimit="10"/>
<path d="M0 18.5381H497" stroke="#B2B2B2" stroke-miterlimit="10"/>
</svg>
