<svg width="82" height="77" viewBox="0 0 82 77" fill="none" xmlns="http://www.w3.org/2000/svg">
<path fill-rule="evenodd" clip-rule="evenodd" d="M72.1298 50.6202C68.6598 48.5502 64.1297 46.23 60.0497 47.9C56.9197 49.19 54.9098 54.1 52.8798 56.61C52.4461 57.2012 51.8109 57.6134 51.0942 57.7682C50.3775 57.9229 49.6292 57.8099 48.9902 57.4503C37.5128 52.9512 27.89 44.7096 21.6801 34.0602C20.5801 32.3702 20.78 31.0601 22.1 29.4801C24.1 27.1701 26.53 24.5501 27.1 21.4801C27.67 18.4101 26.1701 14.7203 24.8901 11.9503C23.2401 8.40029 21.4001 3.34994 17.8901 1.33994C14.6201 -0.500061 10.3199 0.529997 7.41987 2.9C2.41987 6.99 -0.0302514 13.3903 0.0497486 19.7403C0.0681409 21.5428 0.289693 23.337 0.709905 25.0899C1.83453 29.2558 3.56273 33.2347 5.83979 36.9C7.47466 39.7081 9.26071 42.4255 11.1899 45.0401C17.4658 53.6581 25.3511 60.9795 34.4101 66.6002C38.9542 69.4398 43.8091 71.7481 48.8798 73.4801C54.5598 75.3601 59.6102 77.31 65.7402 76.15C72.1502 74.93 78.47 70.9599 81.02 64.7799C81.8336 62.9617 82.0809 60.9408 81.7299 58.9801C80.7799 54.9301 75.3698 52.5602 72.1298 50.6202Z" fill="#979696"/>
</svg>
