<svg width="99" height="91" viewBox="0 0 99 91" fill="none" xmlns="http://www.w3.org/2000/svg">
<path d="M49.3408 0C22.0908 0 0 17.47 0 39C0 53 9.36016 65.3199 23.4102 72.1899C22.4102 76.0499 19.6709 86.1901 19.1309 88.3101C18.4609 91.0001 20.1304 90.9597 21.1904 90.2397C22.0404 89.6797 34.7204 81.0598 40.1904 77.3398C43.2232 77.7876 46.285 78.0114 49.3506 78.0098C76.6106 78.0098 98.7002 60.5498 98.7002 39.0098C98.7002 17.4698 76.6106 0.00976562 49.3506 0.00976562" fill="#979696"/>
<path d="M14.9209 31.8301H20C20 31.8301 20 45.7798 20 49.0298C20 51.4098 25.2903 51.4398 25.2803 49.0298V31.9697H30.3408C33.4908 31.9697 33.5008 26.9697 30.3408 26.9697C26.7808 26.9697 14.8906 26.8701 14.8906 26.8701C11.8906 26.8701 11.8906 31.7397 14.8906 31.7397" fill="white"/>
<path d="M39.1908 32.73L42.0208 41.5899H36.1908L39.1908 32.73ZM36.0208 28.5899C34.7708 31.3399 30.2611 44.3398 28.7611 47.7798C27.6711 50.2798 32.351 52.3098 33.431 49.7798L34.431 46.2198H43.721C43.721 46.2198 43.4009 46.3699 44.6409 49.6299C45.6409 52.2599 50.4603 50.4298 49.4603 47.7998C48.0303 44.0298 43.1005 30.4698 42.2005 28.5498C41.7805 27.6598 40.2909 27.02 38.8509 27.02C38.2793 26.9761 37.7066 27.097 37.2015 27.3682C36.6964 27.6393 36.2795 28.0492 36.0003 28.5498" fill="white"/>
<path d="M51.3008 29.3999C51.3008 33.8199 51.3008 48.0498 51.3008 48.0498C51.3008 48.0498 50.8908 50.8799 53.3008 50.8799H63.5C65.89 50.8799 65.88 45.7998 63.5 45.7998C61.12 45.7998 56.7607 45.7998 56.7607 45.7998C56.7607 45.7998 56.7607 32.6299 56.7607 29.4399C56.6497 28.791 56.3128 28.2023 55.8096 27.7778C55.3063 27.3534 54.6691 27.1206 54.0107 27.1206C53.3524 27.1206 52.7152 27.3534 52.2119 27.7778C51.7087 28.2023 51.3718 28.791 51.2607 29.4399" fill="white"/>
<path d="M66.5703 28.6997C66.6203 30.6297 66.5 48.1497 66.5 49.4497C66.5 51.4997 71.7207 51.4497 71.7207 49.4497V42.5498L73.25 41.3301L79.9502 50.46C81.3002 52.25 85.56 49.0197 84.21 47.2397L77.1006 37.8701C77.1006 37.8701 81.9201 32.6498 83.8301 30.7598C84.9401 29.6598 81.5006 26.1898 80.3906 27.2998L71.75 35.9399C71.75 35.9399 71.82 31.1801 71.75 28.5601C71.75 27.5601 70.5 27.0801 69.25 27.0801C68 27.0801 66.5403 27.6297 66.5703 28.6997" fill="white"/>
</svg>
