<svg width="1085" height="1611" viewBox="0 0 1085 1611" fill="none" xmlns="http://www.w3.org/2000/svg">
<pattern id="main" patternUnits="userSpaceOnUse" width="200%" height="200%"><image href="/abc.png" x="-10%" y="-23%" width="150%" height="150%"></image></pattern>
<path d="M573.49 97C708.886 97 838.736 146.622 934.475 234.948C1030.21 323.275 1084 443.072 1084 567.985V1610H63V567.976C63.0027 443.068 116.787 323.276 212.521 234.952C308.256 146.627 438.1 97.0049 573.49 97V97Z" fill="url(#main)"/>
<path d="M573.49 97C708.886 97 838.736 146.622 934.475 234.948C1030.21 323.275 1084 443.072 1084 567.985V1610H63V567.976C63.0027 443.068 116.787 323.276 212.521 234.952C308.256 146.627 438.1 97.0049 573.49 97V97Z" stroke="white" stroke-miterlimit="10"/>
<path d="M6.10985 393.308C9.15219 394.828 11.9121 396.857 14.2699 399.308L26.8699 394.698C27.5903 394.433 28.3848 394.455 29.0899 394.758C29.3872 394.886 29.6455 395.091 29.8387 395.35C30.0318 395.61 30.1529 395.916 30.1899 396.238C30.2371 396.549 30.2207 396.866 30.1416 397.17C30.0626 397.475 29.9224 397.76 29.7298 398.008C29.2499 398.573 28.5892 398.955 27.8598 399.088L16.8598 402.088C19.8689 405.595 22.1316 409.678 23.5099 414.088C23.9399 415.438 23.8098 416.348 23.0998 416.818C22.3898 417.288 21.7699 416.978 21.2399 415.878C17.6394 408.696 12.0238 402.719 5.07988 398.678C4.90222 398.596 4.70262 398.574 4.51134 398.616C4.32006 398.657 4.14752 398.76 4.01988 398.908C3.6275 399.282 3.29074 399.709 3.01988 400.178C2.49988 401.008 1.86989 401.258 1.14989 400.918C0.429887 400.578 0.279875 399.918 0.699875 398.858L2.11986 395.398C2.41305 394.493 2.98761 393.704 3.75987 393.148C4.13436 392.979 4.54495 392.905 4.955 392.933C5.36505 392.961 5.76177 393.09 6.10985 393.308V393.308ZM8.52989 367.498L47.0998 383.318C50.0398 384.528 51.0398 386.318 50.0998 388.648L49.6799 389.648L24.3099 379.238L22.1899 384.408L40.3699 391.868C43.2499 393.048 44.2298 394.778 43.2898 397.058L42.8699 398.058L7.86986 383.718C7.28884 383.404 6.62777 383.268 5.96983 383.328C5.45025 383.585 5.01104 383.979 4.69987 384.468C4.3291 384.992 3.90332 385.475 3.42986 385.908C3.28012 386.056 3.0899 386.155 2.88335 386.195C2.67679 386.234 2.46326 386.211 2.26988 386.128C1.47988 385.808 1.33988 385.048 1.82988 383.838L3.67986 379.338C4.26986 377.898 5.23989 377.448 6.58989 377.998L18.7999 382.998L20.9198 377.838L9.73985 373.248C9.16837 372.938 8.51714 372.805 7.86986 372.868C7.33022 373.12 6.88772 373.541 6.60985 374.068C6.2612 374.619 5.85568 375.132 5.39989 375.598C5.25491 375.753 5.06436 375.858 4.85582 375.898C4.64728 375.937 4.43153 375.909 4.23985 375.818C3.39985 375.468 3.23985 374.678 3.73985 373.438L5.61986 368.838C6.24986 367.428 7.20989 366.958 8.52989 367.498Z" fill="#C96678"/>
<path d="M18.3401 353.248L29.2201 331.748C29.8101 330.588 30.7901 330.348 32.1501 331.038L40.3001 335.168C41.9001 335.974 42.3634 337.044 41.6901 338.378L33.0601 355.378L38.1301 357.948C38.2801 358.052 38.4523 358.119 38.633 358.145C38.8138 358.171 38.998 358.154 39.1709 358.095C39.3439 358.037 39.5008 357.939 39.6292 357.809C39.7575 357.679 39.8537 357.521 39.9101 357.348L48.8301 339.758C48.9404 339.548 49.0909 339.363 49.273 339.211C49.455 339.06 49.6651 338.946 49.8912 338.876C50.1173 338.806 50.3551 338.781 50.5908 338.803C50.8265 338.824 51.0556 338.892 51.2651 339.003C51.4746 339.113 51.6603 339.264 51.8116 339.446C51.9629 339.628 52.0768 339.838 52.1469 340.064C52.217 340.29 52.2419 340.528 52.2201 340.763C52.1984 340.999 52.1304 341.228 52.0201 341.438L47.3501 350.748L53.9101 354.078L61.8401 338.428C61.9446 338.206 62.0925 338.008 62.2751 337.844C62.4576 337.681 62.6712 337.556 62.903 337.477C63.1348 337.397 63.3802 337.365 63.6246 337.383C63.869 337.4 64.1074 337.466 64.3257 337.577C64.544 337.689 64.7379 337.842 64.8956 338.03C65.0533 338.217 65.1718 338.435 65.244 338.669C65.3163 338.903 65.3407 339.149 65.316 339.393C65.2913 339.637 65.2178 339.873 65.1001 340.088L46.9301 375.958C46.6856 376.344 46.3061 376.625 45.8654 376.747C45.4248 376.869 44.9546 376.822 44.5465 376.616C44.1383 376.411 43.8215 376.06 43.6576 375.633C43.4938 375.206 43.4946 374.734 43.6601 374.308L51.7201 358.418L45.1501 355.088L41.6901 361.908C40.7768 363.708 39.3268 364.101 37.3401 363.088L32.0801 360.428C31.6315 360.143 31.0966 360.026 30.5701 360.098C30.1466 360.229 29.7619 360.463 29.4501 360.778C29.2043 361.024 28.9207 361.23 28.6101 361.388C28.4375 361.449 28.2532 361.47 28.0712 361.45C27.8892 361.429 27.7143 361.367 27.5601 361.268C26.8001 360.878 26.6601 360.268 27.1301 359.268L37.3101 339.188L31.1901 336.088L21.6501 354.918C21.561 355.149 21.4193 355.357 21.2361 355.524C21.053 355.692 20.8334 355.814 20.5948 355.882C20.3562 355.95 20.1052 355.961 19.8614 355.915C19.6176 355.87 19.3877 355.768 19.1901 355.618C18.9562 355.546 18.7421 355.421 18.5651 355.253C18.388 355.084 18.2529 354.876 18.1703 354.646C18.0878 354.416 18.0601 354.17 18.0896 353.927C18.119 353.684 18.2049 353.452 18.3401 353.248V353.248Z" fill="#C96678"/>
<path d="M47.3102 313.808C46.1203 313.076 45.1221 312.071 44.3986 310.876C43.6751 309.682 43.2471 308.331 43.1502 306.938C42.82 303.619 43.6466 300.288 45.4902 297.508C47.1334 294.604 49.7197 292.35 52.8202 291.118C54.0998 290.564 55.493 290.323 56.8843 290.415C58.2756 290.507 59.6249 290.93 60.8202 291.648C61.9695 292.377 62.9248 293.373 63.604 294.553C64.2833 295.732 64.6663 297.058 64.7201 298.418C64.8737 301.72 64.0335 304.993 62.3079 307.813C60.5823 310.633 58.0507 312.871 55.0401 314.238C53.8115 314.791 52.4679 315.04 51.1227 314.965C49.7775 314.89 48.47 314.493 47.3102 313.808V313.808ZM49.8702 309.618C50.5811 310.052 51.3876 310.306 52.2191 310.356C53.0506 310.407 53.8819 310.253 54.6402 309.908C56.5322 309.071 58.0985 307.638 59.1001 305.828C60.2435 304.106 60.8043 302.062 60.7002 299.998C60.675 299.159 60.4415 298.34 60.0208 297.613C59.6001 296.887 59.0053 296.277 58.2901 295.838C57.5478 295.38 56.7075 295.105 55.8383 295.036C54.9691 294.966 54.0958 295.104 53.2901 295.438C51.3703 296.223 49.7711 297.632 48.7502 299.438C47.5775 301.163 47.0402 303.241 47.2301 305.318C47.3007 306.192 47.5766 307.037 48.0353 307.784C48.4941 308.531 49.1227 309.16 49.8702 309.618ZM70.2002 308.688L74.3602 311.228C77.3068 313.028 78.1768 314.915 76.9701 316.888L76.2702 318.028L67.7002 312.748L57.9402 328.748C57.3502 329.748 56.5302 329.858 55.4602 329.198C55.2354 329.113 55.0336 328.976 54.8706 328.8C54.7076 328.623 54.5879 328.411 54.521 328.18C54.4541 327.949 54.4417 327.706 54.485 327.47C54.5282 327.233 54.6259 327.01 54.7702 326.818L75.7702 292.458C75.8969 292.25 76.0633 292.07 76.2597 291.927C76.4562 291.784 76.6789 291.68 76.9153 291.623C77.1516 291.566 77.3969 291.556 77.6371 291.594C77.8773 291.632 78.1077 291.716 78.3152 291.843C78.5227 291.97 78.7032 292.136 78.8464 292.332C78.9896 292.529 79.0927 292.752 79.1498 292.988C79.2069 293.224 79.2169 293.47 79.1792 293.71C79.1415 293.95 79.0569 294.18 78.9302 294.388L70.2002 308.688ZM91.3902 310.838L81.1001 327.658C79.2601 330.678 77.0535 331.401 74.4801 329.828L71.1902 327.828C70.9255 327.612 70.6196 327.453 70.2911 327.36C69.9626 327.267 69.6186 327.243 69.2802 327.288C68.7717 327.489 68.3115 327.796 67.9302 328.188C67.4964 328.635 67.0016 329.019 66.4602 329.328C66.2866 329.396 66.0988 329.42 65.9137 329.397C65.7286 329.375 65.5521 329.306 65.4002 329.198C64.6002 328.708 64.5002 327.948 65.1202 326.938L67.6601 322.788C67.7918 322.479 67.9937 322.205 68.2497 321.988C68.5057 321.771 68.8088 321.616 69.1349 321.537C69.4611 321.457 69.8012 321.455 70.1285 321.53C70.4557 321.604 70.7611 321.754 71.0202 321.968L76.7802 325.488C76.8874 325.582 77.015 325.65 77.1529 325.686C77.2909 325.723 77.4354 325.727 77.5751 325.697C77.7147 325.668 77.8457 325.607 77.9577 325.519C78.0696 325.43 78.1595 325.317 78.2201 325.188L88.2201 308.838C88.3231 308.605 88.479 308.398 88.6756 308.236C88.8721 308.073 89.1039 307.959 89.3524 307.902C89.6009 307.844 89.8594 307.846 90.1072 307.906C90.3551 307.966 90.5855 308.083 90.7802 308.248C91.0157 308.352 91.2239 308.51 91.3883 308.708C91.5528 308.907 91.6691 309.141 91.7282 309.391C91.7873 309.642 91.7875 309.903 91.7289 310.154C91.6702 310.405 91.5543 310.639 91.3902 310.838V310.838Z" fill="#C96678"/>
<path d="M87.5903 250.158C89.8928 252.459 91.7416 255.173 93.0402 258.158L107.64 255.578C108.403 255.394 109.207 255.516 109.88 255.918C110.178 256.064 110.427 256.294 110.594 256.581C110.761 256.867 110.84 257.197 110.82 257.528C110.823 257.917 110.734 258.301 110.561 258.648C110.387 258.996 110.133 259.298 109.82 259.528C109.195 260.004 108.444 260.286 107.66 260.338L94.3302 261.428C94.3953 261.526 94.4427 261.634 94.4702 261.748C96.311 266.584 97.2957 271.704 97.3802 276.878C97.4326 277.302 97.3394 277.73 97.1158 278.094C96.8923 278.457 96.5518 278.734 96.1502 278.878C95.3402 279.158 94.8702 278.718 94.7202 277.568C94.0954 272.855 92.7249 268.271 90.6602 263.988C89.2137 260.703 87.2599 257.666 84.8702 254.988C84.7388 254.864 84.5719 254.783 84.3926 254.758C84.2134 254.733 84.0308 254.765 83.8702 254.848C83.3722 255.101 82.9112 255.42 82.5002 255.798C81.7502 256.498 81.0802 256.588 80.5002 256.088C79.9202 255.588 79.9502 254.888 80.6302 253.998L82.9502 250.998C83.2116 250.552 83.5638 250.165 83.9842 249.864C84.4045 249.562 84.8836 249.353 85.3902 249.248C85.7996 249.242 86.206 249.319 86.5843 249.476C86.9627 249.632 87.3051 249.864 87.5903 250.158V250.158ZM93.0002 235.938C92.5128 235.459 91.8715 235.169 91.1902 235.118C90.6221 235.244 90.0996 235.525 89.6802 235.928C89.1965 236.336 88.6779 236.701 88.1302 237.018C87.9479 237.147 87.7278 237.211 87.5049 237.2C87.282 237.189 87.0692 237.104 86.9002 236.958C86.1702 236.398 86.2102 235.608 87.0002 234.568L90.0702 230.568C91.0369 229.302 92.0869 229.098 93.2202 229.958L126.22 255.378C128.74 257.318 129.22 259.268 127.76 261.208L127.04 262.138L93.0002 235.938Z" fill="#C96678"/>
<path d="M106.48 224.448C106.335 224.653 106.144 224.821 105.922 224.94C105.7 225.058 105.454 225.123 105.203 225.13C104.952 225.137 104.702 225.085 104.474 224.979C104.247 224.873 104.047 224.715 103.89 224.518C103.683 224.383 103.51 224.201 103.385 223.987C103.26 223.773 103.186 223.533 103.17 223.285C103.153 223.038 103.194 222.791 103.29 222.562C103.385 222.333 103.533 222.13 103.72 221.968L114.34 210.178C114.6 209.83 114.932 209.543 115.313 209.335C115.695 209.128 116.117 209.006 116.55 208.978C116.966 208.995 117.37 209.121 117.721 209.344C118.072 209.567 118.358 209.879 118.55 210.248C120.063 212.869 121.036 215.766 121.41 218.768L131.89 217.768C132.231 217.681 132.587 217.67 132.933 217.736C133.278 217.801 133.605 217.942 133.89 218.148C134.124 218.333 134.304 218.577 134.413 218.855C134.522 219.132 134.555 219.433 134.51 219.728C134.474 220.375 134.204 220.986 133.75 221.448C133.521 221.693 133.246 221.889 132.94 222.027C132.635 222.164 132.305 222.239 131.97 222.248H121.64C121.642 222.451 121.669 222.652 121.72 222.848C121.835 227.82 121.16 232.778 119.72 237.538C119.35 238.818 118.72 239.388 117.96 239.268C117.2 239.148 116.83 238.548 116.96 237.478C117.69 233.4 117.862 229.242 117.47 225.118C117.249 221.635 116.413 218.219 115 215.028L106.48 224.448ZM122.6 201.688C122.154 201.168 121.53 200.833 120.85 200.748C120.28 200.829 119.742 201.061 119.29 201.418C118.778 201.805 118.229 202.14 117.65 202.418C117.457 202.526 117.234 202.567 117.015 202.535C116.796 202.502 116.594 202.398 116.44 202.238C115.76 201.628 115.86 200.838 116.73 199.868L120.13 196.088C121.13 194.928 122.23 194.818 123.29 195.778L131.63 203.278L136.3 198.098C136.453 197.893 136.651 197.727 136.88 197.612C137.108 197.498 137.36 197.438 137.615 197.438C137.871 197.438 138.123 197.498 138.351 197.612C138.579 197.727 138.778 197.893 138.93 198.098C139.142 198.233 139.319 198.416 139.448 198.631C139.577 198.846 139.654 199.088 139.673 199.338C139.693 199.588 139.654 199.84 139.56 200.072C139.465 200.305 139.318 200.512 139.13 200.678L134.46 205.868L139.97 210.868C142.277 212.955 142.61 214.925 140.97 216.778L140.22 217.608L122.6 201.688ZM130.33 237.348C129.63 238.128 128.81 238.098 127.88 237.258C126.95 236.418 126.88 235.648 127.57 234.868L143.38 217.308C144.3 216.308 145.32 216.308 146.38 217.308L154.38 224.548C156.874 226.788 157.36 228.755 155.84 230.448L154.9 231.448L144.22 221.828L130.33 237.348Z" fill="#C96678"/>
<path d="M160.66 211.808C160.329 211.474 160.075 211.072 159.914 210.63C159.754 210.188 159.691 209.717 159.73 209.248C159.779 208.228 160.215 207.266 160.95 206.558C161.669 205.819 162.641 205.38 163.67 205.328C164.606 205.236 165.544 205.477 166.32 206.008C167.76 207.09 168.792 208.626 169.25 210.368C169.775 212.251 169.737 214.246 169.14 216.108C168.92 216.948 168.5 217.398 167.87 217.448C167.24 217.498 167 217.128 167.14 216.318C167.256 215.539 167.256 214.747 167.14 213.968C166.998 213.142 166.685 212.355 166.22 211.658C166.06 211.388 165.82 211.418 165.5 211.728C164.865 212.355 164.013 212.713 163.12 212.728C162.668 212.761 162.214 212.696 161.789 212.538C161.365 212.379 160.979 212.13 160.66 211.808V211.808Z" fill="#C96678"/>
<path d="M166.77 159.328L185.67 143.328C186.89 142.328 188.08 142.458 189.24 143.828C190.9 145.828 192.996 148.611 195.53 152.178C197.783 155.246 199.623 158.599 201 162.148C201.094 162.371 201.143 162.611 201.143 162.853C201.143 163.095 201.094 163.335 201 163.558C200.768 164.004 200.39 164.357 199.93 164.558C199.779 164.643 199.612 164.694 199.439 164.71C199.267 164.725 199.093 164.704 198.93 164.648C198.477 164.411 198.122 164.021 197.93 163.548C196.552 161.112 194.981 158.791 193.23 156.608C191.096 153.848 188.73 150.928 186.13 147.848L169.23 162.128C169.058 162.312 168.846 162.454 168.609 162.542C168.373 162.63 168.12 162.662 167.869 162.634C167.619 162.607 167.378 162.522 167.167 162.385C166.955 162.249 166.778 162.065 166.65 161.848C166.465 161.689 166.319 161.491 166.223 161.268C166.127 161.044 166.083 160.802 166.095 160.559C166.106 160.316 166.173 160.079 166.29 159.865C166.407 159.652 166.571 159.468 166.77 159.328V159.328ZM214.77 163.818L184.01 189.818C183.842 189.991 183.637 190.122 183.41 190.202C183.183 190.282 182.941 190.308 182.702 190.278C182.463 190.248 182.235 190.163 182.035 190.029C181.835 189.895 181.669 189.717 181.55 189.508C180.74 188.508 180.77 187.708 181.62 186.988L212.38 160.988C212.552 160.794 212.767 160.643 213.008 160.546C213.248 160.449 213.508 160.409 213.767 160.43C214.025 160.45 214.276 160.53 214.498 160.663C214.721 160.797 214.91 160.98 215.05 161.198C215.236 161.372 215.379 161.585 215.469 161.823C215.56 162.061 215.594 162.316 215.57 162.57C215.546 162.823 215.464 163.067 215.33 163.284C215.197 163.5 215.015 163.683 214.8 163.818H214.77Z" fill="#C96678"/>
<path d="M227.34 112.918C228.427 114.926 229.036 117.157 229.12 119.438L241.04 120.318C241.418 120.305 241.794 120.378 242.14 120.53C242.486 120.682 242.794 120.911 243.04 121.198C243.382 121.682 243.519 122.283 243.42 122.868C243.36 123.199 243.232 123.513 243.042 123.791C242.852 124.068 242.606 124.303 242.32 124.478C241.98 124.698 241.599 124.846 241.2 124.915C240.802 124.984 240.393 124.971 240 124.878L229.08 122.748C229.08 123.248 229.02 123.748 228.96 124.358C228.505 128.639 227.374 132.821 225.61 136.748C225.03 137.958 224.3 138.498 223.41 138.388C222.52 138.278 222.27 137.658 222.64 136.548C223.786 133.086 224.42 129.474 224.52 125.828C224.749 122.776 224.409 119.707 223.52 116.778C223.38 116.428 223.06 116.298 222.58 116.378C222.058 116.47 221.551 116.628 221.07 116.848C220.17 117.248 219.52 117.098 219.07 116.388C218.62 115.678 218.86 115.068 219.66 114.518L222.71 112.458C223.472 111.839 224.418 111.487 225.4 111.458C225.823 111.508 226.226 111.669 226.567 111.926C226.908 112.182 227.174 112.525 227.34 112.918V112.918ZM238.92 103.748C238.39 102.968 237.92 102.528 237.5 102.448C236.92 102.384 236.334 102.484 235.81 102.738C235.22 102.974 234.611 103.158 233.99 103.288C233.775 103.343 233.549 103.329 233.342 103.248C233.136 103.167 232.96 103.024 232.84 102.838C232.33 102.078 232.61 101.338 233.69 100.608L237.86 97.788C239.18 96.888 240.25 97.048 241.07 98.248L251.54 113.748C253.36 116.438 253.26 118.478 251.22 119.848L250.22 120.508L244.36 111.848L236.96 116.848C236.553 117.079 236.074 117.148 235.618 117.041C235.163 116.935 234.764 116.661 234.502 116.274C234.24 115.886 234.133 115.414 234.203 114.952C234.273 114.489 234.514 114.07 234.88 113.778L242.28 108.778L238.92 103.748ZM266.66 137.158L250.23 148.278C248.54 149.428 247.06 149.068 245.81 147.218L243.59 143.938C243.335 143.461 242.904 143.103 242.39 142.938C241.959 142.864 241.52 142.864 241.09 142.938C240.769 143.053 240.429 143.1 240.09 143.078C239.914 143.046 239.748 142.975 239.603 142.871C239.458 142.768 239.337 142.633 239.25 142.478C238.78 141.778 238.96 141.148 239.79 140.578L255.93 129.658L253.2 125.658L238.24 135.748C238.049 135.907 237.825 136.02 237.584 136.077C237.343 136.135 237.091 136.135 236.85 136.079C236.608 136.023 236.383 135.911 236.192 135.753C236.001 135.595 235.85 135.395 235.75 135.168C235.586 134.991 235.465 134.778 235.398 134.547C235.33 134.315 235.317 134.071 235.36 133.834C235.402 133.596 235.5 133.372 235.644 133.178C235.788 132.985 235.974 132.827 236.19 132.718L253.49 121.018C254.6 120.268 255.58 120.518 256.49 121.778L260.49 127.708C261.496 129.201 261.366 130.371 260.1 131.218L246.92 140.148L248.99 143.218C249.073 143.377 249.192 143.515 249.338 143.62C249.484 143.726 249.652 143.796 249.83 143.825C250.007 143.854 250.189 143.841 250.361 143.788C250.533 143.735 250.69 143.642 250.82 143.518L264.7 134.128C264.879 133.961 265.095 133.839 265.33 133.771C265.565 133.704 265.813 133.692 266.054 133.738C266.294 133.784 266.52 133.885 266.714 134.035C266.908 134.184 267.064 134.377 267.17 134.598C267.333 134.787 267.451 135.011 267.515 135.253C267.578 135.495 267.586 135.748 267.536 135.993C267.487 136.238 267.383 136.469 267.231 136.667C267.079 136.865 266.883 137.027 266.66 137.138V137.158Z" fill="#C96678"/>
<path d="M279.63 104.678L266.43 112.208C264.65 113.208 263.2 112.758 262.1 110.818L259.81 106.818C259.44 106.168 259.06 105.818 258.67 105.718C258.233 105.628 257.784 105.604 257.34 105.648C257.01 105.713 256.67 105.713 256.34 105.648C256.161 105.612 255.994 105.535 255.852 105.422C255.709 105.309 255.595 105.164 255.52 104.998C255.093 104.238 255.313 103.608 256.18 103.108L267.34 96.7481L264.58 91.8981L254.68 97.5381C254.476 97.6867 254.241 97.7862 253.993 97.8286C253.744 97.871 253.49 97.8553 253.248 97.7827C253.007 97.71 252.786 97.5824 252.602 97.4098C252.418 97.2372 252.277 97.0244 252.19 96.7881C252.035 96.5943 251.927 96.3669 251.875 96.124C251.824 95.8812 251.83 95.6296 251.893 95.3895C251.956 95.1494 252.075 94.9275 252.239 94.7414C252.404 94.5553 252.609 94.4104 252.84 94.3181L265.22 87.2581C266.35 86.6181 267.29 86.9581 268.05 88.2581L271.97 95.1381C272.86 96.6981 272.65 97.8481 271.36 98.5881L263.3 103.178L265.47 106.968C265.532 107.136 265.633 107.287 265.764 107.41C265.895 107.532 266.052 107.622 266.224 107.673C266.396 107.723 266.578 107.733 266.754 107.701C266.93 107.669 267.097 107.596 267.24 107.488L277.86 101.428C278.057 101.278 278.287 101.176 278.531 101.131C278.775 101.085 279.026 101.096 279.265 101.164C279.503 101.232 279.723 101.354 279.906 101.522C280.089 101.689 280.231 101.897 280.32 102.128C280.484 102.328 280.598 102.564 280.653 102.817C280.708 103.069 280.701 103.332 280.633 103.581C280.566 103.831 280.439 104.061 280.265 104.252C280.09 104.442 279.872 104.589 279.63 104.678V104.678ZM274.48 84.8181C274.03 84.0281 273.62 83.5681 273.25 83.4481C272.69 83.3327 272.11 83.3707 271.57 83.5581C270.95 83.7537 270.308 83.8745 269.66 83.9181C269.457 83.928 269.256 83.8807 269.079 83.7817C268.903 83.6827 268.757 83.5359 268.66 83.3581C268.24 82.6281 268.6 81.9381 269.73 81.2881L273.95 78.8781C274.195 78.67 274.487 78.5241 274.8 78.4526C275.114 78.3812 275.44 78.3865 275.751 78.4679C276.062 78.5494 276.349 78.7046 276.587 78.9205C276.825 79.1364 277.008 79.4066 277.12 79.7081L286.91 96.8681C288.503 99.6681 288.213 101.668 286.04 102.868L285.12 103.398L279.21 93.0281L275.09 95.3781C274.892 95.528 274.662 95.6299 274.419 95.6757C274.175 95.7216 273.924 95.7101 273.685 95.6422C273.446 95.5743 273.227 95.4519 273.044 95.2846C272.861 95.1172 272.719 94.9096 272.63 94.6781C272.47 94.4834 272.358 94.2541 272.302 94.0084C272.246 93.7627 272.248 93.5075 272.309 93.2628C272.369 93.0182 272.485 92.7909 272.649 92.5991C272.812 92.4074 273.018 92.2563 273.25 92.1581L277.38 89.8081L274.48 84.8181ZM296.2 100.258C297.59 99.4681 298.73 99.8381 299.6 101.368L302.79 106.968C303.525 108.091 303.911 109.406 303.9 110.748C304.1 110.621 304.325 110.539 304.56 110.509C304.794 110.479 305.033 110.501 305.258 110.573C305.484 110.646 305.69 110.767 305.863 110.929C306.037 111.091 306.172 111.288 306.26 111.508C306.418 111.709 306.528 111.943 306.58 112.194C306.633 112.444 306.626 112.703 306.561 112.95C306.496 113.198 306.374 113.426 306.206 113.619C306.037 113.811 305.826 113.961 305.59 114.058L288.26 123.928C288.265 124.459 288.122 124.981 287.849 125.437C287.575 125.892 287.181 126.263 286.71 126.508L285.71 127.058L279.88 116.828C279.498 116.098 279.049 115.405 278.54 114.758C278.343 114.612 278.115 114.514 277.873 114.472C277.632 114.43 277.384 114.446 277.15 114.518C276.719 114.582 276.281 114.582 275.85 114.518C275.664 114.498 275.486 114.433 275.33 114.328C275.175 114.224 275.048 114.083 274.96 113.918C274.51 113.118 274.8 112.428 275.84 111.838L296.2 100.258ZM276.68 74.7981L280.9 72.3981C282.36 71.5681 283.44 71.7781 284.17 73.0481L295.33 92.6381C296.92 95.4281 296.62 97.4581 294.42 98.7081L293.42 99.2581L281.52 78.3881C281.255 77.7758 280.812 77.2568 280.25 76.8981C279.67 76.7633 279.062 76.823 278.52 77.0681C277.906 77.2825 277.273 77.4366 276.63 77.5281C276.428 77.5503 276.224 77.5105 276.046 77.414C275.867 77.3176 275.722 77.169 275.63 76.9881C275.16 76.1881 275.51 75.4681 276.68 74.7981V74.7981ZM287.3 120.178L300.5 112.658L295.95 104.658L282.8 112.158L286.67 118.948C286.91 119.378 287.11 119.748 287.3 120.178V120.178Z" fill="#C96678"/>
<path d="M339.39 72.868L302.92 89.968C301.913 90.4413 301.143 90.108 300.61 88.968C300.08 87.838 300.32 87.028 301.33 86.558L337.79 69.4581C338.014 69.3426 338.26 69.2734 338.511 69.2549C338.763 69.2363 339.016 69.2686 339.255 69.35C339.494 69.4313 339.714 69.5599 339.903 69.7281C340.091 69.8964 340.243 70.1008 340.351 70.3293C340.458 70.5577 340.518 70.8055 340.528 71.0578C340.538 71.3101 340.497 71.5617 340.407 71.7977C340.317 72.0337 340.181 72.2492 340.006 72.4314C339.831 72.6136 339.622 72.7586 339.39 72.858V72.868ZM303.06 72.628C302.508 71.4165 302.259 70.0891 302.334 68.76C302.409 67.4309 302.805 66.14 303.49 64.998C305.15 62.2287 307.597 60.017 310.52 58.6455C313.443 57.274 316.709 56.8048 319.9 57.298C321.222 57.4795 322.478 57.9891 323.554 58.7804C324.629 59.5717 325.489 60.6195 326.056 61.8283C326.622 63.0371 326.877 64.3685 326.798 65.7012C326.718 67.0338 326.306 68.3254 325.6 69.4581C323.927 72.2152 321.477 74.4168 318.558 75.7867C315.638 77.1565 312.379 77.6336 309.19 77.158C307.876 76.9589 306.631 76.4422 305.563 75.6528C304.495 74.8633 303.635 73.825 303.06 72.628V72.628ZM307.51 70.538C307.856 71.2495 308.37 71.8662 309.007 72.3348C309.645 72.8034 310.387 73.11 311.17 73.228C313.152 73.5799 315.196 73.2634 316.98 72.328C318.809 71.5545 320.332 70.1973 321.31 68.468C321.729 67.7947 321.977 67.0284 322.031 66.2367C322.085 65.445 321.944 64.6522 321.62 63.928C321.267 63.2127 320.746 62.5935 320.101 62.1233C319.457 61.6531 318.708 61.3459 317.92 61.228C315.949 60.9403 313.937 61.2381 312.134 62.0844C310.332 62.9307 308.817 64.2881 307.78 65.988C307.372 66.6687 307.134 67.4378 307.087 68.23C307.04 69.0221 307.185 69.8139 307.51 70.538V70.538ZM313.23 93.268C313.025 93.4012 312.793 93.4852 312.551 93.5136C312.308 93.542 312.063 93.5139 311.833 93.4316C311.604 93.3492 311.397 93.2149 311.228 93.039C311.059 92.8632 310.933 92.6507 310.86 92.418C310.716 92.2112 310.623 91.9738 310.587 91.7247C310.552 91.4756 310.575 91.2216 310.654 90.9829C310.734 90.7442 310.868 90.5272 311.046 90.3493C311.224 90.1715 311.441 90.0375 311.68 89.958L333.12 79.8981C334.33 79.3281 335.27 79.738 335.91 81.118L338.59 86.818C339.36 88.468 339.08 89.618 337.73 90.248L320.73 98.248L321.96 100.868C322.012 101.036 322.103 101.189 322.225 101.316C322.348 101.443 322.498 101.539 322.664 101.597C322.83 101.655 323.007 101.674 323.182 101.652C323.357 101.629 323.524 101.566 323.67 101.468L341.47 93.118C341.679 92.9857 341.916 92.9038 342.162 92.8786C342.408 92.8534 342.657 92.8857 342.889 92.9729C343.12 93.0602 343.329 93.1999 343.497 93.3813C343.666 93.5626 343.79 93.7806 343.86 94.018C343.998 94.229 344.085 94.4693 344.114 94.7199C344.143 94.9705 344.113 95.2243 344.027 95.4613C343.94 95.6983 343.8 95.9118 343.616 96.0848C343.433 96.2579 343.211 96.3857 342.97 96.458L322.84 105.898C320.68 106.905 319.056 106.238 317.97 103.898L316.84 101.508C316.652 100.996 316.3 100.56 315.84 100.268C315.43 100.107 314.982 100.065 314.55 100.148C314.23 100.148 313.87 100.148 313.49 100.148C313.3 100.134 313.119 100.066 312.967 99.953C312.814 99.8397 312.697 99.6853 312.63 99.508C312.25 98.678 312.52 98.048 313.47 97.598L333.75 88.0881L332.04 84.4581L313.23 93.268Z" fill="#C96678"/>
<path d="M359.46 49.348C358.994 49.5058 358.485 49.4723 358.045 49.2547C357.604 49.0372 357.268 48.6535 357.11 48.188C356.952 47.7226 356.986 47.2135 357.203 46.7728C357.421 46.3321 357.804 45.9959 358.27 45.8381L375.27 40.048C375.597 39.9168 375.952 39.8709 376.302 39.9146C376.652 39.9583 376.985 40.0903 377.27 40.298C377.548 40.4684 377.782 40.7005 377.956 40.9762C378.129 41.252 378.237 41.564 378.27 41.888C378.937 46.2747 378.123 51.248 375.83 56.808C373.669 62.1539 370.627 67.0992 366.83 71.438C365.83 72.568 364.95 72.878 364.17 72.378C363.39 71.878 363.38 71.118 364.17 70.108C367.089 66.0572 369.391 61.5952 371 56.868C372.454 52.998 373.133 48.88 373 44.748L359.46 49.348ZM383.79 34.848C383.48 33.918 383.12 33.358 382.72 33.178C382.185 32.971 381.606 32.9089 381.04 32.998C380.4 33.0841 379.754 33.1042 379.11 33.058C378.884 33.0658 378.662 32.9968 378.481 32.8625C378.299 32.7281 378.168 32.5362 378.11 32.318C377.82 31.448 378.28 30.808 379.52 30.388L384.33 28.748C385.81 28.248 386.78 28.6681 387.24 30.0181L392.24 44.818L398.85 42.568C399.082 42.4633 399.334 42.4136 399.588 42.4227C399.843 42.4317 400.091 42.4994 400.315 42.6204C400.538 42.7414 400.731 42.9125 400.878 43.1202C401.024 43.328 401.121 43.5668 401.16 43.818C401.278 44.0396 401.344 44.2855 401.352 44.5367C401.36 44.7878 401.31 45.0374 401.205 45.2659C401.101 45.4943 400.945 45.6956 400.749 45.8538C400.554 46.012 400.325 46.123 400.08 46.178L393.47 48.428L400.65 69.5281C401.65 72.4814 400.983 74.358 398.65 75.158L397.59 75.5181L383.79 34.848Z" fill="#C96678"/>
<path d="M447.17 40.3479L408.17 50.2179C407.09 50.4879 406.4 50.018 406.09 48.798C405.78 47.578 406.18 46.898 407.27 46.618L446.27 36.758C446.506 36.6982 446.751 36.6855 446.992 36.7205C447.232 36.7555 447.464 36.8375 447.673 36.962C447.881 37.0864 448.064 37.2507 448.209 37.4457C448.355 37.6406 448.46 37.8622 448.52 38.0979C448.58 38.3337 448.592 38.5789 448.557 38.8195C448.522 39.0601 448.44 39.2915 448.316 39.5005C448.192 39.7094 448.027 39.8918 447.832 40.0372C447.637 40.1826 447.416 40.2882 447.18 40.3479H447.17ZM407.91 24.2879L432 18.198C432.476 18.0654 432.985 18.1273 433.416 18.3702C433.846 18.613 434.162 19.0169 434.295 19.493C434.428 19.969 434.366 20.4783 434.123 20.9087C433.88 21.3391 433.476 21.6553 433 21.7879L414.64 26.418L416.55 33.998C416.569 34.188 416.633 34.3709 416.736 34.5319C416.839 34.6929 416.978 34.8274 417.142 34.9247C417.307 35.022 417.492 35.0793 417.682 35.092C417.873 35.1047 418.064 35.0726 418.24 34.998L436.33 30.428C436.559 30.3421 436.804 30.3105 437.048 30.3356C437.291 30.3607 437.525 30.4418 437.731 30.5726C437.938 30.7035 438.111 30.8804 438.237 31.0896C438.364 31.2987 438.44 31.5344 438.46 31.778C438.562 32.0089 438.608 32.2603 438.595 32.5122C438.583 32.7641 438.511 33.0096 438.387 33.229C438.263 33.4485 438.089 33.636 437.879 33.7764C437.67 33.9168 437.43 34.0064 437.18 34.0379L416.39 39.2879C414.177 39.8479 412.793 39.0113 412.24 36.778L410.53 30.028C410.38 29.2424 410.121 28.4817 409.76 27.768C409.62 27.5853 409.444 27.4332 409.243 27.3214C409.041 27.2096 408.819 27.1404 408.59 27.118C408.146 27.0559 407.707 26.9556 407.28 26.818C407.101 26.7564 406.941 26.6478 406.818 26.5036C406.695 26.3594 406.613 26.1848 406.58 25.998C406.34 25.138 406.79 24.5679 407.91 24.2879V24.2879ZM416.91 57.1579C415.903 57.4179 415.237 56.9379 414.91 55.7179C414.61 54.5379 414.97 53.818 415.98 53.568L439.59 47.568C439.869 47.4616 440.169 47.4216 440.467 47.451C440.764 47.4804 441.051 47.5784 441.304 47.7374C441.557 47.8964 441.769 48.112 441.925 48.3672C442.08 48.6224 442.175 48.9102 442.2 49.208L444.51 58.368C445.33 61.6213 444.64 63.5247 442.44 64.078L441.08 64.418L437.9 51.818L416.91 57.1579Z" fill="#C96678"/>
<path d="M493.28 30.268L475.51 32.748C473.297 33.0547 472.036 32.0847 471.73 29.8381L470.26 19.228C470.196 18.4714 470.038 17.7257 469.79 17.008C469.659 16.8022 469.487 16.6263 469.283 16.4919C469.08 16.3575 468.85 16.2675 468.61 16.228C468.202 16.1166 467.804 15.9729 467.42 15.798C467.246 15.7272 467.096 15.609 466.986 15.457C466.877 15.3049 466.812 15.1251 466.8 14.938C466.67 14.028 467.13 13.508 468.16 13.368L488.41 10.568C488.657 10.4998 488.916 10.4898 489.167 10.5389C489.418 10.5881 489.654 10.6949 489.857 10.8511C490.06 11.0073 490.223 11.2085 490.335 11.4388C490.446 11.6691 490.503 11.9221 490.5 12.178C490.569 12.4167 490.583 12.6681 490.539 12.9128C490.495 13.1574 490.395 13.3885 490.247 13.5881C490.098 13.7876 489.906 13.9501 489.684 14.0628C489.463 14.1756 489.218 14.2356 488.97 14.238L474.75 16.238L476.32 27.608C476.318 27.794 476.359 27.978 476.44 28.1454C476.521 28.3127 476.64 28.459 476.788 28.5724C476.935 28.6859 477.107 28.7636 477.29 28.7992C477.472 28.8349 477.661 28.8277 477.84 28.7781L492.84 26.7081C493.99 26.5581 494.64 27.078 494.84 28.288C494.9 28.5242 494.904 28.7709 494.854 29.0091C494.803 29.2474 494.698 29.4708 494.547 29.6622C494.397 29.8535 494.204 30.0076 493.984 30.1127C493.764 30.2177 493.523 30.2709 493.28 30.268ZM502.98 34.418C504.61 34.198 505.54 34.9381 505.77 36.6481L506.77 44.0881C507.041 45.4033 506.894 46.7704 506.35 47.998C506.582 47.9539 506.822 47.9616 507.051 48.0206C507.28 48.0796 507.494 48.1884 507.676 48.3393C507.858 48.4901 508.005 48.6794 508.106 48.8935C508.207 49.1076 508.26 49.3413 508.26 49.578C508.333 49.8228 508.348 50.0812 508.304 50.3328C508.259 50.5844 508.157 50.8221 508.004 51.027C507.852 51.232 507.654 51.3985 507.425 51.5132C507.197 51.628 506.945 51.6878 506.69 51.688L488.69 54.178C488.494 54.6715 488.167 55.1019 487.744 55.4227C487.321 55.7435 486.818 55.9425 486.29 55.998L485.18 56.1481L483.43 43.468C483.35 42.6417 483.193 41.8248 482.96 41.0281C482.81 40.6681 482.41 40.418 481.75 40.268C481.332 40.174 480.926 40.033 480.54 39.848C480.374 39.7665 480.231 39.6438 480.126 39.4914C480.021 39.3391 479.957 39.1623 479.94 38.978C479.81 38.078 480.34 37.538 481.52 37.378L502.98 34.418ZM489.17 50.418L502.51 48.578L501.11 38.468L487.83 40.298L489.04 49.048C489.1 49.468 489.15 49.928 489.17 50.368V50.418ZM497.6 9.74803C497.599 9.06132 497.338 8.40046 496.87 7.89805C496.381 7.59565 495.824 7.4235 495.25 7.39805C494.608 7.36371 493.971 7.26313 493.35 7.098C493.135 7.05477 492.941 6.94238 492.796 6.778C492.652 6.61362 492.565 6.40636 492.55 6.18803C492.42 5.27803 493 4.73803 494.3 4.55803L499.3 3.86802C500.85 3.64802 501.72 4.248 501.92 5.658L503.47 16.928L510.39 15.928C511.57 15.768 512.25 16.328 512.39 17.598C512.464 17.838 512.481 18.0919 512.441 18.3398C512.401 18.5878 512.304 18.8231 512.158 19.0273C512.012 19.2316 511.82 19.3993 511.599 19.5174C511.377 19.6355 511.131 19.7007 510.88 19.7081L503.96 20.7081L504.86 27.198C505.28 30.2914 504.257 32.0047 501.79 32.3381L500.68 32.488L497.6 9.74803Z" fill="#C96678"/>
<path d="M516.48 21.668C516.354 20.1037 516.568 18.5308 517.107 17.0568C517.645 15.5828 518.496 14.2426 519.6 13.128C521.855 10.781 524.938 9.40978 528.19 9.30798C531.46 9.03827 534.707 10.0454 537.25 12.118C538.459 13.1142 539.449 14.3487 540.159 15.7444C540.869 17.1402 541.283 18.6672 541.377 20.2303C541.471 21.7934 541.242 23.3591 540.704 24.8297C540.166 26.3003 539.331 27.6444 538.25 28.778C535.952 31.1118 532.844 32.4724 529.57 32.578C526.321 32.8473 523.094 31.8434 520.57 29.778C519.34 28.8052 518.336 27.5756 517.63 26.1748C516.923 24.7741 516.531 23.236 516.48 21.668V21.668ZM521.38 21.388C521.404 22.4277 521.637 23.4519 522.067 24.3989C522.496 25.3459 523.113 26.196 523.88 26.898C524.608 27.5636 525.465 28.0736 526.397 28.3969C527.329 28.7201 528.317 28.8498 529.301 28.778C530.295 28.736 531.271 28.4938 532.169 28.066C533.068 27.6381 533.871 27.0334 534.531 26.288C535.876 24.6723 536.559 22.6062 536.44 20.5068C536.321 18.4075 535.41 16.4314 533.89 14.978C533.149 14.3153 532.281 13.8084 531.34 13.4872C530.399 13.166 529.403 13.037 528.411 13.108C527.425 13.1463 526.458 13.3862 525.569 13.8127C524.68 14.2393 523.887 14.8435 523.24 15.588C522.553 16.3778 522.033 17.2993 521.713 18.2965C521.394 19.2937 521.28 20.3456 521.38 21.388V21.388ZM546.791 5.74799C546.832 5.06389 546.622 4.38815 546.2 3.84796C545.738 3.51261 545.198 3.29937 544.63 3.22797C543.993 3.1465 543.366 2.99566 542.76 2.77802C542.544 2.71753 542.355 2.58595 542.222 2.40454C542.09 2.22313 542.022 2.00246 542.031 1.77802C542.031 0.868015 542.601 0.377974 543.901 0.297974L548.98 0.0079955C550.54 -0.0820045 551.36 0.587996 551.44 2.008L552.33 17.618L559.33 17.228C560.52 17.158 561.15 17.768 561.23 19.048C561.31 20.328 560.741 20.958 559.551 21.048L552.551 21.448L553.82 43.698C554 46.8113 552.844 48.438 550.35 48.578L549.23 48.638L546.791 5.74799Z" fill="#C96678"/>
</svg>
