<svg width="805" height="62" viewBox="0 0 805 62" fill="none" xmlns="http://www.w3.org/2000/svg">
<path d="M10.8896 7.50012C9.43965 7.50012 8.71973 6.82012 8.71973 5.50012C8.6904 5.22147 8.72554 4.93984 8.82227 4.67687C8.91899 4.41391 9.07494 4.17651 9.27783 3.98327C9.48073 3.79004 9.72531 3.64592 9.99268 3.56213C10.26 3.47834 10.5429 3.45724 10.8198 3.50012H40.4199C42.3199 3.50012 43.2798 4.49998 43.2798 6.60998C43.282 9.86082 43.0344 13.107 42.5396 16.3199C42.1709 19.0575 41.483 21.7424 40.4897 24.3199L40.3496 24.5699H51.6499C53.1899 24.5699 53.96 25.2299 53.96 26.5699C53.96 27.9099 53.1899 28.5699 51.6499 28.5699H29.5996V35.0402C29.7199 36.7452 29.3304 38.4474 28.48 39.93H40.2798C41.9998 39.93 42.8599 40.84 42.8599 42.66V55.1901C42.8599 59.1901 41.65 61.1901 39.23 61.1901H37.6899V43.67H10.6099C9.34986 43.67 8.71973 42.99 8.71973 41.67C8.71973 40.35 9.32955 39.7701 10.5396 39.7701H24.4297V28.41H2.08984C0.699844 28.41 0 27.75 0 26.41C0 25.07 0.699844 24.41 2.08984 24.41H36.7197C36.6693 24.0954 36.6693 23.7747 36.7197 23.4601C37.1683 20.8345 37.4819 18.1878 37.6597 15.5301C37.8197 12.9501 37.8763 10.2434 37.8296 7.41003L10.8896 7.50012Z" fill="#595857"/>
<path d="M85.7797 6.54028C87.5897 6.54028 88.5 7.54028 88.5 9.54028V25.4602C88.5584 26.7547 88.2937 28.0434 87.7299 29.2102C89.1699 29.2102 89.8999 29.8901 89.8999 31.1101C89.8999 32.3301 89.1298 33.1101 87.5898 33.1101H67.6997C67.4452 33.6701 67.0321 34.1431 66.5112 34.4702C65.9903 34.7973 65.3849 34.9642 64.77 34.9502H63.5796V13.8801C63.6506 12.8412 63.5185 11.7985 63.1899 10.8103C62.7664 10.1523 62.1024 9.68572 61.3398 9.51025C60.927 9.3971 60.5468 9.18799 60.2299 8.90015C60.1041 8.76774 60.0076 8.61013 59.9472 8.43774C59.8869 8.26535 59.8641 8.08211 59.8798 7.90015C59.8798 6.97015 60.3896 6.50024 61.4096 6.50024L85.7797 6.54028ZM68.7797 29.1902H83.3696V10.5303H68.7797V27.2803C68.7797 27.9703 68.7797 28.6102 68.7797 29.1902ZM106.41 59.4001H83.2299C78.9499 59.4001 76.8095 57.537 76.8095 53.8103V46.9602C76.9182 46.0887 76.6816 45.2093 76.1499 44.5103C75.5062 44.0071 74.7519 43.6644 73.9497 43.5103C73.307 43.3664 72.6853 43.1411 72.0996 42.8401C71.9458 42.7253 71.8238 42.5734 71.7451 42.3984C71.6664 42.2235 71.6338 42.0313 71.6499 41.8401C71.6499 40.9101 72.3397 40.4402 73.7397 40.4402H79.3198C81.1398 40.4402 82.0498 41.4402 82.0498 43.4402V54.0403C82.0498 54.9303 82.4698 55.3701 83.2998 55.3701H106.41C107.95 55.3701 108.71 56.0501 108.71 57.3701C108.71 58.6901 107.92 59.4102 106.38 59.4102L106.41 59.4001ZM100.62 6.53027C100.673 6.08291 100.632 5.62928 100.499 5.19873C100.366 4.76818 100.145 4.37024 99.8496 4.03027C99.1975 3.51611 98.4279 3.17243 97.6098 3.03027C96.8947 2.88725 96.195 2.67617 95.52 2.40015C95.3136 2.3272 95.1352 2.19174 95.0097 2.01245C94.8842 1.83316 94.8177 1.61899 94.8198 1.40015C94.8198 0.470146 95.5397 0.0102539 96.9897 0.0102539H103.06C104.92 0.0102539 105.85 0.900166 105.85 2.67017V39.6702C105.85 43.6702 104.52 45.6702 101.85 45.6702H100.6L100.62 6.53027Z" fill="#595857"/>
<path d="M168.92 36.3699H119.36C119.076 36.4099 118.787 36.3834 118.515 36.2925C118.243 36.2016 117.996 36.0488 117.794 35.8462C117.591 35.6435 117.438 35.3966 117.347 35.1248C117.256 34.853 117.23 34.5638 117.27 34.28C117.27 33.01 117.96 32.3699 119.36 32.3699H168.92C170.46 32.3699 171.23 33.01 171.23 34.28C171.23 35.55 170.46 36.3699 168.92 36.3699ZM159.5 59.3699H135.5C131.207 59.3699 129.063 57.5067 129.07 53.78V49.0898C129.132 48.6507 129.096 48.2032 128.965 47.7795C128.834 47.3559 128.61 46.9667 128.31 46.6399C127.68 46.1756 126.967 45.8362 126.21 45.6399C125.513 45.5051 124.839 45.2693 124.21 44.9399C124.058 44.8233 123.938 44.6711 123.859 44.4966C123.781 44.3221 123.747 44.1308 123.76 43.9399C123.76 43.0099 124.48 42.55 125.92 42.55H131.44C133.3 42.55 134.23 43.55 134.23 45.55V53.99C134.203 54.1709 134.219 54.3556 134.276 54.5293C134.333 54.703 134.43 54.8607 134.56 54.99C134.689 55.1193 134.847 55.2166 135.021 55.2739C135.194 55.3312 135.379 55.3468 135.56 55.3198H159.5C161.04 55.3198 161.8 55.9998 161.8 57.3198C161.8 58.6398 161.04 59.4099 159.5 59.4099V59.3699ZM128.37 14.8198C128.366 13.0925 128.773 11.389 129.555 9.84888C130.337 8.30879 131.473 6.97614 132.87 5.95996C136.173 3.63014 140.117 2.37939 144.16 2.37939C148.202 2.37939 152.146 3.63014 155.45 5.95996C156.856 6.96953 158.002 8.29995 158.792 9.84082C159.581 11.3817 159.992 13.0884 159.99 14.8198C159.99 18.1198 158.476 20.9233 155.45 23.23C152.114 25.4784 148.183 26.6794 144.16 26.6794C140.137 26.6794 136.206 25.4784 132.87 23.23C129.87 20.9433 128.37 18.1532 128.37 14.8599V14.8198ZM133.67 14.8198C133.659 15.9197 133.92 17.0052 134.432 17.979C134.943 18.9528 135.688 19.7847 136.6 20.3999C138.813 21.9167 141.459 22.6748 144.14 22.5601C146.833 22.6713 149.49 21.9139 151.72 20.3999C152.646 19.7941 153.405 18.9661 153.929 17.9915C154.453 17.0168 154.725 15.9264 154.72 14.8198C154.74 13.6594 154.485 12.5109 153.976 11.468C153.466 10.4251 152.717 9.51758 151.79 8.81982C149.604 7.1752 146.913 6.34432 144.18 6.46997C141.459 6.34101 138.779 7.17271 136.61 8.81982C135.679 9.52385 134.927 10.4379 134.416 11.4875C133.905 12.5372 133.65 13.6927 133.67 14.8599V14.8198Z" fill="#595857"/>
<path d="M191.78 36.8101C188.513 36.9107 185.326 35.7912 182.84 33.6699C181.734 32.8182 180.834 31.7291 180.206 30.4829C179.578 29.2367 179.237 27.8653 179.21 26.47C179.201 24.4716 179.785 22.5155 180.89 20.8499C182.028 19.1117 183.559 17.6661 185.36 16.6299H179.07C177.58 16.6299 176.84 15.9599 176.84 14.6299C176.84 13.2999 177.56 12.6299 179 12.6299H203.5C204.99 12.6299 205.74 13.2799 205.74 14.6299C205.74 15.9799 204.99 16.6299 203.5 16.6299H197.15C193.203 16.6299 190.05 17.6132 187.69 19.5798C186.618 20.3714 185.756 21.4131 185.179 22.614C184.602 23.8149 184.328 25.1387 184.38 26.47C184.425 27.3311 184.654 28.1726 185.05 28.9382C185.447 29.7039 186.002 30.3761 186.68 30.9099C188.096 32.1294 189.911 32.7845 191.78 32.75C193.692 32.809 195.561 32.181 197.05 30.98C197.68 30.5222 198.204 29.9326 198.583 29.2522C198.963 28.5718 199.191 27.8171 199.25 27.04C199.312 25.7403 198.887 24.4642 198.06 23.46C197.213 22.4146 196.07 21.651 194.78 21.27C194.62 21.2153 194.475 21.1261 194.354 21.009C194.233 20.8919 194.139 20.7497 194.079 20.5923C194.019 20.4349 193.994 20.2662 194.006 20.0981C194.018 19.9301 194.068 19.7669 194.15 19.6199C194.29 19.2799 194.7 19.09 195.37 19.04C195.894 18.99 196.422 19.0134 196.94 19.1099C197.944 19.2991 198.919 19.6187 199.84 20.0601C200.689 20.4707 201.457 21.0294 202.11 21.71C202.919 22.4655 203.539 23.4006 203.92 24.4399C204.284 25.3687 204.451 26.3631 204.41 27.3599C204.294 28.6983 203.88 29.994 203.198 31.1516C202.516 32.3092 201.584 33.2997 200.47 34.05C197.962 35.914 194.903 36.8855 191.78 36.8101ZM184.17 6.91992L182.49 5.45996C182.127 5.16556 181.862 4.76794 181.73 4.31982C181.688 4.10716 181.697 3.88792 181.756 3.67944C181.815 3.47097 181.923 3.27916 182.07 3.11987C182.244 2.94687 182.452 2.81219 182.681 2.72437C182.91 2.63654 183.155 2.59749 183.4 2.60986C183.835 2.58109 184.269 2.66732 184.66 2.85986C186.303 3.79382 188.081 4.46844 189.93 4.85986C191.808 5.18664 193.713 5.33749 195.62 5.31006C197.06 5.31006 197.78 5.96006 197.78 7.31006C197.798 7.59205 197.74 7.87356 197.611 8.12524C197.483 8.37693 197.289 8.58939 197.05 8.73999C196.608 9.04495 196.086 9.21199 195.55 9.21997L189.33 9.15991C187.407 9.0611 185.587 8.26469 184.21 6.91992H184.17ZM197.64 50.01C197.635 48.416 197.997 46.8423 198.7 45.4114C199.402 43.9805 200.426 42.7309 201.69 41.76C204.392 39.5187 207.81 38.3258 211.32 38.3999C214.864 38.3207 218.318 39.5127 221.06 41.76C222.331 42.7317 223.36 43.9832 224.069 45.4175C224.778 46.8517 225.147 48.4302 225.147 50.03C225.147 51.6299 224.778 53.2081 224.069 54.6423C223.36 56.0766 222.331 57.3284 221.06 58.3C218.326 60.5644 214.868 61.7679 211.32 61.6899C207.805 61.7629 204.384 60.5585 201.69 58.3C200.433 57.3163 199.417 56.0574 198.722 54.6204C198.027 53.1833 197.671 51.6063 197.68 50.01H197.64ZM202.95 50.01C202.932 51.0414 203.149 52.0633 203.583 52.9988C204.018 53.9342 204.66 54.7587 205.46 55.4099C207.079 56.8295 209.167 57.599 211.32 57.5698C213.516 57.6063 215.65 56.8381 217.32 55.4099C218.128 54.7637 218.778 53.9413 219.22 53.0054C219.662 52.0695 219.884 51.0449 219.87 50.01C219.885 48.9807 219.663 47.9618 219.221 47.0322C218.778 46.1027 218.128 45.2874 217.32 44.6499C215.645 43.2362 213.511 42.4825 211.32 42.53C209.173 42.4955 207.088 43.2497 205.46 44.6499C204.668 45.2965 204.033 46.1153 203.605 47.0442C203.177 47.9731 202.966 48.9875 202.99 50.01H202.95ZM209.78 9.18994C209.886 8.3077 209.646 7.41863 209.11 6.70996C208.475 6.19823 207.722 5.85435 206.92 5.70996C206.205 5.58722 205.511 5.36162 204.86 5.04004C204.671 4.93984 204.514 4.78794 204.408 4.60205C204.301 4.41616 204.25 4.20387 204.26 3.98999C204.26 3.14999 204.96 2.72998 206.36 2.72998H212.22C212.589 2.6763 212.966 2.70968 213.321 2.82739C213.675 2.9451 213.998 3.14384 214.262 3.40796C214.526 3.67208 214.725 3.99414 214.842 4.34863C214.96 4.70313 214.994 5.0803 214.94 5.44995V18.3999H222.13V6.46997C222.183 6.02401 222.146 5.5719 222.021 5.14062C221.895 4.70935 221.684 4.30776 221.4 3.95996C220.721 3.42719 219.914 3.08232 219.06 2.95996C218.341 2.8622 217.638 2.67049 216.97 2.38989C216.777 2.3046 216.615 2.16393 216.502 1.98584C216.39 1.80775 216.334 1.60029 216.34 1.38989C216.34 0.459893 217.08 0 218.57 0H224.51C226.37 0 227.3 0.90998 227.3 2.72998V31.9199C227.3 35.9199 225.95 37.9199 223.25 37.9199H222.13V22.3101H214.94V29.8C214.94 33.69 213.62 35.6399 210.94 35.6399H209.78V9.18994Z" fill="#595857"/>
<path d="M269.78 13.6501L268.52 14.0901C268.372 14.1808 268.206 14.24 268.035 14.2639C267.863 14.2878 267.687 14.276 267.52 14.229C267.353 14.1821 267.198 14.1011 267.063 13.9912C266.929 13.8813 266.819 13.7446 266.74 13.5901C266.636 13.4605 266.566 13.3071 266.536 13.1438C266.507 12.9805 266.519 12.8125 266.57 12.6548C266.622 12.497 266.712 12.3545 266.832 12.2402C266.952 12.126 267.099 12.0435 267.26 12.0002L277.18 6.3501H279.619V51.8501H274.309V16.5103C274.384 15.9602 274.325 15.4002 274.137 14.8779C273.949 14.3557 273.638 13.8865 273.23 13.5103C272.517 13.0169 271.366 13.0635 269.78 13.6501Z" fill="#595857"/>
<path d="M318.3 10.6697H304.3C303.26 10.6649 302.25 11.018 301.44 11.6697C300.6 12.3297 300.02 13.6098 299.69 15.5098C299.667 15.8591 299.507 16.1851 299.245 16.4172C298.983 16.6494 298.639 16.769 298.29 16.7498C297.5 16.7498 297.11 16.3598 297.11 15.5098L297.32 7.19971H324.12V9.73975L308.7 51.9397H303.46L318.3 10.6697Z" fill="#595857"/>
<path d="M350.55 28.0604C353.04 28.9583 355.18 30.6252 356.66 32.8202C357.984 34.9041 358.608 37.3568 358.44 39.8202C358.368 41.5142 357.945 43.1751 357.2 44.6981C356.455 46.2212 355.403 47.5736 354.11 48.6703C351.443 51.0636 347.51 52.2802 342.31 52.3202C340.496 52.3097 338.69 52.0849 336.93 51.6503C335.221 51.2716 333.593 50.5946 332.12 49.6503V45.7804C333.681 46.8326 335.435 47.5665 337.28 47.9403C338.864 48.2887 340.478 48.4797 342.1 48.5104C344.901 48.6336 347.653 47.7424 349.85 46.0004C351.85 44.327 352.85 41.907 352.85 38.7404C352.85 36.447 352.49 34.8069 351.77 33.8202C351.068 32.8458 350.205 31.9974 349.22 31.3104C348.216 30.7034 347.101 30.3052 345.94 30.1403C344.992 30.0046 344.037 29.9311 343.08 29.9203C342.847 29.9579 342.609 29.9391 342.385 29.8654C342.161 29.7916 341.958 29.6649 341.793 29.4962C341.629 29.3276 341.507 29.1219 341.438 28.8964C341.37 28.6708 341.357 28.4321 341.4 28.2003C341.45 27.0603 342.12 26.4904 343.4 26.4904H344.9C345.53 26.4588 346.152 26.3409 346.75 26.1403C348.339 25.7107 349.744 24.7731 350.75 23.4703C351.933 21.8529 352.558 19.8942 352.53 17.8903C352.623 15.1769 351.833 13.1471 350.16 11.8004C348.389 10.4254 346.19 9.71742 343.95 9.80041C342.228 9.75547 340.537 10.2675 339.13 11.2604C337.79 12.2146 336.866 13.6461 336.55 15.2604H332.5C332.682 13.9657 333.121 12.7207 333.793 11.599C334.465 10.4773 335.354 9.50181 336.41 8.73034C338.754 7.02463 341.602 6.15172 344.5 6.25036C348.006 6.10704 351.436 7.29668 354.1 9.5802C355.285 10.5812 356.235 11.8318 356.882 13.2423C357.528 14.6529 357.856 16.1888 357.84 17.7404C357.907 20.1843 357.142 22.5786 355.67 24.5304C354.394 26.2344 352.596 27.4742 350.55 28.0604V28.0604Z" fill="#595857"/>
<path d="M388.659 29.0099C387.952 30.2418 386.945 31.2741 385.73 32.0099C383.768 33.1838 381.515 33.78 379.23 33.7299C377.522 33.804 375.818 33.498 374.243 32.8339C372.668 32.1699 371.259 31.1642 370.119 29.8898C367.792 27.1181 366.587 23.5759 366.74 19.9599C366.74 15.7666 367.936 12.4031 370.329 9.86981C372.723 7.33648 376.11 6.0466 380.49 5.99994C384.396 5.95327 387.606 7.69658 390.119 11.2299C392.633 14.7632 393.889 20.4631 393.889 28.3298C393.959 32.5924 393.334 36.838 392.039 40.8998C391.125 44.1056 389.264 46.9603 386.699 49.0898C384.157 51.0158 381.059 52.0682 377.869 52.0898C374.713 52.2852 371.573 51.5106 368.869 49.8698V46.4399C370.351 47.2716 371.97 47.8304 373.65 48.0898C374.797 48.2416 375.952 48.3285 377.11 48.3498C380.41 48.3498 383.18 46.8464 385.42 43.8398C387.533 41.0131 388.613 36.0699 388.659 29.0099ZM388.52 23.2299C388.19 18.9999 387.45 15.8698 386.28 13.8398C384.66 11.0131 382.66 9.53317 380.28 9.39984C379.116 9.29468 377.945 9.50378 376.89 10.0051C375.835 10.5064 374.933 11.2816 374.28 12.2499C372.76 14.4714 371.989 17.12 372.079 19.81C372.079 23.49 372.88 26.15 374.46 27.81C375.11 28.5661 375.911 29.1773 376.812 29.6044C377.713 30.0316 378.693 30.2652 379.69 30.29C381.746 30.2345 383.72 29.4715 385.28 28.1298C386.933 26.9402 388.088 25.1804 388.52 23.1899V23.2299Z" fill="#595857"/>
<path d="M401.71 29.2598C401.71 21.7664 402.967 16.0463 405.48 12.0996C407.993 8.15294 411.39 6.173 415.67 6.15967C419.997 6.15967 423.416 8.13961 425.93 12.0996C428.443 16.0596 429.7 21.7798 429.7 29.2598C429.7 36.7064 428.443 42.4063 425.93 46.3596C423.416 50.313 419.997 52.2931 415.67 52.2998C411.39 52.2998 407.993 50.3196 405.48 46.3596C402.967 42.3996 401.71 36.6998 401.71 29.2598ZM407.22 29.2598C407.22 35.9864 408.037 40.9263 409.67 44.0796C411.303 47.2329 413.303 48.8098 415.67 48.8098C418.09 48.8098 420.113 47.2329 421.74 44.0796C423.366 40.9263 424.183 35.9864 424.19 29.2598C424.19 22.4864 423.373 17.5263 421.74 14.3796C420.106 11.233 418.083 9.65632 415.67 9.64966C413.303 9.64966 411.303 11.2263 409.67 14.3796C408.037 17.533 407.22 22.4931 407.22 29.2598V29.2598Z" fill="#595857"/>
<path d="M444.99 13.6501L443.73 14.0901C443.582 14.1808 443.416 14.24 443.244 14.2639C443.073 14.2878 442.897 14.276 442.73 14.229C442.563 14.1821 442.408 14.1011 442.273 13.9912C442.139 13.8813 442.029 13.7446 441.95 13.5901C441.846 13.4605 441.776 13.3071 441.746 13.1438C441.717 12.9805 441.729 12.8125 441.78 12.6548C441.832 12.497 441.922 12.3545 442.042 12.2402C442.163 12.126 442.309 12.0435 442.47 12.0002L452.39 6.3501H454.829V51.8501H449.52V16.5103C449.594 15.9602 449.535 15.4002 449.347 14.8779C449.159 14.3557 448.848 13.8865 448.44 13.5103C447.72 13.0169 446.57 13.0635 444.99 13.6501Z" fill="#595857"/>
<path d="M472.98 25.96H492.87V30.1899H472.98V25.96Z" fill="#595857"/>
<path d="M501.11 29.2598C501.11 21.7664 502.363 16.0463 504.87 12.0996C507.39 8.09961 510.78 6.15967 515.07 6.15967C519.36 6.15967 522.82 8.15961 525.33 12.0996C527.84 16.0396 529.1 21.7698 529.1 29.2598C529.1 36.7498 527.84 42.4096 525.33 46.3596C522.82 50.3096 519.4 52.2998 515.07 52.2998C510.74 52.2998 507.39 50.2996 504.87 46.3596C502.35 42.4196 501.11 36.7098 501.11 29.2598ZM506.62 29.2598C506.62 35.9864 507.433 40.9263 509.06 44.0796C510.686 47.2329 512.686 48.8098 515.06 48.8098C517.48 48.8098 519.503 47.2329 521.13 44.0796C522.757 40.9263 523.57 35.9864 523.57 29.2598C523.57 22.4864 522.757 17.5263 521.13 14.3796C519.503 11.233 517.48 9.65632 515.06 9.64966C512.68 9.64966 510.68 11.2263 509.06 14.3796C507.44 17.533 506.626 22.4931 506.62 29.2598Z" fill="#595857"/>
<path d="M553.78 38.9097H535.38V35.3496L553.32 6.15967H558.78V35.3496H564.86V38.9097H558.78V51.5398H553.78V38.9097ZM540.23 35.3496H553.78V13.0796L540.23 35.3496Z" fill="#595857"/>
<path d="M572.37 25.96H592.27V30.1899H572.37V25.96Z" fill="#595857"/>
<path d="M601.2 48.8102C601.85 48.0902 602.71 47.2401 603.78 46.2701C607.688 42.2417 611.272 37.9115 614.5 33.3199C618.8 27.4399 620.95 22.4901 620.95 18.4701C621.1 16.117 620.354 13.7944 618.86 11.9701C618.064 11.1643 617.103 10.5399 616.043 10.1395C614.983 9.7391 613.85 9.57203 612.72 9.65C610.89 9.63515 609.116 10.2775 607.72 11.4601C606.988 12.0937 606.389 12.8663 605.958 13.7333C605.527 14.6002 605.273 15.5441 605.21 16.5101H601.02C601.096 15.0036 601.492 13.5305 602.182 12.1891C602.871 10.8476 603.839 9.66843 605.02 8.73008C607.304 6.95119 610.125 6.00257 613.02 6.04014C617.207 6.04014 620.473 7.19009 622.82 9.49009C624.016 10.7144 624.947 12.1719 625.554 13.7721C626.162 15.3722 626.432 17.0806 626.35 18.7901C626.35 22.3035 624.663 26.6368 621.29 31.7901C617.449 37.5053 613.097 42.8606 608.29 47.7901H617.78C619.4 47.8543 621.018 47.6306 622.56 47.13C623.71 46.68 624.56 45.36 625.04 43.13C625.14 42.5 625.57 42.2299 626.33 42.3399C627.09 42.4499 627.49 42.71 627.49 43.13L626.79 51.44H601.17L601.2 48.8102Z" fill="#595857"/>
<path d="M642.78 26.53C644.15 25.4861 645.758 24.7988 647.46 24.53C648.869 24.3188 650.297 24.2549 651.72 24.3398C654.713 24.4915 657.545 25.7453 659.67 27.8599C661.95 30.0399 663.09 33.1165 663.09 37.0898C663.165 39.0596 662.822 41.0231 662.083 42.8503C661.343 44.6776 660.224 46.3272 658.8 47.6899C655.94 50.4033 652.136 51.84 647.39 52C645.37 52.083 643.348 51.8706 641.39 51.3699C639.672 50.9809 638.032 50.3047 636.54 49.3699V45.95C638.656 47.0376 640.931 47.7867 643.28 48.1699C645.086 48.509 646.937 48.5294 648.75 48.23C651.381 47.7592 653.773 46.4044 655.53 44.3899C657.273 42.209 658.165 39.4692 658.04 36.6799C658.112 35.5193 657.956 34.3558 657.579 33.2559C657.201 32.1559 656.61 31.1412 655.84 30.27C654.341 28.7316 652.297 27.8444 650.15 27.8C648.714 27.6956 647.273 27.9106 645.93 28.4299C644.565 29.0056 643.373 29.9255 642.47 31.0999H637.59L638.84 6.79004H660.13V10.47H643.45L642.78 26.53Z" fill="#595857"/>
<path d="M692.29 10.6697H678.29C677.25 10.6665 676.241 11.0194 675.43 11.6697C674.59 12.3297 674.01 13.6098 673.68 15.5098C673.659 15.8583 673.501 16.1844 673.241 16.4167C672.98 16.6491 672.638 16.7689 672.29 16.7498C671.49 16.7498 671.1 16.3598 671.1 15.5098L671.31 7.19971H698.12V9.73975L682.69 51.9397H677.45L692.29 10.6697Z" fill="#595857"/>
<path d="M727.61 29.0099C726.906 30.2443 725.898 31.2772 724.681 32.0099C722.723 33.184 720.473 33.7803 718.19 33.7299C716.482 33.8061 714.778 33.501 713.202 32.8368C711.626 32.1727 710.218 31.1659 709.08 29.8898C706.746 27.1215 705.536 23.5777 705.69 19.9599C705.69 15.7666 706.89 12.4031 709.29 9.86981C711.69 7.33648 715.074 6.0466 719.44 5.99994C723.347 5.95327 726.56 7.69658 729.08 11.2299C731.6 14.7632 732.857 20.4631 732.851 28.3298C732.915 32.5921 732.29 36.8368 731 40.8998C730.078 44.1019 728.218 46.9545 725.66 49.0898C723.117 51.0146 720.02 52.0667 716.83 52.0898C713.674 52.2865 710.533 51.5118 707.83 49.8698V46.4399C709.31 47.2755 710.93 47.8345 712.61 48.0898C713.754 48.2416 714.906 48.3284 716.06 48.3498C717.71 48.3418 719.332 47.926 720.782 47.1391C722.232 46.3522 723.464 45.2186 724.37 43.8398C726.483 41.0131 727.564 36.0699 727.61 29.0099ZM727.471 23.2299C727.151 18.9999 726.4 15.8698 725.24 13.8398C723.613 11.0131 721.613 9.53317 719.24 9.39984C718.076 9.29253 716.905 9.50066 715.85 10.0021C714.794 10.5036 713.892 11.28 713.24 12.2499C711.716 14.4693 710.945 17.1194 711.04 19.81C711.04 23.49 711.83 26.1567 713.41 27.81C714.062 28.5663 714.865 29.1775 715.768 29.6047C716.67 30.0318 717.652 30.2654 718.65 30.29C720.704 30.2347 722.675 29.4715 724.23 28.1298C725.884 26.9402 727.038 25.1804 727.471 23.1899V23.2299Z" fill="#595857"/>
<path d="M762.65 29.0099C761.947 30.2443 760.938 31.2772 759.721 32.0099C757.763 33.184 755.513 33.7803 753.23 33.7299C751.522 33.8061 749.818 33.501 748.242 32.8368C746.666 32.1727 745.258 31.1659 744.12 29.8898C741.786 27.1215 740.576 23.5777 740.73 19.9599C740.73 15.7666 741.93 12.4031 744.33 9.86981C746.73 7.33648 750.114 6.0466 754.48 5.99994C758.387 5.95327 761.6 7.69658 764.12 11.2299C766.64 14.7632 767.897 20.4631 767.891 28.3298C767.955 32.5921 767.33 36.8368 766.04 40.8998C765.118 44.1019 763.258 46.9545 760.7 49.0898C758.157 51.0146 755.06 52.0667 751.87 52.0898C748.714 52.2865 745.573 51.5118 742.87 49.8698V46.4399C744.35 47.2755 745.97 47.8345 747.65 48.0898C748.794 48.2416 749.947 48.3284 751.101 48.3498C752.75 48.3418 754.372 47.926 755.822 47.1391C757.272 46.3522 758.504 45.2186 759.41 43.8398C761.523 41.0131 762.604 36.0699 762.65 29.0099ZM762.511 23.2299C762.191 18.9999 761.44 15.8698 760.28 13.8398C758.654 11.0131 756.654 9.53317 754.28 9.39984C753.116 9.29253 751.945 9.50066 750.89 10.0021C749.834 10.5036 748.932 11.28 748.28 12.2499C746.756 14.4693 745.985 17.1194 746.08 19.81C746.08 23.49 746.87 26.1567 748.45 27.81C749.102 28.5663 749.905 29.1775 750.808 29.6047C751.71 30.0318 752.692 30.2654 753.69 30.29C755.744 30.2347 757.715 29.4715 759.27 28.1298C760.924 26.9402 762.078 25.1804 762.511 23.1899V23.2299Z" fill="#595857"/>
<path d="M793.29 38.9097H774.93V35.3496L792.87 6.15967H798.32V35.3496H804.39V38.9097H798.32V51.5398H793.32L793.29 38.9097ZM779.75 35.3496H793.29V13.0796L779.75 35.3496Z" fill="#595857"/>
</svg>
