<svg width="509" height="62" viewBox="0 0 509 62" fill="none" xmlns="http://www.w3.org/2000/svg">
<path d="M25.6221 9.37988C27.4321 9.37988 28.3423 10.3799 28.3423 12.3799V29.8999C28.3423 32.4799 27.9221 34.36 27.0821 35.54C28.5321 35.54 29.2525 36.2 29.2525 37.54C29.2525 38.88 28.5321 39.54 27.0821 39.54H7.82229C7.5678 40.1 7.1542 40.5728 6.63332 40.8999C6.11244 41.227 5.50703 41.3939 4.89211 41.3799H3.70217V16.8198C3.75285 15.795 3.6588 14.7684 3.42238 13.77C3.23458 13.4425 2.98276 13.156 2.68215 12.9275C2.38154 12.699 2.03826 12.5332 1.67238 12.4399C1.23583 12.3075 0.823552 12.1048 0.452169 11.8398C0.301175 11.7226 0.181495 11.5703 0.103048 11.396C0.0246007 11.2217 -0.00993217 11.0306 0.00246216 10.8398C0.00246216 9.90984 0.632345 9.44995 1.88234 9.44995L25.6221 9.37988ZM8.72219 35.52H23.1724V13.3799H8.86233V33.6199C8.87235 34.2561 8.82536 34.8921 8.72219 35.52V35.52ZM39.4424 6.52002C39.4967 6.07029 39.453 5.61405 39.315 5.18262C39.1769 4.75118 38.9474 4.3547 38.6421 4.02002C37.9959 3.52109 37.2432 3.17879 36.4424 3.02002C35.712 2.88636 34.9976 2.67504 34.312 2.38989C34.114 2.30923 33.945 2.17066 33.8272 1.99219C33.7094 1.81372 33.6487 1.6037 33.6524 1.38989C33.6524 0.459893 34.372 0 35.812 0H41.9522C43.7722 0 44.6724 0.889912 44.6724 2.65991V22.27H53.6724C55.1624 22.27 55.9024 22.95 55.9024 24.27C55.9024 25.59 55.1624 26.27 53.6724 26.27H44.6724V54.1699C44.6724 58.0633 43.339 60.01 40.6724 60.01H39.4824L39.4424 6.52002Z" fill="#595857"/>
<path d="M118.592 33.8696H69.0322C67.6322 33.8696 66.9321 33.2196 66.9321 31.8696C66.9321 30.5196 67.6322 29.8696 69.0322 29.8696H118.592C120.132 29.8696 120.902 30.5396 120.902 31.8696C120.902 33.1996 120.132 33.8696 118.592 33.8696ZM107.282 40.4697C109.102 40.4697 110.002 41.4697 110.002 43.4697V50.8896C110.002 53.1763 109.562 54.8263 108.682 55.8396H108.752C110.192 55.8396 110.912 56.4996 110.912 57.8396C110.912 59.1796 110.192 59.8396 108.752 59.8396H82.9922C82.7377 60.3996 82.3246 60.8726 81.8037 61.1997C81.2828 61.5268 80.6769 61.6937 80.062 61.6797H78.8721V47.7798C78.929 46.7697 78.8243 45.7569 78.562 44.7798C78.3825 44.4565 78.1381 44.174 77.8438 43.9502C77.5494 43.7264 77.2116 43.5662 76.8521 43.4797C76.4019 43.3458 75.9766 43.1397 75.5923 42.8696C75.4346 42.7562 75.3072 42.6056 75.2217 42.4312C75.1362 42.2567 75.0951 42.0638 75.1021 41.8696C75.1021 40.9796 75.7521 40.5298 77.1021 40.5298L107.282 40.4697ZM78.4521 13.3796C78.4615 11.6901 78.8719 10.0271 79.6489 8.52686C80.426 7.02662 81.5478 5.73213 82.9224 4.74976C86.1083 2.43578 89.9448 1.18945 93.8823 1.18945C97.8199 1.18945 101.656 2.43578 104.842 4.74976C106.217 5.73213 107.339 7.02662 108.116 8.52686C108.893 10.0271 109.303 11.6901 109.312 13.3796C109.3 15.0505 108.888 16.6942 108.11 18.1731C107.333 19.6519 106.212 20.9228 104.842 21.8796C101.636 24.1438 97.8074 25.3594 93.8823 25.3594C89.9573 25.3594 86.1286 24.1438 82.9224 21.8796C81.5526 20.9228 80.432 19.6519 79.6543 18.1731C78.8766 16.6942 78.4642 15.0505 78.4521 13.3796V13.3796ZM83.6924 13.3796C83.6828 14.4889 83.9403 15.5841 84.4434 16.5728C84.9464 17.5614 85.6798 18.4143 86.582 19.0596C88.6905 20.6144 91.2644 21.4076 93.8823 21.3096C96.4747 21.4013 99.0208 20.6078 101.102 19.0596C102.007 18.416 102.743 17.5636 103.248 16.5747C103.753 15.5859 104.012 14.4899 104.002 13.3796C104.024 12.249 103.772 11.13 103.267 10.1182C102.762 9.10634 102.019 8.23173 101.102 7.56958C99.0208 6.02136 96.4747 5.22783 93.8823 5.31958C91.2644 5.2215 88.6905 6.01476 86.582 7.56958C85.6671 8.23283 84.9266 9.10787 84.4233 10.1196C83.9201 11.1314 83.6694 12.2499 83.6924 13.3796V13.3796ZM83.9023 55.8296H104.842V44.4097H83.9722V53.9897C83.9722 54.6697 83.9423 55.2796 83.9023 55.8296V55.8296Z" fill="#595857"/>
<path d="M184.552 31.7202H134.992C134.715 31.7631 134.432 31.7417 134.165 31.658C133.897 31.5742 133.653 31.4301 133.45 31.2368C133.247 31.0436 133.091 30.8064 132.994 30.5435C132.898 30.2805 132.863 29.9989 132.892 29.7202C132.892 28.3602 133.592 27.7202 134.992 27.7202H184.552C186.092 27.7202 186.852 28.3902 186.852 29.7202C186.852 31.0502 186.092 31.7202 184.552 31.7202ZM144.902 40.9202C143.412 40.9202 142.672 40.2803 142.672 39.0203C142.672 37.7603 143.392 37.0203 144.832 37.0203H173.732C175.362 37.0203 176.172 37.9601 176.172 39.8201V47.1702C176.172 49.3302 175.242 50.4102 173.382 50.4102H149.862V54.5303C149.862 55.7203 150.412 56.3101 151.532 56.3101H176.102C177.592 56.3101 178.342 56.9701 178.342 58.3101C178.342 59.6501 177.592 60.3101 176.102 60.3101H149.022C146.136 60.3101 144.692 58.7468 144.692 55.6201V52.3801C144.754 51.6954 144.57 51.0112 144.172 50.4502C143.741 49.9905 143.201 49.6467 142.602 49.4502C142.224 49.3289 141.859 49.1715 141.512 48.9802C141.335 48.8851 141.191 48.7387 141.098 48.5603C141.005 48.3819 140.968 48.1799 140.992 47.9802C140.992 47.0502 141.642 46.5901 142.992 46.5901H170.992V40.9402L144.902 40.9202ZM144.412 12.4902C144.412 9.27023 145.882 6.55005 148.812 4.30005C152.064 2.11435 155.893 0.947266 159.812 0.947266C163.73 0.947266 167.56 2.11435 170.812 4.30005C173.812 6.55005 175.252 9.30023 175.252 12.4902C175.252 15.6802 173.772 18.4201 170.812 20.6401C167.552 22.8069 163.726 23.9626 159.812 23.9626C155.898 23.9626 152.071 22.8069 148.812 20.6401C145.885 18.4201 144.419 15.7036 144.412 12.4902V12.4902ZM149.652 12.4902C149.669 13.5244 149.939 14.5386 150.437 15.4448C150.936 16.3511 151.648 17.1219 152.512 17.6902C154.684 19.0998 157.218 19.8499 159.807 19.8499C162.396 19.8499 164.93 19.0998 167.102 17.6902C167.966 17.1219 168.679 16.3511 169.177 15.4448C169.675 14.5386 169.945 13.5244 169.962 12.4902C169.944 11.4508 169.674 10.4313 169.176 9.5188C168.678 8.6063 167.966 7.82798 167.102 7.25024C164.937 5.82112 162.401 5.05908 159.807 5.05908C157.213 5.05908 154.677 5.82112 152.512 7.25024C151.648 7.82798 150.936 8.6063 150.438 9.5188C149.94 10.4313 149.671 11.4508 149.652 12.4902V12.4902Z" fill="#595857"/>
<path d="M233.332 10.5798C231.842 10.5798 231.092 9.90983 231.092 8.57983C231.092 7.24983 231.822 6.57983 233.262 6.57983H252.872C253.382 6.53015 253.896 6.58632 254.383 6.74463C254.87 6.90294 255.319 7.16014 255.702 7.5C255.998 7.86383 256.185 8.30355 256.241 8.7688C256.298 9.23405 256.222 9.70582 256.022 10.1299C254.525 14.1895 252.351 17.9661 249.592 21.2998L260.342 31.2998C260.681 31.5227 260.967 31.8175 261.18 32.1631C261.392 32.5087 261.526 32.8967 261.572 33.2998C261.589 33.6295 261.524 33.9585 261.382 34.2568C261.241 34.5552 261.028 34.814 260.762 35.01C260.213 35.4311 259.533 35.6436 258.842 35.6099C258.116 35.5884 257.427 35.2834 256.922 34.76L247.282 23.97C247.245 24.043 247.198 24.1103 247.142 24.1699C242.768 29.1479 237.513 33.2768 231.642 36.3499C230.482 36.9799 229.642 36.9099 229.202 36.1299C228.762 35.3499 228.972 34.6199 229.902 33.9399C234.44 30.7849 238.528 27.0272 242.052 22.77C245.17 19.1013 247.73 14.9939 249.652 10.5798H233.332ZM275.002 59.3899H251.832C247.552 59.3899 245.412 57.5265 245.412 53.7998V46.95C245.519 46.077 245.278 45.1971 244.742 44.5C244.1 43.9949 243.345 43.6519 242.542 43.5C241.899 43.3562 241.278 43.1309 240.692 42.8298C240.539 42.7151 240.417 42.5631 240.338 42.3882C240.259 42.2132 240.226 42.021 240.242 41.8298C240.242 40.8998 240.942 40.4299 242.332 40.4299H247.922C249.732 40.4299 250.642 41.4299 250.642 43.4299V54.03C250.642 54.92 251.062 55.3599 251.902 55.3599H275.002C276.542 55.3599 277.312 56.0265 277.312 57.3599C277.282 58.7099 276.542 59.3899 275.002 59.3899ZM269.212 6.52002C269.265 6.07265 269.224 5.61902 269.092 5.18848C268.959 4.75793 268.738 4.35999 268.442 4.02002C267.793 3.50735 267.027 3.16376 266.212 3.02002C265.494 2.87525 264.791 2.66423 264.112 2.38989C263.908 2.31445 263.731 2.17824 263.605 1.99951C263.48 1.82078 263.413 1.60806 263.412 1.38989C263.412 0.459893 264.142 0 265.582 0H271.652C273.512 0 274.442 0.889912 274.442 2.65991V39.6599C274.442 43.6599 273.122 45.6599 270.442 45.6599H269.182V22.0598H258.992C257.452 22.0598 256.682 21.3998 256.682 20.0598C256.682 18.7198 257.452 18.0598 258.992 18.0598H269.182L269.212 6.52002Z" fill="#595857"/>
<path d="M293.212 19.1699C291.722 19.1699 290.982 18.4999 290.982 17.1699C290.982 15.8399 291.702 15.1699 293.142 15.1699H321.562C323.002 15.1699 323.722 15.8299 323.722 17.1699C323.722 18.5099 323.002 19.1699 321.562 19.1699H313.462C309.809 19.0318 306.231 20.2418 303.412 22.5698C302.164 23.5453 301.155 24.7928 300.461 26.2173C299.768 27.6418 299.409 29.2059 299.412 30.79C299.352 31.9184 299.55 33.0455 299.992 34.0854C300.434 35.1254 301.108 36.0506 301.962 36.79C303.572 38.1988 305.643 38.9673 307.782 38.95C310.001 39.0233 312.159 38.2143 313.782 36.7C314.564 35.9911 315.184 35.1221 315.6 34.1523C316.015 33.1826 316.218 32.1347 316.192 31.0798C316.283 29.4971 315.783 27.937 314.792 26.7C313.793 25.5994 312.515 24.7906 311.092 24.3599C310.492 24.1399 310.142 23.87 310.092 23.53C310.037 23.3671 310.014 23.1947 310.026 23.0229C310.038 22.8512 310.084 22.6836 310.162 22.53C310.238 22.3536 310.358 22.1993 310.51 22.082C310.662 21.9648 310.842 21.8884 311.032 21.8599C311.484 21.8083 311.94 21.8083 312.392 21.8599C314.798 22.1101 317.062 23.1228 318.852 24.75C319.754 25.5944 320.461 26.6246 320.926 27.7693C321.39 28.914 321.6 30.1459 321.542 31.3799C321.537 32.9536 321.184 34.5066 320.508 35.9277C319.832 37.3489 318.85 38.6028 317.632 39.5999C314.922 41.9401 311.431 43.1752 307.852 43.0598C304.311 43.1437 300.87 41.8825 298.222 39.53C296.049 37.6442 294.657 35.0149 294.321 32.1572C293.984 29.2995 294.727 26.419 296.402 24.0798C297.871 22.0316 299.781 20.34 301.992 19.1299L293.212 19.1699ZM300.122 8.06982L298.312 6.54004C297.953 6.25297 297.685 5.86706 297.542 5.42993C297.508 5.2118 297.522 4.98893 297.583 4.77661C297.643 4.5643 297.748 4.36759 297.892 4.19995C298.059 4.0307 298.261 3.90006 298.484 3.81714C298.707 3.73422 298.945 3.70105 299.182 3.71997C299.621 3.72012 300.058 3.79447 300.472 3.93994C302.425 4.94782 304.524 5.64301 306.692 6C308.749 6.29085 310.825 6.43114 312.902 6.41992C314.392 6.41992 315.132 7.06992 315.132 8.41992C315.146 8.70867 315.082 8.99581 314.949 9.2522C314.815 9.50859 314.616 9.72509 314.372 9.87988C313.92 10.1981 313.384 10.3756 312.832 10.3899L306.622 10.3298C304.246 10.4137 301.925 9.59966 300.122 8.0498V8.06982ZM330.702 6.54004C330.756 6.09031 330.713 5.63407 330.575 5.20264C330.437 4.7712 330.208 4.37472 329.902 4.04004C329.256 3.54111 328.503 3.19881 327.702 3.04004C326.972 2.90638 326.258 2.69506 325.572 2.40991C325.374 2.32925 325.205 2.19068 325.087 2.01221C324.97 1.83374 324.908 1.62372 324.912 1.40991C324.912 0.479912 325.632 0.0200195 327.072 0.0200195H333.212C335.032 0.0200195 335.942 0.909932 335.942 2.67993V23.9399H344.942C346.432 23.9399 347.172 24.5999 347.172 25.9399C347.172 27.2799 346.432 27.9399 344.942 27.9399H335.942V54.1699C335.942 58.0599 334.582 60.01 331.892 60.01H330.702V6.54004Z" fill="#595857"/>
<path d="M409.782 36.1001H360.282C360.005 36.143 359.722 36.1219 359.455 36.0381C359.187 35.9543 358.943 35.8102 358.74 35.6169C358.537 35.4237 358.381 35.1863 358.284 34.9233C358.188 34.6604 358.153 34.3787 358.182 34.1001C358.182 32.7801 358.882 32.1001 360.282 32.1001H409.772C411.352 32.1001 412.152 32.7501 412.152 34.1001C412.152 35.4501 411.362 36.1001 409.782 36.1001ZM400.222 23.7803H375.652C371.325 23.7803 369.162 21.9202 369.162 18.2002V10.8401C369.236 10.0041 369.092 9.16317 368.742 8.40015C368.283 7.88473 367.669 7.53352 366.992 7.40015C366.322 7.21742 365.677 6.95201 365.072 6.61011C364.908 6.50069 364.775 6.35182 364.684 6.177C364.593 6.00219 364.547 5.80709 364.552 5.61011C364.552 4.72011 365.272 4.28027 366.712 4.28027H370.552C373.112 4.28027 374.392 5.40014 374.392 7.64014V18.4302C374.365 18.6111 374.381 18.7958 374.438 18.9695C374.496 19.1432 374.593 19.3011 374.722 19.4304C374.851 19.5597 375.009 19.6568 375.183 19.7141C375.357 19.7714 375.541 19.7873 375.722 19.7603H400.222C401.752 19.7603 402.522 20.4403 402.522 21.7603C402.522 23.0803 401.752 23.7803 400.222 23.7803V23.7803ZM400.432 59.3901H376.432C372.152 59.3901 370.012 57.5267 370.012 53.8V49.1101C370.074 48.6709 370.038 48.2235 369.907 47.7998C369.776 47.3762 369.552 46.9869 369.252 46.6602C368.621 46.1977 367.909 45.8585 367.152 45.6602C366.455 45.5253 365.781 45.2896 365.152 44.9602C365 44.8436 364.88 44.6911 364.802 44.5166C364.723 44.3421 364.689 44.1511 364.702 43.9602C364.702 43.0302 365.422 42.5701 366.862 42.5701H372.382C374.242 42.5701 375.172 43.5701 375.172 45.5701V54.0103C375.145 54.1911 375.161 54.3759 375.218 54.5496C375.275 54.7233 375.372 54.8809 375.502 55.0103C375.631 55.1396 375.789 55.2369 375.963 55.2942C376.136 55.3515 376.321 55.3671 376.502 55.3401H400.442C401.972 55.3401 402.742 56.0201 402.742 57.3401C402.742 58.6601 401.962 59.3901 400.432 59.3901Z" fill="#595857"/>
<path d="M465.052 7.4799C463.612 7.4799 462.893 6.81324 462.893 5.4799C462.862 5.20178 462.895 4.92022 462.991 4.65715C463.086 4.39408 463.24 4.15654 463.443 3.96306C463.645 3.76957 463.89 3.62523 464.157 3.54143C464.424 3.45762 464.706 3.43666 464.983 3.4799H494.582C496.492 3.4799 497.443 4.47977 497.443 6.58977C497.443 10.1098 497.236 14.0033 496.823 18.2699C496.482 21.7324 495.812 25.1545 494.823 28.4899H505.823C507.363 28.4899 508.122 29.1399 508.122 30.4899C508.122 31.8399 507.363 32.4899 505.823 32.4899H456.283C456.006 32.5328 455.723 32.5114 455.455 32.4277C455.188 32.3439 454.943 32.1998 454.741 32.0065C454.538 31.8133 454.382 31.5761 454.285 31.3132C454.189 31.0502 454.154 30.7686 454.183 30.4899C454.183 29.1799 454.883 28.4899 456.283 28.4899H476.103V21.8898C476.187 21.0847 475.988 20.2754 475.542 19.5998C474.984 19.0831 474.29 18.7362 473.542 18.5998C472.913 18.472 472.311 18.2351 471.763 17.8998C471.6 17.7897 471.466 17.6406 471.375 17.466C471.284 17.2913 471.239 17.0967 471.242 16.8998C471.242 16.0598 471.963 15.6298 473.403 15.6298H478.632C480.452 15.6298 481.363 16.6299 481.363 18.4899V28.4899H490.853C490.851 28.3599 490.874 28.2307 490.922 28.1098C491.482 23.7098 491.802 20.6898 491.922 19.1098C492.042 17.5298 492.063 13.6498 492.063 7.59978L465.052 7.4799ZM484.882 40.79C484.287 42.7762 483.317 44.6297 482.023 46.2499L500.443 55.5798C500.845 55.7386 501.203 55.9911 501.489 56.3163C501.774 56.6416 501.977 57.0302 502.082 57.4499C502.173 57.7999 502.173 58.1674 502.082 58.5175C501.991 58.8676 501.813 59.1886 501.563 59.4499C501.068 59.9333 500.404 60.2058 499.712 60.2099C498.822 60.1347 497.968 59.8277 497.233 59.3197L479.992 48.6598L477.992 50.7499C474.047 54.4776 469.605 57.6408 464.792 60.1498C463.212 60.9498 462.163 60.9598 461.653 60.1498C461.143 59.3398 461.443 58.6198 462.563 57.8998C466.447 55.5536 470.012 52.717 473.172 49.4599C476.379 46.1266 478.402 43.3766 479.242 41.2099C479.482 40.5699 479.243 40.1097 478.513 39.8097C477.807 39.5133 477.068 39.3019 476.313 39.1799C475.379 39.0065 474.939 38.5065 474.992 37.6799C474.992 36.8599 475.592 36.4499 476.662 36.4499H481.283C483.003 36.4499 484.102 36.8799 484.592 37.7499C485.087 38.685 485.191 39.7782 484.882 40.79Z" fill="#595857"/>
</svg>
