<svg width="422" height="229" viewBox="0 0 422 229" fill="none" xmlns="http://www.w3.org/2000/svg">
<path d="M0.769531 45.2401C1.41953 44.5301 2.22954 43.7302 3.21954 42.8402C6.80818 39.1419 10.0953 35.1624 13.0496 30.9401C16.9829 25.5468 18.9495 21.0367 18.9495 17.4101C19.0937 15.3107 18.4521 13.2329 17.1495 11.5802C16.4558 10.8794 15.6181 10.3374 14.6943 9.99209C13.7706 9.64678 12.7829 9.50635 11.7996 9.58023C10.218 9.55902 8.68266 10.1133 7.47955 11.14C6.13445 12.3572 5.30464 14.042 5.15955 15.8502H0.519531C0.585547 14.3749 0.960546 12.9298 1.6203 11.6085C2.28005 10.2873 3.20988 9.11928 4.34955 8.18008C6.5459 6.4653 9.26346 5.55491 12.0496 5.60025C16.0496 5.60025 19.1762 6.69337 21.4295 8.88003C22.5739 10.0295 23.4665 11.4047 24.0501 12.9181C24.6338 14.4315 24.8958 16.0498 24.8195 17.6701C24.8195 20.9501 23.2395 24.9835 20.0795 29.7702C16.6477 34.8904 12.7764 39.7018 8.50952 44.1501H16.6295C17.9843 44.194 19.3368 44.0082 20.6295 43.6002C21.6295 43.2302 22.3596 42.07 22.7896 40.11C22.9196 39.33 23.4495 39 24.3995 39.11C25.3495 39.22 25.8195 39.57 25.8195 40.11L25.1696 48.11H0.769531V45.2401Z" fill="#C96678"/>
<path d="M29.8398 27.3108C29.8398 20.3641 31.0232 15.0308 33.3898 11.3108C34.3884 9.60784 35.815 8.19565 37.528 7.21436C39.2409 6.23306 41.1807 5.7168 43.1548 5.7168C45.129 5.7168 47.0688 6.23306 48.7817 7.21436C50.4947 8.19565 51.9213 9.60784 52.9199 11.3108C55.2799 15.0441 56.4598 20.3775 56.4598 27.3108C56.4598 34.2441 55.2799 39.5775 52.9199 43.3108C51.9233 45.0162 50.4974 46.4309 48.7842 47.4141C47.071 48.3972 45.1301 48.9146 43.1548 48.9146C41.1796 48.9146 39.2387 48.3972 37.5255 47.4141C35.8123 46.4309 34.3864 45.0162 33.3898 43.3108C31.0232 39.5641 29.8398 34.2308 29.8398 27.3108ZM35.7098 27.3108C35.7098 33.4841 36.4398 37.9841 37.8998 40.8108C39.3598 43.6508 41.0998 45.0608 43.1198 45.0608C45.1398 45.0608 46.9399 43.6508 48.4099 40.8108C49.8799 37.9708 50.5999 33.4808 50.5999 27.3108C50.5999 21.1408 49.8699 16.5908 48.4099 13.7708C46.9499 10.9508 45.1798 9.55078 43.1198 9.55078C41.0598 9.55078 39.3598 10.9608 37.8998 13.7708C36.4398 16.5808 35.7098 21.1008 35.7098 27.3108Z" fill="#C96678"/>
<path d="M60.1995 45.2401C60.9746 44.3988 61.7924 43.5979 62.6495 42.8402C66.2381 39.1419 69.5253 35.1624 72.4795 30.9401C76.4062 25.5468 78.3728 21.0367 78.3795 17.4101C78.5208 15.3094 77.8756 13.2315 76.5695 11.5802C75.8761 10.8788 75.0384 10.3365 74.1146 9.99112C73.1908 9.64576 72.2029 9.50567 71.2195 9.58023C69.6385 9.56265 68.1044 10.1164 66.8995 11.14C65.5584 12.3602 64.7295 14.0434 64.5795 15.8502H59.9395C60.0073 14.3743 60.3842 12.9288 61.0457 11.6076C61.7071 10.2864 62.6385 9.11876 63.7795 8.18008C65.9758 6.4653 68.6934 5.55491 71.4795 5.60025C75.4795 5.60025 78.6062 6.69337 80.8595 8.88003C82.0006 10.0314 82.8902 11.4073 83.472 12.9203C84.0539 14.4334 84.3152 16.0508 84.2394 17.6701C84.2394 20.9501 82.6595 24.9835 79.4995 29.7702C76.074 34.895 72.2022 39.7069 67.9294 44.1501H76.0195C77.3743 44.194 78.7268 44.0082 80.0195 43.6002C81.0195 43.2302 81.7494 42.07 82.1794 40.11C82.3094 39.33 82.8495 39 83.7895 39.11C84.7295 39.22 85.2095 39.57 85.2095 40.11L84.5695 48.11H60.1995V45.2401Z" fill="#C96678"/>
<path d="M89.9092 45.2401C90.5592 44.5301 91.3692 43.7302 92.3592 42.8402C95.9478 39.1419 99.2349 35.1624 102.189 30.9401C106.122 25.5468 108.089 21.0367 108.089 17.4101C108.235 15.3089 107.59 13.2292 106.279 11.5802C105.587 10.8777 104.749 10.3346 103.825 9.98916C102.901 9.64373 101.913 9.50431 100.929 9.58023C99.3509 9.56054 97.8192 10.1147 96.6191 11.14C95.274 12.3572 94.4443 14.042 94.2992 15.8502H89.6592C89.7252 14.3749 90.1002 12.9298 90.7599 11.6085C91.4197 10.2873 92.3495 9.11928 93.4891 8.18008C95.6855 6.4653 98.403 5.55491 101.189 5.60025C105.189 5.60025 108.316 6.69337 110.569 8.88003C111.712 10.03 112.603 11.4057 113.185 12.9191C113.767 14.4325 114.027 16.0505 113.949 17.6701C113.949 20.9501 112.373 24.9835 109.219 29.7702C105.787 34.8904 101.916 39.7018 97.6492 44.1501H105.769C107.124 44.194 108.476 44.0082 109.769 43.6002C110.769 43.2302 111.499 42.07 111.929 40.11C112.049 39.33 112.589 39 113.539 39.11C114.489 39.22 114.959 39.57 114.959 40.11L114.309 48.11H89.9092V45.2401Z" fill="#C96678"/>
<path d="M147.21 32.1101H128.33C124.29 32.1101 122.27 30.4434 122.27 27.1101V12.2903C122.317 11.6151 122.239 10.9371 122.04 10.2903C121.727 9.83448 121.257 9.51021 120.72 9.38013C120.173 9.20442 119.644 8.97679 119.14 8.7002C118.957 8.58923 118.808 8.42934 118.711 8.23853C118.614 8.04772 118.572 7.83349 118.59 7.62012C118.59 6.62012 119.22 6.04028 120.46 6.04028H125.36C127.08 6.04028 127.94 6.96028 127.94 8.79028V26.5503C127.94 27.4103 128.31 27.8403 129.04 27.8403H147.34C148.72 27.8403 149.4 28.5602 149.4 30.0002C149.4 31.4402 148.67 32.1101 147.21 32.1101ZM162.21 55.4302H140.21C136.17 55.4302 134.15 53.6935 134.15 50.2202V43.7703C134.242 43.0069 134.046 42.2366 133.6 41.6101C133.07 41.1768 132.436 40.8907 131.76 40.7803C131.11 40.6122 130.482 40.3672 129.89 40.0503C129.711 39.9231 129.569 39.7503 129.48 39.5498C129.39 39.3493 129.355 39.1284 129.38 38.9102C129.38 37.9102 130.07 37.3303 131.44 37.3303H137.02C137.391 37.2815 137.768 37.3193 138.122 37.4409C138.476 37.5625 138.797 37.7645 139.059 38.031C139.322 38.2975 139.519 38.6212 139.635 38.9768C139.752 39.3324 139.784 39.7101 139.73 40.0803V49.8701C139.705 50.0365 139.719 50.2065 139.771 50.3665C139.824 50.5264 139.913 50.672 140.031 50.7915C140.15 50.911 140.294 51.0011 140.454 51.0547C140.614 51.1083 140.783 51.124 140.95 51.1003H162.22C162.512 51.0612 162.81 51.0907 163.089 51.1865C163.368 51.2824 163.621 51.442 163.828 51.6526C164.034 51.8632 164.189 52.1189 164.28 52.3997C164.371 52.6804 164.395 52.9786 164.35 53.2703C164.399 53.5689 164.377 53.8749 164.285 54.1633C164.193 54.4518 164.035 54.7145 163.822 54.9299C163.61 55.1454 163.349 55.3074 163.062 55.4031C162.775 55.4987 162.469 55.5252 162.17 55.4802L162.21 55.4302ZM156.15 42.5403V23.6201H143.73C142.36 23.6201 141.67 22.8902 141.67 21.4502C141.64 21.175 141.673 20.8965 141.767 20.636C141.861 20.3755 142.013 20.1399 142.211 19.947C142.41 19.7542 142.65 19.6093 142.913 19.5232C143.176 19.4371 143.456 19.4121 143.73 19.4502H156.11V14.1702H143.73C142.36 14.1702 141.67 13.4503 141.67 12.0103C141.636 11.7342 141.666 11.4538 141.759 11.1914C141.851 10.929 142.003 10.6916 142.203 10.4978C142.402 10.304 142.644 10.1591 142.909 10.0745C143.174 9.98986 143.455 9.96797 143.73 10.0103H156.11V6.48022C156.202 5.69898 156.018 4.9101 155.59 4.25024C155.076 3.81776 154.454 3.53412 153.79 3.43018C153.072 3.28086 152.369 3.06676 151.69 2.79028C151.45 2.70547 151.243 2.54629 151.099 2.33594C150.955 2.12558 150.882 1.87481 150.89 1.62012C150.89 0.560117 151.64 0.0302734 153.14 0.0302734H158.94C160.79 0.0302734 161.71 0.870293 161.71 2.55029V37.0603C161.71 40.7403 160.3 42.5703 157.46 42.5703L156.15 42.5403Z" fill="#C96678"/>
<path d="M197.019 13.1304L195.799 13.5405C195.621 13.6572 195.421 13.7355 195.211 13.7705C195.001 13.8055 194.787 13.7963 194.58 13.7437C194.374 13.691 194.182 13.5958 194.014 13.4644C193.847 13.3329 193.709 13.1682 193.609 12.9805C193.49 12.8317 193.409 12.6558 193.373 12.4683C193.338 12.2807 193.35 12.0875 193.407 11.9055C193.465 11.7235 193.566 11.5585 193.702 11.425C193.839 11.2916 194.006 11.1938 194.189 11.1404L203.469 5.86035H206.239V48.4805H200.569V15.6704C200.569 14.3371 200.289 13.4672 199.729 13.0605C199.179 12.6305 198.279 12.6604 197.019 13.1304Z" fill="#C96678"/>
<path d="M218.5 27.3108C218.5 20.3641 219.68 15.0308 222.04 11.3108C223.039 9.60784 224.465 8.19565 226.178 7.21436C227.891 6.23306 229.831 5.7168 231.805 5.7168C233.779 5.7168 235.719 6.23306 237.432 7.21436C239.145 8.19565 240.571 9.60784 241.57 11.3108C243.93 15.0441 245.113 20.3775 245.12 27.3108C245.127 34.2441 243.943 39.5775 241.57 43.3108C240.573 45.0162 239.148 46.4309 237.434 47.4141C235.721 48.3972 233.78 48.9146 231.805 48.9146C229.83 48.9146 227.889 48.3972 226.176 47.4141C224.462 46.4309 223.037 45.0162 222.04 43.3108C219.68 39.5641 218.5 34.2308 218.5 27.3108ZM224.36 27.3108C224.36 33.4841 225.09 37.9841 226.55 40.8108C228.01 43.6508 229.75 45.0608 231.77 45.0608C233.79 45.0608 235.6 43.6508 237.06 40.8108C238.52 37.9708 239.25 33.4808 239.25 27.3108C239.25 21.1408 238.52 16.5908 237.06 13.7708C235.6 10.9508 233.84 9.55078 231.77 9.55078C229.7 9.55078 228.01 10.9608 226.55 13.7708C225.09 16.5808 224.36 21.1008 224.36 27.3108Z" fill="#C96678"/>
<path d="M266.9 26.1899V30.3599C266.9 33.2065 265.61 34.6299 263.03 34.6299H261.23V26.1899H249.5C248.17 26.1899 247.5 25.47 247.5 24.03C247.5 22.59 248.17 21.9199 249.5 21.9199H268.25C270.92 21.9199 273.17 21.9201 275.02 21.8301C276.92 21.7685 278.814 21.5813 280.69 21.27C282.28 21 283.22 21.27 283.5 22.03C283.78 22.79 283.5 23.46 282.56 23.97C280.888 24.8238 279.076 25.3693 277.21 25.5801C274.138 26.029 271.035 26.2329 267.93 26.1899H266.9ZM251.02 10.73C251.028 9.40173 251.361 8.09551 251.99 6.92578C252.62 5.75605 253.526 4.75847 254.63 4.02002C257.335 2.10537 260.599 1.14496 263.91 1.29004C267.219 1.16152 270.478 2.12039 273.19 4.02002C274.308 4.74615 275.228 5.74023 275.864 6.91211C276.501 8.08399 276.834 9.39645 276.834 10.73C276.834 12.0635 276.501 13.376 275.864 14.5479C275.228 15.7197 274.308 16.7138 273.19 17.4399C270.475 19.332 267.217 20.2869 263.91 20.1599C260.601 20.3026 257.338 19.3462 254.63 17.4399C253.527 16.7002 252.622 15.7022 251.993 14.5327C251.363 13.3633 251.03 12.0579 251.02 10.73V10.73ZM256.69 10.73C256.687 11.4553 256.869 12.1694 257.219 12.8047C257.569 13.4399 258.075 13.9751 258.69 14.3599C260.24 15.3629 262.066 15.8561 263.91 15.77C265.764 15.8524 267.597 15.3598 269.16 14.3599C269.78 13.9775 270.293 13.4429 270.648 12.8066C271.003 12.1704 271.19 11.4538 271.19 10.7251C271.19 9.99637 271.003 9.27958 270.648 8.64331C270.293 8.00704 269.78 7.47245 269.16 7.09009C267.594 6.09908 265.762 5.61044 263.91 5.68994C262.067 5.60624 260.244 6.09546 258.69 7.09009C258.079 7.47934 257.578 8.01764 257.233 8.65454C256.889 9.29145 256.712 10.0058 256.72 10.73H256.69ZM290.2 56.25H266.64C264.32 56.25 263.16 54.9434 263.16 52.3301V49.48C263.227 48.8725 263.055 48.2627 262.68 47.78C262.292 47.4155 261.846 47.118 261.36 46.8999C260.998 46.7974 260.659 46.6278 260.36 46.3999C260.21 46.2656 260.094 46.0978 260.021 45.9102C259.948 45.7225 259.92 45.5204 259.94 45.3201C259.94 44.3001 260.5 43.79 261.62 43.79H284.82V39.8699H263.36C262.8 39.8699 262.264 39.6477 261.868 39.252C261.472 38.8563 261.25 38.3196 261.25 37.76C261.25 37.2004 261.472 36.6638 261.868 36.2681C262.264 35.8724 262.8 35.6499 263.36 35.6499H288.11C289.65 35.6499 290.43 36.53 290.43 38.29V44.79C290.43 46.9 289.55 47.95 287.78 47.95H268.78V50.5901C268.78 51.5901 269.3 52.05 270.33 52.05H290.33C290.61 52.0099 290.895 52.0354 291.164 52.1248C291.432 52.2141 291.676 52.3648 291.875 52.5647C292.075 52.7646 292.226 53.0084 292.315 53.2766C292.405 53.5449 292.43 53.83 292.39 54.1099C292.43 54.4021 292.402 54.7 292.308 54.9795C292.213 55.259 292.055 55.5126 291.845 55.7202C291.636 55.9279 291.381 56.0838 291.1 56.1758C290.82 56.2677 290.522 56.2932 290.23 56.25H290.2ZM285.3 6.38989C285.387 5.63325 285.218 4.86941 284.82 4.21997C284.299 3.7747 283.66 3.48983 282.98 3.3999C282.265 3.25059 281.566 3.03648 280.89 2.76001C280.649 2.67557 280.44 2.51683 280.295 2.30664C280.149 2.09645 280.074 1.84567 280.08 1.59009C280.08 0.530088 280.84 0 282.34 0H288.14C289.99 0 290.91 0.84002 290.91 2.52002V28.6599C290.91 32.3732 289.493 34.2266 286.66 34.22H285.3V32.1099H274.8C274.508 32.149 274.21 32.1195 273.931 32.0237C273.652 31.9278 273.399 31.7682 273.192 31.5576C272.986 31.347 272.831 31.0913 272.74 30.8105C272.65 30.5298 272.626 30.2316 272.67 29.9399C272.631 29.6524 272.66 29.3598 272.753 29.0852C272.847 28.8106 273.004 28.5614 273.21 28.3577C273.417 28.1539 273.668 28.0012 273.944 27.9114C274.22 27.8215 274.513 27.7971 274.8 27.8401H285.3V6.38989Z" fill="#C96678"/>
<path d="M318.659 45.2401C319.435 44.3988 320.252 43.5979 321.109 42.8402C324.695 39.1393 327.982 35.1601 330.939 30.9401C334.873 25.5467 336.836 21.0367 336.829 17.4101C336.974 15.3107 336.332 13.2329 335.029 11.5802C334.336 10.8794 333.498 10.3374 332.574 9.99208C331.65 9.64677 330.663 9.50634 329.679 9.58022C328.098 9.56264 326.564 10.1164 325.359 11.14C324.014 12.3572 323.185 14.042 323.039 15.8502H318.399C318.465 14.3749 318.84 12.9298 319.5 11.6085C320.16 10.2873 321.09 9.11927 322.229 8.18007C324.43 6.46528 327.15 5.55503 329.939 5.60024C333.939 5.60024 337.063 6.69336 339.309 8.88002C340.454 10.0295 341.346 11.4047 341.93 12.9181C342.514 14.4315 342.776 16.0498 342.699 17.6701C342.699 20.9501 341.119 24.9835 337.959 29.7702C334.531 34.8927 330.659 39.7044 326.389 44.15H334.509C335.864 44.1939 337.217 44.0082 338.509 43.6002C339.509 43.2302 340.239 42.07 340.669 40.11C340.799 39.33 341.339 39 342.279 39.11C343.219 39.22 343.699 39.57 343.699 40.11L343.049 48.11H318.659V45.2401Z" fill="#C96678"/>
<path d="M348.369 45.2401C349.144 44.3988 349.962 43.5979 350.819 42.8402C354.408 39.1419 357.695 35.1624 360.649 30.9401C364.576 25.5468 366.543 21.0367 366.549 17.4101C366.691 15.3094 366.045 13.2315 364.739 11.5802C364.046 10.8788 363.208 10.3365 362.284 9.99112C361.361 9.64576 360.373 9.50567 359.389 9.58023C357.808 9.56265 356.274 10.1164 355.069 11.14C353.728 12.3602 352.899 14.0434 352.749 15.8502H348.109C348.177 14.3743 348.554 12.9288 349.216 11.6076C349.877 10.2864 350.808 9.11876 351.949 8.18008C354.146 6.4653 356.863 5.55491 359.649 5.60025C363.649 5.60025 366.776 6.69337 369.029 8.88003C370.17 10.0314 371.06 11.4073 371.642 12.9203C372.224 14.4334 372.485 16.0508 372.409 17.6701C372.409 20.9501 370.829 24.9835 367.669 29.7702C364.244 34.895 360.372 39.7069 356.099 44.1501H364.229C365.584 44.194 366.937 44.0082 368.229 43.6002C369.229 43.2302 369.959 42.07 370.389 40.11C370.519 39.33 371.059 39 371.999 39.11C372.939 39.22 373.419 39.57 373.419 40.11L372.779 48.11H348.369V45.2401Z" fill="#C96678"/>
<path d="M377.76 16.5303C377.737 14.9023 378.1 13.292 378.818 11.8306C379.535 10.3691 380.588 9.09778 381.89 8.12012C384.723 5.97313 388.18 4.81128 391.735 4.81128C395.289 4.81128 398.747 5.97313 401.58 8.12012C402.888 9.09343 403.946 10.3634 404.667 11.8254C405.389 13.2875 405.753 14.9001 405.73 16.5303C405.743 18.1418 405.374 19.7335 404.652 21.1746C403.931 22.6157 402.878 23.8651 401.58 24.8203C398.747 26.9673 395.289 28.1292 391.735 28.1292C388.18 28.1292 384.723 26.9673 381.89 24.8203C380.597 23.8613 379.549 22.6105 378.832 21.1699C378.114 19.7293 377.747 18.1397 377.76 16.5303V16.5303ZM383.43 16.5303C383.401 17.5257 383.608 18.5136 384.034 19.4138C384.46 20.314 385.092 21.1008 385.88 21.7102C387.562 22.9884 389.617 23.6804 391.73 23.6804C393.843 23.6804 395.897 22.9884 397.58 21.7102C398.375 21.1057 399.014 20.3204 399.445 19.4197C399.877 18.5189 400.087 17.5286 400.06 16.5303C400.086 15.5092 399.876 14.4957 399.446 13.5693C399.016 12.6429 398.377 11.8286 397.58 11.1902C395.924 9.86341 393.866 9.14038 391.745 9.14038C389.623 9.14038 387.565 9.86341 385.91 11.1902C385.112 11.8286 384.474 12.6429 384.043 13.5693C383.613 14.4957 383.403 15.5092 383.43 16.5303V16.5303ZM419.43 56.2502H396.58C394.22 56.2502 393.04 54.9635 393.04 52.3901V47.8203C393.109 47.1924 392.934 46.5619 392.55 46.0603C392.183 45.7172 391.76 45.4397 391.3 45.2402C390.91 45.1397 390.546 44.9592 390.23 44.7102C390.08 44.569 389.965 44.3956 389.892 44.2034C389.82 44.0111 389.791 43.8051 389.81 43.6003C389.81 42.6203 390.39 42.1301 391.55 42.1301H414.02V36.4802H393.23C391.9 36.4802 391.23 35.7503 391.23 34.3103C391.187 34.0357 391.209 33.7549 391.294 33.4902C391.378 33.2255 391.523 32.9841 391.717 32.7852C391.911 32.5862 392.149 32.4354 392.412 32.3442C392.674 32.2531 392.954 32.2244 393.23 32.2603H417.33C418.88 32.2603 419.66 33.1401 419.66 34.9001V43.1602C419.66 45.2302 418.77 46.2603 417.01 46.2603H398.64V50.5403C398.64 51.5403 399.16 52.0002 400.19 52.0002H419.53C419.81 51.9601 420.095 51.9856 420.363 52.075C420.631 52.1643 420.875 52.315 421.075 52.5149C421.275 52.7148 421.426 52.9586 421.515 53.2268C421.604 53.4951 421.63 53.7804 421.59 54.0603C421.638 54.3535 421.616 54.6538 421.527 54.9373C421.438 55.2207 421.284 55.4792 421.077 55.6921C420.87 55.9051 420.615 56.0664 420.335 56.1633C420.054 56.2603 419.754 56.2901 419.46 56.2502H419.43ZM414.53 29.7102V6.48022C414.624 5.70021 414.444 4.91171 414.02 4.25024C413.501 3.81997 412.876 3.53673 412.21 3.43018C411.495 3.28087 410.795 3.06675 410.12 2.79028C409.878 2.70584 409.67 2.54711 409.525 2.33691C409.379 2.12672 409.304 1.8757 409.31 1.62012C409.31 0.560117 410.06 0.0302734 411.57 0.0302734H417.37C419.22 0.0302734 420.14 0.870293 420.14 2.55029V24.1201C420.14 27.8735 418.723 29.7469 415.89 29.7402L414.53 29.7102Z" fill="#C96678"/>
<path d="M37.02 97.4807C37.3125 97.4416 37.61 97.4713 37.8891 97.5672C38.1682 97.663 38.4211 97.8224 38.6277 98.033C38.8344 98.2436 38.9892 98.4995 39.0799 98.7803C39.1706 99.0611 39.1946 99.359 39.15 99.6507C39.15 101.021 38.44 101.651 37.02 101.651H15.73V107.811C15.73 108.811 16.26 109.331 17.34 109.331H39.34C39.6143 109.293 39.8936 109.318 40.1567 109.404C40.4199 109.49 40.6599 109.635 40.8585 109.828C41.0572 110.021 41.2092 110.256 41.303 110.517C41.3969 110.777 41.43 111.056 41.4 111.331C41.4446 111.623 41.4206 111.92 41.3299 112.201C41.2392 112.482 41.0844 112.738 40.8777 112.949C40.6711 113.159 40.4182 113.318 40.1391 113.414C39.86 113.51 39.5625 113.54 39.27 113.501H28.1V122.581H48.34C49.84 122.581 50.6 123.281 50.6 124.691C50.6 126.101 49.84 126.801 48.34 126.801H1.92999C0.649993 126.801 0 126.101 0 124.691C0 123.281 0.649993 122.581 1.92999 122.581H22.5V113.501H14.02C11.44 113.501 10.15 112.191 10.15 109.571V92.5708C10.1903 91.6864 10.1266 90.8002 9.96002 89.9307C9.85631 89.6808 9.69851 89.457 9.49792 89.2754C9.29734 89.0939 9.059 88.959 8.80005 88.8806C8.32305 88.7048 7.8669 88.4768 7.44 88.2007C7.25662 88.0879 7.10638 87.9285 7.00452 87.7388C6.90265 87.5491 6.85282 87.3358 6.86005 87.1206C6.86005 86.0706 7.49004 85.5408 8.73004 85.5408H37.73C38.0217 85.5034 38.3181 85.5343 38.5959 85.6309C38.8736 85.7275 39.1251 85.8873 39.3306 86.0977C39.5361 86.308 39.69 86.5631 39.7802 86.8431C39.8703 87.123 39.8942 87.42 39.85 87.7107C39.8945 87.9936 39.8724 88.2829 39.7855 88.5557C39.6985 88.8285 39.549 89.0774 39.349 89.2823C39.149 89.4871 38.9039 89.6424 38.6332 89.7359C38.3626 89.8294 38.0739 89.8586 37.79 89.8208H15.79V97.4807H37.02Z" fill="#C96678"/>
<path d="M101.319 126.88H54.9195C53.6295 126.88 52.9795 126.18 52.9795 124.77C52.9795 123.36 53.6295 122.66 54.9195 122.66H67.3495V117.39C67.3908 116.673 67.337 115.953 67.1895 115.25C67.0895 114.95 66.6695 114.67 65.9395 114.4C65.2095 114.13 64.7995 114.01 64.3295 113.81C64.1169 113.746 63.9317 113.613 63.8032 113.432C63.6746 113.251 63.61 113.032 63.6194 112.81C63.6194 111.91 64.4495 111.46 66.1295 111.46H70.8295C72.2095 111.46 72.8995 112.18 72.8995 113.63V122.71H85.5295V117.32C85.5295 116.187 85.5295 115.377 85.5295 114.89C85.5215 114.668 85.4465 114.454 85.3144 114.276C85.1823 114.097 84.9994 113.963 84.7895 113.89C84.1395 113.62 83.6595 113.4 83.3395 113.25C83.1833 113.181 83.0524 113.064 82.9647 112.918C82.877 112.771 82.8368 112.601 82.8495 112.43C82.8495 111.57 83.6894 111.14 85.3694 111.14H89.0195C90.3995 111.14 91.0795 111.86 91.0795 113.31V122.74H101.319C102.819 122.74 103.579 123.44 103.579 124.85C103.579 126.26 102.819 126.88 101.319 126.88ZM62.4595 98.7502C62.4595 95.3636 63.9928 92.3268 67.0594 89.6401C70.222 87.0476 74.1851 85.6309 78.2745 85.6309C82.3639 85.6309 86.3269 87.0476 89.4894 89.6401C92.5694 92.3068 94.1062 95.3436 94.0995 98.7502C94.0928 102.157 92.5561 105.157 89.4894 107.75C86.3749 110.402 82.3991 111.824 78.3094 111.75C74.1928 111.86 70.1826 110.434 67.0594 107.75C63.9928 105.11 62.4595 102.11 62.4595 98.7502V98.7502ZM68.1295 98.7502C68.1476 99.9275 68.4325 101.085 68.9625 102.137C69.4925 103.188 70.2539 104.106 71.1895 104.82C73.1672 106.506 75.6808 107.432 78.2795 107.432C80.8781 107.432 83.3917 106.506 85.3694 104.82C86.305 104.106 87.0665 103.188 87.5965 102.137C88.1265 101.085 88.4113 99.9275 88.4294 98.7502C88.4085 97.5707 88.1226 96.4108 87.5929 95.3567C87.0632 94.3025 86.3033 93.381 85.3694 92.6602C83.3999 90.9572 80.8832 90.02 78.2795 90.02C75.6758 90.02 73.159 90.9572 71.1895 92.6602C70.2556 93.381 69.4957 94.3025 68.966 95.3567C68.4363 96.4108 68.1504 97.5707 68.1295 98.7502V98.7502Z" fill="#C96678"/>
<path d="M106.409 96.5303C106.387 94.9023 106.749 93.292 107.467 91.8306C108.185 90.3691 109.237 89.0978 110.539 88.1201C113.372 85.9731 116.829 84.8113 120.384 84.8113C123.939 84.8113 127.396 85.9731 130.229 88.1201C131.538 89.0929 132.598 90.3625 133.321 91.8245C134.044 93.2865 134.41 94.8993 134.389 96.5303C134.4 98.1425 134.029 99.7345 133.306 101.176C132.583 102.617 131.528 103.866 130.229 104.82C127.396 106.967 123.939 108.129 120.384 108.129C116.829 108.129 113.372 106.967 110.539 104.82C109.247 103.861 108.199 102.611 107.481 101.17C106.764 99.7293 106.396 98.1397 106.409 96.5303V96.5303ZM112.079 96.5303C112.051 97.5257 112.258 98.5136 112.683 99.4138C113.109 100.314 113.742 101.101 114.529 101.71C116.212 102.988 118.266 103.68 120.379 103.68C122.492 103.68 124.547 102.988 126.229 101.71C127.026 101.107 127.667 100.323 128.098 99.4214C128.53 98.5202 128.739 97.5289 128.709 96.5303C128.738 95.5088 128.529 94.4946 128.099 93.5679C127.668 92.6411 127.028 91.8271 126.229 91.1902C124.576 89.8625 122.519 89.1389 120.399 89.1389C118.279 89.1389 116.222 89.8625 114.569 91.1902C113.769 91.8266 113.127 92.6402 112.695 93.5669C112.263 94.4936 112.052 95.5081 112.079 96.5303V96.5303ZM148.079 136.25H125.229C122.869 136.25 121.689 134.963 121.689 132.39V127.82C121.762 127.194 121.59 126.563 121.209 126.06C120.837 125.719 120.411 125.442 119.949 125.24C119.56 125.14 119.195 124.959 118.879 124.71C118.731 124.568 118.617 124.395 118.546 124.203C118.475 124.01 118.449 123.804 118.469 123.6C118.469 122.62 119.049 122.13 120.209 122.13H142.699V116.48H121.879C120.549 116.48 119.879 115.75 119.879 114.31C119.836 114.036 119.858 113.755 119.943 113.49C120.028 113.226 120.173 112.984 120.367 112.785C120.561 112.586 120.798 112.435 121.061 112.344C121.323 112.253 121.604 112.224 121.879 112.26H146.019C147.559 112.26 148.339 113.14 148.339 114.9V123.16C148.339 125.23 147.459 126.26 145.699 126.26H127.299V130.54C127.299 131.54 127.809 132 128.839 132H148.179C148.459 131.96 148.744 131.986 149.013 132.075C149.281 132.164 149.525 132.315 149.725 132.515C149.924 132.715 150.075 132.959 150.164 133.227C150.254 133.495 150.279 133.78 150.239 134.06C150.287 134.353 150.266 134.654 150.177 134.937C150.088 135.221 149.933 135.479 149.726 135.692C149.519 135.905 149.265 136.066 148.984 136.163C148.703 136.26 148.404 136.29 148.109 136.25H148.079ZM143.189 109.71V86.4802C143.281 85.699 143.097 84.9101 142.669 84.2502C142.154 83.8199 141.532 83.5365 140.869 83.4302C140.151 83.2809 139.448 83.0668 138.769 82.7903C138.529 82.7055 138.322 82.5463 138.178 82.3359C138.034 82.1256 137.961 81.8748 137.969 81.6201C137.969 80.5601 138.719 80.0303 140.219 80.0303H146.019C147.869 80.0303 148.789 80.8703 148.789 82.5503V104.12C148.789 107.87 147.379 109.74 144.539 109.74L143.189 109.71Z" fill="#C96678"/>
<path d="M159.069 126.18C159.069 125.637 159.187 125.102 159.415 124.609C159.643 124.117 159.975 123.681 160.389 123.33C161.259 122.535 162.401 122.106 163.579 122.13C164.715 122.129 165.816 122.519 166.698 123.235C167.579 123.951 168.187 124.949 168.419 126.06C168.724 128.134 168.315 130.249 167.259 132.06C166.146 134.021 164.489 135.618 162.489 136.66C162.184 136.896 161.81 137.024 161.424 137.024C161.039 137.024 160.664 136.896 160.359 136.66C159.799 136.19 159.909 135.66 160.679 135.14C161.407 134.597 162.048 133.946 162.579 133.21C163.14 132.421 163.526 131.521 163.709 130.57C163.799 130.22 163.579 130.04 163.069 130.04C162.044 130.025 161.063 129.617 160.329 128.9C159.934 128.566 159.616 128.149 159.398 127.679C159.181 127.21 159.068 126.698 159.069 126.18Z" fill="#C96678"/>
<path d="M203.35 98.9902C203.35 95.4302 204.887 92.3135 207.96 89.6401C211.122 87.0476 215.086 85.6309 219.175 85.6309C223.264 85.6309 227.227 87.0476 230.39 89.6401C233.463 92.3068 235 95.4236 235 98.9902C234.976 100.793 234.554 102.569 233.762 104.189C232.97 105.809 231.828 107.234 230.42 108.36C228.02 110.408 225.098 111.748 221.98 112.23V122.66H242.28C243.74 122.66 244.47 123.36 244.47 124.77C244.47 126.18 243.74 126.88 242.28 126.88H195.81C194.52 126.88 193.88 126.18 193.88 124.77C193.88 123.36 194.52 122.66 195.81 122.66H216.37V112.23C213.262 111.774 210.353 110.43 207.99 108.36C204.903 105.673 203.357 102.55 203.35 98.9902ZM209.02 98.9902C209.015 100.216 209.288 101.426 209.818 102.531C210.348 103.636 211.121 104.607 212.08 105.37C214.048 107.102 216.588 108.043 219.21 108.01C221.789 108.021 224.281 107.081 226.21 105.37C227.168 104.611 227.941 103.645 228.473 102.544C229.005 101.444 229.281 100.237 229.281 99.0151C229.281 97.7929 229.005 96.5865 228.473 95.4861C227.941 94.3856 227.168 93.4195 226.21 92.6602C224.281 90.9489 221.789 90.0091 219.21 90.0203C216.588 89.9874 214.048 90.9279 212.08 92.6602C211.126 93.417 210.356 94.3793 209.826 95.4753C209.296 96.5713 209.021 97.7729 209.02 98.9902Z" fill="#C96678"/>
<path d="M251.02 90.3706C249.65 90.3706 248.96 89.6507 248.96 88.2107C248.915 87.9278 248.937 87.6385 249.024 87.3657C249.111 87.0929 249.261 86.8443 249.461 86.6394C249.661 86.4345 249.906 86.279 250.176 86.1855C250.447 86.092 250.736 86.0631 251.02 86.1008H269.58C270.087 86.0652 270.596 86.1357 271.075 86.3079C271.554 86.48 271.991 86.7501 272.36 87.1008C272.663 87.4675 272.859 87.9109 272.926 88.3821C272.993 88.8533 272.929 89.334 272.74 89.7708C271.337 93.4737 269.334 96.92 266.81 99.9707L276.61 109.111C276.956 109.329 277.248 109.622 277.466 109.968C277.684 110.314 277.822 110.704 277.87 111.111C277.886 111.452 277.815 111.793 277.663 112.099C277.511 112.406 277.282 112.668 277 112.861C276.412 113.326 275.679 113.568 274.93 113.541C274.151 113.516 273.412 113.19 272.87 112.631L264.3 102.901C260.285 107.469 255.439 111.232 250.02 113.991C248.69 114.731 247.76 114.701 247.22 113.901C246.68 113.101 246.93 112.331 247.96 111.591C252.136 108.695 255.881 105.22 259.08 101.271C261.857 97.9824 264.148 94.3113 265.88 90.3706H251.02ZM290.17 135.481H268.17C264.13 135.481 262.11 133.744 262.11 130.271V123.821C262.211 123.057 262.014 122.283 261.56 121.661C261.035 121.225 260.403 120.939 259.73 120.831C259.078 120.667 258.45 120.422 257.86 120.101C257.678 119.976 257.534 119.803 257.442 119.603C257.351 119.402 257.315 119.18 257.34 118.961C257.34 117.961 258.03 117.381 259.4 117.381H265.02C265.391 117.33 265.769 117.366 266.124 117.487C266.479 117.608 266.8 117.81 267.064 118.077C267.327 118.344 267.524 118.668 267.639 119.025C267.755 119.381 267.786 119.76 267.73 120.131V129.921C267.705 130.087 267.719 130.257 267.771 130.417C267.823 130.577 267.912 130.723 268.031 130.842C268.149 130.962 268.294 131.052 268.454 131.105C268.613 131.159 268.783 131.174 268.95 131.151H290.22C290.512 131.112 290.81 131.141 291.089 131.237C291.368 131.333 291.621 131.493 291.827 131.703C292.034 131.914 292.189 132.169 292.279 132.45C292.37 132.731 292.394 133.029 292.35 133.321C292.39 133.616 292.361 133.916 292.266 134.198C292.17 134.48 292.01 134.735 291.799 134.945C291.587 135.154 291.33 135.312 291.047 135.405C290.765 135.498 290.464 135.524 290.17 135.481V135.481ZM284.11 86.4807C284.203 85.7184 284.019 84.9479 283.59 84.3108C283.076 83.8783 282.453 83.5947 281.79 83.4907C281.075 83.343 280.375 83.1289 279.7 82.8508C279.458 82.7664 279.25 82.6077 279.104 82.3975C278.959 82.1873 278.884 81.9362 278.89 81.6807C278.89 80.6207 279.64 80.0908 281.15 80.0908H286.95C288.79 80.0908 289.72 80.9306 289.72 82.6106V117.121C289.72 120.801 288.3 122.631 285.46 122.631H284.11V101.011H274.96C274.672 101.054 274.378 101.03 274.101 100.939C273.824 100.849 273.572 100.695 273.365 100.49C273.158 100.285 273.002 100.035 272.909 99.7588C272.816 99.4829 272.789 99.189 272.83 98.9006C272.785 98.609 272.809 98.3111 272.9 98.0303C272.99 97.7495 273.145 97.4935 273.352 97.283C273.559 97.0724 273.811 96.913 274.091 96.8171C274.37 96.7213 274.667 96.6916 274.96 96.7307H284.11V86.4807Z" fill="#C96678"/>
<path d="M325.019 93.1304L323.789 93.5405C323.611 93.6572 323.411 93.7355 323.201 93.7705C322.992 93.8055 322.777 93.7963 322.571 93.7437C322.365 93.691 322.172 93.5958 322.005 93.4644C321.837 93.3329 321.699 93.1682 321.599 92.9805C321.48 92.8317 321.399 92.6558 321.364 92.4683C321.328 92.2807 321.34 92.0875 321.397 91.9055C321.455 91.7235 321.556 91.5585 321.692 91.425C321.829 91.2916 321.996 91.1938 322.179 91.1404L331.459 85.8604H334.229V128.48H328.559V95.6704C328.559 94.3404 328.279 93.4705 327.729 93.0605C327.179 92.6505 326.279 92.6604 325.019 93.1304Z" fill="#C96678"/>
<path d="M352.17 93.1304L350.95 93.5405C350.772 93.6572 350.572 93.7355 350.362 93.7705C350.152 93.8055 349.937 93.7963 349.731 93.7437C349.525 93.691 349.332 93.5958 349.165 93.4644C348.998 93.3329 348.86 93.1682 348.76 92.9805C348.638 92.8326 348.555 92.6564 348.518 92.4683C348.482 92.2801 348.493 92.0859 348.55 91.9031C348.608 91.7202 348.71 91.5546 348.848 91.4214C348.986 91.2882 349.155 91.1916 349.34 91.1404L358.62 85.8604H361.39V128.48H355.72V95.6704C355.72 94.3371 355.44 93.4672 354.88 93.0605C354.32 92.6305 353.42 92.6604 352.17 93.1304Z" fill="#C96678"/>
<path d="M393.939 91.4802C393.461 95.202 392.28 98.7992 390.459 102.08L403.089 113.63C403.79 114.197 404.243 115.015 404.349 115.91C404.43 116.286 404.396 116.678 404.252 117.035C404.108 117.391 403.859 117.696 403.539 117.91C403.193 118.191 402.785 118.385 402.348 118.477C401.912 118.569 401.46 118.557 401.029 118.44C400.155 118.2 399.37 117.71 398.769 117.03L388.399 105.61C388.348 105.735 388.281 105.853 388.199 105.96C385.068 111.042 381.079 115.542 376.409 119.26C376.058 119.609 375.598 119.828 375.105 119.881C374.613 119.934 374.117 119.817 373.699 119.55C372.879 119.01 372.949 118.27 373.889 117.33C377.763 113.443 380.993 108.963 383.459 104.06C385.853 99.2736 387.239 95.3968 387.619 92.4302C387.649 92.2109 387.606 91.988 387.495 91.7961C387.385 91.6043 387.214 91.4544 387.009 91.3701C386.425 91.0936 385.806 90.8953 385.169 90.7803C384.009 90.5903 383.449 90.0401 383.499 89.1401C383.549 88.2401 384.209 87.8003 385.499 87.8003H389.879C391.509 87.8003 392.619 88.1303 393.199 88.8003C393.496 89.1748 393.714 89.6048 393.841 90.0652C393.968 90.5255 394.002 91.0067 393.939 91.4802V91.4802ZM410.759 86.4802C410.854 85.7002 410.673 84.9117 410.249 84.2502C409.73 83.82 409.105 83.5367 408.439 83.4302C407.724 83.2825 407.025 83.0683 406.349 82.7903C406.108 82.7058 405.9 82.5471 405.754 82.3369C405.609 82.1267 405.534 81.8757 405.539 81.6201C405.539 80.5601 406.289 80.0303 407.799 80.0303H413.599C415.439 80.0303 416.369 80.8502 416.369 82.4902V130.6C416.369 134.274 414.949 136.11 412.109 136.11H410.759V86.4802Z" fill="#C96678"/>
<path d="M12.18 179.101L23.18 213.67L34.52 179.101H43.02V221.101H37.6001V185.101L26.13 218.851C26.0055 219.538 25.6289 220.153 25.0739 220.577C24.5189 221.001 23.8256 221.201 23.13 221.14H20.02L9.02004 186.39V221.14H4.02004V185.571C4.05779 184.732 3.97015 183.893 3.76003 183.081C3.6539 182.825 3.48596 182.6 3.27126 182.425C3.05657 182.251 2.80187 182.132 2.53005 182.081C1.85005 181.841 1.31007 181.65 0.920067 181.49C0.731752 181.404 0.574801 181.262 0.470909 181.083C0.367017 180.904 0.321292 180.697 0.340049 180.49C0.340049 179.6 0.970045 179.15 2.21004 179.15L12.18 179.101Z" fill="#C96678"/>
<path d="M63.6798 209.801V185.541C63.7315 184.673 63.5986 183.803 63.2898 182.99C63.1675 182.723 62.9796 182.492 62.7435 182.317C62.5075 182.142 62.2309 182.03 61.9398 181.99C61.3052 181.882 60.68 181.725 60.0698 181.521C59.8234 181.457 59.6059 181.311 59.4532 181.108C59.3005 180.904 59.2218 180.655 59.2298 180.4C59.2298 179.51 59.8798 179.061 61.1698 179.061H67.1698C68.5898 179.061 69.2998 179.68 69.2998 180.93V209.93C69.2998 214.03 68.2565 216.981 66.1698 218.781C63.8764 220.65 60.9757 221.611 58.0198 221.48C54.4465 221.48 51.7065 220.797 49.7998 219.43C48.8351 218.709 48.0668 217.757 47.5654 216.661C47.064 215.566 46.8454 214.362 46.9298 213.16H52.5998C52.5521 213.828 52.662 214.497 52.9209 215.113C53.1797 215.73 53.5802 216.277 54.0898 216.71C55.2394 217.441 56.59 217.791 57.9498 217.71C58.7381 217.748 59.5247 217.607 60.2504 217.297C60.9761 216.987 61.6221 216.516 62.1398 215.92C63.1698 214.73 63.6798 212.691 63.6798 209.801Z" fill="#C96678"/>
<path d="M79.3395 183.611C77.9695 183.611 77.2795 182.891 77.2795 181.441C77.235 181.158 77.2571 180.869 77.344 180.596C77.431 180.323 77.5805 180.074 77.7805 179.869C77.9805 179.665 78.2256 179.509 78.4963 179.416C78.7669 179.322 79.0556 179.293 79.3395 179.331H100.159C100.535 179.31 100.909 179.385 101.247 179.549C101.585 179.714 101.875 179.962 102.089 180.271C102.299 180.564 102.442 180.899 102.51 181.253C102.577 181.607 102.567 181.971 102.479 182.321C101.134 188.379 98.2361 193.982 94.0694 198.581C89.9115 203.452 84.8086 207.429 79.0694 210.271C77.6594 210.971 76.5694 210.941 75.8194 210.181C75.0694 209.421 75.2694 208.691 76.4294 207.981C81.5298 204.913 85.9775 200.874 89.5195 196.091L89.7695 195.741H79.0694C78.7778 195.778 78.4814 195.747 78.2036 195.651C77.9258 195.554 77.6743 195.394 77.4688 195.184C77.2633 194.973 77.1095 194.718 77.0193 194.438C76.9292 194.159 76.9053 193.862 76.9495 193.571C76.9081 193.289 76.9329 193 77.022 192.729C77.111 192.458 77.2619 192.212 77.4627 192.009C77.6635 191.806 77.9086 191.653 78.1788 191.561C78.449 191.47 78.7368 191.442 79.0195 191.481H92.6194C94.1214 189.053 95.2317 186.404 95.9095 183.631L79.3395 183.611ZM118.529 228.481H96.5295C92.4895 228.481 90.4695 226.744 90.4695 223.271V216.821C90.5641 216.059 90.3716 215.289 89.9294 214.661C89.3996 214.227 88.765 213.941 88.0895 213.831C87.4387 213.665 86.8107 213.419 86.2195 213.101C86.0394 212.974 85.8963 212.802 85.8049 212.601C85.7135 212.401 85.6771 212.18 85.6995 211.961C85.6995 210.961 86.3895 210.381 87.7695 210.381H93.3694C93.7408 210.33 94.1189 210.366 94.4737 210.487C94.8286 210.608 95.1503 210.81 95.4134 211.077C95.6765 211.344 95.8737 211.668 95.9893 212.025C96.1049 212.381 96.1358 212.76 96.0795 213.131V222.921C96.0562 223.088 96.072 223.258 96.1255 223.418C96.1791 223.578 96.2691 223.723 96.3883 223.842C96.5075 223.961 96.6527 224.051 96.8125 224.104C96.9724 224.158 97.1425 224.174 97.3094 224.151H118.569C118.862 224.112 119.159 224.141 119.439 224.237C119.718 224.333 119.97 224.493 120.177 224.703C120.384 224.914 120.539 225.169 120.629 225.45C120.72 225.731 120.744 226.029 120.699 226.321C120.739 226.615 120.711 226.914 120.616 227.195C120.521 227.476 120.362 227.731 120.151 227.94C119.941 228.149 119.685 228.307 119.404 228.401C119.122 228.495 118.823 228.522 118.529 228.481V228.481ZM112.469 179.481C112.56 178.72 112.379 177.952 111.959 177.311C111.44 176.881 110.815 176.597 110.149 176.491C109.434 176.343 108.735 176.129 108.059 175.851C107.818 175.766 107.61 175.608 107.464 175.397C107.319 175.187 107.244 174.936 107.249 174.681C107.249 173.621 107.999 173.091 109.509 173.091H115.309C117.149 173.091 118.079 173.931 118.079 175.611V210.121C118.079 213.801 116.659 215.631 113.829 215.631H112.469V197.001H101.469C100.91 197.001 100.373 196.779 99.9775 196.383C99.5818 195.987 99.3595 195.45 99.3595 194.891C99.3595 194.331 99.5818 193.794 99.9775 193.399C100.373 193.003 100.91 192.781 101.469 192.781H112.469V179.481Z" fill="#C96678"/>
<path d="M133.809 189.06H143.409V184.78C143.464 184.164 143.385 183.543 143.179 182.96C142.996 182.697 142.738 182.495 142.439 182.38C141.749 182.14 141.209 181.94 140.799 181.76C140.606 181.679 140.442 181.538 140.333 181.359C140.223 181.179 140.173 180.97 140.189 180.76C140.189 179.7 140.919 179.18 142.379 179.18H146.019C147.909 179.18 148.859 180.04 148.859 181.75V190.89H155.499V181.89C155.586 181.147 155.428 180.395 155.049 179.75C154.548 179.322 153.946 179.03 153.299 178.9C152.565 178.745 151.853 178.5 151.179 178.17C150.962 178.071 150.778 177.91 150.652 177.708C150.525 177.505 150.462 177.269 150.469 177.03C150.469 176.05 151.219 175.56 152.719 175.56H158.269C160.119 175.56 161.039 176.44 161.039 178.2V208.9C161.039 212.573 159.599 214.41 156.719 214.41H155.499V195.19H148.859V198.3C148.939 199.66 148.59 201.01 147.859 202.16C149.059 202.24 149.669 202.95 149.669 204.27C149.669 205.59 148.979 206.44 147.599 206.44H132.579C132.279 206.963 131.839 207.393 131.31 207.682C130.781 207.971 130.182 208.109 129.579 208.08H128.289V186.75C128.343 186.075 128.265 185.395 128.059 184.75C127.983 184.604 127.878 184.475 127.751 184.37C127.624 184.265 127.477 184.187 127.319 184.14L125.929 183.64C125.701 183.568 125.504 183.422 125.37 183.224C125.235 183.026 125.172 182.789 125.189 182.55C125.189 181.5 125.899 180.97 127.319 180.97H131.189C131.54 180.92 131.897 180.952 132.233 181.064C132.569 181.176 132.874 181.364 133.125 181.615C133.375 181.865 133.564 182.17 133.676 182.506C133.787 182.842 133.82 183.2 133.769 183.55L133.809 189.06ZM143.409 193.34H133.809V200.48C133.809 201.07 133.809 201.62 133.739 202.12H143.409V193.34ZM171.119 228.48H147.119C143.079 228.48 141.059 226.743 141.059 223.27V218.05C141.114 217.665 141.091 217.272 140.991 216.896C140.892 216.52 140.718 216.168 140.479 215.86C139.92 215.44 139.285 215.131 138.609 214.95C137.979 214.802 137.371 214.574 136.799 214.27C136.625 214.152 136.486 213.99 136.396 213.8C136.307 213.61 136.27 213.399 136.289 213.19C136.289 212.1 136.949 211.55 138.289 211.55H143.889C144.265 211.496 144.647 211.529 145.007 211.647C145.367 211.766 145.695 211.966 145.964 212.233C146.234 212.499 146.438 212.825 146.56 213.183C146.682 213.542 146.72 213.924 146.669 214.3V222.92C146.644 223.086 146.659 223.256 146.711 223.416C146.763 223.576 146.852 223.722 146.971 223.841C147.089 223.961 147.234 224.051 147.393 224.104C147.553 224.158 147.723 224.174 147.889 224.15H171.159C172.529 224.15 173.219 224.87 173.219 226.32C173.261 226.608 173.236 226.902 173.146 227.179C173.057 227.456 172.904 227.708 172.701 227.917C172.498 228.126 172.25 228.285 171.976 228.383C171.702 228.48 171.409 228.514 171.119 228.48V228.48ZM163.519 173.05H169.129C171.059 173.05 172.029 173.89 172.029 175.57V210.2C172.029 213.87 170.559 215.71 167.639 215.71H166.349V179.44C166.426 178.673 166.284 177.9 165.939 177.21C165.427 176.75 164.784 176.463 164.099 176.39C163.361 176.258 162.638 176.054 161.939 175.78C161.711 175.693 161.516 175.536 161.383 175.331C161.25 175.126 161.186 174.884 161.199 174.64C161.199 173.53 162.019 173 163.519 173V173.05Z" fill="#C96678"/>
<path d="M206.119 205.7C205.825 205.967 205.478 206.17 205.101 206.295C204.724 206.421 204.325 206.467 203.929 206.43C203.467 206.427 203.011 206.317 202.599 206.109C202.186 205.901 201.827 205.6 201.549 205.23L193.019 194.68C192.825 195.006 192.611 195.32 192.379 195.62C189.291 200.032 185.445 203.861 181.019 206.93C179.519 207.93 178.369 208.09 177.569 207.37C176.769 206.65 176.939 205.8 178.049 204.82C181.792 201.596 184.975 197.774 187.469 193.51C189.464 190.284 190.879 186.734 191.649 183.02C191.673 182.795 191.619 182.569 191.498 182.378C191.376 182.187 191.193 182.044 190.979 181.97C190.435 181.72 189.86 181.541 189.269 181.44C188.149 181.25 187.629 180.69 187.689 179.77C187.749 178.85 188.349 178.39 189.459 178.39H193.779C195.459 178.39 196.589 178.77 197.169 179.54C197.786 180.459 198.026 181.58 197.839 182.67C197.451 185.651 196.511 188.533 195.069 191.17L205.579 201.77C206.207 202.361 206.616 203.147 206.739 204C206.777 204.312 206.74 204.629 206.633 204.924C206.525 205.22 206.349 205.486 206.119 205.7ZM220.949 228.48H199.019C194.979 228.48 192.959 226.744 192.959 223.27V216.82C193.06 216.056 192.863 215.283 192.409 214.66C191.881 214.225 191.245 213.938 190.569 213.83C189.921 213.665 189.297 213.419 188.709 213.1C188.528 212.975 188.383 212.803 188.292 212.602C188.2 212.401 188.165 212.179 188.189 211.96C188.189 210.96 188.879 210.38 190.249 210.38H195.859C196.23 210.331 196.607 210.369 196.961 210.491C197.315 210.613 197.636 210.815 197.898 211.081C198.161 211.348 198.358 211.671 198.475 212.027C198.591 212.382 198.623 212.76 198.569 213.13V222.92C198.544 223.087 198.558 223.257 198.611 223.417C198.663 223.576 198.752 223.722 198.87 223.842C198.989 223.961 199.134 224.051 199.293 224.105C199.453 224.158 199.623 224.174 199.789 224.15H221.019C221.312 224.111 221.609 224.141 221.888 224.237C222.167 224.332 222.42 224.492 222.627 224.703C222.834 224.913 222.988 225.169 223.079 225.45C223.17 225.73 223.194 226.029 223.149 226.32C223.19 226.617 223.161 226.919 223.065 227.203C222.968 227.486 222.806 227.744 222.592 227.954C222.379 228.164 222.119 228.32 221.833 228.412C221.548 228.503 221.245 228.527 220.949 228.48V228.48ZM214.889 215.59V198.01H205.409C205.118 198.049 204.822 198.02 204.544 197.925C204.266 197.829 204.014 197.671 203.808 197.461C203.603 197.251 203.449 196.997 203.358 196.717C203.268 196.437 203.245 196.141 203.289 195.85C203.253 195.566 203.283 195.278 203.378 195.007C203.473 194.737 203.629 194.493 203.835 194.294C204.041 194.095 204.291 193.946 204.564 193.861C204.837 193.775 205.127 193.754 205.409 193.8H214.889V188.11H205.409C205.118 188.147 204.821 188.117 204.543 188.02C204.266 187.924 204.014 187.764 203.809 187.553C203.603 187.343 203.449 187.088 203.359 186.808C203.269 186.528 203.245 186.231 203.289 185.94C203.263 185.661 203.301 185.379 203.401 185.116C203.5 184.853 203.658 184.616 203.862 184.424C204.066 184.231 204.312 184.087 204.58 184.003C204.848 183.92 205.132 183.898 205.409 183.94H214.889V179.48C214.987 178.699 214.802 177.908 214.369 177.25C213.855 176.818 213.233 176.534 212.569 176.43C211.851 176.281 211.148 176.067 210.469 175.79C210.231 175.703 210.025 175.543 209.882 175.333C209.738 175.124 209.664 174.874 209.669 174.62C209.669 173.56 210.419 173.03 211.919 173.03H217.719C219.569 173.03 220.499 173.87 220.499 175.55V210.06C220.499 213.74 219.079 215.57 216.239 215.57L214.889 215.59Z" fill="#C96678"/>
</svg>
