<svg width="179" height="64" viewBox="0 0 179 64" fill="none" xmlns="http://www.w3.org/2000/svg">
<g opacity="0.38">
<path fill-rule="evenodd" clip-rule="evenodd" d="M147.22 63.1399H31.5693C23.1965 63.1399 15.1666 59.8138 9.24609 53.8933C3.32557 47.9728 0 39.943 0 31.5701C0 23.1972 3.32557 15.1671 9.24609 9.24658C15.1666 3.32606 23.1965 0 31.5693 0H147.22C155.593 0 163.622 3.32606 169.543 9.24658C175.463 15.1671 178.79 23.1972 178.79 31.5701C178.79 39.943 175.463 47.9728 169.543 53.8933C163.622 59.8138 155.593 63.1399 147.22 63.1399Z" fill="#B2B2B2"/>
</g>
<path d="M53.2998 29.4799H47.71V32.6098H58.0996C58.8496 32.6098 59.2295 32.92 59.2295 33.54C59.2295 34.16 58.8496 34.4799 58.0996 34.4799H34.6299C33.9699 34.4799 33.6299 34.17 33.6299 33.54C33.6299 32.91 33.9699 32.6098 34.6299 32.6098H45.2197V29.4799H40.8799C40.7502 29.7253 40.5554 29.9304 40.3174 30.0732C40.0794 30.216 39.8078 30.2911 39.5303 30.29H38.9297V21.6799C38.9528 21.3396 38.9022 20.9984 38.7803 20.6799C38.7256 20.5872 38.6514 20.5071 38.5635 20.445C38.4756 20.383 38.3752 20.3405 38.2695 20.32C38.0371 20.2615 37.8101 20.1844 37.5898 20.0898C37.4952 20.0573 37.4134 19.9948 37.3574 19.9118C37.3015 19.8288 37.2749 19.7298 37.2803 19.6298C37.2803 19.1898 37.6003 18.9599 38.2803 18.9599H40.2002C41.0102 18.9599 41.4199 19.4 41.4199 20.26V22.26H51.4902V20.78C51.5299 20.4362 51.4666 20.0884 51.3096 19.78C51.1522 19.6141 50.9511 19.4962 50.7295 19.4399C50.4761 19.3708 50.2317 19.2735 50 19.1499C49.9236 19.1062 49.8611 19.0416 49.8203 18.9636C49.7795 18.8856 49.7618 18.7976 49.7695 18.7099C49.7695 18.2899 50.1029 18.08 50.7695 18.08H52.6494C52.8278 18.052 53.0105 18.0659 53.1826 18.1208C53.3547 18.1757 53.5115 18.2699 53.6406 18.3962C53.7698 18.5224 53.8679 18.6771 53.9268 18.8479C53.9856 19.0186 54.0035 19.2008 53.9795 19.3798V25.52C54.0446 26.2699 53.8314 27.0175 53.3799 27.6198C54.0699 27.6198 54.3799 27.94 54.3799 28.56C54.3799 29.18 53.9898 29.4799 53.2998 29.4799ZM38.6699 39.1098C38.0699 39.1098 37.7695 38.7765 37.7695 38.1098C37.7695 37.5098 38.0599 37.2099 38.6299 37.2099H52.7402C53.5602 37.2099 53.9697 37.64 53.9697 38.5V43.1699C53.9697 45.0699 53.3902 46.03 52.2402 46.03H51.5098V39.03L38.6699 39.1098ZM41.3496 27.58H51.4502V24.06H41.3799V26.6499C41.3799 26.9899 41.3696 27.3 41.3496 27.58V27.58Z" fill="#595857"/>
<path d="M72.2404 22.7702C71.9892 24.7194 71.3602 26.6011 70.3898 28.3102L76.9103 34.2101C77.2249 34.5057 77.435 34.8952 77.51 35.3202C77.5548 35.486 77.5476 35.6615 77.4885 35.8227C77.4294 35.9839 77.3212 36.1227 77.1799 36.2201C77.023 36.3449 76.8392 36.4309 76.6428 36.4709C76.4464 36.5108 76.2431 36.5037 76.05 36.4501C75.6561 36.3286 75.3078 36.0918 75.05 35.7702L69.6203 29.7702C69.532 29.893 69.4545 30.0234 69.3898 30.1601C67.8151 32.772 65.7826 35.0789 63.3898 36.9701C63.2535 37.1207 63.0649 37.2137 62.8625 37.2304C62.6601 37.2471 62.4592 37.1864 62.3 37.0602C61.97 36.8002 62.0099 36.4502 62.4299 36.0602C64.4168 34.0585 66.0769 31.757 67.3498 29.2402C68.3869 27.3746 69.0978 25.3453 69.4504 23.2402C69.4733 23.1083 69.4471 22.9725 69.3771 22.8583C69.3072 22.7442 69.1975 22.6594 69.0695 22.62C68.7454 22.4966 68.4106 22.4029 68.0695 22.34C67.5695 22.26 67.3203 22.02 67.3303 21.61C67.3403 21.2 67.6098 21.0102 68.1398 21.0102H70.3898C70.6715 20.9732 70.9583 20.9938 71.2316 21.0712C71.505 21.1486 71.7592 21.281 71.9797 21.4601C72.1114 21.6486 72.2025 21.8623 72.2473 22.0878C72.292 22.3133 72.2902 22.5457 72.2404 22.7702V22.7702ZM80.7502 20.12C80.7774 19.906 80.7572 19.6886 80.6916 19.4831C80.626 19.2775 80.5166 19.0888 80.3703 18.9301C80.0771 18.6993 79.7351 18.5386 79.3703 18.4601C79.0272 18.3963 78.6919 18.2957 78.3703 18.1601C78.2739 18.1229 78.1913 18.0568 78.134 17.9709C78.0767 17.8849 78.0472 17.7834 78.05 17.6801C78.05 17.2401 78.4 17.0202 79.05 17.0202H81.9601C82.1337 16.9923 82.3111 17.0052 82.4787 17.058C82.6463 17.1109 82.7998 17.2021 82.926 17.3244C83.0522 17.4467 83.1482 17.5967 83.2062 17.7626C83.2643 17.9285 83.2824 18.1059 83.26 18.2802V27.5802H87.5305C88.2305 27.5802 88.59 27.9102 88.59 28.5802C88.59 29.2502 88.2305 29.5802 87.5305 29.5802H83.26V42.8002C83.26 44.6402 82.6103 45.5702 81.3303 45.5702H80.7697L80.7502 20.12Z" fill="#595857"/>
<path d="M91.8398 26.1099C91.1398 26.1099 90.7803 25.7899 90.7803 25.1099C90.7803 24.4299 91.1303 24.1699 91.7803 24.1699H105.26C105.94 24.1699 106.26 24.4799 106.26 25.1099C106.26 25.7399 105.92 26.1099 105.26 26.1099H101.42C99.6869 26.0478 97.9903 26.6204 96.6494 27.72C96.0587 28.1836 95.5814 28.7759 95.2539 29.4517C94.9264 30.1275 94.7576 30.8689 94.7598 31.6199C94.7301 32.1573 94.8235 32.6945 95.0332 33.1902C95.2429 33.6859 95.5633 34.1271 95.9697 34.48C96.7386 35.1361 97.7189 35.4913 98.7295 35.48C99.78 35.5103 100.8 35.1258 101.569 34.4099C101.939 34.0739 102.232 33.6625 102.429 33.2036C102.625 32.7448 102.721 32.2491 102.71 31.75C102.754 30.999 102.519 30.2582 102.05 29.6699C101.571 29.1512 100.964 28.7683 100.29 28.5601C100 28.4601 99.84 28.3299 99.79 28.1699C99.7349 28.0216 99.7349 27.8584 99.79 27.71C99.8257 27.6272 99.8822 27.5551 99.9541 27.5008C100.026 27.4464 100.111 27.4116 100.2 27.3999C100.416 27.3739 100.634 27.3739 100.85 27.3999C101.989 27.519 103.062 27.9991 103.91 28.77C104.339 29.1714 104.675 29.6608 104.896 30.2046C105.116 30.7484 105.216 31.3336 105.189 31.9199C105.187 32.667 105.019 33.4041 104.697 34.0784C104.376 34.7527 103.909 35.3476 103.33 35.8201C102.044 36.9295 100.387 37.5147 98.6895 37.46C97.0133 37.4981 95.385 36.9017 94.1299 35.7901C93.0998 34.8949 92.4401 33.6482 92.2793 32.293C92.1185 30.9378 92.4678 29.5714 93.2598 28.46C93.9541 27.4864 94.8605 26.6828 95.9102 26.1099H91.8398ZM95.1201 20.8399L94.2598 20.1199C94.0894 19.9833 93.9636 19.7986 93.8994 19.5899C93.8812 19.4858 93.8864 19.3791 93.9141 19.2771C93.9417 19.1752 93.9912 19.0806 94.0596 19C94.1406 18.9204 94.2386 18.8593 94.3457 18.8213C94.4528 18.7833 94.5666 18.7693 94.6797 18.7801C94.887 18.7816 95.0931 18.8152 95.29 18.8799C96.2287 19.3749 97.2421 19.7127 98.29 19.8799C99.264 20.0167 100.246 20.0837 101.229 20.0801C101.939 20.0801 102.29 20.39 102.29 21.01C102.296 21.1465 102.265 21.282 102.202 21.4031C102.139 21.5242 102.045 21.6265 101.93 21.7C101.715 21.849 101.462 21.9324 101.2 21.94H98.2002C97.0717 21.9735 95.972 21.5807 95.1201 20.8399V20.8399ZM109.63 20.1199C109.655 19.9059 109.634 19.6892 109.568 19.4839C109.503 19.2787 109.395 19.0897 109.25 18.93C108.94 18.6954 108.581 18.5346 108.2 18.46C107.857 18.3947 107.522 18.2941 107.2 18.1599C107.106 18.1212 107.025 18.0543 106.97 17.9685C106.914 17.8827 106.886 17.782 106.89 17.68C106.89 17.24 107.223 17.02 107.89 17.02H110.81C110.982 16.9939 111.159 17.0082 111.325 17.0618C111.492 17.1154 111.644 17.2068 111.769 17.3289C111.894 17.451 111.988 17.6004 112.046 17.7654C112.103 17.9304 112.122 18.1067 112.1 18.2801V28.3699H116.37C117.08 28.3699 117.43 28.6801 117.43 29.3001C117.43 29.9201 117.08 30.3001 116.37 30.3001H112.1V42.77C112.1 44.61 111.46 45.5401 110.18 45.5401H109.62L109.63 20.1199Z" fill="#595857"/>
<path d="M122.05 23.52C121.34 23.52 120.979 23.2 120.979 22.52C120.979 21.84 121.329 21.5801 121.979 21.5801H132.51C132.701 21.5679 132.893 21.6035 133.067 21.6838C133.242 21.7641 133.394 21.8865 133.51 22.04C133.616 22.1672 133.689 22.3186 133.722 22.481C133.756 22.6433 133.748 22.8113 133.7 22.97C132.999 25.9181 131.533 28.6294 129.45 30.8301C127.216 33.4372 124.554 35.6451 121.58 37.3599C120.92 37.7199 120.459 37.7001 120.189 37.3101C119.919 36.9201 120.049 36.5499 120.559 36.1799C123.087 34.451 125.336 32.3468 127.229 29.9399C128.825 28.0594 129.996 25.8556 130.66 23.48L122.05 23.52ZM139.05 20.1199C139.075 19.9074 139.056 19.6921 138.994 19.4873C138.932 19.2825 138.828 19.0927 138.689 18.9299C138.38 18.6879 138.016 18.5264 137.63 18.46C137.287 18.3921 136.953 18.2916 136.63 18.1599C136.531 18.1244 136.447 18.059 136.387 17.9729C136.328 17.8868 136.298 17.7844 136.3 17.6799C136.3 17.2399 136.633 17.02 137.3 17.02H140.179C141.069 17.02 141.51 17.44 141.51 18.28V42.73C141.51 44.59 140.88 45.53 139.62 45.53H139.019L139.05 20.1199Z" fill="#595857"/>
</svg>
