<svg width="803" height="160" viewBox="0 0 803 160" fill="none" xmlns="http://www.w3.org/2000/svg">
<path d="M7.00002 108.7C5.50002 108.7 4.80002 108 4.80002 106.7C4.80002 105.4 5.50002 104.7 7.00002 104.7H29C29.9 104.7 30.5 105 30.9 105.6C31.3 106.2 31.4 106.8 31.3 107.6C30.4 112.2 27.4 117.1 22.3 122.3C17.2 127.5 11.7 131.7 6.00002 134.7C4.70002 135.4 3.80002 135.3 3.30002 134.4C2.80002 133.5 3.10002 132.7 4.10002 132.1C9.80002 128.4 14.5 124.4 18.1 120.1C21.7 115.8 24 112 25 108.7H7.00002ZM44.8 136.5C46.6 136.5 47.5 137.5 47.5 139.5V149C47.5 151.3 47 152.9 46.1 154H46.2C47.7 154 48.4 154.7 48.4 156C48.4 157.4 47.7 158 46.2 158H23.7C23 159.2 22 159.8 20.8 159.8H19.5V143.8C19.5 142.3 19.4 141.3 19.2 140.7C19 140.2 18.5 139.7 17.5 139.4C16.9 139.2 16.5 139 16.2 138.8C15.9 138.6 15.7 138.2 15.7 137.8C15.7 136.9 16.4 136.4 17.7 136.4H44.8V136.5ZM24.6 153.8H42.3V140.4H24.7V152C24.7 152.7 24.7 153.3 24.6 153.8ZM42.9 133.2V104.5C42.9 103.3 42.6 102.4 42.1 102C41.6 101.6 40.8 101.2 39.9 101C39 100.8 38.3 100.6 37.8 100.4C37.3 100.2 37.1 99.9 37.1 99.4C37.1 98.5 37.8 98 39.3 98H45.4C47.3 98 48.2 98.9 48.2 100.7V127.4C48.2 131.3 46.9 133.3 44.2 133.3H42.9V133.2Z" fill="#595857"/>
<path d="M69 101.1H99.6C101.1 101.1 101.8 101.8 101.8 103.1C101.8 104.4 101.1 105.1 99.6 105.1H76V115.6C76 116.8 76.6 117.4 77.7 117.4H101C102.4 117.4 103.2 118.1 103.2 119.4C103.2 120.7 102.5 121.4 101 121.4H89.2V128.6H111.2C112.7 128.6 113.5 129.3 113.5 130.6C113.5 132 112.7 132.6 111.2 132.6H61.6C60.2 132.6 59.5 131.9 59.5 130.6C59.5 129.3 60.2 128.6 61.6 128.6H84V121.4H74.9C72.1 121.4 70.7 120 70.7 117.2V108.6C70.7 107.1 70.6 106.1 70.4 105.5C70.2 105 69.7 104.5 68.7 104.2C68.1 104 67.7 103.8 67.4 103.6C67.1 103.4 66.9 103 66.9 102.6C67 101.6 67.7 101.1 69 101.1ZM71.8 147.9C71.8 144.9 73.2 142.3 76.1 140C78.9 137.7 82.4 136.6 86.5 136.6C90.6 136.6 94.1 137.7 96.9 140C99.7 142.3 101.2 144.9 101.2 147.9C101.2 150.9 99.8 153.6 96.9 155.9C94.1 158.2 90.6 159.3 86.5 159.3C82.4 159.3 78.9 158.2 76.1 155.9C73.3 153.6 71.8 151 71.8 147.9ZM77.1 147.9C77.1 149.9 78 151.6 79.7 153C81.4 154.4 83.7 155.2 86.5 155.2C89.2 155.2 91.5 154.5 93.2 153C94.9 151.6 95.8 149.8 95.8 147.9C95.8 145.9 94.9 144.2 93.2 142.8C91.5 141.4 89.2 140.7 86.5 140.7C83.7 140.7 81.4 141.4 79.7 142.8C78 144.3 77.1 146 77.1 147.9Z" fill="#595857"/>
<path d="M149.4 112.5H141.2C137.7 112.5 135 113.3 133 114.8C131 116.4 130.1 118.2 130.1 120.3C130.1 122 130.8 123.4 132.2 124.6C133.6 125.7 135.2 126.3 137 126.3C139 126.3 140.7 125.8 142.1 124.8C143.5 123.8 144.1 122.6 144.1 121.1C144.1 120 143.8 119 143.1 118.2C142.4 117.4 141.4 116.9 140.1 116.5C139.4 116.3 139.1 115.9 139.3 115.1C139.5 114.4 140.2 114.1 141.5 114.2C143.7 114.4 145.6 115.2 147.1 116.5C148.6 117.8 149.4 119.4 149.4 121.1C149.4 123.5 148.2 125.6 145.9 127.5C144.3 128.9 142.3 129.7 139.9 130.2V134.6H140.4C143.2 134.6 145.7 134.5 147.7 134.4C149.7 134.3 151.8 134.1 153.9 133.7C155.4 133.4 156.2 133.7 156.4 134.4C156.6 135.1 156.3 135.7 155.5 136.2C154.4 136.8 152.5 137.4 149.8 137.8C147.1 138.3 143.8 138.5 139.9 138.5H121.3C119.9 138.5 119.1 137.8 119.1 136.5C119.1 135.2 119.8 134.5 121.3 134.5H134.7V130.1C132.2 129.8 130.1 128.8 128.3 127.2C125.9 125.2 124.7 122.9 124.7 120.3C124.7 118.7 125.2 117.2 126.1 115.8C127.1 114.4 128.3 113.2 130 112.3H123C121.5 112.3 120.7 111.6 120.7 110.3C120.7 109.1 121.4 108.5 122.9 108.5H149.4C150.8 108.5 151.6 109.1 151.6 110.3C151.6 111.8 150.8 112.5 149.4 112.5ZM130.4 103.5L128.4 101.9C127.9 101.5 127.7 101.1 127.6 100.8C127.5 100.4 127.6 100 127.9 99.6C128.3 99.2 128.7 99 129.1 99C129.5 99 130 99.1 130.5 99.3C132.5 100.3 134.3 101 136 101.3C137.7 101.6 139.6 101.8 141.5 101.8C143 101.8 143.7 102.5 143.7 103.8C143.7 104.4 143.4 104.9 142.9 105.3C142.4 105.6 141.9 105.8 141.4 105.8L136.5 105.7C134.4 105.6 132.3 104.9 130.4 103.5ZM163.9 157.7H140.4C136.1 157.7 133.9 155.8 133.9 152.1V149.3C133.9 148.1 133.7 147.3 133.2 146.9C132.8 146.5 132 146.2 131 145.9C130.1 145.6 129.5 145.4 129.2 145.2C128.9 145 128.8 144.7 128.8 144.2C128.8 143.2 129.5 142.7 130.8 142.7H136.4C138.2 142.7 139.1 143.7 139.1 145.7V152.3C139.1 153.2 139.5 153.6 140.4 153.6H163.8C165.3 153.6 166.1 154.3 166.1 155.6C166.1 156.9 165.4 157.7 163.9 157.7ZM158.9 104.5C158.9 103.3 158.6 102.4 158.1 102C157.6 101.6 156.8 101.2 155.9 101C154.9 100.8 154.2 100.6 153.8 100.4C153.4 100.2 153.1 99.9 153.1 99.4C153.1 98.5 153.8 98 155.3 98H161.4C163.2 98 164.1 98.9 164.1 100.7V120.6H173.1C174.6 120.6 175.3 121.3 175.3 122.6C175.3 124 174.6 124.6 173.1 124.6H164.1V141.4C164.1 145.3 162.7 147.2 160.1 147.2H158.9V104.5Z" fill="#595857"/>
<path d="M10.9 7.5C9.5 7.5 8.7 6.8 8.7 5.5C8.7 4.1 9.4 3.5 10.8 3.5H40.4C42.3 3.5 43.3 4.5 43.3 6.6C43.3 9.9 43.1 13.1 42.6 16.3C42.1 19.5 41.4 22.1 40.5 24.3L40.4 24.6H51.7C53.2 24.6 54 25.3 54 26.6C54 27.9 53.2 28.6 51.7 28.6H29.6V35.1C29.6 37.3 29.2 38.9 28.5 40H40.3C42 40 42.9 40.9 42.9 42.7V55.4C42.9 59.4 41.7 61.4 39.3 61.4H37.8V43.7H10.6C9.3 43.7 8.7 43 8.7 41.7C8.7 40.4 9.3 39.8 10.5 39.8H24.4V28.4H2.1C0.7 28.4 0 27.7 0 26.4C0 25.1 0.7 24.4 2.1 24.4H36.7C36.7 24.1 36.7 23.8 36.7 23.4C37.2 20.7 37.5 18 37.6 15.5C37.8 12.9 37.8 10.2 37.8 7.4H10.9V7.5Z" fill="#595857"/>
<path d="M85.8 6.5C87.6 6.5 88.5 7.5 88.5 9.5V25.4C88.5 27 88.2 28.2 87.7 29.1C89.1 29.1 89.9 29.8 89.9 31C89.9 32.4 89.1 33 87.6 33H67.7C67 34.2 66.1 34.8 64.8 34.8H63.6V13.9C63.6 12.4 63.5 11.4 63.2 10.8C62.9 10.3 62.3 9.8 61.4 9.5C60.9 9.3 60.5 9.1 60.3 8.9C60.1 8.7 60 8.3 60 7.9C60 7 60.5 6.5 61.5 6.5H85.8ZM68.8 29.2H83.4V10.5H68.8V27.3C68.8 28 68.8 28.6 68.8 29.2ZM106.4 59.4H83.2C78.9 59.4 76.8 57.5 76.8 53.8V47C76.8 45.8 76.6 45 76.1 44.6C75.7 44.2 74.9 43.9 73.9 43.6C73 43.3 72.4 43.1 72.1 42.9C71.8 42.7 71.6 42.4 71.6 41.9C71.6 41 72.3 40.5 73.7 40.5H79.3C81.1 40.5 82 41.5 82 43.5V54C82 54.9 82.4 55.3 83.3 55.3H106.4C107.9 55.3 108.7 56 108.7 57.3C108.7 58.7 107.9 59.4 106.4 59.4ZM100.6 6.5C100.6 5.3 100.3 4.4 99.8 4C99.3 3.6 98.5 3.2 97.6 3C96.7 2.8 96 2.6 95.5 2.4C95 2.2 94.8 1.9 94.8 1.4C94.8 0.5 95.5 0 97 0H103.1C105 0 105.9 0.9 105.9 2.7V39.7C105.9 43.7 104.6 45.7 101.9 45.7H100.6V6.5Z" fill="#595857"/>
<path d="M168.9 36.3998H119.3C117.9 36.3998 117.2 35.6998 117.2 34.2998C117.2 32.9998 117.9 32.3998 119.3 32.3998H168.9C170.4 32.3998 171.2 32.9998 171.2 34.2998C171.2 35.6998 170.5 36.3998 168.9 36.3998ZM159.5 59.3998H135.5C131.2 59.3998 129.1 57.4998 129.1 53.7998V49.0998C129.1 47.8998 128.8 47.0998 128.3 46.6998C127.8 46.2998 127.1 45.9998 126.2 45.6998C125.2 45.3998 124.5 45.1998 124.2 44.9998C123.9 44.7998 123.7 44.4998 123.7 43.9998C123.7 43.0998 124.4 42.5998 125.9 42.5998H131.4C133.3 42.5998 134.2 43.5998 134.2 45.5998V53.9998C134.2 54.8998 134.6 55.2998 135.5 55.2998H159.4C160.9 55.2998 161.7 55.9998 161.7 57.2998C161.8 58.6998 161 59.3998 159.5 59.3998ZM128.4 14.7998C128.4 11.2998 129.9 8.2998 132.9 5.8998C135.9 3.4998 139.7 2.2998 144.2 2.2998C148.7 2.2998 152.5 3.4998 155.5 5.8998C158.5 8.2998 160 11.1998 160 14.7998C160 18.0998 158.5 20.8998 155.5 23.1998C152.5 25.4998 148.7 26.6998 144.2 26.6998C139.7 26.6998 135.9 25.4998 132.9 23.1998C129.9 20.9998 128.4 18.1998 128.4 14.7998ZM133.7 14.7998C133.7 17.0998 134.7 18.8998 136.6 20.3998C138.6 21.7998 141.1 22.5998 144.1 22.5998C147.1 22.5998 149.7 21.8998 151.7 20.3998C153.7 18.9998 154.7 17.0998 154.7 14.7998C154.7 12.2998 153.7 10.2998 151.8 8.7998C149.8 7.1998 147.3 6.4998 144.2 6.4998C141.1 6.4998 138.6 7.2998 136.6 8.7998C134.6 10.3998 133.7 12.3998 133.7 14.7998Z" fill="#595857"/>
<path d="M191.8 36.8C188.3 36.8 185.3 35.8 182.9 33.7C180.5 31.6 179.3 29.2 179.3 26.5C179.3 24.5 179.9 22.6 181 20.9C182.1 19.2 183.6 17.8 185.5 16.7H179.2C177.7 16.7 177 16 177 14.7C177 13.4 177.7 12.7 179.2 12.7H203.7C205.2 12.7 205.9 13.4 205.9 14.7C205.9 16.1 205.2 16.7 203.7 16.7H197.3C193.3 16.7 190.2 17.7 187.8 19.7C185.4 21.7 184.3 24 184.5 26.6C184.6 28.3 185.4 29.8 186.8 31C188.2 32.2 189.9 32.8 191.9 32.8C194 32.8 195.8 32.2 197.2 31C198.6 29.8 199.4 28.5 199.4 27.1C199.4 25.7 199.1 24.6 198.2 23.5C197.4 22.5 196.3 21.7 194.9 21.3C194.6 21.2 194.4 21 194.2 20.7C194 20.4 194 20 194.2 19.6C194.3 19.3 194.7 19.1 195.4 19C196.1 19 196.6 19 197 19.1C198.1 19.3 199 19.6 199.9 20.1C200.8 20.6 201.5 21.1 202.2 21.7C203 22.5 203.6 23.4 204 24.4C204.4 25.4 204.5 26.4 204.5 27.3C204.3 29.9 203 32.2 200.6 34C198.2 35.8 195.2 36.8 191.8 36.8ZM184.2 6.9L182.5 5.4C182.1 5 181.8 4.6 181.7 4.3C181.6 3.9 181.7 3.5 182 3.1C182.3 2.8 182.8 2.6 183.3 2.6C183.9 2.6 184.3 2.7 184.6 2.9C186.6 4 188.3 4.6 189.9 4.9C191.5 5.2 193.4 5.3 195.6 5.3C197 5.3 197.8 6 197.8 7.3C197.8 7.9 197.6 8.4 197.1 8.7C196.6 9 196.1 9.2 195.6 9.2L189.4 9.1C187.7 9.1 185.9 8.4 184.2 6.9ZM197.7 50C197.7 46.7 199 44 201.7 41.7C204.4 39.5 207.6 38.3 211.3 38.3C215.1 38.3 218.3 39.4 221 41.7C223.7 44 225.1 46.7 225.1 50C225.1 53.3 223.7 56 221 58.3C218.3 60.6 215 61.7 211.3 61.7C207.6 61.7 204.4 60.6 201.7 58.3C199 56 197.7 53.3 197.7 50ZM203 50C203 52.2 203.8 54 205.5 55.4C207.2 56.8 209.1 57.6 211.4 57.6C213.7 57.6 215.7 56.9 217.4 55.4C219.1 54 219.9 52.2 219.9 50C219.9 47.8 219.1 46.1 217.4 44.6C215.7 43.2 213.7 42.5 211.4 42.5C209.2 42.5 207.2 43.2 205.5 44.6C203.8 46.1 203 47.8 203 50ZM209.8 9.2C209.8 8 209.6 7.1 209.1 6.7C208.7 6.3 207.9 5.9 206.9 5.7C205.9 5.5 205.2 5.3 204.8 5C204.4 4.8 204.2 4.4 204.2 4C204.2 3.2 204.9 2.7 206.3 2.7H212.2C214 2.7 214.9 3.6 214.9 5.4V18.3H222.1V6.5C222.1 5.3 221.9 4.4 221.4 4C220.9 3.6 220.1 3.2 219.1 3C218.1 2.8 217.4 2.6 217 2.4C216.6 2.2 216.4 1.9 216.4 1.4C216.4 0.5 217.1 0 218.6 0H224.5C226.4 0 227.3 0.9 227.3 2.7V31.9C227.3 35.9 225.9 37.9 223.3 37.9H222.2V22.3H215V29.8C215 33.7 213.7 35.6 211 35.6H209.8V9.2V9.2Z" fill="#595857"/>
<path d="M262.3 48.8001C263 48.1001 263.8 47.2001 264.9 46.3001C267.7 43.5001 271.3 39.2001 275.6 33.4001C279.9 27.5001 282.1 22.6001 282.1 18.6001C282.1 15.8001 281.4 13.6001 280 12.1001C278.6 10.6001 276.6 9.8001 273.9 9.8001C272 9.8001 270.3 10.4001 268.9 11.6001C267.5 12.8001 266.6 14.5001 266.4 16.6001H262C262.3 13.2001 263.7 10.6001 266 8.8001C268.3 7.0001 271 6.1001 274 6.1001C278.2 6.1001 281.5 7.3001 283.8 9.6001C286.1 11.9001 287.3 15.0001 287.3 18.9001C287.3 22.4001 285.6 26.7001 282.2 31.9001C278.8 37.0001 274.5 42.4001 269.2 47.9001H278.8C280.8 47.9001 282.4 47.7001 283.6 47.2001C284.7 46.8001 285.6 45.4001 286.1 43.2001C286.2 42.6001 286.6 42.3001 287.4 42.4001C288.2 42.5001 288.6 42.8001 288.6 43.2001L287.9 51.5001H262.3V48.8001Z" fill="#595857"/>
<path d="M307.7 13.5998L306.4 13.9998C305.6 14.2998 305 14.1998 304.6 13.4998C304.2 12.7998 304.4 12.2998 305.1 11.8998L315 6.2998H317.4V51.7998H312.1V16.4998C312.1 15.0998 311.7 14.0998 311 13.4998C310.4 12.9998 309.3 13.0998 307.7 13.5998Z" fill="#595857"/>
<path d="M337.4 29.3002C337.4 21.8002 338.7 16.1002 341.2 12.1002C343.7 8.1002 347.1 6.2002 351.4 6.2002C355.7 6.2002 359.1 8.2002 361.7 12.1002C364.2 16.1002 365.5 21.8002 365.5 29.3002C365.5 36.7002 364.2 42.4002 361.7 46.4002C359.2 50.4002 355.8 52.3002 351.4 52.3002C347.1 52.3002 343.7 50.3002 341.2 46.4002C338.6 42.4002 337.4 36.7002 337.4 29.3002ZM342.9 29.3002C342.9 36.0002 343.7 41.0002 345.3 44.1002C346.9 47.2002 348.9 48.8002 351.3 48.8002C353.7 48.8002 355.7 47.2002 357.4 44.1002C359 40.9002 359.8 36.0002 359.8 29.3002C359.8 22.5002 359 17.6002 357.4 14.4002C355.8 11.2002 353.7 9.7002 351.3 9.7002C348.9 9.7002 346.9 11.3002 345.3 14.4002C343.7 17.5002 342.9 22.5002 342.9 29.3002Z" fill="#595857"/>
<path d="M376.4 26H396.3V30.3H376.4V26Z" fill="#595857"/>
<path d="M408.1 48.8001C408.8 48.1001 409.6 47.2001 410.7 46.3001C413.5 43.5001 417.1 39.2001 421.4 33.4001C425.7 27.5001 427.9 22.6001 427.9 18.6001C427.9 15.8001 427.2 13.6001 425.8 12.1001C424.4 10.6001 422.4 9.8001 419.7 9.8001C417.8 9.8001 416.1 10.4001 414.7 11.6001C413.3 12.8001 412.4 14.5001 412.2 16.6001H408C408.3 13.2001 409.7 10.6001 412 8.8001C414.3 7.0001 417 6.1001 420 6.1001C424.2 6.1001 427.5 7.3001 429.8 9.6001C432.1 11.9001 433.3 15.0001 433.3 18.9001C433.3 22.4001 431.6 26.7001 428.2 31.9001C424.8 37.0001 420.5 42.4001 415.2 47.9001H424.8C426.8 47.9001 428.4 47.7001 429.6 47.2001C430.7 46.8001 431.6 45.4001 432.1 43.2001C432.2 42.6001 432.6 42.3001 433.4 42.4001C434.2 42.5001 434.6 42.8001 434.6 43.2001L433.9 51.5001H408.3V48.8001H408.1Z" fill="#595857"/>
<path d="M453.6 13.5998L452.3 13.9998C451.5 14.2998 450.9 14.1998 450.5 13.4998C450.1 12.7998 450.3 12.2998 451 11.8998L460.9 6.2998H463.3V51.7998H458V16.4998C458 15.0998 457.6 14.0998 456.9 13.4998C456.3 12.9998 455.1 13.0998 453.6 13.5998Z" fill="#595857"/>
<path d="M484.4 26H504.3V30.3H484.4V26Z" fill="#595857"/>
<path d="M515.4 29.3002C515.4 21.8002 516.7 16.1002 519.2 12.1002C521.7 8.1002 525.1 6.2002 529.4 6.2002C533.7 6.2002 537.1 8.2002 539.7 12.1002C542.2 16.1002 543.5 21.8002 543.5 29.3002C543.5 36.7002 542.2 42.4002 539.7 46.4002C537.2 50.4002 533.8 52.3002 529.4 52.3002C525.1 52.3002 521.7 50.3002 519.2 46.4002C516.7 42.4002 515.4 36.7002 515.4 29.3002ZM520.9 29.3002C520.9 36.0002 521.7 41.0002 523.3 44.1002C524.9 47.2002 526.9 48.8002 529.3 48.8002C531.7 48.8002 533.7 47.2002 535.4 44.1002C537 40.9002 537.8 36.0002 537.8 29.3002C537.8 22.5002 537 17.6002 535.4 14.4002C533.8 11.2002 531.7 9.7002 529.3 9.7002C526.9 9.7002 524.9 11.3002 523.3 14.4002C521.7 17.5002 520.9 22.5002 520.9 29.3002Z" fill="#595857"/>
<path d="M572.2 27.9998C574.9 29.0998 577 30.6998 578.3 32.7998C579.6 34.8998 580.2 37.1998 580.1 39.7998C579.9 43.2998 578.5 46.2998 575.8 48.6998C573.1 51.0998 569.2 52.2998 564 52.2998C562.3 52.2998 560.5 52.0998 558.6 51.5998C556.7 51.1998 555.1 50.4998 553.8 49.5998V45.6998C555.4 46.7998 557.1 47.4998 559 47.8998C560.9 48.2998 562.5 48.4998 563.8 48.4998C567 48.4998 569.5 47.6998 571.5 45.9998C573.5 44.2998 574.5 41.8998 574.5 38.6998C574.5 36.3998 574.1 34.7998 573.4 33.7998C572.7 32.7998 571.8 31.9998 570.9 31.2998C569.8 30.6998 568.7 30.2998 567.6 30.0998C566.5 29.9998 565.5 29.8998 564.7 29.8998C563.5 29.8998 563 29.2998 563 28.1998C563 27.0998 563.7 26.4998 565 26.4998C565.4 26.4998 565.9 26.4998 566.5 26.4998C567.1 26.4998 567.7 26.3998 568.3 26.1998C569.9 25.7998 571.2 24.8998 572.3 23.4998C573.4 22.0998 574 20.2998 574.1 17.8998C574.2 15.1998 573.4 13.1998 571.7 11.7998C570 10.3998 568 9.7998 565.5 9.7998C563.6 9.7998 562 10.2998 560.7 11.2998C559.3 12.2998 558.5 13.5998 558.1 15.2998H554.1C554.5 12.5998 555.8 10.3998 558 8.7998C560.2 7.0998 562.9 6.2998 566.1 6.2998C570 6.2998 573.2 7.3998 575.7 9.5998C578.2 11.7998 579.4 14.4998 579.4 17.7998C579.4 20.4998 578.7 22.6998 577.2 24.5998C575.9 26.2998 574.2 27.4998 572.2 27.9998Z" fill="#595857"/>
<path d="M610.1 27.9998C612.8 29.0998 614.9 30.6998 616.2 32.7998C617.5 34.8998 618.1 37.1998 618 39.7998C617.8 43.2998 616.4 46.2998 613.7 48.6998C611 51.0998 607.1 52.2998 601.9 52.2998C600.2 52.2998 598.4 52.0998 596.5 51.5998C594.6 51.1998 593 50.4998 591.7 49.5998V45.6998C593.3 46.7998 595 47.4998 596.9 47.8998C598.8 48.2998 600.4 48.4998 601.7 48.4998C604.9 48.4998 607.4 47.6998 609.4 45.9998C611.4 44.2998 612.4 41.8998 612.4 38.6998C612.4 36.3998 612 34.7998 611.3 33.7998C610.6 32.7998 609.7 31.9998 608.8 31.2998C607.7 30.6998 606.6 30.2998 605.5 30.0998C604.4 29.9998 603.4 29.8998 602.6 29.8998C601.4 29.8998 600.9 29.2998 600.9 28.1998C600.9 27.0998 601.6 26.4998 602.9 26.4998C603.3 26.4998 603.8 26.4998 604.4 26.4998C605 26.4998 605.6 26.3998 606.2 26.1998C607.8 25.7998 609.1 24.8998 610.2 23.4998C611.3 22.0998 611.9 20.2998 612 17.8998C612.1 15.1998 611.3 13.1998 609.6 11.7998C607.9 10.3998 605.9 9.7998 603.4 9.7998C601.5 9.7998 599.9 10.2998 598.6 11.2998C597.2 12.2998 596.4 13.5998 596 15.2998H592C592.4 12.5998 593.7 10.3998 595.9 8.7998C598.1 7.0998 600.8 6.2998 604 6.2998C607.9 6.2998 611.1 7.3998 613.6 9.5998C616.1 11.7998 617.3 14.4998 617.3 17.7998C617.3 20.4998 616.6 22.6998 615.1 24.5998C613.8 26.2998 612.1 27.4998 610.1 27.9998Z" fill="#595857"/>
<path d="M648 27.9998C650.7 29.0998 652.8 30.6998 654.1 32.7998C655.4 34.8998 656 37.1998 655.9 39.7998C655.7 43.2998 654.3 46.2998 651.6 48.6998C648.9 51.0998 645 52.2998 639.8 52.2998C638.1 52.2998 636.3 52.0998 634.4 51.5998C632.5 51.1998 630.9 50.4998 629.6 49.5998V45.6998C631.2 46.7998 632.9 47.4998 634.8 47.8998C636.7 48.2998 638.3 48.4998 639.6 48.4998C642.8 48.4998 645.3 47.6998 647.3 45.9998C649.3 44.2998 650.3 41.8998 650.3 38.6998C650.3 36.3998 649.9 34.7998 649.2 33.7998C648.5 32.7998 647.6 31.9998 646.7 31.2998C645.6 30.6998 644.5 30.2998 643.4 30.0998C642.3 29.9998 641.3 29.8998 640.5 29.8998C639.3 29.8998 638.8 29.2998 638.8 28.1998C638.8 27.0998 639.5 26.4998 640.8 26.4998C641.2 26.4998 641.7 26.4998 642.3 26.4998C642.9 26.4998 643.5 26.3998 644.1 26.1998C645.7 25.7998 647 24.8998 648.1 23.4998C649.2 22.0998 649.8 20.2998 649.9 17.8998C650 15.1998 649.2 13.1998 647.5 11.7998C645.8 10.3998 643.8 9.7998 641.3 9.7998C639.4 9.7998 637.8 10.2998 636.5 11.2998C635.1 12.2998 634.3 13.5998 633.9 15.2998H629.9C630.3 12.5998 631.6 10.3998 633.8 8.7998C636 7.0998 638.7 6.2998 641.9 6.2998C645.8 6.2998 649 7.3998 651.5 9.5998C654 11.7998 655.2 14.4998 655.2 17.7998C655.2 20.4998 654.5 22.6998 653 24.5998C651.7 26.2998 650 27.4998 648 27.9998Z" fill="#595857"/>
<path d="M668.2 26H688.1V30.3H668.2V26Z" fill="#595857"/>
<path d="M707.4 13.5998L706.1 13.9998C705.3 14.2998 704.7 14.1998 704.3 13.4998C703.9 12.7998 704.1 12.2998 704.8 11.8998L714.7 6.2998H717.1V51.7998H711.8V16.4998C711.8 15.0998 711.4 14.0998 710.7 13.4998C710.1 12.9998 709 13.0998 707.4 13.5998Z" fill="#595857"/>
<path d="M737.1 29.3002C737.1 21.8002 738.4 16.1002 740.9 12.1002C743.4 8.1002 746.8 6.2002 751.1 6.2002C755.4 6.2002 758.8 8.2002 761.4 12.1002C763.9 16.1002 765.2 21.8002 765.2 29.3002C765.2 36.7002 763.9 42.4002 761.4 46.4002C758.9 50.4002 755.5 52.3002 751.1 52.3002C746.8 52.3002 743.4 50.3002 740.9 46.4002C738.3 42.4002 737.1 36.7002 737.1 29.3002ZM742.6 29.3002C742.6 36.0002 743.4 41.0002 745 44.1002C746.6 47.2002 748.6 48.8002 751 48.8002C753.4 48.8002 755.4 47.2002 757.1 44.1002C758.7 40.9002 759.5 36.0002 759.5 29.3002C759.5 22.5002 758.7 17.6002 757.1 14.4002C755.5 11.2002 753.4 9.7002 751 9.7002C748.6 9.7002 746.6 11.3002 745 14.4002C743.4 17.5002 742.6 22.5002 742.6 29.3002Z" fill="#595857"/>
<path d="M782.2 26.4999C783.7 25.3999 785.3 24.6999 786.9 24.4999C788.5 24.2999 789.9 24.1999 791.2 24.2999C794.2 24.4999 796.9 25.5999 799.2 27.7999C801.5 29.9999 802.6 33.0999 802.6 36.9999C802.6 41.3999 801.2 44.8999 798.3 47.5999C795.4 50.2999 791.6 51.6999 786.9 51.8999C784.9 51.9999 782.9 51.7999 780.9 51.2999C778.9 50.7999 777.3 50.0999 776 49.2999V45.9999C778.3 47.0999 780.5 47.8999 782.7 48.1999C784.9 48.4999 786.7 48.5999 788.2 48.2999C791 47.6999 793.3 46.3999 795 44.4999C796.7 42.4999 797.5 39.9999 797.5 36.7999C797.5 33.9999 796.8 31.8999 795.3 30.3999C793.8 28.8999 791.9 28.0999 789.6 27.8999C788.1 27.7999 786.7 27.9999 785.4 28.4999C784.1 28.9999 783 29.8999 781.9 31.1999H777L778.3 6.8999H799.6V10.5999H782.9L782.2 26.4999Z" fill="#595857"/>
</svg>
