<svg width="808" height="156" viewBox="0 0 808 156" fill="none" xmlns="http://www.w3.org/2000/svg">
<path d="M21.2 140.2V125.5C21.2 124.3 21 123.5 20.5 123.2C20.1 122.8 19.3 122.5 18.2 122.2C17.5 122 17 121.8 16.7 121.6C16.4 121.4 16.3 121.1 16.3 120.6C16.3 119.7 17 119.2 18.5 119.2H23.7C25.5 119.2 26.4 120.2 26.4 122.1V140.2H51.7C53.2 140.2 54 140.9 54 142.2C54 143.5 53.2 144.2 51.7 144.2H2.1C0.7 144.2 0 143.5 0 142.2C0 140.9 0.7 140.2 2.1 140.2H21.2ZM10.1 101.7H40.3C42.3 101.7 43.2 102.8 43.2 104.9C43.2 107 43.1 109.1 43 111.4C42.9 113.7 42.7 115.9 42.4 118.3C42.2 120.7 41.8 123 41.4 125.2C41 127.4 40.4 129.3 39.8 130.8C39.5 131.4 39.1 131.8 38.6 132C38.1 132.2 37.6 132.3 37 132.1C36.5 132 36.2 131.7 36.1 131.3C36 130.9 36 130.4 36.1 129.9C36.5 128.2 36.7 126.5 36.9 124.6C37.1 122.7 37.2 120.7 37.3 118.5C37.4 116.4 37.5 114.2 37.5 112.1C37.6 109.9 37.6 107.8 37.6 105.7H10.2C8.7 105.7 8 105 8 103.7C8 102.4 8.7 101.7 10.1 101.7Z" fill="#595857"/>
<path d="M81.3 104.2C81 107.1 79.9 110.2 78.2 113.5L90.7 124.8C91.4 125.5 91.9 126.2 92 126.9C92.1 127.6 91.9 128.1 91.5 128.6C91 129.1 90.4 129.4 89.5 129.4C88.6 129.4 87.9 129 87.3 128.3L76.4 116.5C76.1 117.1 75.7 117.6 75.4 118.2C71.9 123.2 67.8 127.2 63.3 130.4C61.9 131.4 60.9 131.5 60.2 130.7C59.5 130 59.7 129.1 60.8 128.2C65.1 124.4 68.5 120.4 71.1 116C73.7 111.6 75.2 107.9 75.6 104.6C75.7 103.9 75.4 103.5 74.8 103.2C74 103 73.3 102.8 72.5 102.7C71.5 102.5 71.1 102 71.1 101.1C71.1 100.2 71.7 99.8 72.8 99.8H77.2C78.9 99.8 80.1 100.2 80.6 100.9C81.1 101.6 81.5 102.8 81.3 104.2ZM106.4 153.4H83.2C78.9 153.4 76.8 151.5 76.8 147.8V141C76.8 139.8 76.6 139 76.1 138.6C75.7 138.2 74.9 137.9 73.9 137.6C73 137.3 72.4 137.1 72.1 136.9C71.8 136.7 71.6 136.4 71.6 135.9C71.6 135 72.3 134.5 73.7 134.5H79.3C81.1 134.5 82 135.5 82 137.5V148C82 148.9 82.4 149.3 83.3 149.3H106.4C107.9 149.3 108.7 150 108.7 151.3C108.7 152.7 107.9 153.4 106.4 153.4ZM100.6 100.5C100.6 99.3 100.3 98.4 99.8 98C99.3 97.6 98.5 97.2 97.6 97C96.7 96.8 96 96.6 95.5 96.4C95 96.2 94.8 95.9 94.8 95.4C94.8 94.5 95.5 94 97 94H103.1C105 94 105.9 94.9 105.9 96.7V133.7C105.9 137.7 104.6 139.7 101.9 139.7H100.6V115.5H88.9C87.4 115.5 86.7 114.8 86.7 113.5C86.7 112.1 87.4 111.5 88.9 111.5H100.6V100.5V100.5Z" fill="#595857"/>
<path d="M147.1 125.3H125C122.3 125.3 121 123.9 121 121.1V107.6C121 106.2 120.9 105.2 120.8 104.6C120.6 104.1 120 103.6 119 103.3C118.5 103.1 118.1 102.9 117.8 102.7C117.5 102.5 117.3 102.1 117.3 101.7C117.3 100.8 117.9 100.3 119 100.3H144.4C145.9 100.3 146.6 101 146.6 102.3C146.6 103.6 145.9 104.3 144.4 104.3H126.2V119.5C126.2 120.7 126.8 121.3 127.9 121.3H147.1C148.5 121.3 149.3 122 149.3 123.3C149.2 124.7 148.5 125.3 147.1 125.3ZM131 137.3C129.7 137.3 129.1 136.6 129.1 135.3C129.1 134 129.7 133.3 130.9 133.3H159.7C161.4 133.3 162.3 134.2 162.3 136V149.1C162.3 153.1 161.1 155.1 158.7 155.1H157.2V137.3H131ZM157.6 100.5C157.6 99.3 157.3 98.4 156.8 98C156.3 97.6 155.5 97.2 154.6 97C153.7 96.8 153 96.6 152.5 96.4C152 96.2 151.8 95.9 151.8 95.4C151.8 94.5 152.5 94 154 94H160.1C162 94 162.9 94.9 162.9 96.7V124.2C162.9 128.1 161.6 130.1 158.9 130.1H157.6V115.1H144.1C142.6 115.1 141.8 114.4 141.8 113.1C141.8 111.8 142.6 111.1 144.1 111.1H157.6V100.5Z" fill="#595857"/>
<path d="M8.1 13.7C6.6 13.7 5.9 13 5.9 11.7C5.9 10.4 6.6 9.7 8.1 9.7H30.3C31.2 9.7 31.9 10 32.4 10.7C32.9 11.3 33 12 32.8 12.7C31.8 18 28.8 23.6 23.8 29.3C18.8 35 13.3 39.5 7.2 43C5.8 43.8 4.8 43.7 4.3 42.9C3.8 42.1 4 41.3 5.1 40.5C10.6 36.7 15.3 32.3 19.2 27.3C23.1 22.3 25.5 17.8 26.4 13.7H8.1V13.7ZM44 6.5C44 5.3 43.7 4.4 43.2 4C42.7 3.6 42 3.3 41 3C40.1 2.8 39.4 2.6 38.9 2.4C38.4 2.2 38.2 1.9 38.2 1.4C38.2 0.5 38.9 0 40.4 0H46.5C48.4 0 49.3 0.9 49.3 2.7V54.2C49.3 58.1 48 60.1 45.3 60.1H44V6.5Z" fill="#595857"/>
<path d="M61.2 18C61.2 14.4 62.7 11.3 65.6 9C68.5 6.5 72 5.3 76 5.3C80 5.3 83.5 6.5 86.4 8.9C88.5 10.7 89.8 12.7 90.4 15.1H101V6.5C101 5.3 100.7 4.4 100.2 4C99.8 3.6 99 3.3 98 3C97.1 2.8 96.4 2.6 95.9 2.4C95.4 2.2 95.2 1.9 95.2 1.4C95.2 0.5 96 0 97.4 0H103.5C105.4 0 106.3 0.9 106.3 2.7V26.6C106.3 30.5 105 32.5 102.3 32.5H101V19.1H90.7C90.5 22.2 89 24.8 86.4 26.9C83.5 29.3 80 30.5 76 30.5C72 30.5 68.5 29.3 65.6 26.9C62.6 24.5 61.2 21.5 61.2 18ZM66.5 18C66.5 20.4 67.4 22.4 69.3 24C71.1 25.6 73.4 26.4 76 26.4C78.6 26.4 80.8 25.6 82.7 24C84.6 22.4 85.5 20.4 85.5 18C85.5 15.6 84.6 13.6 82.7 11.9C80.8 10.3 78.6 9.5 76 9.5C73.3 9.5 71.1 10.3 69.3 11.9C67.4 13.5 66.5 15.5 66.5 18ZM82.9 43.8H100.6V40.2C100.6 39.1 100.5 38.5 100.2 38.1C99.9 37.8 99.5 37.5 98.9 37.4C98.2 37.2 97.8 37 97.4 36.8C97.1 36.6 96.9 36.3 96.9 35.9C96.9 35 97.6 34.6 98.9 34.6H102.9C104.8 34.6 105.7 35.5 105.7 37.3V50.8C105.7 53.1 105.2 54.8 104.2 55.8H104.3C105.8 55.8 106.5 56.5 106.5 57.8C106.5 59.2 105.8 59.8 104.3 59.8H81.8C81.1 61 80.1 61.6 78.9 61.6H77.6V42.3C77.6 41.2 77.5 40.5 77.3 40.1C77.1 39.7 76.7 39.5 76.2 39.3C75.7 39.1 75.2 39 74.8 38.8C74.4 38.6 74.1 38.3 74.1 37.8C74.1 36.9 74.8 36.4 76.1 36.4H80.1C81.8 36.4 82.7 37.3 82.7 39.1V43.8H82.9ZM100.5 47.7H82.9V53.9C82.9 54.6 82.9 55.2 82.8 55.8H100.5V47.7V47.7Z" fill="#595857"/>
<path d="M169.4 36.3998H119.8C118.4 36.3998 117.7 35.6998 117.7 34.2998C117.7 32.9998 118.4 32.3998 119.8 32.3998H169.4C170.9 32.3998 171.7 32.9998 171.7 34.2998C171.7 35.6998 170.9 36.3998 169.4 36.3998ZM160 59.3998H136C131.7 59.3998 129.6 57.4998 129.6 53.7998V49.0998C129.6 47.8998 129.3 47.0998 128.8 46.6998C128.3 46.2998 127.6 45.9998 126.7 45.6998C125.7 45.3998 125 45.1998 124.7 44.9998C124.4 44.7998 124.2 44.4998 124.2 43.9998C124.2 43.0998 124.9 42.5998 126.4 42.5998H131.9C133.8 42.5998 134.7 43.5998 134.7 45.5998V53.9998C134.7 54.8998 135.1 55.2998 136 55.2998H160C161.5 55.2998 162.3 55.9998 162.3 57.2998C162.3 58.6998 161.5 59.3998 160 59.3998ZM128.8 14.7998C128.8 11.2998 130.3 8.2998 133.3 5.8998C136.3 3.4998 140.1 2.2998 144.6 2.2998C149.1 2.2998 152.9 3.4998 155.9 5.8998C158.9 8.2998 160.4 11.1998 160.4 14.7998C160.4 18.0998 158.9 20.8998 155.9 23.1998C152.9 25.4998 149.1 26.6998 144.6 26.6998C140.1 26.6998 136.3 25.4998 133.3 23.1998C130.3 20.9998 128.8 18.1998 128.8 14.7998ZM134.1 14.7998C134.1 17.0998 135.1 18.8998 137 20.3998C139 21.7998 141.5 22.5998 144.5 22.5998C147.5 22.5998 150.1 21.8998 152.1 20.3998C154.1 18.9998 155.1 17.0998 155.1 14.7998C155.1 12.2998 154.1 10.2998 152.2 8.7998C150.2 7.1998 147.7 6.4998 144.6 6.4998C141.5 6.4998 139 7.2998 137 8.7998C135.1 10.3998 134.1 12.3998 134.1 14.7998Z" fill="#595857"/>
<path d="M192.3 36.8C188.8 36.8 185.8 35.8 183.4 33.7C181 31.6 179.8 29.2 179.8 26.5C179.8 24.5 180.4 22.6 181.5 20.9C182.6 19.2 184.1 17.8 186 16.7H179.7C178.2 16.7 177.5 16 177.5 14.7C177.5 13.4 178.2 12.7 179.7 12.7H204C205.5 12.7 206.2 13.4 206.2 14.7C206.2 16.1 205.5 16.7 204 16.7H197.6C193.6 16.7 190.5 17.7 188.1 19.7C185.7 21.7 184.6 24 184.8 26.6C184.9 28.3 185.7 29.8 187.1 31C188.5 32.2 190.2 32.8 192.2 32.8C194.3 32.8 196.1 32.2 197.5 31C198.9 29.8 199.7 28.5 199.7 27.1C199.7 25.7 199.4 24.6 198.5 23.5C197.7 22.5 196.6 21.7 195.2 21.3C194.9 21.2 194.7 21 194.5 20.7C194.3 20.4 194.3 20 194.5 19.6C194.6 19.3 195 19.1 195.7 19C196.4 19 196.9 19 197.3 19.1C198.4 19.3 199.3 19.6 200.2 20.1C201.1 20.6 201.8 21.1 202.5 21.7C203.3 22.5 203.9 23.4 204.3 24.4C204.7 25.4 204.8 26.4 204.8 27.3C204.6 29.9 203.3 32.2 200.9 34C198.5 35.8 195.6 36.8 192.3 36.8ZM184.7 6.9L183 5.5C182.6 5.1 182.3 4.7 182.2 4.4C182.1 4 182.2 3.6 182.5 3.2C182.8 2.9 183.3 2.7 183.8 2.7C184.4 2.7 184.8 2.8 185.1 3C187.1 4.1 188.8 4.7 190.4 5C192 5.3 193.9 5.4 196.1 5.4C197.5 5.4 198.3 6.1 198.3 7.4C198.3 8 198.1 8.5 197.6 8.8C197.1 9.1 196.6 9.3 196.1 9.3L189.9 9.2C188.1 9.1 186.4 8.4 184.7 6.9ZM198.1 50C198.1 46.7 199.4 44 202.1 41.7C204.8 39.5 208 38.3 211.7 38.3C215.5 38.3 218.7 39.4 221.4 41.7C224.1 44 225.5 46.7 225.5 50C225.5 53.3 224.1 56 221.4 58.3C218.7 60.6 215.4 61.7 211.7 61.7C208 61.7 204.8 60.6 202.1 58.3C199.5 56 198.1 53.3 198.1 50ZM203.4 50C203.4 52.2 204.2 54 205.9 55.4C207.6 56.8 209.5 57.6 211.8 57.6C214.1 57.6 216.1 56.9 217.8 55.4C219.5 54 220.3 52.2 220.3 50C220.3 47.8 219.5 46.1 217.8 44.6C216.1 43.2 214.1 42.5 211.8 42.5C209.6 42.5 207.6 43.2 205.9 44.6C204.3 46.1 203.4 47.8 203.4 50ZM210.2 9.2C210.2 8 210 7.1 209.5 6.7C209.1 6.3 208.3 5.9 207.3 5.7C206.3 5.5 205.6 5.3 205.2 5C204.8 4.8 204.6 4.4 204.6 4C204.6 3.2 205.3 2.7 206.7 2.7H212.6C214.4 2.7 215.3 3.6 215.3 5.4V18.3H222.5V6.5C222.5 5.3 222.3 4.4 221.8 4C221.3 3.6 220.5 3.2 219.5 3C218.5 2.8 217.8 2.6 217.4 2.4C217 2.2 216.8 1.9 216.8 1.4C216.8 0.5 217.5 0 219 0H224.9C226.8 0 227.7 0.9 227.7 2.7V31.9C227.7 35.9 226.3 37.9 223.7 37.9H222.6V22.3H215.4V29.8C215.4 33.7 214.1 35.6 211.4 35.6H210.2V9.2V9.2Z" fill="#595857"/>
<path d="M280.9 27.9998C283.6 29.0998 285.7 30.6998 287 32.7998C288.3 34.8998 288.9 37.1998 288.8 39.7998C288.6 43.2998 287.2 46.2998 284.5 48.6998C281.8 51.0998 277.9 52.2998 272.7 52.2998C271 52.2998 269.2 52.0998 267.3 51.5998C265.4 51.1998 263.8 50.4998 262.5 49.5998V45.6998C264.1 46.7998 265.8 47.4998 267.7 47.8998C269.6 48.2998 271.2 48.4998 272.5 48.4998C275.7 48.4998 278.2 47.6998 280.2 45.9998C282.2 44.2998 283.2 41.8998 283.2 38.6998C283.2 36.3998 282.8 34.7998 282.1 33.7998C281.4 32.7998 280.5 31.9998 279.6 31.2998C278.5 30.6998 277.4 30.2998 276.3 30.0998C275.2 29.9998 274.2 29.8998 273.4 29.8998C272.2 29.8998 271.7 29.2998 271.7 28.1998C271.7 27.0998 272.4 26.4998 273.7 26.4998C274.1 26.4998 274.6 26.4998 275.2 26.4998C275.8 26.4998 276.4 26.3998 277 26.1998C278.6 25.7998 279.9 24.8998 281 23.4998C282.1 22.0998 282.7 20.2998 282.8 17.8998C282.9 15.1998 282.1 13.1998 280.4 11.7998C278.7 10.3998 276.7 9.7998 274.2 9.7998C272.3 9.7998 270.7 10.2998 269.4 11.2998C268 12.2998 267.2 13.5998 266.8 15.2998H262.8C263.2 12.5998 264.5 10.3998 266.7 8.7998C268.9 7.0998 271.6 6.2998 274.8 6.2998C278.7 6.2998 281.9 7.3998 284.4 9.5998C286.9 11.7998 288.1 14.4998 288.1 17.7998C288.1 20.4998 287.4 22.6998 285.9 24.5998C284.6 26.2998 282.9 27.4998 280.9 27.9998Z" fill="#595857"/>
<path d="M296.8 17.7002C296.8 14.1002 298 11.2002 300.3 9.2002C302.6 7.2002 305.7 6.2002 309.6 6.2002C313.5 6.2002 316.6 7.3002 318.9 9.4002C321.2 11.5002 322.4 14.4002 322.4 18.0002C322.4 21.4002 321.2 24.1002 318.9 26.0002C318 26.8002 316.9 27.4002 315.8 27.9002C317.2 28.5002 318.5 29.3002 319.7 30.4002C322.2 32.8002 323.5 35.8002 323.5 39.4002C323.5 43.6002 322.2 46.8002 319.6 49.0002C317 51.2002 313.7 52.3002 309.6 52.3002C305.5 52.3002 302.2 51.2002 299.6 49.0002C297 46.8002 295.8 43.6002 295.8 39.4002C295.8 35.8002 297.1 32.8002 299.6 30.4002C300.8 29.3002 302.1 28.5002 303.5 27.9002C302.4 27.4002 301.3 26.7002 300.4 25.9002C298 23.8002 296.8 21.1002 296.8 17.7002ZM301.1 39.4002C301.1 42.5002 301.9 44.8002 303.5 46.5002C305.1 48.1002 307.2 48.9002 309.6 48.9002C312.1 48.9002 314.1 48.1002 315.7 46.5002C317.3 44.9002 318.1 42.5002 318.1 39.4002C318.1 36.4002 317.3 34.0002 315.7 32.3002C314.1 30.6002 312 29.7002 309.6 29.7002C307.2 29.7002 305.2 30.6002 303.5 32.3002C301.9 34.0002 301.1 36.4002 301.1 39.4002ZM302 17.7002C302 20.4002 302.7 22.5002 304.2 24.0002C305.6 25.5002 307.4 26.3002 309.6 26.3002C311.7 26.3002 313.5 25.6002 315 24.2002C316.5 22.8002 317.2 20.7002 317.2 18.0002C317.2 15.3002 316.5 13.3002 315 11.8002C313.5 10.3002 311.7 9.6002 309.6 9.6002C307.5 9.6002 305.7 10.3002 304.2 11.7002C302.8 13.0002 302 15.0002 302 17.7002Z" fill="#595857"/>
<path d="M337.5 13.5998L336.2 13.9998C335.4 14.2998 334.8 14.1998 334.4 13.4998C334 12.7998 334.2 12.2998 334.9 11.8998L344.8 6.2998H347.2V51.7998H342V16.4998C342 15.0998 341.6 14.0998 340.9 13.4998C340.2 12.9998 339 13.0998 337.5 13.5998Z" fill="#595857"/>
<path d="M364 26H383.9V30.3H364V26Z" fill="#595857"/>
<path d="M399 13.5998L397.7 13.9998C396.9 14.2998 396.3 14.1998 395.9 13.4998C395.5 12.7998 395.7 12.2998 396.4 11.8998L406.3 6.2998H408.7V51.7998H403.4V16.4998C403.4 15.0998 403 14.0998 402.3 13.4998C401.7 12.9998 400.5 13.0998 399 13.5998Z" fill="#595857"/>
<path d="M429.8 13.5998L428.5 13.9998C427.7 14.2998 427.1 14.1998 426.7 13.4998C426.3 12.7998 426.5 12.2998 427.2 11.8998L437.1 6.2998H439.5V51.7998H434.2V16.4998C434.2 15.0998 433.8 14.0998 433.1 13.4998C432.5 12.9998 431.4 13.0998 429.8 13.5998Z" fill="#595857"/>
<path d="M476.9 10.7002H462.9C461.8 10.7002 460.9 11.0002 460 11.7002C459.2 12.4002 458.6 13.6002 458.3 15.5002C458.2 16.3002 457.7 16.7002 456.9 16.7002C456.1 16.7002 455.7 16.3002 455.7 15.5002L455.9 7.2002H482.7V9.7002L467.3 51.9002H462.1L476.9 10.7002Z" fill="#595857"/>
<path d="M506.3 38.9001H488V35.3001L505.9 6.1001H511.3V35.3001H517.4V38.9001H511.3V51.5001H506.3V38.9001V38.9001ZM492.8 35.3001H506.3V13.1001L492.8 35.3001Z" fill="#595857"/>
<path d="M529.6 26.4999C531.1 25.3999 532.7 24.6999 534.3 24.4999C535.9 24.2999 537.3 24.1999 538.6 24.2999C541.6 24.4999 544.3 25.5999 546.6 27.7999C548.9 29.9999 550 33.0999 550 36.9999C550 41.3999 548.6 44.8999 545.7 47.5999C542.8 50.2999 539 51.6999 534.3 51.8999C532.3 51.9999 530.3 51.7999 528.3 51.2999C526.3 50.7999 524.7 50.0999 523.4 49.2999V45.9999C525.7 47.0999 527.9 47.8999 530.1 48.1999C532.3 48.4999 534.1 48.5999 535.6 48.2999C538.4 47.6999 540.7 46.3999 542.4 44.4999C544.1 42.4999 544.9 39.9999 544.9 36.7999C544.9 33.9999 544.2 31.8999 542.7 30.3999C541.2 28.8999 539.3 28.0999 537 27.8999C535.5 27.7999 534.1 27.9999 532.8 28.4999C531.5 28.9999 530.4 29.8999 529.3 31.1999H524.4L525.7 6.8999H547V10.5999H530.3L529.6 26.4999Z" fill="#595857"/>
<path d="M564.2 13.5998L562.9 13.9998C562.1 14.2998 561.5 14.1998 561.1 13.4998C560.7 12.7998 560.9 12.2998 561.6 11.8998L571.5 6.2998H573.9V51.7998H568.6V16.4998C568.6 15.0998 568.2 14.0998 567.5 13.4998C566.9 12.9998 565.8 13.0998 564.2 13.5998Z" fill="#595857"/>
<path d="M590.8 26H610.7V30.3H590.8V26Z" fill="#595857"/>
<path d="M617.5 29.3002C617.5 21.8002 618.8 16.1002 621.3 12.1002C623.8 8.1002 627.2 6.2002 631.5 6.2002C635.8 6.2002 639.2 8.2002 641.8 12.1002C644.3 16.1002 645.6 21.8002 645.6 29.3002C645.6 36.7002 644.3 42.4002 641.8 46.4002C639.3 50.4002 635.9 52.3002 631.5 52.3002C627.2 52.3002 623.8 50.3002 621.3 46.4002C618.7 42.4002 617.5 36.7002 617.5 29.3002ZM623 29.3002C623 36.0002 623.8 41.0002 625.4 44.1002C627 47.2002 629 48.8002 631.4 48.8002C633.8 48.8002 635.8 47.2002 637.5 44.1002C639.1 40.9002 639.9 36.0002 639.9 29.3002C639.9 22.5002 639.1 17.6002 637.5 14.4002C635.9 11.2002 633.8 9.7002 631.4 9.7002C629 9.7002 627 11.3002 625.4 14.4002C623.8 17.5002 623 22.5002 623 29.3002Z" fill="#595857"/>
<path d="M659.3 13.5998L658 13.9998C657.2 14.2998 656.6 14.1998 656.2 13.4998C655.8 12.7998 656 12.2998 656.7 11.8998L666.6 6.2998H669V51.7998H663.7V16.4998C663.7 15.0998 663.3 14.0998 662.6 13.4998C662.1 12.9998 660.9 13.0998 659.3 13.5998Z" fill="#595857"/>
<path d="M685.9 26H705.8V30.3H685.9V26Z" fill="#595857"/>
<path d="M712.6 29.3002C712.6 21.8002 713.9 16.1002 716.4 12.1002C718.9 8.1002 722.3 6.2002 726.6 6.2002C730.9 6.2002 734.3 8.2002 736.9 12.1002C739.4 16.1002 740.7 21.8002 740.7 29.3002C740.7 36.7002 739.4 42.4002 736.9 46.4002C734.4 50.4002 731 52.3002 726.6 52.3002C722.3 52.3002 718.9 50.3002 716.4 46.4002C713.8 42.4002 712.6 36.7002 712.6 29.3002ZM718.1 29.3002C718.1 36.0002 718.9 41.0002 720.5 44.1002C722.1 47.2002 724.1 48.8002 726.5 48.8002C728.9 48.8002 730.9 47.2002 732.6 44.1002C734.2 40.9002 735 36.0002 735 29.3002C735 22.5002 734.2 17.6002 732.6 14.4002C731 11.2002 728.9 9.7002 726.5 9.7002C724.1 9.7002 722.1 11.3002 720.5 14.4002C718.9 17.5002 718.1 22.5002 718.1 29.3002Z" fill="#595857"/>
<path d="M754.4 13.5998L753.1 13.9998C752.3 14.2998 751.7 14.1998 751.3 13.4998C750.9 12.7998 751.1 12.2998 751.8 11.8998L761.7 6.2998H764.1V51.7998H759V16.4998C759 15.0998 758.6 14.0998 757.9 13.4998C757.2 12.9998 756 13.0998 754.4 13.5998Z" fill="#595857"/>
<path d="M781 17.7002C781 14.1002 782.2 11.2002 784.5 9.2002C786.8 7.2002 789.9 6.2002 793.8 6.2002C797.7 6.2002 800.8 7.3002 803.1 9.4002C805.4 11.5002 806.6 14.4002 806.6 18.0002C806.6 21.4002 805.4 24.1002 803.1 26.0002C802.2 26.8002 801.1 27.4002 800 27.9002C801.4 28.5002 802.7 29.3002 803.9 30.4002C806.4 32.8002 807.7 35.8002 807.7 39.4002C807.7 43.6002 806.4 46.8002 803.8 49.0002C801.2 51.2002 797.9 52.3002 793.8 52.3002C789.7 52.3002 786.4 51.2002 783.8 49.0002C781.2 46.8002 780 43.6002 780 39.4002C780 35.8002 781.3 32.8002 783.8 30.4002C785 29.3002 786.3 28.5002 787.7 27.9002C786.6 27.4002 785.5 26.7002 784.6 25.9002C782.2 23.8002 781 21.1002 781 17.7002ZM785.2 39.4002C785.2 42.5002 786 44.8002 787.6 46.5002C789.2 48.1002 791.3 48.9002 793.7 48.9002C796.2 48.9002 798.2 48.1002 799.8 46.5002C801.4 44.9002 802.2 42.5002 802.2 39.4002C802.2 36.4002 801.4 34.0002 799.8 32.3002C798.2 30.6002 796.1 29.7002 793.7 29.7002C791.3 29.7002 789.3 30.6002 787.6 32.3002C786.1 34.0002 785.2 36.4002 785.2 39.4002ZM786.2 17.7002C786.2 20.4002 786.9 22.5002 788.4 24.0002C789.8 25.5002 791.6 26.3002 793.8 26.3002C795.9 26.3002 797.7 25.6002 799.2 24.2002C800.7 22.8002 801.4 20.7002 801.4 18.0002C801.4 15.3002 800.7 13.3002 799.2 11.8002C797.7 10.3002 795.9 9.6002 793.8 9.6002C791.7 9.6002 789.9 10.3002 788.4 11.7002C786.9 13.0002 786.2 15.0002 786.2 17.7002Z" fill="#595857"/>
</svg>
