<svg width="308" height="37" viewBox="0 0 308 37" fill="none" xmlns="http://www.w3.org/2000/svg">
<path d="M2.48402 8.07997C1.61402 8.07997 1.17397 7.69003 1.17397 6.89003C1.17397 6.09003 1.59398 5.73012 2.44398 5.73012H15.2638C15.4999 5.70816 15.7375 5.74834 15.9533 5.84657C16.169 5.9448 16.3554 6.09773 16.4938 6.29018C16.7358 6.62528 16.8397 7.04053 16.7838 7.45009C16.0808 11.559 14.3353 15.4187 11.714 18.66C9.08256 22.0528 5.74538 24.8337 1.93373 26.8102C1.08706 27.2302 0.497045 27.2001 0.163711 26.7201C-0.166289 26.2301 0.00371116 25.78 0.663711 25.35C3.88966 23.3414 6.68962 20.7184 8.90395 17.63L9.64369 16.4801H2.26381C1.38381 16.4801 0.943985 16.0802 0.943985 15.2802C0.943985 14.5402 1.374 14.16 2.214 14.16H11.004C11.9849 12.2506 12.6598 10.1989 13.004 8.07997H2.48402ZM22.8336 3.87001C22.8678 3.60552 22.8436 3.33692 22.7623 3.0829C22.6811 2.82888 22.5452 2.59566 22.3639 2.40004C21.9881 2.10356 21.545 1.90426 21.0739 1.81996C20.6445 1.73964 20.2253 1.61232 19.8239 1.44008C19.7056 1.39444 19.6047 1.31315 19.5348 1.20741C19.4649 1.10168 19.4294 0.976664 19.4337 0.849991C19.4337 0.299991 19.8538 0.0301666 20.7038 0.0301666H24.3136C24.5277 -0.00249323 24.7466 0.014978 24.9528 0.081192C25.159 0.147406 25.347 0.260557 25.5021 0.411758C25.6572 0.56296 25.7754 0.748052 25.8468 0.95253C25.9182 1.15701 25.9409 1.37511 25.9137 1.58998V13.12H31.2038C32.0838 13.12 32.5236 13.5202 32.5236 14.3102C32.5236 15.1002 32.0838 15.5101 31.2038 15.5101H25.9137V31.88C25.9137 34.17 25.1238 35.3102 23.5338 35.3102H22.8336V3.87001Z" fill="#595857"/>
<path d="M36.5836 8.07997C35.7036 8.07997 35.2638 7.69003 35.2638 6.89003C35.2638 6.09003 35.6935 5.73012 36.5435 5.73012H49.3839C49.6197 5.71015 49.8565 5.75119 50.0719 5.84926C50.2873 5.94733 50.4741 6.09919 50.6138 6.29018C50.8513 6.6274 50.9547 7.04082 50.9039 7.45009C50.1966 11.5577 48.4511 15.4164 45.8336 18.66C43.2009 22.0555 39.86 24.8368 36.0435 26.8102C35.2035 27.2302 34.6138 27.2001 34.2838 26.7201C33.9538 26.2401 34.1235 25.78 34.7735 25.35C38.0043 23.3441 40.8078 20.7207 43.0235 17.63L43.7638 16.4801H36.3736C35.5036 16.4801 35.0636 16.0802 35.0636 15.2802C35.0636 14.4802 35.4836 14.16 36.3336 14.16H45.1138C46.0947 12.2506 46.7696 10.1989 47.1138 8.07997H36.5836ZM56.9337 3.87001C56.9651 3.60562 56.9396 3.33772 56.8585 3.08412C56.7774 2.83052 56.6429 2.59715 56.4639 2.40004C56.0834 2.10521 55.6372 1.9062 55.1637 1.81996C54.7347 1.73804 54.3156 1.61077 53.9137 1.44008C53.7954 1.39444 53.6945 1.31315 53.6246 1.20741C53.5547 1.10168 53.5192 0.976664 53.5235 0.849991C53.5235 0.299991 53.9538 0.0301666 54.8038 0.0301666H58.4137C58.6278 -0.00249323 58.8466 0.014978 59.0528 0.081192C59.259 0.147406 59.4471 0.260557 59.6021 0.411758C59.7572 0.56296 59.875 0.748052 59.9464 0.95253C60.0178 1.15701 60.041 1.37511 60.0138 1.58998V13.12H65.2638C66.1338 13.12 66.5738 13.5202 66.5738 14.3102C66.5738 15.1002 66.1338 15.5101 65.2638 15.5101H59.9737V31.88C59.9737 34.17 59.1738 35.3102 57.5938 35.3102H56.8936L56.9337 3.87001Z" fill="#595857"/>
<path d="M74.0835 11.9302C74.097 10.8073 74.3618 9.7017 74.8584 8.69458C75.355 7.68746 76.0711 6.80438 76.9536 6.11011C78.9107 4.49326 81.3701 3.60889 83.9087 3.60889C86.4473 3.60889 88.9067 4.49326 90.8638 6.11011C91.7505 6.79807 92.4678 7.67988 92.9614 8.68774C93.4551 9.69561 93.7119 10.803 93.7119 11.9253C93.7119 13.0476 93.4551 14.155 92.9614 15.1628C92.4678 16.1707 91.7505 17.0523 90.8638 17.7402C89.3267 19.0703 87.4302 19.9157 85.4136 20.1702V27.1702H98.4136C99.3136 27.1702 99.7637 27.5601 99.7637 28.3301C99.7637 29.1001 99.3136 29.4802 98.4136 29.4802H69.2637C68.4437 29.4802 68.0337 29.1001 68.0337 28.3301C68.0337 27.5601 68.4437 27.1702 69.2637 27.1702H82.3535V20.1702C80.3564 19.9481 78.4772 19.1134 76.9736 17.7803C76.0802 17.0878 75.3556 16.2014 74.855 15.188C74.3543 14.1746 74.0905 13.0605 74.0835 11.9302V11.9302ZM77.2036 11.9302C77.1994 12.7342 77.3773 13.5288 77.7236 14.2544C78.07 14.98 78.5758 15.6178 79.2036 16.1201C80.5156 17.2439 82.1861 17.8616 83.9136 17.8616C85.6411 17.8616 87.3116 17.2439 88.6235 16.1201C89.2558 15.6233 89.7672 14.9893 90.1187 14.2661C90.4701 13.5429 90.6528 12.7492 90.6528 11.9451C90.6528 11.141 90.4701 10.3475 90.1187 9.62427C89.7672 8.90104 89.2558 8.26713 88.6235 7.77026C87.3116 6.64644 85.6411 6.02856 83.9136 6.02856C82.1861 6.02856 80.5156 6.64644 79.2036 7.77026C78.5781 8.26796 78.0734 8.90069 77.7271 9.62109C77.3807 10.3415 77.2017 11.1308 77.2036 11.9302V11.9302Z" fill="#595857"/>
<path d="M102.924 23.5999C102.084 23.5999 101.654 23.2199 101.654 22.4399C101.654 21.6599 102.094 21.29 102.974 21.29H105.514V12.78C105.554 12.3823 105.474 11.9816 105.284 11.6299C105.035 11.3759 104.714 11.2048 104.364 11.1399C104.116 11.0873 103.879 10.9926 103.664 10.8599C103.584 10.8038 103.521 10.7286 103.479 10.6411C103.437 10.5536 103.418 10.4567 103.424 10.3599C103.424 9.95986 103.774 9.76001 104.484 9.76001H106.864C107.864 9.76001 108.424 10.3099 108.424 11.3999V21.29H112.114V7.8999H102.974C102.094 7.8999 101.654 7.49995 101.654 6.69995C101.654 5.92995 102.084 5.55005 102.924 5.55005H117.124C118.004 5.55005 118.434 5.92995 118.434 6.69995C118.434 7.46995 118.004 7.8999 117.124 7.8999H115.124V21.29H117.384C118.224 21.29 118.654 21.6699 118.654 22.4399C118.654 23.2099 118.224 23.5999 117.384 23.5999H102.924ZM119.504 1.59985H122.914C123.136 1.56812 123.364 1.58872 123.577 1.65991C123.791 1.73111 123.984 1.85115 124.144 2.01025C124.303 2.16936 124.422 2.36321 124.494 2.57666C124.565 2.79011 124.585 3.01723 124.554 3.23999V29.54C124.554 31.88 123.754 33.04 122.174 33.04H121.514V15.22H118.194C117.314 15.22 116.874 14.8399 116.874 14.0999C116.874 13.3599 117.314 12.8999 118.194 12.8999H121.514V5.40991C121.574 4.88829 121.427 4.36393 121.104 3.94995C120.722 3.6465 120.272 3.44046 119.793 3.34985C119.372 3.28308 118.964 3.15163 118.583 2.95996C118.473 2.90257 118.381 2.81446 118.319 2.7063C118.257 2.59814 118.228 2.47439 118.234 2.34985C118.264 1.87985 118.654 1.62988 119.504 1.62988V1.59985ZM127.994 3.80005C128.025 3.53867 128.004 3.27347 127.93 3.02075C127.856 2.76803 127.731 2.53285 127.563 2.32983C127.168 2.01563 126.695 1.81528 126.194 1.75C125.77 1.6969 125.355 1.58228 124.964 1.40991C124.849 1.36107 124.752 1.27832 124.686 1.17285C124.62 1.06739 124.588 0.944173 124.594 0.819824C124.594 0.269824 125.034 0 125.904 0H129.354C130.474 0 131.034 0.520059 131.034 1.56006V31.8499C131.034 34.1599 130.244 35.3198 128.654 35.3198H127.994V3.80005Z" fill="#595857"/>
<path d="M135.263 14.3896C135.234 13.2624 135.449 12.1421 135.894 11.1062C136.34 10.0703 137.005 9.14342 137.844 8.38965C139.563 6.80968 141.829 5.95998 144.163 6.01978C146.516 5.95796 148.802 6.80689 150.543 8.38965C151.368 9.15619 152.027 10.0848 152.477 11.1172C152.927 12.1496 153.159 13.2635 153.159 14.3896C153.159 15.5158 152.927 16.63 152.477 17.6624C152.027 18.6947 151.368 19.6231 150.543 20.3896C148.802 21.9724 146.516 22.8216 144.163 22.7598C141.829 22.8196 139.563 21.9696 137.844 20.3896C137.003 19.6376 136.336 18.7111 135.89 17.6748C135.445 16.6385 135.231 15.5173 135.263 14.3896V14.3896ZM138.333 14.3896C138.306 15.1815 138.441 15.9705 138.73 16.7083C139.019 17.446 139.456 18.117 140.013 18.6797C141.131 19.7522 142.619 20.3511 144.168 20.3511C145.717 20.3511 147.206 19.7522 148.324 18.6797C149.164 17.8465 149.739 16.7835 149.976 15.6243C150.214 14.4651 150.104 13.2614 149.659 12.1648C149.214 11.0682 148.455 10.1276 147.477 9.46118C146.5 8.7948 145.347 8.43247 144.163 8.41968C143.395 8.40191 142.632 8.5399 141.919 8.8252C141.206 9.11049 140.557 9.53709 140.013 10.0796C139.44 10.638 138.988 11.3094 138.687 12.0513C138.386 12.7931 138.241 13.5893 138.263 14.3896H138.333ZM158.893 3.86963C158.925 3.60677 158.902 3.3403 158.824 3.08716C158.747 2.83401 158.617 2.59981 158.444 2.39966C158.065 2.09599 157.613 1.89604 157.134 1.81958C156.709 1.7319 156.294 1.60479 155.893 1.4397C155.772 1.3961 155.668 1.31593 155.595 1.21021C155.521 1.10448 155.482 0.978349 155.484 0.849609C155.484 0.299609 155.913 0.0297852 156.763 0.0297852H160.263C161.353 0.0297852 161.904 0.5496 161.904 1.5896V31.8796C161.904 34.1896 161.123 35.3496 159.563 35.3496H158.824L158.893 3.86963Z" fill="#595857"/>
<path d="M209.934 20.6497H180.804C179.984 20.6497 179.574 20.2597 179.574 19.4597C179.574 18.6597 179.984 18.2998 180.804 18.2998H194.344V16.9197C194.406 16.429 194.273 15.9337 193.974 15.5398C193.561 15.2454 193.085 15.0534 192.583 14.9797C192.278 14.9276 191.986 14.8153 191.724 14.6497C191.636 14.5779 191.567 14.4855 191.523 14.3809C191.48 14.2762 191.463 14.1627 191.474 14.0498C191.474 13.5098 191.894 13.2297 192.744 13.2297H195.824C196.894 13.2297 197.424 13.7897 197.424 14.9097V18.2998H209.934C210.844 18.2998 211.293 18.6897 211.293 19.4597C211.293 20.2297 210.844 20.6497 209.934 20.6497ZM197.874 3.8296C197.583 5.0122 197.022 6.1113 196.234 7.0398L206.034 11.6597C206.26 11.7695 206.461 11.9248 206.624 12.1157C206.787 12.3067 206.91 12.5294 206.984 12.7698C207.042 12.9522 207.057 13.1455 207.028 13.3347C206.998 13.524 206.925 13.7037 206.813 13.8596C206.557 14.1568 206.202 14.352 205.813 14.4097C205.251 14.4709 204.687 14.3173 204.234 13.9797L194.833 8.56959C194.471 8.97789 194.073 9.35286 193.644 9.68971C190.994 11.8418 188.017 13.5537 184.824 14.7598C184.054 15.0298 183.514 14.9796 183.204 14.5896C182.894 14.1996 183.044 13.8498 183.674 13.5298C186.167 12.3517 188.464 10.7967 190.484 8.91969C192.015 7.63635 193.236 6.02261 194.054 4.19972C194.092 4.12963 194.115 4.05232 194.122 3.97266C194.129 3.89301 194.118 3.81276 194.092 3.73731C194.065 3.66187 194.024 3.59284 193.969 3.53468C193.914 3.47651 193.847 3.43049 193.773 3.39967C193.365 3.21581 192.935 3.08486 192.494 3.00977C191.844 2.88977 191.544 2.55977 191.594 2.00977C191.644 1.45977 192.064 1.22974 192.824 1.22974H195.694C196.059 1.17611 196.431 1.21995 196.774 1.35694C197.116 1.49394 197.416 1.71924 197.644 2.00977C197.8 2.28284 197.901 2.58432 197.941 2.89674C197.98 3.20915 197.958 3.5261 197.874 3.8296ZM186.793 29.3796C186.82 28.4621 187.059 27.5633 187.493 26.7544C187.927 25.9455 188.543 25.249 189.293 24.7197C191.065 23.4146 193.208 22.7105 195.409 22.7105C197.609 22.7105 199.752 23.4146 201.523 24.7197C202.293 25.2319 202.924 25.926 203.36 26.7407C203.797 27.5554 204.025 28.4654 204.025 29.3897C204.025 30.3139 203.797 31.2239 203.36 32.0386C202.924 32.8533 202.293 33.5477 201.523 34.0598C199.749 35.359 197.608 36.0593 195.409 36.0593C193.21 36.0593 191.068 35.359 189.293 34.0598C188.539 33.5303 187.92 32.8308 187.486 32.0178C187.052 31.2049 186.814 30.3011 186.793 29.3796V29.3796ZM189.914 29.3796C189.921 29.9625 190.062 30.5359 190.326 31.0559C190.589 31.5759 190.968 32.0287 191.434 32.3796C192.593 33.2057 193.981 33.6497 195.404 33.6497C196.827 33.6497 198.215 33.2057 199.374 32.3796C199.843 32.0313 200.227 31.5796 200.494 31.0593C200.761 30.5391 200.904 29.9643 200.914 29.3796C200.908 28.7942 200.766 28.2181 200.499 27.6973C200.232 27.1764 199.846 26.7253 199.374 26.3796C198.21 25.5661 196.824 25.1299 195.404 25.1299C193.984 25.1299 192.598 25.5661 191.434 26.3796C190.965 26.7279 190.585 27.1803 190.321 27.7009C190.057 28.2215 189.917 28.7961 189.914 29.3796V29.3796Z" fill="#595857"/>
<path d="M219.704 4.43009C218.854 4.43009 218.434 4.03014 218.434 3.23014C218.413 3.0654 218.431 2.89798 218.486 2.74137C218.541 2.58476 218.632 2.44324 218.752 2.3278C218.871 2.21235 219.015 2.12626 219.174 2.07633C219.332 2.0264 219.5 2.01408 219.664 2.0402H237.054C238.184 2.0402 238.744 2.65003 238.744 3.87003C238.703 5.87708 238.55 7.88025 238.284 9.87003C238.087 11.6919 237.687 13.4864 237.094 15.2201C237.085 15.2697 237.085 15.3204 237.094 15.37H243.664C244.594 15.37 245.054 15.7502 245.054 16.5202C245.054 17.2902 244.594 17.7502 243.664 17.7502H214.574C214.407 17.7734 214.237 17.7576 214.077 17.704C213.917 17.6504 213.772 17.5605 213.653 17.4413C213.533 17.3221 213.443 17.1768 213.39 17.017C213.336 16.8572 213.321 16.6871 213.344 16.5202C213.344 15.7502 213.754 15.37 214.574 15.37H234.924C234.894 15.1846 234.894 14.9957 234.924 14.8102C235.207 13.2146 235.37 11.6 235.414 9.98014C235.494 7.98014 235.554 6.1801 235.584 4.4401L219.704 4.43009ZM237.014 22.59C238.084 22.59 238.614 23.18 238.614 24.35V29.9401C238.705 30.9717 238.428 32.002 237.834 32.85C238.684 32.85 239.114 33.2402 239.114 34.0102C239.114 34.7802 238.684 35.2001 237.834 35.2001H222.694C222.545 35.5291 222.302 35.8069 221.996 35.9989C221.69 36.191 221.335 36.2888 220.974 36.2802H220.274V26.9201C220.308 26.3111 220.247 25.7004 220.094 25.11C219.989 24.921 219.846 24.7557 219.674 24.6249C219.501 24.4941 219.304 24.4005 219.094 24.35C218.831 24.2667 218.582 24.1456 218.354 23.9902C218.261 23.9254 218.187 23.838 218.138 23.7365C218.089 23.635 218.067 23.5226 218.074 23.4101C218.074 22.8701 218.454 22.59 219.224 22.59H237.014ZM223.264 32.85H235.574V24.9101H223.304V31.7702C223.314 32.1902 223.264 32.53 223.264 32.85Z" fill="#595857"/>
<path d="M247.974 11.2902C247.094 11.2902 246.654 10.89 246.654 10.1C246.654 9.30999 247.084 8.94008 247.934 8.94008H264.634C265.474 8.94008 265.904 9.32999 265.904 10.1C265.904 10.87 265.474 11.2902 264.634 11.2902H259.874C257.725 11.2117 255.623 11.9233 253.964 13.2902C253.233 13.8651 252.642 14.5986 252.237 15.4354C251.831 16.2722 251.622 17.1902 251.624 18.12C251.588 18.7853 251.704 19.4499 251.964 20.0634C252.224 20.6768 252.621 21.2229 253.124 21.66C254.069 22.4881 255.286 22.9401 256.543 22.9301C257.841 22.9685 259.103 22.4942 260.054 21.61C260.514 21.1921 260.878 20.6803 261.123 20.1093C261.368 19.5382 261.488 18.9214 261.474 18.3002C261.525 17.3719 261.233 16.4572 260.654 15.7301C260.063 15.0848 259.31 14.6083 258.474 14.35C258.124 14.23 257.914 14.06 257.864 13.86C257.827 13.7731 257.808 13.6796 257.808 13.5851C257.808 13.4906 257.827 13.3971 257.864 13.3102C257.908 13.2058 257.978 13.1143 258.067 13.0443C258.156 12.9744 258.262 12.9281 258.374 12.91C258.639 12.8795 258.908 12.8795 259.174 12.91C260.588 13.0554 261.919 13.6473 262.974 14.6C263.505 15.0962 263.921 15.7023 264.194 16.3759C264.467 17.0494 264.59 17.7743 264.554 18.5001C264.552 19.4254 264.346 20.3386 263.948 21.174C263.55 22.0093 262.971 22.7458 262.254 23.33C260.658 24.6982 258.604 25.4127 256.504 25.33C254.424 25.3784 252.402 24.6392 250.844 23.2601C249.567 22.1517 248.749 20.6065 248.551 18.9271C248.353 17.2478 248.789 15.555 249.773 14.1801C250.641 12.9782 251.765 11.9844 253.063 11.2702L247.974 11.2902ZM252.034 4.76015L250.964 3.87001C250.758 3.69816 250.602 3.47357 250.514 3.22011C250.495 3.09049 250.504 2.95831 250.54 2.83241C250.576 2.70652 250.639 2.58984 250.724 2.49013C250.824 2.39303 250.943 2.31789 251.074 2.26967C251.205 2.22145 251.345 2.20118 251.484 2.2101C251.74 2.20848 251.994 2.25239 252.234 2.33998C253.382 2.9341 254.617 3.3427 255.894 3.55019C257.103 3.71608 258.323 3.79627 259.543 3.79018C260.413 3.79018 260.854 4.18009 260.854 4.95009C260.858 5.11985 260.819 5.28791 260.74 5.43837C260.662 5.58883 260.546 5.71685 260.404 5.8102C260.141 5.99832 259.827 6.10266 259.504 6.11H255.854C254.456 6.15745 253.091 5.67545 252.034 4.76015V4.76015ZM270.034 3.87001C270.065 3.60562 270.04 3.33772 269.958 3.08412C269.877 2.83052 269.742 2.59715 269.563 2.40004C269.188 2.10356 268.745 1.90426 268.273 1.81996C267.844 1.73964 267.425 1.61232 267.023 1.44008C266.904 1.39573 266.803 1.31467 266.732 1.20863C266.662 1.1026 266.628 0.976966 266.634 0.849991C266.634 0.299991 267.054 0.0301666 267.904 0.0301666H271.514C271.728 -0.00249323 271.947 0.014978 272.153 0.081192C272.359 0.147406 272.547 0.260557 272.702 0.411758C272.857 0.56296 272.975 0.748052 273.046 0.95253C273.118 1.15701 273.141 1.37511 273.114 1.58998V14.09H278.404C279.284 14.09 279.714 14.4801 279.714 15.2501C279.714 16.0201 279.284 16.4401 278.404 16.4401H273.114V31.88C273.114 34.17 272.324 35.3102 270.734 35.3102H270.034V3.87001Z" fill="#595857"/>
<path d="M283.754 8.07959C282.874 8.07959 282.434 7.68965 282.434 6.88965C282.434 6.08965 282.864 5.72974 283.714 5.72974H296.714C296.949 5.71444 297.185 5.75752 297.399 5.85522C297.614 5.95293 297.801 6.10228 297.944 6.28979C298.075 6.44902 298.167 6.6375 298.21 6.83936C298.254 7.04121 298.248 7.25046 298.194 7.44971C297.594 10.5764 295.837 13.823 292.924 17.1897C290.158 20.4219 286.861 23.158 283.174 25.2798C282.354 25.7298 281.784 25.7097 281.454 25.2197C281.124 24.7297 281.274 24.2196 281.904 23.8196C285.041 21.6785 287.83 19.068 290.174 16.0796C292.151 13.7508 293.601 11.0217 294.424 8.07959H283.754ZM304.844 3.86963C304.875 3.60677 304.852 3.3403 304.775 3.08716C304.697 2.83401 304.567 2.59981 304.394 2.39966C304.011 2.096 303.556 1.89615 303.073 1.81958C302.652 1.73367 302.24 1.60651 301.844 1.4397C301.723 1.3961 301.619 1.31593 301.545 1.21021C301.472 1.10448 301.432 0.978349 301.434 0.849609C301.434 0.299609 301.854 0.0297852 302.704 0.0297852H306.264C307.364 0.0297852 307.904 0.5496 307.904 1.5896V31.8796C307.904 34.1896 307.123 35.3496 305.573 35.3496H304.834L304.844 3.86963Z" fill="#595857"/>
</svg>
