<svg width="167" height="70" viewBox="0 0 167 70" fill="none" xmlns="http://www.w3.org/2000/svg">
<path fill-rule="evenodd" clip-rule="evenodd" d="M132.04 69.5H34.75C25.5337 69.5 16.6951 65.8387 10.1782 59.3218C3.66133 52.8049 0 43.9663 0 34.75C0 25.5337 3.66133 16.6949 10.1782 10.178C16.6951 3.66109 25.5337 0 34.75 0H132.04C141.256 0 150.095 3.66109 156.612 10.178C163.129 16.6949 166.79 25.5337 166.79 34.75C166.79 43.9663 163.129 52.8049 156.612 59.3218C150.095 65.8387 141.256 69.5 132.04 69.5" fill="#FFEB00"/>
<path fill-rule="evenodd" clip-rule="evenodd" d="M39.0303 16.6797C28.5603 16.6797 20.0303 23.3897 20.0303 31.6797C20.0303 36.9997 23.5501 41.6796 28.8301 44.3296L27.0503 50.9998C27.015 51.0972 27.0082 51.2026 27.0312 51.3037C27.0543 51.4048 27.1061 51.4971 27.1802 51.5696C27.277 51.6625 27.4059 51.7144 27.54 51.7144C27.6742 51.7144 27.8036 51.6625 27.9004 51.5696L35.5801 46.3796C36.7127 46.5439 37.8555 46.6274 39 46.6296C49.47 46.6296 58 39.9296 58 31.6296C58 23.3296 49.5003 16.6797 39.0303 16.6797Z" fill="black"/>
<path d="M73.9702 44.1398V53.8097H67.0801V18.1398H71.9404L72.79 20.3998C73.7286 19.4243 74.8595 18.654 76.1108 18.1376C77.3622 17.6213 78.7067 17.3701 80.0601 17.3998C86.8001 17.3998 90.0602 22.4498 89.9702 30.6098C89.9702 39.1498 84.9702 44.6098 77.9702 44.6098C76.6221 44.6283 75.2773 44.4703 73.9702 44.1398ZM73.9702 23.8898V39.3197C74.7069 39.4089 75.4484 39.4558 76.1904 39.4599C81.1004 39.4599 82.9805 36.0198 82.9805 30.5898C82.9805 25.8298 81.71 22.9499 77.79 22.9499C76.4652 22.9683 75.161 23.279 73.9702 23.8598V23.8898Z" fill="black"/>
<path d="M104.97 28.1396H108.88V27.2896C108.88 24.4596 107.28 23.1396 104.5 23.1396C102.047 23.1954 99.6342 23.7714 97.4204 24.8296L95.5303 20.2097C98.3873 18.3638 101.709 17.3651 105.11 17.3296C111.71 17.3296 115.3 20.8197 115.3 27.4797V43.8496H110.44L109.73 41.6797C107.559 43.4353 104.88 44.445 102.09 44.5596C97.0403 44.5596 94.2104 41.5597 94.2104 36.4397C94.2404 31.0397 97.9802 28.1396 104.97 28.1396ZM108.88 37.2397V32.5295H105.72C102.18 32.5295 100.39 33.7996 100.39 36.3496C100.39 38.2796 101.39 39.2297 103.39 39.2297C105.382 39.167 107.303 38.4777 108.88 37.2598V37.2397Z" fill="black"/>
<path d="M136.15 41.2297C133.75 47.6397 130.87 52.3197 126.67 54.9097L122.42 50.9897C124.755 49.0437 126.693 46.6673 128.13 43.9897L118.98 18.9897L125.82 17.1497L131.67 37.3896L137.48 17.0596L144.22 18.9397L136.15 41.2297Z" fill="black"/>
</svg>
