<svg width="184" height="63" viewBox="0 0 184 63" fill="none" xmlns="http://www.w3.org/2000/svg">
<path d="M21.5937 10.9524C21.1569 14.2067 20.1153 17.3507 18.5234 20.2224L31.0136 31.5125C31.6586 32.0502 32.1024 32.7902 32.2734 33.6123C32.3292 33.9158 32.3139 34.2282 32.2289 34.5249C32.1439 34.8216 31.9917 35.0946 31.7836 35.3225C31.5328 35.5826 31.2287 35.7851 30.892 35.9163C30.5554 36.0475 30.1941 36.104 29.8334 36.0823C29.4046 36.0729 28.983 35.9717 28.5966 35.7854C28.2102 35.5991 27.8681 35.3321 27.5937 35.0024L16.7036 23.2625C16.3836 23.8125 16.0336 24.3624 15.7036 24.9124C12.3821 29.642 8.27236 33.7653 3.55365 37.1023C2.15365 38.1023 1.11351 38.1924 0.413511 37.4524C-0.286489 36.7124 -0.09643 35.8724 0.97357 34.9424C5.02108 31.4515 8.48451 27.3364 11.2333 22.7524C13.7933 18.3991 15.3067 14.6123 15.7734 11.3923C15.837 11.101 15.7851 10.7962 15.6284 10.5425C15.4716 10.2887 15.2226 10.106 14.9335 10.0325C14.2499 9.79381 13.5474 9.61313 12.8334 9.49243C11.8334 9.32243 11.3938 8.80238 11.4438 7.94238C11.4938 7.08238 12.0735 6.64233 13.1835 6.64233H17.5834C19.3034 6.64233 20.4434 7.01244 21.0034 7.75244C21.5969 8.70638 21.808 9.84949 21.5937 10.9524V10.9524ZM46.6537 60.2024H23.4736C19.1936 60.2024 17.0536 58.339 17.0536 54.6123V47.7625C17.1623 46.8909 16.9252 46.0115 16.3935 45.3125C15.7499 44.8094 14.9961 44.4666 14.1938 44.3125C13.5512 44.1687 12.9294 43.9434 12.3437 43.6423C12.19 43.5276 12.0679 43.3756 11.9892 43.2007C11.9105 43.0257 11.8774 42.8335 11.8935 42.6423C11.8935 41.7123 12.5833 41.2424 13.9833 41.2424H19.5737C21.3837 41.2424 22.2934 42.2424 22.2934 44.2424V54.8423C22.2934 55.7323 22.7134 56.1724 23.5434 56.1724H46.6537C48.1937 56.1724 48.9536 56.8524 48.9536 58.1724C48.9536 59.4924 48.2037 60.1724 46.6537 60.1724V60.2024ZM40.8637 7.33228C40.9168 6.88491 40.8757 6.43152 40.7431 6.00098C40.6105 5.57043 40.3893 5.17225 40.0937 4.83228C39.4416 4.31811 38.6716 3.97443 37.8535 3.83228C37.1387 3.68775 36.4392 3.47695 35.7636 3.20239C35.5573 3.12945 35.3789 2.99375 35.2534 2.81445C35.1279 2.63516 35.0613 2.42124 35.0634 2.20239C35.0634 1.27239 35.7833 0.8125 37.2333 0.8125H43.3036C45.1636 0.8125 46.0937 1.70241 46.0937 3.47241V40.4724C46.0937 44.4724 44.7637 46.4724 42.0937 46.4724H40.8437L40.8637 7.33228Z" fill="#595857"/>
<path d="M92.3037 33.9524H70.3037C67.837 33.9524 66.6035 32.5758 66.6035 29.8225V23.9524C66.6347 23.6033 66.5951 23.2514 66.4868 22.918C66.3785 22.5846 66.204 22.2767 65.9736 22.0125C65.5279 21.5851 65.0053 21.2458 64.4336 21.0125C64.0975 20.9016 63.7805 20.7397 63.4936 20.5325C63.3519 20.4107 63.2426 20.2555 63.1762 20.0808C63.1099 19.9062 63.0886 19.7176 63.1137 19.5325C63.1137 18.6425 63.7138 18.2024 64.9238 18.2024H84.7534V10.4624H66.7534C65.2634 10.4624 64.5136 9.8024 64.5136 8.4624C64.5136 7.1224 65.2336 6.4624 66.6836 6.4624H87.4834C89.1534 6.4624 89.9936 7.37238 89.9936 9.19238V18.7124C89.9936 20.9124 89.0404 22.0125 87.1338 22.0125H71.8437V28.1624C71.8437 29.3524 72.3836 29.9424 73.4536 29.9424H92.3637C93.8537 29.9424 94.6035 30.5823 94.6035 31.8523C94.6035 33.1223 93.8337 33.9524 92.3037 33.9524ZM79.3838 50.1323C79.3865 48.5219 79.7467 46.9321 80.4384 45.4778C81.1302 44.0234 82.1362 42.7408 83.3838 41.7224C86.2059 39.4455 89.7225 38.2039 93.3486 38.2039C96.9747 38.2039 100.491 39.4455 103.313 41.7224C104.546 42.7501 105.538 44.036 106.218 45.4893C106.899 46.9426 107.251 48.5276 107.251 50.1323C107.251 51.737 106.899 53.3221 106.218 54.7754C105.538 56.2287 104.546 57.5148 103.313 58.5425C100.491 60.8194 96.9747 62.061 93.3486 62.061C89.7225 62.061 86.2059 60.8194 83.3838 58.5425C82.1375 57.5252 81.1321 56.244 80.4404 54.7915C79.7487 53.339 79.388 51.7511 79.3838 50.1423V50.1323ZM84.6938 50.1323C84.6669 51.2052 84.8822 52.2704 85.3237 53.2485C85.7652 54.2267 86.4213 55.0929 87.2436 55.7825C88.9543 57.2173 91.1158 58.0037 93.3486 58.0037C95.5814 58.0037 97.7429 57.2173 99.4536 55.7825C100.256 55.0758 100.898 54.2064 101.338 53.2322C101.778 52.258 102.006 51.2013 102.006 50.1323C102.006 49.0634 101.778 48.0067 101.338 47.0325C100.898 46.0583 100.256 45.1891 99.4536 44.4824C97.7429 43.0475 95.5814 42.261 93.3486 42.261C91.1158 42.261 88.9543 43.0475 87.2436 44.4824C86.4188 45.1721 85.7609 46.0395 85.3193 47.0198C84.8777 48 84.6639 49.0676 84.6938 50.1423V50.1323ZM102.353 7.29248C102.408 6.84194 102.364 6.38467 102.225 5.95288C102.085 5.52109 101.852 5.12519 101.543 4.79248C100.902 4.29178 100.152 3.94919 99.3535 3.79248C98.6231 3.65882 97.9092 3.4475 97.2236 3.16235C97.0229 3.08447 96.8508 2.9467 96.7309 2.76782C96.6111 2.58895 96.5494 2.37762 96.5537 2.16235C96.5537 1.23235 97.2736 0.772461 98.7236 0.772461H104.864C106.674 0.772461 107.583 1.66237 107.583 3.43237V18.6624H116.583C118.073 18.6624 118.813 19.3424 118.813 20.6624C118.813 21.9824 118.073 22.6624 116.583 22.6624H107.583V31.7424C107.583 35.6291 106.234 37.5756 103.534 37.5823H102.353V7.29248Z" fill="#595857"/>
<path d="M181.503 37.322H131.944C131.667 37.3649 131.383 37.3435 131.116 37.2597C130.849 37.1759 130.604 37.0318 130.401 36.8386C130.198 36.6453 130.043 36.4082 129.946 36.1452C129.849 35.8823 129.814 35.6006 129.844 35.322C129.844 34.012 130.544 33.322 131.944 33.322H181.503C183.043 33.322 183.803 33.982 183.803 35.322C183.803 36.662 183.043 37.322 181.503 37.322ZM141.783 14.0918C140.293 14.0918 139.553 13.4218 139.553 12.0918C139.553 10.7618 140.273 10.0918 141.713 10.0918H166.424C167.021 10.0191 167.627 10.1283 168.162 10.4047C168.697 10.6812 169.137 11.1122 169.424 11.6418C169.934 12.6418 169.683 13.8318 168.663 15.1018C166.526 17.2999 164.017 19.1042 161.253 20.4318L174.944 24.4318C175.777 24.5956 176.542 25.0027 177.143 25.6018C177.334 25.8328 177.457 26.1118 177.499 26.4082C177.542 26.7045 177.502 27.0069 177.384 27.2819C177.245 27.5772 177.046 27.8401 176.8 28.0537C176.554 28.2673 176.265 28.4268 175.953 28.5219C175.109 28.7488 174.213 28.6924 173.404 28.3618L157.074 22.5918C151.238 25.1911 145.158 27.2011 138.924 28.5918C137.334 28.9318 136.394 28.662 136.094 27.792C135.794 26.922 136.333 26.2818 137.733 25.8618C142.872 24.316 147.886 22.3838 152.733 20.0817C156.192 18.4487 159.459 16.4364 162.473 14.0817L141.783 14.0918ZM140.453 47.4118C139.203 47.4118 138.574 46.7318 138.574 45.4118C138.574 44.0918 139.174 43.5119 140.384 43.5119H170.123C171.843 43.5119 172.703 44.4219 172.703 46.2319V55.9519C172.703 59.9519 171.494 61.9519 169.074 61.9519H167.543V47.3518L140.453 47.4118ZM148.273 4.41182L146.463 2.95186C146.107 2.63299 145.842 2.22607 145.694 1.77193C145.653 1.56314 145.664 1.34771 145.725 1.144C145.786 0.940294 145.895 0.754177 146.043 0.601765C146.185 0.422859 146.365 0.276836 146.568 0.173298C146.772 0.0697602 146.995 0.0112859 147.223 0.00191126C147.714 -0.0169658 148.199 0.104305 148.623 0.351765C150.53 1.27218 152.546 1.94432 154.623 2.35176C156.607 2.67563 158.614 2.83306 160.623 2.82198C162.113 2.82198 162.853 3.46188 162.853 4.72188C162.872 5.01804 162.81 5.31361 162.675 5.57759C162.539 5.84158 162.335 6.0642 162.083 6.22188C161.627 6.51751 161.097 6.68022 160.553 6.69185L154.753 6.63179C152.399 6.72402 150.093 5.94829 148.273 4.45186V4.41182Z" fill="#595857"/>
</svg>
