<svg width="804" height="62" viewBox="0 0 804 62" fill="none" xmlns="http://www.w3.org/2000/svg">
<path d="M10.8896 7.50012C9.43965 7.50012 8.71973 6.82012 8.71973 5.50012C8.6904 5.22147 8.72554 4.93984 8.82227 4.67687C8.91899 4.41391 9.07494 4.17651 9.27783 3.98327C9.48073 3.79004 9.72531 3.64592 9.99268 3.56213C10.26 3.47834 10.5429 3.45724 10.8198 3.50012H40.4199C42.3199 3.50012 43.2798 4.49998 43.2798 6.60998C43.282 9.86082 43.0344 13.107 42.5396 16.3199C42.1709 19.0575 41.483 21.7424 40.4897 24.3199L40.3496 24.5699H51.6499C53.1899 24.5699 53.96 25.2299 53.96 26.5699C53.96 27.9099 53.1899 28.5699 51.6499 28.5699H29.5996V35.0402C29.7199 36.7452 29.3304 38.4474 28.48 39.93H40.2798C41.9998 39.93 42.8599 40.84 42.8599 42.66V55.1901C42.8599 59.1901 41.65 61.1901 39.23 61.1901H37.6899V43.67H10.6099C9.34986 43.67 8.71973 42.99 8.71973 41.67C8.71973 40.35 9.32955 39.7701 10.5396 39.7701H24.4297V28.41H2.08984C0.699844 28.41 0 27.75 0 26.41C0 25.07 0.699844 24.41 2.08984 24.41H36.7197C36.6693 24.0954 36.6693 23.7747 36.7197 23.4601C37.1683 20.8345 37.4819 18.1878 37.6597 15.5301C37.8197 12.9501 37.8763 10.2434 37.8296 7.41003L10.8896 7.50012Z" fill="#595857"/>
<path d="M85.7797 6.54028C87.5897 6.54028 88.5 7.54028 88.5 9.54028V25.4602C88.5584 26.7547 88.2937 28.0434 87.7299 29.2102C89.1699 29.2102 89.8999 29.8901 89.8999 31.1101C89.8999 32.3301 89.1298 33.1101 87.5898 33.1101H67.6997C67.4452 33.6701 67.0321 34.1431 66.5112 34.4702C65.9903 34.7973 65.3849 34.9642 64.77 34.9502H63.5796V13.8801C63.6506 12.8412 63.5185 11.7985 63.1899 10.8103C62.7664 10.1523 62.1024 9.68572 61.3398 9.51025C60.927 9.3971 60.5468 9.18799 60.2299 8.90015C60.1041 8.76774 60.0076 8.61013 59.9472 8.43774C59.8869 8.26535 59.8641 8.08211 59.8798 7.90015C59.8798 6.97015 60.3896 6.50024 61.4096 6.50024L85.7797 6.54028ZM68.7797 29.1902H83.3696V10.5303H68.7797V27.2803C68.7797 27.9703 68.7797 28.6102 68.7797 29.1902ZM106.41 59.4001H83.2299C78.9499 59.4001 76.8095 57.537 76.8095 53.8103V46.9602C76.9182 46.0887 76.6816 45.2093 76.1499 44.5103C75.5062 44.0071 74.7519 43.6644 73.9497 43.5103C73.307 43.3664 72.6853 43.1411 72.0996 42.8401C71.9458 42.7253 71.8238 42.5734 71.7451 42.3984C71.6664 42.2235 71.6338 42.0313 71.6499 41.8401C71.6499 40.9101 72.3397 40.4402 73.7397 40.4402H79.3198C81.1398 40.4402 82.0498 41.4402 82.0498 43.4402V54.0403C82.0498 54.9303 82.4698 55.3701 83.2998 55.3701H106.41C107.95 55.3701 108.71 56.0501 108.71 57.3701C108.71 58.6901 107.92 59.4102 106.38 59.4102L106.41 59.4001ZM100.62 6.53027C100.673 6.08291 100.632 5.62928 100.499 5.19873C100.366 4.76818 100.145 4.37024 99.8496 4.03027C99.1975 3.51611 98.4279 3.17243 97.6098 3.03027C96.8947 2.88725 96.195 2.67617 95.52 2.40015C95.3136 2.3272 95.1352 2.19174 95.0097 2.01245C94.8842 1.83316 94.8177 1.61899 94.8198 1.40015C94.8198 0.470146 95.5397 0.0102539 96.9897 0.0102539H103.06C104.92 0.0102539 105.85 0.900166 105.85 2.67017V39.6702C105.85 43.6702 104.52 45.6702 101.85 45.6702H100.6L100.62 6.53027Z" fill="#595857"/>
<path d="M168.92 36.3699H119.36C119.076 36.4099 118.787 36.3834 118.515 36.2925C118.243 36.2016 117.996 36.0488 117.794 35.8462C117.591 35.6435 117.438 35.3966 117.347 35.1248C117.256 34.853 117.23 34.5638 117.27 34.28C117.27 33.01 117.96 32.3699 119.36 32.3699H168.92C170.46 32.3699 171.23 33.01 171.23 34.28C171.23 35.55 170.46 36.3699 168.92 36.3699ZM159.5 59.3699H135.5C131.207 59.3699 129.063 57.5067 129.07 53.78V49.0898C129.132 48.6507 129.096 48.2032 128.965 47.7795C128.834 47.3559 128.61 46.9667 128.31 46.6399C127.68 46.1756 126.967 45.8362 126.21 45.6399C125.513 45.5051 124.839 45.2693 124.21 44.9399C124.058 44.8233 123.938 44.6711 123.859 44.4966C123.781 44.3221 123.747 44.1308 123.76 43.9399C123.76 43.0099 124.48 42.55 125.92 42.55H131.44C133.3 42.55 134.23 43.55 134.23 45.55V53.99C134.203 54.1709 134.219 54.3556 134.276 54.5293C134.333 54.703 134.43 54.8607 134.56 54.99C134.689 55.1193 134.847 55.2166 135.021 55.2739C135.194 55.3312 135.379 55.3468 135.56 55.3198H159.5C161.04 55.3198 161.8 55.9998 161.8 57.3198C161.8 58.6398 161.04 59.4099 159.5 59.4099V59.3699ZM128.37 14.8198C128.366 13.0925 128.773 11.389 129.555 9.84888C130.337 8.30879 131.473 6.97614 132.87 5.95996C136.173 3.63014 140.117 2.37939 144.16 2.37939C148.202 2.37939 152.146 3.63014 155.45 5.95996C156.856 6.96953 158.002 8.29995 158.792 9.84082C159.581 11.3817 159.992 13.0884 159.99 14.8198C159.99 18.1198 158.476 20.9233 155.45 23.23C152.114 25.4784 148.183 26.6794 144.16 26.6794C140.137 26.6794 136.206 25.4784 132.87 23.23C129.87 20.95 128.37 18.1599 128.37 14.8599V14.8198ZM133.67 14.8198C133.659 15.9197 133.92 17.0052 134.432 17.979C134.943 18.9528 135.688 19.7847 136.6 20.3999C138.813 21.9167 141.459 22.6748 144.14 22.5601C146.833 22.6713 149.49 21.9139 151.72 20.3999C152.646 19.7941 153.405 18.9661 153.929 17.9915C154.453 17.0168 154.725 15.9264 154.72 14.8198C154.74 13.6594 154.485 12.5109 153.976 11.468C153.466 10.4251 152.717 9.51758 151.79 8.81982C149.604 7.1752 146.913 6.34432 144.18 6.46997C141.459 6.34101 138.779 7.17271 136.61 8.81982C135.679 9.52385 134.927 10.4379 134.416 11.4875C133.905 12.5372 133.65 13.6927 133.67 14.8599V14.8198Z" fill="#595857"/>
<path d="M191.78 36.8101C188.513 36.9107 185.326 35.7912 182.84 33.6699C181.734 32.8182 180.834 31.7291 180.206 30.4829C179.578 29.2367 179.237 27.8653 179.21 26.47C179.201 24.4716 179.785 22.5155 180.89 20.8499C182.028 19.1117 183.559 17.6661 185.36 16.6299H179.07C177.58 16.6299 176.84 15.9599 176.84 14.6299C176.84 13.2999 177.56 12.6299 179 12.6299H203.5C204.99 12.6299 205.74 13.2799 205.74 14.6299C205.74 15.9799 204.99 16.6299 203.5 16.6299H197.15C193.203 16.6299 190.05 17.6132 187.69 19.5798C186.618 20.3714 185.756 21.4131 185.179 22.614C184.602 23.8149 184.328 25.1387 184.38 26.47C184.425 27.3311 184.654 28.1726 185.05 28.9382C185.447 29.7039 186.002 30.3761 186.68 30.9099C188.096 32.1294 189.911 32.7845 191.78 32.75C193.692 32.809 195.561 32.181 197.05 30.98C197.68 30.5222 198.204 29.9326 198.583 29.2522C198.963 28.5718 199.191 27.8171 199.25 27.04C199.312 25.7403 198.887 24.4642 198.06 23.46C197.213 22.4146 196.07 21.651 194.78 21.27C194.62 21.2153 194.475 21.1261 194.354 21.009C194.233 20.8919 194.139 20.7497 194.079 20.5923C194.019 20.4349 193.994 20.2662 194.006 20.0981C194.018 19.9301 194.068 19.7669 194.15 19.6199C194.29 19.2799 194.7 19.09 195.37 19.04C195.894 18.99 196.422 19.0134 196.94 19.1099C197.944 19.2991 198.919 19.6187 199.84 20.0601C200.689 20.4707 201.457 21.0294 202.11 21.71C202.919 22.4655 203.539 23.4006 203.92 24.4399C204.284 25.3687 204.451 26.3631 204.41 27.3599C204.294 28.6983 203.88 29.994 203.198 31.1516C202.516 32.3092 201.584 33.2997 200.47 34.05C197.962 35.914 194.903 36.8855 191.78 36.8101ZM184.17 6.91992L182.49 5.45996C182.127 5.16556 181.862 4.76794 181.73 4.31982C181.688 4.10716 181.697 3.88792 181.756 3.67944C181.815 3.47097 181.923 3.27916 182.07 3.11987C182.244 2.94687 182.452 2.81219 182.681 2.72437C182.91 2.63654 183.155 2.59749 183.4 2.60986C183.835 2.58109 184.269 2.66732 184.66 2.85986C186.303 3.79382 188.081 4.46844 189.93 4.85986C191.808 5.18664 193.713 5.33749 195.62 5.31006C197.06 5.31006 197.78 5.96006 197.78 7.31006C197.798 7.59205 197.74 7.87356 197.611 8.12524C197.483 8.37693 197.289 8.58939 197.05 8.73999C196.608 9.04495 196.086 9.21199 195.55 9.21997L189.33 9.15991C187.407 9.0611 185.587 8.26469 184.21 6.91992H184.17ZM197.64 50.01C197.635 48.416 197.997 46.8423 198.7 45.4114C199.402 43.9805 200.426 42.7309 201.69 41.76C204.392 39.5187 207.81 38.3258 211.32 38.3999C214.864 38.3207 218.318 39.5127 221.06 41.76C222.331 42.7317 223.36 43.9832 224.069 45.4175C224.778 46.8517 225.147 48.4302 225.147 50.03C225.147 51.6299 224.778 53.2081 224.069 54.6423C223.36 56.0766 222.331 57.3284 221.06 58.3C218.326 60.5644 214.868 61.7679 211.32 61.6899C207.805 61.7629 204.384 60.5585 201.69 58.3C200.433 57.3163 199.417 56.0574 198.722 54.6204C198.027 53.1833 197.671 51.6063 197.68 50.01H197.64ZM202.95 50.01C202.932 51.0414 203.149 52.0633 203.583 52.9988C204.018 53.9342 204.66 54.7587 205.46 55.4099C207.079 56.8295 209.167 57.599 211.32 57.5698C213.516 57.6063 215.65 56.8381 217.32 55.4099C218.128 54.7637 218.778 53.9413 219.22 53.0054C219.662 52.0695 219.884 51.0449 219.87 50.01C219.885 48.9807 219.663 47.9618 219.221 47.0322C218.778 46.1027 218.128 45.2874 217.32 44.6499C215.645 43.2362 213.511 42.4825 211.32 42.53C209.173 42.4955 207.088 43.2497 205.46 44.6499C204.668 45.2965 204.033 46.1153 203.605 47.0442C203.177 47.9731 202.966 48.9875 202.99 50.01H202.95ZM209.78 9.18994C209.886 8.3077 209.646 7.41863 209.11 6.70996C208.475 6.19823 207.722 5.85435 206.92 5.70996C206.205 5.58722 205.511 5.36162 204.86 5.04004C204.671 4.93984 204.514 4.78794 204.408 4.60205C204.301 4.41616 204.25 4.20387 204.26 3.98999C204.26 3.14999 204.96 2.72998 206.36 2.72998H212.22C212.589 2.6763 212.966 2.70968 213.321 2.82739C213.675 2.9451 213.998 3.14384 214.262 3.40796C214.526 3.67208 214.725 3.99414 214.842 4.34863C214.96 4.70313 214.994 5.0803 214.94 5.44995V18.3999H222.13V6.46997C222.183 6.02401 222.146 5.5719 222.021 5.14062C221.895 4.70935 221.684 4.30776 221.4 3.95996C220.721 3.42719 219.914 3.08232 219.06 2.95996C218.341 2.8622 217.638 2.67049 216.97 2.38989C216.777 2.3046 216.615 2.16393 216.502 1.98584C216.39 1.80775 216.334 1.60029 216.34 1.38989C216.34 0.459893 217.08 0 218.57 0H224.51C226.37 0 227.3 0.90998 227.3 2.72998V31.9199C227.3 35.9199 225.95 37.9199 223.25 37.9199H222.13V22.3101H214.94V29.8C214.94 33.69 213.62 35.6399 210.94 35.6399H209.78V9.18994Z" fill="#595857"/>
<path d="M280.47 28.0604C282.959 28.9559 285.096 30.6235 286.57 32.8202C287.902 34.9012 288.529 37.3553 288.36 39.8202C288.288 41.5142 287.866 43.1751 287.121 44.6981C286.375 46.2212 285.323 47.5736 284.03 48.6703C281.363 51.0636 277.43 52.2802 272.23 52.3202C270.417 52.3097 268.61 52.0849 266.85 51.6503C265.141 51.2716 263.513 50.5946 262.04 49.6503V45.7804C263.601 46.8326 265.354 47.5665 267.2 47.9403C268.784 48.2887 270.398 48.4797 272.02 48.5104C274.821 48.6336 277.573 47.7424 279.77 46.0004C281.77 44.327 282.77 41.907 282.77 38.7404C282.77 36.447 282.41 34.8069 281.69 33.8202C280.987 32.8458 280.125 31.9974 279.14 31.3104C278.136 30.7034 277.021 30.3052 275.86 30.1403C274.912 30.0046 273.957 29.9311 273 29.9203C272.767 29.9579 272.529 29.9391 272.305 29.8654C272.081 29.7916 271.878 29.6649 271.713 29.4962C271.549 29.3276 271.427 29.1219 271.358 28.8964C271.29 28.6708 271.277 28.4321 271.32 28.2003C271.37 27.0603 272.04 26.4904 273.32 26.4904H274.82C275.45 26.4588 276.072 26.3409 276.67 26.1403C278.259 25.7107 279.664 24.7731 280.67 23.4703C281.853 21.8529 282.478 19.8942 282.45 17.8903C282.543 15.1769 281.753 13.1471 280.08 11.8004C278.309 10.4254 276.11 9.71742 273.87 9.80041C272.148 9.75547 270.457 10.2675 269.05 11.2604C267.71 12.2146 266.786 13.6461 266.47 15.2604H262.47C262.651 13.9657 263.091 12.7207 263.763 11.599C264.434 10.4773 265.324 9.50181 266.38 8.73034C268.725 7.02463 271.572 6.15172 274.47 6.25036C277.976 6.10704 281.406 7.29668 284.07 9.5802C285.255 10.5812 286.206 11.8318 286.852 13.2423C287.499 14.6529 287.825 16.1888 287.81 17.7404C287.877 20.1843 287.112 22.5786 285.64 24.5304C284.351 26.2434 282.534 27.484 280.47 28.0604V28.0604Z" fill="#595857"/>
<path d="M318.579 29.0099C317.872 30.2418 316.865 31.2741 315.65 32.0099C313.688 33.1838 311.435 33.78 309.15 33.7299C307.442 33.804 305.738 33.498 304.163 32.8339C302.587 32.1699 301.179 31.1642 300.039 29.8898C297.712 27.1181 296.506 23.5759 296.659 19.9599C296.659 15.7666 297.856 12.4031 300.25 9.86981C302.643 7.33648 306.029 6.0466 310.409 5.99994C314.316 5.95327 317.526 7.69658 320.039 11.2299C322.553 14.7632 323.809 20.4631 323.809 28.3298C323.879 32.5924 323.254 36.838 321.96 40.8998C321.046 44.1056 319.184 46.9603 316.619 49.0898C314.077 51.0158 310.979 52.0682 307.789 52.0898C304.633 52.2852 301.493 51.5106 298.789 49.8698V46.4399C300.27 47.273 301.89 47.8319 303.57 48.0898C304.717 48.2416 305.872 48.3285 307.03 48.3498C310.33 48.3498 313.1 46.8464 315.34 43.8398C317.453 41.0131 318.533 36.0699 318.579 29.0099ZM318.44 23.2299C318.11 18.9999 317.369 15.8698 316.199 13.8398C314.573 11.0131 312.573 9.53317 310.199 9.39984C309.036 9.29468 307.866 9.50378 306.81 10.0051C305.755 10.5064 304.853 11.2816 304.199 12.2499C302.68 14.4714 301.91 17.12 302 19.81C302 23.49 302.793 26.1567 304.38 27.81C305.03 28.5661 305.831 29.1773 306.732 29.6044C307.633 30.0316 308.613 30.2652 309.61 30.29C311.666 30.2345 313.64 29.4715 315.199 28.1298C316.853 26.9402 318.007 25.1804 318.44 23.1899V23.2299Z" fill="#595857"/>
<path d="M332.33 48.8098C332.98 48.0898 333.84 47.2398 334.91 46.2698C338.818 42.2414 342.402 37.9111 345.63 33.3196C349.93 27.4396 352.08 22.4897 352.08 18.4697C352.225 16.1173 351.479 13.7964 349.99 11.9697C349.193 11.165 348.232 10.5412 347.172 10.1409C346.113 9.74054 344.98 9.57301 343.85 9.64965C342.02 9.6348 340.246 10.2771 338.85 11.4597C338.118 12.0933 337.519 12.866 337.088 13.7329C336.658 14.5998 336.403 15.5437 336.34 16.5098H332.15C332.223 15.0027 332.618 13.5289 333.308 12.187C333.998 10.8451 334.967 9.66632 336.15 8.72973C338.433 6.9487 341.255 5.99982 344.15 6.03979C348.337 6.03979 351.607 7.18974 353.96 9.48974C355.156 10.714 356.086 12.1716 356.694 13.7717C357.301 15.3719 357.572 17.0802 357.49 18.7898C357.49 22.3031 355.803 26.6365 352.43 31.7898C348.586 37.5027 344.235 42.8576 339.43 47.7898H348.99C350.61 47.8539 352.228 47.6303 353.77 47.1296C354.91 46.6763 355.737 45.343 356.25 43.1296C356.34 42.4996 356.77 42.2296 357.54 42.3396C358.31 42.4496 358.69 42.7096 358.69 43.1296L358 51.4397H332.38L332.33 48.8098Z" fill="#595857"/>
<path d="M366.67 29.2598C366.67 21.7664 367.927 16.0463 370.44 12.0996C372.953 8.15294 376.35 6.173 380.63 6.15967C384.957 6.15967 388.376 8.13961 390.89 12.0996C393.403 16.0596 394.66 21.7798 394.66 29.2598C394.66 36.7064 393.403 42.4063 390.89 46.3596C388.376 50.313 384.957 52.2931 380.63 52.2998C376.35 52.2998 372.953 50.3196 370.44 46.3596C367.927 42.3996 366.67 36.6998 366.67 29.2598ZM372.18 29.2598C372.18 35.9864 372.997 40.9263 374.63 44.0796C376.263 47.2329 378.263 48.8098 380.63 48.8098C383.05 48.8098 385.073 47.2329 386.7 44.0796C388.326 40.9263 389.143 35.9864 389.15 29.2598C389.15 22.4864 388.333 17.5263 386.7 14.3796C385.066 11.233 383.043 9.65632 380.63 9.64966C378.257 9.64966 376.257 11.2263 374.63 14.3796C373.003 17.533 372.186 22.4931 372.18 29.2598V29.2598Z" fill="#595857"/>
<path d="M401.71 29.2598C401.71 21.7664 402.967 16.0463 405.48 12.0996C407.993 8.15294 411.39 6.173 415.67 6.15967C419.997 6.15967 423.416 8.13961 425.93 12.0996C428.443 16.0596 429.7 21.7798 429.7 29.2598C429.7 36.7064 428.443 42.4063 425.93 46.3596C423.416 50.313 419.997 52.2931 415.67 52.2998C411.39 52.2998 407.993 50.3196 405.48 46.3596C402.967 42.3996 401.71 36.6998 401.71 29.2598ZM407.22 29.2598C407.22 35.9864 408.037 40.9263 409.67 44.0796C411.303 47.2329 413.303 48.8098 415.67 48.8098C418.09 48.8098 420.113 47.2329 421.74 44.0796C423.366 40.9263 424.183 35.9864 424.19 29.2598C424.19 22.4864 423.373 17.5263 421.74 14.3796C420.106 11.233 418.083 9.65632 415.67 9.64966C413.303 9.64966 411.303 11.2263 409.67 14.3796C408.037 17.533 407.22 22.4931 407.22 29.2598V29.2598Z" fill="#595857"/>
<path d="M437.45 48.8098C438.1 48.0898 438.96 47.2398 440.03 46.2698C443.938 42.2414 447.522 37.9111 450.75 33.3196C455.05 27.4396 457.2 22.4897 457.2 18.4697C457.345 16.1173 456.599 13.7964 455.11 11.9697C454.313 11.165 453.352 10.5412 452.292 10.1409C451.233 9.74054 450.1 9.57301 448.97 9.64965C447.14 9.6348 445.366 10.2771 443.97 11.4597C443.238 12.0933 442.639 12.866 442.208 13.7329C441.777 14.5998 441.523 15.5437 441.46 16.5098H437.27C437.343 15.0027 437.738 13.5289 438.428 12.187C439.118 10.8451 440.087 9.66632 441.27 8.72973C443.553 6.9487 446.375 5.99982 449.27 6.03979C453.457 6.03979 456.726 7.18974 459.08 9.48974C460.276 10.714 461.207 12.1716 461.814 13.7717C462.421 15.3719 462.692 17.0802 462.61 18.7898C462.61 22.3031 460.923 26.6365 457.55 31.7898C453.706 37.5027 449.355 42.8576 444.55 47.7898H454.11C455.73 47.8539 457.348 47.6303 458.89 47.1296C460.03 46.6763 460.856 45.343 461.37 43.1296C461.46 42.4996 461.89 42.2296 462.66 42.3396C463.43 42.4496 463.81 42.7096 463.81 43.1296L463.12 51.4397H437.5L437.45 48.8098Z" fill="#595857"/>
<path d="M472.98 25.96H492.87V30.1899H472.98V25.96Z" fill="#595857"/>
<path d="M501.11 29.2598C501.11 21.7664 502.363 16.0463 504.87 12.0996C507.39 8.09961 510.78 6.15967 515.07 6.15967C519.36 6.15967 522.82 8.15961 525.33 12.0996C527.84 16.0396 529.1 21.7698 529.1 29.2598C529.1 36.7498 527.84 42.4096 525.33 46.3596C522.82 50.3096 519.4 52.2998 515.07 52.2998C510.74 52.2998 507.39 50.2996 504.87 46.3596C502.35 42.4196 501.11 36.7098 501.11 29.2598ZM506.62 29.2598C506.62 35.9864 507.433 40.9263 509.06 44.0796C510.686 47.2329 512.686 48.8098 515.06 48.8098C517.48 48.8098 519.503 47.2329 521.13 44.0796C522.757 40.9263 523.57 35.9864 523.57 29.2598C523.57 22.4864 522.757 17.5263 521.13 14.3796C519.503 11.233 517.48 9.65632 515.06 9.64966C512.68 9.64966 510.68 11.2263 509.06 14.3796C507.44 17.533 506.626 22.4931 506.62 29.2598Z" fill="#595857"/>
<path d="M553.78 38.9097H535.38V35.3496L553.32 6.15967H558.78V35.3496H564.86V38.9097H558.78V51.5398H553.78V38.9097ZM540.23 35.3496H553.78V13.0796L540.23 35.3496Z" fill="#595857"/>
<path d="M572.37 25.96H592.27V30.1899H572.37V25.96Z" fill="#595857"/>
<path d="M600.5 29.2598C600.5 21.7664 601.757 16.0463 604.27 12.0996C606.783 8.15294 610.18 6.173 614.46 6.15967C618.787 6.15967 622.206 8.13961 624.72 12.0996C627.233 16.0596 628.49 21.7798 628.49 29.2598C628.49 36.7064 627.233 42.4063 624.72 46.3596C622.206 50.313 618.787 52.2931 614.46 52.2998C610.18 52.2998 606.783 50.3196 604.27 46.3596C601.757 42.3996 600.5 36.6998 600.5 29.2598ZM606.02 29.2598C606.02 35.9864 606.833 40.9263 608.46 44.0796C610.087 47.2329 612.087 48.8098 614.46 48.8098C616.88 48.8098 618.906 47.2329 620.54 44.0796C622.173 40.9263 622.987 35.9864 622.98 29.2598C622.98 22.4864 622.166 17.5263 620.54 14.3796C618.913 11.233 616.887 9.65632 614.46 9.64966C612.087 9.64966 610.087 11.2263 608.46 14.3796C606.833 17.533 606.02 22.4931 606.02 29.2598V29.2598Z" fill="#595857"/>
<path d="M636.78 17.7099C636.78 14.0699 637.943 11.2365 640.27 9.20985C642.597 7.18318 645.69 6.16647 649.55 6.1598C652.948 5.99746 656.28 7.13435 658.87 9.33973C660.054 10.4319 660.984 11.7711 661.594 13.2623C662.204 14.7536 662.479 16.3606 662.4 17.9699C662.47 19.4817 662.192 20.9894 661.587 22.3766C660.982 23.7638 660.066 24.9932 658.91 25.9699C657.977 26.7772 656.916 27.4227 655.77 27.8798C657.217 28.4722 658.539 29.3304 659.67 30.4098C660.894 31.5622 661.861 32.959 662.511 34.5094C663.16 36.0598 663.477 37.7293 663.44 39.4098C663.44 43.5898 662.15 46.7932 659.57 49.0199C656.684 51.1816 653.175 52.3497 649.57 52.3497C645.964 52.3497 642.456 51.1816 639.57 49.0199C637.01 46.7999 635.73 43.5965 635.73 39.4098C635.693 37.7293 636.009 36.0598 636.659 34.5094C637.308 32.959 638.276 31.5622 639.5 30.4098C640.634 29.3303 641.96 28.4722 643.41 27.8798C642.274 27.3641 641.217 26.6908 640.27 25.8798C639.113 24.867 638.198 23.6068 637.594 22.1925C636.99 20.7782 636.711 19.2462 636.78 17.7099V17.7099ZM641.04 39.4198C641.04 42.4998 641.853 44.8565 643.48 46.4899C644.271 47.2899 645.218 47.9191 646.262 48.3388C647.306 48.7584 648.425 48.9597 649.55 48.9298C650.687 48.9642 651.819 48.7655 652.877 48.3458C653.935 47.9262 654.895 47.2946 655.7 46.4899C657.32 44.8599 658.14 42.4898 658.14 39.4198C658.29 36.8125 657.414 34.25 655.7 32.2799C654.915 31.4403 653.961 30.7769 652.901 30.3339C651.841 29.8908 650.698 29.6781 649.55 29.7099C648.414 29.6824 647.284 29.8976 646.238 30.3407C645.191 30.7839 644.251 31.4449 643.48 32.2799C641.741 34.2384 640.846 36.8046 640.99 39.4198H641.04ZM642.04 17.7099C641.968 18.8542 642.123 20.0014 642.496 21.0858C642.868 22.1703 643.45 23.1709 644.21 24.0299C644.897 24.7612 645.73 25.3395 646.655 25.7272C647.58 26.1149 648.577 26.3032 649.58 26.2799C650.578 26.3045 651.571 26.1287 652.5 25.7628C653.43 25.397 654.276 24.8484 654.99 24.1498C656.46 22.7398 657.19 20.6699 657.19 17.9699C657.262 16.8428 657.104 15.7129 656.726 14.6488C656.347 13.5847 655.757 12.6087 654.99 11.7799C654.285 11.0653 653.442 10.5022 652.511 10.1256C651.581 9.74901 650.583 9.56659 649.58 9.58973C648.593 9.56233 647.611 9.73035 646.689 10.0839C645.767 10.4374 644.925 10.9695 644.21 11.6498C643.434 12.4478 642.833 13.399 642.445 14.4425C642.058 15.486 641.893 16.5988 641.96 17.7099H642.04Z" fill="#595857"/>
<path d="M692.29 10.6697H678.29C677.25 10.6665 676.241 11.0194 675.43 11.6697C674.59 12.3297 674.01 13.6098 673.68 15.5098C673.659 15.8583 673.501 16.1844 673.241 16.4167C672.98 16.6491 672.638 16.7689 672.29 16.7498C671.49 16.7498 671.1 16.3598 671.1 15.5098L671.31 7.19971H698.12V9.73975L682.69 51.9397H677.45L692.29 10.6697Z" fill="#595857"/>
<path d="M727.33 10.6697H713.33C712.29 10.6665 711.281 11.0194 710.47 11.6697C709.63 12.3297 709.05 13.6098 708.72 15.5098C708.7 15.8583 708.541 16.1844 708.281 16.4167C708.02 16.6491 707.678 16.7689 707.33 16.7498C706.54 16.7498 706.14 16.3598 706.14 15.5098L706.35 7.19971H733.16V9.73975L717.73 51.9397H712.49L727.33 10.6697Z" fill="#595857"/>
<path d="M762.65 29.0099C761.947 30.2443 760.938 31.2772 759.721 32.0099C757.763 33.184 755.513 33.7803 753.23 33.7299C751.522 33.8061 749.818 33.501 748.242 32.8368C746.666 32.1727 745.258 31.1659 744.12 29.8898C741.786 27.1215 740.576 23.5777 740.73 19.9599C740.73 15.7666 741.93 12.4031 744.33 9.86981C746.73 7.33648 750.114 6.0466 754.48 5.99994C758.387 5.95327 761.6 7.69658 764.12 11.2299C766.64 14.7632 767.897 20.4631 767.891 28.3298C767.955 32.5921 767.33 36.8368 766.04 40.8998C765.118 44.1019 763.258 46.9545 760.7 49.0898C758.157 51.0146 755.06 52.0667 751.87 52.0898C748.714 52.2865 745.573 51.5118 742.87 49.8698V46.4399C744.35 47.2755 745.97 47.8345 747.65 48.0898C748.794 48.2416 749.947 48.3284 751.101 48.3498C752.75 48.3418 754.372 47.926 755.822 47.1391C757.272 46.3522 758.504 45.2186 759.41 43.8398C761.523 41.0131 762.604 36.0699 762.65 29.0099ZM762.511 23.2299C762.191 18.9999 761.44 15.8698 760.28 13.8398C758.654 11.0131 756.654 9.53317 754.28 9.39984C753.116 9.29253 751.945 9.50066 750.89 10.0021C749.834 10.5036 748.932 11.28 748.28 12.2499C746.756 14.4693 745.985 17.1194 746.08 19.81C746.08 23.49 746.87 26.1567 748.45 27.81C749.102 28.5663 749.905 29.1775 750.808 29.6047C751.71 30.0318 752.692 30.2654 753.69 30.29C755.744 30.2347 757.715 29.4715 759.27 28.1298C760.924 26.9402 762.078 25.1804 762.511 23.1899V23.2299Z" fill="#595857"/>
<path d="M782.89 26.53C784.26 25.4861 785.868 24.7988 787.57 24.53C788.979 24.3188 790.407 24.2549 791.83 24.3398C794.84 24.483 797.69 25.7372 799.83 27.8599C802.11 30.0399 803.25 33.1165 803.25 37.0898C803.326 39.0606 802.982 41.0252 802.241 42.8528C801.499 44.6804 800.377 46.3293 798.95 47.6899C796.09 50.4033 792.286 51.84 787.54 52C785.52 52.0824 783.498 51.8701 781.54 51.3699C779.822 50.9809 778.183 50.3047 776.69 49.3699V45.95C778.807 47.0363 781.082 47.7853 783.43 48.1699C785.239 48.509 787.093 48.5293 788.91 48.23C791.537 47.757 793.926 46.4025 795.68 44.3899C797.424 42.209 798.315 39.4692 798.19 36.6799C798.263 35.5193 798.106 34.3558 797.728 33.2559C797.351 32.1559 796.76 31.1412 795.99 30.27C794.492 28.7298 792.447 27.8423 790.299 27.8C788.863 27.6956 787.422 27.9106 786.08 28.4299C784.715 29.0056 783.523 29.9255 782.62 31.0999H777.74L778.99 6.79004H800.28V10.47H783.6L782.89 26.53Z" fill="#595857"/>
</svg>
