<svg width="1236" height="770" viewBox="0 0 1236 770" fill="none" xmlns="http://www.w3.org/2000/svg">
<path d="M137.34 627.44C137.342 629.126 136.844 630.774 135.909 632.176C134.974 633.579 133.644 634.672 132.087 635.319C130.531 635.965 128.817 636.135 127.164 635.808C125.511 635.48 123.991 634.669 122.799 633.478C121.606 632.287 120.794 630.769 120.464 629.116C120.135 627.463 120.303 625.749 120.948 624.192C121.592 622.635 122.684 621.303 124.085 620.367C125.487 619.43 127.134 618.93 128.82 618.93C129.938 618.929 131.046 619.148 132.079 619.575C133.113 620.002 134.052 620.629 134.844 621.419C135.635 622.209 136.263 623.148 136.691 624.181C137.12 625.214 137.34 626.322 137.34 627.44Z" fill="#595857"/>
<path d="M146.47 720.76L129.19 746.18L111.93 720.76H146.47Z" fill="#595857"/>
<path d="M466.1 208.2C466.1 218.287 463.109 228.147 457.505 236.534C451.901 244.921 443.936 251.458 434.617 255.318C425.298 259.178 415.044 260.188 405.15 258.22C395.257 256.252 386.17 251.395 379.038 244.263C371.905 237.13 367.048 228.043 365.08 218.15C363.112 208.257 364.122 198.002 367.982 188.683C371.842 179.364 378.379 171.399 386.766 165.795C395.153 160.191 405.013 157.2 415.1 157.2C428.626 157.2 441.598 162.573 451.163 172.138C460.727 181.702 466.1 194.674 466.1 208.2Z" fill="#609BA7"/>
<path d="M422.16 189.31H410.89L404.43 202.37L397.96 189.31H386.73C386.427 189.31 386.127 189.37 385.848 189.486C385.568 189.602 385.314 189.773 385.1 189.987C384.886 190.202 384.717 190.457 384.602 190.737C384.487 191.017 384.429 191.317 384.43 191.62V209.62C384.43 212.9 379.73 212.97 379.73 212.97V214.53H389.45C390.062 214.527 390.648 214.283 391.081 213.85C391.513 213.418 391.757 212.832 391.76 212.22V194.67C391.76 193.84 392.08 191.3 394.86 191.3H395.93L396.09 191.43L403.01 205.18L399.86 211.54V213.61L400.63 214.52H408.22L408.99 213.61V211.54L405.84 205.18L412.76 191.43L412.93 191.3H417.17C417.16 191.393 417.16 191.487 417.17 191.58V209.58C417.17 212.86 412.48 212.93 412.48 212.93V214.49H422.2C422.811 214.487 423.396 214.243 423.827 213.81C424.258 213.377 424.5 212.791 424.5 212.18V194.18C424.5 190.9 429.2 190.82 429.2 190.82V189.27L422.16 189.31ZM405.71 210.59V213H403.14V210.59L404.43 208.05L405.71 210.59Z" fill="white"/>
<path d="M444.47 189.31H434.75V190.86C434.75 190.86 439.44 190.94 439.44 194.22V207C439.44 212 435.44 211.55 435.44 211.55C431.64 211.55 431.13 205.63 431.13 205.63H429.19C429.19 214.76 434.78 214.52 434.78 214.52H444.5C444.802 214.521 445.102 214.463 445.382 214.348C445.661 214.233 445.916 214.063 446.129 213.849C446.343 213.635 446.512 213.381 446.627 213.102C446.743 212.822 446.801 212.522 446.8 212.22V194.22C446.8 190.94 451.5 190.86 451.5 190.86V189.31H444.47Z" fill="white"/>
<g opacity="0.82">
<path d="M378.15 225.54L379.09 225.78C378.94 226.462 378.567 227.074 378.03 227.52C377.502 227.938 376.843 228.154 376.17 228.13C375.522 228.155 374.881 227.996 374.32 227.67C373.832 227.339 373.456 226.869 373.24 226.32C372.986 225.726 372.856 225.086 372.86 224.44C372.849 223.775 372.996 223.117 373.29 222.52C373.547 221.992 373.963 221.558 374.48 221.28C375.002 220.988 375.592 220.84 376.19 220.85C376.824 220.828 377.447 221.018 377.96 221.39C378.451 221.769 378.803 222.3 378.96 222.9L378.04 223.12C377.923 222.683 377.675 222.292 377.33 222C376.989 221.758 376.578 221.635 376.16 221.65C375.677 221.633 375.2 221.769 374.8 222.04C374.446 222.283 374.18 222.634 374.04 223.04C373.707 223.985 373.707 225.015 374.04 225.96C374.185 226.378 374.472 226.732 374.85 226.96C375.209 227.178 375.621 227.292 376.04 227.29C376.523 227.306 376.996 227.146 377.37 226.84C377.757 226.488 378.014 226.016 378.1 225.5" fill="white"/>
<path d="M381.91 224.58C381.854 223.579 382.191 222.596 382.85 221.84C383.162 221.511 383.539 221.252 383.958 221.08C384.377 220.908 384.827 220.826 385.28 220.84C385.898 220.831 386.506 220.99 387.04 221.3C387.554 221.61 387.967 222.061 388.23 222.6C388.507 223.195 388.65 223.844 388.65 224.5C388.65 225.156 388.507 225.805 388.23 226.4C387.961 226.94 387.536 227.386 387.01 227.68C386.487 227.97 385.898 228.121 385.3 228.12C384.673 228.131 384.056 227.965 383.52 227.64C383.007 227.329 382.596 226.873 382.34 226.33C382.071 225.782 381.931 225.18 381.93 224.57M382.93 224.57C382.891 225.301 383.139 226.019 383.62 226.57C383.843 226.802 384.109 226.987 384.405 227.114C384.701 227.24 385.019 227.305 385.34 227.305C385.662 227.305 385.98 227.24 386.276 227.114C386.571 226.987 386.838 226.802 387.06 226.57C387.546 225.982 387.789 225.231 387.74 224.47C387.751 223.958 387.652 223.45 387.45 222.98C387.273 222.57 386.977 222.221 386.6 221.98C386.221 221.747 385.785 221.626 385.34 221.63C384.706 221.624 384.096 221.869 383.64 222.31C383.376 222.622 383.177 222.983 383.055 223.373C382.933 223.763 382.891 224.173 382.93 224.58" fill="white"/>
<path d="M391.8 228.01V220.97H392.75L396.45 226.5V220.97H397.34V228.01H396.39L392.69 222.48V228.01H391.8Z" fill="white"/>
<path d="M402.88 228L400.16 221H401.16L402.98 226.11C403.13 226.53 403.25 226.91 403.35 227.27C403.46 226.88 403.59 226.5 403.73 226.11L405.63 221H406.58L403.83 228H402.88Z" fill="white"/>
<path d="M409.41 228.01V220.97H414.5V221.8H410.34V223.96H414.23V224.78H410.34V227.18H414.66V228.01H409.41Z" fill="white"/>
<path d="M417.9 228.01V220.97H418.86L422.56 226.5V220.97H423.44V228.01H422.49L418.8 222.48V228.01H417.9Z" fill="white"/>
<path d="M428.76 228.01V221.8H426.44V220.97H432.02V221.8H429.7V228.01H428.76Z" fill="white"/>
<path d="M436.03 220.97H435.1V228H436.03V220.97Z" fill="white"/>
<path d="M439.35 224.58C439.294 223.579 439.631 222.596 440.29 221.84C440.602 221.511 440.979 221.252 441.398 221.08C441.817 220.908 442.268 220.826 442.72 220.84C443.338 220.831 443.946 220.99 444.48 221.3C444.996 221.607 445.41 222.059 445.67 222.6C445.953 223.193 446.1 223.842 446.1 224.5C446.1 225.157 445.953 225.807 445.67 226.4C445.401 226.94 444.976 227.386 444.45 227.68C443.927 227.97 443.339 228.121 442.74 228.12C442.114 228.13 441.497 227.964 440.96 227.64C440.446 227.329 440.036 226.873 439.78 226.33C439.511 225.782 439.371 225.18 439.37 224.57M440.37 224.57C440.331 225.301 440.579 226.019 441.06 226.57C441.278 226.808 441.544 226.997 441.841 227.123C442.137 227.249 442.458 227.309 442.78 227.3C443.103 227.31 443.425 227.249 443.722 227.121C444.02 226.993 444.285 226.802 444.5 226.56C444.986 225.972 445.229 225.221 445.18 224.46C445.191 223.948 445.092 223.44 444.89 222.97C444.713 222.56 444.417 222.211 444.04 221.97C443.665 221.739 443.231 221.618 442.79 221.62C442.153 221.613 441.539 221.857 441.08 222.3C440.816 222.612 440.617 222.973 440.495 223.363C440.373 223.753 440.331 224.163 440.37 224.57" fill="white"/>
<path d="M449.24 228.01V220.97H450.19L453.89 226.5V220.97H454.78V228.01H453.82L450.13 222.48V228.01H449.24Z" fill="white"/>
</g>
<path d="M1233.14 128.4H116.14C115.571 128.362 115.037 128.109 114.647 127.692C114.257 127.275 114.04 126.726 114.04 126.155C114.04 125.584 114.257 125.035 114.647 124.618C115.037 124.201 115.571 123.948 116.14 123.91H1233.14C1233.71 123.948 1234.24 124.201 1234.63 124.618C1235.02 125.035 1235.24 125.584 1235.24 126.155C1235.24 126.726 1235.02 127.275 1234.63 127.692C1234.24 128.109 1233.71 128.362 1233.14 128.4Z" fill="#595857"/>
<path d="M1233.14 670.11H2.87988C2.57246 670.131 2.26431 670.088 1.97412 669.984C1.68393 669.881 1.41787 669.719 1.19287 669.508C0.967868 669.298 0.78865 669.044 0.666016 668.761C0.543381 668.478 0.47998 668.173 0.47998 667.865C0.47998 667.557 0.543381 667.252 0.666016 666.97C0.78865 666.687 0.967868 666.433 1.19287 666.222C1.41787 666.012 1.68393 665.85 1.97412 665.746C2.26431 665.643 2.57246 665.6 2.87988 665.62H1233.14C1233.71 665.658 1234.24 665.911 1234.63 666.328C1235.02 666.745 1235.24 667.294 1235.24 667.865C1235.24 668.436 1235.02 668.986 1234.63 669.402C1234.24 669.819 1233.71 670.072 1233.14 670.11" fill="#595857"/>
<path d="M536.08 670.11C535.785 670.11 535.493 670.052 535.221 669.939C534.948 669.826 534.701 669.66 534.493 669.451C534.285 669.242 534.12 668.993 534.008 668.721C533.896 668.448 533.839 668.155 533.84 667.86V126.15C533.84 125.856 533.898 125.565 534.011 125.293C534.123 125.021 534.288 124.774 534.496 124.566C534.704 124.358 534.951 124.193 535.223 124.081C535.494 123.968 535.786 123.91 536.08 123.91C536.374 123.91 536.665 123.968 536.937 124.081C537.209 124.193 537.456 124.358 537.664 124.566C537.872 124.774 538.037 125.021 538.149 125.293C538.262 125.565 538.32 125.856 538.32 126.15V667.86C538.321 668.155 538.264 668.448 538.152 668.721C538.04 668.993 537.876 669.242 537.668 669.451C537.459 669.66 537.212 669.826 536.939 669.939C536.667 670.052 536.375 670.11 536.08 670.11Z" fill="#595857"/>
<path d="M953.3 406.45C953.005 406.45 952.713 406.392 952.44 406.279C952.168 406.166 951.921 406 951.712 405.791C951.504 405.582 951.34 405.333 951.228 405.06C951.116 404.788 951.059 404.495 951.06 404.2V126.15C951.06 125.556 951.296 124.986 951.716 124.566C952.136 124.146 952.706 123.91 953.3 123.91C953.894 123.91 954.464 124.146 954.884 124.566C955.304 124.986 955.54 125.556 955.54 126.15V404.2C955.541 404.495 955.485 404.788 955.373 405.06C955.261 405.333 955.096 405.582 954.888 405.791C954.68 406 954.432 406.166 954.16 406.279C953.887 406.392 953.595 406.45 953.3 406.45" fill="#595857"/>
<path d="M536.08 516.73C535.905 516.73 535.731 516.71 535.56 516.67L88.7403 408.88C88.1621 408.739 87.663 408.375 87.3536 407.866C87.0441 407.358 86.9493 406.748 87.0899 406.17C87.2305 405.592 87.5953 405.093 88.1036 404.783C88.6118 404.474 89.2217 404.379 89.7999 404.52L536.06 512.17L952.73 402L1232.28 291.23C1232.55 291.117 1232.84 291.06 1233.14 291.061C1233.43 291.061 1233.73 291.12 1234 291.233C1234.27 291.346 1234.52 291.512 1234.73 291.721C1234.93 291.93 1235.1 292.177 1235.21 292.45C1235.32 292.722 1235.38 293.014 1235.38 293.309C1235.38 293.604 1235.32 293.895 1235.21 294.167C1235.09 294.44 1234.93 294.687 1234.72 294.895C1234.51 295.103 1234.26 295.267 1233.99 295.38L954.15 406.25L536.66 516.62C536.472 516.676 536.276 516.703 536.08 516.7" fill="#595857"/>
<path d="M1199.28 158.81L1224.7 176.09L1199.28 193.35V158.81Z" fill="#595857"/>
<path d="M583.88 627.44C583.882 629.126 583.384 630.774 582.449 632.176C581.514 633.579 580.184 634.672 578.627 635.319C577.071 635.965 575.357 636.135 573.704 635.808C572.051 635.48 570.531 634.669 569.339 633.478C568.146 632.287 567.334 630.769 567.004 629.116C566.675 627.463 566.843 625.749 567.488 624.192C568.132 622.635 569.224 621.303 570.625 620.367C572.027 619.43 573.674 618.93 575.36 618.93C576.478 618.929 577.586 619.148 578.619 619.575C579.653 620.002 580.592 620.629 581.384 621.419C582.175 622.209 582.803 623.148 583.231 624.181C583.66 625.214 583.88 626.322 583.88 627.44" fill="#595857"/>
<path d="M583.88 181C583.88 182.685 583.381 184.332 582.444 185.733C581.508 187.135 580.178 188.227 578.621 188.871C577.064 189.516 575.351 189.685 573.698 189.356C572.045 189.028 570.527 188.216 569.336 187.025C568.144 185.833 567.333 184.315 567.004 182.662C566.675 181.009 566.844 179.296 567.489 177.74C568.134 176.183 569.225 174.852 570.627 173.916C572.028 172.98 573.675 172.48 575.36 172.48C577.62 172.48 579.787 173.378 581.385 174.975C582.983 176.573 583.88 178.74 583.88 181Z" fill="#595857"/>
<path d="M116.15 126.15C116.152 131.467 114.578 136.665 111.625 141.087C108.673 145.508 104.475 148.955 99.5636 150.991C94.6521 153.027 89.2473 153.561 84.0324 152.525C78.8175 151.489 74.027 148.93 70.2668 145.171C66.5065 141.412 63.9454 136.622 62.9074 131.408C61.8694 126.193 62.401 120.788 64.4352 115.876C66.4694 110.964 69.915 106.765 74.3356 103.811C78.7562 100.857 83.9534 99.2803 89.2702 99.2803C92.7997 99.279 96.2947 99.973 99.5558 101.323C102.817 102.673 105.78 104.651 108.277 107.147C110.773 109.642 112.753 112.605 114.104 115.865C115.455 119.126 116.15 122.621 116.15 126.15V126.15Z" fill="#595857" stroke="#595857" stroke-width="6.27" stroke-miterlimit="10"/>
<path d="M62.3901 128.4H2.87012C2.3006 128.362 1.76688 128.109 1.37695 127.692C0.987025 127.275 0.77002 126.726 0.77002 126.155C0.77002 125.584 0.987025 125.035 1.37695 124.618C1.76688 124.201 2.3006 123.948 2.87012 123.91H62.3901C62.6976 123.889 63.0057 123.932 63.2959 124.036C63.5861 124.139 63.8521 124.301 64.0771 124.512C64.3022 124.722 64.4814 124.977 64.604 125.259C64.7266 125.542 64.79 125.847 64.79 126.155C64.79 126.463 64.7266 126.768 64.604 127.05C64.4814 127.333 64.3022 127.587 64.0771 127.798C63.8521 128.008 63.5861 128.17 63.2959 128.274C63.0057 128.378 62.6976 128.42 62.3901 128.4Z" fill="#595857"/>
<path d="M89.27 769.93C88.975 769.93 88.6831 769.871 88.4107 769.758C88.1382 769.645 87.8908 769.479 87.6826 769.27C87.4745 769.061 87.3098 768.813 87.1978 768.54C87.0858 768.267 87.0285 767.975 87.0298 767.68V153C87.0298 152.406 87.266 151.836 87.6861 151.416C88.1061 150.996 88.676 150.76 89.27 150.76C89.8641 150.76 90.4339 150.996 90.854 151.416C91.2741 151.836 91.5098 152.406 91.5098 153V767.65C91.5111 767.945 91.4543 768.237 91.3423 768.51C91.2303 768.783 91.0656 769.031 90.8574 769.24C90.6493 769.449 90.4018 769.615 90.1294 769.728C89.857 769.841 89.565 769.9 89.27 769.9" fill="#595857"/>
<path d="M89.2699 100.28C88.9698 100.284 88.6718 100.228 88.3939 100.115C88.116 100.001 87.864 99.8333 87.6522 99.6207C87.4405 99.408 87.2735 99.1549 87.1615 98.8765C87.0494 98.5981 86.9945 98.3001 86.9999 98V2.71002C86.9999 2.11594 87.236 1.54618 87.6561 1.1261C88.0762 0.706017 88.646 0.469971 89.2401 0.469971C89.8342 0.469971 90.4035 0.706017 90.8236 1.1261C91.2437 1.54618 91.4799 2.11594 91.4799 2.71002V98C91.4799 98.5941 91.2437 99.1638 90.8236 99.5839C90.4035 100.004 89.8342 100.24 89.2401 100.24" fill="#595857"/>
<path d="M89.27 153.03C104.115 153.03 116.15 140.995 116.15 126.15C116.15 111.305 104.115 99.27 89.27 99.27C74.4246 99.27 62.3901 111.305 62.3901 126.15C62.3901 140.995 74.4246 153.03 89.27 153.03Z" fill="#595857" stroke="#595857" stroke-width="6.34" stroke-miterlimit="10"/>
<path d="M86.0497 116.36L85.2699 116.63C85.1546 116.701 85.0259 116.747 84.892 116.767C84.758 116.787 84.6215 116.779 84.4906 116.745C84.3597 116.71 84.237 116.649 84.1303 116.566C84.0235 116.483 83.9352 116.378 83.87 116.26C83.7933 116.16 83.7414 116.044 83.7186 115.921C83.6959 115.797 83.703 115.67 83.7391 115.55C83.7753 115.429 83.8395 115.32 83.9266 115.229C84.0138 115.139 84.1213 115.07 84.2401 115.03L90.1498 111.51H91.9198V139.93H88.2997V118C88.3439 117.689 88.3195 117.372 88.2279 117.071C88.1363 116.77 87.98 116.493 87.7699 116.26C87.4199 116 86.8397 116.05 86.0497 116.36Z" fill="white"/>
<path d="M395.69 270.17L402.85 294.67L410.44 270.21H418.44V303.28H412.88V280.48L406.05 301.17C405.874 301.812 405.495 302.381 404.97 302.79C404.422 303.139 403.779 303.311 403.13 303.28H399.93L393.28 279.77V303.28H388V275.68C388.041 275.07 387.977 274.458 387.81 273.87C387.759 273.736 387.678 273.615 387.572 273.518C387.466 273.42 387.339 273.349 387.2 273.31C386.768 273.153 386.358 272.941 385.98 272.68C385.828 272.565 385.708 272.412 385.633 272.237C385.557 272.062 385.529 271.87 385.55 271.68C385.55 270.68 386.23 270.16 387.55 270.16L395.69 270.17Z" fill="#609BA7"/>
<path d="M433.52 294.13V275.6C433.561 275.003 433.497 274.404 433.33 273.83C433.271 273.689 433.174 273.566 433.051 273.475C432.928 273.383 432.783 273.326 432.63 273.31C432.22 273.16 431.78 272.99 431.31 272.79C431.08 272.694 430.886 272.527 430.758 272.312C430.63 272.098 430.575 271.848 430.6 271.6C430.6 270.65 431.26 270.17 432.6 270.17H437.55C438.84 270.17 439.48 270.66 439.48 271.65V294.31C439.48 297.483 438.663 299.817 437.03 301.31C435.146 302.878 432.737 303.672 430.29 303.53C427.29 303.53 424.98 302.92 423.51 301.69C422.75 301.014 422.155 300.174 421.77 299.232C421.385 298.291 421.221 297.274 421.29 296.26H427.29C427.29 297.78 427.61 298.74 428.16 299.13C428.765 299.535 429.483 299.738 430.21 299.71C430.661 299.704 431.104 299.597 431.508 299.396C431.911 299.195 432.264 298.906 432.54 298.55C433.19 297.75 433.52 296.28 433.52 294.13Z" fill="#609BA7"/>
<path d="M358.92 322.45C357.92 322.45 357.41 321.75 357.41 320.34C357.41 318.93 357.95 318.27 359.01 318.27H375.6C375.925 318.263 376.246 318.346 376.528 318.508C376.81 318.67 377.042 318.906 377.2 319.19C377.559 319.744 377.723 320.402 377.67 321.06C377.093 323.803 376.08 326.437 374.67 328.86C374.942 328.607 375.299 328.465 375.67 328.46H383.07V318.86C383.138 318.644 383.157 318.416 383.127 318.191C383.097 317.967 383.019 317.752 382.897 317.562C382.775 317.371 382.612 317.209 382.421 317.088C382.23 316.967 382.015 316.889 381.79 316.86C381.177 316.759 380.583 316.563 380.03 316.28C379.826 316.173 379.658 316.009 379.544 315.809C379.431 315.609 379.377 315.38 379.39 315.15C379.39 313.99 380.08 313.4 381.46 313.4H386.46C388.15 313.4 389 314.09 389 315.47V342.3C389 345.173 387.477 346.61 384.43 346.61H383.07V332.7H375.67C374.63 332.7 374.11 332.01 374.11 330.63C374.101 330.251 374.151 329.873 374.26 329.51C373.413 330.959 372.435 332.328 371.34 333.6C368.237 337.317 364.422 340.377 360.12 342.6C358.494 343.56 357.317 343.643 356.59 342.85C355.863 342.057 355.973 341.317 356.92 340.63C360.541 338.31 363.676 335.308 366.15 331.79H358.85C357.69 331.79 357.11 331.08 357.11 329.68C357.11 328.28 357.66 327.61 358.76 327.61H368.76C369.651 325.995 370.346 324.279 370.83 322.5L358.92 322.45ZM389.26 356.77H371.83C368.657 356.77 367.07 355.41 367.07 352.69V347.58C367.07 346.71 366.95 346.17 366.72 345.96C366.425 345.718 366.085 345.535 365.72 345.42C365.157 345.327 364.624 345.097 364.17 344.75C363.94 344.469 363.823 344.113 363.84 343.75C363.84 342.75 364.45 342.18 365.68 342.18H370.53C372.19 342.18 373.03 342.86 373.03 344.24V351.6C373.03 352.267 373.31 352.6 373.87 352.6H389.47C390.47 352.6 391.02 353.3 391.02 354.71C391.02 356.12 390.42 356.77 389.26 356.77Z" fill="#609BA7"/>
<path d="M402.12 325.72H407.68V323C407.725 322.548 407.678 322.092 407.54 321.66C407.461 321.546 407.344 321.465 407.21 321.43C406.792 321.292 406.395 321.097 406.03 320.85C405.887 320.727 405.775 320.573 405.702 320.4C405.629 320.226 405.597 320.038 405.61 319.85C405.61 318.85 406.32 318.27 407.73 318.27H410.27C412.09 318.27 413.01 318.93 413.01 320.27V327.13H416.82V321C416.887 320.46 416.789 319.913 416.54 319.43C416.279 319.182 415.953 319.012 415.6 318.94C415.029 318.824 414.474 318.636 413.95 318.38C413.773 318.285 413.628 318.138 413.536 317.96C413.443 317.782 413.406 317.58 413.43 317.38C413.43 316.28 414.09 315.72 415.43 315.72H419.67C421.33 315.72 422.17 316.4 422.17 317.72V341.32C422.17 344.2 420.78 345.63 418.02 345.63H416.84V331.23H413V333.43C413.025 334.234 412.861 335.032 412.52 335.76C413.28 335.97 413.66 336.63 413.66 337.76C413.66 339.17 413.07 339.87 411.91 339.87H400.8C400.433 340.299 399.971 340.637 399.45 340.856C398.929 341.075 398.364 341.169 397.8 341.13H396.58V324.48C396.614 323.99 396.573 323.498 396.46 323.02C396.38 322.86 396.3 322.76 396.2 322.73C395.838 322.602 395.484 322.452 395.14 322.28C394.955 322.175 394.804 322.017 394.708 321.827C394.612 321.636 394.574 321.422 394.6 321.21C394.6 320.21 395.31 319.64 396.72 319.64H399.64C401.27 319.64 402.09 320.29 402.09 321.64L402.12 325.72ZM407.68 329.9H402.12V335.73H407.68V329.9ZM411.92 345.11V351.57C411.92 352.23 412.21 352.57 412.77 352.57H429.83C430.83 352.57 431.29 353.27 431.29 354.68C431.29 356.09 430.75 356.78 429.68 356.78H410.74C407.567 356.78 405.984 355.407 405.99 352.66V348.53C405.99 347.63 405.87 347.09 405.63 346.89C405.329 346.66 404.991 346.484 404.63 346.37C404.072 346.253 403.549 346.01 403.1 345.66C402.975 345.527 402.878 345.369 402.816 345.197C402.755 345.025 402.729 344.842 402.74 344.66C402.74 343.61 403.36 343.09 404.58 343.09H409.48C411.1 343.09 411.92 343.76 411.92 345.11V345.11ZM430.39 315.54V342.37C430.39 345.243 428.9 346.68 425.92 346.68H424.78V318.81C424.827 318.287 424.755 317.761 424.57 317.27C424.341 316.985 424.012 316.799 423.65 316.75C423.046 316.657 422.46 316.475 421.91 316.21C421.722 316.103 421.567 315.945 421.466 315.754C421.365 315.562 421.321 315.346 421.34 315.13C421.34 313.97 422.08 313.38 423.56 313.38H427.89C429.56 313.38 430.39 314.1 430.39 315.54V315.54Z" fill="#609BA7"/>
<path d="M456.58 339.23C456.327 339.5 456.015 339.708 455.668 339.837C455.32 339.965 454.948 340.011 454.58 339.97C454.158 339.943 453.746 339.822 453.376 339.616C453.006 339.41 452.686 339.125 452.44 338.78L446.83 331.51C444.489 334.807 441.644 337.716 438.4 340.13C436.7 341.35 435.56 341.53 434.98 340.67C434.698 340.267 434.582 339.771 434.656 339.285C434.731 338.799 434.99 338.36 435.38 338.06C438.053 335.633 440.28 332.756 441.96 329.56C443.302 327.129 444.247 324.499 444.76 321.77C444.784 321.65 444.777 321.525 444.741 321.408C444.704 321.291 444.638 321.185 444.55 321.1C444.281 320.828 443.929 320.656 443.55 320.61C442.55 320.4 442.04 319.84 442.11 318.93C442.18 318.02 442.75 317.56 443.79 317.56H447.46C449.06 317.56 450.1 317.92 450.57 318.63C451.065 319.439 451.279 320.387 451.18 321.33C450.892 323.661 450.159 325.916 449.02 327.97L456.32 335.68C456.847 336.186 457.152 336.88 457.17 337.61C457.19 337.906 457.148 338.204 457.046 338.483C456.945 338.762 456.786 339.016 456.58 339.23V339.23ZM467.99 356.77H450.55C447.377 356.77 445.793 355.41 445.8 352.69V347.58C445.8 346.713 445.68 346.173 445.44 345.96C445.146 345.715 444.806 345.532 444.44 345.42C443.875 345.332 443.342 345.101 442.89 344.75C442.653 344.473 442.53 344.115 442.55 343.75C442.55 342.75 443.17 342.18 444.39 342.18H449.25C450.91 342.18 451.74 342.86 451.74 344.24V351.6C451.74 352.26 452.02 352.6 452.59 352.6H468.19C469.19 352.6 469.74 353.3 469.74 354.71C469.74 356.12 469.15 356.77 468 356.77H467.99ZM461.86 346.59V333.44H455.86C454.67 333.44 454.07 332.74 454.07 331.33C454.07 329.92 454.67 329.33 455.86 329.33H461.86V325.88H455.86C454.67 325.88 454.07 325.18 454.07 323.77C454.07 322.36 454.67 321.77 455.86 321.77H461.86V319C461.937 318.438 461.82 317.867 461.53 317.38C461.26 317.144 460.938 316.976 460.59 316.89C459.974 316.787 459.377 316.592 458.82 316.31C458.619 316.201 458.453 316.036 458.341 315.836C458.23 315.636 458.177 315.409 458.19 315.18C458.19 314.02 458.85 313.43 460.19 313.43H465.27C466.97 313.43 467.82 314.12 467.82 315.5V342.33C467.82 345.2 466.29 346.64 463.25 346.64L461.86 346.59Z" fill="#609BA7"/>
<path d="M122.41 61.3L121.59 61.59C121.471 61.6704 121.337 61.7243 121.195 61.7482C121.054 61.772 120.909 61.7653 120.771 61.7283C120.632 61.6913 120.504 61.625 120.393 61.5338C120.282 61.4427 120.193 61.3289 120.13 61.2C120.047 61.0969 119.991 60.9754 119.966 60.8459C119.94 60.7163 119.946 60.5826 119.983 60.4559C120.021 60.3293 120.088 60.2135 120.18 60.1185C120.271 60.0234 120.385 59.9519 120.51 59.91L126.71 56.23H128.55V86H124.77V63.06C124.814 62.7342 124.787 62.4027 124.69 62.0884C124.593 61.7742 124.429 61.4847 124.21 61.24C123.843 60.96 123.243 60.98 122.41 61.3Z" fill="#595857"/>
<path d="M156.8 65.8901C156.454 65.8086 156.15 65.6064 155.94 65.3201C155.829 65.1042 155.801 64.8554 155.86 64.6201C155.915 64.4582 156.015 64.3151 156.147 64.2072C156.28 64.0993 156.44 64.031 156.61 64.0101C156.957 63.9419 157.313 63.9419 157.66 64.0101C159.288 64.3032 160.787 65.0845 161.96 66.2501C162.505 66.7831 162.932 67.4241 163.214 68.1318C163.497 68.8396 163.628 69.5985 163.6 70.3601C163.571 71.3249 163.332 72.2717 162.9 73.1351C162.468 73.9984 161.854 74.7576 161.1 75.3601C159.978 76.3849 158.593 77.0774 157.1 77.3601V81.9801H170.69C171.06 82.0106 171.406 82.1792 171.657 82.4525C171.909 82.7257 172.048 83.0836 172.048 83.4551C172.048 83.8266 171.909 84.1845 171.657 84.4577C171.406 84.731 171.06 84.8996 170.69 84.9301H139.69C138.83 84.9301 138.4 84.4401 138.4 83.4601C138.4 82.4601 138.83 81.9801 139.69 81.9801H153.41V77.4001C151.731 77.1616 150.159 76.4347 148.89 75.3101C148.058 74.6312 147.387 73.7755 146.927 72.8051C146.467 71.8347 146.229 70.774 146.23 69.7001C146.198 68.2765 146.611 66.8784 147.41 65.7001C148.066 64.6024 148.97 63.6741 150.05 62.9901H143.43C142.6 62.9901 142.18 62.4901 142.18 61.4801C142.18 60.4701 142.63 60.0001 143.52 60.0001H165.66C166.61 60.0001 167.08 60.4901 167.08 61.4801C167.08 62.4701 166.62 62.9901 165.7 62.9901H157.32C155.391 62.9485 153.524 63.6668 152.12 64.9901C151.447 65.5789 150.91 66.3067 150.545 67.1234C150.181 67.94 149.998 68.8259 150.01 69.72C150.007 70.3459 150.134 70.9655 150.382 71.5402C150.63 72.1149 150.993 72.6323 151.45 73.0601C152.383 73.9403 153.61 74.4421 154.893 74.468C156.176 74.4938 157.422 74.0419 158.39 73.2001C158.831 72.841 159.189 72.3922 159.443 71.8835C159.696 71.3748 159.838 70.818 159.86 70.2501C159.938 69.2261 159.632 68.2097 159 67.4001C158.411 66.7129 157.653 66.1922 156.8 65.8901V65.8901ZM149.92 55.8901L148.8 54.8901C148.551 54.6741 148.374 54.3884 148.29 54.0701C148.259 53.8937 148.269 53.7125 148.321 53.541C148.373 53.3696 148.464 53.2127 148.588 53.0832C148.712 52.9537 148.864 52.8551 149.033 52.7955C149.202 52.7359 149.382 52.7169 149.56 52.7401C149.877 52.7374 150.19 52.8021 150.48 52.9301C151.653 53.5495 152.915 53.9846 154.22 54.22C155.545 54.4098 156.882 54.4967 158.22 54.4801C158.42 54.453 158.623 54.4729 158.814 54.538C159.005 54.6032 159.178 54.7118 159.32 54.8554C159.461 54.9989 159.568 55.1735 159.63 55.3652C159.693 55.557 159.71 55.7606 159.68 55.9601C159.687 56.1729 159.638 56.3838 159.54 56.5728C159.442 56.7618 159.298 56.9226 159.12 57.0401C158.797 57.2844 158.405 57.4208 158 57.4301H154.18C152.611 57.4775 151.083 56.9147 149.92 55.8601V55.8901Z" fill="#595857"/>
<path d="M189 58.8899C188.738 60.9824 188.111 63.0129 187.15 64.8899L194.76 72.0499C195.189 72.4336 195.484 72.9456 195.6 73.5099C195.639 73.7327 195.625 73.9614 195.561 74.1782C195.497 74.395 195.384 74.594 195.23 74.7599C195.05 74.9534 194.829 75.1047 194.583 75.2032C194.338 75.3018 194.074 75.345 193.81 75.3299C193.508 75.3265 193.21 75.2587 192.936 75.1311C192.661 75.0035 192.418 74.819 192.22 74.5899L185.77 67.2198C185.636 67.48 185.478 67.7277 185.3 67.9599C183.275 71.0136 180.73 73.6876 177.78 75.8599C176.78 76.5699 176.01 76.6699 175.48 76.1699C174.95 75.6699 175.05 75.0699 175.8 74.3899C178.31 72.1133 180.432 69.4413 182.08 66.4799C183.41 64.2082 184.353 61.7311 184.87 59.1499C184.887 58.9956 184.851 58.84 184.77 58.7079C184.689 58.5757 184.565 58.4744 184.42 58.4199C184.06 58.2418 183.676 58.1171 183.28 58.0499C182.533 57.9099 182.183 57.5199 182.23 56.8799C182.23 56.2399 182.66 55.8799 183.41 55.8799H186.29C186.703 55.8246 187.124 55.8683 187.517 56.0074C187.91 56.1465 188.263 56.377 188.55 56.6799C188.962 57.3379 189.122 58.123 189 58.8899ZM204.39 90.8899H189.73C187.03 90.8899 185.73 89.6799 185.73 87.2499V82.7399C185.797 82.2081 185.665 81.6702 185.36 81.2299C185.014 80.9291 184.592 80.7286 184.14 80.6499C183.704 80.532 183.284 80.3607 182.89 80.1399C182.768 80.0481 182.672 79.9258 182.613 79.7854C182.553 79.645 182.531 79.4914 182.55 79.3399C182.55 78.5999 183 78.2399 183.92 78.2399H187.66C188.87 78.2399 189.47 78.8799 189.47 80.1599V86.9999C189.47 87.5699 189.74 87.8599 190.29 87.8599H204.48C205.42 87.8599 205.89 88.3699 205.89 89.3799C205.89 90.3899 205.38 90.8699 204.4 90.8699L204.39 90.8899ZM200.39 56.6099C200.454 56.0824 200.333 55.5491 200.05 55.0999C199.71 54.7949 199.29 54.5937 198.84 54.5199C198.361 54.4212 197.896 54.2703 197.45 54.0699C197.286 54.0089 197.146 53.8978 197.049 53.7524C196.952 53.6069 196.903 53.4346 196.91 53.2599C196.91 52.5199 197.41 52.1499 198.41 52.1499H202.28C203.52 52.1499 204.13 52.7399 204.13 53.9099V77.9999C204.13 80.5699 203.19 81.8499 201.29 81.8499H200.39V66.3799H193.39C193.193 66.404 192.994 66.3821 192.807 66.3159C192.62 66.2498 192.452 66.1412 192.314 65.9987C192.176 65.8562 192.073 65.6837 192.014 65.4948C191.954 65.3058 191.939 65.1056 191.97 64.9099C191.97 63.9099 192.45 63.3899 193.39 63.3899H200.39V56.6099Z" fill="#595857"/>
<path d="M241 81.9401V76.7801C241.051 76.2794 240.975 75.7739 240.78 75.3101C240.423 75.0168 239.989 74.8328 239.53 74.7801C239.147 74.7012 238.784 74.5483 238.46 74.3301C238.335 74.2339 238.234 74.1094 238.167 73.9669C238.099 73.8244 238.066 73.6679 238.07 73.5101C238.07 72.7701 238.59 72.4001 239.62 72.4001H243C244.2 72.4001 244.81 73.0401 244.81 74.3301V81.9401H257.92C258.29 81.9706 258.636 82.1392 258.887 82.4124C259.139 82.6857 259.278 83.0436 259.278 83.4151C259.278 83.7865 259.139 84.1444 258.887 84.4177C258.636 84.6909 258.29 84.8596 257.92 84.8901H226.92C226.06 84.8901 225.63 84.4001 225.63 83.4201C225.63 82.4201 226.06 81.9401 226.92 81.9401H241ZM245.29 58.4801C245.164 60.2085 244.618 61.8801 243.7 63.3501L254.37 70.9701C254.643 71.1315 254.874 71.3535 255.048 71.6187C255.221 71.884 255.332 72.1855 255.37 72.5001C255.401 72.7213 255.386 72.9465 255.326 73.1616C255.265 73.3768 255.161 73.5771 255.02 73.7501C254.813 73.9624 254.566 74.131 254.293 74.2462C254.02 74.3614 253.727 74.4208 253.43 74.4208C253.134 74.4208 252.84 74.3614 252.567 74.2462C252.294 74.131 252.047 73.9624 251.84 73.7501L242.08 65.6901C241.68 66.2001 241.26 66.6901 240.83 67.1601C237.992 70.2451 234.647 72.8223 230.94 74.7801C230.08 75.2401 229.44 75.1901 229.01 74.6301C228.58 74.0701 228.74 73.5601 229.48 73.1001C232.144 71.3256 234.541 69.1807 236.6 66.7301C238.529 64.6082 239.934 62.0634 240.7 59.3001C240.736 59.155 240.727 59.0024 240.673 58.8629C240.619 58.7235 240.524 58.6038 240.4 58.5201C240.049 58.2907 239.654 58.1374 239.24 58.0701C238.44 57.9001 238.08 57.4901 238.17 56.8401C238.26 56.1901 238.74 55.8401 239.63 55.8401H242.47C242.88 55.7885 243.297 55.827 243.691 55.9531C244.085 56.0792 244.446 56.2898 244.75 56.5701C245.179 57.1098 245.387 57.7928 245.33 58.4801H245.29Z" fill="#595857"/>
<path d="M276.25 60.1599C275.937 62.7765 275.151 65.3145 273.93 67.6499L282.27 75.6499C282.743 76.053 283.044 76.622 283.11 77.2399C283.163 77.5004 283.141 77.7708 283.045 78.019C282.949 78.2671 282.784 78.4827 282.57 78.6399C282.338 78.8343 282.06 78.9673 281.763 79.0267C281.466 79.0861 281.159 79.07 280.87 78.9799C280.287 78.8045 279.771 78.4557 279.39 77.9799L272.55 70.0799L272.47 70.2399C270.425 73.7746 267.775 76.9224 264.64 79.5399C264.412 79.7836 264.104 79.9377 263.772 79.9744C263.44 80.011 263.106 79.9279 262.83 79.7399C262.29 79.3599 262.33 78.8399 262.96 78.1899C265.557 75.454 267.701 72.3212 269.31 68.9099C270.617 66.3497 271.537 63.61 272.04 60.7799C272.059 60.6291 272.029 60.4762 271.955 60.3433C271.882 60.2104 271.768 60.1042 271.63 60.0399C271.242 59.8471 270.827 59.7123 270.4 59.6399C269.63 59.4999 269.26 59.1199 269.29 58.4899C269.32 57.8599 269.76 57.5499 270.62 57.5499H273.54C273.938 57.5011 274.342 57.5374 274.724 57.6564C275.107 57.7753 275.46 57.9742 275.76 58.2399C275.964 58.5118 276.113 58.8214 276.197 59.1509C276.281 59.4804 276.299 59.8233 276.25 60.1599V60.1599ZM286.79 56.6299C286.855 56.0856 286.724 55.536 286.42 55.0799C286.086 54.7847 285.678 54.5845 285.24 54.4999C284.751 54.4068 284.274 54.2558 283.82 54.0499C283.659 53.9869 283.522 53.8747 283.429 53.7292C283.335 53.5837 283.29 53.4125 283.3 53.2399C283.3 52.4999 283.8 52.1299 284.81 52.1299H288.72C289.92 52.1299 290.53 52.6999 290.53 53.8499V66.4599H295.9C296.82 66.4599 297.28 66.9799 297.28 68.0199C297.28 69.0199 296.82 69.5299 295.9 69.5299H290.53V87.5299C290.53 90.0366 289.57 91.2932 287.65 91.2999H286.79V56.6299Z" fill="#595857"/>
<path d="M300.5 64.5399C300.487 63.3841 300.72 62.2388 301.184 61.1801C301.648 60.1214 302.331 59.1737 303.19 58.3999C304.054 57.5684 305.074 56.916 306.192 56.4801C307.309 56.0442 308.501 55.8334 309.7 55.8599C312.15 55.799 314.527 56.6918 316.33 58.3499C316.376 58.4278 316.433 58.4986 316.5 58.5599C316.805 58.3238 317.185 58.2065 317.57 58.2299H325.05V56.6299C325.12 56.3865 325.134 56.1305 325.09 55.881C325.046 55.6316 324.947 55.3953 324.798 55.1901C324.65 54.9849 324.457 54.8162 324.234 54.6966C324.011 54.577 323.763 54.5097 323.51 54.4999C323.028 54.401 322.559 54.2501 322.11 54.0499C321.946 53.9889 321.806 53.8778 321.709 53.7324C321.612 53.5869 321.563 53.4145 321.57 53.2399C321.57 52.4999 322.07 52.1299 323.08 52.1299H327C328.23 52.1299 328.85 52.7199 328.85 53.8899V71.8299C328.85 74.4166 327.903 75.7132 326.01 75.7198H325.1V70.7198H317.62C317.264 70.7397 316.911 70.6375 316.62 70.4299L316.37 70.6799C315.489 71.5253 314.45 72.1885 313.313 72.6312C312.175 73.074 310.961 73.2876 309.74 73.2599C307.32 73.3089 304.978 72.3954 303.23 70.7198C302.359 69.9453 301.664 68.9927 301.193 67.9265C300.722 66.8603 300.486 65.7054 300.5 64.5399V64.5399ZM304.29 64.5399C304.271 65.2794 304.403 66.0151 304.676 66.7025C304.949 67.39 305.359 68.015 305.88 68.5399C306.37 69.0596 306.963 69.4719 307.62 69.7508C308.278 70.0296 308.986 70.1689 309.7 70.1599C310.432 70.1682 311.158 70.0291 311.835 69.7508C312.512 69.4725 313.126 69.0606 313.64 68.5399C314.693 67.4747 315.283 66.0375 315.283 64.5399C315.283 63.0422 314.693 61.605 313.64 60.5399C313.121 60.0273 312.506 59.6228 311.83 59.3499C311.153 59.0769 310.43 58.941 309.7 58.9499C308.989 58.9394 308.282 59.0751 307.625 59.3486C306.968 59.6221 306.374 60.0275 305.88 60.5399C305.359 61.0647 304.949 61.6898 304.676 62.3773C304.403 63.0647 304.271 63.8003 304.29 64.5399V64.5399ZM308.63 80.5399C307.83 80.5399 307.42 80.0299 307.42 79.0199C307.42 78.0099 307.83 77.5499 308.63 77.5499H326.82C327.91 77.5499 328.45 78.1499 328.45 79.3499V87.9999C328.45 90.7132 327.563 92.0665 325.79 92.0599H324.79V80.5099L308.63 80.5399ZM318.35 61.2099C318.836 62.263 319.086 63.41 319.08 64.5699C319.086 65.6796 318.865 66.7788 318.43 67.7999H325.05V61.2099H318.35Z" fill="#595857"/>
<path d="M173 637V631.84C173.056 631.339 172.98 630.832 172.78 630.37C172.422 630.076 171.989 629.889 171.53 629.83C171.147 629.751 170.784 629.598 170.46 629.38C170.335 629.284 170.234 629.159 170.167 629.017C170.099 628.874 170.066 628.718 170.07 628.56C170.07 627.83 170.59 627.46 171.62 627.46H174.93C176.14 627.46 176.74 628.1 176.74 629.38V637H189.85C190.248 637 190.629 637.158 190.911 637.439C191.192 637.721 191.35 638.102 191.35 638.5C191.35 638.898 191.192 639.279 190.911 639.561C190.629 639.842 190.248 640 189.85 640H158.85C157.99 640 157.56 639.51 157.56 638.52C157.56 637.53 157.99 637.05 158.85 637.05L173 637ZM177.3 613.53C177.164 615.26 176.619 616.932 175.71 618.41L186.37 626.02C186.643 626.184 186.874 626.408 187.047 626.675C187.221 626.942 187.331 627.244 187.37 627.56C187.4 627.78 187.386 628.005 187.327 628.219C187.269 628.434 187.167 628.635 187.03 628.81C186.648 629.176 186.156 629.405 185.63 629.46C185.302 629.491 184.971 629.449 184.662 629.337C184.352 629.224 184.071 629.044 183.84 628.81L174.08 620.74C173.68 621.26 173.26 621.74 172.83 622.22C169.996 625.302 166.654 627.876 162.95 629.83C162.08 630.3 161.44 630.25 161.01 629.69C160.58 629.13 160.74 628.62 161.48 628.15C164.146 626.382 166.544 624.24 168.6 621.79C170.529 619.662 171.936 617.115 172.71 614.35C172.74 614.206 172.727 614.057 172.674 613.921C172.621 613.784 172.529 613.666 172.41 613.58C172.058 613.344 171.659 613.187 171.24 613.12C170.44 612.96 170.08 612.55 170.17 611.9C170.26 611.25 170.74 610.9 171.63 610.9H174.47C174.881 610.85 175.298 610.89 175.692 611.018C176.086 611.145 176.447 611.358 176.75 611.64C177.146 612.182 177.331 612.851 177.27 613.52L177.3 613.53Z" fill="#595857"/>
<path d="M208.18 615.2C207.867 617.82 207.081 620.361 205.86 622.7L214.2 630.7C214.674 631.107 214.974 631.679 215.04 632.3C215.094 632.559 215.071 632.828 214.975 633.075C214.88 633.322 214.714 633.535 214.5 633.69C214.268 633.885 213.991 634.02 213.694 634.081C213.397 634.142 213.09 634.128 212.8 634.04C212.221 633.855 211.707 633.508 211.32 633.04L204.48 625.13L204.4 625.3C202.351 628.83 199.701 631.974 196.57 634.59C196.343 634.833 196.038 634.987 195.708 635.026C195.379 635.064 195.046 634.984 194.77 634.8C194.22 634.42 194.26 633.9 194.9 633.24C197.488 630.503 199.628 627.374 201.24 623.97C202.544 621.409 203.464 618.669 203.97 615.84C203.988 615.689 203.959 615.536 203.885 615.404C203.811 615.271 203.698 615.164 203.56 615.1C203.171 614.908 202.757 614.77 202.33 614.69C201.56 614.56 201.19 614.17 201.22 613.55C201.25 612.93 201.69 612.55 202.55 612.55H205.47C205.869 612.503 206.272 612.541 206.655 612.661C207.038 612.782 207.39 612.983 207.69 613.25C207.901 613.524 208.054 613.838 208.138 614.174C208.223 614.51 208.237 614.859 208.18 615.2V615.2ZM218.72 611.68C218.791 611.136 218.659 610.584 218.35 610.13C218.015 609.835 217.608 609.635 217.17 609.55C216.68 609.457 216.204 609.306 215.75 609.1C215.589 609.034 215.452 608.92 215.359 608.773C215.266 608.626 215.221 608.454 215.23 608.28C215.23 607.55 215.74 607.18 216.74 607.18H220.65C221.86 607.18 222.46 607.75 222.46 608.9V621.51H227.83C228.75 621.51 229.21 622.03 229.21 623.07C229.21 624.07 228.75 624.58 227.83 624.58H222.46V642.58C222.46 645.087 221.5 646.343 219.58 646.35H218.72V611.68Z" fill="#595857"/>
<path d="M250.88 631.87V642.31C250.88 645.024 249.99 646.377 248.21 646.37H247.21V631.87H233.45C232.59 631.87 232.16 631.37 232.16 630.36C232.16 629.35 232.59 628.88 233.45 628.88H264.45C264.651 628.851 264.855 628.87 265.047 628.934C265.24 628.999 265.414 629.107 265.557 629.251C265.699 629.395 265.807 629.57 265.87 629.762C265.933 629.955 265.95 630.16 265.92 630.36C265.951 630.562 265.935 630.768 265.873 630.963C265.81 631.157 265.704 631.335 265.561 631.481C265.419 631.628 265.244 631.739 265.051 631.806C264.858 631.874 264.653 631.896 264.45 631.87H250.88ZM242.19 618.19C242.208 617.691 242.175 617.192 242.09 616.7C242.01 616.41 241.73 616.19 241.25 616.02C240.954 615.921 240.666 615.797 240.39 615.65C240.261 615.58 240.154 615.474 240.085 615.344C240.016 615.214 239.986 615.067 240 614.92C240 614.23 240.5 613.92 241.51 613.92H244C244.254 613.881 244.513 613.901 244.758 613.979C245.002 614.057 245.225 614.192 245.409 614.371C245.592 614.551 245.731 614.771 245.815 615.014C245.898 615.257 245.924 615.516 245.89 615.77V621.66H252V612.61H238C237.08 612.61 236.63 612.11 236.63 611.1C236.63 610.09 237.08 609.62 238 609.62H259.12C259.32 609.593 259.523 609.613 259.714 609.678C259.905 609.743 260.078 609.852 260.22 609.995C260.361 610.139 260.468 610.314 260.53 610.505C260.593 610.697 260.61 610.901 260.58 611.1C260.58 612.1 260.11 612.61 259.16 612.61H255.72V621.66H259.16C260.11 621.66 260.58 622.15 260.58 623.14C260.606 623.337 260.585 623.536 260.52 623.724C260.455 623.911 260.348 624.08 260.206 624.219C260.065 624.357 259.893 624.461 259.705 624.522C259.516 624.583 259.316 624.6 259.12 624.57H238C237.08 624.57 236.63 624.09 236.63 623.14C236.63 622.19 237.08 621.66 238 621.66H242.17L242.19 618.19Z" fill="#595857"/>
<path d="M301.53 639.94H270.53C269.67 639.94 269.24 639.45 269.24 638.46C269.24 637.47 269.67 636.95 270.53 636.95H301.53C302.53 636.95 302.99 637.45 302.99 638.46C303.02 638.659 303.002 638.863 302.94 639.055C302.877 639.246 302.772 639.421 302.63 639.565C302.488 639.708 302.315 639.817 302.124 639.882C301.933 639.947 301.73 639.967 301.53 639.94V639.94ZM276.16 611.11H294.7C295.7 611.11 296.2 611.72 296.2 612.95V620.4C296.2 621.88 295.63 622.62 294.48 622.62H279.77V627.24C279.75 627.379 279.762 627.521 279.804 627.655C279.846 627.789 279.918 627.912 280.014 628.014C280.11 628.117 280.228 628.197 280.358 628.248C280.489 628.299 280.63 628.32 280.77 628.31H296C296.91 628.31 297.37 628.8 297.37 629.78C297.4 629.974 297.384 630.173 297.324 630.36C297.263 630.547 297.16 630.717 297.022 630.857C296.884 630.997 296.715 631.102 296.529 631.165C296.343 631.228 296.145 631.247 295.95 631.22H278.37C276.82 631.22 276.04 630.31 276.04 628.51V623.68C276.081 623.254 275.975 622.827 275.74 622.47C275.503 622.219 275.207 622.03 274.88 621.92C274.624 621.827 274.385 621.696 274.17 621.53C274.068 621.425 273.989 621.299 273.941 621.161C273.893 621.023 273.875 620.876 273.89 620.73C273.89 620.05 274.29 619.73 275.1 619.73H292.43V614.12H276.17C275.28 614.12 274.84 613.61 274.84 612.6C274.84 611.59 275.27 611.11 276.16 611.11V611.11Z" fill="#595857"/>
<path d="M308.67 616.23C307.75 616.23 307.29 615.72 307.29 614.71C307.29 613.7 307.75 613.24 308.67 613.24H321.57C321.915 613.203 322.265 613.248 322.59 613.371C322.915 613.495 323.206 613.693 323.44 613.95C323.622 614.222 323.735 614.535 323.768 614.861C323.802 615.188 323.754 615.517 323.63 615.82C322.593 618.659 321.13 621.323 319.29 623.72L326.08 630.93C326.495 631.32 326.749 631.852 326.79 632.42C326.795 632.679 326.733 632.934 326.608 633.16C326.484 633.387 326.301 633.576 326.08 633.71C325.885 633.886 325.65 634.012 325.396 634.076C325.141 634.141 324.875 634.142 324.62 634.08C324.056 633.979 323.551 633.673 323.2 633.22L317.57 625.85C314.911 629.026 311.845 631.837 308.45 634.21C307.45 634.86 306.72 634.92 306.26 634.37C305.8 633.82 305.93 633.26 306.65 632.69C309.467 630.318 312.007 627.634 314.22 624.69C316.271 622.105 317.954 619.248 319.22 616.2L308.67 616.23ZM331.2 611.68C331.27 611.436 331.283 611.179 331.239 610.929C331.195 610.679 331.095 610.442 330.945 610.237C330.796 610.031 330.601 609.863 330.377 609.744C330.152 609.625 329.904 609.559 329.65 609.55C329.169 609.45 328.699 609.299 328.25 609.1C328.087 609.036 327.948 608.922 327.853 608.775C327.758 608.628 327.712 608.455 327.72 608.28C327.72 607.55 328.22 607.18 329.22 607.18H333.09C334.33 607.18 334.94 607.75 334.94 608.9V642.52C334.94 645.08 334 646.37 332.1 646.37H331.2V611.68Z" fill="#595857"/>
<path d="M347.8 620.45C347.807 619.203 348.085 617.972 348.615 616.842C349.145 615.713 349.915 614.712 350.87 613.91C352.947 612.096 355.612 611.096 358.37 611.096C361.128 611.096 363.793 612.096 365.87 613.91C366.828 614.711 367.598 615.712 368.127 616.843C368.656 617.974 368.93 619.207 368.93 620.455C368.93 621.704 368.656 622.937 368.127 624.068C367.598 625.199 366.828 626.2 365.87 627C364.287 628.421 362.329 629.358 360.23 629.7V637H373.78C374.178 637 374.56 637.158 374.841 637.44C375.122 637.721 375.28 638.102 375.28 638.5C375.28 638.898 375.122 639.28 374.841 639.561C374.56 639.842 374.178 640 373.78 640H342.78C341.92 640 341.49 639.51 341.49 638.52C341.49 637.53 341.92 637.05 342.78 637.05H356.49V629.76C354.401 629.434 352.455 628.494 350.9 627.06C349.933 626.251 349.154 625.24 348.619 624.098C348.083 622.957 347.803 621.711 347.8 620.45V620.45ZM351.58 620.45C351.569 621.294 351.742 622.131 352.087 622.901C352.433 623.672 352.942 624.357 353.58 624.91C354.873 626.11 356.576 626.769 358.34 626.75C360.085 626.763 361.767 626.104 363.04 624.91C363.683 624.362 364.2 623.681 364.554 622.913C364.909 622.146 365.092 621.31 365.092 620.465C365.092 619.62 364.909 618.785 364.554 618.017C364.2 617.25 363.683 616.569 363.04 616.02C361.767 614.827 360.085 614.168 358.34 614.18C356.576 614.162 354.873 614.82 353.58 616.02C352.945 616.569 352.436 617.249 352.091 618.014C351.745 618.78 351.571 619.611 351.58 620.45V620.45Z" fill="#595857"/>
<path d="M621.71 632.69C621.608 631.462 621.039 630.321 620.12 629.5C618.752 628.287 617.216 627.277 615.56 626.5C613.591 625.622 611.816 624.361 610.34 622.79C609.112 621.384 608.484 619.553 608.59 617.69C608.601 616.746 608.822 615.816 609.235 614.967C609.648 614.118 610.244 613.372 610.98 612.78C612.725 611.422 614.901 610.736 617.11 610.85C618.332 610.831 619.554 610.922 620.76 611.12C621.76 611.3 622.76 611.54 623.9 611.84V615.11C622.769 614.664 621.614 614.283 620.44 613.97C619.354 613.676 618.235 613.525 617.11 613.52C615.922 613.501 614.767 613.913 613.86 614.68C613.399 615.068 613.033 615.556 612.791 616.107C612.548 616.659 612.435 617.258 612.46 617.86C612.471 618.486 612.621 619.102 612.897 619.664C613.174 620.225 613.571 620.719 614.06 621.11C615.562 622.335 617.207 623.373 618.96 624.2C620.864 625.106 622.565 626.389 623.96 627.97C625.051 629.311 625.635 630.992 625.61 632.72C625.63 633.799 625.422 634.869 625 635.862C624.578 636.854 623.951 637.747 623.16 638.48C621.221 640.166 618.729 641.077 616.16 641.04C614.956 641.082 613.751 640.984 612.57 640.75C611.476 640.565 610.424 640.189 609.46 639.64C609.028 639.393 608.659 639.051 608.38 638.64C608.267 638.455 608.207 638.242 608.207 638.025C608.207 637.808 608.267 637.595 608.38 637.41C608.471 637.201 608.609 637.015 608.782 636.866C608.955 636.717 609.159 636.609 609.38 636.55C609.62 636.485 609.872 636.474 610.118 636.517C610.363 636.56 610.596 636.657 610.8 636.8C611.577 637.218 612.409 637.528 613.27 637.72C614.232 637.969 615.227 638.074 616.22 638.03C617.806 638.055 619.338 637.451 620.48 636.35C620.927 635.858 621.267 635.279 621.479 634.649C621.69 634.019 621.769 633.352 621.71 632.69V632.69Z" fill="#595857"/>
<path d="M636.29 640.8H632.54V616C632.576 615.396 632.491 614.791 632.29 614.22C632.212 614.046 632.093 613.893 631.943 613.775C631.793 613.656 631.618 613.576 631.43 613.54C630.983 613.455 630.542 613.342 630.11 613.2C629.949 613.151 629.81 613.049 629.714 612.911C629.618 612.774 629.571 612.607 629.58 612.44C629.58 611.81 630.01 611.5 630.87 611.5H634.87C635.81 611.5 636.29 611.93 636.29 612.81V623.81L646.52 611.49H648.88C649.055 611.468 649.232 611.502 649.386 611.586C649.54 611.671 649.664 611.801 649.74 611.96C649.81 612.119 649.823 612.296 649.778 612.464C649.732 612.631 649.631 612.778 649.49 612.88L639.42 624.8L652.07 640.8H647.59L636.29 626.26V640.8Z" fill="#595857"/>
<path d="M685.82 632.81H678.17V642.27C678.17 645 677.26 646.37 675.46 646.37H674.55V632.81H666.73V642.27C666.73 645 665.82 646.37 664.02 646.37H663.12V632.81H654.86C654 632.81 653.57 632.32 653.57 631.34C653.57 630.34 654 629.86 654.86 629.86H685.86C686.258 629.86 686.64 630.018 686.921 630.299C687.202 630.581 687.36 630.962 687.36 631.36C687.36 631.758 687.202 632.139 686.921 632.421C686.64 632.702 686.258 632.86 685.86 632.86L685.82 632.81ZM664.19 614.75H676.66V613C676.699 612.558 676.648 612.112 676.51 611.69C676.391 611.513 676.214 611.382 676.01 611.32C675.56 611.16 675.19 611.01 674.92 610.89C674.781 610.822 674.666 610.712 674.593 610.576C674.519 610.44 674.49 610.284 674.51 610.13C674.51 609.42 675 609.07 675.97 609.07H678.51C678.763 609.031 679.021 609.051 679.265 609.128C679.509 609.206 679.731 609.34 679.915 609.518C680.098 609.697 680.237 609.915 680.321 610.157C680.406 610.398 680.432 610.656 680.4 610.91V620.21C680.453 621.166 680.231 622.117 679.76 622.95C680.56 623.01 680.96 623.5 680.96 624.43C680.96 625.36 680.5 625.9 679.58 625.9H663.42C663.219 626.252 662.928 626.544 662.576 626.746C662.225 626.949 661.825 627.053 661.42 627.05H660.47V614.35C660.503 613.883 660.459 613.413 660.34 612.96C660.294 612.863 660.229 612.776 660.148 612.705C660.067 612.635 659.973 612.582 659.87 612.55L658.87 612.18C658.71 612.125 658.572 612.019 658.478 611.878C658.384 611.737 658.339 611.569 658.35 611.4C658.35 610.67 658.84 610.3 659.82 610.3H662.4C663.57 610.3 664.16 610.93 664.16 612.18L664.19 614.75ZM676.66 617.75H664.19V621.75C664.19 622.16 664.19 622.56 664.19 622.94H676.7L676.66 617.75Z" fill="#595857"/>
<path d="M705.73 623.15C705.696 621.896 705.925 620.648 706.402 619.487C706.879 618.326 707.594 617.278 708.5 616.41C709.392 615.534 710.451 614.846 711.614 614.386C712.777 613.925 714.02 613.702 715.27 613.73C716.531 613.7 717.785 613.921 718.96 614.381C720.134 614.842 721.205 615.531 722.11 616.41C723.019 617.277 723.738 618.324 724.218 619.485C724.699 620.646 724.931 621.894 724.9 623.15C724.935 624.402 724.704 625.647 724.223 626.804C723.743 627.96 723.022 629.002 722.11 629.86C721.203 630.736 720.132 631.423 718.958 631.881C717.784 632.339 716.53 632.56 715.27 632.53C714.021 632.557 712.778 632.335 711.616 631.877C710.454 631.418 709.394 630.733 708.5 629.86C707.592 628.999 706.876 627.957 706.399 626.801C705.921 625.645 705.693 624.401 705.73 623.15V623.15ZM709.51 623.15C709.477 623.98 709.609 624.809 709.897 625.588C710.186 626.367 710.625 627.081 711.19 627.69C711.706 628.257 712.336 628.707 713.04 629.01C713.743 629.314 714.504 629.464 715.27 629.45C716.043 629.461 716.81 629.31 717.521 629.007C718.233 628.704 718.872 628.255 719.4 627.69C719.977 627.088 720.427 626.375 720.722 625.595C721.018 624.815 721.153 623.984 721.12 623.15C721.156 622.309 721.021 621.469 720.726 620.68C720.43 619.892 719.98 619.171 719.4 618.56C718.871 617.997 718.231 617.549 717.52 617.246C716.809 616.943 716.043 616.792 715.27 616.8C714.504 616.789 713.745 616.94 713.041 617.244C712.338 617.547 711.707 617.996 711.19 618.56C710.622 619.177 710.181 619.9 709.893 620.688C709.605 621.475 709.474 622.312 709.51 623.15ZM729.72 611.68C729.791 611.136 729.659 610.584 729.35 610.13C729.017 609.833 728.609 609.632 728.17 609.55C727.681 609.456 727.204 609.304 726.75 609.1C726.59 609.034 726.455 608.919 726.363 608.772C726.272 608.625 726.229 608.453 726.24 608.28C726.24 607.55 726.74 607.18 727.74 607.18H731.65C732.86 607.18 733.46 607.75 733.46 608.9V621.51H738.84C739.75 621.51 740.21 622.03 740.21 623.07C740.21 624.11 739.75 624.58 738.84 624.58H733.46V642.58C733.46 645.087 732.5 646.343 730.58 646.35H729.72V611.68Z" fill="#595857"/>
<path d="M744.38 633.3C743.43 633.3 742.96 632.81 742.96 631.83C742.96 630.85 743.43 630.36 744.38 630.36H747.38V621.92C747.4 621.427 747.357 620.932 747.25 620.45C747.182 620.275 747.071 620.119 746.928 619.997C746.785 619.875 746.614 619.79 746.43 619.75C746.12 619.64 745.83 619.52 745.57 619.4C745.438 619.326 745.331 619.214 745.264 619.078C745.196 618.943 745.17 618.79 745.19 618.64C745.19 617.96 745.67 617.64 746.65 617.64H749.14C749.394 617.599 749.653 617.618 749.898 617.695C750.143 617.772 750.367 617.905 750.551 618.084C750.736 618.262 750.876 618.482 750.961 618.724C751.046 618.966 751.073 619.225 751.04 619.48V630.38H755.68V616H744.37C743.42 616 742.95 615.5 742.95 614.49C742.95 613.48 743.42 613.01 744.37 613.01H762.13C763.08 613.01 763.55 613.5 763.55 614.49C763.55 615.48 763.09 616 762.17 616H759.42V630.34H762.6C763.52 630.34 763.98 630.83 763.98 631.81C763.98 632.81 763.51 633.28 762.56 633.28L744.38 633.3ZM767.21 611.68C767.277 611.137 767.15 610.588 766.85 610.13C766.514 609.837 766.107 609.637 765.67 609.55C765.18 609.459 764.703 609.307 764.25 609.1C764.088 609.035 763.951 608.921 763.857 608.774C763.764 608.627 763.72 608.454 763.73 608.28C763.73 607.55 764.23 607.18 765.24 607.18H769.15C770.35 607.18 770.96 607.75 770.96 608.9V621.51H776.33C777.25 621.51 777.71 622.03 777.71 623.07C777.71 624.07 777.25 624.58 776.33 624.58H771V642.58C771 645.09 770 646.35 768.11 646.35H767.25L767.21 611.68Z" fill="#595857"/>
<path d="M812.92 639.94H781.92C781.06 639.94 780.63 639.45 780.63 638.46C780.63 637.47 781.06 636.95 781.92 636.95H812.92C813.122 636.924 813.328 636.945 813.521 637.013C813.713 637.08 813.887 637.192 814.029 637.339C814.171 637.485 814.276 637.663 814.337 637.858C814.398 638.052 814.413 638.259 814.38 638.46C814.41 638.659 814.393 638.863 814.33 639.055C814.268 639.246 814.161 639.421 814.02 639.565C813.878 639.708 813.705 639.817 813.514 639.882C813.323 639.947 813.12 639.967 812.92 639.94V639.94ZM805.35 619.46C806.3 619.46 806.77 619.97 806.77 620.98C806.798 621.173 806.781 621.371 806.72 621.556C806.659 621.742 806.555 621.911 806.417 622.05C806.28 622.188 806.112 622.293 805.926 622.356C805.741 622.418 805.544 622.437 805.35 622.41H791.12V626.79C791.103 626.936 791.119 627.085 791.167 627.224C791.214 627.363 791.291 627.491 791.394 627.597C791.496 627.703 791.62 627.785 791.758 627.837C791.895 627.89 792.043 627.911 792.19 627.9H806.86C807.048 627.875 807.239 627.893 807.418 627.954C807.597 628.016 807.76 628.118 807.893 628.252C808.025 628.387 808.125 628.551 808.184 628.731C808.242 628.911 808.258 629.103 808.23 629.29C808.23 630.29 807.76 630.81 806.81 630.81H790C788.28 630.81 787.42 629.89 787.42 628.06V616.06C787.448 615.444 787.405 614.826 787.29 614.22C787.224 614.047 787.121 613.892 786.988 613.764C786.855 613.636 786.695 613.539 786.52 613.48C786.198 613.362 785.892 613.204 785.61 613.01C785.486 612.927 785.386 612.813 785.32 612.68C785.253 612.547 785.222 612.399 785.23 612.25C785.23 611.52 785.64 611.15 786.47 611.15H805.82C806.77 611.15 807.24 611.65 807.24 612.66C807.24 613.67 806.78 614.14 805.87 614.14H791.16V619.5L805.35 619.46Z" fill="#595857"/>
<path d="M625.94 184.53V179.37C625.992 178.87 625.92 178.365 625.73 177.9C625.372 177.609 624.938 177.425 624.48 177.37C624.094 177.292 623.727 177.139 623.4 176.92C623.277 176.823 623.178 176.698 623.112 176.555C623.046 176.413 623.015 176.257 623.02 176.1C623.02 175.36 623.53 174.99 624.57 174.99H627.88C629.08 174.99 629.68 175.63 629.68 176.92V184.53H642.8C643.198 184.53 643.58 184.688 643.861 184.969C644.142 185.251 644.3 185.632 644.3 186.03C644.3 186.428 644.142 186.809 643.861 187.091C643.58 187.372 643.198 187.53 642.8 187.53H611.8C610.94 187.53 610.51 187.04 610.51 186.06C610.51 185.06 610.94 184.58 611.8 184.58L625.94 184.53ZM630.24 161.07C630.114 162.798 629.568 164.47 628.65 165.94L639.31 173.56C639.586 173.717 639.821 173.938 639.995 174.204C640.169 174.47 640.277 174.774 640.31 175.09C640.342 175.31 640.329 175.535 640.271 175.75C640.212 175.966 640.11 176.166 639.97 176.34C639.595 176.716 639.099 176.95 638.57 177C638.243 177.027 637.914 176.982 637.606 176.868C637.299 176.754 637.02 176.574 636.79 176.34L627.03 168.27C626.63 168.79 626.21 169.27 625.78 169.75C622.937 172.831 619.594 175.407 615.89 177.37C615.03 177.83 614.39 177.78 613.95 177.22C613.51 176.66 613.68 176.15 614.43 175.69C617.093 173.918 619.487 171.773 621.54 169.32C623.475 167.201 624.883 164.655 625.65 161.89C625.686 161.745 625.676 161.592 625.623 161.453C625.569 161.313 625.474 161.194 625.35 161.11C624.998 160.883 624.603 160.73 624.19 160.66C623.39 160.493 623.03 160.083 623.11 159.43C623.2 158.77 623.69 158.43 624.58 158.43H627.41C627.82 158.378 628.237 158.417 628.631 158.543C629.025 158.669 629.386 158.88 629.69 159.16C630.108 159.704 630.304 160.387 630.24 161.07V161.07Z" fill="#595857"/>
<path d="M661.16 162.75C660.844 165.367 660.054 167.905 658.83 170.24L667.18 178.24C667.646 178.648 667.945 179.214 668.02 179.83C668.074 180.09 668.051 180.361 667.955 180.609C667.86 180.857 667.695 181.072 667.48 181.23C667.247 181.423 666.97 181.556 666.673 181.615C666.376 181.675 666.069 181.659 665.78 181.57C665.197 181.394 664.68 181.046 664.3 180.57L657.46 172.67L657.37 172.83C655.332 176.366 652.684 179.515 649.55 182.13C649.322 182.373 649.014 182.528 648.682 182.564C648.35 182.601 648.016 182.518 647.74 182.33C647.2 181.95 647.24 181.43 647.87 180.78C650.467 178.046 652.608 174.913 654.21 171.5C655.517 168.94 656.437 166.2 656.94 163.37C656.96 163.219 656.931 163.065 656.858 162.932C656.784 162.799 656.669 162.693 656.53 162.63C656.144 162.437 655.734 162.299 655.31 162.22C654.54 162.09 654.16 161.71 654.19 161.08C654.22 160.45 654.66 160.14 655.52 160.14H658.45C658.847 160.09 659.249 160.126 659.63 160.245C660.011 160.364 660.363 160.563 660.66 160.83C660.866 161.101 661.016 161.41 661.102 161.74C661.188 162.069 661.208 162.413 661.16 162.75V162.75ZM671.69 159.22C671.757 158.677 671.63 158.127 671.33 157.67C670.992 157.375 670.581 157.175 670.14 157.09C669.651 156.995 669.175 156.844 668.72 156.64C668.562 156.574 668.428 156.461 668.337 156.316C668.245 156.171 668.201 156.001 668.21 155.83C668.21 155.09 668.71 154.72 669.71 154.72H673.63C674.83 154.72 675.43 155.29 675.43 156.44V169.05H680.81C681.73 169.05 682.18 169.57 682.18 170.61C682.18 171.65 681.73 172.12 680.81 172.12H675.43V190.12C675.43 192.626 674.47 193.883 672.55 193.89H671.69V159.22Z" fill="#595857"/>
<path d="M685.19 170.69C685.168 169.441 685.407 168.201 685.891 167.049C686.375 165.897 687.093 164.859 688 164C688.9 163.122 689.965 162.433 691.135 161.973C692.304 161.513 693.554 161.291 694.81 161.32C697.377 161.262 699.863 162.218 701.73 163.98C703.104 165.278 704.011 166.994 704.31 168.86H710V159.23C710.064 158.703 709.944 158.169 709.66 157.72C709.321 157.415 708.901 157.214 708.45 157.14C707.969 157.04 707.499 156.889 707.05 156.69C706.888 156.627 706.75 156.516 706.655 156.37C706.56 156.225 706.513 156.053 706.52 155.88C706.52 155.14 707.02 154.77 708.02 154.77H711.89C713.12 154.77 713.74 155.34 713.74 156.49V190.11C713.74 192.683 712.793 193.967 710.9 193.96H710V171.81H704.45C704.262 173.96 703.299 175.967 701.74 177.46C699.873 179.222 697.387 180.178 694.82 180.12C693.565 180.15 692.317 179.93 691.148 179.474C689.979 179.017 688.912 178.333 688.01 177.46C687.088 176.595 686.36 175.544 685.874 174.377C685.388 173.21 685.155 171.954 685.19 170.69ZM688.98 170.69C688.915 172.367 689.516 174.003 690.65 175.24C691.176 175.807 691.816 176.257 692.527 176.561C693.239 176.864 694.006 177.014 694.78 177C695.559 177.012 696.332 176.862 697.05 176.559C697.768 176.256 698.416 175.807 698.95 175.24C699.527 174.636 699.977 173.921 700.273 173.14C700.568 172.358 700.703 171.525 700.67 170.69C700.705 169.849 700.57 169.009 700.275 168.221C699.98 167.433 699.529 166.711 698.95 166.1C698.416 165.533 697.768 165.084 697.05 164.781C696.332 164.478 695.559 164.328 694.78 164.34C694.006 164.326 693.239 164.476 692.527 164.779C691.816 165.083 691.176 165.533 690.65 166.1C689.518 167.354 688.926 169.003 689 170.69H688.98Z" fill="#595857"/>
<path d="M739 176.14C739.043 176.983 738.882 177.823 738.53 178.59H745.88C746.88 178.59 747.43 179.21 747.43 180.44V185.52C747.43 186.99 746.86 187.73 745.71 187.73H731.26V190.06C731.244 190.195 731.259 190.332 731.303 190.461C731.348 190.589 731.421 190.706 731.517 190.803C731.613 190.899 731.73 190.972 731.859 191.017C731.988 191.061 732.125 191.076 732.26 191.06H747.4C748.32 191.06 748.78 191.55 748.78 192.53C748.811 192.726 748.796 192.926 748.736 193.115C748.677 193.304 748.574 193.476 748.436 193.619C748.298 193.761 748.13 193.87 747.943 193.936C747.756 194.002 747.557 194.024 747.36 194H730.24C728.41 194 727.49 193 727.49 190.89V188.76C727.531 188.333 727.44 187.904 727.23 187.53C726.996 187.279 726.699 187.096 726.37 187C726.14 186.89 725.9 186.76 725.64 186.61C725.51 186.533 725.404 186.421 725.335 186.286C725.266 186.152 725.237 186 725.25 185.85C725.25 185.12 725.66 184.75 726.46 184.75H743.7V181.51H727.7C726.78 181.51 726.33 181.04 726.33 180.08C726.33 179.12 726.78 178.56 727.7 178.56H735.36V175.08H721.6C720.74 175.08 720.31 174.59 720.31 173.61C720.31 172.63 720.74 172.14 721.6 172.14H752.6C752.99 172.14 753.364 172.295 753.64 172.57C753.915 172.846 754.07 173.22 754.07 173.61C754.07 174 753.915 174.374 753.64 174.649C753.364 174.925 752.99 175.08 752.6 175.08H739V176.14ZM727.29 163C727.298 161.947 727.555 160.91 728.04 159.975C728.524 159.04 729.224 158.233 730.08 157.62C732.12 156.155 734.568 155.367 737.08 155.367C739.592 155.367 742.04 156.155 744.08 157.62C744.941 158.23 745.644 159.036 746.132 159.972C746.621 160.907 746.881 161.945 746.89 163C746.879 164.044 746.618 165.069 746.129 165.992C745.64 166.914 744.938 167.705 744.08 168.3C742.03 169.741 739.586 170.515 737.08 170.515C734.574 170.515 732.13 169.741 730.08 168.3C729.226 167.703 728.527 166.911 728.042 165.989C727.556 165.067 727.299 164.042 727.29 163V163ZM731.07 163C731.085 163.611 731.246 164.21 731.538 164.747C731.83 165.285 732.245 165.745 732.75 166.09C734.02 166.956 735.522 167.42 737.06 167.42C738.598 167.42 740.1 166.956 741.37 166.09C741.879 165.747 742.298 165.288 742.594 164.75C742.889 164.213 743.052 163.613 743.07 163C743.057 162.372 742.896 161.756 742.601 161.202C742.306 160.648 741.884 160.171 741.37 159.81C740.105 158.93 738.601 158.459 737.06 158.459C735.519 158.459 734.015 158.93 732.75 159.81C732.24 160.173 731.822 160.651 731.53 161.205C731.238 161.759 731.081 162.374 731.07 163V163Z" fill="#595857"/>
<path d="M773.25 160.78C774.49 160.78 775.1 161.48 775.1 162.87V174.09C775.168 175.31 774.948 176.529 774.46 177.65C775.29 177.71 775.7 178.2 775.7 179.13C775.7 180.06 775.23 180.64 774.29 180.64H762.29C762.095 180.997 761.805 181.294 761.452 181.496C761.099 181.699 760.697 181.801 760.29 181.79H759.43V165.86C759.455 165.191 759.417 164.522 759.32 163.86C759.25 163.58 758.97 163.34 758.48 163.15C758.168 162.998 757.868 162.824 757.58 162.63C757.456 162.55 757.354 162.438 757.285 162.307C757.217 162.175 757.184 162.028 757.19 161.88C757.19 161.14 757.66 160.77 758.61 160.77L773.25 160.78ZM763.06 177.65H771.4V163.77H763.11V176.51C763.11 176.92 763.09 177.3 763.06 177.65V177.65ZM781.42 159.22C781.488 158.677 781.36 158.127 781.06 157.67C780.724 157.377 780.317 157.177 779.88 157.09C779.39 156.998 778.913 156.847 778.46 156.64C778.299 156.577 778.162 156.465 778.069 156.319C777.976 156.174 777.93 156.002 777.94 155.83C777.94 155.09 778.44 154.72 779.45 154.72H783.36C784.56 154.72 785.17 155.29 785.17 156.44V169.05H790.54C791.46 169.05 791.92 169.57 791.92 170.61C791.92 171.61 791.46 172.12 790.54 172.12H785.17V190.12C785.17 192.63 784.17 193.89 782.28 193.89H781.42V159.22Z" fill="#595857"/>
<path d="M813.5 175.15H799.7C797.98 175.15 797.12 174.24 797.12 172.41V163.77C797.145 163.16 797.101 162.55 796.99 161.95C796.913 161.774 796.8 161.615 796.659 161.484C796.518 161.354 796.352 161.253 796.17 161.19C795.869 161.062 795.581 160.904 795.31 160.72C795.185 160.637 795.084 160.524 795.015 160.391C794.947 160.258 794.914 160.109 794.92 159.96C794.92 159.22 795.33 158.86 796.13 158.86H811.87C812.81 158.86 813.29 159.36 813.29 160.37C813.29 161.38 812.83 161.85 811.91 161.85H800.86V171.1C800.86 171.84 801.2 172.21 801.86 172.21H813.51C814.4 172.21 814.85 172.7 814.85 173.68C814.85 174.66 814.42 175.15 813.5 175.15ZM804.68 186.58C804.664 185.485 804.886 184.4 805.331 183.4C805.777 182.4 806.435 181.509 807.26 180.79C809.016 179.269 811.262 178.431 813.585 178.431C815.909 178.431 818.154 179.269 819.91 180.79C820.722 181.521 821.371 182.415 821.816 183.413C822.26 184.412 822.489 185.492 822.489 186.585C822.489 187.677 822.26 188.758 821.816 189.756C821.371 190.755 820.722 191.648 819.91 192.38C818.151 193.895 815.907 194.729 813.585 194.729C811.263 194.729 809.019 193.895 807.26 192.38C806.435 191.658 805.777 190.766 805.331 189.764C804.886 188.762 804.664 187.676 804.68 186.58V186.58ZM808.47 186.58C808.442 187.269 808.564 187.956 808.828 188.593C809.093 189.231 809.492 189.803 810 190.27C810.982 191.164 812.262 191.66 813.59 191.66C814.918 191.66 816.199 191.164 817.18 190.27C818.153 189.29 818.699 187.965 818.699 186.585C818.699 185.204 818.153 183.88 817.18 182.9C816.202 181.999 814.92 181.499 813.59 181.499C812.26 181.499 810.979 181.999 810 182.9C809.492 183.364 809.092 183.935 808.828 184.57C808.564 185.206 808.442 185.892 808.47 186.58V186.58ZM818.92 159.22C818.991 158.675 818.859 158.124 818.55 157.67C818.215 157.375 817.808 157.174 817.37 157.09C816.881 156.997 816.404 156.846 815.95 156.64C815.791 156.574 815.656 156.462 815.563 156.317C815.47 156.172 815.424 156.002 815.43 155.83C815.43 155.09 815.94 154.72 816.94 154.72H820.85C822.06 154.72 822.66 155.29 822.66 156.44V165.61H828C828.92 165.61 829.38 166.13 829.38 167.17C829.38 168.17 828.92 168.68 828 168.68H822.63V174.58C822.63 177.086 821.67 178.343 819.75 178.35H818.89L818.92 159.22Z" fill="#595857"/>
<path d="M624 209C623.827 210.803 623.272 212.549 622.37 214.12L629.59 220.8C629.82 220.966 630.015 221.176 630.163 221.418C630.311 221.66 630.409 221.93 630.45 222.21C630.488 222.437 630.477 222.669 630.418 222.892C630.359 223.114 630.254 223.321 630.11 223.5C629.924 223.696 629.696 223.847 629.443 223.943C629.19 224.038 628.919 224.075 628.65 224.05C628.355 224.053 628.063 223.991 627.795 223.869C627.528 223.746 627.29 223.565 627.1 223.34L620.91 216.5C620.767 216.681 620.636 216.871 620.52 217.07C618.387 219.948 615.804 222.464 612.87 224.52C611.87 225.23 611.05 225.32 610.52 224.79C609.99 224.26 610.13 223.68 610.93 223.05C613.345 221.011 615.409 218.588 617.04 215.88C618.374 213.857 619.336 211.612 619.88 209.25C619.887 209.1 619.847 208.951 619.764 208.825C619.682 208.699 619.561 208.603 619.42 208.55C619.056 208.381 618.674 208.257 618.28 208.18C617.54 208.05 617.19 207.66 617.23 207.02C617.27 206.38 617.67 206.02 618.41 206.02H621.55C622.67 206.02 623.37 206.32 623.66 206.92C623.957 207.571 624.075 208.289 624 209V209ZM636.17 227.51C637.43 227.51 638.06 228.21 638.06 229.6V235.66C638.129 236.734 637.875 237.803 637.33 238.73C637.517 238.726 637.703 238.764 637.874 238.84C638.045 238.915 638.198 239.028 638.321 239.169C638.444 239.31 638.534 239.476 638.586 239.656C638.638 239.836 638.649 240.025 638.62 240.21C638.62 241.21 638.15 241.72 637.21 241.72H623.21C623.021 242.086 622.734 242.391 622.38 242.601C622.027 242.812 621.621 242.919 621.21 242.91H620.35V232.59C620.372 231.922 620.335 231.252 620.24 230.59C620.17 230.29 619.89 230.05 619.4 229.86C619.09 229.737 618.795 229.579 618.52 229.39C618.399 229.305 618.301 229.191 618.236 229.058C618.172 228.925 618.142 228.778 618.15 228.63C618.15 227.89 618.61 227.52 619.53 227.52L636.17 227.51ZM623.96 238.73H634.32V230.5H624V237.63C624 238 624 238.33 623.92 238.68L623.96 238.73ZM634.67 207.2C634.739 206.653 634.607 206.099 634.3 205.64C633.962 205.352 633.556 205.156 633.12 205.07C632.633 204.968 632.157 204.817 631.7 204.62C631.54 204.553 631.405 204.438 631.312 204.292C631.219 204.145 631.173 203.974 631.18 203.8C631.18 203.06 631.69 202.7 632.69 202.7H636.6C637.81 202.7 638.41 203.27 638.41 204.42V213.59H643.78C644.7 213.59 645.16 214.11 645.16 215.15C645.16 216.15 644.7 216.66 643.78 216.66H638.41V221.94C638.41 224.46 637.41 225.71 635.53 225.71H634.67V207.2Z" fill="#595857"/>
<path d="M650.75 211.9C649.83 211.9 649.38 211.4 649.38 210.39C649.38 209.38 649.83 208.91 650.75 208.91H664.75C665.016 208.902 665.28 208.962 665.516 209.084C665.752 209.207 665.953 209.388 666.1 209.61C666.26 209.816 666.375 210.053 666.439 210.306C666.503 210.559 666.513 210.823 666.47 211.08C665.803 214.52 663.933 218.077 660.86 221.75C657.944 225.271 654.464 228.282 650.56 230.66C649.56 231.26 648.83 231.27 648.39 230.66C647.95 230.05 648.12 229.49 648.92 228.92C652.213 226.554 655.116 223.686 657.52 220.42C659.545 217.899 661.039 214.994 661.91 211.88L650.75 211.9ZM672.85 207.11C672.911 206.579 672.791 206.044 672.51 205.59C672.166 205.293 671.748 205.095 671.3 205.02C670.824 204.91 670.359 204.76 669.91 204.57C669.745 204.507 669.605 204.394 669.508 204.247C669.411 204.1 669.363 203.926 669.37 203.75C669.37 203.01 669.87 202.65 670.88 202.65H674.75C675.98 202.65 676.59 203.22 676.59 204.37V238C676.59 240.56 675.65 241.85 673.76 241.85H672.85V221.08H665.33C664.41 221.08 663.95 220.58 663.95 219.57C663.95 218.56 664.41 218.14 665.33 218.14H672.85V207.11Z" fill="#595857"/>
<path d="M702.61 229.72H687.51C685.97 229.72 685.19 228.81 685.19 227.01V221.2C685.238 220.768 685.116 220.334 684.85 219.99C684.6 219.744 684.309 219.545 683.99 219.4C683.744 219.32 683.51 219.202 683.3 219.05C683.193 218.956 683.11 218.839 683.058 218.706C683.006 218.574 682.986 218.431 683 218.29C683 217.58 683.39 217.23 684.16 217.23H696.63V211H685.28C684.36 211 683.9 210.51 683.9 209.52C683.9 208.53 684.36 208.05 685.28 208.05H698.82C699.82 208.05 700.37 208.67 700.37 209.89V217.96C700.37 219.44 699.78 220.17 698.61 220.17H688.93V225.74C688.914 225.875 688.929 226.012 688.973 226.141C689.018 226.269 689.091 226.386 689.188 226.483C689.284 226.579 689.401 226.652 689.529 226.697C689.658 226.741 689.795 226.756 689.93 226.74H702.66C703.58 226.74 704.04 227.23 704.04 228.21C704 229.21 703.55 229.72 702.61 229.72ZM707.98 207.15C708.044 206.607 707.925 206.057 707.64 205.59C707.297 205.293 706.878 205.095 706.43 205.02C705.955 204.91 705.49 204.76 705.04 204.57C704.876 204.507 704.735 204.394 704.638 204.247C704.541 204.1 704.493 203.926 704.5 203.75C704.5 203.01 705 202.65 706 202.65H709.88C711.11 202.65 711.72 203.22 711.72 204.37V238C711.72 240.56 710.78 241.85 708.89 241.85H708L707.98 207.15Z" fill="#595857"/>
<path d="M184 719.44C183.686 722.031 182.9 724.542 181.68 726.85L190.11 734.92C190.584 735.327 190.884 735.899 190.95 736.52C191.004 736.779 190.982 737.048 190.886 737.295C190.79 737.541 190.625 737.755 190.41 737.91C190.181 738.103 189.909 738.238 189.616 738.302C189.323 738.366 189.019 738.359 188.73 738.28C188.142 738.103 187.62 737.754 187.23 737.28L180.31 729.28C180.279 729.369 180.235 729.453 180.18 729.53C178.109 733.055 175.447 736.197 172.31 738.82C172.082 739.063 171.775 739.218 171.444 739.256C171.112 739.295 170.778 739.215 170.5 739.03C169.96 738.65 170 738.13 170.63 737.47C173.23 734.732 175.386 731.604 177.02 728.2C178.347 725.645 179.281 722.904 179.79 720.07C179.81 719.919 179.781 719.765 179.707 719.632C179.633 719.499 179.519 719.393 179.38 719.33C178.994 719.139 178.584 719.001 178.16 718.92C177.38 718.78 177.01 718.4 177.04 717.77C177.07 717.14 177.51 716.83 178.37 716.83H181.3C181.697 716.781 182.1 716.818 182.482 716.938C182.863 717.059 183.214 717.261 183.51 717.53C183.716 717.799 183.866 718.106 183.95 718.435C184.035 718.763 184.052 719.105 184 719.44V719.44ZM195.23 715.92C195.293 715.375 195.169 714.825 194.88 714.36C194.539 714.064 194.125 713.867 193.68 713.79C193.202 713.68 192.733 713.53 192.28 713.34C192.115 713.277 191.975 713.164 191.878 713.017C191.781 712.87 191.733 712.696 191.74 712.52C191.74 711.78 192.25 711.42 193.25 711.42H197.12C198.35 711.42 198.97 711.99 198.97 713.13V746.76C198.97 749.32 198.02 750.61 196.13 750.61H195.23V715.92Z" fill="#595857"/>
<path d="M237.81 736.35H206.81C205.95 736.35 205.52 735.84 205.52 734.8C205.52 733.76 205.95 733.32 206.81 733.32H237.81C238.01 733.293 238.213 733.313 238.404 733.378C238.595 733.443 238.768 733.552 238.91 733.695C239.051 733.839 239.158 734.013 239.22 734.205C239.283 734.397 239.3 734.6 239.27 734.8C239.27 735.84 238.78 736.35 237.81 736.35ZM223.81 722.72C223.512 722.671 223.243 722.51 223.06 722.27C222.982 722.157 222.934 722.026 222.921 721.889C222.909 721.752 222.933 721.615 222.99 721.49C223.054 721.331 223.16 721.194 223.298 721.093C223.436 720.992 223.6 720.932 223.77 720.92C224.102 720.878 224.438 720.878 224.77 720.92C226.249 721.045 227.65 721.637 228.77 722.61C229.248 723.01 229.633 723.508 229.901 724.071C230.168 724.633 230.311 725.247 230.32 725.87C230.289 726.718 230.049 727.544 229.622 728.277C229.195 729.01 228.593 729.626 227.87 730.07C226.15 731.236 224.119 731.86 222.04 731.86C219.961 731.86 217.931 731.236 216.21 730.07C215.422 729.558 214.772 728.861 214.315 728.04C213.858 727.219 213.609 726.299 213.59 725.36C213.592 724.294 213.905 723.251 214.49 722.36C215.041 721.4 215.825 720.595 216.77 720.02H210.49C209.66 720.02 209.25 719.52 209.25 718.51C209.25 717.5 209.69 717.03 210.58 717.03H232.73C233.67 717.03 234.14 717.53 234.14 718.51C234.14 719.49 233.69 720.02 232.77 720.02H224.38C222.468 719.888 220.575 720.473 219.07 721.66C218.513 722.104 218.068 722.673 217.773 723.321C217.478 723.969 217.34 724.678 217.37 725.39C217.409 725.876 217.555 726.348 217.797 726.771C218.039 727.194 218.371 727.559 218.77 727.84C219.72 728.54 220.881 728.893 222.06 728.84C223.188 728.878 224.3 728.564 225.24 727.94C225.619 727.715 225.941 727.407 226.18 727.037C226.42 726.667 226.57 726.247 226.62 725.81C226.659 725.457 226.617 725.1 226.498 724.765C226.378 724.431 226.184 724.128 225.93 723.88C225.337 723.304 224.597 722.902 223.79 722.72H223.81ZM213.23 744.79C213.25 743.825 213.511 742.88 213.987 742.04C214.464 741.2 215.142 740.492 215.96 739.98C217.802 738.647 220.026 737.945 222.3 737.98C224.589 737.948 226.828 738.649 228.69 739.98C229.531 740.465 230.23 741.163 230.715 742.004C231.201 742.845 231.457 743.799 231.457 744.77C231.457 745.741 231.201 746.695 230.715 747.536C230.23 748.376 229.531 749.075 228.69 749.56C226.833 750.902 224.59 751.604 222.3 751.56C220.024 751.607 217.797 750.904 215.96 749.56C215.146 749.051 214.469 748.35 213.99 747.518C213.51 746.686 213.243 745.749 213.21 744.79H213.23ZM217 714L215.88 713.06C215.629 712.828 215.449 712.53 215.36 712.2C215.34 712.04 215.353 711.878 215.398 711.723C215.443 711.569 215.518 711.425 215.62 711.3C215.743 711.156 215.896 711.043 216.07 710.968C216.243 710.894 216.432 710.86 216.62 710.87C216.941 710.861 217.258 710.926 217.55 711.06C218.722 711.682 219.984 712.117 221.29 712.35C222.599 712.533 223.919 712.62 225.24 712.61C225.441 712.581 225.645 712.6 225.837 712.664C226.03 712.728 226.204 712.837 226.347 712.981C226.489 713.124 226.597 713.3 226.66 713.492C226.723 713.685 226.74 713.889 226.71 714.09C226.722 714.306 226.676 714.522 226.578 714.715C226.48 714.908 226.332 715.072 226.15 715.19C225.822 715.423 225.432 715.552 225.03 715.56H221.2C219.651 715.602 218.146 715.043 217 714V714ZM216.95 744.84C216.971 745.35 217.11 745.849 217.356 746.297C217.603 746.745 217.95 747.129 218.37 747.42C219.489 748.239 220.856 748.645 222.24 748.57C223.623 748.632 224.986 748.227 226.11 747.42C226.562 747.156 226.938 746.777 227.198 746.323C227.459 745.868 227.596 745.354 227.596 744.83C227.596 744.306 227.459 743.791 227.198 743.337C226.938 742.882 226.562 742.504 226.11 742.24C224.979 741.448 223.619 741.051 222.24 741.11C220.859 741.035 219.494 741.434 218.37 742.24C217.962 742.532 217.627 742.914 217.39 743.356C217.152 743.798 217.019 744.289 217 744.79L216.95 744.84Z" fill="#595857"/>
<path d="M249.16 745H245.42V720.14C245.453 719.535 245.365 718.93 245.16 718.36C245.085 718.184 244.967 718.03 244.816 717.911C244.666 717.792 244.488 717.713 244.3 717.68C243.854 717.593 243.416 717.469 242.99 717.31C242.831 717.267 242.691 717.172 242.593 717.039C242.495 716.907 242.444 716.745 242.45 716.58C242.45 715.95 242.88 715.63 243.74 715.63H247.74C248.68 715.63 249.16 716.07 249.16 716.94V745Z" fill="#595857"/>
<path d="M277.41 743.28C276.505 743.824 275.534 744.251 274.52 744.55C273.224 744.965 271.88 745.211 270.52 745.28C265.96 745.56 262.274 744.227 259.46 741.28C256.899 738.227 255.424 734.411 255.264 730.43C255.105 726.449 256.271 722.527 258.58 719.28C260.8 716.547 264.004 715.18 268.19 715.18C270.625 715.109 273.015 715.844 274.99 717.27C276.85 718.657 277.78 720.213 277.78 721.94H273.7C273.653 721.372 273.475 720.823 273.18 720.335C272.885 719.848 272.481 719.435 272 719.13C270.86 718.338 269.497 717.932 268.11 717.97C266.892 717.962 265.69 718.237 264.596 718.773C263.503 719.309 262.549 720.092 261.81 721.06C260.035 723.339 259.128 726.174 259.25 729.06C259.25 734.02 260.497 737.553 262.99 739.66C264.104 740.66 265.413 741.418 266.835 741.884C268.257 742.351 269.761 742.516 271.25 742.37C272.174 742.298 273.088 742.138 273.98 741.89C274.68 741.697 275.352 741.414 275.98 741.05C276.148 740.934 276.337 740.853 276.536 740.812C276.735 740.771 276.941 740.77 277.14 740.81C277.321 740.839 277.492 740.909 277.641 741.014C277.79 741.12 277.913 741.259 278 741.42C278.08 741.575 278.122 741.746 278.122 741.92C278.122 742.094 278.08 742.265 278 742.42C277.872 742.748 277.671 743.042 277.41 743.28V743.28Z" fill="#595857"/>
<path d="M1085 167C1084.98 165.844 1085.22 164.698 1085.68 163.639C1086.14 162.58 1086.83 161.632 1087.69 160.86C1089.44 159.184 1091.78 158.271 1094.2 158.32C1096.65 158.256 1099.02 159.153 1100.82 160.82C1100.87 160.893 1100.93 160.96 1101 161.02C1101.31 160.79 1101.69 160.677 1102.07 160.7H1109.55V159.1C1109.61 158.556 1109.49 158.007 1109.21 157.54C1108.87 157.243 1108.45 157.045 1108 156.97C1107.52 156.86 1107.06 156.71 1106.61 156.52C1106.45 156.456 1106.31 156.343 1106.21 156.196C1106.11 156.049 1106.06 155.876 1106.07 155.7C1106.07 154.96 1106.57 154.59 1107.57 154.59H1111.44C1112.68 154.59 1113.29 155.18 1113.29 156.35V174.29C1113.29 176.89 1112.35 178.18 1110.46 178.18H1109.55V173.18H1102.07C1101.71 173.194 1101.36 173.093 1101.07 172.89L1100.81 173.13C1099.93 173.976 1098.89 174.64 1097.76 175.082C1096.62 175.525 1095.41 175.738 1094.19 175.71C1091.77 175.763 1089.43 174.853 1087.68 173.18C1086.82 172.401 1086.13 171.446 1085.67 170.38C1085.21 169.314 1084.98 168.162 1085 167V167ZM1088.78 167C1088.76 167.739 1088.89 168.475 1089.17 169.162C1089.44 169.85 1089.85 170.475 1090.37 171C1090.86 171.517 1091.46 171.926 1092.12 172.203C1092.78 172.48 1093.49 172.619 1094.2 172.61C1094.93 172.617 1095.66 172.479 1096.33 172.202C1097.01 171.926 1097.62 171.517 1098.14 171C1099.19 169.935 1099.78 168.497 1099.78 167C1099.78 165.502 1099.19 164.065 1098.14 163C1097.62 162.484 1097.01 162.077 1096.33 161.802C1095.65 161.527 1094.93 161.391 1094.2 161.4C1093.49 161.389 1092.78 161.526 1092.12 161.801C1091.46 162.076 1090.86 162.484 1090.37 163C1089.84 163.522 1089.43 164.147 1089.16 164.835C1088.88 165.522 1088.75 166.259 1088.77 167H1088.78ZM1093.13 183C1092.32 183 1091.92 182.5 1091.92 181.49C1091.92 180.48 1092.32 180.01 1093.13 180.01H1111.32C1112.4 180.01 1112.95 180.62 1112.95 181.82V190.54C1112.95 193.24 1112.06 194.573 1110.28 194.54H1109.28V182.95L1093.13 183ZM1102.84 163.67C1103.33 164.721 1103.59 165.869 1103.58 167.03C1103.59 168.143 1103.36 169.245 1102.93 170.27H1109.55V163.67H1102.84Z" fill="#595857"/>
<path d="M1124.76 159.79C1123.85 159.79 1123.39 159.28 1123.39 158.27C1123.39 157.26 1123.85 156.76 1124.76 156.76H1143.43C1144.63 156.76 1145.23 157.45 1145.23 158.84C1145.23 161.186 1145.09 163.81 1144.8 166.71C1144.59 168.868 1144.2 171.006 1143.64 173.1H1150.31C1150.51 173.068 1150.72 173.084 1150.91 173.147C1151.11 173.209 1151.28 173.316 1151.43 173.458C1151.57 173.601 1151.68 173.776 1151.75 173.969C1151.82 174.162 1151.84 174.368 1151.81 174.57C1151.84 174.774 1151.82 174.983 1151.76 175.179C1151.69 175.375 1151.58 175.553 1151.44 175.7C1151.29 175.846 1151.11 175.957 1150.92 176.023C1150.72 176.089 1150.51 176.108 1150.31 176.08H1119.31C1118.45 176.08 1118.02 175.58 1118.02 174.57C1118.02 173.56 1118.45 173.1 1119.31 173.1H1131.52V169.25C1131.55 168.775 1131.49 168.299 1131.33 167.85C1131.08 167.531 1130.73 167.314 1130.33 167.24C1129.89 167.121 1129.47 166.95 1129.07 166.73C1128.93 166.651 1128.81 166.535 1128.73 166.394C1128.65 166.253 1128.61 166.092 1128.61 165.93C1128.61 165.25 1129.13 164.93 1130.16 164.93H1133.47C1134.68 164.93 1135.28 165.58 1135.28 166.86V173.13H1140.74C1141.08 170.37 1141.27 168.403 1141.3 167.23C1141.33 166.056 1141.33 163.586 1141.3 159.82L1124.76 159.79ZM1124.59 183.17C1123.79 183.17 1123.39 182.66 1123.39 181.65C1123.39 180.64 1123.79 180.18 1124.59 180.18H1143.34C1144.43 180.18 1144.97 180.78 1144.97 181.98V190.46C1144.97 193.16 1144.1 194.493 1142.35 194.46H1141.28V183.12L1124.59 183.17Z" fill="#595857"/>
<path d="M1153.7 167C1153.69 165.844 1153.92 164.699 1154.38 163.64C1154.85 162.581 1155.53 161.634 1156.39 160.86C1158.14 159.183 1160.49 158.269 1162.91 158.32C1165.36 158.26 1167.73 159.157 1169.53 160.82C1169.58 160.895 1169.63 160.962 1169.7 161.02C1170.01 160.793 1170.39 160.68 1170.77 160.7H1178.26V159.1C1178.32 158.555 1178.2 158.005 1177.91 157.54C1177.57 157.244 1177.15 157.047 1176.71 156.97C1176.23 156.862 1175.76 156.711 1175.31 156.52C1175.15 156.456 1175.01 156.343 1174.91 156.196C1174.81 156.049 1174.76 155.876 1174.77 155.7C1174.77 154.96 1175.27 154.59 1176.28 154.59H1180.15C1181.38 154.59 1182 155.18 1182 156.35V174.29C1182 176.89 1181.05 178.18 1179.16 178.18H1178.26V173.18H1170.77C1170.41 173.199 1170.06 173.097 1169.77 172.89L1169.51 173.13C1168.63 173.975 1167.59 174.637 1166.46 175.08C1165.32 175.523 1164.11 175.737 1162.89 175.71C1160.47 175.764 1158.12 174.854 1156.37 173.18C1155.51 172.398 1154.83 171.443 1154.37 170.377C1153.91 169.312 1153.68 168.16 1153.7 167ZM1157.49 167C1157.47 167.739 1157.6 168.475 1157.88 169.162C1158.15 169.85 1158.56 170.475 1159.08 171C1159.57 171.518 1160.17 171.928 1160.83 172.205C1161.49 172.482 1162.2 172.62 1162.91 172.61C1163.64 172.618 1164.36 172.479 1165.04 172.203C1165.71 171.926 1166.33 171.517 1166.84 171C1167.9 169.939 1168.5 168.5 1168.5 167C1168.5 165.5 1167.9 164.061 1166.84 163C1166.33 162.484 1165.71 162.076 1165.04 161.802C1164.36 161.527 1163.64 161.39 1162.91 161.4C1162.2 161.388 1161.49 161.524 1160.83 161.799C1160.17 162.075 1159.57 162.483 1159.08 163C1158.56 163.523 1158.15 164.148 1157.87 164.836C1157.6 165.524 1157.47 166.26 1157.49 167V167ZM1161.83 183C1161.03 183 1160.63 182.5 1160.63 181.49C1160.63 180.48 1161.03 180.01 1161.83 180.01H1180C1181.09 180.01 1181.63 180.62 1181.63 181.82V190.54C1181.63 193.24 1180.74 194.573 1178.97 194.54H1177.97V182.95L1161.83 183ZM1171.55 163.67C1172.04 164.721 1172.29 165.869 1172.28 167.03C1172.29 168.143 1172.06 169.245 1171.63 170.27H1178.26V163.67H1171.55Z" fill="#595857"/>
<path d="M1012.19 210.5C1011.87 213.09 1011.09 215.6 1009.87 217.91L1018.29 225.98C1018.76 226.383 1019.06 226.952 1019.13 227.57C1019.19 227.829 1019.17 228.1 1019.08 228.349C1018.98 228.598 1018.82 228.814 1018.6 228.97C1018.37 229.163 1018.1 229.296 1017.8 229.359C1017.51 229.422 1017.21 229.412 1016.92 229.33C1016.33 229.153 1015.8 228.805 1015.41 228.33L1008.49 220.33C1008.46 220.416 1008.41 220.496 1008.36 220.57C1006.3 224.104 1003.63 227.251 1000.49 229.87C1000.26 230.113 999.957 230.266 999.627 230.303C999.297 230.34 998.965 230.257 998.69 230.07C998.14 229.69 998.19 229.17 998.82 228.52C1001.42 225.777 1003.57 222.646 1005.2 219.24C1006.53 216.686 1007.47 213.945 1007.98 211.11C1008 210.96 1007.97 210.809 1007.89 210.678C1007.82 210.547 1007.71 210.442 1007.57 210.38C1007.18 210.179 1006.77 210.04 1006.34 209.97C1005.57 209.83 1005.19 209.45 1005.22 208.82C1005.25 208.19 1005.7 207.88 1006.56 207.88H1009.48C1009.88 207.831 1010.28 207.867 1010.66 207.986C1011.05 208.105 1011.4 208.304 1011.7 208.57C1011.91 208.843 1012.05 209.155 1012.14 209.486C1012.22 209.817 1012.24 210.162 1012.19 210.5V210.5ZM1023.41 206.93C1023.48 206.689 1023.49 206.435 1023.44 206.189C1023.4 205.943 1023.29 205.71 1023.15 205.51C1023 205.309 1022.8 205.145 1022.58 205.031C1022.36 204.916 1022.11 204.854 1021.86 204.85C1021.38 204.74 1020.92 204.59 1020.47 204.4C1020.31 204.336 1020.17 204.222 1020.07 204.076C1019.97 203.929 1019.92 203.755 1019.93 203.58C1019.93 202.84 1020.43 202.47 1021.43 202.47H1025.3C1026.54 202.47 1027.15 203.04 1027.15 204.19V237.81C1027.15 240.383 1026.21 241.666 1024.32 241.66H1023.41V218.93H1016.36C1015.44 218.93 1014.98 218.43 1014.98 217.42C1014.98 216.41 1015.44 215.94 1016.36 215.94H1023.41V206.93Z" fill="#595857"/>
<path d="M1050.67 223.89C1050.71 224.736 1050.55 225.58 1050.2 226.35H1057.55C1058.55 226.35 1059.1 226.96 1059.1 228.19V233.27C1059.1 234.74 1058.53 235.48 1057.38 235.48H1042.93V237.81C1042.91 237.945 1042.93 238.082 1042.97 238.211C1043.02 238.34 1043.09 238.457 1043.19 238.553C1043.28 238.649 1043.4 238.722 1043.53 238.767C1043.66 238.811 1043.79 238.826 1043.93 238.81H1059.07C1059.99 238.81 1060.45 239.3 1060.45 240.28C1060.48 240.476 1060.47 240.676 1060.41 240.865C1060.35 241.054 1060.24 241.226 1060.11 241.369C1059.97 241.511 1059.8 241.62 1059.61 241.686C1059.43 241.752 1059.23 241.774 1059.03 241.75H1041.9C1040.07 241.75 1039.15 240.75 1039.15 238.64V236.51C1039.19 236.083 1039.1 235.654 1038.89 235.28C1038.66 235.029 1038.36 234.846 1038.03 234.75C1037.8 234.64 1037.56 234.51 1037.3 234.36C1037.17 234.283 1037.06 234.171 1037 234.036C1036.93 233.902 1036.9 233.751 1036.91 233.6C1036.91 232.87 1037.32 232.5 1038.12 232.5H1055.36V229.26H1039.36C1038.44 229.26 1037.99 228.79 1037.99 227.83C1037.99 226.87 1038.44 226.32 1039.36 226.32H1047V222.83H1033.24C1032.38 222.83 1031.95 222.34 1031.95 221.36C1031.95 220.38 1032.38 219.89 1033.24 219.89H1064.24C1064.63 219.89 1065 220.045 1065.28 220.321C1065.55 220.596 1065.71 220.97 1065.71 221.36C1065.71 221.75 1065.55 222.124 1065.28 222.4C1065 222.675 1064.63 222.83 1064.24 222.83H1050.69L1050.67 223.89ZM1039 210.7C1039.01 209.647 1039.27 208.611 1039.75 207.676C1040.23 206.741 1040.93 205.933 1041.79 205.32C1043.83 203.855 1046.28 203.067 1048.79 203.067C1051.3 203.067 1053.75 203.855 1055.79 205.32C1056.65 205.931 1057.35 206.737 1057.84 207.672C1058.33 208.607 1058.59 209.645 1058.6 210.7C1058.59 211.744 1058.33 212.77 1057.84 213.692C1057.35 214.614 1056.65 215.406 1055.79 216C1053.74 217.441 1051.3 218.215 1048.79 218.215C1046.28 218.215 1043.84 217.441 1041.79 216C1040.94 215.403 1040.24 214.611 1039.75 213.689C1039.27 212.767 1039.01 211.742 1039 210.7V210.7ZM1042.78 210.7C1042.8 211.311 1042.96 211.91 1043.25 212.448C1043.54 212.985 1043.96 213.445 1044.46 213.79C1045.73 214.656 1047.23 215.12 1048.77 215.12C1050.31 215.12 1051.81 214.656 1053.08 213.79C1053.59 213.447 1054.01 212.988 1054.3 212.451C1054.6 211.913 1054.76 211.313 1054.78 210.7C1054.77 210.072 1054.61 209.456 1054.31 208.902C1054.02 208.348 1053.59 207.871 1053.08 207.51C1051.81 206.631 1050.31 206.159 1048.77 206.159C1047.23 206.159 1045.73 206.631 1044.46 207.51C1043.95 207.871 1043.52 208.348 1043.23 208.902C1042.93 209.456 1042.77 210.072 1042.76 210.7H1042.78Z" fill="#595857"/>
<path d="M1086.79 215.74C1086.8 214.493 1087.08 213.263 1087.61 212.136C1088.14 211.008 1088.91 210.01 1089.87 209.21C1091.94 207.387 1094.61 206.382 1097.37 206.382C1100.13 206.382 1102.8 207.387 1104.87 209.21C1105.83 210.008 1106.6 211.007 1107.13 212.138C1107.67 213.268 1107.94 214.501 1107.94 215.75C1107.94 216.999 1107.67 218.232 1107.13 219.362C1106.6 220.493 1105.83 221.492 1104.87 222.29C1103.29 223.715 1101.34 224.653 1099.24 224.99V232.28H1112.79C1113.19 232.28 1113.57 232.438 1113.85 232.719C1114.13 233.001 1114.29 233.382 1114.29 233.78C1114.29 234.178 1114.13 234.559 1113.85 234.841C1113.57 235.122 1113.19 235.28 1112.79 235.28H1081.79C1080.93 235.28 1080.5 234.79 1080.5 233.81C1080.5 232.81 1080.93 232.33 1081.79 232.33H1095.51V225C1093.42 224.678 1091.47 223.738 1089.92 222.3C1088.95 221.499 1088.17 220.498 1087.63 219.365C1087.09 218.232 1086.8 216.995 1086.79 215.74ZM1090.58 215.74C1090.57 216.584 1090.74 217.421 1091.09 218.191C1091.43 218.962 1091.94 219.647 1092.58 220.2C1093.87 221.383 1095.56 222.04 1097.31 222.04C1099.06 222.04 1100.75 221.383 1102.04 220.2C1102.68 219.651 1103.19 218.97 1103.55 218.203C1103.9 217.437 1104.08 216.603 1104.08 215.76C1104.08 214.917 1103.9 214.083 1103.55 213.317C1103.19 212.55 1102.68 211.869 1102.04 211.32C1100.75 210.137 1099.06 209.48 1097.31 209.48C1095.56 209.48 1093.87 210.137 1092.58 211.32C1091.94 211.866 1091.44 212.545 1091.09 213.308C1090.74 214.072 1090.57 214.902 1090.58 215.74V215.74Z" fill="#595857"/>
<path d="M1148.11 228.6H1140.42V237.6C1140.42 240.33 1139.51 241.69 1137.71 241.69H1136.8V228.6H1129V237.6C1129 240.333 1128.1 241.697 1126.29 241.69H1125.39V228.6H1117.13C1116.27 228.6 1115.84 228.09 1115.84 227.08C1115.84 226.07 1116.27 225.61 1117.13 225.61H1148.13C1148.33 225.582 1148.53 225.6 1148.72 225.664C1148.92 225.728 1149.09 225.835 1149.23 225.978C1149.37 226.121 1149.48 226.294 1149.55 226.486C1149.61 226.677 1149.63 226.88 1149.6 227.08C1149.63 227.285 1149.62 227.494 1149.56 227.692C1149.49 227.889 1149.39 228.07 1149.24 228.218C1149.1 228.366 1148.92 228.477 1148.72 228.544C1148.52 228.61 1148.32 228.63 1148.11 228.6V228.6ZM1122.87 204.6H1141.15C1142.15 204.6 1142.65 205.21 1142.65 206.44V212.54C1142.65 214.02 1142.08 214.76 1140.93 214.76H1126.48V218C1126.47 218.135 1126.49 218.27 1126.53 218.397C1126.58 218.524 1126.65 218.639 1126.75 218.734C1126.84 218.83 1126.96 218.903 1127.08 218.949C1127.21 218.995 1127.35 219.012 1127.48 219H1142.4C1143.31 219 1143.77 219.5 1143.77 220.51C1143.77 221.52 1143.3 221.98 1142.35 221.98H1125.07C1123.49 221.98 1122.7 221.07 1122.7 219.24V215.8C1122.74 215.374 1122.63 214.948 1122.4 214.59C1122.16 214.339 1121.87 214.15 1121.54 214.04C1121.28 213.948 1121.05 213.816 1120.83 213.65C1120.73 213.552 1120.65 213.433 1120.6 213.302C1120.56 213.17 1120.54 213.03 1120.55 212.89C1120.55 212.18 1120.95 211.83 1121.76 211.83H1138.83V207.57H1122.83C1121.94 207.57 1121.5 207.06 1121.5 206.05C1121.5 205.04 1122 204.6 1122.87 204.6Z" fill="#595857"/>
<path d="M1157.7 236.09H1154V211.23C1154.04 210.625 1153.95 210.019 1153.74 209.45C1153.66 209.275 1153.55 209.123 1153.4 209.005C1153.25 208.888 1153.07 208.811 1152.88 208.78C1152.44 208.686 1152 208.562 1151.57 208.41C1151.41 208.365 1151.27 208.268 1151.17 208.134C1151.07 207.999 1151.02 207.836 1151.03 207.67C1151.03 207.04 1151.46 206.73 1152.32 206.73H1156.32C1157.27 206.73 1157.74 207.17 1157.74 208.04L1157.7 236.09Z" fill="#595857"/>
<path d="M1184.19 234.33C1183.29 234.877 1182.32 235.304 1181.31 235.6C1180.01 236.018 1178.67 236.266 1177.31 236.34C1172.75 236.607 1169.07 235.273 1166.26 232.34C1164.84 230.794 1163.73 228.983 1163.01 227.01C1162.28 225.037 1161.95 222.94 1162.04 220.84C1161.88 217.046 1163.06 213.319 1165.38 210.31C1167.6 207.577 1170.8 206.213 1174.99 206.22C1177.42 206.146 1179.81 206.881 1181.78 208.31C1183.65 209.703 1184.58 211.257 1184.58 212.97H1180.49C1180.44 212.403 1180.27 211.855 1179.97 211.368C1179.68 210.882 1179.27 210.472 1178.79 210.17C1177.65 209.37 1176.29 208.959 1174.9 209C1173.68 208.994 1172.48 209.27 1171.39 209.806C1170.29 210.342 1169.34 211.124 1168.6 212.09C1166.83 214.372 1165.93 217.205 1166.04 220.09C1166.04 225.057 1167.29 228.593 1169.79 230.7C1170.9 231.699 1172.21 232.456 1173.63 232.921C1175.05 233.385 1176.55 233.549 1178.04 233.4C1178.96 233.332 1179.88 233.174 1180.77 232.93C1181.47 232.74 1182.14 232.458 1182.77 232.09C1182.94 231.971 1183.12 231.888 1183.32 231.845C1183.52 231.802 1183.73 231.8 1183.93 231.84C1184.11 231.869 1184.28 231.94 1184.43 232.048C1184.58 232.156 1184.7 232.297 1184.79 232.46C1184.87 232.614 1184.91 232.786 1184.91 232.96C1184.91 233.134 1184.87 233.306 1184.79 233.46C1184.66 233.794 1184.46 234.093 1184.19 234.33V234.33Z" fill="#595857"/>
</svg>
