<svg enable-background="new 0 0 264 73" viewBox="0 0 264 73" xmlns="http://www.w3.org/2000/svg" xmlns:xlink="http://www.w3.org/1999/xlink"><linearGradient id="a"><stop offset="0" stop-color="#b4b3b3"/><stop offset="1" stop-color="#ccc"/></linearGradient><linearGradient id="b" gradientTransform="matrix(0 -1 1 0 1596.2695 1263.7305)" gradientUnits="userSpaceOnUse" x1="1211.6117" x2="1241.5216" xlink:href="#a" y1="-1579.3656" y2="-1549.4557"/><linearGradient id="c" gradientUnits="userSpaceOnUse" x1="16.9039" x2="46.8139" xlink:href="#a" y1="22.2088" y2="52.1188"/><path d="m34.1 10.4v53.6c0 1.2-1 2.2-2.2 2.2s-2.2-1-2.2-2.2v-53.6c0-1.2 1-2.2 2.2-2.2s2.2.9 2.2 2.2z" fill="url(#b)"/><path d="m58.7 39.4h-53.6c-1.2 0-2.2-1-2.2-2.2s1-2.2 2.2-2.2h53.6c1.2 0 2.2 1 2.2 2.2s-1 2.2-2.2 2.2z" fill="url(#c)"/><g fill="#595957"><path d="m112.6 46.4h-22c-2.7 0-4-1.5-4-4.4v-19.5c0-1.5-.1-2.5-.2-3.1-.2-.5-.8-1-1.8-1.4-.5-.2-.9-.4-1.2-.6s-.5-.6-.5-1c0-1 .6-1.5 1.7-1.5h25.4c1.5 0 2.2.7 2.2 2.1s-.7 2.1-2.2 2.1h-18.3v21.3c0 1.2.6 1.9 1.7 1.9h19.2c1.4 0 2.2.7 2.2 2.1-.1 1.3-.8 2-2.2 2zm10.5-34.5c0-1.3-.3-2.2-.8-2.6s-1.3-.8-2.2-1-1.6-.4-2.1-.7c-.5-.2-.7-.6-.7-1.1 0-1 .7-1.5 2.2-1.5h6.1c1.9 0 2.8.9 2.8 2.8v53.9c0 4.1-1.3 6.2-4 6.2h-1.3v-36.4h-14.2c-1.4 0-2.2-.7-2.2-2.1 0-1.3.7-2 2.2-2h14.2z"/><path d="m174.8 22.7h20.8v-6c0-1.1-.1-1.8-.4-2.2-.3-.3-.7-.6-1.2-.8-.7-.2-1.2-.4-1.5-.6s-.5-.5-.5-1c0-.9.7-1.4 2-1.4h4c1.9 0 2.8 1 2.8 2.9v19.2c0 2.1-.4 3.6-1.3 4.6 1.4 0 2.2.7 2.2 2.1s-.7 2.1-2.2 2.1h-11.7v11.8h22c1.6 0 2.4.7 2.4 2.1s-.8 2.1-2.4 2.1h-49.4c-1.4 0-2.1-.7-2.1-2.1s.7-2.1 2.1-2.1h22.2v-11.8h-8.9c-.7 1.2-1.6 1.8-2.9 1.8h-1.3v-24.5c0-1.2-.1-1.9-.3-2.3s-.6-.6-1.1-.8c-.5-.1-1-.3-1.4-.5s-.7-.6-.7-1.1c0-.9.7-1.4 2-1.4h4.1c1.7 0 2.6 1 2.6 2.9v7zm20.8 4.2h-20.8v8.5c0 .7 0 1.4-.1 2h20.8v-10.5z"/><path d="m220.1 19.4c-1.5 0-2.2-.7-2.2-2.1s.7-2.1 2.2-2.1h22.2c.9 0 1.6.3 2.1 1s.6 1.4.4 2.1c-1 5.6-4 11.4-9 17.3-5 6-10.5 10.8-16.6 14.4-1.4.8-2.4.8-2.9-.1-.6-.9-.3-1.7.8-2.5 5.5-4 10.2-8.6 14-13.8 3.9-5.2 6.3-9.9 7.2-14.2zm35.8-7.5c0-1.3-.3-2.2-.8-2.6s-1.3-.8-2.2-1-1.6-.4-2.1-.7c-.5-.2-.7-.6-.7-1.1 0-1 .7-1.5 2.2-1.5h6.1c1.9 0 2.8.9 2.8 2.8v53.9c0 4.1-1.3 6.2-4 6.2h-1.3z"/></g></svg>