<svg width="1125" height="867" viewBox="0 0 1125 867" fill="none" xmlns="http://www.w3.org/2000/svg">
<path d="M523.87 177.35V214.35C523.902 215.54 523.655 216.721 523.148 217.797C522.641 218.874 521.888 219.817 520.95 220.55C519.056 222.11 516.899 223.319 514.58 224.12C511.565 225.15 508.452 225.871 505.29 226.27V220.6H484.91C483.51 221.819 481.923 222.805 480.21 223.52C478.566 224.222 476.871 224.801 475.14 225.25C473.221 225.725 471.273 226.082 469.31 226.32V177.95L462.75 177.23C462.604 177.231 462.459 177.201 462.326 177.14C462.193 177.08 462.075 176.991 461.98 176.88C461.798 176.683 461.692 176.428 461.68 176.16C461.657 175.998 461.671 175.833 461.723 175.678C461.774 175.523 461.861 175.382 461.977 175.267C462.092 175.151 462.233 175.064 462.388 175.013C462.543 174.961 462.709 174.946 462.87 174.97H462.99L487.89 177.35V188.55H505.29V177.95L498.73 177.23C498.584 177.231 498.439 177.201 498.306 177.14C498.173 177.08 498.055 176.991 497.96 176.88C497.778 176.683 497.672 176.428 497.66 176.16C497.637 175.998 497.651 175.833 497.703 175.678C497.754 175.523 497.841 175.382 497.957 175.267C498.072 175.151 498.213 175.064 498.368 175.013C498.523 174.961 498.689 174.946 498.85 174.97H498.97L523.87 177.35ZM554.37 255.03C554.415 256.803 553.87 258.541 552.82 259.97C551.781 261.371 550.489 262.565 549.01 263.49C547.468 264.454 545.83 265.251 544.12 265.87C542.506 266.468 540.856 266.966 539.18 267.36C537.627 267.72 536.317 267.98 535.25 268.14C534.18 268.29 533.6 268.37 533.52 268.37V237.87H498.52L488.4 242.4L478.4 237.87V235.61H554.4L554.37 255.03ZM505.29 216.67V192.5H487.89V214.4C487.894 215.171 487.772 215.938 487.53 216.67H505.29ZM564.29 192.13C566.501 192.133 568.621 193.012 570.185 194.576C571.748 196.139 572.627 198.259 572.63 200.47H553.5V220.12C553.53 221.309 553.282 222.489 552.775 223.566C552.268 224.642 551.516 225.585 550.58 226.32C548.683 227.88 546.522 229.089 544.2 229.89C541.185 230.92 538.072 231.641 534.91 232.04V170.2L528.36 169.49C528.063 169.467 527.786 169.331 527.587 169.109C527.388 168.888 527.282 168.598 527.29 168.3C527.29 167.58 527.68 167.23 528.48 167.23H528.59L553.5 169.61V196.5H556.83C557.542 195.161 558.607 194.042 559.91 193.267C561.213 192.491 562.704 192.087 564.22 192.1L564.29 192.13Z" fill="#595857"/>
<path d="M663.26 220.96C663.786 220.952 664.296 221.141 664.69 221.49C664.884 221.661 665.038 221.872 665.142 222.109C665.245 222.345 665.296 222.602 665.29 222.86C665.295 223.127 665.244 223.392 665.14 223.638C665.037 223.884 664.884 224.106 664.69 224.29C664.504 224.48 664.281 224.631 664.036 224.734C663.79 224.837 663.526 224.89 663.26 224.89H618.7C617.358 226.073 615.853 227.057 614.23 227.81C612.708 228.515 611.125 229.08 609.5 229.5C607.779 229.974 606.028 230.334 604.26 230.58V179.14L597.7 178.43C597.553 178.43 597.408 178.398 597.275 178.336C597.142 178.274 597.024 178.183 596.93 178.07C596.748 177.873 596.641 177.618 596.63 177.35C596.607 177.188 596.621 177.023 596.673 176.868C596.724 176.713 596.811 176.572 596.927 176.457C597.042 176.341 597.183 176.254 597.339 176.203C597.494 176.151 597.658 176.136 597.82 176.16H597.94L621.65 178.54H639.88L648.46 174.02L658.46 178.66V219.77L663.26 220.96ZM625.26 266.71C623.862 266.813 622.471 266.431 621.32 265.63C620.51 264.996 619.859 264.181 619.42 263.25C618.917 262.124 618.632 260.912 618.58 259.68V237.68H612.63C612.332 237.653 612.055 237.515 611.853 237.294C611.651 237.073 611.54 236.784 611.54 236.485C611.54 236.186 611.651 235.897 611.853 235.676C612.055 235.455 612.332 235.317 612.63 235.29H627.16C628.644 235.21 630.124 235.52 631.45 236.19C632.771 236.841 633.961 237.729 634.96 238.81C635.935 239.848 636.742 241.032 637.35 242.32C637.915 243.473 638.219 244.736 638.24 246.02V262.22C638.228 262.63 638.31 263.037 638.48 263.41C638.645 263.765 638.917 264.059 639.258 264.251C639.599 264.443 639.991 264.523 640.38 264.48H676.96L686.96 259.84L696.96 264.48V266.75L625.26 266.71ZM621.68 182.5V218.71C621.684 219.481 621.562 220.248 621.32 220.98H641.1V182.5H621.68ZM695.5 230.85C695.53 232.037 695.283 233.215 694.778 234.289C694.272 235.364 693.523 236.306 692.59 237.04C690.694 238.602 688.533 239.811 686.21 240.61C683.195 241.641 680.082 242.362 676.92 242.76V170.2L670.37 169.49C670.073 169.467 669.797 169.331 669.597 169.109C669.398 168.888 669.291 168.598 669.3 168.3C669.3 167.58 669.69 167.23 670.49 167.23H670.61L695.5 169.61V230.85Z" fill="#595857"/>
<path d="M791.09 268.14V232.5H768.57V256.33C768.601 257.519 768.354 258.698 767.849 259.774C767.343 260.851 766.594 261.794 765.66 262.53C763.758 264.082 761.599 265.291 759.28 266.1C756.264 267.126 753.151 267.843 749.99 268.24V232.5H743.08L736.08 235.6L729.08 232.5V230.12H796.08C799.587 225.186 802.169 219.656 803.7 213.8C805.057 208.61 805.914 203.303 806.26 197.95C806.547 193.619 806.487 189.271 806.08 184.95C805.68 181.18 805.49 178.46 805.49 176.79H751.3L745.46 179.88L739.63 176.79V174.5H805.63L815.63 169.86L825.63 174.5V189.4C825.647 193.498 825.447 197.593 825.03 201.67C824.695 205.137 823.957 208.554 822.83 211.85C821.78 214.875 820.184 217.681 818.12 220.13C815.777 222.835 812.999 225.129 809.9 226.92C807.792 228.139 805.603 229.215 803.35 230.14H810.98L822.65 222.28L834.33 230.14V232.5H809.67V256.21C809.699 257.399 809.45 258.579 808.943 259.655C808.436 260.731 807.685 261.675 806.75 262.41C804.851 263.968 802.691 265.177 800.37 265.98C797.357 267.009 794.248 267.733 791.09 268.14V268.14Z" fill="#595857"/>
<path d="M297.09 218.07C295.6 218.07 294.85 217.4 294.85 216.07C294.85 214.74 295.57 214.07 297.02 214.07H316.35C316.854 214.018 317.363 214.073 317.843 214.232C318.324 214.39 318.766 214.649 319.14 214.99C319.426 215.346 319.609 215.774 319.671 216.226C319.733 216.679 319.67 217.14 319.49 217.56C318.322 221.291 316.372 224.731 313.77 227.65L323.77 236.53C324.107 236.754 324.391 237.049 324.602 237.395C324.813 237.74 324.945 238.128 324.99 238.53C325.016 238.86 324.955 239.19 324.815 239.49C324.674 239.79 324.459 240.048 324.19 240.24C323.643 240.665 322.962 240.881 322.27 240.85C321.542 240.825 320.853 240.516 320.35 239.99L311.28 230.22C311.04 230.47 310.81 230.71 310.58 230.92C306.086 235.217 300.951 238.79 295.36 241.51C294.15 242.11 293.36 242.01 292.88 241.23C292.4 240.45 292.68 239.74 293.62 239.1C298.027 236.377 302.061 233.093 305.62 229.33C308.802 226.078 311.325 222.241 313.05 218.03L297.09 218.07ZM308.6 256.72C308.581 255.046 308.938 253.39 309.646 251.874C310.354 250.357 311.395 249.02 312.69 247.96C315.49 245.664 318.999 244.409 322.62 244.409C326.241 244.409 329.75 245.664 332.55 247.96C333.819 249.037 334.838 250.377 335.537 251.887C336.236 253.397 336.598 255.041 336.598 256.705C336.598 258.369 336.236 260.013 335.537 261.523C334.838 263.033 333.819 264.373 332.55 265.45C329.741 267.727 326.236 268.969 322.62 268.969C319.005 268.969 315.499 267.727 312.69 265.45C311.394 264.398 310.352 263.066 309.644 261.554C308.935 260.042 308.579 258.389 308.6 256.72V256.72ZM313.91 256.72C313.869 257.838 314.079 258.952 314.526 259.978C314.972 261.004 315.644 261.918 316.49 262.65C318.205 264.11 320.383 264.911 322.635 264.911C324.887 264.911 327.065 264.11 328.78 262.65C329.595 261.892 330.244 260.974 330.689 259.954C331.133 258.934 331.362 257.833 331.362 256.72C331.362 255.607 331.133 254.506 330.689 253.486C330.244 252.466 329.595 251.548 328.78 250.79C327.065 249.33 324.887 248.529 322.635 248.529C320.383 248.529 318.205 249.33 316.49 250.79C315.645 251.523 314.973 252.436 314.527 253.462C314.08 254.488 313.87 255.602 313.91 256.72V256.72ZM331.71 214.2C331.764 213.75 331.721 213.294 331.583 212.863C331.445 212.431 331.216 212.035 330.91 211.7C330.266 211.197 329.512 210.854 328.71 210.7C327.98 210.566 327.266 210.355 326.58 210.07C326.382 209.989 326.213 209.851 326.095 209.672C325.978 209.494 325.916 209.284 325.92 209.07C325.92 208.14 326.64 207.68 328.08 207.68H334.22C336.04 207.68 336.95 208.57 336.95 210.34V224.62H345.95C347.44 224.62 348.18 225.3 348.18 226.62C348.18 227.94 347.44 228.62 345.95 228.62H336.95V237.95C336.95 241.843 335.6 243.79 332.9 243.79H331.71V214.2Z" fill="#595857"/>
<path d="M388.8 238.7H369.26C365.02 238.7 362.9 236.9 362.9 233.3V220.42C362.959 219.637 362.819 218.853 362.49 218.14C362.041 217.564 361.391 217.178 360.67 217.06C360.16 216.968 359.674 216.775 359.24 216.49C359.106 216.363 359.002 216.207 358.936 216.033C358.87 215.86 358.844 215.674 358.86 215.49C358.86 214.56 359.41 214.1 360.53 214.1H365.63C367.35 214.1 368.21 215.1 368.21 217.1V233.41C368.21 234.34 368.61 234.8 369.4 234.8H388.87C390.31 234.8 391.04 235.48 391.04 236.8C391.04 238.12 390.29 238.7 388.8 238.7ZM400.25 246.12C402.07 246.12 402.97 247.12 402.97 249.12V258.57C402.97 260.863 402.53 262.53 401.65 263.57H401.72C403.21 263.57 403.95 264.23 403.95 265.57C403.95 266.91 403.21 267.57 401.72 267.57H379.17C378.916 268.13 378.503 268.603 377.982 268.93C377.461 269.257 376.855 269.424 376.24 269.41H375.05V253.5C375.104 252.468 375.01 251.435 374.77 250.43C374.59 249.9 374 249.43 373.03 249.13C372.588 248.999 372.172 248.793 371.8 248.52C371.649 248.403 371.529 248.25 371.451 248.076C371.372 247.902 371.338 247.711 371.35 247.52C371.35 246.59 371.98 246.12 373.24 246.12H400.25ZM380.15 263.5H397.88V250.06H380.22V261.67C380.22 262.35 380.19 262.96 380.15 263.5ZM398.3 214.19C398.355 213.739 398.311 213.282 398.171 212.851C398.031 212.419 397.799 212.023 397.49 211.69C396.848 211.185 396.093 210.842 395.29 210.69C394.563 210.555 393.853 210.344 393.17 210.06C392.969 209.982 392.797 209.844 392.677 209.665C392.558 209.487 392.496 209.275 392.5 209.06C392.5 208.13 393.22 207.67 394.67 207.67H400.81C402.63 207.67 403.53 208.56 403.53 210.33V224.61H412.53C414.02 224.61 414.76 225.29 414.76 226.61C414.76 227.93 414.02 228.61 412.53 228.61H403.53V236.99C403.53 240.883 402.18 242.83 399.48 242.83H398.3V214.19Z" fill="#595857"/>
<path d="M256.66 41.09H233.5C233.212 41.7509 232.736 42.3127 232.132 42.7056C231.527 43.0985 230.821 43.3051 230.1 43.3H228.69V16.06C228.759 15.1374 228.633 14.2106 228.32 13.34C228.01 12.8415 227.519 12.4829 226.95 12.34C226.381 12.1922 225.825 11.9948 225.29 11.75C225.044 11.6515 224.834 11.4775 224.692 11.2531C224.551 11.0286 224.483 10.765 224.5 10.5C224.5 9.35 225.28 8.77002 226.83 8.77002H231.72C233.76 8.77002 234.78 9.89997 234.78 12.16V18.71H252.03V13.5C252.119 12.6204 251.96 11.7334 251.57 10.94C251.193 10.4937 250.686 10.1758 250.12 10.03C249.504 9.83753 248.908 9.58638 248.34 9.28003C248.138 9.16684 247.973 8.9986 247.863 8.79498C247.754 8.59137 247.704 8.36075 247.72 8.13C247.72 7.03 248.52 6.47998 250.12 6.47998H254.85C257.064 6.47998 258.167 7.61 258.16 9.87V30.72C258.16 33.1933 257.663 35.0333 256.67 36.24C258.38 36.24 259.24 37.03 259.24 38.61C259.28 38.954 259.239 39.3026 259.122 39.6284C259.004 39.9543 258.814 40.2487 258.564 40.4886C258.314 40.7286 258.012 40.9078 257.682 41.0121C257.352 41.1164 257.002 41.1431 256.66 41.09V41.09ZM234.61 36.19H252.02V23.72H234.77V33.72C234.775 34.546 234.721 35.3714 234.61 36.19V36.19ZM239.5 54.35C237.95 54.35 237.18 53.51 237.18 51.83C237.18 50.15 237.92 49.38 239.42 49.38H273.57C275.623 49.38 276.647 50.51 276.64 52.77V68.77C276.64 73.77 275.204 76.27 272.33 76.27H270.59V54.35H239.5ZM271.08 8.15997C271.08 6.63997 270.77 5.59999 270.13 5.04999C269.373 4.43379 268.477 4.0116 267.52 3.82001C266.649 3.65446 265.801 3.38941 264.99 3.03003C264.746 2.92485 264.54 2.74798 264.399 2.52295C264.258 2.29792 264.189 2.03537 264.2 1.77002C264.2 0.61002 265.06 0.0300293 266.77 0.0300293H274.07C276.223 0.0300293 277.3 1.13664 277.3 3.34998V21.67H288C289.76 21.67 290.65 22.51 290.65 24.19C290.65 25.87 289.76 26.72 288 26.72H277.3V38.09C277.3 42.93 275.697 45.35 272.49 45.35H271.08V8.15997Z" fill="#595857"/>
<path d="M362.13 39.59H347.38V57.4999H373.5C375.38 57.4999 376.32 58.32 376.32 59.95C376.32 61.58 375.38 62.39 373.5 62.39H314.72C314.386 62.4113 314.051 62.3639 313.735 62.2507C313.42 62.1375 313.131 61.9609 312.887 61.7318C312.643 61.5027 312.449 61.2259 312.315 60.9186C312.182 60.6112 312.114 60.2799 312.114 59.9449C312.114 59.61 312.182 59.2786 312.315 58.9713C312.449 58.664 312.643 58.3872 312.887 58.1581C313.131 57.9289 313.42 57.7523 313.735 57.6391C314.051 57.5259 314.386 57.4786 314.72 57.4999H341.17V39.59H332.96C327.82 39.59 325.25 37.2566 325.25 32.59V16.6099C325.34 15.5837 325.168 14.5514 324.75 13.6099C324.213 12.9712 323.489 12.5167 322.68 12.3099C321.88 12.1184 321.112 11.8119 320.4 11.4C320.195 11.2533 320.031 11.0572 319.922 10.8298C319.814 10.6025 319.765 10.3513 319.78 10.0999C319.78 8.98991 320.64 8.43994 322.35 8.43994H326.91C329.91 8.43994 331.47 9.83993 331.47 12.6199V32.9199C331.47 34.0199 331.99 34.5699 333.04 34.5699H362.14C363.97 34.5699 364.88 35.4199 364.88 37.0999C364.88 38.7799 363.96 39.59 362.13 39.59Z" fill="#595857"/>
<path d="M424.08 12.66C423.571 16.6925 422.334 20.5992 420.43 24.19L435.27 38.25C436.038 38.9317 436.564 39.844 436.77 40.85C436.833 41.2258 436.814 41.611 436.714 41.9788C436.614 42.3466 436.435 42.6882 436.19 42.98C435.893 43.2976 435.532 43.547 435.129 43.7111C434.727 43.8751 434.294 43.9498 433.86 43.93C433.346 43.918 432.842 43.7915 432.383 43.5597C431.925 43.3279 431.524 42.9966 431.21 42.59L418.28 27.98C417.89 28.67 417.48 29.35 417.04 29.98C413.138 35.826 408.256 40.9547 402.61 45.14C400.95 46.3467 399.706 46.4934 398.88 45.58C398.053 44.6667 398.26 43.64 399.5 42.5C404.339 38.1228 408.453 33.006 411.69 27.34C414.73 21.92 416.527 17.21 417.08 13.21C417.161 12.8526 417.102 12.4778 416.916 12.1619C416.731 11.8461 416.432 11.6129 416.08 11.51C415.275 11.2127 414.445 10.9885 413.6 10.84C413.36 10.8321 413.124 10.7743 412.908 10.6702C412.691 10.5662 412.499 10.4182 412.343 10.2357C412.186 10.0532 412.07 9.84019 412 9.61023C411.931 9.38027 411.911 9.13842 411.94 8.90002C411.99 7.83002 412.68 7.28998 414.01 7.28998H419.23C421.23 7.28998 422.63 7.74998 423.3 8.66998C424.035 9.86131 424.313 11.2794 424.08 12.66V12.66ZM453.84 73.93H426.32C421.226 73.93 418.683 71.6133 418.69 66.98V58.5C418.69 56.97 418.43 55.96 417.91 55.5C417.148 54.8854 416.249 54.4635 415.29 54.27C414.526 54.0917 413.79 53.8126 413.1 53.44C412.905 53.2883 412.754 53.0888 412.659 52.861C412.564 52.6332 412.53 52.3849 412.56 52.14C412.56 50.98 413.39 50.41 415.05 50.41H421.68C423.83 50.41 424.91 51.64 424.91 54.12V67.3C424.91 68.41 425.41 68.96 426.4 68.96H453.84C455.67 68.96 456.58 69.8 456.58 71.49C456.58 73.18 455.67 73.93 453.84 73.93ZM446.96 8.15997C447.026 7.60699 446.98 7.04632 446.824 6.51178C446.667 5.97724 446.404 5.47995 446.05 5.04999C445.286 4.42021 444.374 3.99675 443.4 3.82001C442.544 3.64465 441.71 3.37988 440.91 3.03003C440.659 2.93119 440.444 2.75705 440.295 2.53149C440.147 2.30594 440.072 2.03998 440.08 1.77002C440.08 0.61002 440.94 0.0300293 442.65 0.0300293H449.86C452.066 0.0300293 453.173 1.13664 453.18 3.34998V49.35C453.18 54.3033 451.603 56.7767 448.45 56.77H446.96V8.15997Z" fill="#595857"/>
<path d="M543.09 31.3799C540.603 26.6399 539.333 22.5865 539.28 19.2199C539.2 17.6003 539.47 15.9826 540.07 14.4763C540.671 12.9701 541.588 11.6105 542.76 10.4899C545.133 8.20321 548.367 7.13987 552.46 7.29987C555.423 7.29358 558.279 8.40401 560.46 10.4099C561.497 11.383 562.314 12.5661 562.857 13.8801C563.4 15.1941 563.657 16.6089 563.61 18.0299C563.645 19.5596 563.361 21.0798 562.776 22.4935C562.19 23.9071 561.317 25.1831 560.21 26.2399C558.11 28.2999 554.737 30.4865 550.09 32.7999C552.297 36.5932 554.04 39.4599 555.32 41.3999C557.187 44.2466 559.48 47.5366 562.2 51.2699C563.445 49.6587 564.502 47.9107 565.35 46.0599C566.429 44.06 567.077 41.8558 567.25 39.5899C567.299 38.612 567.04 37.6433 566.51 36.8199C566.01 36.1399 564.99 35.8199 563.44 35.8199C562.61 35.8199 562.2 35.3699 562.2 34.4799C562.2 33.5899 562.58 33.1299 563.36 33.1299H577.62C578.72 33.1299 579.27 33.5799 579.27 34.4799C579.27 35.3699 578.72 35.8199 577.62 35.8199C576.551 35.768 575.485 35.9702 574.51 36.4099C573.76 36.7999 573.14 38.0299 572.64 40.0799C571.144 45.5051 568.581 50.5774 565.1 54.9999C567.767 57.9999 570.433 59.7632 573.1 60.2899C574.135 60.4466 575.19 60.4059 576.21 60.1699C577.356 59.9324 578.459 59.521 579.48 58.9499C580.81 58.2699 581.79 58.3499 582.48 59.1899C583.17 60.0299 582.93 60.7899 581.94 61.4799C580.883 62.2393 579.725 62.8485 578.5 63.2899C576.687 63.98 574.759 64.3194 572.82 64.2899C568.947 64.2899 565.28 62.4232 561.82 58.6899C557.153 63.2632 551.93 65.5499 546.15 65.5499C541.23 65.5499 537.307 64.0632 534.38 61.0899C532.952 59.6724 531.827 57.98 531.073 56.115C530.318 54.25 529.95 52.2513 529.99 50.2399C529.95 45.9233 531.481 41.7395 534.3 38.4699C536.8 35.6179 539.773 33.2193 543.09 31.3799V31.3799ZM551.21 45.1099C549.723 42.8965 547.723 39.6099 545.21 35.2499C542.684 36.6742 540.46 38.5761 538.66 40.8499C536.627 43.3599 535.619 46.547 535.84 49.7699C535.912 52.7178 537.077 55.5336 539.11 57.6699C540.913 59.4626 543.329 60.5059 545.87 60.5899C548.289 60.6434 550.686 60.1296 552.87 59.0899C555.036 58.1298 557.003 56.7732 558.67 55.0899C555.743 51.4899 553.257 48.1632 551.21 45.1099ZM547.98 28.8499C552.073 26.8499 554.863 25.0866 556.35 23.5599C557.815 22.2385 558.708 20.3985 558.84 18.4299C558.874 17.5335 558.731 16.6392 558.419 15.7983C558.107 14.9574 557.631 14.1865 557.02 13.5299C556.364 12.8841 555.581 12.3824 554.72 12.057C553.859 11.7315 552.939 11.5894 552.02 11.6399C551.08 11.5933 550.141 11.7366 549.257 12.0613C548.374 12.3861 547.566 12.8856 546.88 13.5299C546.208 14.2768 545.694 15.1514 545.367 16.1015C545.041 17.0516 544.909 18.0578 544.98 19.0599C544.993 21.7999 545.993 25.0632 547.98 28.8499V28.8499Z" fill="#595857"/>
<path d="M677.27 57.4999V39.2699C677.27 37.7999 677.01 36.8199 676.48 36.3499C675.66 35.7424 674.707 35.338 673.7 35.1699C673.064 35.0605 672.457 34.8186 671.92 34.4599C671.758 34.2929 671.634 34.093 671.557 33.8739C671.479 33.6548 671.45 33.4215 671.47 33.1899C671.47 32.0399 672.32 31.4599 674.04 31.4599H680.25C682.41 31.4599 683.49 32.6432 683.49 35.0099V57.4999H713.49C715.31 57.4999 716.22 58.3199 716.22 59.9499C716.22 61.5799 715.31 62.3899 713.49 62.3899H654.63C654.296 62.4113 653.961 62.3639 653.646 62.2507C653.33 62.1375 653.042 61.9609 652.797 61.7318C652.553 61.5026 652.358 61.2259 652.225 60.9185C652.092 60.6112 652.023 60.2798 652.023 59.9449C652.023 59.61 652.092 59.2786 652.225 58.9713C652.358 58.6639 652.553 58.3872 652.797 58.158C653.042 57.9289 653.33 57.7522 653.646 57.639C653.961 57.5258 654.296 57.4785 654.63 57.4999H677.27ZM664.17 9.6499H700.07C702.39 9.6499 703.55 10.9832 703.55 13.6499C703.55 16.3166 703.466 19.0032 703.3 21.7099C703.13 24.4999 702.91 27.3599 702.64 30.3099C702.37 33.2599 701.96 36.1799 701.43 38.9199C701.002 41.3084 700.353 43.6519 699.49 45.9199C699.23 46.5789 698.744 47.1245 698.12 47.4599C697.832 47.6037 697.518 47.6884 697.197 47.709C696.876 47.7297 696.554 47.6858 696.25 47.5799C696 47.5391 695.768 47.4206 695.589 47.2411C695.409 47.0617 695.291 46.8304 695.25 46.5799C695.152 45.994 695.152 45.3958 695.25 44.8099C695.711 42.6229 696.028 40.4082 696.2 38.1799C696.39 35.8099 696.55 33.2799 696.66 30.5999C696.77 27.9199 696.87 25.3099 696.95 22.5999C697.03 19.8899 697.07 17.2599 697.07 14.5999H664.24C662.47 14.5999 661.59 13.7599 661.59 12.0699C661.59 10.3799 662.5 9.65985 664.17 9.65985V9.6499Z" fill="#595857"/>
<path d="M764.01 12.66C763.496 16.6914 762.26 20.5973 760.36 24.19L775.2 38.25C775.966 38.9318 776.489 39.8445 776.69 40.85C776.757 41.2258 776.739 41.6116 776.639 41.9799C776.538 42.3481 776.358 42.6896 776.11 42.98C775.818 43.3001 775.458 43.5514 775.057 43.7156C774.655 43.8799 774.223 43.9531 773.79 43.93C773.275 43.9181 772.769 43.7917 772.308 43.5599C771.848 43.3282 771.446 42.9968 771.13 42.59L758.2 27.98C757.82 28.67 757.4 29.35 756.96 29.98C753.056 35.8487 748.164 40.9951 742.5 45.19C740.85 46.4 739.6 46.55 738.77 45.63C737.94 44.71 738.17 43.63 739.44 42.51C744.273 38.1299 748.384 33.0134 751.62 27.35C754.66 21.93 756.456 17.22 757.01 13.22C757.091 12.8626 757.032 12.4878 756.847 12.1719C756.661 11.8561 756.361 11.6229 756.01 11.52C755.201 11.2239 754.368 10.9997 753.519 10.85C753.28 10.8406 753.046 10.7818 752.83 10.6772C752.614 10.5727 752.422 10.4248 752.266 10.2426C752.111 10.0605 751.994 9.84803 751.924 9.61871C751.854 9.3894 751.833 9.1481 751.86 8.90997C751.92 7.83997 752.61 7.29999 753.93 7.29999H759.16C761.16 7.29999 762.56 7.75999 763.22 8.67999C763.952 9.86893 764.232 11.2815 764.01 12.66V12.66ZM793.769 73.93H766.24C761.16 73.93 758.62 71.6133 758.62 66.98V58.5C758.62 56.97 758.35 55.96 757.83 55.5C757.071 54.8872 756.175 54.4654 755.22 54.27C754.452 54.0931 753.712 53.8139 753.019 53.44C752.825 53.2883 752.674 53.0888 752.579 52.861C752.484 52.6332 752.451 52.3849 752.48 52.14C752.48 50.98 753.31 50.41 754.97 50.41H761.6C763.76 50.41 764.83 51.64 764.83 54.12V67.3C764.83 68.41 765.33 68.96 766.33 68.96H793.769C795.589 68.96 796.5 69.8 796.5 71.49C796.5 73.18 795.589 73.93 793.769 73.93ZM786.89 8.15997C786.955 7.60631 786.907 7.04525 786.749 6.51068C786.591 5.97611 786.325 5.47917 785.97 5.04999C785.207 4.41829 784.295 3.99458 783.32 3.82001C782.465 3.6431 781.631 3.37839 780.83 3.03003C780.579 2.93119 780.364 2.75705 780.216 2.53149C780.067 2.30594 779.991 2.03998 780 1.77002C780 0.61002 780.86 0.0300293 782.58 0.0300293H789.79C791.997 0.0300293 793.1 1.13664 793.1 3.34998V49.35C793.1 54.3033 791.526 56.7767 788.38 56.77H786.89V26.72H773.04C771.27 26.72 770.39 25.9 770.39 24.27C770.39 22.64 771.27 21.74 773.04 21.74H786.89V8.15997Z" fill="#595857"/>
<path d="M857.38 39.03H831.18C827.97 39.03 826.37 37.3 826.37 33.82V17.01C826.421 15.7795 826.323 14.5474 826.08 13.34C825.89 12.68 825.18 12.14 823.97 11.72C823.466 11.54 822.99 11.2874 822.56 10.97C822.369 10.8286 822.216 10.6424 822.115 10.4278C822.014 10.2132 821.968 9.97692 821.98 9.73999C821.98 8.58999 822.67 8.01001 824.05 8.01001H854.22C855.99 8.01001 856.88 8.85003 856.88 10.53C856.88 12.21 855.99 12.98 854.22 12.98H832.59V31.93C832.59 33.4 833.25 34.14 834.59 34.14H857.39C859.1 34.14 859.95 34.96 859.95 36.59C859.95 38.22 859.09 39.03 857.38 39.03ZM838.22 53.96C836.73 53.96 835.99 53.12 835.99 51.43C835.99 49.74 836.7 48.98 838.14 48.98H872.38C874.38 48.98 875.45 50.12 875.45 52.38V68.72C875.45 73.72 874.013 76.22 871.14 76.22H869.31V53.96H838.22ZM869.89 8.15997C869.956 7.60699 869.91 7.04632 869.754 6.51178C869.597 5.97724 869.334 5.47995 868.98 5.04999C868.217 4.42021 867.304 3.99675 866.33 3.82001C865.475 3.64465 864.64 3.37988 863.84 3.03003C863.588 2.93119 863.374 2.75705 863.226 2.53149C863.077 2.30594 863.001 2.03998 863.01 1.77002C863.01 0.61002 863.87 0.0300293 865.58 0.0300293H872.79C874.997 0.0300293 876.104 1.13664 876.11 3.34998V37.61C876.11 42.51 874.533 44.96 871.38 44.96H869.89V26.24H853.89C852.07 26.24 851.16 25.4 851.16 23.72C851.16 22.09 852.07 21.27 853.89 21.27H869.89V8.15997Z" fill="#595857"/>
<path d="M564.42 443.5C566.787 443.487 569.068 444.386 570.79 446.01C570.362 446.645 570.115 447.384 570.076 448.149C570.036 448.913 570.205 449.674 570.564 450.35C570.924 451.026 571.461 451.591 572.117 451.985C572.773 452.379 573.524 452.588 574.29 452.588C575.055 452.588 575.806 452.379 576.463 451.985C577.119 451.591 577.656 451.026 578.015 450.35C578.375 449.674 578.544 448.913 578.504 448.149C578.465 447.384 578.218 446.645 577.79 446.01C579.493 444.394 581.752 443.495 584.1 443.5C585.386 443.446 586.67 443.654 587.873 444.111C589.076 444.569 590.174 445.266 591.1 446.16C591.988 447.03 592.687 448.074 593.152 449.227C593.616 450.38 593.837 451.617 593.8 452.86C593.845 455.647 593.181 458.4 591.87 460.86C590.442 463.411 588.735 465.796 586.78 467.97C584.16 470.977 581.767 473.933 579.6 476.84C580.201 477.782 580.539 478.868 580.576 479.984C580.614 481.101 580.351 482.207 579.814 483.187C579.277 484.167 578.487 484.985 577.525 485.554C576.564 486.124 575.467 486.424 574.35 486.424C573.233 486.424 572.136 486.124 571.175 485.554C570.213 484.985 569.423 484.167 568.886 483.187C568.349 482.207 568.086 481.101 568.123 479.984C568.161 478.868 568.498 477.782 569.1 476.84C566.927 473.933 564.513 470.977 561.86 467.97C559.946 465.784 558.27 463.401 556.86 460.86C555.549 458.4 554.885 455.647 554.93 452.86C554.894 451.617 555.116 450.379 555.583 449.226C556.049 448.073 556.75 447.029 557.64 446.16C558.536 445.288 559.597 444.603 560.762 444.146C561.926 443.689 563.169 443.47 564.42 443.5V443.5Z" fill="#E5E5E5"/>
<path d="M627.5 462H1124.5" stroke="#B2B2B2" stroke-miterlimit="10"/>
<path d="M0.5 462H497.5" stroke="#B2B2B2" stroke-miterlimit="10"/>
<path d="M532.77 772.01C532.77 783.21 531.42 791.27 528.72 796.19C526.034 801.092 522.136 805.223 517.4 808.19C512.05 811.514 506.256 814.063 500.19 815.76C493.523 817.714 486.237 819.714 478.33 821.76L476.33 818.91C482.01 816.589 487.505 813.841 492.77 810.69C496.567 808.418 500.119 805.761 503.37 802.76C505.772 800.587 507.799 798.033 509.37 795.2C510.754 792.335 511.621 789.247 511.93 786.08C512.289 783.494 512.509 780.89 512.59 778.28V774.28H490.6L484.76 777.28L478.92 774.28V772.02H512.75L522.75 767.37L532.77 772.01ZM570.18 856.71C570.708 856.701 571.22 856.894 571.61 857.25C571.801 857.422 571.954 857.634 572.056 857.871C572.158 858.107 572.207 858.363 572.2 858.62C572.2 859.151 571.989 859.659 571.614 860.034C571.239 860.41 570.731 860.62 570.2 860.62H510.99C509.591 861.845 507.999 862.831 506.28 863.54C504.641 864.248 502.95 864.827 501.22 865.27C499.298 865.75 497.347 866.107 495.38 866.34V828.22L488.83 827.5C488.682 827.503 488.536 827.473 488.401 827.413C488.266 827.352 488.146 827.263 488.05 827.15C487.87 826.953 487.767 826.697 487.76 826.43C487.736 826.269 487.751 826.104 487.803 825.949C487.854 825.793 487.941 825.652 488.057 825.537C488.172 825.421 488.313 825.334 488.468 825.283C488.623 825.231 488.788 825.217 488.95 825.24H489.07L513.97 827.62H545.66L555.43 823.1L565.43 827.74V855.5L570.18 856.71ZM513.95 831.57V854.5C513.955 855.268 513.833 856.032 513.59 856.76H546.83V831.62L513.95 831.57ZM565.89 808.94C565.921 810.128 565.672 811.307 565.165 812.382C564.658 813.457 563.906 814.398 562.97 815.13C561.074 816.689 558.918 817.901 556.6 818.71C553.581 819.738 550.465 820.455 547.3 820.85V764.85L540.75 764.13C540.604 764.132 540.459 764.101 540.326 764.041C540.193 763.98 540.075 763.891 539.98 763.78C539.798 763.584 539.692 763.328 539.68 763.06C539.657 762.899 539.671 762.734 539.723 762.579C539.774 762.423 539.861 762.282 539.977 762.167C540.092 762.051 540.233 761.964 540.388 761.913C540.543 761.861 540.708 761.847 540.87 761.87H540.99L565.89 764.25V808.94Z" fill="#595857"/>
<path d="M667.27 774.03H667.16V776.41H645.23C645.07 780.463 644.693 784.633 644.1 788.92C643.551 792.969 642.736 796.978 641.66 800.92C642.447 801.633 643.637 802.586 645.23 803.78C646.823 804.973 648.533 806.38 650.36 808C652.18 809.633 654.067 811.383 656.02 813.25C657.899 815.046 659.669 816.952 661.32 818.96C662.798 820.741 664.076 822.679 665.13 824.74C666.028 826.424 666.48 828.311 666.44 830.22C666.28 833.24 665.507 835.406 664.12 836.72C662.844 837.974 661.187 838.769 659.41 838.98C657.676 839.18 655.919 838.957 654.29 838.33C652.968 837.939 651.8 837.145 650.95 836.06C650.116 834.642 649.381 833.169 648.75 831.65C647.75 829.43 646.657 826.95 645.47 824.21C644.284 821.47 643.073 818.71 641.84 815.93C640.61 813.15 639.55 810.84 638.68 809.02L636.68 812.95C634.748 816.175 632.337 819.089 629.53 821.59C626.547 824.28 623.339 826.709 619.94 828.85C616.503 831.026 612.94 832.996 609.27 834.75C605.623 836.503 602.13 838.053 598.79 839.4L597.36 837.01C601.653 834.433 605.531 831.22 608.86 827.48C611.873 824.087 614.472 820.347 616.6 816.34C618.588 812.597 620.148 808.642 621.25 804.55C622.259 800.825 623.053 797.045 623.63 793.23C624.133 790.013 624.467 786.772 624.63 783.52C624.75 780.59 624.85 778.2 624.93 776.37H615.28L609.44 779.47L603.61 776.37V773.99H647.61L658.21 769.34L667.27 774.03ZM694.56 851.11C694.59 852.299 694.341 853.479 693.834 854.556C693.327 855.632 692.576 856.575 691.64 857.31C689.744 858.872 687.583 860.081 685.26 860.88C682.243 861.905 679.131 862.626 675.97 863.03V765.03L669.42 764.31C669.123 764.287 668.846 764.15 668.647 763.929C668.448 763.707 668.342 763.418 668.35 763.12C668.35 762.8 668.64 762.55 669.24 762.35C669.718 762.172 670.221 762.071 670.73 762.05H670.85L694.56 764.43V851.11Z" fill="#595857"/>
<path d="M745.5 839.2L738.5 842.3L731.5 839.2V836.82H781.89C786.503 836.5 790.296 836.12 793.27 835.68C795.743 835.351 798.192 834.856 800.6 834.2C802.104 833.745 803.545 833.103 804.89 832.29V764.98L798.33 764.26C798.033 764.237 797.756 764.101 797.557 763.879C797.357 763.658 797.251 763.368 797.26 763.07C797.26 762.36 797.66 762 798.45 762H798.57L823.47 764.38V851.11C823.502 852.3 823.254 853.481 822.747 854.558C822.24 855.634 821.487 856.577 820.55 857.31C818.656 858.87 816.499 860.079 814.18 860.88C811.163 861.906 808.05 862.626 804.89 863.03V835.15C803.89 835.55 802.7 835.94 801.43 836.34C798.041 837.322 794.576 838.018 791.07 838.42C786.285 838.982 781.469 839.242 776.65 839.2H745.5ZM748.01 779.04L742.17 782.13L736.33 779.04V776.65H781.33L790.62 772.36L799.91 776.65V779.04H748.01ZM765.88 782.04C769.3 782.019 772.693 782.647 775.88 783.89C778.889 785.051 781.687 786.7 784.16 788.77C786.502 790.753 788.422 793.184 789.81 795.92C791.185 798.687 791.902 801.735 791.902 804.825C791.902 807.915 791.185 810.963 789.81 813.73C788.42 816.517 786.501 819.007 784.16 821.06C781.728 823.191 778.92 824.849 775.88 825.95C769.445 828.244 762.416 828.244 755.98 825.95C752.939 824.853 750.129 823.195 747.7 821.06C745.357 819.007 743.434 816.517 742.04 813.73C740.672 810.961 739.96 807.914 739.96 804.825C739.96 801.737 740.672 798.689 742.04 795.92C743.431 793.183 745.355 790.752 747.7 788.77C750.17 786.695 752.969 785.046 755.98 783.89C759.146 782.643 762.518 782.005 765.92 782.01L765.88 782.04ZM776.24 766.04C777.427 767.374 777.627 768.684 776.84 769.97C775.916 771.321 774.611 772.366 773.09 772.97C771.301 773.738 769.377 774.143 767.43 774.16C765.619 774.281 763.83 773.705 762.43 772.55C761.96 772.16 761.32 771.62 760.53 770.94C759.74 770.26 758.86 769.49 757.91 768.62C756.96 767.75 756 766.79 755.05 765.76C754.112 764.745 753.259 763.655 752.5 762.5C755.144 761.345 757.957 760.622 760.83 760.36C763.441 760.225 766.057 760.505 768.58 761.19C771.558 762.042 774.23 763.729 776.28 766.05L776.24 766.04ZM765.88 825.25C767.74 825.298 769.55 824.637 770.94 823.4C772.405 822.065 773.582 820.445 774.4 818.64C775.358 816.578 776.031 814.394 776.4 812.15C776.802 809.748 777.002 807.316 777 804.88C777.003 802.385 776.803 799.893 776.4 797.43C776.031 795.148 775.358 792.925 774.4 790.82C773.613 789.012 772.431 787.403 770.94 786.11C769.487 784.995 767.707 784.391 765.875 784.391C764.043 784.391 762.263 784.995 760.81 786.11C759.326 787.393 758.165 789.006 757.42 790.82C756.494 792.937 755.823 795.156 755.42 797.43C754.986 799.89 754.768 802.383 754.77 804.88C754.77 807.318 754.988 809.751 755.42 812.15C755.822 814.386 756.494 816.566 757.42 818.64C758.196 820.451 759.352 822.074 760.81 823.4C762.212 824.652 764.041 825.317 765.92 825.26L765.88 825.25Z" fill="#595857"/>
<path d="M303.67 812.85C302.18 812.85 301.44 812.17 301.44 810.85C301.44 809.53 302.16 808.85 303.6 808.85H322.94C323.443 808.801 323.952 808.858 324.432 809.016C324.913 809.175 325.354 809.431 325.73 809.77C326.016 810.127 326.2 810.554 326.261 811.007C326.323 811.459 326.26 811.92 326.08 812.34C324.91 816.071 322.96 819.51 320.36 822.43L330.41 831.31C330.746 831.535 331.03 831.831 331.24 832.176C331.451 832.521 331.584 832.908 331.63 833.31C331.649 833.641 331.586 833.971 331.447 834.271C331.307 834.571 331.095 834.832 330.83 835.03C330.278 835.445 329.6 835.657 328.91 835.63C328.182 835.605 327.493 835.296 326.99 834.77L317.92 825C317.68 825.25 317.45 825.49 317.22 825.7C312.723 829.996 307.589 833.571 302 836.3C300.79 836.89 300 836.79 299.52 836.01C299.04 835.23 299.32 834.52 300.25 833.89C304.657 831.164 308.69 827.876 312.25 824.11C315.438 820.864 317.965 817.03 319.69 812.82L303.67 812.85ZM315.19 851.49C315.171 849.818 315.528 848.163 316.236 846.648C316.944 845.134 317.985 843.798 319.28 842.74C322.077 840.439 325.587 839.181 329.21 839.181C332.832 839.181 336.343 840.439 339.14 842.74C340.407 843.817 341.425 845.156 342.123 846.666C342.821 848.175 343.182 849.817 343.182 851.48C343.182 853.143 342.821 854.786 342.123 856.295C341.425 857.804 340.407 859.143 339.14 860.22C336.331 862.497 332.825 863.739 329.21 863.739C325.594 863.739 322.089 862.497 319.28 860.22C317.985 859.169 316.944 857.839 316.236 856.329C315.528 854.819 315.17 853.168 315.19 851.5V851.49ZM320.5 851.49C320.459 852.61 320.669 853.725 321.116 854.753C321.562 855.781 322.234 856.696 323.08 857.43C324.798 858.882 326.975 859.679 329.225 859.679C331.475 859.679 333.652 858.882 335.37 857.43C336.184 856.671 336.832 855.752 337.276 854.731C337.719 853.71 337.948 852.608 337.948 851.495C337.948 850.382 337.719 849.281 337.276 848.26C336.832 847.239 336.184 846.32 335.37 845.56C333.652 844.108 331.475 843.311 329.225 843.311C326.975 843.311 324.798 844.108 323.08 845.56C322.233 846.294 321.561 847.209 321.115 848.237C320.668 849.265 320.458 850.38 320.5 851.5V851.49ZM338.3 808.97C338.354 808.52 338.311 808.064 338.173 807.633C338.035 807.201 337.805 806.805 337.5 806.47C336.854 805.971 336.101 805.629 335.3 805.47C334.569 805.337 333.856 805.125 333.17 804.84C332.969 804.762 332.797 804.625 332.677 804.446C332.557 804.267 332.496 804.055 332.5 803.84C332.5 802.91 333.23 802.45 334.67 802.45H340.81C342.63 802.45 343.53 803.34 343.53 805.11V819.39H352.53C354.02 819.39 354.76 820.07 354.76 821.39C354.76 822.71 354.02 823.39 352.53 823.39H343.53V832.72C343.53 836.62 342.18 838.56 339.53 838.56H338.34L338.3 808.97Z" fill="#595857"/>
<path d="M376.4 837.98H396.65C398.14 837.98 398.88 838.63 398.88 839.98C398.88 841.33 398.14 841.98 396.65 841.98H373.5C370.8 841.98 369.45 840.583 369.45 837.79V817.5C369.494 816.747 369.388 815.992 369.14 815.28C368.95 814.987 368.698 814.739 368.403 814.553C368.108 814.366 367.776 814.246 367.43 814.2C366.902 814.08 366.396 813.877 365.93 813.6C365.766 813.49 365.632 813.341 365.54 813.166C365.447 812.992 365.399 812.797 365.4 812.6C365.4 811.71 366.08 811.27 367.4 811.27H371.73C373.68 811.27 374.66 812.27 374.66 814.27V836.27C374.73 837.38 375.29 837.98 376.4 837.98ZM406.14 862.54V831.76H391.76C391.483 831.803 391.201 831.782 390.934 831.698C390.667 831.614 390.423 831.47 390.221 831.276C390.019 831.083 389.864 830.846 389.768 830.583C389.673 830.319 389.639 830.038 389.67 829.76C389.67 828.49 390.37 827.85 391.76 827.85H406.14V821.19H391.76C391.483 821.233 391.201 821.212 390.934 821.128C390.667 821.044 390.423 820.9 390.221 820.707C390.019 820.513 389.864 820.276 389.768 820.012C389.673 819.749 389.639 819.468 389.67 819.19C389.67 817.92 390.37 817.28 391.76 817.28H406.14V809.03C406.196 808.582 406.156 808.128 406.023 807.697C405.89 807.266 405.668 806.868 405.37 806.53C404.721 806.017 403.955 805.674 403.14 805.53C402.425 805.387 401.725 805.176 401.05 804.9C400.843 804.827 400.665 804.691 400.54 804.512C400.414 804.333 400.348 804.119 400.35 803.9C400.35 802.97 401.07 802.51 402.51 802.51H408.58C410.45 802.51 411.38 803.4 411.38 805.17V856.7C411.38 860.64 410.047 862.61 407.38 862.61L406.14 862.54Z" fill="#595857"/>
<path d="M229.97 607.38C228.2 607.38 227.31 606.53 227.31 604.85C227.31 603.17 228.17 602.4 229.88 602.4H256C256.445 602.365 256.89 602.449 257.291 602.645C257.692 602.84 258.033 603.139 258.28 603.51C258.512 603.867 258.671 604.267 258.748 604.685C258.825 605.104 258.819 605.534 258.73 605.95C257.683 611.644 254.12 617.75 248.04 624.27C242.445 630.415 235.894 635.615 228.64 639.67C227.09 640.56 226.04 640.46 225.49 639.35C224.94 638.24 225.27 637.27 226.49 636.43C232.758 632.33 238.377 627.314 243.16 621.55C247.474 616.217 250.207 611.494 251.36 607.38H229.97ZM274.9 641.88C277.05 641.88 278.13 643.11 278.13 645.59V657.35C278.13 660.19 277.58 662.25 276.47 663.51H276.56C278.32 663.51 279.21 664.33 279.21 665.96C279.21 667.59 278.32 668.48 276.56 668.48H249.86C249.563 669.157 249.076 669.733 248.459 670.14C247.841 670.546 247.119 670.765 246.38 670.77H244.89V651.04C244.953 649.755 244.842 648.466 244.56 647.21C244.365 646.811 244.084 646.459 243.739 646.18C243.394 645.9 242.991 645.699 242.56 645.59C242.005 645.437 241.483 645.182 241.02 644.84C240.84 644.692 240.697 644.503 240.604 644.29C240.51 644.076 240.468 643.843 240.48 643.61C240.48 642.46 241.26 641.88 242.81 641.88H274.9ZM250.9 663.51H271.96V646.77H250.96V661.22C251.02 662.06 250.99 662.83 250.94 663.5L250.9 663.51ZM272.54 637.85V602.16C272.605 601.607 272.557 601.045 272.399 600.511C272.241 599.976 271.976 599.479 271.62 599.05C270.858 598.419 269.945 597.995 268.97 597.82C268.116 597.642 267.281 597.377 266.48 597.03C266.23 596.931 266.017 596.756 265.87 596.531C265.723 596.305 265.65 596.039 265.66 595.77C265.66 594.61 266.51 594.03 268.23 594.03H275.5C277.714 594.03 278.817 595.137 278.81 597.35V630.5C278.81 635.394 277.237 637.84 274.09 637.84L272.54 637.85Z" fill="#595857"/>
<path d="M318.86 597.9H355.25C357.02 597.9 357.9 598.72 357.9 600.35C357.9 601.98 357.02 602.8 355.25 602.8H327.15V615.8C327.15 617.28 327.84 618.01 329.22 618.01H356.91C358.62 618.01 359.48 618.83 359.48 620.46C359.48 622.09 358.62 622.91 356.91 622.91H342.91V631.83H369.02C370.85 631.83 371.76 632.65 371.76 634.28C371.76 635.91 370.85 636.8 369.02 636.8H310.16C309.82 636.846 309.474 636.812 309.149 636.701C308.825 636.589 308.531 636.404 308.29 636.16C308.049 635.915 307.869 635.618 307.763 635.292C307.657 634.966 307.629 634.619 307.68 634.28C307.635 633.945 307.667 633.604 307.776 633.284C307.885 632.963 308.067 632.673 308.308 632.435C308.549 632.198 308.841 632.019 309.162 631.914C309.484 631.809 309.826 631.78 310.16 631.83H336.69V622.91H325.9C322.566 622.91 320.9 621.173 320.9 617.7V607.04C320.962 605.754 320.851 604.466 320.57 603.21C320.377 602.808 320.098 602.455 319.752 602.175C319.406 601.894 319.002 601.695 318.57 601.59C318.018 601.437 317.499 601.182 317.04 600.84C316.853 600.682 316.707 600.481 316.613 600.255C316.519 600.029 316.48 599.784 316.5 599.54C316.5 598.5 317.31 597.9 318.86 597.9ZM322.26 656.17C322.26 652.43 323.943 649.14 327.31 646.3C330.833 643.532 335.184 642.027 339.665 642.027C344.146 642.027 348.496 643.532 352.02 646.3C355.393 649.14 357.06 652.43 357.02 656.17C356.98 659.91 355.313 663.213 352.02 666.08C348.482 668.815 344.137 670.299 339.665 670.299C335.193 670.299 330.848 668.815 327.31 666.08C323.937 663.26 322.253 659.957 322.26 656.17V656.17ZM328.56 656.17C328.563 657.396 328.839 658.605 329.368 659.711C329.897 660.816 330.667 661.789 331.62 662.56C333.932 664.305 336.749 665.249 339.645 665.249C342.541 665.249 345.358 664.305 347.67 662.56C348.633 661.796 349.412 660.825 349.949 659.718C350.485 658.612 350.766 657.399 350.77 656.17C350.769 654.944 350.49 653.734 349.953 652.633C349.416 651.531 348.635 650.565 347.67 649.81C345.345 648.096 342.533 647.171 339.645 647.171C336.757 647.171 333.944 648.096 331.62 649.81C330.665 650.572 329.893 651.539 329.364 652.641C328.834 653.742 328.559 654.948 328.56 656.17V656.17Z" fill="#595857"/>
<path d="M429.64 612.03H419.85C415.71 612.03 412.477 613.004 410.15 614.95C409.092 615.743 408.228 616.766 407.625 617.943C407.022 619.12 406.695 620.418 406.67 621.74C406.658 622.757 406.88 623.763 407.318 624.68C407.757 625.597 408.401 626.402 409.2 627.03C410.769 628.413 412.789 629.175 414.88 629.17C417.055 629.249 419.191 628.579 420.93 627.27C421.667 626.753 422.269 626.068 422.688 625.271C423.107 624.475 423.33 623.59 423.34 622.69C423.378 621.381 422.933 620.103 422.09 619.1C421.14 618.062 419.9 617.333 418.53 617.01C417.7 616.8 417.39 616.23 417.62 615.31C417.85 614.39 418.72 614.01 420.27 614.17C422.746 614.356 425.09 615.354 426.94 617.01C427.783 617.716 428.461 618.597 428.927 619.592C429.394 620.587 429.637 621.671 429.64 622.77C429.64 625.77 428.257 628.437 425.49 630.77C423.458 632.501 420.993 633.645 418.36 634.08V639.61H418.94C422.313 639.61 425.2 639.544 427.6 639.41C430.06 639.273 432.511 638.995 434.94 638.58C436.713 638.274 437.713 638.564 437.94 639.45C438.065 639.877 438.033 640.335 437.85 640.741C437.666 641.146 437.343 641.472 436.94 641.66C434.809 642.686 432.526 643.361 430.18 643.66C426.303 644.296 422.378 644.587 418.45 644.53H396.32C395.975 644.583 395.622 644.555 395.29 644.447C394.957 644.34 394.655 644.157 394.405 643.913C394.156 643.668 393.967 643.369 393.853 643.039C393.739 642.709 393.704 642.356 393.75 642.01C393.75 640.37 394.61 639.56 396.32 639.56H412.24V634.03C409.409 633.685 406.762 632.441 404.69 630.48C401.817 628 400.38 625.157 400.38 621.95C400.395 619.959 400.985 618.014 402.08 616.35C403.232 614.543 404.812 613.049 406.68 612H398.31C396.49 612 395.57 611.19 395.57 609.56C395.57 607.93 396.46 607.27 398.23 607.27H429.65C431.36 607.27 432.22 608.03 432.22 609.56C432.22 611.09 431.35 612.03 429.64 612.03ZM407.09 600.82L404.68 598.82C404.216 598.471 403.867 597.99 403.68 597.44C403.639 597.169 403.655 596.893 403.725 596.628C403.796 596.363 403.92 596.115 404.09 595.9C404.266 595.685 404.488 595.51 404.738 595.387C404.988 595.265 405.262 595.197 405.54 595.19C406.102 595.198 406.656 595.331 407.16 595.58C409.217 596.741 411.439 597.581 413.75 598.07C415.897 598.469 418.076 598.667 420.26 598.66C422.03 598.66 422.91 599.48 422.91 601.11C422.927 601.465 422.852 601.818 422.693 602.135C422.533 602.452 422.295 602.723 422 602.92C421.475 603.316 420.838 603.537 420.18 603.55L414.37 603.48C411.709 603.46 409.137 602.52 407.09 600.82V600.82ZM446.88 668.33H419.02C413.88 668.33 411.313 666.014 411.32 661.38V657.9C411.442 656.837 411.16 655.766 410.53 654.9C409.771 654.287 408.876 653.866 407.92 653.67C407.165 653.458 406.439 653.152 405.76 652.76C405.582 652.614 405.443 652.426 405.356 652.213C405.269 652 405.236 651.769 405.26 651.54C405.26 650.33 406.06 649.72 407.67 649.72H414.3C416.46 649.72 417.53 650.96 417.53 653.43V661.65C417.53 662.75 418.06 663.3 419.11 663.3H446.88C448.7 663.3 449.62 664.14 449.62 665.83C449.62 667.52 448.7 668.33 446.88 668.33ZM440.88 602.16C440.948 601.604 440.899 601.04 440.735 600.504C440.572 599.969 440.297 599.473 439.93 599.05C439.171 598.438 438.276 598.016 437.32 597.82C436.448 597.658 435.599 597.393 434.79 597.03C434.546 596.925 434.34 596.748 434.199 596.523C434.058 596.298 433.988 596.036 434 595.77C434 594.61 434.86 594.03 436.57 594.03H443.86C446.02 594.03 447.1 595.137 447.1 597.35V622.14H457.79C459.56 622.14 460.44 622.98 460.44 624.67C460.44 626.36 459.56 627.19 457.79 627.19H447.1V648.11C447.1 652.964 445.497 655.387 442.29 655.38H440.88V602.16Z" fill="#595857"/>
<path d="M543.09 625.38C540.603 620.64 539.333 616.586 539.28 613.22C539.2 611.6 539.47 609.983 540.07 608.476C540.671 606.97 541.588 605.61 542.76 604.49C545.133 602.203 548.367 601.14 552.46 601.3C555.423 601.294 558.279 602.404 560.46 604.41C561.497 605.383 562.314 606.566 562.857 607.88C563.4 609.194 563.657 610.609 563.61 612.03C563.645 613.56 563.361 615.08 562.776 616.493C562.19 617.907 561.317 619.183 560.21 620.24C558.11 622.3 554.737 624.487 550.09 626.8C552.297 630.587 554.04 633.453 555.32 635.4C557.187 638.247 559.48 641.537 562.2 645.27C563.445 643.659 564.502 641.911 565.35 640.06C566.429 638.06 567.077 635.856 567.25 633.59C567.299 632.612 567.04 631.643 566.51 630.82C566.01 630.14 564.99 629.82 563.44 629.82C562.61 629.82 562.2 629.37 562.2 628.48C562.2 627.59 562.58 627.13 563.36 627.13H577.62C578.72 627.13 579.27 627.58 579.27 628.48C579.27 629.37 578.72 629.82 577.62 629.82C576.551 629.768 575.485 629.97 574.51 630.41C573.76 630.8 573.14 632.03 572.64 634.08C571.144 639.505 568.581 644.577 565.1 649C567.767 652 570.433 653.763 573.1 654.29C574.135 654.447 575.19 654.406 576.21 654.17C577.356 653.932 578.459 653.521 579.48 652.95C580.81 652.27 581.79 652.35 582.48 653.19C583.17 654.03 582.93 654.79 581.94 655.48C580.883 656.239 579.725 656.848 578.5 657.29C576.687 657.98 574.759 658.319 572.82 658.29C568.947 658.29 565.28 656.423 561.82 652.69C557.153 657.263 551.93 659.55 546.15 659.55C541.23 659.55 537.307 658.063 534.38 655.09C532.952 653.672 531.827 651.98 531.073 650.115C530.318 648.25 529.95 646.251 529.99 644.24C529.95 639.923 531.481 635.739 534.3 632.47C536.8 629.618 539.773 627.219 543.09 625.38V625.38ZM551.21 639.11C549.723 636.903 547.723 633.616 545.21 629.25C542.684 630.674 540.46 632.576 538.66 634.85C536.627 637.36 535.619 640.547 535.84 643.77C535.912 646.718 537.077 649.534 539.11 651.67C540.913 653.463 543.329 654.506 545.87 654.59C548.289 654.643 550.686 654.13 552.87 653.09C555.036 652.13 557.003 650.773 558.67 649.09C555.743 645.49 553.257 642.163 551.21 639.11V639.11ZM547.98 622.85C552.073 620.85 554.863 619.087 556.35 617.56C557.815 616.239 558.708 614.399 558.84 612.43C558.874 611.534 558.731 610.639 558.419 609.798C558.107 608.957 557.631 608.186 557.02 607.53C556.364 606.884 555.581 606.382 554.72 606.057C553.859 605.731 552.939 605.589 552.02 605.64C551.08 605.593 550.141 605.737 549.257 606.061C548.374 606.386 547.566 606.886 546.88 607.53C546.208 608.277 545.694 609.151 545.367 610.102C545.041 611.052 544.909 612.058 544.98 613.06C544.993 615.8 545.993 619.063 547.98 622.85V622.85Z" fill="#595857"/>
<path d="M677.19 606.66C676.676 610.692 675.44 614.597 673.54 618.19L688.38 632.25C689.146 632.932 689.669 633.845 689.87 634.85C689.936 635.226 689.919 635.612 689.818 635.98C689.718 636.348 689.538 636.69 689.29 636.98C689.002 637.309 688.644 637.57 688.243 637.743C687.842 637.916 687.407 637.997 686.97 637.98C686.456 637.97 685.951 637.844 685.493 637.612C685.034 637.38 684.633 637.048 684.32 636.64L671.38 622.03C671 622.72 670.58 623.4 670.14 624.03C666.241 629.879 661.359 635.008 655.71 639.19C654.06 640.4 652.81 640.55 651.98 639.63C651.15 638.71 651.38 637.63 652.65 636.51C657.483 632.13 661.594 627.014 664.83 621.35C667.87 615.93 669.667 611.22 670.22 607.22C670.301 606.863 670.242 606.488 670.057 606.172C669.871 605.856 669.572 605.623 669.22 605.52C668.411 605.224 667.578 605 666.73 604.85C666.49 604.841 666.255 604.782 666.039 604.677C665.824 604.573 665.632 604.425 665.476 604.243C665.32 604.061 665.204 603.848 665.134 603.619C665.064 603.39 665.042 603.148 665.07 602.91C665.13 601.84 665.82 601.3 667.15 601.3H672.37C674.37 601.3 675.77 601.76 676.43 602.68C677.152 603.873 677.421 605.285 677.19 606.66V606.66ZM706.95 667.93H679.42C674.34 667.93 671.8 665.597 671.8 660.93V652.5C671.8 650.97 671.54 649.96 671.01 649.5C670.251 648.887 669.356 648.466 668.4 648.27C667.633 648.093 666.893 647.814 666.2 647.44C666.006 647.288 665.853 647.089 665.759 646.861C665.664 646.634 665.63 646.385 665.66 646.14C665.66 644.98 666.49 644.41 668.15 644.41H674.78C676.94 644.41 678.02 645.64 678.02 648.12V661.3C678.02 662.41 678.51 662.96 679.51 662.96H706.95C708.77 662.96 709.68 663.8 709.68 665.49C709.68 667.18 708.77 667.93 706.95 667.93ZM700.07 602.16C700.135 601.607 700.087 601.045 699.929 600.511C699.77 599.976 699.506 599.479 699.15 599.05C698.387 598.419 697.475 597.995 696.5 597.82C695.645 597.642 694.811 597.377 694.01 597.03C693.759 596.931 693.546 596.756 693.399 596.531C693.252 596.305 693.179 596.039 693.19 595.77C693.19 594.61 694.04 594.03 695.76 594.03H702.97C705.177 594.03 706.28 595.137 706.28 597.35V643.35C706.28 648.297 704.707 650.77 701.56 650.77H700.07V602.16Z" fill="#595857"/>
<path d="M784.4 625.61H770.4V633.75H796.4C798.28 633.75 799.22 634.53 799.22 636.11C799.22 637.69 798.28 638.64 796.4 638.64H737.62C737.279 638.686 736.932 638.652 736.606 638.54C736.281 638.429 735.986 638.242 735.746 637.997C735.505 637.751 735.324 637.452 735.219 637.125C735.114 636.797 735.087 636.45 735.14 636.11C735.14 634.53 735.97 633.75 737.62 633.75H764.15V625.61H753.29C752.993 626.264 752.514 626.819 751.912 627.211C751.31 627.602 750.608 627.814 749.89 627.82H748.4V606.27C748.467 605.357 748.341 604.441 748.03 603.58C747.895 603.34 747.71 603.132 747.487 602.969C747.265 602.807 747.01 602.695 746.74 602.64C746.159 602.487 745.591 602.29 745.04 602.05C744.798 601.952 744.592 601.781 744.452 601.56C744.312 601.339 744.245 601.081 744.26 600.82C744.26 599.67 745.06 599.08 746.66 599.08H751.5C753.5 599.08 754.56 600.22 754.56 602.48V606.82H779.77V603.74C779.859 602.86 779.7 601.973 779.31 601.18C778.932 600.734 778.426 600.416 777.86 600.27C777.226 600.093 776.615 599.842 776.04 599.52C775.847 599.4 775.691 599.229 775.589 599.026C775.487 598.823 775.442 598.596 775.46 598.37C775.46 597.27 776.26 596.72 777.86 596.72H782.59C784.803 596.72 785.907 597.85 785.9 600.11V615.19C785.9 617.67 785.403 619.513 784.41 620.72C786.12 620.72 786.98 621.51 786.98 623.09C787.027 623.437 786.991 623.79 786.877 624.121C786.763 624.452 786.573 624.752 786.322 624.997C786.072 625.241 785.767 625.424 785.434 625.531C785.1 625.637 784.746 625.664 784.4 625.61V625.61ZM749.75 656.8C749.75 653.12 751.42 649.94 754.75 647.29C758.362 644.696 762.697 643.3 767.145 643.3C771.592 643.3 775.928 644.696 779.54 647.29C782.88 649.94 784.54 653.12 784.54 656.8C784.54 660.48 782.87 663.72 779.54 666.35C775.918 668.92 771.586 670.3 767.145 670.3C762.703 670.3 758.372 668.92 754.75 666.35C751.417 663.723 749.75 660.54 749.75 656.8ZM754.47 620.72H779.76V611.72H754.55V618.27C754.55 619.11 754.5 619.93 754.5 620.72H754.47ZM756.05 656.8C756.031 657.979 756.294 659.145 756.815 660.202C757.337 661.26 758.103 662.178 759.05 662.88C761.05 664.46 763.76 665.25 767.18 665.25C770.064 665.398 772.913 664.562 775.26 662.88C776.208 662.178 776.974 661.26 777.496 660.203C778.018 659.146 778.28 657.979 778.26 656.8C778.273 655.633 778.008 654.48 777.486 653.436C776.965 652.393 776.201 651.489 775.26 650.8C772.913 649.118 770.064 648.282 767.18 648.43C763.746 648.43 761.036 649.22 759.05 650.8C758.109 651.49 757.346 652.394 756.824 653.437C756.303 654.48 756.037 655.633 756.05 656.8V656.8Z" fill="#595857"/>
<path d="M847.009 603.98C846.676 607.521 845.545 610.94 843.7 613.98L857.87 625.66C858.309 625.961 858.678 626.354 858.951 626.812C859.224 627.269 859.394 627.781 859.45 628.31C859.464 629.138 859.168 629.94 858.62 630.56C858.333 630.876 857.98 631.124 857.585 631.287C857.191 631.449 856.765 631.522 856.339 631.5C855.82 631.483 855.31 631.354 854.844 631.123C854.379 630.892 853.967 630.564 853.639 630.16L841.5 617.56C840.89 618.35 840.249 619.19 839.589 620.09C835.562 625.171 830.716 629.544 825.25 633.03C823.81 633.93 822.689 633.93 821.889 633.03C821.089 632.13 821.269 631.25 822.429 630.39C826.798 626.91 830.638 622.814 833.83 618.23C837.116 613.564 839.203 609.38 840.089 605.68C840.139 605.511 840.153 605.334 840.131 605.16C840.11 604.985 840.053 604.817 839.964 604.665C839.875 604.513 839.757 604.381 839.615 604.277C839.473 604.173 839.311 604.1 839.139 604.06C838.317 603.763 837.471 603.539 836.61 603.39C836.37 603.382 836.134 603.325 835.918 603.22C835.701 603.116 835.508 602.968 835.352 602.786C835.196 602.603 835.08 602.39 835.01 602.161C834.941 601.931 834.92 601.689 834.95 601.45C834.95 600.38 835.699 599.83 837.019 599.83H842.24C843.575 599.741 844.902 600.093 846.019 600.83C846.435 601.23 846.745 601.728 846.918 602.279C847.091 602.829 847.122 603.414 847.009 603.98V603.98ZM875.28 669.04H846.679C843.679 669.04 842.2 667.33 842.2 663.91V657.91C842.29 657.037 842.039 656.163 841.5 655.47C840.986 654.966 840.382 654.563 839.719 654.28C839.276 654.159 838.863 653.944 838.509 653.65C838.347 653.486 838.224 653.287 838.146 653.07C838.068 652.852 838.038 652.62 838.059 652.39C838.059 651.34 838.809 650.81 840.299 650.81H869.23V642.44H842.5C842.153 642.493 841.8 642.465 841.466 642.357C841.133 642.249 840.83 642.065 840.581 641.82C840.331 641.574 840.142 641.273 840.029 640.942C839.916 640.61 839.882 640.257 839.929 639.91C839.929 638.33 840.759 637.55 842.419 637.55H872.599C874.532 637.55 875.5 638.68 875.5 640.94V651.6C875.5 654.28 874.359 655.6 872.099 655.6H848.469V661.91C848.469 663.38 849.129 664.12 850.469 664.12H875.339C877.049 664.12 877.91 664.91 877.91 666.49C877.961 666.844 877.927 667.205 877.812 667.544C877.697 667.882 877.503 668.188 877.247 668.437C876.99 668.686 876.677 668.871 876.335 668.975C875.994 669.08 875.632 669.103 875.28 669.04V669.04ZM869.889 633.51V602.16C869.956 601.607 869.91 601.047 869.753 600.512C869.597 599.977 869.334 599.48 868.98 599.05C868.216 598.421 867.304 597.997 866.33 597.82C865.474 597.645 864.639 597.38 863.839 597.03C863.588 596.931 863.374 596.757 863.225 596.532C863.077 596.306 863.001 596.04 863.009 595.77C863.009 594.61 863.87 594.03 865.58 594.03H872.79C874.996 594.03 876.103 595.137 876.11 597.35V626.09C876.11 631.037 874.533 633.51 871.379 633.51H869.889Z" fill="#595857"/>
</svg>
