<svg width="726" height="392" viewBox="0 0 726 392" fill="none" xmlns="http://www.w3.org/2000/svg">
<path d="M99.0298 15.8999V74.24C99.0794 76.1122 98.6901 77.9698 97.8931 79.6646C97.0961 81.3593 95.9134 82.8442 94.4398 84C91.4672 86.4532 88.0808 88.3562 84.4398 89.6199C79.6899 91.2381 74.7881 92.3707 69.8098 93V84H37.6898C35.4877 85.9203 32.9886 87.4703 30.2898 88.5898C27.6979 89.703 25.0231 90.6124 22.2898 91.3098C19.2655 92.0679 16.1959 92.6326 13.0998 93V16.8999L2.7798 15.7798C2.54632 15.7849 2.3148 15.7363 2.10322 15.6375C1.89165 15.5386 1.70567 15.3923 1.55977 15.21C1.27805 14.9033 1.11499 14.506 1.09981 14.0898C1.06332 13.8353 1.08646 13.5758 1.16737 13.3318C1.24829 13.0878 1.38474 12.8659 1.56605 12.6836C1.74736 12.5013 1.96858 12.3637 2.21217 12.2815C2.45577 12.1993 2.71512 12.1748 2.9698 12.21H3.1598L42.3598 15.96V33.5999H69.7498V16.8999L59.4298 15.7798C59.1975 15.7864 58.9669 15.7384 58.7567 15.6394C58.5465 15.5404 58.3626 15.3933 58.2198 15.21C57.9314 14.9067 57.7641 14.5081 57.7498 14.0898C57.7133 13.8353 57.7364 13.5758 57.8173 13.3318C57.8983 13.0878 58.0348 12.8659 58.2161 12.6836C58.3974 12.5013 58.6185 12.3637 58.8621 12.2815C59.1057 12.1993 59.3651 12.1748 59.6198 12.21H59.8098L99.0298 15.8999ZM147.03 138.21C147.094 141.001 146.236 143.735 144.59 145.99C142.949 148.191 140.915 150.07 138.59 151.53C136.164 153.051 133.583 154.308 130.89 155.28C128.347 156.218 125.749 157 123.11 157.62C120.67 158.19 118.61 158.62 116.92 158.84C115.23 159.06 114.32 159.22 114.2 159.22V111.22H59.0798L43.1298 118.34L27.3798 111.22V107.65H147.06L147.03 138.21ZM69.7698 77.8999V39.8198H42.3798V74.3298C42.389 75.5424 42.1998 76.7484 41.8198 77.8999H69.7698ZM162.63 39.25C166.111 39.2526 169.449 40.6369 171.911 43.0986C174.373 45.5604 175.757 48.8984 175.76 52.3799H145.76V83.3799C145.808 85.2504 145.418 87.1062 144.621 88.7991C143.824 90.492 142.642 91.9751 141.17 93.1299C138.195 95.5826 134.81 97.4888 131.17 98.76C126.419 100.375 121.518 101.504 116.54 102.13V4.77979L106.22 3.6499C105.752 3.61416 105.316 3.40023 105.002 3.05225C104.687 2.70426 104.518 2.24868 104.53 1.77979C104.53 0.649785 105.16 0.0898438 106.41 0.0898438H106.52L145.72 3.83984V46.23H150.98C152.093 44.1162 153.768 42.35 155.82 41.1257C157.871 39.9014 160.221 39.2662 162.61 39.2898L162.63 39.25Z" fill="#231916"/>
<path d="M303.52 84.5999C304.349 84.5843 305.154 84.8847 305.77 85.4399C306.075 85.7092 306.318 86.0423 306.48 86.4155C306.642 86.7888 306.721 87.193 306.71 87.5999C306.719 88.0198 306.641 88.4371 306.479 88.8247C306.317 89.2123 306.075 89.5615 305.77 89.8499C305.479 90.1519 305.129 90.3913 304.742 90.553C304.355 90.7146 303.939 90.7951 303.52 90.7898H233.34C231.242 92.6549 228.884 94.2046 226.34 95.3899C223.954 96.5111 221.474 97.4212 218.93 98.1099C216.22 98.8517 213.464 99.4129 210.68 99.7898V18.7898L200.36 17.6599C200.127 17.6662 199.896 17.6191 199.685 17.522C199.473 17.4249 199.287 17.2804 199.14 17.0999C198.855 16.7901 198.689 16.3902 198.67 15.97C198.635 15.7153 198.659 15.4558 198.741 15.2122C198.824 14.9686 198.961 14.7475 199.144 14.5662C199.326 14.3849 199.548 14.2484 199.792 14.1675C200.036 14.0866 200.295 14.0634 200.55 14.0999H200.73L238.06 17.8499H266.76L280.27 10.72L296.03 18.0398V82.75L303.52 84.5999ZM243.68 156.6C240.933 156.6 238.87 156.037 237.49 154.91C236.208 153.914 235.18 152.629 234.49 151.16C233.701 149.383 233.257 147.472 233.18 145.53V110.9H223.8C223.542 110.919 223.283 110.884 223.039 110.799C222.796 110.713 222.572 110.578 222.383 110.402C222.194 110.226 222.043 110.013 221.939 109.776C221.836 109.539 221.783 109.283 221.783 109.025C221.783 108.766 221.836 108.511 221.939 108.274C222.043 108.037 222.194 107.824 222.383 107.648C222.572 107.472 222.796 107.337 223.039 107.251C223.283 107.166 223.542 107.131 223.8 107.15H246.68C249.018 107.021 251.348 107.507 253.44 108.56C255.517 109.588 257.391 110.984 258.97 112.68C260.497 114.323 261.762 116.192 262.72 118.22C263.614 120.029 264.095 122.013 264.13 124.03V149.54C264.107 150.187 264.233 150.83 264.5 151.42C264.766 151.976 265.196 152.436 265.733 152.738C266.27 153.04 266.887 153.17 267.5 153.11H325.09L340.85 145.79L356.61 153.11V156.67L243.68 156.6ZM238.05 23.98V80.98C238.06 82.1926 237.871 83.3985 237.49 84.5498H268.63V23.96L238.05 23.98ZM354.36 100.14C354.407 102.011 354.015 103.868 353.216 105.561C352.418 107.254 351.234 108.736 349.76 109.89C346.788 112.346 343.401 114.253 339.76 115.52C335.01 117.138 330.108 118.271 325.13 118.9V4.68994L314.82 3.55981C314.352 3.52408 313.916 3.31014 313.602 2.96216C313.287 2.61417 313.118 2.15883 313.13 1.68994C313.13 0.559941 313.75 0 315 0H315.19L354.4 3.75L354.36 100.14Z" fill="#231916"/>
<path d="M489.769 158.9V102.81H454.319V140.33C454.368 142.203 453.977 144.061 453.178 145.756C452.379 147.451 451.195 148.935 449.719 150.09C446.744 152.54 443.358 154.442 439.719 155.71C434.969 157.328 430.067 158.461 425.089 159.09V102.81H414.209L403.149 107.69L392.079 102.81V99.0598H497.499C503.022 91.2901 507.088 82.5823 509.499 73.3599C511.624 65.193 512.964 56.8418 513.499 48.4199C513.951 41.5767 513.857 34.7083 513.219 27.8799C512.586 21.9399 512.272 17.6565 512.279 15.0298H427.119L417.919 19.8999L408.729 15.0298V11.46H512.649L528.409 4.1499L544.169 11.46V34.8999C544.193 41.3519 543.879 47.8008 543.229 54.22C542.691 59.6689 541.527 65.0377 539.759 70.22C538.097 74.9663 535.586 79.3712 532.349 83.22C528.649 87.4663 524.277 91.0774 519.409 93.9099C516.084 95.8216 512.637 97.512 509.089 98.97H521.089L539.469 86.5898L557.849 98.97V102.72H519.019V140.05C519.069 141.922 518.679 143.78 517.882 145.475C517.085 147.169 515.903 148.654 514.429 149.81C511.452 152.259 508.067 154.165 504.429 155.44C499.672 157.087 494.76 158.246 489.769 158.9V158.9Z" fill="#231916"/>
<path d="M101.73 335.72C103.603 337.847 106.23 340.757 109.61 344.45C112.99 348.143 116.52 352.02 120.2 356.08C123.893 360.14 127.426 364.046 130.8 367.8C134.173 371.553 136.8 374.43 138.68 376.43H104.52C103.58 375.654 102.701 374.809 101.89 373.9C100.39 372.326 98.6731 370.513 96.7397 368.46C94.8064 366.407 92.8964 364.31 91.0098 362.17C89.1364 360.05 87.6364 358.363 86.5098 357.11C81.5845 363.407 75.875 369.049 69.5198 373.9C63.7743 378.273 56.7399 380.615 49.5198 380.56C42.7975 380.621 36.1112 379.574 29.7298 377.46C24.0538 375.607 18.7271 372.818 13.9698 369.21C9.69714 365.968 6.17656 361.84 3.64978 357.11C1.38615 352.804 0.141387 348.035 0.0113555 343.172C-0.118676 338.309 0.869502 333.481 2.89978 329.06C4.93048 324.747 7.72947 320.84 11.1598 317.53C15.0058 313.816 19.3267 310.629 24.0098 308.05C29.2681 305.125 34.793 302.707 40.5098 300.83L33.7598 296.99C30.8574 295.304 28.205 293.22 25.8798 290.8C23.1824 287.939 20.9942 284.638 19.4098 281.04C17.5965 277.1 16.6898 272.193 16.6898 266.32C16.6884 262.315 17.7922 258.388 19.8798 254.97C22.1332 251.266 25.0967 248.044 28.5998 245.49C32.5408 242.621 36.9351 240.434 41.5998 239.02C46.8268 237.427 52.2656 236.638 57.7298 236.68C62.6334 236.684 67.507 237.443 72.1797 238.93C76.7347 240.337 81.038 242.456 84.9297 245.21C88.5423 247.758 91.6316 250.976 94.0298 254.69C96.309 258.206 97.5147 262.31 97.4998 266.5C97.4998 272.88 96.0631 278.07 93.1898 282.07C90.6214 285.773 87.374 288.956 83.6198 291.45C79.3447 294.14 74.6551 296.107 69.7397 297.27C72.4931 301.023 75.4931 304.9 78.7397 308.9C81.4931 312.4 84.5564 316.247 87.9297 320.44C91.3031 324.633 94.8331 328.786 98.5198 332.9C100.754 329.783 102.551 326.375 103.86 322.77C105.046 319.398 105.864 315.908 106.3 312.36C106.75 308.594 106.941 304.802 106.87 301.01C106.796 297.01 106.763 292.757 106.77 288.25H111.09V301.76C111.096 305.712 110.846 309.66 110.34 313.58C109.827 317.355 108.915 321.066 107.62 324.65C106.145 328.58 104.165 332.301 101.73 335.72V335.72ZM51.8298 373.24C55.1663 373.283 58.4892 372.807 61.6798 371.83C64.5493 370.929 67.2665 369.601 69.7397 367.89C72.2604 366.143 74.587 364.132 76.6797 361.89C78.9933 359.428 81.1573 356.83 83.1598 354.11C79.3998 349.976 76.0231 345.976 73.0298 342.11C70.0365 338.243 67.1265 334.367 64.2998 330.48C61.4931 326.607 58.5864 322.76 55.5798 318.94C52.5731 315.12 49.1964 311.15 45.4498 307.03C42.3175 307.968 39.4548 309.641 37.0998 311.91C34.7552 314.212 32.8507 316.923 31.4798 319.91C29.9875 323.136 28.9154 326.54 28.2898 330.04C27.6124 333.721 27.2777 337.457 27.2898 341.2C27.2602 345.399 27.8913 349.577 29.1598 353.58C30.2838 357.211 31.9966 360.634 34.2298 363.71C36.2871 366.529 38.9053 368.892 41.9198 370.65C44.929 372.391 48.3533 373.286 51.8298 373.24V373.24ZM39.4498 266.5C39.3198 269.01 39.3198 271.66 39.4498 274.5C39.573 277.308 39.9478 280.099 40.5698 282.84C41.2 285.606 42.1462 288.29 43.3898 290.84C44.6474 293.408 46.362 295.726 48.4498 297.68C51.9498 296.56 54.7964 295.56 56.9897 294.68C59.1697 293.81 60.9898 292.99 62.4298 292.24C63.5737 291.66 64.6704 290.991 65.7098 290.24C66.4406 289.7 67.1292 289.105 67.7698 288.46C70.7955 285.668 72.8165 281.956 73.5198 277.9C74.1654 274.151 74.4999 270.354 74.5198 266.55C74.5198 258.93 73.1864 252.866 70.5198 248.36C67.8531 243.853 63.4465 241.603 57.2998 241.61C54.6248 241.548 51.9989 242.335 49.7998 243.86C47.6357 245.399 45.7886 247.341 44.3598 249.58C42.7907 252.048 41.6197 254.748 40.8898 257.58C40.0755 260.489 39.5924 263.482 39.4498 266.5V266.5Z" fill="#231916"/>
<path d="M268.3 243.24C268.3 260.88 266.173 273.573 261.92 281.32C257.693 289.052 251.558 295.576 244.1 300.27C235.676 305.503 226.551 309.513 217 312.18C206.546 315.247 195.073 318.403 182.58 321.65L179.39 317.15C188.332 313.499 196.984 309.173 205.27 304.21C211.252 300.637 216.849 296.455 221.97 291.73C225.729 288.302 228.899 284.278 231.35 279.82C233.52 275.31 234.875 270.452 235.35 265.47C235.901 261.397 236.235 257.298 236.35 253.19V246.81H201.9L192.71 251.5L183.51 246.81V243.24H236.79L252.52 235.9L268.3 243.24ZM327.2 376.62C328.03 376.601 328.835 376.902 329.45 377.46C329.757 377.728 330 378.06 330.163 378.434C330.325 378.808 330.403 379.213 330.39 379.62C330.384 380.464 330.047 381.273 329.45 381.87C328.852 382.467 328.044 382.804 327.2 382.81H233.97C231.765 384.732 229.263 386.283 226.56 387.4C223.968 388.515 221.293 389.424 218.56 390.12C215.535 390.877 212.466 391.441 209.37 391.81V331.81L199.05 330.69C198.817 330.696 198.586 330.649 198.375 330.552C198.163 330.455 197.977 330.31 197.83 330.13C197.547 329.82 197.384 329.419 197.37 329C197.333 328.745 197.356 328.486 197.437 328.242C197.518 327.998 197.655 327.776 197.836 327.594C198.017 327.411 198.238 327.274 198.482 327.191C198.726 327.109 198.985 327.085 199.24 327.12H199.43L238.63 330.88H288.52L303.9 323.75L319.66 331.06V374.77L327.2 376.62ZM238.66 337.04V373.04C238.669 374.252 238.48 375.458 238.1 376.61H290.44V337.03L238.66 337.04ZM320.45 301.4C320.497 303.271 320.105 305.128 319.306 306.82C318.507 308.513 317.324 309.996 315.85 311.15C312.876 313.603 309.49 315.509 305.85 316.78C301.099 318.394 296.198 319.524 291.22 320.15V231.99L280.87 230.9C280.637 230.908 280.405 230.862 280.193 230.765C279.981 230.668 279.795 230.522 279.65 230.34C279.366 230.034 279.199 229.637 279.18 229.22C279.143 228.964 279.166 228.704 279.247 228.459C279.329 228.214 279.466 227.991 279.649 227.809C279.831 227.626 280.054 227.489 280.299 227.408C280.544 227.326 280.804 227.303 281.06 227.34H281.25L320.45 231.09V301.4Z" fill="#231916"/>
<path d="M480.08 246.43H479.89V250.19H445.38C445.133 256.556 444.54 263.12 443.6 269.88C442.729 276.273 441.443 282.603 439.75 288.83C441.003 289.95 442.88 291.45 445.38 293.33C447.88 295.2 450.57 297.43 453.44 299.99C456.31 302.55 459.29 305.31 462.35 308.24C465.316 311.065 468.105 314.071 470.7 317.24C473.025 320.042 475.037 323.09 476.7 326.33C478.114 328.982 478.824 331.954 478.76 334.96C478.51 339.72 477.29 343.12 475.1 345.19C473.092 347.164 470.486 348.417 467.69 348.75C464.958 349.074 462.189 348.731 459.62 347.75C457 346.75 455.25 345.56 454.37 344.18C453.051 341.951 451.892 339.632 450.9 337.24C449.34 333.74 447.62 329.833 445.74 325.52C443.86 321.206 441.953 316.873 440.02 312.52C438.08 308.153 436.413 304.526 435.02 301.64L431.83 307.83C428.788 312.905 424.995 317.49 420.58 321.43C415.884 325.672 410.832 329.503 405.48 332.88C400.07 336.3 394.464 339.399 388.69 342.16C382.93 344.913 377.426 347.353 372.18 349.48L369.93 345.72C376.684 341.66 382.787 336.603 388.03 330.72C397.248 320.361 403.928 307.998 407.54 294.61C409.134 288.747 410.386 282.797 411.29 276.79C412.056 271.723 412.557 266.619 412.79 261.5C412.98 256.88 413.14 253.12 413.26 250.25H398.11L388.92 255.12L379.72 250.25V246.49H448.94L465.64 239.18L480.08 246.43ZM523.08 367.8C523.127 369.671 522.735 371.527 521.936 373.22C521.137 374.913 519.954 376.396 518.48 377.55C515.506 380.003 512.12 381.909 508.48 383.18C503.726 384.798 498.821 385.93 493.84 386.56V232.18L483.53 231.05C483.062 231.014 482.626 230.8 482.311 230.452C481.997 230.104 481.828 229.649 481.84 229.18C481.84 228.68 482.31 228.27 483.25 227.96C484.001 227.683 484.79 227.524 485.59 227.49H485.78L523.11 231.24L523.08 367.8Z" fill="#231916"/>
<path d="M603.319 349.04L592.249 353.92L581.189 349.04V345.29H660.519C667.773 344.79 673.743 344.197 678.429 343.51C682.324 342.986 686.18 342.201 689.969 341.16C692.341 340.46 694.611 339.452 696.719 338.16V232.16L686.399 231.03C685.932 230.994 685.496 230.78 685.181 230.432C684.867 230.084 684.698 229.629 684.709 229.16C684.709 228.03 685.339 227.47 686.589 227.47H686.779L725.979 231.22V367.8C726.027 369.67 725.637 371.526 724.84 373.219C724.043 374.912 722.862 376.395 721.389 377.55C718.415 380.003 715.029 381.909 711.389 383.18C706.639 384.798 701.738 385.931 696.759 386.56V342.66C695.126 343.287 693.313 343.913 691.319 344.54C685.981 346.089 680.522 347.187 674.999 347.82C667.466 348.701 659.884 349.109 652.299 349.04H603.319ZM607.259 254.31L598.069 259.19L588.879 254.31V250.56H659.779L674.419 243.81L689.049 250.56V254.31H607.259ZM635.399 259C640.756 258.973 646.07 259.961 651.059 261.91C655.789 263.735 660.182 266.334 664.059 269.6C667.754 272.718 670.784 276.547 672.969 280.86C675.121 285.213 676.24 290.004 676.24 294.86C676.24 299.716 675.121 304.507 672.969 308.86C670.772 313.246 667.746 317.164 664.059 320.4C660.245 323.753 655.835 326.362 651.059 328.09C640.934 331.717 629.864 331.717 619.739 328.09C614.962 326.364 610.552 323.755 606.739 320.4C603.052 317.164 600.027 313.246 597.829 308.86C595.678 304.507 594.559 299.716 594.559 294.86C594.559 290.004 595.678 285.213 597.829 280.86C600.015 276.547 603.045 272.718 606.739 269.6C610.615 266.332 615.009 263.733 619.739 261.91C624.729 259.96 630.042 258.973 635.399 259V259ZM651.719 233.9C653.599 236.033 653.913 238.1 652.659 240.1C651.219 242.255 649.158 243.922 646.749 244.88C643.935 246.095 640.905 246.731 637.839 246.75C634.985 246.954 632.162 246.048 629.959 244.22C629.209 243.6 628.209 242.75 626.959 241.69C625.709 240.63 624.329 239.41 622.829 238.03C621.329 236.65 619.829 235.16 618.329 233.53C616.817 231.891 615.436 230.136 614.199 228.28C618.367 226.457 622.8 225.316 627.329 224.9C631.44 224.689 635.558 225.131 639.529 226.21C644.246 227.551 648.478 230.22 651.719 233.9V233.9ZM635.399 327.13C638.337 327.212 641.196 326.175 643.399 324.23C645.709 322.126 647.56 319.57 648.839 316.72C650.335 313.471 651.378 310.032 651.939 306.5C652.562 302.719 652.873 298.892 652.869 295.06C652.875 291.131 652.564 287.209 651.939 283.33C651.376 279.737 650.333 276.236 648.839 272.92C647.604 270.074 645.745 267.541 643.399 265.51C641.119 263.741 638.315 262.78 635.429 262.78C632.543 262.78 629.739 263.741 627.459 265.51C625.124 267.531 623.292 270.068 622.109 272.92C620.668 276.254 619.631 279.749 619.019 283.33C618.337 287.202 618.002 291.128 618.019 295.06C618.004 298.896 618.339 302.725 619.019 306.5C619.629 310.02 620.667 313.452 622.109 316.72C623.336 319.577 625.16 322.138 627.459 324.23C629.651 326.15 632.487 327.171 635.399 327.09V327.13Z" fill="#231916"/>
</svg>
